<svg xmlns="http://www.w3.org/2000/svg" width="364.958" height="332.648" viewBox="0 0 364.958 332.648"><g transform="translate(-640.321 1193.32)"><path d="M846.743-1176.625c53.613.472,175.628,241.182,129.41,295.531s-348.007-8.517-334.841-86.158S793.131-1177.095,846.743-1176.625Z" fill="#fff" opacity="0.2" style="isolation:isolate"/><path d="M881.59-1183.907s137.338,115.082,121.393,293.946" fill="none" stroke="#fff" stroke-linecap="round" stroke-linejoin="round" stroke-width="2" stroke-dasharray="12"/><g transform="translate(640.321 -1193.32)"><g transform="translate(31.448 166.326)"><path d="M932.371-963.406c.263,0,.526,0,.788-.01a.344.344,0,0,0,.335-.352.353.353,0,0,0-.352-.335,31.759,31.759,0,0,1-4.07-.163.345.345,0,0,0-.378.3.344.344,0,0,0,.305.378A32.345,32.345,0,0,0,932.371-963.406Zm4.88-.377a.325.325,0,0,0,.053,0,31.622,31.622,0,0,0,4.062-.91.343.343,0,0,0,.233-.426.346.346,0,0,0-.427-.233,30.958,30.958,0,0,1-3.974.89.344.344,0,0,0-.286.393A.343.343,0,0,0,937.251-963.783Zm-12.273-.5a.342.342,0,0,0,.333-.263.344.344,0,0,0-.253-.415,31.055,31.055,0,0,1-3.886-1.212.344.344,0,0,0-.444.2.343.343,0,0,0,.2.444,31.733,31.733,0,0,0,3.973,1.239A.323.323,0,0,0,924.978-964.28Zm20.158-1.825a.341.341,0,0,0,.139-.029,32.049,32.049,0,0,0,3.686-1.939.343.343,0,0,0,.114-.472.345.345,0,0,0-.473-.114,31.05,31.05,0,0,1-3.606,1.9.343.343,0,0,0-.174.453A.344.344,0,0,0,945.136-966.105Zm-27.823-1.134a.343.343,0,0,0,.3-.178.343.343,0,0,0-.137-.466,31.313,31.313,0,0,1-3.439-2.183.344.344,0,0,0-.48.075.345.345,0,0,0,.075.48,31.962,31.962,0,0,0,3.515,2.23A.334.334,0,0,0,917.313-967.239Zm34.832-3.161a.343.343,0,0,0,.216-.076,32.043,32.043,0,0,0,3.058-2.824.344.344,0,0,0-.012-.486.345.345,0,0,0-.486.012,31.3,31.3,0,0,1-2.992,2.764.344.344,0,0,0-.051.483A.342.342,0,0,0,952.145-970.4Zm-41.468-1.686a.341.341,0,0,0,.248-.107.343.343,0,0,0-.011-.485,31.291,31.291,0,0,1-2.76-3,.344.344,0,0,0-.483-.051.343.343,0,0,0-.052.483,32.029,32.029,0,0,0,2.821,3.062A.343.343,0,0,0,910.677-972.086Zm47.129-4.27a.344.344,0,0,0,.278-.141,32.119,32.119,0,0,0,2.225-3.516.344.344,0,0,0-.137-.466.344.344,0,0,0-.466.137,31.181,31.181,0,0,1-2.177,3.44.344.344,0,0,0,.075.48A.339.339,0,0,0,957.806-976.356Zm-52.291-2.126a.338.338,0,0,0,.178-.05.344.344,0,0,0,.114-.473,31.1,31.1,0,0,1-1.891-3.608.345.345,0,0,0-.453-.175.344.344,0,0,0-.175.454,31.857,31.857,0,0,0,1.933,3.687A.345.345,0,0,0,905.515-978.482Zm56.219-5.086a.344.344,0,0,0,.321-.221,31.684,31.684,0,0,0,1.235-3.975.344.344,0,0,0-.254-.414.343.343,0,0,0-.414.254,31.028,31.028,0,0,1-1.208,3.889.343.343,0,0,0,.2.444A.352.352,0,0,0,961.734-983.568Zm1.916-7.991a.344.344,0,0,0,.342-.308,32.439,32.439,0,0,0,.172-3.333q0-.414-.01-.825a.341.341,0,0,0-.352-.335.344.344,0,0,0-.335.352q.011.4.01.808a31.628,31.628,0,0,1-.169,3.262.344.344,0,0,0,.306.377A.228.228,0,0,0,963.65-991.559Zm-.212-8.214a.33.33,0,0,0,.054-.005.343.343,0,0,0,.286-.392,31.75,31.75,0,0,0-.915-4.061.344.344,0,0,0-.427-.232.344.344,0,0,0-.232.427,30.883,30.883,0,0,1,.9,3.973A.344.344,0,0,0,963.438-999.773Zm-2.331-7.882a.345.345,0,0,0,.14-.03.344.344,0,0,0,.174-.454,31.886,31.886,0,0,0-1.943-3.683.343.343,0,0,0-.472-.113.343.343,0,0,0-.113.473,31.1,31.1,0,0,1,1.9,3.6A.344.344,0,0,0,961.107-1007.655ZM904.7-1009.81a.347.347,0,0,0,.3-.18,31.167,31.167,0,0,1,2.17-3.448.343.343,0,0,0-.077-.479.344.344,0,0,0-.48.076,31.908,31.908,0,0,0-2.217,3.524.342.342,0,0,0,.138.465A.344.344,0,0,0,904.7-1009.81Zm52.108-4.849a.347.347,0,0,0,.217-.077.343.343,0,0,0,.05-.483,32.042,32.042,0,0,0-2.828-3.055.343.343,0,0,0-.485.013.342.342,0,0,0,.013.485,31.686,31.686,0,0,1,2.767,2.99A.345.345,0,0,0,956.8-1014.659Zm-47.284-1.807a.346.346,0,0,0,.25-.107,31.308,31.308,0,0,1,2.986-2.771.344.344,0,0,0,.05-.483.345.345,0,0,0-.484-.05,32.041,32.041,0,0,0-3.051,2.832.343.343,0,0,0,.013.486A.344.344,0,0,0,909.52-1016.466Zm41.321-3.848a.343.343,0,0,0,.278-.141.343.343,0,0,0-.076-.48,31.926,31.926,0,0,0-3.518-2.221.343.343,0,0,0-.466.138.342.342,0,0,0,.138.465,31.093,31.093,0,0,1,3.442,2.174A.345.345,0,0,0,950.841-1020.314Zm-34.944-1.337a.349.349,0,0,0,.18-.051,31.026,31.026,0,0,1,3.6-1.9.344.344,0,0,0,.173-.454.344.344,0,0,0-.454-.173,31.793,31.793,0,0,0-3.681,1.947.344.344,0,0,0-.112.472A.343.343,0,0,0,915.9-1021.651Zm27.727-2.582a.345.345,0,0,0,.321-.221.343.343,0,0,0-.2-.443,31.517,31.517,0,0,0-3.977-1.23.342.342,0,0,0-.413.254.344.344,0,0,0,.254.414,31.062,31.062,0,0,1,3.89,1.2A.335.335,0,0,0,943.624-1024.233Zm-20.225-.775a.367.367,0,0,0,.1-.014,30.931,30.931,0,0,1,3.973-.9.344.344,0,0,0,.286-.392.345.345,0,0,0-.393-.286,31.654,31.654,0,0,0-4.062.92.344.344,0,0,0-.231.427A.344.344,0,0,0,923.4-1025.008Zm12.233-1.131a.343.343,0,0,0,.341-.308.344.344,0,0,0-.306-.377,32.261,32.261,0,0,0-4.159-.158.343.343,0,0,0-.334.353.343.343,0,0,0,.352.334,31.96,31.96,0,0,1,4.07.154Z" transform="translate(-903.258 1026.993)" fill="#a0a09f"/></g><g transform="translate(228.501 136.212)"><path d="M744.011-1032.683c6.877-25.788-25.788-37.955-23.011,2.116,2.116,18.118,3.174,21.424,3.174,21.424s13.357,0,13.49-.926S744.011-1032.683,744.011-1032.683Z" transform="translate(-698.686 1057.107)" fill="#165a49"/><path d="M727-1038.193a.338.338,0,0,1,.477-.036l4.559,3.92.437-20.158a.338.338,0,0,1,.345-.331.338.338,0,0,1,.331.346l-.207,9.548,5.1-4.863a.338.338,0,0,1,.478.011.338.338,0,0,1-.012.478l-5.589,5.327-.3,13.92a.339.339,0,0,1-.338.331h-.007a.338.338,0,0,1-.331-.345l.073-3.389-4.981-4.283A.338.338,0,0,1,727-1038.193Z" transform="translate(-698.413 1057.107)" fill="#1c846b"/><path d="M694.63-1009.231c38.352-23.54,26.979-53.957,6.877-46.816s-17.721,46.551-17.721,46.551Z" transform="translate(-636.609 1057.107)" fill="#1a6f59"/><path d="M693.042-1012.364l14.792-23.861-2.4-9.069a.676.676,0,0,1,.481-.826.675.675,0,0,1,.826.48l2.069,7.833,6.446-10.4a.674.674,0,0,1,.93-.219.676.676,0,0,1,.219.931l-11.828,19.079,10.768-1.415a.675.675,0,0,1,.758.583.675.675,0,0,1-.582.758l-11.864,1.559-9.47,15.275a.677.677,0,0,1-.575.32.672.672,0,0,1-.356-.1A.675.675,0,0,1,693.042-1012.364Z" transform="translate(-642.34 1057.107)" fill="#1c846b"/><path d="M757.748-1009.143c-33.326-30.946-11.108-39.145.794-30.681s7.935,30.417,7.935,30.417Z" transform="translate(-740.194 1057.107)" fill="#1a6f59"/><path d="M754.17-1026.07l-3.053-4.405.087-8.373a.676.676,0,0,0-.669-.683.686.686,0,0,0-.683.669l-.067,6.467c-3.109-4.48-5.491-7.9-5.491-7.9a.675.675,0,0,0-.941-.168.676.676,0,0,0-.169.94c3.234,4.648,7.159,10.3,10.653,15.352l-5.922-.278a.674.674,0,0,0-.707.643.675.675,0,0,0,.643.707l6.954.327c4.3,6.215,7.739,11.225,8.062,11.783a.676.676,0,0,0,.621.41.676.676,0,0,0,.676-.676c0-.2,0-.3-3.034-4.73l2.209-6.968a.676.676,0,0,0-.44-.849.677.677,0,0,0-.848.44l-1.892,5.965Z" transform="translate(-740.115 1057.107)" fill="#1c846b"/><path d="M726.737-1009.143c7.935-18.779,5.819-29.359-4.232-30.681s-10.315,20.233-5.158,30.946Z" transform="translate(-678.502 1057.107)" fill="#1c846b"/><path d="M719.7-1035.825a.676.676,0,0,1,.73-.617.675.675,0,0,1,.617.729l-.534,6.414,3.364-3.171a.676.676,0,0,1,.956.029.676.676,0,0,1-.028.955l-4.46,4.2-1.414,16.962a.676.676,0,0,1-.673.62l-.056,0a.675.675,0,0,1-.618-.729Z" transform="translate(-675.49 1057.107)" fill="#219679"/><path d="M736.351-1009.143c-6.48-12.563,10.316-14.415,6.084.529Z" transform="translate(-710.863 1057.107)" fill="#1c846b"/><path d="M735.777-1008.878c6.613-9.126,3.439-18.251-4.1-18.515s-8.464,10.976-5.29,18.382Z" transform="translate(-696.931 1057.107)" fill="#219679"/><path d="M727.241-1018.33a.339.339,0,0,1,.469.1l2.683,4.062,1.018-11.136a.338.338,0,0,1,.368-.306.339.339,0,0,1,.3.368l-.564,6.174,3.808-3.031a.338.338,0,0,1,.475.054.337.337,0,0,1-.054.475l-4.314,3.434-.447,4.884a.331.331,0,0,1-.032.348l-.282,3.091a.338.338,0,0,1-.336.307l-.032,0a.337.337,0,0,1-.3-.367l.294-3.216-3.149-4.766A.339.339,0,0,1,727.241-1018.33Z" transform="translate(-695.856 1057.107)" fill="#34a68c"/><rect width="42.319" height="67.093" transform="translate(16.76 47.259)" fill="#69c0cc"/></g><g transform="translate(40.579 225.438)"><path d="M939.289-952.021c4.531-16.992-16.993-25.009-15.163,1.4,1.394,11.938,2.092,14.116,2.092,14.116s8.8,0,8.888-.61S939.289-952.021,939.289-952.021Z" transform="translate(-908.9 967.882)" fill="#166451"/><path d="M928.077-955.651a.222.222,0,0,1,.314-.024l3.005,2.583.287-13.283a.222.222,0,0,1,.228-.217.222.222,0,0,1,.218.227l-.137,6.292,3.362-3.205a.223.223,0,0,1,.315.008.223.223,0,0,1-.007.315l-3.683,3.51-.2,9.172a.223.223,0,0,1-.222.218h-.005a.223.223,0,0,1-.218-.228l.048-2.233-3.282-2.821A.223.223,0,0,1,928.077-955.651Z" transform="translate(-908.72 967.882)" fill="#1a6f59"/><path d="M906.054-936.335c25.271-15.511,17.777-35.554,4.532-30.848s-11.677,30.673-11.677,30.673Z" transform="translate(-866.603 967.882)" fill="#1a6f59"/><path d="M905.008-938.4l9.746-15.722-1.578-5.976a.444.444,0,0,1,.317-.544.445.445,0,0,1,.544.316l1.363,5.162,4.247-6.851a.445.445,0,0,1,.613-.144.444.444,0,0,1,.144.613l-7.793,12.572,7.1-.932a.445.445,0,0,1,.5.383.446.446,0,0,1-.384.5L912-948l-6.239,10.065a.446.446,0,0,1-.379.211.442.442,0,0,1-.235-.067A.445.445,0,0,1,905.008-938.4Z" transform="translate(-870.379 967.882)" fill="#1c7e65"/><path d="M948.863-936.335c-21.959-20.391-7.319-25.794.523-20.217s5.229,20.042,5.229,20.042Z" transform="translate(-937.297 967.882)" fill="#1a6f59"/><path d="M946.505-947.489c-.68-.983-1.361-1.964-2.011-2.9l.057-5.517a.445.445,0,0,0-.441-.45.451.451,0,0,0-.45.44l-.044,4.262c-2.048-2.952-3.618-5.208-3.618-5.208a.446.446,0,0,0-.62-.112.445.445,0,0,0-.111.62c2.13,3.063,4.717,6.789,7.019,10.116l-3.9-.184a.445.445,0,0,0-.466.424.445.445,0,0,0,.424.466l4.582.216c2.831,4.095,5.1,7.4,5.312,7.764a.445.445,0,0,0,.409.27.446.446,0,0,0,.446-.446c0-.134,0-.2-2-3.116l1.456-4.592a.445.445,0,0,0-.29-.559.446.446,0,0,0-.559.29l-1.246,3.93Z" transform="translate(-937.245 967.882)" fill="#1c846a"/><path d="M927.907-936.51c5.228-12.374,3.834-19.345-2.789-20.216s-6.8,13.332-3.4,20.391Z" transform="translate(-895.601 967.882)" fill="#1c846b"/><path d="M923.271-954.091a.446.446,0,0,1,.481-.407.446.446,0,0,1,.407.481l-.352,4.226,2.217-2.089a.446.446,0,0,1,.63.019.445.445,0,0,1-.019.629l-2.939,2.769-.931,11.177a.445.445,0,0,1-.444.408h-.037a.446.446,0,0,1-.407-.481Z" transform="translate(-893.616 967.882)" fill="#219a7e"/><path d="M934.242-936.51c-4.27-8.278,6.8-9.5,4.008.349Z" transform="translate(-916.924 967.882)" fill="#1c846b"/><path d="M933.864-936.335c4.357-6.013,2.265-12.026-2.7-12.2s-5.577,7.233-3.485,12.113Z" transform="translate(-907.745 967.882)" fill="#219679"/><path d="M928.239-942.563a.224.224,0,0,1,.309.063l1.768,2.676.671-7.337a.222.222,0,0,1,.242-.2.223.223,0,0,1,.2.242l-.372,4.069,2.51-2a.223.223,0,0,1,.313.035.222.222,0,0,1-.036.313L931-942.438l-.294,3.218a.217.217,0,0,1-.021.229l-.186,2.037a.223.223,0,0,1-.222.2h-.02a.222.222,0,0,1-.2-.242l.194-2.119-2.075-3.14A.224.224,0,0,1,928.239-942.563Z" transform="translate(-907.036 967.882)" fill="#31a487"/><rect width="27.885" height="30.39" transform="translate(11.567 31.546)" fill="#69c0cc"/></g><g transform="translate(244.705 26.584)"><g transform="translate(49.705 8.747)"><g transform="translate(29.774 17.447)"><path d="M671.085-1138.173a.341.341,0,0,0,.192-.059.344.344,0,0,0,.092-.477c-.385-.571-.788-1.141-1.2-1.694a.343.343,0,0,0-.48-.071.344.344,0,0,0-.071.481c.4.544.8,1.105,1.182,1.668A.342.342,0,0,0,671.085-1138.173Z" transform="translate(-669.55 1140.542)" fill="#a0a09f"/></g><g transform="translate(5.668 1.104)"><path d="M695.191-1142.736a.339.339,0,0,0,.227-.086.342.342,0,0,0,.03-.484c-.821-.93-1.692-1.838-2.588-2.7a.344.344,0,0,0-.486.011.343.343,0,0,0,.01.485c.883.846,1.741,1.739,2.549,2.655A.343.343,0,0,0,695.191-1142.736Zm-5.353-5.127a.34.34,0,0,0,.267-.127.342.342,0,0,0-.051-.483c-.966-.782-1.976-1.531-3-2.228a.344.344,0,0,0-.477.092.343.343,0,0,0,.091.477c1.01.685,2,1.423,2.955,2.193A.345.345,0,0,0,689.838-1147.863Zm-6.132-4.162a.343.343,0,0,0,.3-.176.343.343,0,0,0-.131-.467c-1.083-.609-2.2-1.179-3.333-1.693a.343.343,0,0,0-.455.17.344.344,0,0,0,.17.455c1.111.506,2.215,1.067,3.281,1.666A.342.342,0,0,0,683.706-1152.025Zm-6.743-3.074a.344.344,0,0,0,.323-.228.344.344,0,0,0-.208-.44c-1.17-.417-2.371-.79-3.57-1.106a.344.344,0,0,0-.42.244.344.344,0,0,0,.245.42c1.18.311,2.362.678,3.514,1.089A.333.333,0,0,0,676.963-1155.1Z" transform="translate(-673.077 1156.885)" fill="#a0a09f"/></g><path d="M700.858-1156.994a.343.343,0,0,0,.338-.284.342.342,0,0,0-.279-.4c-.678-.119-1.369-.224-2.054-.311a.346.346,0,0,0-.384.3.344.344,0,0,0,.3.385c.674.085,1.354.188,2.021.3A.315.315,0,0,0,700.858-1156.994Z" transform="translate(-698.477 1157.989)" fill="#a0a09f"/></g><g transform="translate(0 9.54)"><g transform="translate(32.048)"><path d="M716.52-1155.994a.335.335,0,0,0,.093-.013c.655-.185,1.321-.357,1.98-.511a.343.343,0,0,0,.257-.412.344.344,0,0,0-.412-.257c-.67.156-1.347.331-2.012.519a.344.344,0,0,0-.237.424A.345.345,0,0,0,716.52-1155.994Z" transform="translate(-716.176 1157.196)" fill="#a0a09f"/></g><g transform="translate(0 1.848)"><path d="M705.958-1069.494a.342.342,0,0,0,.343-.338.344.344,0,0,0-.338-.349c-1.384-.018-2.78-.1-4.148-.251a.344.344,0,0,0-.379.305.343.343,0,0,0,.3.378c1.39.15,2.807.236,4.212.255Zm4.186-.138.027,0c1.4-.112,2.81-.292,4.187-.536a.344.344,0,0,0,.279-.4.345.345,0,0,0-.4-.279c-1.356.24-2.743.418-4.122.529a.342.342,0,0,0-.314.37A.343.343,0,0,0,710.144-1069.632Zm-12.5-.762a.345.345,0,0,0,.337-.274.344.344,0,0,0-.268-.406c-1.352-.278-2.707-.625-4.026-1.031a.343.343,0,0,0-.429.227.343.343,0,0,0,.228.429c1.339.413,2.715.765,4.089,1.048A.323.323,0,0,0,697.64-1070.394Zm20.743-.7a.367.367,0,0,0,.092-.012c1.351-.375,2.7-.82,4.009-1.322a.345.345,0,0,0,.2-.444.344.344,0,0,0-.444-.2c-1.289.495-2.616.933-3.947,1.3a.343.343,0,0,0-.239.423A.343.343,0,0,0,718.383-1071.091Zm-28.74-1.765a.342.342,0,0,0,.317-.211.343.343,0,0,0-.185-.449c-1.273-.53-2.536-1.128-3.756-1.778a.344.344,0,0,0-.465.141.343.343,0,0,0,.142.465c1.239.66,2.522,1.268,3.815,1.806A.342.342,0,0,0,689.643-1072.856Zm36.553-1.233a.349.349,0,0,0,.153-.036c1.254-.625,2.494-1.318,3.685-2.06a.343.343,0,0,0,.11-.473.344.344,0,0,0-.473-.11c-1.173.731-2.394,1.413-3.629,2.028a.345.345,0,0,0-.154.461A.345.345,0,0,0,726.2-1074.089Zm-43.937-2.7a.342.342,0,0,0,.286-.154.343.343,0,0,0-.1-.476c-1.151-.762-2.279-1.589-3.353-2.457a.344.344,0,0,0-.483.051.343.343,0,0,0,.051.484c1.091.881,2.237,1.721,3.405,2.495A.351.351,0,0,0,682.259-1076.792Zm51.039-1.723a.346.346,0,0,0,.209-.07c1.113-.85,2.2-1.765,3.23-2.718a.344.344,0,0,0,.019-.486.342.342,0,0,0-.485-.018c-1.015.938-2.085,1.839-3.181,2.676a.343.343,0,0,0-.065.481A.342.342,0,0,0,733.3-1078.515Zm-57.548-3.537a.341.341,0,0,0,.245-.1.342.342,0,0,0-.005-.485c-.988-.966-1.94-1.99-2.832-3.044a.344.344,0,0,0-.484-.04.343.343,0,0,0-.04.484c.9,1.07,1.873,2.11,2.876,3.091A.341.341,0,0,0,675.75-1082.052Zm63.691-2.147a.343.343,0,0,0,.256-.115c.935-1.046,1.831-2.148,2.662-3.276a.344.344,0,0,0-.073-.481.344.344,0,0,0-.48.073c-.818,1.111-1.7,2.2-2.621,3.226a.342.342,0,0,0,.027.485A.34.34,0,0,0,739.441-1084.2Zm-69.1-4.243a.34.34,0,0,0,.2-.062.343.343,0,0,0,.086-.478c-.788-1.134-1.531-2.318-2.208-3.522a.344.344,0,0,0-.468-.131.344.344,0,0,0-.13.468c.687,1.222,1.441,2.426,2.242,3.577A.344.344,0,0,0,670.345-1088.442Zm74.059-2.495a.344.344,0,0,0,.3-.167c.722-1.2,1.393-2.454,2-3.72a.344.344,0,0,0-.162-.458.344.344,0,0,0-.458.163c-.594,1.245-1.255,2.478-1.965,3.662a.343.343,0,0,0,.118.471A.345.345,0,0,0,744.4-1090.937Zm-78.161-4.8a.348.348,0,0,0,.139-.03.343.343,0,0,0,.174-.453c-.559-1.263-1.063-2.567-1.5-3.877a.344.344,0,0,0-.435-.217.343.343,0,0,0-.217.434c.443,1.33.955,2.655,1.524,3.938A.343.343,0,0,0,666.243-1095.736Zm81.762-2.755a.341.341,0,0,0,.322-.226c.48-1.317.9-2.674,1.253-4.031a.344.344,0,0,0-.246-.419.345.345,0,0,0-.419.247c-.346,1.336-.761,2.671-1.233,3.968a.343.343,0,0,0,.205.44A.327.327,0,0,0,748.005-1098.491Zm-84.4-5.186a.336.336,0,0,0,.077-.008.344.344,0,0,0,.258-.412c-.308-1.344-.555-2.72-.735-4.09a.344.344,0,0,0-.385-.3.344.344,0,0,0-.3.385c.182,1.392.433,2.79.746,4.155A.344.344,0,0,0,663.6-1103.677Zm86.5-2.914a.343.343,0,0,0,.339-.29c.22-1.382.376-2.793.464-4.2a.343.343,0,0,0-.321-.364.342.342,0,0,0-.364.321c-.087,1.38-.241,2.769-.458,4.13a.344.344,0,0,0,.285.394A.356.356,0,0,0,750.1-1106.591Zm-87.59-5.382h.013a.344.344,0,0,0,.331-.355c-.019-.527-.029-1.061-.029-1.589,0-.853.025-1.717.075-2.568a.345.345,0,0,0-.323-.363.344.344,0,0,0-.363.323c-.05.864-.076,1.741-.075,2.608,0,.536.009,1.079.028,1.613A.344.344,0,0,0,662.513-1111.973Zm.487-8.354a.344.344,0,0,0,.339-.292c.21-1.365.488-2.735.826-4.073a.343.343,0,0,0-.248-.417.342.342,0,0,0-.417.249c-.345,1.358-.627,2.75-.84,4.137a.344.344,0,0,0,.287.392A.455.455,0,0,0,663-1120.327Zm2.054-8.112a.346.346,0,0,0,.324-.228c.465-1.3,1-2.59,1.586-3.839a.343.343,0,0,0-.165-.457.344.344,0,0,0-.457.164c-.6,1.269-1.138,2.581-1.611,3.9a.343.343,0,0,0,.207.439A.345.345,0,0,0,665.054-1128.439Zm3.559-7.57a.343.343,0,0,0,.3-.169c.7-1.186,1.471-2.354,2.285-3.47a.344.344,0,0,0-.075-.48.344.344,0,0,0-.48.075c-.827,1.134-1.607,2.32-2.321,3.525a.344.344,0,0,0,.12.471A.347.347,0,0,0,668.613-1136.009Zm4.928-6.763a.342.342,0,0,0,.257-.116c.914-1.034,1.89-2.036,2.9-2.979a.344.344,0,0,0,.017-.486.344.344,0,0,0-.486-.016c-1.024.958-2.015,1.976-2.943,3.026a.343.343,0,0,0,.029.485A.344.344,0,0,0,673.541-1142.772Zm6.112-5.717a.34.34,0,0,0,.21-.072c1.093-.844,2.24-1.645,3.407-2.382a.343.343,0,0,0,.108-.473.342.342,0,0,0-.474-.107c-1.186.747-2.35,1.561-3.461,2.419a.343.343,0,0,0-.062.481A.344.344,0,0,0,679.653-1148.489Zm7.082-4.464a.342.342,0,0,0,.154-.037c1.233-.623,2.511-1.193,3.8-1.694a.343.343,0,0,0,.195-.445.342.342,0,0,0-.444-.195c-1.307.509-2.6,1.088-3.858,1.721a.343.343,0,0,0-.151.461A.342.342,0,0,0,686.735-1152.953Z" transform="translate(-662.142 1155.348)" fill="#a0a09f"/></g><g transform="translate(88.031 39.445)"><path d="M662.532-1115.006h.011a.344.344,0,0,0,.333-.355c-.022-.688-.061-1.386-.114-2.073a.344.344,0,0,0-.37-.316.343.343,0,0,0-.315.369c.053.677.091,1.364.112,2.042A.344.344,0,0,0,662.532-1115.006Z" transform="translate(-662.076 1117.751)" fill="#a0a09f"/></g></g><g transform="translate(49.705 8.747)"><g transform="translate(29.774 17.447)"><path d="M671.085-1138.173a.341.341,0,0,0,.192-.059.344.344,0,0,0,.092-.477c-.385-.571-.788-1.141-1.2-1.694a.343.343,0,0,0-.48-.071.344.344,0,0,0-.071.481c.4.544.8,1.105,1.182,1.668A.342.342,0,0,0,671.085-1138.173Z" transform="translate(-669.55 1140.542)" fill="#a0a09f"/></g><g transform="translate(5.668 1.104)"><path d="M695.191-1142.736a.339.339,0,0,0,.227-.086.342.342,0,0,0,.03-.484c-.821-.93-1.692-1.838-2.588-2.7a.344.344,0,0,0-.486.011.343.343,0,0,0,.01.485c.883.846,1.741,1.739,2.549,2.655A.343.343,0,0,0,695.191-1142.736Zm-5.353-5.127a.34.34,0,0,0,.267-.127.342.342,0,0,0-.051-.483c-.966-.782-1.976-1.531-3-2.228a.344.344,0,0,0-.477.092.343.343,0,0,0,.091.477c1.01.685,2,1.423,2.955,2.193A.345.345,0,0,0,689.838-1147.863Zm-6.132-4.162a.343.343,0,0,0,.3-.176.343.343,0,0,0-.131-.467c-1.083-.609-2.2-1.179-3.333-1.693a.343.343,0,0,0-.455.17.344.344,0,0,0,.17.455c1.111.506,2.215,1.067,3.281,1.666A.342.342,0,0,0,683.706-1152.025Zm-6.743-3.074a.344.344,0,0,0,.323-.228.344.344,0,0,0-.208-.44c-1.17-.417-2.371-.79-3.57-1.106a.344.344,0,0,0-.42.244.344.344,0,0,0,.245.42c1.18.311,2.362.678,3.514,1.089A.333.333,0,0,0,676.963-1155.1Z" transform="translate(-673.077 1156.885)" fill="#a0a09f"/></g><path d="M700.858-1156.994a.343.343,0,0,0,.338-.284.342.342,0,0,0-.279-.4c-.678-.119-1.369-.224-2.054-.311a.346.346,0,0,0-.384.3.344.344,0,0,0,.3.385c.674.085,1.354.188,2.021.3A.315.315,0,0,0,700.858-1156.994Z" transform="translate(-698.477 1157.989)" fill="#a0a09f"/></g><g transform="translate(34.532)"><path d="M702.105-1149.96l5.45-3.961,5.451,3.961-2.082-6.408,5.451-3.96h-6.737l-2.083-6.408-2.082,6.408h-6.737l5.45,3.96Zm5.45-4.81-4.144,3.011,1.583-4.871-4.144-3.012h5.122l1.583-4.871,1.583,4.871h5.123l-4.144,3.012,1.583,4.871Z" transform="translate(-698.736 1166.736)" fill="#a0a09f"/></g><g transform="translate(76.356 28.806)"><path d="M664.919-1118.666a9.643,9.643,0,0,0,9.632-9.632,9.643,9.643,0,0,0-9.632-9.632,9.643,9.643,0,0,0-9.632,9.632A9.643,9.643,0,0,0,664.919-1118.666Zm0-18.25a8.628,8.628,0,0,1,8.618,8.618,8.628,8.628,0,0,1-8.618,8.618,8.628,8.628,0,0,1-8.618-8.618A8.628,8.628,0,0,1,664.919-1136.916Z" transform="translate(-655.287 1137.93)" fill="#a0a09f"/><g transform="translate(11.608 8.302)"><path d="M661.613-1126.968a1.332,1.332,0,0,0,1.33-1.33,1.332,1.332,0,0,0-1.33-1.33,1.332,1.332,0,0,0-1.33,1.33A1.332,1.332,0,0,0,661.613-1126.968Zm0-1.984a.654.654,0,0,1,.654.654.654.654,0,0,1-.654.654.654.654,0,0,1-.654-.654A.654.654,0,0,1,661.613-1128.952Z" transform="translate(-660.283 1129.628)" fill="#a0a09f"/></g><g transform="translate(5.187 8.302)"><path d="M668.035-1126.968a1.331,1.331,0,0,0,1.329-1.33,1.331,1.331,0,0,0-1.329-1.33,1.331,1.331,0,0,0-1.33,1.33A1.331,1.331,0,0,0,668.035-1126.968Zm0-1.984a.655.655,0,0,1,.654.654.655.655,0,0,1-.654.654.654.654,0,0,1-.654-.654A.654.654,0,0,1,668.035-1128.952Z" transform="translate(-666.705 1129.628)" fill="#a0a09f"/></g></g></g><g transform="translate(33.745 99.798)"><path d="M916.358-1026.574c-18.442-9.928-23.155-27.534-23.691-31.737a39.17,39.17,0,0,1-1.147-8.952c-.2-14.371,7.122-26.126,16.361-26.257s16.892,11.414,17.1,25.785a38.572,38.572,0,0,1-1.273,10.513l.038-.041-.052.094a30.055,30.055,0,0,1-2.974,7.264,24.133,24.133,0,0,0,2.921,18.94,9.725,9.725,0,0,1,1.473,5.49l-.841,25.111-17.952-13.465S917.195-1026.111,916.358-1026.574Zm2.873-41.08c-.082-5.777-1.614-11.331-4.2-15.237-2.08-3.138-4.656-4.918-7.066-4.884a5.325,5.325,0,0,0-1.4.21c-4.692,1.353-9.454,9.287-9.3,20.221.082,5.778,1.614,11.331,4.2,15.237,2.081,3.138,4.656,4.918,7.066,4.884a5.32,5.32,0,0,0,1.4-.21C914.624-1048.786,919.385-1056.72,919.231-1067.654Z" transform="translate(-854.763 1093.521)" fill="#206870"/><path d="M907.154-996.2l-16.9-.266c-1.836,34.059,7.663,91.7,7.663,91.7C907.055-924.9,907.154-996.2,907.154-996.2Z" transform="translate(-835.309 1093.521)" fill="#696969"/><path d="M898.906-1075.373c7.283-2.1,15.272,4.171,18.187,14.277a24.156,24.156,0,0,1,.645,11.245l.049-.007c.063,13.341,20.944,28.423,37.662,30.285,1.729,4.777,6.418,23.474,6.418,23.474l-16.237,4.683-6.93-24.03c-11.341-3.128-36.971-21.153-41.918-28.054a24.018,24.018,0,0,1-5.668-10.1C888.2-1063.71,891.622-1073.272,898.906-1075.373Zm8.99,31.174c4.484-1.293,6.42-8.229,4.326-15.493s-7.428-12.1-11.912-10.81-6.42,8.23-4.325,15.493S903.413-1042.906,907.9-1044.2Z" transform="translate(-890.076 1093.521)" fill="#257b85"/><ellipse cx="4.056" cy="4.056" rx="4.056" ry="4.056" transform="matrix(-0.757, -0.653, 0.653, -0.757, 60.809, 91.657)" fill="#206870"/><rect width="6.59" height="1.168" transform="matrix(-0.961, 0.277, -0.277, -0.961, 63.716, 85.586)" fill="#1d555c"/><path d="M888.16-996.1l-16.237,4.683c8.2,33.109,34.121,85.458,34.121,85.458C908.9-927.885,888.16-996.1,888.16-996.1Z" transform="translate(-816.369 1093.521)" fill="#afaeae"/></g><g transform="translate(110.271)"><path d="M883.639-905.99c4.364-26.582,1.984-64.669-26.979-92.044s-13.092-61.5-6.348-79.349c1.191-1.983,25.789-21.424,30.153-32.533,0,0-11.109-20.233-26.582-31.739s-42.716-14.547-42.716-14.547l-51.753,3.086c-26.273,7.229-36.456,43.2-36.456,43.2-.4,3.571,9.522,9.522,9.522,9.522s-15.076,15.076-8.332,36.9,30.153,49.593,19.441,76.175-28.963,55.941-27.376,81.332Z" transform="translate(-716.115 1193.32)" fill="#fdcfb5"/><ellipse cx="26.802" cy="7.23" rx="26.802" ry="7.23" transform="translate(43.298 32.974)" fill="#42251e"/><path d="M0,0H8.817a0,0,0,0,1,0,0V22.244a2.09,2.09,0,0,1-2.09,2.09H2.09A2.09,2.09,0,0,1,0,22.244V0A0,0,0,0,1,0,0Z" transform="translate(65.692 14.812)" fill="#60342a"/><ellipse cx="12.167" cy="12.167" rx="12.167" ry="12.167" transform="translate(57.581)" fill="#42251e"/><path d="M819.138-1193.237a12.148,12.148,0,0,0-4.946,9.792,12.167,12.167,0,0,0,12.167,12.167,12.233,12.233,0,0,0,1.4-.083,12.109,12.109,0,0,1-7.22,2.375,12.167,12.167,0,0,1-12.167-12.167A12.167,12.167,0,0,1,819.138-1193.237Z" transform="translate(-750.792 1193.32)" fill="#f4c3a6" style="mix-blend-mode:multiply;isolation:isolate"/><path d="M845.172-1103.347a1.012,1.012,0,0,0,.732-.312c.771-.8,18.911-19.926,21.3-40.657a1.014,1.014,0,0,0-.891-1.123,1.013,1.013,0,0,0-1.124.891c-2.313,20.044-20.568,39.293-20.752,39.485a1.015,1.015,0,0,0,.03,1.434A1.015,1.015,0,0,0,845.172-1103.347Z" transform="translate(-826.031 1193.319)" fill="#c7c7c7" style="mix-blend-mode:multiply;isolation:isolate"/><path d="M796.813-1049.111c11.833,0,25.3-2.891,35.07-9.995a1.014,1.014,0,0,0,.224-1.416,1.014,1.014,0,0,0-1.416-.224c-7.684,5.588-18.5,8.972-30.447,9.527-10.118.471-19.833-1.257-24.748-4.4a1.015,1.015,0,0,0-1.4.307,1.015,1.015,0,0,0,.308,1.4C779.063-1050.932,787.423-1049.111,796.813-1049.111Z" transform="translate(-720.895 1193.319)" fill="#c7c7c7" style="mix-blend-mode:multiply;isolation:isolate"/></g><path d="M743.59-987.322c10.712-26.582-12.7-54.354-19.441-76.175s8.332-36.9,8.332-36.9-9.919-5.951-9.522-9.522c0,0,9.5-33.554,33.824-42.36,6.3,19.257-13.9,67.636-1.952,90.5,12.166,23.275,43.377,21.159,70.884,50.254,12.8,13.541,32.48,27.883,49.86,39.349,10.857,22.553,11.169,47.278,8.065,66.184H716.214C714.627-931.381,732.878-960.74,743.59-987.322Z" transform="translate(-605.846 1193.32)" fill="#f4c3a6" style="mix-blend-mode:multiply;isolation:isolate"/><g transform="translate(213.436 201.235)"><path d="M727.34-966.691A41.261,41.261,0,0,1,768.6-925.43a41.144,41.144,0,0,1-2.95,15.35l-76.586.092a41.15,41.15,0,0,1-2.986-15.442A41.261,41.261,0,0,1,727.34-966.691Z" transform="translate(-672.504 992.084)" fill="#e1384d"/><path d="M689.065-909.988a41.15,41.15,0,0,1-2.986-15.442,41.27,41.27,0,0,1,35.015-40.791c-10.633,23.123,17.038,43.875,47.47,39.091.023.564.037,1.13.037,1.7a41.144,41.144,0,0,1-2.95,15.35Z" transform="translate(-672.504 992.084)" fill="#c29b84" style="mix-blend-mode:multiply;isolation:isolate"/><rect width="97.599" height="9.522" rx="2.257" transform="translate(6.037 76.969)" fill="#e1384d"/><g transform="translate(67.932)"><rect width="1.851" height="31.21" transform="translate(1.529 37.549) rotate(-145.674)" fill="#878787"/><ellipse cx="5.819" cy="5.819" rx="5.819" ry="5.819" transform="translate(18.503 16.09) rotate(-122.857)" fill="#257b85"/><path d="M699.829-989.4a5.792,5.792,0,0,0-3.1,2.28,5.819,5.819,0,0,0,1.524,8.086,5.847,5.847,0,0,0,1.012.553,5.8,5.8,0,0,1-4.983-.756,5.818,5.818,0,0,1-1.524-8.086A5.82,5.82,0,0,1,699.829-989.4Z" transform="translate(-677.325 992.084)" fill="#c7c7c7" style="mix-blend-mode:multiply;isolation:isolate"/></g><g transform="translate(82.924 45.846)"><path d="M678.865-933.928l.535,1.773,19.853-6.053-.535-1.773Z" transform="translate(-678.865 946.238)" fill="#878787"/><ellipse cx="5.819" cy="5.819" rx="5.819" ry="5.819" transform="translate(17.77 0.001)" fill="#e1384d"/><path d="M681.483-943.164a5.786,5.786,0,0,0-3.847-.173,5.818,5.818,0,0,0-3.89,7.251,5.764,5.764,0,0,0,.441,1.065,5.8,5.8,0,0,1-3.405-3.716,5.82,5.82,0,0,1,3.89-7.252A5.821,5.821,0,0,1,681.483-943.164Z" transform="translate(-652.765 946.238)" fill="#c7c7c7" style="mix-blend-mode:multiply;isolation:isolate"/></g><g transform="translate(0 42.471)"><path d="M771.261-934.621l.56-1.765-19.8-6.216-.56,1.765Z" transform="translate(-741.104 949.613)" fill="#878787"/><ellipse cx="5.819" cy="5.819" rx="5.819" ry="5.819" transform="matrix(-0.235, -0.972, 0.972, -0.235, 2.74, 14.05)" fill="#e1384d"/><path d="M769.366-943.219a5.8,5.8,0,0,0,3.076,2.316,5.818,5.818,0,0,0,7.306-3.787,5.807,5.807,0,0,0,.238-1.128,5.8,5.8,0,0,1,.711,4.99,5.82,5.82,0,0,1-7.306,3.787A5.82,5.82,0,0,1,769.366-943.219Z" transform="translate(-768.125 949.613)" fill="#c7c7c7" style="mix-blend-mode:multiply;isolation:isolate"/></g><g transform="translate(35.454 49.36)"><ellipse cx="5.819" cy="5.819" rx="5.819" ry="5.819" transform="matrix(-0.76, -0.649, 0.649, -0.76, 8.85, 16.407)" fill="#257b85"/><path d="M732.733-935.152a5.792,5.792,0,0,0,3.076,2.316,5.819,5.819,0,0,0,7.306-3.787,5.88,5.88,0,0,0,.238-1.128,5.81,5.81,0,0,1,.711,4.99,5.819,5.819,0,0,1-7.306,3.787A5.82,5.82,0,0,1,732.733-935.152Z" transform="translate(-730.314 942.724)" fill="#c7c7c7" style="mix-blend-mode:multiply;isolation:isolate"/></g><g transform="translate(58.997 61.794)"><path d="M715.6-918.923a5.82,5.82,0,0,0,7.306-3.787,5.818,5.818,0,0,0-3.787-7.306,5.818,5.818,0,0,0-7.306,3.787A5.819,5.819,0,0,0,715.6-918.923Z" transform="translate(-711.538 930.29)" fill="#34a68c"/><path d="M711.573-925.1a5.794,5.794,0,0,0,3.077,2.316,5.82,5.82,0,0,0,7.306-3.787,5.876,5.876,0,0,0,.237-1.128,5.8,5.8,0,0,1,.711,4.99,5.82,5.82,0,0,1-7.306,3.787A5.821,5.821,0,0,1,711.573-925.1Z" transform="translate(-711.537 930.29)" fill="#c7c7c7" style="mix-blend-mode:multiply;isolation:isolate"/></g><g transform="translate(69.71 41.694)"><ellipse cx="5.819" cy="5.819" rx="5.819" ry="5.819" transform="translate(0.001)" fill="#fdd4bd"/><path d="M700.861-945.2a5.789,5.789,0,0,0,3.077,2.316,5.819,5.819,0,0,0,7.306-3.787,5.939,5.939,0,0,0,.238-1.128,5.807,5.807,0,0,1,.71,4.99,5.819,5.819,0,0,1-7.306,3.787A5.82,5.82,0,0,1,700.861-945.2Z" transform="translate(-700.827 950.39)" fill="#c7c7c7" style="mix-blend-mode:multiply;isolation:isolate"/></g><g transform="translate(22.453 3.623)"><rect width="1.851" height="31.21" transform="matrix(-0.977, 0.213, -0.213, -0.977, 16.631, 41.902)" fill="#878787"/><ellipse cx="5.819" cy="5.819" rx="5.819" ry="5.819" transform="matrix(-0.841, -0.54, 0.54, -0.841, 9.791, 16.082)" fill="#34a68c"/><path d="M749.957-985.751a5.787,5.787,0,0,0-.475,3.822,5.817,5.817,0,0,0,6.923,4.447,5.838,5.838,0,0,0,1.1-.355,5.806,5.806,0,0,1-3.973,3.1,5.818,5.818,0,0,1-6.923-4.448A5.82,5.82,0,0,1,749.957-985.751Z" transform="translate(-744.251 988.462)" fill="#c7c7c7" style="mix-blend-mode:multiply;isolation:isolate"/></g></g><g transform="translate(52.053 164.472)"><path d="M843.378-998.449h13.14l-5.829,42.605L835.5-952.153H818.613Z" transform="translate(-731.572 1028.848)" fill="#19494d"/><path d="M818.885-952.153c.055,0,.11,0,.165-.005l14.836-.9a4.788,4.788,0,0,0,4.489-4.3L842.3-995.5a2.686,2.686,0,0,0-2.4-2.947,2.687,2.687,0,0,0-2.947,2.4l-3.879,37.666-14.355.868a2.685,2.685,0,0,0-2.519,2.843A2.685,2.685,0,0,0,818.885-952.153Z" transform="translate(-714.961 1028.848)" fill="#206870"/><path d="M856.924-997.422c0,2.284-4.752,9.778-5.848,10.966s4.934,1.1,4.934,1.1,4.2-3.472,4.3-4.2.092-6.945.092-7.22S856.924-997.422,856.924-997.422Z" transform="translate(-767.781 1028.848)" fill="#ec6e50"/><rect width="0.594" height="7.676" transform="translate(73.425 32.887)" fill="#878787"/><rect width="3.351" height="6.336" transform="translate(69.693 49.971) rotate(-170.188)" fill="#e7c0a9"/><path d="M861.148-1008.876c6.884.884,9.565,1.493,11.7,4.235a60.84,60.84,0,0,1,4.508,7.249,3.3,3.3,0,0,1-1.279,1.584s-3.777,5.239-4.2,5.909c-1.705,3.412-3.228,7.25-.731,10.3s5.544,11.88,2.742,17.424-22.907,5.483-23.333,6.7-4.6,28.191-4.874,29.973-3.564,3.975-3.838,3.564-18.642-39.751-18.642-39.751,20.424-10.006,23.029-10.829c4.934-2.6,4.66-11.788,3.426-14.255s-2.7-5.194-1.477-8.24a9.681,9.681,0,0,1-3.716-2.62s4.264-6.031,5.544-7.249a16.867,16.867,0,0,1,4.416-2.376l3.26-.3Z" transform="translate(-756.988 1028.848)" fill="#4684bd"/><path d="M851.613-995.808c-1.95,1.462-7.676,3.351-7.676,3.351l3.594,11.209c-5.544,1.523-13.707,3.473-15.717,3.534s-6.793-.945-7.524-.7-1.8.244-1.95.4-1.766,1.432-1.766,1.432a3.235,3.235,0,0,0,2.01-.884l-1.31,1.219a3.627,3.627,0,0,0,1.919.822c.7,0,6.4.67,7.768.64a37.72,37.72,0,0,1,5.3.609c2.68.366,17.058.427,19.251-.975C855.512-978.445,851.613-995.808,851.613-995.808Z" transform="translate(-732.527 1028.848)" fill="#ec6e50"/><path d="M837.707-1026.984a7.789,7.789,0,0,1,10.6.457c2.056,2.284.274,6.533,3.061,8.224s4.036,7.661-5.5,8.514c-2.041.03-3.914-.2-4.006.03-3.655,1.051-6.031,1.508-7.539-1.142s1.919-5.8.366-8.727S832.178-1025.933,837.707-1026.984Z" transform="translate(-743.309 1028.848)" fill="#20120e"/><path d="M841.293-1025.111a7.274,7.274,0,0,0-1.858,6c.335,1.584-.274,2.071.213,3.807s2.1,4.021,2.833,4.265a6.418,6.418,0,0,0,2.132.061c1.28.761,1.432,3.411.274,3.716-1.675,2.315-.852,3.351,1.554,2.833a6.732,6.732,0,0,0,5.178-4.448c-3.442-1.766-2.65-6.945-2.65-6.945,3.046-.4,3.2-3.2,2.071-3.929a1.54,1.54,0,0,0-2.223.609c-.457-1.035-.427-2.467-3.473-3.259A6.34,6.34,0,0,1,841.293-1025.111Z" transform="translate(-747.459 1028.848)" fill="#ec6e50"/><path d="M840.161-1016.485a1.024,1.024,0,0,0,1.08-.958.7.7,0,0,0-.239-.533,1.026,1.026,0,0,0-.612-.222,1.435,1.435,0,0,1,.82-.832.735.735,0,0,1,.717.323.082.082,0,0,0,.115.009.082.082,0,0,0,.009-.115.884.884,0,0,0-.877-.376,1.627,1.627,0,0,0-.977,1.047.082.082,0,0,0,.013.071.084.084,0,0,0,.065.032.935.935,0,0,1,.62.187.527.527,0,0,1,.182.409.86.86,0,0,1-.916.794.082.082,0,0,0-.082.082A.082.082,0,0,0,840.161-1016.485Z" transform="translate(-738.59 1028.848)" fill="#d8a397" style="mix-blend-mode:multiply;isolation:isolate"/><path d="M843.587-1011.162a.08.08,0,0,0,.03-.006,6.463,6.463,0,0,0,2.758-2.088.082.082,0,0,0-.025-.113.082.082,0,0,0-.113.025,6.412,6.412,0,0,1-2.679,2.024.082.082,0,0,0-.047.106A.083.083,0,0,0,843.587-1011.162Z" transform="translate(-746.334 1028.848)" fill="#d8a397" style="mix-blend-mode:multiply;isolation:isolate"/><path d="M830.154-1001.007a.116.116,0,0,0,.116-.11,4.773,4.773,0,0,1,.82-2.216c1.008-1.453,2.7-2.162,5.046-2.106a.117.117,0,0,0,.12-.114.117.117,0,0,0-.114-.119c-5.8-.138-6.1,4.5-6.1,4.543a.116.116,0,0,0,.111.122Z" transform="translate(-722.734 1028.848)" fill="#c7c7c7" style="mix-blend-mode:multiply;isolation:isolate"/><path d="M835.089-992.28a.119.119,0,0,0,.06-.016.117.117,0,0,0,.04-.16,32.886,32.886,0,0,0-1.881-2.845.118.118,0,0,0-.164-.021.118.118,0,0,0-.021.164,32.25,32.25,0,0,1,1.866,2.822A.115.115,0,0,0,835.089-992.28Z" transform="translate(-724.745 1028.848)" fill="#c7c7c7" style="mix-blend-mode:multiply;isolation:isolate"/><path d="M835.056-986.587a6.216,6.216,0,0,0,5.246-2.864.117.117,0,0,0-.029-.163.118.118,0,0,0-.163.03,5.955,5.955,0,0,1-6.179,2.649.118.118,0,0,0-.143.083.118.118,0,0,0,.083.143A5.192,5.192,0,0,0,835.056-986.587Z" transform="translate(-730.548 1028.848)" fill="#c7c7c7" style="mix-blend-mode:multiply;isolation:isolate"/><path d="M849.846-995.2a.115.115,0,0,0,.1-.064c.085-.167,2.069-4.122,2.069-6.769a.117.117,0,0,0-.117-.117.117.117,0,0,0-.117.117c0,2.592-2.023,6.623-2.043,6.664a.117.117,0,0,0,.051.157A.124.124,0,0,0,849.846-995.2Z" transform="translate(-758.19 1028.848)" fill="#c7c7c7" style="mix-blend-mode:multiply;isolation:isolate"/><rect width="91.016" height="3.701" transform="translate(40.574 58.794)" fill="#603429"/><rect width="25.907" height="3.701" transform="translate(105.683 58.794)" fill="#8b4939"/><path d="M876.56-986.19v4.423a2.225,2.225,0,0,1-2.225,2.225h-1.694a2.227,2.227,0,0,1-2.094-1.471l-.037-.1a2.224,2.224,0,0,0-2.093-1.472h-9.895a2.226,2.226,0,0,0-2.182,1.787l-.809,4.015a2.226,2.226,0,0,0,2.183,2.666h16.47a2.742,2.742,0,0,1,2.742,2.742v1.4H844.394l2.928-16.7a2.481,2.481,0,0,1,2.452-2.052c5.191.02,18.651.066,24.267.036A2.507,2.507,0,0,1,876.56-986.19Z" transform="translate(-777.761 1028.848)" fill="#fdd4bd"/><rect width="3.747" height="5.986" transform="translate(71.872 33.801)" fill="#e1384d"/><path d="M943.559-974.12c-6.275-2.467-11.575-5.117-23.272,0s-21.337,26-25.313,32.715-12.884,11.24-22.891,20.561S847.136-905.9,847.136-905.9h93.073c.411-3.016-.549-10.555-4.387-17.957s-6.567-28.2-6.3-36.324C929.928-972.932,943.559-974.12,943.559-974.12Z" transform="translate(-847.136 1028.848)" fill="#e1384d"/><path d="M866.473-906.766l.03,0c6.584-.854,11.141-3.087,13.93-6.829,4.957-6.647,3.321-16.747,1.739-26.514-1.071-6.615-2.083-12.863-.942-17.551a.235.235,0,0,0-.172-.282.234.234,0,0,0-.282.172c-1.163,4.779-.144,11.073.935,17.736,1.567,9.671,3.186,19.671-1.652,26.16-2.71,3.635-7.164,5.808-13.616,6.645a.233.233,0,0,0-.2.261A.235.235,0,0,0,866.473-906.766Z" transform="translate(-806.435 1028.848)" fill="#c7c7c7" style="mix-blend-mode:multiply;isolation:isolate"/><path d="M889-906.766a.234.234,0,0,0,.074-.012,61.847,61.847,0,0,0,14.6-6.96,40.639,40.639,0,0,0,9.312-8.383c5.565-6.972,6.317-13.359,6.271-16.546a.233.233,0,0,0-.234-.23h0a.233.233,0,0,0-.23.237c.045,3.124-.7,9.39-6.169,16.248-5.242,6.566-13.212,11.677-23.691,15.191a.233.233,0,0,0-.147.295A.232.232,0,0,0,889-906.766Z" transform="translate(-864.465 1028.847)" fill="#c7c7c7" style="mix-blend-mode:multiply;isolation:isolate"/><ellipse cx="1.188" cy="1.188" rx="1.188" ry="1.188" transform="translate(80.827 56.373)" fill="#f8a56d"/><ellipse cx="1.188" cy="1.188" rx="1.188" ry="1.188" transform="translate(69.222 59.205)" fill="#f8a56d"/><ellipse cx="1.188" cy="1.188" rx="1.188" ry="1.188" transform="translate(75.436 67.612)" fill="#f8a56d"/><ellipse cx="1.188" cy="1.188" rx="1.188" ry="1.188" transform="translate(62.368 74.101)" fill="#f8a56d"/><ellipse cx="1.188" cy="1.188" rx="1.188" ry="1.188" transform="translate(67.76 86.072)" fill="#f8a56d"/><path d="M886.125-943.233a1.188,1.188,0,0,0,1.188,1.188,1.188,1.188,0,0,0,1.188-1.188,1.188,1.188,0,0,0-1.188-1.188A1.188,1.188,0,0,0,886.125-943.233Z" transform="translate(-831.067 1028.847)" fill="#f8a56d"/><ellipse cx="1.188" cy="1.188" rx="1.188" ry="1.188" transform="translate(64.287 98.5)" fill="#f8a56d"/><ellipse cx="1.188" cy="1.188" rx="1.188" ry="1.188" transform="translate(78.817 91.646)" fill="#f8a56d"/><ellipse cx="1.188" cy="1.188" rx="1.188" ry="1.188" transform="translate(85.671 106.998)" fill="#f8a56d"/><ellipse cx="1.188" cy="1.188" rx="1.188" ry="1.188" transform="translate(77.263 116.959)" fill="#f8a56d"/><ellipse cx="1.188" cy="1.188" rx="1.188" ry="1.188" transform="translate(55.88 109.831)" fill="#f8a56d"/><ellipse cx="1.188" cy="1.188" rx="1.188" ry="1.188" transform="translate(44.823 117.416)" fill="#f8a56d"/><ellipse cx="1.188" cy="1.188" rx="1.188" ry="1.188" transform="translate(37.33 103.982)" fill="#f8a56d"/><path d="M915.185-913.716a1.188,1.188,0,0,0,1.188,1.188,1.188,1.188,0,0,0,1.188-1.188,1.187,1.187,0,0,0-1.188-1.188A1.187,1.187,0,0,0,915.185-913.716Z" transform="translate(-889.187 1028.847)" fill="#f8a56d"/><path d="M853.266-905.869l-11.781-60.514-20.774.061-9.725,60.464,3.564-.008,9.085-58.02h14.438l12.2,58Z" transform="translate(-720.694 1028.848)" fill="#42251e"/><path d="M851.239-954.563a3.177,3.177,0,0,0,1.537-.386c.172-.094.4-.244.386-.464-.018-.323-.541-.535-1.265-.83a5.187,5.187,0,0,1-1.86-1.047c-.143-.166-.175-.271-.143-.3.239-.238,2.205.26,3.206,1.136.484.423.726.362.843.237.328-.35-.152-1.7-1.11-2.662a.118.118,0,0,0-.165,0,.116.116,0,0,0,0,.165c.964.965,1.277,2.153,1.1,2.337-.039.041-.191.034-.519-.253-.972-.85-3.113-1.535-3.525-1.126-.1.1-.157.286.131.62a5.313,5.313,0,0,0,1.949,1.111c.52.212,1.11.452,1.12.627,0,.023-.014.109-.265.246a3.2,3.2,0,0,1-2.578.148.117.117,0,0,0-.154.061.117.117,0,0,0,.061.153A3.4,3.4,0,0,0,851.239-954.563Z" transform="translate(-760.135 1028.848)" fill="#c7c7c7" style="mix-blend-mode:multiply;isolation:isolate"/></g><path d="M4.263,0H320.008a4.263,4.263,0,0,1,4.263,4.263V8.993a0,0,0,0,1,0,0H0a0,0,0,0,1,0,0V4.263A4.263,4.263,0,0,1,4.263,0Z" transform="translate(6.422 287.329)" fill="#42251e"/><g transform="translate(18.221 185.785)"><path d="M967.759-988.27a9.643,9.643,0,0,0,9.632-9.632,9.643,9.643,0,0,0-9.632-9.632,9.643,9.643,0,0,0-9.632,9.632A9.643,9.643,0,0,0,967.759-988.27Zm0-18.25a8.628,8.628,0,0,1,8.618,8.618,8.628,8.628,0,0,1-8.618,8.618,8.628,8.628,0,0,1-8.618-8.618A8.628,8.628,0,0,1,967.759-1006.52Z" transform="translate(-958.127 1007.534)" fill="#a0a09f"/><g transform="translate(12.285 8.302)"><path d="M963.776-996.572a1.331,1.331,0,0,0,1.33-1.33,1.331,1.331,0,0,0-1.33-1.33,1.331,1.331,0,0,0-1.329,1.33A1.331,1.331,0,0,0,963.776-996.572Zm0-1.984a.655.655,0,0,1,.654.654.654.654,0,0,1-.654.654.654.654,0,0,1-.653-.654A.655.655,0,0,1,963.776-998.556Z" transform="translate(-962.447 999.232)" fill="#a0a09f"/></g><g transform="translate(4.511 8.302)"><path d="M971.55-996.572a1.332,1.332,0,0,0,1.33-1.33,1.332,1.332,0,0,0-1.33-1.33,1.332,1.332,0,0,0-1.33,1.33A1.332,1.332,0,0,0,971.55-996.572Zm0-1.984a.655.655,0,0,1,.654.654.654.654,0,0,1-.654.654.655.655,0,0,1-.654-.654A.656.656,0,0,1,971.55-998.556Z" transform="translate(-970.22 999.232)" fill="#a0a09f"/></g><g transform="translate(8.398 4.416)"><path d="M968.993-1001.788a1.331,1.331,0,0,0-1.33-1.33,1.331,1.331,0,0,0-1.33,1.33,1.331,1.331,0,0,0,1.33,1.329A1.331,1.331,0,0,0,968.993-1001.788Zm-1.984,0a.654.654,0,0,1,.654-.654.655.655,0,0,1,.654.654.655.655,0,0,1-.654.653A.654.654,0,0,1,967.009-1001.788Z" transform="translate(-966.333 1003.118)" fill="#a0a09f"/></g><g transform="translate(8.398 12.189)"><path d="M968.993-994.015a1.332,1.332,0,0,0-1.33-1.33,1.332,1.332,0,0,0-1.33,1.33,1.332,1.332,0,0,0,1.33,1.33A1.332,1.332,0,0,0,968.993-994.015Zm-1.984,0a.654.654,0,0,1,.654-.654.655.655,0,0,1,.654.654.656.656,0,0,1-.654.654A.655.655,0,0,1,967.009-994.015Z" transform="translate(-966.333 995.345)" fill="#a0a09f"/></g></g><g transform="translate(94.322 68.732)"><path d="M895.736-1113.479a5.561,5.561,0,0,0,5.554-5.554,5.561,5.561,0,0,0-5.554-5.555,5.561,5.561,0,0,0-5.555,5.555A5.561,5.561,0,0,0,895.736-1113.479Zm0-10.524a4.975,4.975,0,0,1,4.969,4.97,4.975,4.975,0,0,1-4.969,4.969,4.975,4.975,0,0,1-4.97-4.969A4.975,4.975,0,0,1,895.736-1124Z" transform="translate(-890.181 1124.588)" fill="#a0a09f"/><g transform="translate(7.084 4.788)"><path d="M893.439-1118.267a.768.768,0,0,0,.767-.766.768.768,0,0,0-.767-.767.768.768,0,0,0-.767.767A.768.768,0,0,0,893.439-1118.267Zm0-1.143a.377.377,0,0,1,.377.377.377.377,0,0,1-.377.377.377.377,0,0,1-.377-.377A.377.377,0,0,1,893.439-1119.41Z" transform="translate(-892.672 1119.8)" fill="#a0a09f"/></g><g transform="translate(2.602 4.788)"><path d="M897.922-1118.267a.767.767,0,0,0,.766-.766.768.768,0,0,0-.766-.767.768.768,0,0,0-.767.767A.768.768,0,0,0,897.922-1118.267Zm0-1.143a.378.378,0,0,1,.377.377.378.378,0,0,1-.377.377.377.377,0,0,1-.377-.377A.377.377,0,0,1,897.922-1119.41Z" transform="translate(-897.155 1119.8)" fill="#a0a09f"/></g></g><g transform="translate(329.37 147.349)"><g transform="translate(0 2.601)"><path d="M654.6-1025.258h11.638v-18.111H654.6Zm10.751-.887h-9.864v-16.338h9.864Z" transform="translate(-654.604 1043.369)" fill="#a0a09f"/></g><g transform="translate(3.237)"><path d="M657.841-1042.541H663v-3.429h-5.164Zm4.278-.886h-3.391v-1.657h3.391Z" transform="translate(-657.841 1045.97)" fill="#a0a09f"/></g><g transform="translate(3.237 19.851)"><path d="M657.841-1022.689H663v-3.43h-5.164Zm4.278-.887h-3.391v-1.657h3.391Z" transform="translate(-657.841 1026.119)" fill="#a0a09f"/></g><g transform="translate(1.33 4.027)"><path d="M656.184-1035.718a.415.415,0,0,0,.115-.016c1.607-.433,6.616-2.548,8.542-5.526a.442.442,0,0,0-.132-.612.442.442,0,0,0-.612.131c-1.764,2.727-6.57,4.758-8.028,5.151a.443.443,0,0,0-.313.544A.444.444,0,0,0,656.184-1035.718Z" transform="translate(-655.741 1041.943)" fill="#a0a09f"/></g><g transform="translate(1.33 6.858)"><path d="M656.184-1032.887a.454.454,0,0,0,.115-.015c1.607-.434,6.616-2.548,8.542-5.526a.443.443,0,0,0-.132-.613.442.442,0,0,0-.612.132c-1.764,2.726-6.57,4.758-8.028,5.151a.443.443,0,0,0-.313.543A.443.443,0,0,0,656.184-1032.887Z" transform="translate(-655.741 1039.112)" fill="#a0a09f"/></g><g transform="translate(1.33 9.69)"><path d="M656.184-1030.055a.415.415,0,0,0,.115-.016c1.607-.433,6.616-2.547,8.542-5.526a.442.442,0,0,0-.132-.612.443.443,0,0,0-.612.131c-1.764,2.727-6.57,4.759-8.028,5.152a.443.443,0,0,0-.313.543A.443.443,0,0,0,656.184-1030.055Z" transform="translate(-655.741 1036.28)" fill="#a0a09f"/></g><g transform="translate(1.33 12.521)"><path d="M656.184-1027.223a.415.415,0,0,0,.115-.016c1.607-.433,6.616-2.548,8.542-5.526a.443.443,0,0,0-.132-.613.443.443,0,0,0-.612.132c-1.764,2.727-6.57,4.758-8.028,5.151a.443.443,0,0,0-.313.544A.444.444,0,0,0,656.184-1027.223Z" transform="translate(-655.741 1033.449)" fill="#a0a09f"/></g></g><path d="M640.621-986.005a.336.336,0,0,1,.373.3,2,2,0,0,0,1.08,1.3c.78.442,2.533.98,5.519-.385,2.651-1.211,5.07-1.329,6.638-.322a3.342,3.342,0,0,1,1.2,1.346c.023,0,.044-.007.067-.007a1.454,1.454,0,0,1,1.455,1.455c0,.8-.651,19.3-1.455,19.3s-1.455-18.5-1.455-19.3a1.448,1.448,0,0,1,.726-1.252,2.67,2.67,0,0,0-.909-.973c-1.37-.88-3.554-.747-5.991.368-3.259,1.489-5.241.864-6.133.358a2.625,2.625,0,0,1-1.418-1.819A.338.338,0,0,1,640.621-986.005Zm14.089,3.973a.793.793,0,0,0,.793.793.794.794,0,0,0,.794-.793.792.792,0,0,0-.552-.752,4.019,4.019,0,0,1,.063.686.338.338,0,0,1-.338.338.338.338,0,0,1-.338-.338,3.33,3.33,0,0,0-.057-.6A.791.791,0,0,0,654.71-982.032Z" transform="translate(-301.667 1193.319)" fill="#a0a09f"/><g transform="translate(0 143.37)"><path d="M990.513-1017.533c3.192,0,5.1-8.241,5.1-16.208s-1.907-16.208-5.1-16.208-5.1,8.241-5.1,16.208S987.322-1017.533,990.513-1017.533Zm0-31.74c2.136,0,4.423,6.241,4.423,15.532s-2.287,15.532-4.423,15.532-4.423-6.241-4.423-15.532S988.377-1049.273,990.513-1049.273Z" transform="translate(-985.414 1049.949)" fill="#a0a09f"/><g transform="translate(2.116 22.394)"><path d="M990.513-1017.533c1.673,0,2.983-2.2,2.983-5.011s-1.31-5.011-2.983-5.011-2.983,2.2-2.983,5.011S988.841-1017.533,990.513-1017.533Zm0-9.346c1.251,0,2.307,1.985,2.307,4.335s-1.056,4.335-2.307,4.335-2.307-1.985-2.307-4.335S989.263-1026.879,990.513-1026.879Z" transform="translate(-987.53 1027.555)" fill="#a0a09f"/></g><g transform="translate(0.885 0.338)"><path d="M990.522-1043.968a2.027,2.027,0,0,0-2.025,1.973,9.581,9.581,0,0,0-2.189.874c.8-5.047,2.384-8.49,4.214-8.49s3.405,3.414,4.205,8.425a9.219,9.219,0,0,0-2.181-.843A2.026,2.026,0,0,0,990.522-1043.968Z" transform="translate(-986.308 1049.611)" fill="#a0a09f"/></g></g><g transform="translate(30.928 76.934)"><path d="M950.413-1099.61l5.451-3.96,5.451,3.96-2.082-6.408,5.451-3.96h-6.738l-2.082-6.408-2.082,6.408h-6.738l5.451,3.96Zm5.451-4.809-4.144,3.01,1.583-4.871-4.144-3.011h5.122l1.583-4.872,1.583,4.872h5.123l-4.145,3.011,1.584,4.871Z" transform="translate(-947.044 1116.386)" fill="#a0a09f"/></g><g transform="translate(23.968 255.535)"><path d="M957.374-921.008l5.451-3.961,5.45,3.961-2.081-6.408,5.45-3.96h-6.737l-2.082-6.408-2.082,6.408H954l5.451,3.96Zm5.451-4.81-4.145,3.011,1.583-4.871-4.144-3.012h5.123l1.583-4.871,1.583,4.871h5.122l-4.144,3.012,1.583,4.871Z" transform="translate(-954.005 937.784)" fill="#a0a09f"/></g><path d="M812.937-1157.428c12.749,4.44-22.109,29.223-48.753,28.793,46.127,11.89,80.077-18.623,78.072-22.49s-5.014-2.579-10.171-4.584S820.529-1161.726,812.937-1157.428Z" transform="translate(-610.912 1193.32)" fill="#e1384d"/><path d="M855.909-1158.073c-11.818,7.521-7.735,29.438-7.735,29.438-13.681-9.383-15.4-19.267-12.177-21.846s6.447-3.653,7.951-6.231S855.909-1158.073,855.909-1158.073Z" transform="translate(-694.902 1193.32)" fill="#e1384d"/><ellipse cx="2.483" cy="2.483" rx="2.483" ry="2.483" transform="translate(150.407 63.013)" fill="#e1384d"/><path d="M834.615-1127.25c7.449,3.533,7.736,11.842,6.112,18.05C832.514-1115.5,834.615-1127.25,834.615-1127.25Z" transform="translate(-680.293 1193.32)" fill="#e1384d"/><path d="M852.782-1126.964a10.576,10.576,0,0,0-9.264,10.123C854.215-1117.223,852.782-1126.964,852.782-1126.964Z" transform="translate(-700.752 1193.32)" fill="#e1384d"/><path d="M776.817-1134.341a.563.563,0,0,0,.232-.051c.934-.436,22.871-10.771,22.281-20.111a.55.55,0,0,0-.582-.513.55.55,0,0,0-.514.583c.543,8.6-21.427,18.942-21.649,19.045a.549.549,0,0,0-.266.73A.55.55,0,0,0,776.817-1134.341Z" transform="translate(-579.997 1193.32)" fill="#c7c7c7" style="mix-blend-mode:multiply;isolation:isolate"/><path d="M849.332-1137.493a.545.545,0,0,0,.208-.041.548.548,0,0,0,.3-.716c-.03-.073-2.96-7.375-1.028-14.644a.549.549,0,0,0-.389-.672.549.549,0,0,0-.672.39c-2.03,7.635.945,15.032,1.073,15.343A.549.549,0,0,0,849.332-1137.493Z" transform="translate(-701.313 1193.32)" fill="#c7c7c7" style="mix-blend-mode:multiply;isolation:isolate"/><ellipse cx="1.188" cy="1.188" rx="1.188" ry="1.188" transform="translate(208.429 37.33)" fill="#f8a56d"/><ellipse cx="1.188" cy="1.188" rx="1.188" ry="1.188" transform="translate(223.805 42.869)" fill="#f8a56d"/><ellipse cx="1.188" cy="1.188" rx="1.188" ry="1.188" transform="translate(206.615 45.734)" fill="#f8a56d"/><ellipse cx="1.188" cy="1.188" rx="1.188" ry="1.188" transform="translate(200.98 59.008)" fill="#f8a56d"/><ellipse cx="1.188" cy="1.188" rx="1.188" ry="1.188" transform="translate(186.464 58.626)" fill="#f8a56d"/><ellipse cx="1.188" cy="1.188" rx="1.188" ry="1.188" transform="translate(174.622 62.924)" fill="#f8a56d"/><ellipse cx="1.188" cy="1.188" rx="1.188" ry="1.188" transform="translate(153.134 37.425)" fill="#f8a56d"/><ellipse cx="1.188" cy="1.188" rx="1.188" ry="1.188" transform="translate(141.292 43.346)" fill="#f8a56d"/><ellipse cx="1.188" cy="1.188" rx="1.188" ry="1.188" transform="translate(148.837 48.026)" fill="#f8a56d"/><ellipse cx="1.188" cy="1.188" rx="1.188" ry="1.188" transform="translate(151.797 63.688)" fill="#f8a56d"/><ellipse cx="1.188" cy="1.188" rx="1.188" ry="1.188" transform="translate(158.005 74.002)" fill="#f8a56d"/><ellipse cx="1.188" cy="1.188" rx="1.188" ry="1.188" transform="translate(154.567 69.513)" fill="#f8a56d"/><ellipse cx="1.188" cy="1.188" rx="1.188" ry="1.188" transform="translate(145.972 71.232)" fill="#f8a56d"/></g></g></svg>