<svg xmlns="http://www.w3.org/2000/svg" xmlns:xlink="http://www.w3.org/1999/xlink" width="1320" height="508.198" viewBox="0 0 1320 508.198"><defs><clipPath id="a"><path d="M375.378,913.64H1653.8c11.48,0,20.787,8.4,20.787,18.772V1401.7c0,10.367-9.307,18.772-20.787,18.772H375.378c-11.48,0-20.787-8.4-20.787-18.772V932.412C354.591,922.04,363.9,913.64,375.378,913.64Z" fill="none"/></clipPath><clipPath id="b"><rect width="1343.876" height="895.917" transform="translate(339.7 610.634)" fill="none"/></clipPath><linearGradient id="c" x1="0.5" y1="0.24" x2="0.5" y2="0.986" gradientUnits="objectBoundingBox"><stop offset="0" stop-color="#bf3976"/><stop offset="1" stop-color="#8f2b58"/></linearGradient><clipPath id="d"><rect width="1343.876" height="895.917" transform="translate(339.133 634.065)" fill="none"/></clipPath><radialGradient id="e" cx="0.5" cy="0.5" r="1.583" gradientTransform="translate(0.374 0.227) scale(0.316 0.316)" gradientUnits="objectBoundingBox"><stop offset="0" stop-color="#ffcc7b" stop-opacity="0.522"/><stop offset="0.312" stop-color="#d89b8b" stop-opacity="0.373"/><stop offset="0.997" stop-color="#7823b6" stop-opacity="0"/></radialGradient><radialGradient id="f" cx="0.5" r="1.583" gradientTransform="translate(0.375 -0.244) scale(0.316 0.316)" xlink:href="#e"/><radialGradient id="g" cx="0.5" r="1.583" gradientTransform="translate(0.668 -0.763) scale(0.316 0.316)" xlink:href="#e"/></defs><g transform="translate(-354.591 -913.64)"><g clip-path="url(#a)"><g transform="translate(12 22)"><g clip-path="url(#b)"><rect width="1343.876" height="895.917" transform="translate(339.7 610.634)" fill="url(#c)"/><path d="M1016.482,762.065,823.049,954.335" fill="none" stroke="#707070" stroke-miterlimit="10" stroke-width="1.792" opacity="0.52"/><path d="M1607.453,728.639,1454.642,882.932" fill="none" stroke="#707070" stroke-miterlimit="10" stroke-width="1.792" opacity="0.52"/><path d="M1413.68,546.212Q1343.089,616.8,1272.5,687.393" fill="none" stroke="#707070" stroke-miterlimit="10" stroke-width="1.792" opacity="0.52"/><path d="M563.729,695.014,459.012,799.885" fill="none" stroke="#707070" stroke-miterlimit="10" stroke-width="1.792" opacity="0.52"/><path d="M599.568,1314.658l-88.784,88.784" fill="none" stroke="#707070" stroke-miterlimit="10" stroke-width="1.792" opacity="0.52"/></g></g><g clip-path="url(#d)"><ellipse cx="627.099" cy="198.031" rx="627.099" ry="198.031" transform="translate(867.344 1129.836) rotate(-45)" opacity="0.65" fill="url(#e)" style="mix-blend-mode:screen;isolation:isolate"/><ellipse cx="1021.346" cy="322.53" rx="1021.346" ry="322.53" transform="translate(188.602 2226.823) rotate(-45)" opacity="0.65" fill="url(#f)" style="mix-blend-mode:screen;isolation:isolate"/><ellipse cx="1021.346" cy="322.53" rx="1021.346" ry="322.53" transform="translate(-759.349 1608.939) rotate(-45)" opacity="0.65" fill="url(#g)" style="mix-blend-mode:screen;isolation:isolate"/></g><circle cx="18.814" cy="18.814" r="18.814" transform="translate(329.987 1360.216)" fill="none" stroke="#fff" stroke-linecap="round" stroke-linejoin="round" stroke-width="1.792" opacity="0.8"/><g opacity="0.8"><g clip-path="url(#b)"><path d="M1716.4,1349.715l-2.961,101.7-2.961,101.7-86.6-53.415-86.6-53.415L1626.84,1398Z" fill="none" stroke="#fff" stroke-linecap="round" stroke-linejoin="round" stroke-width="1.792"/><path d="M1063.421,1083.39l-.681,23.376-.681,23.376-19.9-12.277-19.9-12.277,20.585-11.1Z" transform="translate(87.339 -24)" fill="none" stroke="#fff" stroke-linecap="round" stroke-linejoin="round" stroke-width="1.792"/><line x2="179.183" transform="translate(414.061 932.268)" fill="none" stroke="#fff" stroke-linecap="round" stroke-linejoin="round" stroke-width="1.792"/><line x2="179.183" transform="translate(414.061 968.105)" fill="none" stroke="#fff" stroke-linecap="round" stroke-linejoin="round" stroke-width="1.792"/><line x2="179.183" transform="translate(1626.804 1150.49)" fill="none" stroke="#fff" stroke-linecap="round" stroke-linejoin="round" stroke-width="1.792"/><line x2="179.183" transform="translate(1626.804 1168.408)" fill="none" stroke="#fff" stroke-linecap="round" stroke-linejoin="round" stroke-width="1.792"/><line x2="179.183" transform="translate(1626.804 1186.327)" fill="none" stroke="#fff" stroke-linecap="round" stroke-linejoin="round" stroke-width="1.792"/><line x2="179.183" transform="translate(1626.804 1204.245)" fill="none" stroke="#fff" stroke-linecap="round" stroke-linejoin="round" stroke-width="1.792"/><line x2="179.183" transform="translate(1626.804 1222.163)" fill="none" stroke="#fff" stroke-linecap="round" stroke-linejoin="round" stroke-width="1.792"/><line x2="179.183" transform="translate(1626.804 1240.082)" fill="none" stroke="#fff" stroke-linecap="round" stroke-linejoin="round" stroke-width="1.792"/><circle cx="118.558" cy="118.558" r="118.558" transform="translate(960.46 749.096)" fill="none" stroke="#fdf0e0" stroke-linecap="round" stroke-linejoin="round" stroke-width="2.313" stroke-dasharray="13.88"/></g></g></g><line x1="105.449" y2="59.515" transform="translate(1566.789 1360.961)" fill="none" stroke="#fdf0e0" stroke-linecap="round" stroke-linejoin="round" stroke-width="2" stroke-dasharray="12"/><line x2="177.26" transform="translate(415.167 951.26)" fill="none" stroke="#fdf0e0" stroke-linecap="round" stroke-linejoin="round" stroke-width="2" stroke-dasharray="12"/><line x2="177.26" transform="translate(415.167 986.787)" fill="none" stroke="#fdf0e0" stroke-linecap="round" stroke-linejoin="round" stroke-width="2" stroke-dasharray="12"/></g></svg>