<svg xmlns="http://www.w3.org/2000/svg" xmlns:xlink="http://www.w3.org/1999/xlink" width="505" height="245" viewBox="0 0 505 245"><defs><clipPath id="a"><rect width="505" height="245" transform="translate(285 26763)" fill="#fff"/></clipPath></defs><g transform="translate(-285 -26763)" clip-path="url(#a)"><g transform="translate(35.48 31161.855)"><g transform="translate(618.502 -4439.299)"><rect width="4.471" height="2.236" transform="translate(137.025 3.202) rotate(-45.732)" fill="#4c4c4c"/><path d="M757.7-4166.326h-2.235v-8.835H757.7Zm0-17.671h-2.235v-8.835H757.7Zm0-17.671h-2.235v-8.835H757.7Zm0-17.671h-2.235v-8.835H757.7Zm0-17.671h-2.235v-8.836H757.7Zm0-17.671h-2.235v-8.836H757.7Zm0-17.672h-2.235v-8.835H757.7Zm0-17.67h-2.235v-8.836H757.7Zm5-14.728-1.6-1.56,6.168-6.327,1.6,1.561Zm12.336-12.652-1.6-1.561,6.168-6.326,1.6,1.561Zm12.337-12.652-1.6-1.562,6.168-6.326,1.6,1.561Zm12.337-12.652-1.6-1.562,6.168-6.326,1.6,1.561Zm12.336-12.654-1.6-1.561,6.168-6.326,1.6,1.56Zm12.336-12.652-1.6-1.561,6.169-6.327,1.6,1.561Zm12.337-12.653-1.6-1.561,6.168-6.327,1.6,1.561Zm12.336-12.653-1.6-1.561,6.168-6.327,1.6,1.561Zm12.337-12.654-1.6-1.56,6.168-6.327,1.6,1.561Zm12.337-12.652-1.6-1.56,6.168-6.326,1.6,1.56Z" transform="translate(-747.444 4436.04)" fill="#4c4c4c"/><rect width="2.235" height="4.471" transform="translate(8.025 278.55)" fill="#4c4c4c"/><g transform="translate(0 274.089)"><path d="M744.7-4069.944l1.637-1.525,7.5,8.074,7.505-8.074,1.637,1.525-9.143,9.831Z" transform="translate(-744.699 4071.469)" fill="#4c4c4c"/></g></g><g transform="translate(480.538 -4439.299)"><rect width="4.471" height="2.236" transform="translate(137.025 3.202) rotate(-45.732)" fill="#4c4c4c"/><path d="M572.554-4166.326h-2.235v-8.835h2.235Zm0-17.671h-2.235v-8.835h2.235Zm0-17.671h-2.235v-8.835h2.235Zm0-17.671h-2.235v-8.835h2.235Zm0-17.671h-2.235v-8.836h2.235Zm0-17.671h-2.235v-8.836h2.235Zm0-17.672h-2.235v-8.835h2.235Zm0-17.67h-2.235v-8.836h2.235Zm5-14.728-1.6-1.56,6.168-6.327,1.6,1.561Zm12.337-12.652-1.6-1.561,6.169-6.326,1.6,1.561Zm12.336-12.652-1.6-1.562,6.168-6.326,1.6,1.561Zm12.337-12.652-1.6-1.562,6.168-6.326,1.6,1.561Zm12.337-12.654-1.6-1.561,6.168-6.326,1.6,1.56Zm12.336-12.652-1.6-1.561,6.168-6.327,1.6,1.561Zm12.336-12.653-1.6-1.561,6.168-6.327,1.6,1.561Zm12.337-12.653-1.6-1.561,6.168-6.327,1.6,1.561Zm12.336-12.654-1.6-1.56,6.168-6.327,1.6,1.561Zm12.337-12.652-1.6-1.56,6.168-6.326,1.6,1.56Z" transform="translate(-562.294 4436.04)" fill="#4c4c4c"/><rect width="2.235" height="4.471" transform="translate(8.025 278.55)" fill="#4c4c4c"/><g transform="translate(0 274.089)"><path d="M559.549-4069.944l1.637-1.525,7.5,8.074,7.505-8.074,1.637,1.525-9.143,9.831Z" transform="translate(-559.549 4071.469)" fill="#4c4c4c"/></g></g><path d="M946.442-4417.465,786.651-4257.674s-3.838,4.612-14.258,4.894-61.677,0-61.677,0l22.671-22.671" transform="translate(-117.536 -5.565)" fill="none" stroke="#7a1c47" stroke-miterlimit="10" stroke-width="2"/><path d="M611.1-4235.637,589.66-4214.2H521.329s-15-6.442-14.152-19.327,4.013-24.08,16.053-26.4,195.8,0,195.8,0,10.083-.2,16.317,6.265c2.833,2.938,4.871,7.253,4.8,13.59-.211,20.277-7.554,23.024-11.592,25.875" transform="translate(-65.655 -45.45)" fill="none" stroke="#7a1c47" stroke-miterlimit="10" stroke-width="2"/><path d="M553.354-4257.023l-22.5,22.5H727.4l15.764-15.764" transform="translate(-71.699 -46.453)" fill="none" stroke="#7a1c47" stroke-miterlimit="10" stroke-width="2"/><line y1="123.075" x2="123.075" transform="translate(452.219 -4426.552)" fill="none" stroke="#7a1c47" stroke-miterlimit="10" stroke-width="2"/><path d="M813.7-4376.489,639.438-4202.229H249.52l201.153-201.152" transform="translate(0 -9.154)" fill="none" stroke="#7a1c47" stroke-miterlimit="10" stroke-width="2"/><path d="M732.6-4196.289,707.919-4171.6H756.05s11.406,12.856,0,20.883" transform="translate(-116.823 -61.931)" fill="none" stroke="#7a1c47" stroke-miterlimit="10" stroke-width="2"/></g></g></svg>