<svg xmlns="http://www.w3.org/2000/svg" width="1240" height="737" viewBox="0 0 1240 737"><g transform="translate(-180 -7378)"><rect width="1240" height="737" transform="translate(180 7378)" fill="#d6ebfb"/><g transform="translate(4926.484 5651.781)"><path d="M-3856.54,2211.8c-1.025-9.226-6.15-58.088-5.809-65.606s-2.734-66.631-12.984-79.615-53.647-136.337-53.647-136.337-27.677-63.213-43.4-71.756-103.762-34.055-103.762-34.055-46.015-20.046-116.859-1.6l-104.787,34.4s-22.324,20.046-35.537,38.269-57.405,34.853-58.544,42.143-14.351,3.645-14.351,61.505-19.59,60.139-19.818,74.718,68.908,115.379,77.109,122.9,19.818,15.206,22.381,17.427,4.613,3.758,4.613,3.758l29.728,43.908-7.859,55.526-3.93,22.894s30.582,33.372,36.049,39.978,34.4,44.648,110.482,51.938,130.3-30.98,130.3-30.98,26.254-19.25,37.188-33.259,21.868-24.261,24.944-24.944l2.107-1.594s-25.514-149.777-27.564-201.373,10.593-108.659,10.593-108.659,14.009,65.947,18.793,76.881,16.06,43.054,15.718,74.832,11.162,67.769,15.263,79.159,0,53.988,0,56.949.455,57.633.455,57.633,65.834,1.367,70.39-.228V2324.45s7.744-26.653,8.656-30.069S-3855.515,2221.03-3856.54,2211.8Zm-487.6-165.893,50.4-30.241s2.563,1.367,5.809,15.121,14.18,48.776,12.13,65.861.254,41,.254,41Z" fill="#fff" stroke="#878787" stroke-miterlimit="10" stroke-width="1.203"/><path d="M-4187.3,1812.532s-1.537-18.793,1.709-20.331-.342-3.587,17.085-3.929,75.173,0,75.173,0,15.889-2.2,13.838,12.054-10.421,28.095-12.13,30.145-18.793,14.181-18.793,14.181l-35.536-1.2Z" fill="#fff" stroke="#878787" stroke-miterlimit="10" stroke-width="1.203"/><path d="M-4185.593,1792.2s-3.207,6.41,7.517,15.889,42.029,35.366,42.029,35.366-6.322,3.417-7.688,17.6-16.06,39.808-20.844,42.37c0,0-23.064-50.741-24.944-53.988s-4.783-13.5-4.783-15.547,6.492-37.074,6.492-37.074S-4186.675,1792.2-4185.593,1792.2Z" fill="#fff" stroke="#878787" stroke-miterlimit="10" stroke-width="1.203"/><path d="M-4141,1841.918s-2.733.086-5.467,11.362-8.03,31.436-9.567,33.571-6.578,10.422-6.578,10.422-29.044-61.676-29.471-63.726a18.778,18.778,0,0,0-.855-3.076" fill="none" stroke="#878787" stroke-miterlimit="10" stroke-width="1.203" stroke-dasharray="4.822"/><path d="M-4081.034,1792.2s3.207,6.41-7.517,15.889-42.029,35.366-42.029,35.366,6.321,3.417,7.688,17.6,16.06,39.808,20.844,42.37c0,0,23.064-50.741,24.943-53.988s4.784-13.5,4.784-15.547-6.492-37.074-6.492-37.074S-4079.952,1792.2-4081.034,1792.2Z" fill="#fff" stroke="#878787" stroke-miterlimit="10" stroke-width="1.203"/><path d="M-4125.625,1841.918s2.733.086,5.467,11.362,8.03,31.436,9.567,33.571,6.578,10.422,6.578,10.422,29.044-61.676,29.471-63.726a18.826,18.826,0,0,1,.854-3.076" fill="none" stroke="#878787" stroke-miterlimit="10" stroke-width="1.203" stroke-dasharray="4.822"/><circle cx="4.1" cy="4.1" r="4.1" transform="translate(-4138.154 1850.802)" fill="none" stroke="#878787" stroke-miterlimit="10" stroke-width="1.203"/><circle cx="4.1" cy="4.1" r="4.1" transform="translate(-4138.154 1908.776)" fill="none" stroke="#878787" stroke-miterlimit="10" stroke-width="1.203"/><circle cx="4.1" cy="4.1" r="4.1" transform="translate(-4138.154 2004.657)" fill="none" stroke="#878787" stroke-miterlimit="10" stroke-width="1.203"/><circle cx="4.1" cy="4.1" r="4.1" transform="translate(-4138.154 2095.052)" fill="none" stroke="#878787" stroke-miterlimit="10" stroke-width="1.203"/><circle cx="4.1" cy="4.1" r="4.1" transform="translate(-4138.154 2185.447)" fill="none" stroke="#878787" stroke-miterlimit="10" stroke-width="1.203"/><circle cx="4.1" cy="4.1" r="4.1" transform="translate(-4138.154 2281.328)" fill="none" stroke="#878787" stroke-miterlimit="10" stroke-width="1.203"/><circle cx="4.1" cy="4.1" r="4.1" transform="translate(-4138.154 2371.723)" fill="none" stroke="#878787" stroke-miterlimit="10" stroke-width="1.203"/><line x1="99.263" y2="33.657" transform="translate(-4293.569 1837.818)" fill="none" stroke="#878787" stroke-miterlimit="10" stroke-width="1.203"/><path d="M-4297.783,1857.238s14.636,50.286,14.294,72.325,5.638,56.893-8.713,86.108" fill="none" stroke="#878787" stroke-miterlimit="10" stroke-width="1.203"/><line x2="96.871" y2="31.664" transform="translate(-4072.321 1838.786)" fill="none" stroke="#878787" stroke-miterlimit="10" stroke-width="1.203"/><path d="M-3972.375,1858.49s-17.2,53.874-19.021,79.16-3.189,53.3,15.718,78.134l-4.214,15.6" fill="none" stroke="#878787" stroke-miterlimit="10" stroke-width="1.203"/><path d="M-4375.69,1981.387s-1.139-21.413-3.645-20.274-2.961,10.023,1.823,22.552,33.372,62.246,33.372,62.246" fill="none" stroke="#878787" stroke-miterlimit="10" stroke-width="1.203"/><path d="M-4275.547,2137.656s8.972,14.693,11.193,23.406,2.392,11.789,2.392,11.789l31.094,45.616s-52.792,42.37-60.651,43.4" fill="none" stroke="#878787" stroke-miterlimit="10" stroke-width="1.203"/><path d="M-4321.93,2217.954s21.439-12.743,38.749-25.323c10.463-7.6,19.417-15.146,21.219-19.78" fill="none" stroke="#878787" stroke-miterlimit="10" stroke-width="1.203"/><path d="M-4284.343,2191.986l-49.66-66.175-10.137-.912-1.253,7.859,49.753,68.536s19.839,26.684,26.445,30.9,15.859,4.017,26.5-4.379" fill="none" stroke="#878787" stroke-miterlimit="10" stroke-width="1.203"/><path d="M-4268.227,2233.331a17.337,17.337,0,0,1,0,6.72c-.683,4.214-6.711,12.142-11.194,15.069" fill="none" stroke="#878787" stroke-miterlimit="10" stroke-width="1.203"/><path d="M-4291.946,2201.639s17.341,23.32,21.271,25.883,10.08,6.407,19.818.94a94.956,94.956,0,0,0,16.231-11.447" fill="none" stroke="#878787" stroke-miterlimit="10" stroke-width="1.203" stroke-dasharray="4.822"/><path d="M-4291.946,2256.993s14.778-7.853,17.17-12.768,2.819-9.954,2.392-11.919" fill="none" stroke="#878787" stroke-miterlimit="10" stroke-width="1.203" stroke-dasharray="4.822"/><path d="M-4266.917,2240.592c.257.085,4.955-4.1,4.955-4.1" fill="none" stroke="#878787" stroke-miterlimit="10" stroke-width="1.203" stroke-dasharray="4.822"/><path d="M-4320.221,2217.954s44.99-23.8,58.259-42.484" fill="none" stroke="#878787" stroke-miterlimit="10" stroke-width="1.203" stroke-dasharray="4.822"/><path d="M-4274.434,2183.329s-16.743-24.943-17.085-29.5,2.164-5.7,5.809,2.164S-4274.434,2183.329-4274.434,2183.329Z" fill="none" stroke="#878787" stroke-miterlimit="10" stroke-width="1.203"/><path d="M-3930.084,2324.566s62.687,3.458,70.546.381" fill="none" stroke="#878787" stroke-miterlimit="10" stroke-width="1.203"/><path d="M-3928.41,2326.728s57.747,4.1,69.137,0" fill="none" stroke="#878787" stroke-miterlimit="10" stroke-width="1.203" stroke-dasharray="4.822"/><path d="M-3928.41,2371.946s43.966,3.189,69.137,0" fill="none" stroke="#878787" stroke-miterlimit="10" stroke-width="1.203" stroke-dasharray="4.822"/><line y1="30.838" x2="2.072" transform="translate(-3969.381 2314.95)" fill="none" stroke="#878787" stroke-miterlimit="10" stroke-width="1.203"/><line y1="27.108" x2="1.514" transform="translate(-3970.894 2317.844)" fill="none" stroke="#878787" stroke-miterlimit="10" stroke-width="1.203" stroke-dasharray="4.822"/><line x1="2.13" y1="27.988" transform="translate(-4300.283 2318.678)" fill="none" stroke="#878787" stroke-miterlimit="10" stroke-width="1.203"/><line x2="3.371" y2="29.5" transform="translate(-4299.218 2317.73)" fill="none" stroke="#878787" stroke-miterlimit="10" stroke-width="1.203" stroke-dasharray="4.822"/><path d="M-4143.223,1866.236s13.891,1.112,19.363-2.364" fill="none" stroke="#878787" stroke-miterlimit="10" stroke-width="1.203"/><line x1="2.05" y2="556.293" transform="translate(-4148.69 1876.828)" fill="none" stroke="#878787" stroke-miterlimit="10" stroke-width="1.203"/><line x1="2.05" y2="556.293" transform="translate(-4146.64 1872.642)" fill="none" stroke="#878787" stroke-miterlimit="10" stroke-width="1.203" stroke-dasharray="4.822"/><line y2="556.281" transform="translate(-4121.354 1873.183)" fill="none" stroke="#878787" stroke-miterlimit="10" stroke-width="1.203"/><line y2="556.281" transform="translate(-4123.233 1871.133)" fill="none" stroke="#878787" stroke-miterlimit="10" stroke-width="1.203" stroke-dasharray="4.822"/><circle cx="4.186" cy="4.186" r="4.186" transform="translate(-4281.14 2206.764)" fill="none" stroke="#878787" stroke-miterlimit="10" stroke-width="1.203"/></g><path d="M-3771.451,2186.967V2267.1s100.643,4.047,112.515,0l1.619-84.724S-3712.9,2190.475-3771.451,2186.967Z" transform="translate(4926.484 5651.781)" fill="#fff" stroke="#878787" stroke-miterlimit="10" stroke-width="1.425"/><path d="M-3724.1,2188.316s1.079,49.917,4.452,60.575,14.03,23.07,60.709,18.213" transform="translate(4926.484 5651.781)" fill="none" stroke="#878787" stroke-miterlimit="10" stroke-width="1.425"/><path d="M-3767.943,2195.6s81.081,8.9,106.444-1.349" transform="translate(4926.484 5651.781)" fill="none" stroke="#878787" stroke-miterlimit="10" stroke-width="1.425" stroke-dasharray="5.711"/><path d="M-3767.952,2189.719s83.361,6.116,109-5" transform="translate(4926.484 5651.781)" fill="none" stroke="#878787" stroke-miterlimit="10" stroke-width="1.425" stroke-dasharray="5.711"/><path d="M-3719.375,2200.323s-1.889,42.227,9.173,51.806,48.7,9.039,48.7,9.039" transform="translate(4926.484 5651.781)" fill="none" stroke="#878787" stroke-miterlimit="10" stroke-width="1.425" stroke-dasharray="5.711"/><path d="M-3721.669,2249.3s-9.983,19.977-47.623,11.877" transform="translate(4926.484 5651.781)" fill="none" stroke="#878787" stroke-miterlimit="10" stroke-width="1.425" stroke-dasharray="5.711"/><line x2="21.721" transform="translate(1191.594 7914.887)" fill="none" stroke="#878787" stroke-miterlimit="10" stroke-width="1.425" stroke-dasharray="5.711"/><circle cx="6.678" cy="6.678" r="6.678" transform="translate(1213.618 7859.962)" fill="none" stroke="#878787" stroke-miterlimit="10" stroke-width="1.443"/><path d="M0,0H99.955a0,0,0,0,1,0,0V101.867A17.205,17.205,0,0,1,82.75,119.072H17.205A17.205,17.205,0,0,1,0,101.867V0A0,0,0,0,1,0,0Z" transform="translate(281.369 7788.184)" fill="#fff" stroke="#878787" stroke-miterlimit="10" stroke-width="1.443"/><line x2="94.766" transform="translate(282.734 7807.3)" fill="none" stroke="#878787" stroke-miterlimit="10" stroke-width="1.443" stroke-dasharray="5.781"/><path d="M0,0H98.754a0,0,0,0,1,0,0V100.643a17,17,0,0,1-17,17H17a17,17,0,0,1-17-17V0A0,0,0,0,1,0,0Z" transform="translate(1159.891 7571.355)" fill="#fff" stroke="#878787" stroke-miterlimit="10" stroke-width="1.425"/><line x2="94.977" transform="translate(1159.891 7590.243)" fill="none" stroke="#878787" stroke-miterlimit="10" stroke-width="1.425" stroke-dasharray="5.711"/><circle cx="15" cy="15" r="15" transform="translate(781.531 7465.252)" fill="#7a1c47"/><circle cx="15" cy="15" r="15" transform="translate(818.381 7553.758)" fill="#7a1c47"/><circle cx="15" cy="15" r="15" transform="translate(738.633 7553.758)" fill="#7a1c47"/><circle cx="15" cy="15" r="15" transform="translate(851.623 7593.443)" fill="#7a1c47"/><circle cx="15" cy="15" r="15" transform="translate(1194.268 7593.443)" fill="#7a1c47"/><circle cx="15" cy="15" r="15" transform="translate(1194.268 7556.355)" fill="#7a1c47"/><circle cx="15" cy="15" r="15" transform="translate(1194.268 7515.653)" fill="#7a1c47"/><circle cx="15" cy="15" r="15" transform="translate(1143.532 7556.355)" fill="#7a1c47"/><circle cx="15" cy="15" r="15" transform="translate(1194.268 7693.94)" fill="#7a1c47"/><circle cx="15" cy="15" r="15" transform="translate(1232.275 7862.422)" fill="#7a1c47"/><circle cx="15" cy="15" r="15" transform="translate(1285 7862.422)" fill="#7a1c47"/><circle cx="15" cy="15" r="15" transform="translate(1285 7826.517)" fill="#7a1c47"/><circle cx="15" cy="15" r="15" transform="translate(1285 7898.328)" fill="#7a1c47"/><circle cx="15" cy="15" r="15" transform="translate(1247.275 7671.546)" fill="#7a1c47"/><circle cx="15" cy="15" r="15" transform="translate(707.339 7593.443)" fill="#7a1c47"/><circle cx="15" cy="15" r="15" transform="translate(851.623 7694.923)" fill="#7a1c47"/><circle cx="15" cy="15" r="15" transform="translate(707.339 7694.923)" fill="#7a1c47"/><circle cx="15" cy="15" r="15" transform="translate(707.339 7772.569)" fill="#7a1c47"/><circle cx="15" cy="15" r="15" transform="translate(707.339 7826.328)" fill="#7a1c47"/><circle cx="15" cy="15" r="15" transform="translate(622.051 7873.272)" fill="#7a1c47"/><circle cx="15" cy="15" r="15" transform="translate(567.225 7863.823)" fill="#7a1c47"/><circle cx="15" cy="15" r="15" transform="translate(567.225 7898.644)" fill="#7a1c47"/><circle cx="15" cy="15" r="15" transform="translate(567.225 7938.328)" fill="#7a1c47"/><circle cx="15" cy="15" r="15" transform="translate(316.346 7774.437)" fill="#7a1c47"/><circle cx="15" cy="15" r="15" transform="translate(316.346 7733.996)" fill="#7a1c47"/><circle cx="15" cy="15" r="15" transform="translate(316.346 7814.878)" fill="#7a1c47"/><circle cx="15" cy="15" r="15" transform="translate(316.346 7919.134)" fill="#7a1c47"/><circle cx="15" cy="15" r="15" transform="translate(371.312 7774.437)" fill="#7a1c47"/><circle cx="15" cy="15" r="15" transform="translate(851.623 7733.522)" fill="#7a1c47"/><circle cx="15" cy="15" r="15" transform="translate(851.623 7770.678)" fill="#7a1c47"/><circle cx="15" cy="15" r="15" transform="translate(851.623 7806.355)" fill="#7a1c47"/><circle cx="15" cy="15" r="15" transform="translate(851.623 7845.429)" fill="#7a1c47"/><circle cx="15" cy="15" r="15" transform="translate(851.623 7913.644)" fill="#7a1c47"/><circle cx="15" cy="15" r="15" transform="translate(851.623 7957.864)" fill="#7a1c47"/><circle cx="15" cy="15" r="15" transform="translate(711.875 7913.644)" fill="#7a1c47"/><circle cx="15" cy="15" r="15" transform="translate(711.875 7957.864)" fill="#7a1c47"/><circle cx="15" cy="15" r="15" transform="translate(851.623 8016.705)" fill="#7a1c47"/><circle cx="15" cy="15" r="15" transform="translate(781.531 7434.252)" fill="#7a1c47"/><circle cx="15" cy="15" r="15" transform="translate(781.531 7397)" fill="#7a1c47"/><path d="M1.9,0H-.742V-8.406l-2.594.758v-2l4.992-1.727H1.9Z" transform="translate(867 7614)" fill="#fff"/><path d="M4,0H-3.937V-1.719L-.281-5.562A4.364,4.364,0,0,0,1.07-8.008,1.7,1.7,0,0,0,.75-9.125a1.144,1.144,0,0,0-.93-.383A1.158,1.158,0,0,0-1.156-9a2.1,2.1,0,0,0-.375,1.277H-4.172a3.736,3.736,0,0,1,.523-1.934A3.671,3.671,0,0,1-2.2-11.039a4.317,4.317,0,0,1,2.078-.5,4.246,4.246,0,0,1,2.84.852,3.04,3.04,0,0,1,1,2.445,3.551,3.551,0,0,1-.25,1.309A5.739,5.739,0,0,1,2.691-5.6a19.581,19.581,0,0,1-1.7,1.871l-1.469,1.7H4Z" transform="translate(833 7574)" fill="#fff"/><path d="M-1.531-6.789H-.289A1.291,1.291,0,0,0,1.188-8.234a1.25,1.25,0,0,0-.352-.918,1.333,1.333,0,0,0-.992-.355,1.427,1.427,0,0,0-.91.3.93.93,0,0,0-.387.758H-4.086a2.7,2.7,0,0,1,.5-1.6,3.3,3.3,0,0,1,1.387-1.1A4.741,4.741,0,0,1-.25-11.539a4.658,4.658,0,0,1,2.984.867A2.883,2.883,0,0,1,3.82-8.289,2.4,2.4,0,0,1,3.371-6.9,3.2,3.2,0,0,1,2.063-5.844a3.058,3.058,0,0,1,1.422,1A2.623,2.623,0,0,1,4-3.2,2.935,2.935,0,0,1,2.828-.758,4.864,4.864,0,0,1-.25.156,5.045,5.045,0,0,1-2.324-.27a3.25,3.25,0,0,1-1.449-1.18,3.067,3.067,0,0,1-.492-1.715h2.648a1.185,1.185,0,0,0,.422.906,1.489,1.489,0,0,0,1.039.383A1.56,1.56,0,0,0,.953-2.262a1.293,1.293,0,0,0,.414-.988,1.511,1.511,0,0,0-.43-1.219A1.8,1.8,0,0,0-.25-4.828H-1.531Z" transform="translate(754 7574)" fill="#fff"/><path d="M-2.734,0H-5.375V-8.406l-2.594.758v-2l4.992-1.727h.242ZM8.6-9.969,4.352,0H1.57L5.828-9.344H.406v-2.031H8.6Z" transform="translate(722 7614)" fill="#fff"/><path d="M-2.734,0H-5.375V-8.406l-2.594.758v-2l4.992-1.727h.242ZM7.055-11.539v2.07H6.938a3.953,3.953,0,0,0-2.426.707A2.985,2.985,0,0,0,3.344-6.8a3.079,3.079,0,0,1,2.25-.875A2.872,2.872,0,0,1,7.945-6.594,4.348,4.348,0,0,1,8.82-3.766a3.982,3.982,0,0,1-.512,1.992A3.651,3.651,0,0,1,6.879-.355,4.108,4.108,0,0,1,4.844.156,4.246,4.246,0,0,1,2.68-.395,3.787,3.787,0,0,1,1.2-1.969,5.184,5.184,0,0,1,.648-4.328V-5.383A6.567,6.567,0,0,1,1.4-8.543a5.466,5.466,0,0,1,2.152-2.2,6.154,6.154,0,0,1,3.1-.8ZM4.68-5.656a1.506,1.506,0,0,0-.875.242,1.538,1.538,0,0,0-.523.594v.789q0,2.156,1.492,2.156a1.211,1.211,0,0,0,1-.539,2.2,2.2,0,0,0,.4-1.352,2.156,2.156,0,0,0-.41-1.363A1.312,1.312,0,0,0,4.68-5.656Z" transform="translate(722 7715)" fill="#fff"/><path d="M-2.734,0H-5.375V-8.406l-2.594.758v-2l4.992-1.727h.242ZM6.531,0H3.891V-8.406L1.3-7.648v-2l4.992-1.727h.242Z" transform="translate(722 7793)" fill="#fff"/><path d="M-1.617-4.445H-.461v2.031H-1.617V0H-4.25V-2.414h-4.4L-8.8-4.023l4.555-7.328v-.023h2.633Zm-4.68,0H-4.25v-3.5l-.164.266Zm13.945,0H8.8v2.031H7.648V0H5.016V-2.414H.617L.461-4.023l4.555-7.328v-.023H7.648Zm-4.68,0H5.016v-3.5l-.164.266Z" transform="translate(722 7847)" fill="#fff"/><path d="M-.633,0H-8.57V-1.719l3.656-3.844A4.364,4.364,0,0,0-3.562-8.008a1.7,1.7,0,0,0-.32-1.117,1.144,1.144,0,0,0-.93-.383A1.158,1.158,0,0,0-5.789-9a2.1,2.1,0,0,0-.375,1.277H-8.8a3.736,3.736,0,0,1,.523-1.934,3.671,3.671,0,0,1,1.453-1.387,4.317,4.317,0,0,1,2.078-.5,4.246,4.246,0,0,1,2.84.852,3.04,3.04,0,0,1,1,2.445,3.551,3.551,0,0,1-.25,1.309A5.739,5.739,0,0,1-1.941-5.6a19.581,19.581,0,0,1-1.7,1.871l-1.469,1.7H-.633ZM7.055-11.539v2.07H6.938a3.953,3.953,0,0,0-2.426.707A2.985,2.985,0,0,0,3.344-6.8a3.079,3.079,0,0,1,2.25-.875A2.872,2.872,0,0,1,7.945-6.594,4.348,4.348,0,0,1,8.82-3.766a3.982,3.982,0,0,1-.512,1.992A3.651,3.651,0,0,1,6.879-.355,4.108,4.108,0,0,1,4.844.156,4.246,4.246,0,0,1,2.68-.395,3.787,3.787,0,0,1,1.2-1.969,5.184,5.184,0,0,1,.648-4.328V-5.383A6.567,6.567,0,0,1,1.4-8.543a5.466,5.466,0,0,1,2.152-2.2,6.154,6.154,0,0,1,3.1-.8ZM4.68-5.656a1.506,1.506,0,0,0-.875.242,1.538,1.538,0,0,0-.523.594v.789q0,2.156,1.492,2.156a1.211,1.211,0,0,0,1-.539,2.2,2.2,0,0,0,.4-1.352,2.156,2.156,0,0,0-.41-1.363A1.312,1.312,0,0,0,4.68-5.656Z" transform="translate(727 7934)" fill="#fff"/><path d="M-1.617-4.445H-.461v2.031H-1.617V0H-4.25V-2.414h-4.4L-8.8-4.023l4.555-7.328v-.023h2.633Zm-4.68,0H-4.25v-3.5l-.164.266Zm14.891-.2A5.431,5.431,0,0,1,7.559-1.094,3.577,3.577,0,0,1,4.641.156,3.6,3.6,0,0,1,1.7-1.1,5.423,5.423,0,0,1,.664-4.648V-6.727A5.431,5.431,0,0,1,1.7-10.281a3.586,3.586,0,0,1,2.926-1.25,3.587,3.587,0,0,1,2.93,1.258A5.436,5.436,0,0,1,8.594-6.719ZM5.961-7.062a4.057,4.057,0,0,0-.32-1.832A1.071,1.071,0,0,0,4.625-9.5a1.045,1.045,0,0,0-.988.563,3.822,3.822,0,0,0-.332,1.7v2.906a4.088,4.088,0,0,0,.32,1.863,1.075,1.075,0,0,0,1.016.59,1.06,1.06,0,0,0,.992-.574,3.9,3.9,0,0,0,.328-1.8Z" transform="translate(637 7895)" fill="#fff"/><path d="M-.633,0H-8.57V-1.719l3.656-3.844A4.364,4.364,0,0,0-3.562-8.008a1.7,1.7,0,0,0-.32-1.117,1.144,1.144,0,0,0-.93-.383A1.158,1.158,0,0,0-5.789-9a2.1,2.1,0,0,0-.375,1.277H-8.8a3.736,3.736,0,0,1,.523-1.934,3.671,3.671,0,0,1,1.453-1.387,4.317,4.317,0,0,1,2.078-.5,4.246,4.246,0,0,1,2.84.852,3.04,3.04,0,0,1,1,2.445,3.551,3.551,0,0,1-.25,1.309A5.739,5.739,0,0,1-1.941-5.6a19.581,19.581,0,0,1-1.7,1.871l-1.469,1.7H-.633ZM7.648-4.445H8.8v2.031H7.648V0H5.016V-2.414H.617L.461-4.023l4.555-7.328v-.023H7.648Zm-4.68,0H5.016v-3.5l-.164.266Z" transform="translate(582 7884)" fill="#fff"/><path d="M-.633,0H-8.57V-1.719l3.656-3.844A4.364,4.364,0,0,0-3.562-8.008a1.7,1.7,0,0,0-.32-1.117,1.144,1.144,0,0,0-.93-.383A1.158,1.158,0,0,0-5.789-9a2.1,2.1,0,0,0-.375,1.277H-8.8a3.736,3.736,0,0,1,.523-1.934,3.671,3.671,0,0,1,1.453-1.387,4.317,4.317,0,0,1,2.078-.5,4.246,4.246,0,0,1,2.84.852,3.04,3.04,0,0,1,1,2.445,3.551,3.551,0,0,1-.25,1.309A5.739,5.739,0,0,1-1.941-5.6a19.581,19.581,0,0,1-1.7,1.871l-1.469,1.7H-.633ZM3.1-6.789H4.344A1.291,1.291,0,0,0,5.82-8.234a1.25,1.25,0,0,0-.352-.918,1.333,1.333,0,0,0-.992-.355,1.427,1.427,0,0,0-.91.3.93.93,0,0,0-.387.758H.547a2.7,2.7,0,0,1,.5-1.6,3.3,3.3,0,0,1,1.387-1.1,4.741,4.741,0,0,1,1.949-.395,4.658,4.658,0,0,1,2.984.867A2.883,2.883,0,0,1,8.453-8.289,2.4,2.4,0,0,1,8-6.9,3.2,3.2,0,0,1,6.7-5.844a3.058,3.058,0,0,1,1.422,1A2.623,2.623,0,0,1,8.633-3.2,2.935,2.935,0,0,1,7.461-.758,4.864,4.864,0,0,1,4.383.156,5.045,5.045,0,0,1,2.309-.27,3.25,3.25,0,0,1,.859-1.449,3.067,3.067,0,0,1,.367-3.164H3.016a1.185,1.185,0,0,0,.422.906,1.489,1.489,0,0,0,1.039.383,1.56,1.56,0,0,0,1.109-.387A1.293,1.293,0,0,0,6-3.25a1.511,1.511,0,0,0-.43-1.219,1.8,1.8,0,0,0-1.187-.359H3.1Z" transform="translate(582 7959)" fill="#fff"/><path d="M2.422-11.539v2.07H2.3a3.953,3.953,0,0,0-2.426.707A2.985,2.985,0,0,0-1.289-6.8a3.079,3.079,0,0,1,2.25-.875A2.872,2.872,0,0,1,3.313-6.594a4.348,4.348,0,0,1,.875,2.828,3.982,3.982,0,0,1-.512,1.992A3.651,3.651,0,0,1,2.246-.355,4.108,4.108,0,0,1,.211.156,4.246,4.246,0,0,1-1.953-.395,3.787,3.787,0,0,1-3.437-1.969a5.184,5.184,0,0,1-.547-2.359V-5.383a6.567,6.567,0,0,1,.754-3.16,5.466,5.466,0,0,1,2.152-2.2,6.154,6.154,0,0,1,3.1-.8ZM.047-5.656a1.506,1.506,0,0,0-.875.242,1.538,1.538,0,0,0-.523.594v.789q0,2.156,1.492,2.156a1.211,1.211,0,0,0,1-.539,2.2,2.2,0,0,0,.4-1.352,2.156,2.156,0,0,0-.41-1.363A1.312,1.312,0,0,0,.047-5.656Z" transform="translate(582 7919)" fill="#fff"/><path d="M-.633,0H-8.57V-1.719l3.656-3.844A4.364,4.364,0,0,0-3.562-8.008a1.7,1.7,0,0,0-.32-1.117,1.144,1.144,0,0,0-.93-.383A1.158,1.158,0,0,0-5.789-9a2.1,2.1,0,0,0-.375,1.277H-8.8a3.736,3.736,0,0,1,.523-1.934,3.671,3.671,0,0,1,1.453-1.387,4.317,4.317,0,0,1,2.078-.5,4.246,4.246,0,0,1,2.84.852,3.04,3.04,0,0,1,1,2.445,3.551,3.551,0,0,1-.25,1.309A5.739,5.739,0,0,1-1.941-5.6a19.581,19.581,0,0,1-1.7,1.871l-1.469,1.7H-.633Zm9-8.336a2.626,2.626,0,0,1-.41,1.461A2.987,2.987,0,0,1,6.828-5.859,3.287,3.287,0,0,1,8.117-4.77a2.812,2.812,0,0,1,.477,1.637A2.977,2.977,0,0,1,7.543-.727,4.364,4.364,0,0,1,4.648.156,4.443,4.443,0,0,1,1.727-.73a2.956,2.956,0,0,1-1.07-2.4A2.848,2.848,0,0,1,1.125-4.75,3.187,3.187,0,0,1,2.453-5.859,3,3,0,0,1,1.313-6.875,2.608,2.608,0,0,1,.9-8.336,2.919,2.919,0,0,1,1.906-10.68a4.051,4.051,0,0,1,2.719-.859,4.076,4.076,0,0,1,2.734.859A2.919,2.919,0,0,1,8.367-8.336ZM5.953-3.344A1.5,1.5,0,0,0,5.59-4.426,1.265,1.265,0,0,0,4.633-4.8a1.278,1.278,0,0,0-.961.379A1.492,1.492,0,0,0,3.3-3.344,1.5,1.5,0,0,0,3.676-2.27a1.274,1.274,0,0,0,.973.395,1.224,1.224,0,0,0,.945-.391A1.532,1.532,0,0,0,5.953-3.344ZM4.625-9.508a.973.973,0,0,0-.809.348,1.509,1.509,0,0,0-.277.965,1.6,1.6,0,0,0,.281.984.97.97,0,0,0,.828.375.931.931,0,0,0,.809-.375,1.65,1.65,0,0,0,.27-.984,1.512,1.512,0,0,0-.277-.961A.986.986,0,0,0,4.625-9.508Z" transform="translate(727 7979)" fill="#fff"/><path d="M-2.734,0H-5.375V-8.406l-2.594.758v-2l4.992-1.727h.242ZM8.633,0H.7V-1.719L4.352-5.562A4.364,4.364,0,0,0,5.7-8.008a1.7,1.7,0,0,0-.32-1.117,1.144,1.144,0,0,0-.93-.383A1.158,1.158,0,0,0,3.477-9,2.1,2.1,0,0,0,3.1-7.719H.461A3.736,3.736,0,0,1,.984-9.652a3.671,3.671,0,0,1,1.453-1.387,4.317,4.317,0,0,1,2.078-.5,4.246,4.246,0,0,1,2.84.852,3.04,3.04,0,0,1,1,2.445A3.551,3.551,0,0,1,8.1-6.934,5.739,5.739,0,0,1,7.324-5.6a19.581,19.581,0,0,1-1.7,1.871l-1.469,1.7H8.633Z" transform="translate(867 7715)" fill="#fff"/><path d="M-2.734,0H-5.375V-8.406l-2.594.758v-2l4.992-1.727h.242Zm11.1-8.336a2.626,2.626,0,0,1-.41,1.461A2.987,2.987,0,0,1,6.828-5.859,3.287,3.287,0,0,1,8.117-4.77a2.812,2.812,0,0,1,.477,1.637A2.977,2.977,0,0,1,7.543-.727,4.364,4.364,0,0,1,4.648.156,4.443,4.443,0,0,1,1.727-.73a2.956,2.956,0,0,1-1.07-2.4A2.848,2.848,0,0,1,1.125-4.75,3.187,3.187,0,0,1,2.453-5.859,3,3,0,0,1,1.313-6.875,2.608,2.608,0,0,1,.9-8.336,2.919,2.919,0,0,1,1.906-10.68a4.051,4.051,0,0,1,2.719-.859,4.076,4.076,0,0,1,2.734.859A2.919,2.919,0,0,1,8.367-8.336ZM5.953-3.344A1.5,1.5,0,0,0,5.59-4.426,1.265,1.265,0,0,0,4.633-4.8a1.278,1.278,0,0,0-.961.379A1.492,1.492,0,0,0,3.3-3.344,1.5,1.5,0,0,0,3.676-2.27a1.274,1.274,0,0,0,.973.395,1.224,1.224,0,0,0,.945-.391A1.532,1.532,0,0,0,5.953-3.344ZM4.625-9.508a.973.973,0,0,0-.809.348,1.509,1.509,0,0,0-.277.965,1.6,1.6,0,0,0,.281.984.97.97,0,0,0,.828.375.931.931,0,0,0,.809-.375,1.65,1.65,0,0,0,.27-.984,1.512,1.512,0,0,0-.277-.961A.986.986,0,0,0,4.625-9.508Z" transform="translate(867 7754)" fill="#fff"/><path d="M-2.734,0H-5.375V-8.406l-2.594.758v-2l4.992-1.727h.242ZM8.594-4.648A5.431,5.431,0,0,1,7.559-1.094,3.577,3.577,0,0,1,4.641.156,3.6,3.6,0,0,1,1.7-1.1,5.423,5.423,0,0,1,.664-4.648V-6.727A5.431,5.431,0,0,1,1.7-10.281a3.586,3.586,0,0,1,2.926-1.25,3.587,3.587,0,0,1,2.93,1.258A5.436,5.436,0,0,1,8.594-6.719ZM5.961-7.062a4.057,4.057,0,0,0-.32-1.832A1.071,1.071,0,0,0,4.625-9.5a1.045,1.045,0,0,0-.988.563,3.822,3.822,0,0,0-.332,1.7v2.906a4.088,4.088,0,0,0,.32,1.863,1.075,1.075,0,0,0,1.016.59,1.06,1.06,0,0,0,.992-.574,3.9,3.9,0,0,0,.328-1.8Z" transform="translate(867 7793)" fill="#fff"/><path d="M-2.734,0H-5.375V-8.406l-2.594.758v-2l4.992-1.727h.242ZM5.883-4.4a2.781,2.781,0,0,1-1.906.766A3.078,3.078,0,0,1,1.523-4.68a4.124,4.124,0,0,1-.906-2.8,4.2,4.2,0,0,1,.508-2.031,3.81,3.81,0,0,1,1.426-1.484,3.887,3.887,0,0,1,2.027-.547,3.774,3.774,0,0,1,2.035.566,3.814,3.814,0,0,1,1.418,1.6,5.5,5.5,0,0,1,.523,2.387v1.008a6.838,6.838,0,0,1-.738,3.266A5.1,5.1,0,0,1,5.711-.586,6.579,6.579,0,0,1,2.523.156H2.359V-1.953l.5-.008Q5.578-2.094,5.883-4.4Zm-1.2-1.133a1.282,1.282,0,0,0,1.234-.742V-7.367a2.844,2.844,0,0,0-.367-1.617,1.152,1.152,0,0,0-.992-.523,1.088,1.088,0,0,0-.93.594,2.638,2.638,0,0,0-.375,1.438,2.365,2.365,0,0,0,.383,1.418A1.224,1.224,0,0,0,4.688-5.531Z" transform="translate(867 7827)" fill="#fff"/><path d="M-.633,0H-8.57V-1.719l3.656-3.844A4.364,4.364,0,0,0-3.562-8.008a1.7,1.7,0,0,0-.32-1.117,1.144,1.144,0,0,0-.93-.383A1.158,1.158,0,0,0-5.789-9a2.1,2.1,0,0,0-.375,1.277H-8.8a3.736,3.736,0,0,1,.523-1.934,3.671,3.671,0,0,1,1.453-1.387,4.317,4.317,0,0,1,2.078-.5,4.246,4.246,0,0,1,2.84.852,3.04,3.04,0,0,1,1,2.445,3.551,3.551,0,0,1-.25,1.309A5.739,5.739,0,0,1-1.941-5.6a19.581,19.581,0,0,1-1.7,1.871l-1.469,1.7H-.633ZM8.594-4.648A5.431,5.431,0,0,1,7.559-1.094,3.577,3.577,0,0,1,4.641.156,3.6,3.6,0,0,1,1.7-1.1,5.423,5.423,0,0,1,.664-4.648V-6.727A5.431,5.431,0,0,1,1.7-10.281a3.586,3.586,0,0,1,2.926-1.25,3.587,3.587,0,0,1,2.93,1.258A5.436,5.436,0,0,1,8.594-6.719ZM5.961-7.062a4.057,4.057,0,0,0-.32-1.832A1.071,1.071,0,0,0,4.625-9.5a1.045,1.045,0,0,0-.988.563,3.822,3.822,0,0,0-.332,1.7v2.906a4.088,4.088,0,0,0,.32,1.863,1.075,1.075,0,0,0,1.016.59,1.06,1.06,0,0,0,.992-.574,3.9,3.9,0,0,0,.328-1.8Z" transform="translate(867 7866)" fill="#fff"/><path d="M-.633,0H-8.57V-1.719l3.656-3.844A4.364,4.364,0,0,0-3.562-8.008a1.7,1.7,0,0,0-.32-1.117,1.144,1.144,0,0,0-.93-.383A1.158,1.158,0,0,0-5.789-9a2.1,2.1,0,0,0-.375,1.277H-8.8a3.736,3.736,0,0,1,.523-1.934,3.671,3.671,0,0,1,1.453-1.387,4.317,4.317,0,0,1,2.078-.5,4.246,4.246,0,0,1,2.84.852,3.04,3.04,0,0,1,1,2.445,3.551,3.551,0,0,1-.25,1.309A5.739,5.739,0,0,1-1.941-5.6a19.581,19.581,0,0,1-1.7,1.871l-1.469,1.7H-.633ZM.852-5.562l.7-5.812H8.2v2.047H3.688L3.43-7.07a3.114,3.114,0,0,1,.738-.289,3.382,3.382,0,0,1,.895-.125,3.337,3.337,0,0,1,2.605,1,4.044,4.044,0,0,1,.91,2.816,4.037,4.037,0,0,1-.488,1.98A3.356,3.356,0,0,1,6.719-.32,4.329,4.329,0,0,1,4.633.156,4.654,4.654,0,0,1,2.625-.285,3.6,3.6,0,0,1,1.156-1.5,2.944,2.944,0,0,1,.633-3.234H3.273a1.5,1.5,0,0,0,.4.992,1.263,1.263,0,0,0,.945.367q1.328,0,1.328-1.969,0-1.82-1.625-1.82a1.62,1.62,0,0,0-1.375.594Z" transform="translate(867 7934)" fill="#fff"/><path d="M-.633,0H-8.57V-1.719l3.656-3.844A4.364,4.364,0,0,0-3.562-8.008a1.7,1.7,0,0,0-.32-1.117,1.144,1.144,0,0,0-.93-.383A1.158,1.158,0,0,0-5.789-9a2.1,2.1,0,0,0-.375,1.277H-8.8a3.736,3.736,0,0,1,.523-1.934,3.671,3.671,0,0,1,1.453-1.387,4.317,4.317,0,0,1,2.078-.5,4.246,4.246,0,0,1,2.84.852,3.04,3.04,0,0,1,1,2.445,3.551,3.551,0,0,1-.25,1.309A5.739,5.739,0,0,1-1.941-5.6a19.581,19.581,0,0,1-1.7,1.871l-1.469,1.7H-.633ZM8.6-9.969,4.352,0H1.57L5.828-9.344H.406v-2.031H8.6Z" transform="translate(867 7978)" fill="#fff"/><path d="M-.633,0H-8.57V-1.719l3.656-3.844A4.364,4.364,0,0,0-3.562-8.008a1.7,1.7,0,0,0-.32-1.117,1.144,1.144,0,0,0-.93-.383A1.158,1.158,0,0,0-5.789-9a2.1,2.1,0,0,0-.375,1.277H-8.8a3.736,3.736,0,0,1,.523-1.934,3.671,3.671,0,0,1,1.453-1.387,4.317,4.317,0,0,1,2.078-.5,4.246,4.246,0,0,1,2.84.852,3.04,3.04,0,0,1,1,2.445,3.551,3.551,0,0,1-.25,1.309A5.739,5.739,0,0,1-1.941-5.6a19.581,19.581,0,0,1-1.7,1.871l-1.469,1.7H-.633ZM5.883-4.4a2.781,2.781,0,0,1-1.906.766A3.078,3.078,0,0,1,1.523-4.68a4.124,4.124,0,0,1-.906-2.8,4.2,4.2,0,0,1,.508-2.031,3.81,3.81,0,0,1,1.426-1.484,3.887,3.887,0,0,1,2.027-.547,3.774,3.774,0,0,1,2.035.566,3.814,3.814,0,0,1,1.418,1.6,5.5,5.5,0,0,1,.523,2.387v1.008a6.838,6.838,0,0,1-.738,3.266A5.1,5.1,0,0,1,5.711-.586,6.579,6.579,0,0,1,2.523.156H2.359V-1.953l.5-.008Q5.578-2.094,5.883-4.4Zm-1.2-1.133a1.282,1.282,0,0,0,1.234-.742V-7.367a2.844,2.844,0,0,0-.367-1.617,1.152,1.152,0,0,0-.992-.523,1.088,1.088,0,0,0-.93.594,2.638,2.638,0,0,0-.375,1.438,2.365,2.365,0,0,0,.383,1.418A1.224,1.224,0,0,0,4.688-5.531Z" transform="translate(867 8037)" fill="#fff"/><path d="M-6.164-6.789h1.242A1.291,1.291,0,0,0-3.445-8.234,1.25,1.25,0,0,0-3.8-9.152a1.333,1.333,0,0,0-.992-.355,1.427,1.427,0,0,0-.91.3.93.93,0,0,0-.387.758H-8.719a2.7,2.7,0,0,1,.5-1.6,3.3,3.3,0,0,1,1.387-1.1,4.741,4.741,0,0,1,1.949-.395,4.658,4.658,0,0,1,2.984.867A2.883,2.883,0,0,1-.812-8.289,2.4,2.4,0,0,1-1.262-6.9,3.2,3.2,0,0,1-2.57-5.844a3.058,3.058,0,0,1,1.422,1A2.623,2.623,0,0,1-.633-3.2,2.935,2.935,0,0,1-1.8-.758,4.864,4.864,0,0,1-4.883.156,5.045,5.045,0,0,1-6.957-.27a3.25,3.25,0,0,1-1.449-1.18A3.067,3.067,0,0,1-8.9-3.164H-6.25a1.185,1.185,0,0,0,.422.906,1.489,1.489,0,0,0,1.039.383A1.56,1.56,0,0,0-3.68-2.262a1.293,1.293,0,0,0,.414-.988A1.511,1.511,0,0,0-3.7-4.469a1.8,1.8,0,0,0-1.187-.359H-6.164ZM8.6-9.969,4.352,0H1.57L5.828-9.344H.406v-2.031H8.6Z" transform="translate(331 7940)" fill="#fff"/><path d="M-6.164-6.789h1.242A1.291,1.291,0,0,0-3.445-8.234,1.25,1.25,0,0,0-3.8-9.152a1.333,1.333,0,0,0-.992-.355,1.427,1.427,0,0,0-.91.3.93.93,0,0,0-.387.758H-8.719a2.7,2.7,0,0,1,.5-1.6,3.3,3.3,0,0,1,1.387-1.1,4.741,4.741,0,0,1,1.949-.395,4.658,4.658,0,0,1,2.984.867A2.883,2.883,0,0,1-.812-8.289,2.4,2.4,0,0,1-1.262-6.9,3.2,3.2,0,0,1-2.57-5.844a3.058,3.058,0,0,1,1.422,1A2.623,2.623,0,0,1-.633-3.2,2.935,2.935,0,0,1-1.8-.758,4.864,4.864,0,0,1-4.883.156,5.045,5.045,0,0,1-6.957-.27a3.25,3.25,0,0,1-1.449-1.18A3.067,3.067,0,0,1-8.9-3.164H-6.25a1.185,1.185,0,0,0,.422.906,1.489,1.489,0,0,0,1.039.383A1.56,1.56,0,0,0-3.68-2.262a1.293,1.293,0,0,0,.414-.988A1.511,1.511,0,0,0-3.7-4.469a1.8,1.8,0,0,0-1.187-.359H-6.164Zm13.219-4.75v2.07H6.938a3.953,3.953,0,0,0-2.426.707A2.985,2.985,0,0,0,3.344-6.8a3.079,3.079,0,0,1,2.25-.875A2.872,2.872,0,0,1,7.945-6.594,4.348,4.348,0,0,1,8.82-3.766a3.982,3.982,0,0,1-.512,1.992A3.651,3.651,0,0,1,6.879-.355,4.108,4.108,0,0,1,4.844.156,4.246,4.246,0,0,1,2.68-.395,3.787,3.787,0,0,1,1.2-1.969,5.184,5.184,0,0,1,.648-4.328V-5.383A6.567,6.567,0,0,1,1.4-8.543a5.466,5.466,0,0,1,2.152-2.2,6.154,6.154,0,0,1,3.1-.8ZM4.68-5.656a1.506,1.506,0,0,0-.875.242,1.538,1.538,0,0,0-.523.594v.789q0,2.156,1.492,2.156a1.211,1.211,0,0,0,1-.539,2.2,2.2,0,0,0,.4-1.352,2.156,2.156,0,0,0-.41-1.363A1.312,1.312,0,0,0,4.68-5.656Z" transform="translate(331 7837)" fill="#fff"/><path d="M-6.164-6.789h1.242A1.291,1.291,0,0,0-3.445-8.234,1.25,1.25,0,0,0-3.8-9.152a1.333,1.333,0,0,0-.992-.355,1.427,1.427,0,0,0-.91.3.93.93,0,0,0-.387.758H-8.719a2.7,2.7,0,0,1,.5-1.6,3.3,3.3,0,0,1,1.387-1.1,4.741,4.741,0,0,1,1.949-.395,4.658,4.658,0,0,1,2.984.867A2.883,2.883,0,0,1-.812-8.289,2.4,2.4,0,0,1-1.262-6.9,3.2,3.2,0,0,1-2.57-5.844a3.058,3.058,0,0,1,1.422,1A2.623,2.623,0,0,1-.633-3.2,2.935,2.935,0,0,1-1.8-.758,4.864,4.864,0,0,1-4.883.156,5.045,5.045,0,0,1-6.957-.27a3.25,3.25,0,0,1-1.449-1.18A3.067,3.067,0,0,1-8.9-3.164H-6.25a1.185,1.185,0,0,0,.422.906,1.489,1.489,0,0,0,1.039.383A1.56,1.56,0,0,0-3.68-2.262a1.293,1.293,0,0,0,.414-.988A1.511,1.511,0,0,0-3.7-4.469a1.8,1.8,0,0,0-1.187-.359H-6.164ZM5.883-4.4a2.781,2.781,0,0,1-1.906.766A3.078,3.078,0,0,1,1.523-4.68a4.124,4.124,0,0,1-.906-2.8,4.2,4.2,0,0,1,.508-2.031,3.81,3.81,0,0,1,1.426-1.484,3.887,3.887,0,0,1,2.027-.547,3.774,3.774,0,0,1,2.035.566,3.814,3.814,0,0,1,1.418,1.6,5.5,5.5,0,0,1,.523,2.387v1.008a6.838,6.838,0,0,1-.738,3.266A5.1,5.1,0,0,1,5.711-.586,6.579,6.579,0,0,1,2.523.156H2.359V-1.953l.5-.008Q5.578-2.094,5.883-4.4Zm-1.2-1.133a1.282,1.282,0,0,0,1.234-.742V-7.367a2.844,2.844,0,0,0-.367-1.617,1.152,1.152,0,0,0-.992-.523,1.088,1.088,0,0,0-.93.594,2.638,2.638,0,0,0-.375,1.438,2.365,2.365,0,0,0,.383,1.418A1.224,1.224,0,0,0,4.688-5.531Z" transform="translate(331 7796)" fill="#fff"/><path d="M-6.164-6.789h1.242A1.291,1.291,0,0,0-3.445-8.234,1.25,1.25,0,0,0-3.8-9.152a1.333,1.333,0,0,0-.992-.355,1.427,1.427,0,0,0-.91.3.93.93,0,0,0-.387.758H-8.719a2.7,2.7,0,0,1,.5-1.6,3.3,3.3,0,0,1,1.387-1.1,4.741,4.741,0,0,1,1.949-.395,4.658,4.658,0,0,1,2.984.867A2.883,2.883,0,0,1-.812-8.289,2.4,2.4,0,0,1-1.262-6.9,3.2,3.2,0,0,1-2.57-5.844a3.058,3.058,0,0,1,1.422,1A2.623,2.623,0,0,1-.633-3.2,2.935,2.935,0,0,1-1.8-.758,4.864,4.864,0,0,1-4.883.156,5.045,5.045,0,0,1-6.957-.27a3.25,3.25,0,0,1-1.449-1.18A3.067,3.067,0,0,1-8.9-3.164H-6.25a1.185,1.185,0,0,0,.422.906,1.489,1.489,0,0,0,1.039.383A1.56,1.56,0,0,0-3.68-2.262a1.293,1.293,0,0,0,.414-.988A1.511,1.511,0,0,0-3.7-4.469a1.8,1.8,0,0,0-1.187-.359H-6.164ZM8.367-8.336a2.626,2.626,0,0,1-.41,1.461A2.987,2.987,0,0,1,6.828-5.859,3.287,3.287,0,0,1,8.117-4.77a2.812,2.812,0,0,1,.477,1.637A2.977,2.977,0,0,1,7.543-.727,4.364,4.364,0,0,1,4.648.156,4.443,4.443,0,0,1,1.727-.73a2.956,2.956,0,0,1-1.07-2.4A2.848,2.848,0,0,1,1.125-4.75,3.187,3.187,0,0,1,2.453-5.859,3,3,0,0,1,1.313-6.875,2.608,2.608,0,0,1,.9-8.336,2.919,2.919,0,0,1,1.906-10.68a4.051,4.051,0,0,1,2.719-.859,4.076,4.076,0,0,1,2.734.859A2.919,2.919,0,0,1,8.367-8.336ZM5.953-3.344A1.5,1.5,0,0,0,5.59-4.426,1.265,1.265,0,0,0,4.633-4.8a1.278,1.278,0,0,0-.961.379A1.492,1.492,0,0,0,3.3-3.344,1.5,1.5,0,0,0,3.676-2.27a1.274,1.274,0,0,0,.973.395,1.224,1.224,0,0,0,.945-.391A1.532,1.532,0,0,0,5.953-3.344ZM4.625-9.508a.973.973,0,0,0-.809.348,1.509,1.509,0,0,0-.277.965,1.6,1.6,0,0,0,.281.984.97.97,0,0,0,.828.375.931.931,0,0,0,.809-.375,1.65,1.65,0,0,0,.27-.984,1.512,1.512,0,0,0-.277-.961A.986.986,0,0,0,4.625-9.508Z" transform="translate(387 7796)" fill="#fff"/><path d="M-6.164-6.789h1.242A1.291,1.291,0,0,0-3.445-8.234,1.25,1.25,0,0,0-3.8-9.152a1.333,1.333,0,0,0-.992-.355,1.427,1.427,0,0,0-.91.3.93.93,0,0,0-.387.758H-8.719a2.7,2.7,0,0,1,.5-1.6,3.3,3.3,0,0,1,1.387-1.1,4.741,4.741,0,0,1,1.949-.395,4.658,4.658,0,0,1,2.984.867A2.883,2.883,0,0,1-.812-8.289,2.4,2.4,0,0,1-1.262-6.9,3.2,3.2,0,0,1-2.57-5.844a3.058,3.058,0,0,1,1.422,1A2.623,2.623,0,0,1-.633-3.2,2.935,2.935,0,0,1-1.8-.758,4.864,4.864,0,0,1-4.883.156,5.045,5.045,0,0,1-6.957-.27a3.25,3.25,0,0,1-1.449-1.18A3.067,3.067,0,0,1-8.9-3.164H-6.25a1.185,1.185,0,0,0,.422.906,1.489,1.489,0,0,0,1.039.383A1.56,1.56,0,0,0-3.68-2.262a1.293,1.293,0,0,0,.414-.988A1.511,1.511,0,0,0-3.7-4.469a1.8,1.8,0,0,0-1.187-.359H-6.164ZM.852-5.562l.7-5.812H8.2v2.047H3.688L3.43-7.07a3.114,3.114,0,0,1,.738-.289,3.382,3.382,0,0,1,.895-.125,3.337,3.337,0,0,1,2.605,1,4.044,4.044,0,0,1,.91,2.816,4.037,4.037,0,0,1-.488,1.98A3.356,3.356,0,0,1,6.719-.32,4.329,4.329,0,0,1,4.633.156,4.654,4.654,0,0,1,2.625-.285,3.6,3.6,0,0,1,1.156-1.5,2.944,2.944,0,0,1,.633-3.234H3.273a1.5,1.5,0,0,0,.4.992,1.263,1.263,0,0,0,.945.367q1.328,0,1.328-1.969,0-1.82-1.625-1.82a1.62,1.62,0,0,0-1.375.594Z" transform="translate(331 7754)" fill="#fff"/><path d="M-6.164-6.789h1.242A1.291,1.291,0,0,0-3.445-8.234,1.25,1.25,0,0,0-3.8-9.152a1.333,1.333,0,0,0-.992-.355,1.427,1.427,0,0,0-.91.3.93.93,0,0,0-.387.758H-8.719a2.7,2.7,0,0,1,.5-1.6,3.3,3.3,0,0,1,1.387-1.1,4.741,4.741,0,0,1,1.949-.395,4.658,4.658,0,0,1,2.984.867A2.883,2.883,0,0,1-.812-8.289,2.4,2.4,0,0,1-1.262-6.9,3.2,3.2,0,0,1-2.57-5.844a3.058,3.058,0,0,1,1.422,1A2.623,2.623,0,0,1-.633-3.2,2.935,2.935,0,0,1-1.8-.758,4.864,4.864,0,0,1-4.883.156,5.045,5.045,0,0,1-6.957-.27a3.25,3.25,0,0,1-1.449-1.18A3.067,3.067,0,0,1-8.9-3.164H-6.25a1.185,1.185,0,0,0,.422.906,1.489,1.489,0,0,0,1.039.383A1.56,1.56,0,0,0-3.68-2.262a1.293,1.293,0,0,0,.414-.988A1.511,1.511,0,0,0-3.7-4.469a1.8,1.8,0,0,0-1.187-.359H-6.164ZM8.594-4.648A5.431,5.431,0,0,1,7.559-1.094,3.577,3.577,0,0,1,4.641.156,3.6,3.6,0,0,1,1.7-1.1,5.423,5.423,0,0,1,.664-4.648V-6.727A5.431,5.431,0,0,1,1.7-10.281a3.586,3.586,0,0,1,2.926-1.25,3.587,3.587,0,0,1,2.93,1.258A5.436,5.436,0,0,1,8.594-6.719ZM5.961-7.062a4.057,4.057,0,0,0-.32-1.832A1.071,1.071,0,0,0,4.625-9.5a1.045,1.045,0,0,0-.988.563,3.822,3.822,0,0,0-.332,1.7v2.906a4.088,4.088,0,0,0,.32,1.863,1.075,1.075,0,0,0,1.016.59,1.06,1.06,0,0,0,.992-.574,3.9,3.9,0,0,0,.328-1.8Z" transform="translate(797 7486)" fill="#fff"/><path d="M3.969-9.969-.281,0H-3.062L1.2-9.344H-4.227v-2.031h8.2Z" transform="translate(1209 7536)" fill="#fff"/><path d="M3.734-8.336a2.626,2.626,0,0,1-.41,1.461A2.987,2.987,0,0,1,2.2-5.859,3.287,3.287,0,0,1,3.484-4.77a2.812,2.812,0,0,1,.477,1.637A2.977,2.977,0,0,1,2.91-.727,4.364,4.364,0,0,1,.016.156,4.443,4.443,0,0,1-2.906-.73a2.956,2.956,0,0,1-1.07-2.4A2.848,2.848,0,0,1-3.508-4.75,3.187,3.187,0,0,1-2.18-5.859,3,3,0,0,1-3.32-6.875a2.608,2.608,0,0,1-.414-1.461A2.919,2.919,0,0,1-2.727-10.68a4.051,4.051,0,0,1,2.719-.859,4.076,4.076,0,0,1,2.734.859A2.919,2.919,0,0,1,3.734-8.336ZM1.32-3.344A1.5,1.5,0,0,0,.957-4.426,1.265,1.265,0,0,0,0-4.8a1.278,1.278,0,0,0-.961.379,1.492,1.492,0,0,0-.367,1.082A1.5,1.5,0,0,0-.957-2.27a1.274,1.274,0,0,0,.973.395,1.224,1.224,0,0,0,.945-.391A1.532,1.532,0,0,0,1.32-3.344ZM-.008-9.508a.973.973,0,0,0-.809.348,1.509,1.509,0,0,0-.277.965,1.6,1.6,0,0,0,.281.984.97.97,0,0,0,.828.375.931.931,0,0,0,.809-.375,1.65,1.65,0,0,0,.27-.984,1.512,1.512,0,0,0-.277-.961A.986.986,0,0,0-.008-9.508Z" transform="translate(1209 7614)" fill="#fff"/><path d="M1.25-4.4a2.781,2.781,0,0,1-1.906.766A3.078,3.078,0,0,1-3.109-4.68a4.124,4.124,0,0,1-.906-2.8,4.2,4.2,0,0,1,.508-2.031,3.81,3.81,0,0,1,1.426-1.484,3.887,3.887,0,0,1,2.027-.547,3.774,3.774,0,0,1,2.035.566A3.814,3.814,0,0,1,3.4-9.371a5.5,5.5,0,0,1,.523,2.387v1.008a6.838,6.838,0,0,1-.738,3.266A5.1,5.1,0,0,1,1.078-.586,6.579,6.579,0,0,1-2.109.156h-.164V-1.953l.5-.008Q.945-2.094,1.25-4.4ZM.055-5.531a1.282,1.282,0,0,0,1.234-.742V-7.367A2.844,2.844,0,0,0,.922-8.984,1.152,1.152,0,0,0-.07-9.508,1.088,1.088,0,0,0-1-8.914a2.638,2.638,0,0,0-.375,1.438A2.365,2.365,0,0,0-.992-6.059,1.224,1.224,0,0,0,.055-5.531Z" transform="translate(1209 7714)" fill="#fff"/><path d="M-1.617-4.445H-.461v2.031H-1.617V0H-4.25V-2.414h-4.4L-8.8-4.023l4.555-7.328v-.023h2.633Zm-4.68,0H-4.25v-3.5l-.164.266ZM8.633,0H.7V-1.719L4.352-5.562A4.364,4.364,0,0,0,5.7-8.008a1.7,1.7,0,0,0-.32-1.117,1.144,1.144,0,0,0-.93-.383A1.158,1.158,0,0,0,3.477-9,2.1,2.1,0,0,0,3.1-7.719H.461A3.736,3.736,0,0,1,.984-9.652a3.671,3.671,0,0,1,1.453-1.387,4.317,4.317,0,0,1,2.078-.5,4.246,4.246,0,0,1,2.84.852,3.04,3.04,0,0,1,1,2.445A3.551,3.551,0,0,1,8.1-6.934,5.739,5.739,0,0,1,7.324-5.6a19.581,19.581,0,0,1-1.7,1.871l-1.469,1.7H8.633Z" transform="translate(1209 7577)" fill="#fff"/><path d="M-1.617-4.445H-.461v2.031H-1.617V0H-4.25V-2.414h-4.4L-8.8-4.023l4.555-7.328v-.023h2.633Zm-4.68,0H-4.25v-3.5l-.164.266ZM3.1-6.789H4.344A1.291,1.291,0,0,0,5.82-8.234a1.25,1.25,0,0,0-.352-.918,1.333,1.333,0,0,0-.992-.355,1.427,1.427,0,0,0-.91.3.93.93,0,0,0-.387.758H.547a2.7,2.7,0,0,1,.5-1.6,3.3,3.3,0,0,1,1.387-1.1,4.741,4.741,0,0,1,1.949-.395,4.658,4.658,0,0,1,2.984.867A2.883,2.883,0,0,1,8.453-8.289,2.4,2.4,0,0,1,8-6.9,3.2,3.2,0,0,1,6.7-5.844a3.058,3.058,0,0,1,1.422,1A2.623,2.623,0,0,1,8.633-3.2,2.935,2.935,0,0,1,7.461-.758,4.864,4.864,0,0,1,4.383.156,5.045,5.045,0,0,1,2.309-.27,3.25,3.25,0,0,1,.859-1.449,3.067,3.067,0,0,1,.367-3.164H3.016a1.185,1.185,0,0,0,.422.906,1.489,1.489,0,0,0,1.039.383,1.56,1.56,0,0,0,1.109-.387A1.293,1.293,0,0,0,6-3.25a1.511,1.511,0,0,0-.43-1.219,1.8,1.8,0,0,0-1.187-.359H3.1Z" transform="translate(1262 7692)" fill="#fff"/><path d="M-.633,0H-8.57V-1.719l3.656-3.844A4.364,4.364,0,0,0-3.562-8.008a1.7,1.7,0,0,0-.32-1.117,1.144,1.144,0,0,0-.93-.383A1.158,1.158,0,0,0-5.789-9a2.1,2.1,0,0,0-.375,1.277H-8.8a3.736,3.736,0,0,1,.523-1.934,3.671,3.671,0,0,1,1.453-1.387,4.317,4.317,0,0,1,2.078-.5,4.246,4.246,0,0,1,2.84.852,3.04,3.04,0,0,1,1,2.445,3.551,3.551,0,0,1-.25,1.309A5.739,5.739,0,0,1-1.941-5.6a19.581,19.581,0,0,1-1.7,1.871l-1.469,1.7H-.633ZM8.633,0H.7V-1.719L4.352-5.562A4.364,4.364,0,0,0,5.7-8.008a1.7,1.7,0,0,0-.32-1.117,1.144,1.144,0,0,0-.93-.383A1.158,1.158,0,0,0,3.477-9,2.1,2.1,0,0,0,3.1-7.719H.461A3.736,3.736,0,0,1,.984-9.652a3.671,3.671,0,0,1,1.453-1.387,4.317,4.317,0,0,1,2.078-.5,4.246,4.246,0,0,1,2.84.852,3.04,3.04,0,0,1,1,2.445A3.551,3.551,0,0,1,8.1-6.934,5.739,5.739,0,0,1,7.324-5.6a19.581,19.581,0,0,1-1.7,1.871l-1.469,1.7H8.633Z" transform="translate(1300 7847)" fill="#fff"/><path d="M-1.617-4.445H-.461v2.031H-1.617V0H-4.25V-2.414h-4.4L-8.8-4.023l4.555-7.328v-.023h2.633Zm-4.68,0H-4.25v-3.5l-.164.266ZM6.531,0H3.891V-8.406L1.3-7.648v-2l4.992-1.727h.242Z" transform="translate(1247 7883)" fill="#fff"/><path d="M-.633,0H-8.57V-1.719l3.656-3.844A4.364,4.364,0,0,0-3.562-8.008a1.7,1.7,0,0,0-.32-1.117,1.144,1.144,0,0,0-.93-.383A1.158,1.158,0,0,0-5.789-9a2.1,2.1,0,0,0-.375,1.277H-8.8a3.736,3.736,0,0,1,.523-1.934,3.671,3.671,0,0,1,1.453-1.387,4.317,4.317,0,0,1,2.078-.5,4.246,4.246,0,0,1,2.84.852,3.04,3.04,0,0,1,1,2.445,3.551,3.551,0,0,1-.25,1.309A5.739,5.739,0,0,1-1.941-5.6a19.581,19.581,0,0,1-1.7,1.871l-1.469,1.7H-.633ZM6.531,0H3.891V-8.406L1.3-7.648v-2l4.992-1.727h.242Z" transform="translate(1300 7920)" fill="#fff"/><path d="M-3.781-5.562l.7-5.812H3.563v2.047H-.945L-1.2-7.07a3.114,3.114,0,0,1,.738-.289A3.382,3.382,0,0,1,.43-7.484a3.337,3.337,0,0,1,2.605,1,4.044,4.044,0,0,1,.91,2.816,4.037,4.037,0,0,1-.488,1.98A3.356,3.356,0,0,1,2.086-.32,4.329,4.329,0,0,1,0,.156,4.654,4.654,0,0,1-2.008-.285,3.6,3.6,0,0,1-3.477-1.5,2.944,2.944,0,0,1-4-3.234h2.641a1.5,1.5,0,0,0,.4.992,1.263,1.263,0,0,0,.945.367q1.328,0,1.328-1.969,0-1.82-1.625-1.82a1.62,1.62,0,0,0-1.375.594Z" transform="translate(1300 7883)" fill="#fff"/><path d="M-2.734,0H-5.375V-8.406l-2.594.758v-2l4.992-1.727h.242ZM3.1-6.789H4.344A1.291,1.291,0,0,0,5.82-8.234a1.25,1.25,0,0,0-.352-.918,1.333,1.333,0,0,0-.992-.355,1.427,1.427,0,0,0-.91.3.93.93,0,0,0-.387.758H.547a2.7,2.7,0,0,1,.5-1.6,3.3,3.3,0,0,1,1.387-1.1,4.741,4.741,0,0,1,1.949-.395,4.658,4.658,0,0,1,2.984.867A2.883,2.883,0,0,1,8.453-8.289,2.4,2.4,0,0,1,8-6.9,3.2,3.2,0,0,1,6.7-5.844a3.058,3.058,0,0,1,1.422,1A2.623,2.623,0,0,1,8.633-3.2,2.935,2.935,0,0,1,7.461-.758,4.864,4.864,0,0,1,4.383.156,5.045,5.045,0,0,1,2.309-.27,3.25,3.25,0,0,1,.859-1.449,3.067,3.067,0,0,1,.367-3.164H3.016a1.185,1.185,0,0,0,.422.906,1.489,1.489,0,0,0,1.039.383,1.56,1.56,0,0,0,1.109-.387A1.293,1.293,0,0,0,6-3.25a1.511,1.511,0,0,0-.43-1.219,1.8,1.8,0,0,0-1.187-.359H3.1Z" transform="translate(1158 7577)" fill="#fff"/><path d="M-6.164-6.789h1.242A1.291,1.291,0,0,0-3.445-8.234,1.25,1.25,0,0,0-3.8-9.152a1.333,1.333,0,0,0-.992-.355,1.427,1.427,0,0,0-.91.3.93.93,0,0,0-.387.758H-8.719a2.7,2.7,0,0,1,.5-1.6,3.3,3.3,0,0,1,1.387-1.1,4.741,4.741,0,0,1,1.949-.395,4.658,4.658,0,0,1,2.984.867A2.883,2.883,0,0,1-.812-8.289,2.4,2.4,0,0,1-1.262-6.9,3.2,3.2,0,0,1-2.57-5.844a3.058,3.058,0,0,1,1.422,1A2.623,2.623,0,0,1-.633-3.2,2.935,2.935,0,0,1-1.8-.758,4.864,4.864,0,0,1-4.883.156,5.045,5.045,0,0,1-6.957-.27a3.25,3.25,0,0,1-1.449-1.18A3.067,3.067,0,0,1-8.9-3.164H-6.25a1.185,1.185,0,0,0,.422.906,1.489,1.489,0,0,0,1.039.383A1.56,1.56,0,0,0-3.68-2.262a1.293,1.293,0,0,0,.414-.988A1.511,1.511,0,0,0-3.7-4.469a1.8,1.8,0,0,0-1.187-.359H-6.164ZM7.648-4.445H8.8v2.031H7.648V0H5.016V-2.414H.617L.461-4.023l4.555-7.328v-.023H7.648Zm-4.68,0H5.016v-3.5l-.164.266Z" transform="translate(797 7455)" fill="#fff"/><path d="M-1.617-4.445H-.461v2.031H-1.617V0H-4.25V-2.414h-4.4L-8.8-4.023l4.555-7.328v-.023h2.633Zm-4.68,0H-4.25v-3.5l-.164.266ZM.852-5.562l.7-5.812H8.2v2.047H3.688L3.43-7.07a3.114,3.114,0,0,1,.738-.289,3.382,3.382,0,0,1,.895-.125,3.337,3.337,0,0,1,2.605,1,4.044,4.044,0,0,1,.91,2.816,4.037,4.037,0,0,1-.488,1.98A3.356,3.356,0,0,1,6.719-.32,4.329,4.329,0,0,1,4.633.156,4.654,4.654,0,0,1,2.625-.285,3.6,3.6,0,0,1,1.156-1.5,2.944,2.944,0,0,1,.633-3.234H3.273a1.5,1.5,0,0,0,.4.992,1.263,1.263,0,0,0,.945.367q1.328,0,1.328-1.969,0-1.82-1.625-1.82a1.62,1.62,0,0,0-1.375.594Z" transform="translate(796 7418)" fill="#fff"/></g></svg>