<svg xmlns="http://www.w3.org/2000/svg" xmlns:xlink="http://www.w3.org/1999/xlink" width="508.51" height="501.212" viewBox="0 0 508.51 501.212"><defs><clipPath id="a"><circle cx="222.928" cy="222.928" r="222.928" transform="translate(-259.97 -1293.322)" fill="none"/></clipPath><linearGradient id="b" x1="0.5" x2="0.5" y2="1" gradientUnits="objectBoundingBox"><stop offset="0" stop-color="#fff"/><stop offset="0.71" stop-color="#fff" stop-opacity="0.914"/><stop offset="1" stop-color="#fff" stop-opacity="0"/></linearGradient></defs><g transform="translate(-809.484 -1002.484)"><g transform="translate(1096.408 2324.887)"><g clip-path="url(#a)"><circle cx="222.928" cy="222.928" r="222.928" transform="translate(-259.97 -1293.322)" fill="#dcb5c7" opacity="0.3"/><g opacity="0.5" style="mix-blend-mode:multiply;isolation:isolate"><rect width="51.067" height="22.209" transform="translate(113.232 -1100.366)" fill="#dcb5c7"/><rect width="51.067" height="22.209" transform="translate(168.289 -1100.366)" fill="#dcb5c7"/><rect width="51.067" height="22.209" transform="translate(140.411 -1074.105)" fill="#dcb5c7"/><rect width="51.067" height="22.209" transform="translate(193.822 -1124.774)" fill="#dcb5c7"/></g><g opacity="0.5" style="mix-blend-mode:multiply;isolation:isolate"><rect width="51.067" height="22.209" transform="translate(-284.994 -1007.521)" fill="#dcb5c7"/><rect width="51.067" height="22.209" transform="translate(-229.938 -1007.521)" fill="#dcb5c7"/><rect width="51.067" height="22.209" transform="translate(-257.815 -981.26)" fill="#dcb5c7"/><rect width="51.067" height="22.209" transform="translate(-204.404 -1031.928)" fill="#dcb5c7"/></g><path d="M-127.937-1087.359a3.906,3.906,0,0,1-3.906,3.906,3.905,3.905,0,0,1-3.9-3.906,3.9,3.9,0,0,1,3.9-3.905A3.905,3.905,0,0,1-127.937-1087.359Z" fill="#fff"/></g><ellipse cx="219.74" cy="215.19" rx="219.74" ry="215.19" transform="matrix(0.111, -0.994, 0.994, 0.111, -286.408, -885.141)" fill="none" stroke="#e76278" stroke-miterlimit="10" stroke-width="0.934" stroke-dasharray="2.803"/><ellipse cx="218.674" cy="224.694" rx="218.674" ry="224.694" transform="translate(-274.247 -871.774) rotate(-83.605)" fill="none" stroke="#493063" stroke-miterlimit="10" stroke-width="0.952" stroke-dasharray="2.857" opacity="0.4"/></g><circle cx="182" cy="182" r="182" transform="translate(1246 1434) rotate(180)" fill="url(#b)"/><g transform="translate(1104.294 2342.228)"><g transform="translate(-179.923 -1201.408)"><g transform="translate(0 10.877)"><path d="M-49.123-917.541a4.141,4.141,0,0,1-2.631-.712c-.923.674-1.743.648-3.938.581-.968-.031-2.236-.071-3.955-.071-2.145,0-3.532-.424-4.239-1.3a3.175,3.175,0,0,1-.365-2.813,3.873,3.873,0,0,0,.083-.46A11.693,11.693,0,0,1-62.01-926.6a8.806,8.806,0,0,0,1.065-3.328,7.438,7.438,0,0,1,.631-2.241c.692-1.153.582-1.9.009-4.854-.2-1.045-.455-2.343-.717-3.988a54.955,54.955,0,0,0-2.952-9.536c-3.1-8.37-7.334-19.834-5.178-34.5.186-1.266.281-3.562.364-5.589.058-1.408.113-2.739.193-3.693a33.464,33.464,0,0,1,.751-4.962,12.452,12.452,0,0,0,.181-5.275,19.283,19.283,0,0,1-.043-2.969,22.509,22.509,0,0,0-.209-4.875,98.036,98.036,0,0,1-1.164-20.554c.044-2.065.09-4.2.07-6.351-.155-16.739,1.369-22.407,2.712-27.409.225-.836.443-1.648.646-2.488a23.834,23.834,0,0,1,1.294-3.9,14.413,14.413,0,0,0,1-3.171,42.755,42.755,0,0,0,.668-7.607c.055-2.106.124-4.728.467-8.489.365-3.989-.447-7.855-1.386-12.332a90.842,90.842,0,0,1-1.66-9.729,27.461,27.461,0,0,0-3.375-10.3,27.746,27.746,0,0,1-1.321-2.907c-1.245-3.036-2.419-5.9-5.662-6.053a12.218,12.218,0,0,0-3.668.455c-2.211.519-4.964,1.164-11.606.279a79.755,79.755,0,0,0-16.09-.743c-16.566,1.112-24.433-1.444-31.372-3.7a54.548,54.548,0,0,0-10.238-2.591,3.845,3.845,0,0,0-2.376.16,15.392,15.392,0,0,1-1.89.554,25.34,25.34,0,0,1-4.631.453c-2.407.092-4.9.187-6.963,1.21l-.245.121c-2.575,1.279-5,2.38-6.322,1.813a1.452,1.452,0,0,1-.839-.931c-.577-1.857,1.574-2.69,3.145-3.3.424-.163.843-.325,1.209-.5.467-.223.909-.4,1.309-.564a5.8,5.8,0,0,0,1.343-.657,13.68,13.68,0,0,0-1.474.4,33.235,33.235,0,0,1-3.808.964l-.755.159c-.311.066-.627.144-.936.221-1.64.409-3.684.915-4.307-1.051a1.212,1.212,0,0,1,.11-.984c.631-1.119,3.1-1.789,6.794-2.686l.435-.1c-.439.022-.866.048-1.226.07-.59.036-1.165.072-1.674.091a22.734,22.734,0,0,0-2.3.241,6.157,6.157,0,0,1-3.563-.124,1.627,1.627,0,0,1-.975-1.7c.14-1.036,1.226-1.9,2.764-2.207a34.23,34.23,0,0,1,6-.538c.306-.009.639.013,1.015.03.481.02,1.3.054,1.9.015a27.785,27.785,0,0,0-3.373-.4c-2.8-.222-5.45-.431-6.3-1.675a1.625,1.625,0,0,1-.2-1.43c.584-1.943,4.167-1.635,8.441-1.072l.2.025c.492.065.952.138,1.4.208a15.3,15.3,0,0,0,6.665-.106c1.217-.266,1.4-.549,1.4-.552-.073-.309-1.306-1.127-1.77-1.435l-.326-.218c-1.945-1.318-2.675-2.885-2.168-4.657a1.815,1.815,0,0,1,1.127-1.38c.981-.3,1.978.523,3.239,1.571a11.489,11.489,0,0,0,3.289,2.164c1.724.584,2.433,1.906,3.119,3.184.1.188.2.378.31.57a8.685,8.685,0,0,0,4.523,3.6l.288.078a13.529,13.529,0,0,0,3.673.665,153.388,153.388,0,0,0,17.144-1.09,38.048,38.048,0,0,1,12.522.159c1.429.212,2.624.457,3.779.693,4.186.856,7.492,1.532,17.881-.354,1.079-.2,2.156-.4,3.235-.609,5.13-.982,10.437-2,15.764-1.841,3.843.113,4.341-.068,5.239-.4a13.555,13.555,0,0,1,1.7-.516,15.1,15.1,0,0,1,3.611-.237,15.973,15.973,0,0,0,9.709-2.367c2.45-1.518,2.988-3.457,3.734-6.14l.277-.985a.729.729,0,0,1,.9-.5.73.73,0,0,1,.5.9l-.273.972c-.771,2.775-1.437,5.171-4.372,6.991a17.424,17.424,0,0,1-10.5,2.586,13.853,13.853,0,0,0-3.258.2,12.164,12.164,0,0,0-1.535.466c-1.149.419-1.825.6-5.783.482-5.169-.152-10.393.848-15.446,1.816-1.084.207-2.167.415-3.249.61-10.667,1.938-14.094,1.236-18.435.35-1.136-.233-2.312-.474-3.7-.68a36.911,36.911,0,0,0-12.138-.152,154.632,154.632,0,0,1-17.288,1.1,15.062,15.062,0,0,1-4.079-.715l-.286-.078a10.07,10.07,0,0,1-5.419-4.294q-.166-.3-.322-.592c-.627-1.169-1.123-2.093-2.3-2.491a12.548,12.548,0,0,1-3.756-2.426,6.667,6.667,0,0,0-1.876-1.295h0a2.3,2.3,0,0,0-.15.383c-.221.77-.24,1.811,1.583,3.046l.313.21c1.166.774,2.616,1.737,2.388,2.95-.2,1.057-1.53,1.466-2.514,1.681a16.729,16.729,0,0,1-7.206.122c-.434-.069-.881-.14-1.359-.2l-.2-.026c-5.724-.752-6.749-.3-6.851.045-.037.123-.012.159,0,.185.458.667,3.319.893,5.211,1.042,2.769.219,4.366.381,5.007,1.174a1.183,1.183,0,0,1,.263.919c-.18,1.368-2.108,1.285-3.973,1.2-.35-.015-.667-.033-.949-.03a32.749,32.749,0,0,0-5.72.511c-1.029.2-1.564.7-1.6.972-.009.064.053.129.184.195a5.458,5.458,0,0,0,2.7-.017,23.94,23.94,0,0,1,2.443-.253c.5-.02,1.063-.055,1.641-.09,3.037-.185,4.429-.21,5.018.328a.942.942,0,0,1,.313.67c.027.913-1.015,1.166-4.105,1.916-1.718.416-5.229,1.268-5.814,1.914.205.424.764.406,2.521-.031.325-.081.656-.163.985-.233l.759-.16a31.6,31.6,0,0,0,3.668-.927c1.5-.472,2.526-.741,3.149-.2a1.235,1.235,0,0,1,.353,1.218c-.188,1.093-1.206,1.5-2.383,1.982-.376.152-.792.32-1.231.528-.4.188-.848.365-1.308.543-1.341.52-2.437.991-2.278,1.5.28.225,1.395.09,5.116-1.759l.246-.121c2.348-1.163,4.995-1.264,7.555-1.361a24.381,24.381,0,0,0,4.361-.417,14.154,14.154,0,0,0,1.728-.507,5.19,5.19,0,0,1,3.051-.23,55.662,55.662,0,0,1,10.5,2.649c6.812,2.214,14.532,4.723,30.823,3.629a81.477,81.477,0,0,1,16.381.753c6.377.851,8.984.239,11.079-.252a13.5,13.5,0,0,1,4.068-.492c4.174.191,5.647,3.787,6.946,6.959a26.37,26.37,0,0,0,1.247,2.749,28.98,28.98,0,0,1,3.552,10.863A89.672,89.672,0,0,0-62.18-1105c.924,4.4,1.8,8.557,1.412,12.766-.339,3.713-.405,6.2-.462,8.395a44.527,44.527,0,0,1-.692,7.837,15.818,15.818,0,0,1-1.085,3.458,22.192,22.192,0,0,0-1.225,3.682c-.2.853-.426,1.678-.655,2.528-1.318,4.911-2.814,10.476-2.662,27.016.02,2.172-.026,4.32-.07,6.4a96.794,96.794,0,0,0,1.141,20.271,23.67,23.67,0,0,1,.231,5.178,17.818,17.818,0,0,0,.033,2.739,13.77,13.77,0,0,1-.2,5.767,32.182,32.182,0,0,0-.721,4.77c-.077.925-.132,2.239-.189,3.631-.09,2.164-.182,4.4-.378,5.743-2.1,14.292,1.893,25.1,5.1,33.776a56,56,0,0,1,3.025,9.813c.259,1.619.508,2.905.709,3.939.577,2.976.815,4.207-.19,5.884a7.4,7.4,0,0,0-.448,1.759,9.611,9.611,0,0,1-1.335,3.938,11.6,11.6,0,0,0-1.869,3.522,5.347,5.347,0,0,1-.11.646c-.143.676-.228,1.224.07,1.592.229.282.936.755,3.1.755,1.739,0,3.022.04,4,.071,2.062.063,2.569.066,3.121-.3a1.434,1.434,0,0,1,1.8.15,4.615,4.615,0,0,0,2.64.176c.841-.195,1.366-1.731,1.331-3.043a5.827,5.827,0,0,0-.267-1.165,8.257,8.257,0,0,1-.453-3.277,7.843,7.843,0,0,0-.513-2.788,9.638,9.638,0,0,1-.581-4.529,7.816,7.816,0,0,0-.307-3.967,53.929,53.929,0,0,1-1.552-10.777,90.409,90.409,0,0,1,.376-13.1c.332-4.164.621-7.761.071-10.6a53.464,53.464,0,0,1-.967-14.949,31.445,31.445,0,0,1,1.266-6.68,56.649,56.649,0,0,0,2.122-19.137c-.138-2.985.934-7.385,2.291-12.954,1.991-8.175,4.47-18.349,4.807-30.141a.739.739,0,0,1,.751-.709.73.73,0,0,1,.709.751c-.342,11.946-2.946,22.637-4.848,30.443-1.329,5.456-2.378,9.766-2.251,12.542a57.945,57.945,0,0,1-2.168,19.575,30.3,30.3,0,0,0-1.219,6.371,52.1,52.1,0,0,0,.941,14.608c.588,3.031.292,6.72-.05,10.991a89.4,89.4,0,0,0-.374,12.894,52.514,52.514,0,0,0,1.512,10.519,9.148,9.148,0,0,1,.322,4.592,8.453,8.453,0,0,0,.546,3.837,8.737,8.737,0,0,1,.565,3.371,6.994,6.994,0,0,0,.4,2.7,6.412,6.412,0,0,1,.323,1.531c.054,1.943-.775,4.116-2.459,4.505A6.146,6.146,0,0,1-49.123-917.541Z" transform="translate(178.551 1186.281)" fill="#35190f"/><path d="M-40.651-1161.877a.725.725,0,0,1-.449-.156,10.253,10.253,0,0,1-3.407-5.061,8.222,8.222,0,0,1-.246-1.182,3.867,3.867,0,0,0-.521-1.724,3.464,3.464,0,0,0-.5-.348c-.179-.11-.356-.222-.524-.349-1.351-1.035-1.468-1.538-1.667-3.126-.022-.167-.077-.4-.145-.682-.448-1.9-.809-3.831.1-4.763a1.677,1.677,0,0,1,1.13-.527c-.078-1.173-.228-3.854-.205-6.808a.731.731,0,0,1,.731-.724h.006a.73.73,0,0,1,.724.736c-.031,3.877.242,7.27.245,7.3a.7.7,0,0,1-.011.195c-.059.315-.289.844-1.189.761-.251-.019-.294-.011-.382.08-.282.29-.189,1.437.276,3.412.083.354.147.636.167.8.179,1.422.185,1.475,1.112,2.184a4.68,4.68,0,0,0,.4.265,4.785,4.785,0,0,1,.717.511,4.373,4.373,0,0,1,.978,2.572,7.484,7.484,0,0,0,.2.967,8.826,8.826,0,0,0,2.916,4.358.73.73,0,0,1,.126,1.025A.73.73,0,0,1-40.651-1161.877Z" transform="translate(172.749 1187.327)" fill="#35190f"/><g transform="translate(131.358 23.987)"><path d="M-33.023-1157.409a7.641,7.641,0,0,1-3.733-.968c-.735-.413-1.44-.859-2.123-1.291-.345-.219-.683-.432-1.012-.633a9.186,9.186,0,0,1-.885-.613.73.73,0,0,1-.123-1.025.729.729,0,0,1,1.025-.123,7.711,7.711,0,0,0,.744.515c.335.205.679.423,1.032.646.666.422,1.355.858,2.056,1.25a6.207,6.207,0,0,0,6.036,0c.7-.393,1.389-.828,2.055-1.25.353-.223.7-.442,1.033-.647a7.907,7.907,0,0,0,.739-.511.729.729,0,0,1,1.025.125.731.731,0,0,1-.126,1.025,9.472,9.472,0,0,1-.876.608c-.331.2-.669.416-1.015.634-.682.431-1.386.878-2.121,1.29A7.644,7.644,0,0,1-33.023-1157.409Z" transform="translate(41.054 1162.219)" fill="#35190f"/></g></g><g transform="translate(147.767 32.924)"><path d="M-6.3-1113.791a.662.662,0,0,1-.075,0,.73.73,0,0,1-.653-.8,28.99,28.99,0,0,1,3.553-10.863,25.984,25.984,0,0,0,1.245-2.749c1.3-3.172,2.773-6.768,6.948-6.959a13.472,13.472,0,0,1,4.068.492c2.093.492,4.7,1.105,11.077.252a81.381,81.381,0,0,1,16.383-.753c16.289,1.095,24.009-1.415,30.822-3.63a55.736,55.736,0,0,1,10.5-2.649,5.212,5.212,0,0,1,3.051.23,13.884,13.884,0,0,0,1.728.507,24.222,24.222,0,0,0,4.362.417c2.559.1,5.206.2,7.554,1.362l.248.122c3.718,1.847,4.832,1.979,5.112,1.769.161-.524-.935-1-2.277-1.515-.459-.178-.912-.354-1.309-.543-.439-.208-.854-.376-1.23-.529-1.177-.477-2.194-.888-2.383-1.98a1.236,1.236,0,0,1,.353-1.219c.622-.544,1.653-.273,3.15.2a31.726,31.726,0,0,0,3.662.926l.763.161c.329.07.659.152.986.233,1.755.436,2.316.455,2.521.031-.587-.647-4.1-1.5-5.814-1.914-3.09-.75-4.132-1-4.105-1.916a.94.94,0,0,1,.313-.67c.589-.539,1.98-.514,5.02-.328.577.035,1.139.07,1.637.09a24.191,24.191,0,0,1,2.443.253,5.458,5.458,0,0,0,2.7.017c.132-.066.194-.132.184-.195-.035-.271-.57-.767-1.6-.972a32.722,32.722,0,0,0-5.72-.511c-.261.025-.6.014-.946.029-1.868.082-3.8.164-3.976-1.2a1.184,1.184,0,0,1,.263-.919c.642-.792,2.238-.954,5.006-1.173,1.894-.149,4.755-.375,5.212-1.042.018-.027.042-.062,0-.185-.1-.34-1.131-.8-6.851-.045l-.2.026c-.477.063-.923.134-1.358.2a16.733,16.733,0,0,1-7.207-.122c-.984-.216-2.316-.624-2.514-1.681-.226-1.214,1.224-2.177,2.39-2.951l.311-.209c1.823-1.235,1.8-2.277,1.583-3.046a.9.9,0,0,0-.182-.4h0a7.589,7.589,0,0,0-1.844,1.311,12.556,12.556,0,0,1-3.756,2.426c-1.178.4-1.674,1.321-2.3,2.491-.1.194-.21.393-.321.592a10.072,10.072,0,0,1-5.42,4.294l-.279.076a15.233,15.233,0,0,1-4.086.717,154.9,154.9,0,0,1-17.288-1.1,36.908,36.908,0,0,0-12.138.152c-1.39.206-2.566.447-3.7.68-4.339.887-7.767,1.588-18.434-.35-1.081-.2-2.165-.4-3.248-.61-5.052-.967-10.269-1.965-15.447-1.816-3.956.115-4.634-.063-5.783-.482a12.164,12.164,0,0,0-1.535-.466,13.736,13.736,0,0,0-3.258-.2,17.411,17.411,0,0,1-10.495-2.587c-3.157-1.957-4-4.9-4.9-8.023l-.078-.273a.732.732,0,0,1,.5-.9.729.729,0,0,1,.9.5l.079.273c.886,3.088,1.587,5.526,4.265,7.185a15.945,15.945,0,0,0,9.709,2.368,15.129,15.129,0,0,1,3.611.237,13.555,13.555,0,0,1,1.7.516c.9.328,1.395.508,5.239.4,5.338-.159,10.635.858,15.764,1.841,1.08.206,2.157.413,3.235.609,10.39,1.887,13.7,1.209,17.88.354,1.156-.237,2.352-.481,3.781-.693a38.021,38.021,0,0,1,12.522-.159,153.2,153.2,0,0,0,17.143,1.089,14.139,14.139,0,0,0,3.681-.666l.281-.075a8.687,8.687,0,0,0,4.524-3.6c.107-.192.209-.382.31-.57.684-1.278,1.394-2.6,3.118-3.184a11.485,11.485,0,0,0,3.291-2.165c1.259-1.047,2.257-1.874,3.237-1.57a1.811,1.811,0,0,1,1.126,1.38c.507,1.771-.222,3.338-2.167,4.657l-.324.216c-.461.307-1.683,1.118-1.759,1.489a3.355,3.355,0,0,0,1.386.5,15.338,15.338,0,0,0,6.666.106c.447-.071.907-.143,1.4-.208l.2-.025c4.27-.565,7.857-.872,8.441,1.072a1.622,1.622,0,0,1-.2,1.43c-.851,1.244-3.5,1.453-6.3,1.675a27.656,27.656,0,0,0-3.374.4c.6.041,1.421.006,1.9-.015.375-.016.712-.036,1.012-.031a34.318,34.318,0,0,1,6,.539c1.538.3,2.623,1.171,2.764,2.207a1.625,1.625,0,0,1-.975,1.7,6.161,6.161,0,0,1-3.562.124,22.754,22.754,0,0,0-2.3-.241c-.507-.019-1.081-.054-1.67-.091-.362-.022-.79-.048-1.23-.071l.435.106c3.7.9,6.165,1.567,6.795,2.685a1.214,1.214,0,0,1,.11.985c-.624,1.967-2.667,1.46-4.308,1.051-.31-.076-.624-.155-.936-.221l-.76-.16a33.393,33.393,0,0,1-3.8-.963,14.377,14.377,0,0,0-1.437-.394,5.319,5.319,0,0,0,1.305.65c.4.162.842.341,1.309.564.365.174.784.335,1.209.5,1.571.609,3.723,1.442,3.145,3.3a1.451,1.451,0,0,1-.838.931c-1.325.57-3.746-.534-6.321-1.812l-.246-.122c-2.067-1.023-4.555-1.119-6.962-1.211a25.332,25.332,0,0,1-4.631-.453,15.485,15.485,0,0,1-1.891-.553,3.843,3.843,0,0,0-2.376-.16,54.642,54.642,0,0,0-10.238,2.59c-6.938,2.255-14.808,4.811-31.371,3.7a79.682,79.682,0,0,0-16.091.743c-6.639.886-9.393.24-11.606-.279a12.16,12.16,0,0,0-3.668-.455c-3.242.149-4.419,3.017-5.661,6.054a27.629,27.629,0,0,1-1.322,2.906,27.472,27.472,0,0,0-3.375,10.3A.73.73,0,0,1-6.3-1113.791Z" transform="translate(23.879 1164.25)" fill="#35190f"/></g><path d="M-69.529-1130.6a.73.73,0,0,1-.684-.474c-2.317-6.172-3.7-8.08-5.033-9.924-.4-.548-.806-1.115-1.222-1.774-.911-1.447-5.25-3.038-9.077-4.441a52.313,52.313,0,0,1-7.325-3.065,31.052,31.052,0,0,0-4.105-2.01c-.707-.3-1.487-.626-2.512-1.1-1.008-.47-1.976-1.044-2.912-1.6a15.947,15.947,0,0,0-5.569-2.426c-6.038-.944-13.334-4.07-20.019-8.579a125.255,125.255,0,0,0-13.971-8.094c-1.326-.676-2.373-1.211-3.116-1.656a8.756,8.756,0,0,0-2.72-.949,17.087,17.087,0,0,1-2.257-.637c-4.974-1.86-5.979-2.975-7.369-4.517a20.511,20.511,0,0,0-1.788-1.808c-4.214-3.726-5.215-4.612-4.977-6.2a1.465,1.465,0,0,1,.42-.869c-.381-.336-.846-.747-1.4-1.24-1.28-1.134-.951-2.137-.75-2.516a2.044,2.044,0,0,1,.619-.69,2.455,2.455,0,0,1-.585-.934,2.029,2.029,0,0,1,.221-1.71,1.693,1.693,0,0,1,1.319-.889,2.968,2.968,0,0,1,1.939.7,1.568,1.568,0,0,1,.482-.456c1.111-.677,2.752.134,4.071.785.247.121.471.232.656.313.774.336,2.7,1.368,4.225,2.2a2.027,2.027,0,0,1,.01-.418,2.171,2.171,0,0,1,1.069-1.555c1.108-.719,2.921.462,5.778,2.5a21.267,21.267,0,0,0,2.255,1.491c1.771.855,3.37,3.891,4.4,6.288a6.6,6.6,0,0,1,.346,1.078c.2.8.291,1.171,3.735,2.139,2.192.617,4.639,1.141,7.231,1.695a100.566,100.566,0,0,1,12.041,3.1,40.846,40.846,0,0,1,12.413,7.223,18.852,18.852,0,0,0,3.63,2.5A22.138,22.138,0,0,0-96-1168.073a42.073,42.073,0,0,1,14.426,5.255c1.471.862,1.642.825,2.972.527,10.422-2.327,18.145,2.177,21.857,4.341l.288.167c.122.072.293.187.493.325a5.329,5.329,0,0,0,1.53.837h.009a.708.708,0,0,1,.918.429.751.751,0,0,1-.448.949c-.813.311-1.766-.275-2.837-1.011-.161-.112-.3-.207-.4-.266l-.289-.168c-3.551-2.071-10.943-6.38-20.8-4.178-1.7.379-2.232.361-4.029-.693a40.767,40.767,0,0,0-13.972-5.082,23.074,23.074,0,0,1-4.348-1.136,19.575,19.575,0,0,1-3.966-2.693,39.591,39.591,0,0,0-11.99-6.991,99.559,99.559,0,0,0-11.866-3.052c-2.615-.559-5.084-1.087-7.321-1.717-3.893-1.095-4.4-1.745-4.758-3.193a5.2,5.2,0,0,0-.269-.854c-1.277-2.975-2.658-5.05-3.691-5.549a21.194,21.194,0,0,1-2.468-1.617c-1.159-.825-3.579-2.539-4.192-2.436-.325.223-.351.424-.358.49-.027.2.049.676.845,1.549a.73.73,0,0,1,.033.946.73.73,0,0,1-.929.184c-.049-.028-4.938-2.754-6.216-3.309-.2-.089-.45-.209-.72-.344-.612-.3-2.238-1.106-2.667-.845-.061.037-.135.2-.142.536a.729.729,0,0,1-.475.667.732.732,0,0,1-.8-.194c-.421-.464-1.214-1.092-1.619-1.046-.034,0-.107.011-.207.18a.574.574,0,0,0-.09.51c.141.433.829.849,1.122.972a.731.731,0,0,1,.407.907.73.73,0,0,1-.872.474,1.059,1.059,0,0,0-.794.424c-.083.179.17.492.434.726,1.961,1.737,2.785,2.454,2.787,2.456a.731.731,0,0,1,.11.982.732.732,0,0,1-.969.193,1.7,1.7,0,0,0-.464-.186c-.056.773.729,1.529,4.495,4.86a22.188,22.188,0,0,1,1.907,1.924c1.3,1.441,2.155,2.391,6.8,4.127a15.9,15.9,0,0,0,2.072.582,10.156,10.156,0,0,1,3.144,1.12c.7.419,1.727.944,3.028,1.608a126.444,126.444,0,0,1,14.124,8.185c6.513,4.393,13.594,7.436,19.427,8.346a17.289,17.289,0,0,1,6.088,2.613c.907.537,1.843,1.093,2.785,1.531,1,.467,1.768.789,2.461,1.08a32.5,32.5,0,0,1,4.269,2.092,52.61,52.61,0,0,0,7.1,2.958c4.44,1.628,8.634,3.166,9.811,5.034.39.62.768,1.143,1.168,1.7,1.327,1.833,2.832,3.912,5.217,10.268a.729.729,0,0,1-.426.94A.74.74,0,0,1-69.529-1130.6Z" transform="translate(177.996 1198.713)" fill="#35190f"/><path d="M-146.385-1189.511a.729.729,0,0,1-.524-.221,13.282,13.282,0,0,0-3.911-2.724.729.729,0,0,1-.4-.952.73.73,0,0,1,.952-.4,14.537,14.537,0,0,1,4.4,3.055.729.729,0,0,1-.013,1.033A.727.727,0,0,1-146.385-1189.511Z" transform="translate(177.333 1198.496)" fill="#35190f"/><path d="M-153.568-1190.527a.725.725,0,0,1-.414-.128c-4.626-3.184-8.234-5.323-8.271-5.344a.73.73,0,0,1-.257-1,.731.731,0,0,1,1-.257c.036.021,3.686,2.185,8.356,5.4a.73.73,0,0,1,.187,1.016A.729.729,0,0,1-153.568-1190.527Z" transform="translate(177.839 1198.652)" fill="#35190f"/><path d="M-155.363-1188.118a.729.729,0,0,1-.426-.137c-4.5-3.238-8.215-5.92-8.215-5.92a.73.73,0,0,1-.164-1.019.731.731,0,0,1,1.019-.164s3.713,2.682,8.213,5.918a.732.732,0,0,1,.166,1.019A.729.729,0,0,1-155.363-1188.118Z" transform="translate(177.915 1198.569)" fill="#35190f"/><path d="M-155.937-1185.007a.72.72,0,0,1-.445-.153c-4.343-3.351-5.531-3.805-5.579-3.823a.737.737,0,0,1-.45-.92.724.724,0,0,1,.9-.47c.212.064,1.5.563,6.024,4.057a.73.73,0,0,1,.132,1.024A.725.725,0,0,1-155.937-1185.007Z" transform="translate(177.832 1198.342)" fill="#35190f"/><path d="M.5-1132.47a.735.735,0,0,1-.228-.037.729.729,0,0,1-.465-.921c.123-.375,3.055-9.2,6.832-11.327a59.758,59.758,0,0,1,6.788-2.943,68.171,68.171,0,0,0,8.68-3.841,42.22,42.22,0,0,1,4.616-2.365c.495-.225,1.06-.481,1.764-.808.942-.439,1.878-.995,2.785-1.531a17.294,17.294,0,0,1,6.088-2.613c5.832-.91,12.914-3.953,19.427-8.346a126.27,126.27,0,0,1,14.124-8.185c1.3-.664,2.328-1.188,3.028-1.608a10.143,10.143,0,0,1,3.143-1.12,15.907,15.907,0,0,0,2.073-.582c4.638-1.735,5.5-2.687,6.795-4.126a22.154,22.154,0,0,1,1.906-1.925c3.88-3.43,4.6-4.129,4.5-4.862a1.688,1.688,0,0,0-.473.188.732.732,0,0,1-.969-.193.732.732,0,0,1,.109-.982s.825-.719,2.788-2.456c.264-.234.517-.548.434-.726a1.041,1.041,0,0,0-.8-.422.724.724,0,0,1-.867-.475.735.735,0,0,1,.413-.908c.3-.131.983-.544,1.123-.974a.576.576,0,0,0-.092-.508c-.1-.169-.172-.176-.206-.18-.428-.048-1.21.593-1.617,1.045a.731.731,0,0,1-.8.2.73.73,0,0,1-.477-.668c-.008-.336-.082-.5-.142-.536-.428-.261-2.056.544-2.667.846-.271.134-.516.254-.721.343-1.276.555-6.166,3.282-6.216,3.309a.729.729,0,0,1-.928-.184.728.728,0,0,1,.033-.945c.8-.873.871-1.345.845-1.55-.009-.066-.034-.267-.417-.516-.539-.084-2.975,1.636-4.136,2.463a21.121,21.121,0,0,1-2.466,1.616c-1.033.5-2.413,2.573-3.691,5.549a5.2,5.2,0,0,0-.27.854c-.361,1.448-.864,2.1-4.757,3.193-2.236.63-4.706,1.158-7.322,1.717A99.529,99.529,0,0,0,46.2-1177.46a39.612,39.612,0,0,0-11.992,6.991,19.546,19.546,0,0,1-3.965,2.693,23.074,23.074,0,0,1-4.348,1.136,40.77,40.77,0,0,0-13.973,5.082c-1.8,1.054-2.328,1.072-4.028.693-9.867-2.2-17.252,2.107-20.8,4.177l-.289.169a9.5,9.5,0,0,1-4.582.443.73.73,0,0,1-.423-.942.73.73,0,0,1,.942-.422,9.979,9.979,0,0,0,3.338-.346l.279-.163c3.712-2.165,11.434-6.669,21.857-4.341,1.33.3,1.5.335,2.972-.527a42.06,42.06,0,0,1,14.426-5.255,22.138,22.138,0,0,0,4.064-1.048,18.882,18.882,0,0,0,3.63-2.5,40.834,40.834,0,0,1,12.413-7.223,100.613,100.613,0,0,1,12.041-3.1c2.592-.554,5.04-1.078,7.231-1.695,3.443-.968,3.535-1.336,3.734-2.139a6.692,6.692,0,0,1,.346-1.078c1.031-2.4,2.629-5.434,4.4-6.288a21.309,21.309,0,0,0,2.255-1.491c2.856-2.033,4.674-3.216,5.778-2.5a2.169,2.169,0,0,1,1.069,1.554,2.107,2.107,0,0,1,.01.418c1.529-.835,3.451-1.867,4.225-2.2.185-.08.409-.191.655-.313,1.319-.651,2.958-1.463,4.072-.785a1.568,1.568,0,0,1,.481.456,2.966,2.966,0,0,1,1.938-.7,1.693,1.693,0,0,1,1.32.889,2.029,2.029,0,0,1,.221,1.71,2.462,2.462,0,0,1-.585.934,2.043,2.043,0,0,1,.619.69c.2.379.53,1.383-.75,2.516-.556.493-1.021.9-1.4,1.24a1.465,1.465,0,0,1,.42.868c.238,1.586-.763,2.472-4.977,6.2a20.676,20.676,0,0,0-1.789,1.808c-1.39,1.543-2.394,2.657-7.368,4.517a17.087,17.087,0,0,1-2.257.637,8.748,8.748,0,0,0-2.72.949c-.743.445-1.79.98-3.116,1.656a125.26,125.26,0,0,0-13.97,8.094c-6.686,4.509-13.983,7.635-20.02,8.579a15.947,15.947,0,0,0-5.569,2.426c-.936.555-1.9,1.129-2.913,1.6-.708.331-1.278.589-1.777.815a41.085,41.085,0,0,0-4.489,2.3,69,69,0,0,1-8.879,3.937,59.158,59.158,0,0,0-6.6,2.856c-2.725,1.533-5.371,8.106-6.16,10.51A.732.732,0,0,1,.5-1132.47Z" transform="translate(171.395 1198.713)" fill="#35190f"/><path d="M81.062-1189.511a.73.73,0,0,1-.51-.207.73.73,0,0,1-.012-1.033,14.523,14.523,0,0,1,4.4-3.055.731.731,0,0,1,.952.4.73.73,0,0,1-.4.952,13.28,13.28,0,0,0-3.912,2.724A.725.725,0,0,1,81.062-1189.511Z" transform="translate(166.994 1198.496)" fill="#35190f"/><path d="M88.051-1190.527a.729.729,0,0,1-.6-.315.729.729,0,0,1,.188-1.016c4.669-3.214,8.318-5.378,8.355-5.4a.729.729,0,0,1,1,.257.73.73,0,0,1-.257,1c-.035.021-3.645,2.16-8.271,5.344A.726.726,0,0,1,88.051-1190.527Z" transform="translate(166.682 1198.652)" fill="#35190f"/><path d="M89.85-1188.118a.73.73,0,0,1-.594-.3.731.731,0,0,1,.167-1.019c4.5-3.236,8.212-5.918,8.212-5.918a.731.731,0,0,1,1.02.164.73.73,0,0,1-.164,1.019s-3.713,2.683-8.216,5.92A.724.724,0,0,1,89.85-1188.118Z" transform="translate(166.602 1198.569)" fill="#35190f"/><path d="M90.539-1185.007a.727.727,0,0,1-.579-.285.73.73,0,0,1,.132-1.024c4.529-3.495,5.812-3.993,6.024-4.057a.728.728,0,0,1,.912.486.73.73,0,0,1-.468.9c-.081.031-1.3.52-5.575,3.822A.726.726,0,0,1,90.539-1185.007Z" transform="translate(166.571 1198.342)" fill="#35190f"/><path d="M-118.692-935.462a3.508,3.508,0,0,1-1.079-.179,3.034,3.034,0,0,1-2.309-2.038c-1.138.1-1.83-.34-3.677-1.524-.815-.523-1.883-1.209-3.358-2.091-2.1-1.253-3.088-2.251-3.208-3.232a2.214,2.214,0,0,1,.864-1.841,2.709,2.709,0,0,0,.307-.333c.784-1.1,6.016-4.645,7.872-5.638,1.684-.9,2.9-2.369,5.271-8.282a70.379,70.379,0,0,0,2.741-10.821,117.351,117.351,0,0,1,3.87-15.265c2.912-8.265,6.417-12.354,10.476-17.088.628-.732,1.266-1.477,1.917-2.255a33.928,33.928,0,0,0,3.566-5.606,48.233,48.233,0,0,1,2.478-4.187c.629-.914,1.358-1.785,2.064-2.624a16.5,16.5,0,0,0,3.647-5.857c3.347-11.626,6.657-19.67,10.733-26.082a56.775,56.775,0,0,1,7.358-9.574c.764-.826,1.555-1.679,2.42-2.7a36.6,36.6,0,0,0,5.475-9.64.731.731,0,0,1,.935-.438.73.73,0,0,1,.438.935,37.483,37.483,0,0,1-5.734,10.087c-.885,1.046-1.687,1.913-2.462,2.75a55.478,55.478,0,0,0-7.2,9.365c-4,6.289-7.256,14.217-10.562,25.7a17.591,17.591,0,0,1-3.931,6.392c-.715.852-1.389,1.657-1.979,2.514a47.134,47.134,0,0,0-2.4,4.06,34.931,34.931,0,0,1-3.728,5.843c-.654.782-1.3,1.531-1.928,2.268-3.964,4.623-7.387,8.615-10.208,16.622a116.329,116.329,0,0,0-3.818,15.074,71.154,71.154,0,0,1-2.815,11.071c-2.286,5.706-3.673,7.816-5.938,9.026a45.612,45.612,0,0,0-7.371,5.2,4.312,4.312,0,0,1-.466.52c-.272.272-.463.476-.445.628.021.167.262.815,2.509,2.159,1.492.892,2.573,1.586,3.4,2.114,1.734,1.113,2.169,1.378,2.835,1.341a1.431,1.431,0,0,1,1.469,1.053c.043.172.16.628,1.339,1.007.661.212,1.444.25,2.2-1.094a34.639,34.639,0,0,1,2.5-3.68,12.047,12.047,0,0,0,1.315-2.6,14.788,14.788,0,0,1,2.078-3.847,6.385,6.385,0,0,0,1.344-2.8c.492-1.732,1.236-4.351,5.039-10.059a111.346,111.346,0,0,1,7.177-9.314c3.237-3.9,6.032-7.261,7.137-10.3l.632-1.751c2.007-5.574,4.505-12.512,6.846-15.74.686-.946,1.594-2.015,2.644-3.253a102.73,102.73,0,0,0,6.77-8.683,20.386,20.386,0,0,1,2.467-2.766,16.538,16.538,0,0,0,3.394-4.225c1.9-3.83,4.975-7.8,9.233-13.3,3.774-4.869,8.469-10.929,13.812-18.865a8.022,8.022,0,0,1,7.145-3.54.732.732,0,0,1,.653.8.727.727,0,0,1-.8.652,6.569,6.569,0,0,0-5.789,2.9c-5.369,7.974-10.082,14.056-13.869,18.944-4.205,5.429-7.244,9.351-9.079,13.05a17.661,17.661,0,0,1-3.671,4.611,19.34,19.34,0,0,0-2.295,2.56,103.883,103.883,0,0,1-6.859,8.8c-1.031,1.215-1.921,2.264-2.575,3.166-2.219,3.058-4.783,10.178-6.655,15.376l-.632,1.754c-1.192,3.283-4.063,6.738-7.387,10.739a108.751,108.751,0,0,0-7.085,9.191c-3.675,5.517-4.381,8-4.848,9.648a7.8,7.8,0,0,1-1.624,3.335,13.493,13.493,0,0,0-1.854,3.477,13.015,13.015,0,0,1-1.5,2.933,33.862,33.862,0,0,0-2.386,3.506A3.22,3.22,0,0,1-118.692-935.462Z" transform="translate(176.488 1193.092)" fill="#35190f"/><path d="M-26-1162.387a.729.729,0,0,1-.577-.281.73.73,0,0,1,.126-1.024,8.352,8.352,0,0,0,2.327-2.9c0-.01.009-.02.013-.03a10.678,10.678,0,0,0,.576-1.427c.014-.044.025-.094.037-.144.067-.279.111-.547.155-.825a4.385,4.385,0,0,1,.982-2.569,4.645,4.645,0,0,1,.717-.511,4.723,4.723,0,0,0,.4-.265c.927-.71.933-.763,1.106-2.149.025-.2.09-.481.173-.835.465-1.975.558-3.122.276-3.412-.087-.091-.129-.1-.382-.08-.891.069-1.13-.445-1.19-.76a.774.774,0,0,1-.011-.176,74.74,74.74,0,0,0-.14-8.886c-.4-4.758-6.829-8.589-11.885-8.589-2.436,0-6.943.42-9.75,3.232a9.364,9.364,0,0,0-2.515,6.911.729.729,0,0,1-.729.731h0a.73.73,0,0,1-.731-.728,10.763,10.763,0,0,1,2.943-7.946c3.178-3.185,8.121-3.661,10.783-3.661,5.783,0,12.87,4.336,13.34,9.927a76.436,76.436,0,0,1,.17,8.479,1.681,1.681,0,0,1,1.147.528c.906.932.545,2.864.1,4.763-.067.287-.124.515-.14.647-.2,1.623-.32,2.127-1.673,3.161a6.232,6.232,0,0,1-.524.35,3.483,3.483,0,0,0-.5.348,3.89,3.89,0,0,0-.523,1.723c-.052.317-.1.622-.165.887-.032.128-.054.217-.078.3a12.19,12.19,0,0,1-.647,1.607l-.014.031a9.79,9.79,0,0,1-2.747,3.422A.725.725,0,0,1-26-1162.387Z" transform="translate(172.679 1198.713)" fill="#35190f"/><path d="M-29.865-915.76a5.286,5.286,0,0,1-3.343-.91,4.044,4.044,0,0,1-1.378-3.369,20.709,20.709,0,0,1,.8-4.625,17.826,17.826,0,0,0,.765-4.726,107.673,107.673,0,0,0-3.74-22.154c-2.193-8.631-3.924-15.446-1.08-27.245l.075-.311c.954-3.957,2.262-9.377,2.249-13.349a20.674,20.674,0,0,0-.373-3.776,20.375,20.375,0,0,1-.37-4.3,22.861,22.861,0,0,1,.561-3.975,20.817,20.817,0,0,0,.534-3.847,73.706,73.706,0,0,0-1.016-11.571,84.013,84.013,0,0,1-1.059-11.138.73.73,0,0,1,.721-.739h.009a.729.729,0,0,1,.73.721,82.885,82.885,0,0,0,1.045,10.95,75.951,75.951,0,0,1,1.032,11.792,22.078,22.078,0,0,1-.564,4.12,21.423,21.423,0,0,0-.531,3.719,18.837,18.837,0,0,0,.349,4.023,22.211,22.211,0,0,1,.394,4.014c.013,4.149-1.318,9.668-2.29,13.7l-.075.31C-39.182-967-37.49-960.338-35.347-951.9a109.04,109.04,0,0,1,3.782,22.429,18.7,18.7,0,0,1-.805,5.161,19.853,19.853,0,0,0-.756,4.273,2.648,2.648,0,0,0,.821,2.222c1.529,1.2,5.258.426,9.616-.63,4.062-.985,7.77-.36,11.359.242a39.661,39.661,0,0,0,6.659.726c5.435-.041,7.784-.682,8.11-2.212a.871.871,0,0,0-.13-.776c-.922-1.232-5.566-1.582-7.092-1.7-4.462-.335-7.357-2.459-10.156-4.51a36.116,36.116,0,0,0-3.269-2.221c-3.855-2.224-3.568-6.538-2.94-15.989.105-1.571.219-3.291.328-5.18.282-4.91.694-8.135,1.023-10.727a33.517,33.517,0,0,0-.044-12.032c-1.354-8.039-.668-9.618.835-13.076.162-.376.336-.777.519-1.21l.386-.916c1.586-3.745,2.383-5.625,1.644-9.982-.865-5.1-.536-6.548,3.277-20.612,4.248-15.67,2.825-28.35,1.976-35.927l-.074-.653a21.412,21.412,0,0,1,.136-6.341c.349-2.4.708-4.873-.54-12.2a34.433,34.433,0,0,1-.4-7.4,68.533,68.533,0,0,0-.255-8.822c-.384-4.209.653-8.456,1.751-12.951a76.254,76.254,0,0,0,1.872-9.4.731.731,0,0,1,.809-.641.73.73,0,0,1,.642.808,77.377,77.377,0,0,1-1.9,9.581c-1.068,4.375-2.077,8.506-1.715,12.471a70.131,70.131,0,0,1,.26,8.99,32.8,32.8,0,0,0,.382,7.118c1.286,7.552.892,10.263.546,12.655a20.123,20.123,0,0,0-.13,5.968l.073.651c.805,7.177,2.3,20.535-2.018,36.474-3.735,13.779-4.057,15.192-3.245,19.985.81,4.777-.15,7.043-1.739,10.8l-.385.911c-.184.441-.36.846-.525,1.228-1.426,3.282-2.016,4.641-.735,12.253a35.032,35.032,0,0,1,.054,12.458c-.328,2.569-.736,5.766-1.015,10.625-.108,1.893-.224,3.619-.328,5.193-.606,9.094-.856,12.857,2.212,14.627a38.062,38.062,0,0,1,3.4,2.308c2.634,1.931,5.358,3.927,9.4,4.231,4.852.367,7.214,1.026,8.152,2.279a2.324,2.324,0,0,1,.388,1.956c-.584,2.749-4.078,3.327-9.527,3.369a41.048,41.048,0,0,1-6.912-.746c-3.443-.578-7-1.176-10.774-.264A35,35,0,0,1-29.865-915.76Z" transform="translate(172.336 1194.884)" fill="#35190f"/><path d="M31.011-926.173a4.224,4.224,0,0,1-.607-.043,4.573,4.573,0,0,1-3.426-2.818,16.272,16.272,0,0,1-1.134-4.528,13.988,13.988,0,0,0-1.144-4.409,121.579,121.579,0,0,0-12.929-18.357C5.834-963.6,1.144-969.342-1.543-981.352l-.073-.32c-.888-3.97-2.1-9.406-3.867-12.965a20.531,20.531,0,0,0-2-3.223,20.519,20.519,0,0,1-2.228-3.7,23,23,0,0,1-1.265-4.917,21.913,21.913,0,0,0-1.2-4.691,42.988,42.988,0,0,0-6.027-8.982,52.123,52.123,0,0,1-5.842-8.36c-2.125-3.915-3.564-8.768-4.836-13.05-1.39-4.686-2.829-9.531-4.393-9.531a.731.731,0,0,1-.73-.731.73.73,0,0,1,.73-.73c2.654,0,3.97,4.436,5.793,10.576,1.251,4.213,2.668,8.988,4.719,12.77a51.072,51.072,0,0,0,5.694,8.138,44.794,44.794,0,0,1,6.21,9.271,22.623,22.623,0,0,1,1.318,5.052,22.3,22.3,0,0,0,1.156,4.571A18.9,18.9,0,0,0-6.3-998.714a22.056,22.056,0,0,1,2.125,3.43c1.841,3.715,3.08,9.252,3.984,13.295l.072.319C2.494-970,7.088-964.373,12.9-957.253A122.829,122.829,0,0,1,25.971-938.69a14.871,14.871,0,0,1,1.316,4.9,15.372,15.372,0,0,0,1,4.107,3.171,3.171,0,0,0,2.327,2.018c1.813.266,4.42-1.312,7.316-4.44,2.372-2.562,4.339-2.968,6.827-3.481a29.523,29.523,0,0,0,10.589-4.175c3.917-2.365,3.816-2.678,3.48-3.714-.073-.224-.153-.472-.224-.752-.153-.611-1.842-.264-3.331.045a19.559,19.559,0,0,1-3.494.505,58.7,58.7,0,0,1-8.588-.446c-1.23-.136-2.5-.278-4.082-.383-4.44-.3-6.084-4.293-9.688-13.054-.6-1.456-1.255-3.05-1.991-4.792-2.01-4.763-3.1-8.141-3.986-10.854-1.35-4.165-2.242-6.917-5.3-11.176-5.14-7.144-5.513-9.892-5.816-14.949l-.057-1c-.228-4.059-.343-6.1-2.927-9.681-2.6-3.6-2.7-4.136-4.4-13.1-.287-1.508-.619-3.26-1.017-5.308-1.856-9.547-4.872-17.68-8.723-23.52a28.8,28.8,0,0,1-4.826-13.136.732.732,0,0,1,.66-.795.739.739,0,0,1,.795.66,27.671,27.671,0,0,0,4.59,12.466c3.955,6,7.046,14.312,8.937,24.045.4,2.053.733,3.805,1.019,5.315,1.714,9.012,1.747,9.185,4.153,12.521,2.834,3.929,2.972,6.384,3.2,10.453l.057.992c.272,4.557.422,7.067,5.542,14.186,3.2,4.443,4.117,7.281,5.509,11.576.872,2.688,1.957,6.032,3.943,10.736.737,1.746,1.395,3.346,1.995,4.8,3.468,8.429,4.9,11.918,8.436,12.153,1.614.108,2.9.25,4.146.389a57.013,57.013,0,0,0,8.4.437,18.2,18.2,0,0,0,3.222-.476c2.236-.461,4.546-.94,5.044,1.029.062.246.133.461.2.659.633,1.954.312,2.741-4.115,5.414a31.145,31.145,0,0,1-11.048,4.354c-2.407.5-4,.825-6.05,3.045C36-927.866,33.254-926.173,31.011-926.173Z" transform="translate(172.098 1192.782)" fill="#35190f"/></g><g transform="translate(-65.603 -1154.45)"><g transform="translate(0 19.436)"><path d="M-48.044-1120.566a13.1,13.1,0,0,1-5.329-1.05,9.178,9.178,0,0,1-5.508-6.759.731.731,0,0,1,.611-.832.729.729,0,0,1,.831.611,7.823,7.823,0,0,0,4.656,5.645,13.277,13.277,0,0,0,7.781.632,41.306,41.306,0,0,0,7.791-2.567.731.731,0,0,1,.951.4.731.731,0,0,1-.4.951,42.482,42.482,0,0,1-8.073,2.648A18.152,18.152,0,0,1-48.044-1120.566Z" transform="translate(58.889 1129.216)" fill="#35190f"/><path d="M-18.318-1120.566a18.144,18.144,0,0,1-3.31-.316,42.549,42.549,0,0,1-8.073-2.648.732.732,0,0,1-.4-.951.73.73,0,0,1,.951-.4,41.392,41.392,0,0,0,7.793,2.567,13.261,13.261,0,0,0,7.78-.632,7.815,7.815,0,0,0,4.655-5.645.738.738,0,0,1,.832-.611.731.731,0,0,1,.611.832,9.179,9.179,0,0,1-5.508,6.759A13.109,13.109,0,0,1-18.318-1120.566Z" transform="translate(57.606 1129.216)" fill="#35190f"/></g><path d="M-22.082-1148.1H-45.565a.731.731,0,0,1-.731-.73.731.731,0,0,1,.731-.731h23.483a.731.731,0,0,1,.731.731A.731.731,0,0,1-22.082-1148.1Z" transform="translate(58.327 1149.56)" fill="#35190f"/><path d="M-33.439-1070.784a.73.73,0,0,1-.73-.729v-3.132a.731.731,0,0,1,.73-.731.732.732,0,0,1,.731.731v3.132A.73.73,0,0,1-33.439-1070.784Z" transform="translate(57.785 1146.248)" fill="#35190f"/></g><g transform="translate(-209.294 -1259.102)"><path d="M100.045-918.9H-178.421a.73.73,0,0,1-.73-.731v-278.466a.73.73,0,0,1,.73-.73H100.045a.73.73,0,0,1,.73.73v278.466A.73.73,0,0,1,100.045-918.9Zm-277.736-1.461h277v-277.005h-277Z" transform="translate(207.948 1256.411)" fill="#35190f"/><path d="M-40.537-921.587c-3,0-6.03-.08-9-.237a.731.731,0,0,1-.691-.768.722.722,0,0,1,.768-.691,170.23,170.23,0,0,0,31.441-1.267.731.731,0,0,1,.821.626.728.728,0,0,1-.627.821A170.769,170.769,0,0,1-40.537-921.587Zm-24.554-1.782a.82.82,0,0,1-.107-.008,168.688,168.688,0,0,1-102.616-56.151,168.651,168.651,0,0,1-41.481-110.818c0-93.054,75.7-168.757,168.757-168.757s168.758,75.7,168.758,168.757A169.146,169.146,0,0,1,90.715-984.26,169.4,169.4,0,0,1-3.227-925.726a.727.727,0,0,1-.872-.551.728.728,0,0,1,.551-.872c75.506-17.042,130.309-85.675,130.309-163.2,0-92.248-75.049-167.3-167.3-167.3s-167.3,75.049-167.3,167.3c0,82.44,61.411,153.6,142.849,165.523a.731.731,0,0,1,.616.828A.731.731,0,0,1-65.09-923.368Z" transform="translate(209.294 1259.102)" fill="#35190f"/></g><path d="M100.045-885.74H-178.421a.73.73,0,0,1-.73-.73V-891.6a.73.73,0,0,1,.73-.73.73.73,0,0,1,.73.73v4.4h.977v-4.4a.73.73,0,0,1,.73-.73.73.73,0,0,1,.73.73v4.4h.976v-4.4a.731.731,0,0,1,.731-.73.73.73,0,0,1,.73.73v4.4h.976v-4.4a.73.73,0,0,1,.73-.73.73.73,0,0,1,.73.73v4.4h.977v-4.4a.73.73,0,0,1,.73-.73.73.73,0,0,1,.73.73v4.4h8.051v-4.4a.731.731,0,0,1,.731-.73.73.73,0,0,1,.73.73v4.4h10.782v-4.4a.73.73,0,0,1,.73-.73.731.731,0,0,1,.731.73v4.4h10.968v-4.4a.73.73,0,0,1,.73-.73.731.731,0,0,1,.731.73v4.4h10.22v-4.4a.731.731,0,0,1,.731-.73.73.73,0,0,1,.73.73v4.4h10.689v-4.4a.73.73,0,0,1,.73-.73.731.731,0,0,1,.731.73v4.4h70.011v-4.4a.731.731,0,0,1,.731-.73.73.73,0,0,1,.73.73v4.4H31.554v-4.4a.73.73,0,0,1,.73-.73.73.73,0,0,1,.73.73v4.4H43.7v-4.4a.731.731,0,0,1,.731-.73.73.73,0,0,1,.73.73v4.4h10.22v-4.4a.73.73,0,0,1,.73-.73.731.731,0,0,1,.731.73v4.4H67.813v-4.4a.731.731,0,0,1,.731-.73.73.73,0,0,1,.73.73v4.4H80.056v-4.4a.731.731,0,0,1,.731-.73.73.73,0,0,1,.73.73v4.4h8.051v-4.4a.73.73,0,0,1,.73-.73.731.731,0,0,1,.731.73v4.4H92v-4.4a.73.73,0,0,1,.73-.73.73.73,0,0,1,.73.73v4.4h.976v-4.4a.73.73,0,0,1,.73-.73.73.73,0,0,1,.73.73v4.4h.977v-4.4a.73.73,0,0,1,.73-.73.73.73,0,0,1,.73.73v4.4h.976v-4.4a.731.731,0,0,1,.731-.73.73.73,0,0,1,.73.73v5.133A.73.73,0,0,1,100.045-885.74Z" transform="translate(-1.346 -16.373)" fill="#35190f"/></g></g></svg>