<svg xmlns="http://www.w3.org/2000/svg" width="400" height="385" viewBox="0 0 400 385"><g transform="translate(-390 -3328)"><g transform="translate(-371.721 870.885)"><g transform="translate(770.797 2481.115)"><path d="M898.47,2481.115l-.1,168.125h167.9Zm20.8,49.456,99.953,100.146H919.211Z" transform="translate(-785.861 -2481.115)" fill="#626054"/><path d="M772.019,2838.057l-.1-168.125h167.9Zm20.8-49.458,99.953-100.146H792.76Z" transform="translate(-771.921 -2501.93)" fill="#626054"/></g><g transform="translate(769.402 2514.354)"><path d="M796.563,2765.229c-10.64,0-19.666-.414-25.682-1.446l-.528-.09V2570.159l.6-.035c.262-.015,26.088-1.912,33.541-38.034l.134-.646,86.029,21.209-.213.65c-.214.649-21.021,65.189-2.23,91.112,5.161,7.119,12.934,10.729,23.1,10.729h.634v103l-.571.057C910.5,2758.287,840.083,2765.229,796.563,2765.229Zm-24.941-2.609c29.976,4.822,130.52-4.8,139.06-5.627V2656.408c-10.29-.148-18.193-3.931-23.5-11.249-18.363-25.334-.464-84.331,1.842-91.6L805.6,2532.992c-7.172,33.42-29.978,37.819-33.977,38.336Z" transform="translate(-770.354 -2519.902)"/><rect width="1.269" height="132.385" transform="translate(70.165 65.566)"/><path d="M1176.381,2757.213h-149.1V2655.156l.588-.043a23.382,23.382,0,0,0,17.2-9.431c21.776-27.717,8.761-106.93,8.627-107.728l-.1-.593,85.221-18.889.247.258c10.721,11.151,36.429,11.424,36.687,11.425l.631,0Zm-147.831-1.269h146.562V2531.412c-4.123-.1-26.339-1.114-36.712-11.549l-83.355,18.476c1.283,7.935,12.381,80.939-8.978,108.125a24.619,24.619,0,0,1-17.516,9.866Z" transform="translate(-798.678 -2518.471)"/><rect width="1.269" height="135.915" transform="translate(302.52 55.857)"/><g transform="translate(19.951 152.368)"><path d="M792.777,2689.718h6.45v1.3H794.34v3.98h4.513v1.28H794.34v5.418h-1.563Z" transform="translate(-792.777 -2689.718)"/><path d="M801.932,2696.17c0-1.013-.018-1.884-.071-2.683h1.368l.071,1.687h.052a2.6,2.6,0,0,1,2.4-1.882,3.047,3.047,0,0,1,.426.035v1.474a4.43,4.43,0,0,0-.533-.035,2.193,2.193,0,0,0-2.1,1.99,4.833,4.833,0,0,0-.053.728v4.6h-1.563Z" transform="translate(-793.778 -2690.112)"/><path d="M809.082,2698.071a2.736,2.736,0,0,0,2.931,2.968,5.6,5.6,0,0,0,2.382-.445l.283,1.12a7,7,0,0,1-2.877.551,4.011,4.011,0,0,1-4.228-4.336c0-2.594,1.545-4.636,4.05-4.636,2.807,0,3.536,2.469,3.536,4.05a3.718,3.718,0,0,1-.054.728Zm4.566-1.119a2.223,2.223,0,0,0-2.151-2.54,2.575,2.575,0,0,0-2.4,2.54Z" transform="translate(-794.408 -2690.112)"/><path d="M818.263,2695.814c0-.906-.018-1.617-.072-2.327h1.387l.088,1.4h.036a3.185,3.185,0,0,1,2.843-1.6c1.191,0,3.038.711,3.038,3.66v5.134h-1.563v-4.957c0-1.386-.514-2.558-1.99-2.558a2.254,2.254,0,0,0-2.1,1.6,2.316,2.316,0,0,0-.107.728v5.188h-1.563Z" transform="translate(-795.579 -2690.112)"/><path d="M831.034,2691.195v2.061h2.239v1.19h-2.239v4.62c0,1.066.3,1.67,1.173,1.67a2.916,2.916,0,0,0,.906-.107l.071,1.191a4.251,4.251,0,0,1-1.385.214,2.23,2.23,0,0,1-1.688-.658,3.36,3.36,0,0,1-.6-2.256v-4.673h-1.333v-1.19h1.333v-1.581Z" transform="translate(-796.679 -2689.88)"/><path d="M836.573,2698.071a2.737,2.737,0,0,0,2.931,2.968,5.593,5.593,0,0,0,2.382-.445l.284,1.12a7.01,7.01,0,0,1-2.878.551,4.011,4.011,0,0,1-4.228-4.336c0-2.594,1.545-4.636,4.05-4.636,2.807,0,3.536,2.469,3.536,4.05a3.871,3.871,0,0,1-.053.728Zm4.566-1.119a2.223,2.223,0,0,0-2.151-2.54,2.576,2.576,0,0,0-2.4,2.54Z" transform="translate(-797.439 -2690.112)"/></g><g transform="translate(314.379 151.728)"><path d="M1129.887,2696.078h-4.639v4.317h5.189v1.3h-6.752v-11.974h6.485v1.3h-4.922v3.784h4.639Z" transform="translate(-1123.685 -2689.078)"/><path d="M1133.182,2700.487a4.411,4.411,0,0,0,2.078.6c1.12,0,1.652-.55,1.652-1.278,0-.747-.444-1.137-1.581-1.564-1.563-.569-2.292-1.42-2.292-2.433,0-1.386,1.137-2.522,2.967-2.522a3.987,3.987,0,0,1,2.1.533l-.373,1.119a3.523,3.523,0,0,0-1.76-.5c-.923,0-1.421.534-1.421,1.174,0,.71.5,1.03,1.617,1.474,1.474.551,2.256,1.3,2.256,2.577,0,1.527-1.191,2.594-3.2,2.594a4.89,4.89,0,0,1-2.415-.605Z" transform="translate(-1124.691 -2689.473)"/><path d="M1141.365,2696.294c0-1.1-.018-1.99-.072-2.807h1.4l.088,1.475h.036a3.318,3.318,0,0,1,3.039-1.67c2.1,0,3.659,1.759,3.659,4.37,0,3.091-1.9,4.62-3.91,4.62a3,3,0,0,1-2.647-1.351h-.036v4.673h-1.562Zm1.563,2.292a2.513,2.513,0,0,0,.071.639,2.393,2.393,0,0,0,2.328,1.831c1.651,0,2.611-1.351,2.611-3.323,0-1.723-.889-3.2-2.541-3.2a2.494,2.494,0,0,0-2.38,1.937,3.671,3.671,0,0,0-.09.622Z" transform="translate(-1125.626 -2689.473)"/><path d="M1158.708,2700.025a14.531,14.531,0,0,0,.124,2.061h-1.4l-.142-1.083h-.053a3.174,3.174,0,0,1-2.629,1.28,2.451,2.451,0,0,1-2.63-2.47c0-2.079,1.848-3.216,5.171-3.2v-.178a1.767,1.767,0,0,0-1.955-1.991,4.148,4.148,0,0,0-2.256.64l-.356-1.049a5.577,5.577,0,0,1,2.843-.745c2.647,0,3.287,1.794,3.287,3.517Zm-1.528-2.327c-1.705-.036-3.642.267-3.642,1.936a1.37,1.37,0,0,0,1.456,1.493,2.169,2.169,0,0,0,2.114-1.44,1.57,1.57,0,0,0,.072-.5Z" transform="translate(-1126.803 -2689.473)"/><path d="M1162.356,2689h1.563v12.614h-1.563Z" transform="translate(-1127.948 -2688.999)"/><path d="M1174.418,2689v10.393c0,.764.017,1.635.07,2.221h-1.4l-.07-1.493h-.036a3.153,3.153,0,0,1-2.914,1.689c-2.078,0-3.694-1.76-3.694-4.372-.019-2.877,1.776-4.618,3.854-4.618a2.861,2.861,0,0,1,2.595,1.3h.036V2689Zm-1.563,7.515a2.858,2.858,0,0,0-.072-.675,2.3,2.3,0,0,0-2.256-1.794c-1.616,0-2.576,1.421-2.576,3.305,0,1.759.871,3.2,2.54,3.2a2.367,2.367,0,0,0,2.292-1.884,2.437,2.437,0,0,0,.072-.657Z" transform="translate(-1128.391 -2688.999)"/><path d="M1184.3,2700.025a14.531,14.531,0,0,0,.124,2.061h-1.4l-.143-1.083h-.053a3.173,3.173,0,0,1-2.629,1.28,2.45,2.45,0,0,1-2.629-2.47c0-2.079,1.848-3.216,5.17-3.2v-.178a1.766,1.766,0,0,0-1.955-1.991,4.147,4.147,0,0,0-2.256.64l-.356-1.049a5.576,5.576,0,0,1,2.843-.745c2.647,0,3.287,1.794,3.287,3.517Zm-1.528-2.327c-1.706-.036-3.642.267-3.642,1.936a1.37,1.37,0,0,0,1.456,1.493,2.169,2.169,0,0,0,2.114-1.44,1.57,1.57,0,0,0,.072-.5Z" transform="translate(-1129.625 -2689.473)"/></g></g><g transform="translate(768.755 2541.735)"><rect width="1.13" height="28.199" transform="translate(1.352 1.292)" fill="red"/><path d="M773.459,2552.79l-1.917-1.918-1.916,1.918v-1.628l1.916-1.916,1.917,1.916Z" transform="translate(-769.626 -2549.246)" fill="red"/></g><g transform="translate(802.387 2505.954)"><rect width="1.13" height="28.197" transform="translate(1.351 1.292)" fill="red"/><path d="M811.258,2512.575l-1.916-1.918-1.917,1.918v-1.628l1.917-1.916,1.916,1.916Z" transform="translate(-807.425 -2509.031)" fill="red"/></g><g transform="translate(883.387 2528.562)"><rect width="1.13" height="28.197" transform="translate(1.351 1.292)" fill="red"/><path d="M902.294,2537.985l-1.916-1.918-1.916,1.918v-1.627l1.916-1.917,1.916,1.917Z" transform="translate(-898.461 -2534.441)" fill="red"/></g><g transform="translate(1023.76 2513.818)"><rect width="1.13" height="28.199" transform="translate(1.351 1.292)" fill="red"/><g transform="translate(0)"><path d="M1060.06,2521.413l-1.917-1.918-1.917,1.918v-1.627l1.917-1.916,1.917,1.916Z" transform="translate(-1056.227 -2517.869)" fill="red"/></g></g><g transform="translate(1108.987 2493.801)"><rect width="1.13" height="28.197" transform="translate(1.351 1.292)" fill="red"/><g transform="translate(0)"><path d="M1155.847,2498.916,1153.93,2497l-1.916,1.917v-1.627l1.916-1.916,1.917,1.916Z" transform="translate(-1152.014 -2495.373)" fill="red"/></g></g><g transform="translate(1143.92 2504.713)"><rect width="1.13" height="28.199" transform="translate(1.352 1.292)" fill="red"/><path d="M1195.108,2511.18l-1.917-1.918-1.917,1.918v-1.627l1.917-1.917,1.917,1.917Z" transform="translate(-1191.275 -2507.636)" fill="red"/></g><g transform="translate(908.158 2744.935)"><rect width="1.13" height="28.199" transform="translate(1.351)" fill="red"/><g transform="translate(0 25.947)"><path d="M926.3,2806.784l1.916,1.918,1.917-1.918v1.627l-1.917,1.917-1.916-1.917Z" transform="translate(-926.302 -2806.784)" fill="red"/></g></g><g transform="translate(996.09 2739.741)"><rect width="1.13" height="28.199" transform="translate(1.351)" fill="red"/><g transform="translate(0 25.947)"><path d="M1025.128,2800.946l1.916,1.917,1.917-1.917v1.627l-1.917,1.917-1.916-1.917Z" transform="translate(-1025.128 -2800.946)" fill="red"/></g></g><g transform="translate(1144.67 2738.856)"><rect width="1.13" height="28.197" transform="translate(1.351)" fill="red"/><g transform="translate(0 25.946)"><path d="M1192.118,2799.951l1.917,1.918,1.916-1.918v1.627l-1.916,1.917-1.917-1.917Z" transform="translate(-1192.118 -2799.951)" fill="red"/></g></g><g transform="translate(821.481 2743.673)"><rect width="1.13" height="28.199" transform="translate(1.351)" fill="red"/><g transform="translate(0 25.946)"><path d="M828.886,2805.365l1.917,1.917,1.917-1.917v1.627l-1.917,1.916-1.917-1.916Z" transform="translate(-828.886 -2805.365)" fill="red"/></g></g><g transform="translate(768.755 2743.673)"><rect width="1.13" height="28.199" transform="translate(1.352)" fill="red"/><g transform="translate(0 25.946)"><path d="M769.626,2805.365l1.916,1.917,1.917-1.917v1.627l-1.917,1.916-1.916-1.916Z" transform="translate(-769.626 -2805.365)" fill="red"/></g></g><g transform="translate(793.687 2525.528)"><rect width="28.197" height="1.13" transform="translate(0 1.352)" fill="red"/><g transform="translate(25.946)"><path d="M826.808,2534.863l1.918-1.916-1.918-1.917h1.627l1.917,1.917-1.917,1.916Z" transform="translate(-826.808 -2531.03)" fill="red"/></g></g><g transform="translate(872.402 2544.979)"><rect width="28.199" height="1.13" transform="translate(0 1.352)" fill="red"/><g transform="translate(25.947)"><path d="M915.277,2556.725l1.918-1.916-1.918-1.917H916.9l1.916,1.917-1.916,1.916Z" transform="translate(-915.277 -2552.892)" fill="red"/></g></g><g transform="translate(1011.932 2531.61)"><rect width="28.199" height="1.13" transform="translate(1.292 1.351)" fill="red"/><path d="M1046.477,2537.867l-1.918,1.916,1.918,1.917h-1.627l-1.916-1.917,1.916-1.916Z" transform="translate(-1042.933 -2537.867)" fill="red"/></g><g transform="translate(1018.124 2593.344)"><rect width="28.197" height="1.13" transform="translate(1.292 1.351)" fill="red"/><g transform="translate(0)"><path d="M1053.437,2607.248l-1.917,1.916,1.917,1.917h-1.627l-1.917-1.917,1.917-1.916Z" transform="translate(-1049.893 -2607.248)" fill="red"/></g></g><g transform="translate(988.117 2649.522)"><rect width="28.199" height="1.13" transform="translate(1.292 1.351)" fill="red"/><path d="M1019.711,2670.387l-1.917,1.917,1.917,1.917h-1.627l-1.917-1.917,1.917-1.917Z" transform="translate(-1016.168 -2670.387)" fill="red"/></g><g transform="translate(977.5 2749.91)"><rect width="28.197" height="1.13" transform="translate(1.292 1.351)" fill="red"/><path d="M1007.78,2783.214l-1.918,1.916,1.918,1.917h-1.627l-1.916-1.917,1.916-1.916Z" transform="translate(-1004.236 -2783.214)" fill="red"/></g><g transform="translate(1091.555 2513.829)"><rect width="28.199" height="1.13" transform="translate(1.292 1.351)" fill="red"/><path d="M1135.965,2517.883l-1.917,1.916,1.917,1.917h-1.627l-1.916-1.917,1.916-1.916Z" transform="translate(-1132.422 -2517.883)" fill="red"/></g><g transform="translate(866.111 2595.309)"><rect width="28.197" height="1.13" transform="translate(0 1.351)" fill="red"/><g transform="translate(25.946)"><path d="M908.206,2613.291l1.918-1.916-1.918-1.917h1.627l1.917,1.917-1.917,1.916Z" transform="translate(-908.206 -2609.458)" fill="red"/></g></g><g transform="translate(897.394 2648.047)"><rect width="28.197" height="1.13" transform="translate(0 1.351)" fill="red"/><g transform="translate(25.946)"><path d="M943.365,2672.563l1.918-1.917-1.918-1.917h1.627l1.917,1.917-1.917,1.917Z" transform="translate(-943.365 -2668.73)" fill="red"/></g></g><g transform="translate(902.876 2749.739)"><rect width="28.197" height="1.13" transform="translate(0 1.351)" fill="red"/><g transform="translate(25.946)"><path d="M949.526,2786.854l1.918-1.916-1.918-1.917h1.627l1.916,1.917-1.916,1.916Z" transform="translate(-949.526 -2783.021)" fill="red"/></g></g><g transform="translate(814.995 2756.502)"><rect width="28.199" height="1.13" transform="translate(0 1.351)" fill="red"/><g transform="translate(25.946)"><path d="M850.756,2794.455l1.917-1.917-1.917-1.917h1.628l1.917,1.917-1.917,1.917Z" transform="translate(-850.756 -2790.622)" fill="red"/></g></g><g transform="translate(765.011 2529.273)"><path d="M767.661,2542.218c-1.318,0-2.222-1.235-2.242-3.467,0-2.275.986-3.511,2.357-3.511,1.412,0,2.232,1.268,2.232,3.417,0,2.3-.862,3.562-2.336,3.562Zm.052-.705c.925,0,1.371-1.091,1.371-2.814,0-1.662-.415-2.753-1.371-2.753-.83,0-1.369,1.06-1.369,2.753-.021,1.754.519,2.814,1.36,2.814Z" transform="translate(-765.419 -2535.24)" fill="red"/><path d="M772.2,2542.92a.609.609,0,0,1-.6-.653.62.62,0,0,1,.624-.655.606.606,0,0,1,.612.655.613.613,0,0,1-.623.653Z" transform="translate(-766.1 -2535.942)" fill="red"/><path d="M776.713,2542.119v-1.848h-3.136v-.592l3.012-4.31h.987v4.2h.944v.707h-.944v1.848Zm0-2.555v-2.253c0-.353.01-.707.031-1.06h-.031c-.207.395-.375.685-.56,1l-1.651,2.3v.02Z" transform="translate(-766.318 -2535.254)" fill="red"/></g><g transform="translate(798.042 2494.476)"><path d="M804.784,2503.108c-1.318,0-2.222-1.235-2.242-3.467,0-2.274.986-3.51,2.357-3.51,1.412,0,2.233,1.267,2.233,3.417,0,2.295-.862,3.561-2.336,3.561Zm.052-.7c.924,0,1.371-1.091,1.371-2.814,0-1.662-.416-2.752-1.371-2.752-.83,0-1.37,1.06-1.37,2.752-.021,1.754.519,2.814,1.36,2.814Z" transform="translate(-802.542 -2496.131)" fill="red"/><path d="M809.319,2503.811a.609.609,0,0,1-.6-.653.62.62,0,0,1,.624-.655.655.655,0,0,1-.011,1.308Z" transform="translate(-803.223 -2496.833)" fill="red"/><path d="M813.3,2496.131a1.747,1.747,0,0,1,1.973,1.661,1.714,1.714,0,0,1-1.122,1.578v.031a1.882,1.882,0,0,1,1.36,1.746,2.071,2.071,0,0,1-2.294,1.961c-1.413,0-2.264-.83-2.264-1.817a1.945,1.945,0,0,1,1.329-1.817v-.031a1.668,1.668,0,0,1-1.08-1.516,1.89,1.89,0,0,1,2.086-1.8Zm-.063,6.314a1.221,1.221,0,0,0,1.351-1.2c0-.81-.571-1.215-1.485-1.474a1.476,1.476,0,0,0-1.214,1.4,1.242,1.242,0,0,0,1.339,1.277Zm.012-5.66a1.074,1.074,0,0,0-1.174,1.08c-.011.675.509,1.038,1.287,1.247a1.33,1.33,0,0,0,1.028-1.226,1.046,1.046,0,0,0-1.131-1.1Z" transform="translate(-803.47 -2496.131)" fill="red"/><path d="M819.824,2503.009v-1.848h-3.136v-.592l3.012-4.31h.987v4.2h.944v.707h-.944v1.848Zm0-2.554V2498.2q0-.53.031-1.06h-.031c-.207.4-.375.686-.561,1l-1.651,2.3v.021Z" transform="translate(-804.101 -2496.145)" fill="red"/></g><g transform="translate(908.336 2543.232)"><path d="M928.743,2557.906c-1.318,0-2.222-1.235-2.241-3.468,0-2.274.986-3.511,2.357-3.511,1.411,0,2.232,1.268,2.232,3.417,0,2.3-.862,3.562-2.336,3.562Zm.052-.706c.925,0,1.371-1.091,1.371-2.813,0-1.662-.416-2.753-1.371-2.753-.83,0-1.37,1.06-1.37,2.753-.021,1.754.519,2.813,1.36,2.813Z" transform="translate(-926.502 -2550.928)" fill="red"/><path d="M933.278,2558.609a.61.61,0,0,1-.6-.654.62.62,0,0,1,.625-.654.605.605,0,0,1,.611.654.612.612,0,0,1-.623.654Z" transform="translate(-927.183 -2551.63)" fill="red"/><path d="M937.263,2550.928a1.747,1.747,0,0,1,1.973,1.662,1.717,1.717,0,0,1-1.121,1.579v.031a1.88,1.88,0,0,1,1.359,1.744,2.072,2.072,0,0,1-2.294,1.962c-1.413,0-2.264-.831-2.264-1.817a1.946,1.946,0,0,1,1.329-1.818v-.031a1.667,1.667,0,0,1-1.079-1.516,1.891,1.891,0,0,1,2.086-1.8Zm-.063,6.313a1.221,1.221,0,0,0,1.351-1.2c0-.809-.571-1.214-1.485-1.473a1.476,1.476,0,0,0-1.215,1.4,1.242,1.242,0,0,0,1.339,1.276Zm.012-5.659a1.074,1.074,0,0,0-1.174,1.079c-.01.676.509,1.039,1.287,1.247a1.33,1.33,0,0,0,1.028-1.225,1.045,1.045,0,0,0-1.132-1.1Z" transform="translate(-927.429 -2550.928)" fill="red"/><path d="M943.783,2557.806v-1.848h-3.136v-.592l3.012-4.31h.987v4.2h.944v.706h-.944v1.848Zm0-2.554V2553c0-.353.01-.707.031-1.06h-.031c-.207.4-.374.685-.56,1l-1.651,2.3v.021Z" transform="translate(-928.061 -2550.942)" fill="red"/></g><g transform="translate(900.471 2594.152)"><path d="M919.9,2615.135c-1.318,0-2.222-1.235-2.242-3.467,0-2.274.986-3.51,2.357-3.51,1.412,0,2.232,1.267,2.232,3.417,0,2.294-.862,3.561-2.336,3.561Zm.053-.7c.924,0,1.371-1.091,1.371-2.814,0-1.661-.415-2.752-1.371-2.752-.83,0-1.37,1.06-1.37,2.752-.021,1.754.519,2.814,1.36,2.814Z" transform="translate(-917.662 -2608.158)" fill="red"/><path d="M924.439,2615.838a.609.609,0,0,1-.6-.653.62.62,0,0,1,.624-.655.655.655,0,0,1-.011,1.308Z" transform="translate(-918.343 -2608.86)" fill="red"/><path d="M928.424,2608.158a1.747,1.747,0,0,1,1.973,1.661,1.715,1.715,0,0,1-1.121,1.578v.031a1.881,1.881,0,0,1,1.36,1.745,2.071,2.071,0,0,1-2.294,1.961c-1.413,0-2.264-.83-2.264-1.817a1.946,1.946,0,0,1,1.329-1.817v-.031a1.667,1.667,0,0,1-1.079-1.516,1.89,1.89,0,0,1,2.087-1.8Zm-.063,6.314a1.221,1.221,0,0,0,1.351-1.2c0-.81-.571-1.215-1.485-1.475a1.477,1.477,0,0,0-1.215,1.4,1.243,1.243,0,0,0,1.339,1.278Zm.011-5.659a1.073,1.073,0,0,0-1.174,1.08c-.01.676.509,1.038,1.287,1.247a1.331,1.331,0,0,0,1.028-1.226,1.046,1.046,0,0,0-1.132-1.1Z" transform="translate(-918.59 -2608.158)" fill="red"/><path d="M934.944,2615.037v-1.848h-3.136v-.592l3.012-4.31h.987v4.2h.944v.707h-.944v1.848Zm0-2.555v-2.254q0-.53.031-1.06h-.031c-.207.4-.374.686-.561,1l-1.651,2.3v.021Z" transform="translate(-919.221 -2608.172)" fill="red"/></g><g transform="translate(931.797 2645.897)"><path d="M954.241,2667.294h-.021l-1.174.633-.176-.7,1.475-.789h.778v6.75h-.882Z" transform="translate(-952.87 -2666.328)" fill="red"/><path d="M958.853,2673.994a.609.609,0,0,1-.6-.654.621.621,0,0,1,.624-.655.606.606,0,0,1,.611.655.612.612,0,0,1-.622.654Z" transform="translate(-953.463 -2667.016)" fill="red"/><path d="M960.585,2673.178v-.561l.716-.7c1.724-1.64,2.513-2.512,2.513-3.53a1.2,1.2,0,0,0-1.329-1.32,2.3,2.3,0,0,0-1.432.571l-.292-.644a3,3,0,0,1,1.911-.685,1.9,1.9,0,0,1,2.055,1.963c0,1.246-.9,2.252-2.326,3.624l-.529.5v.02h3.021v.759Z" transform="translate(-953.72 -2666.314)" fill="red"/><path d="M970.411,2667.073a3.468,3.468,0,0,0-.686.053,2.7,2.7,0,0,0-2.346,2.389h.021a2.059,2.059,0,0,1,3.677,1.391,2.262,2.262,0,0,1-2.254,2.388c-1.433,0-2.378-1.121-2.378-2.875a4.2,4.2,0,0,1,1.143-3.043,3.661,3.661,0,0,1,2.16-1,4.381,4.381,0,0,1,.665-.052Zm-1.568,5.515c.779,0,1.308-.655,1.308-1.621a1.372,1.372,0,0,0-1.392-1.547,1.5,1.5,0,0,0-1.319.83.86.86,0,0,0-.093.4c.011,1.111.529,1.943,1.485,1.943Z" transform="translate(-954.366 -2666.315)" fill="red"/></g><g transform="translate(935.188 2741.446)"><path d="M958.052,2774.68h-.02l-1.174.634-.177-.695,1.475-.789h.778v6.749h-.883Z" transform="translate(-956.681 -2773.715)" fill="red"/><path d="M962.665,2781.381a.609.609,0,0,1-.6-.653.619.619,0,0,1,.624-.655.605.605,0,0,1,.611.655.612.612,0,0,1-.623.653Z" transform="translate(-957.274 -2774.404)" fill="red"/><path d="M964.4,2780.564V2780l.717-.7c1.724-1.64,2.514-2.512,2.514-3.53a1.2,1.2,0,0,0-1.329-1.32,2.3,2.3,0,0,0-1.433.571l-.291-.644a3,3,0,0,1,1.911-.685,1.9,1.9,0,0,1,2.055,1.963c0,1.246-.9,2.253-2.326,3.624l-.53.5v.02h3.022v.758Z" transform="translate(-957.532 -2773.701)" fill="red"/><path d="M974.222,2774.46a3.439,3.439,0,0,0-.685.052,2.7,2.7,0,0,0-2.347,2.388h.021a2.059,2.059,0,0,1,3.676,1.392,2.261,2.261,0,0,1-2.253,2.387c-1.432,0-2.378-1.121-2.378-2.876a4.193,4.193,0,0,1,1.143-3.042,3.664,3.664,0,0,1,2.159-1,4.31,4.31,0,0,1,.664-.052Zm-1.567,5.514c.778,0,1.308-.654,1.308-1.621a1.372,1.372,0,0,0-1.393-1.546,1.5,1.5,0,0,0-1.318.83.859.859,0,0,0-.094.4c.012,1.11.53,1.941,1.485,1.941Z" transform="translate(-958.177 -2773.702)" fill="red"/></g><g transform="translate(960.157 2741.447)"><path d="M986.114,2774.682h-.021l-1.173.634-.177-.7,1.475-.79H987v6.75h-.883Z" transform="translate(-984.743 -2773.716)" fill="red"/><path d="M990.727,2781.383a.609.609,0,0,1-.6-.654.62.62,0,0,1,.624-.655.606.606,0,0,1,.611.655.613.613,0,0,1-.623.654Z" transform="translate(-985.336 -2774.404)" fill="red"/><path d="M992.458,2780.566V2780l.717-.7c1.724-1.641,2.514-2.513,2.514-3.53a1.2,1.2,0,0,0-1.329-1.32,2.3,2.3,0,0,0-1.433.572l-.291-.644a3,3,0,0,1,1.911-.685,1.9,1.9,0,0,1,2.055,1.963c0,1.247-.9,2.253-2.326,3.624l-.529.5v.02h3.022v.759Z" transform="translate(-985.593 -2773.702)" fill="red"/><path d="M1002.284,2774.461a3.548,3.548,0,0,0-.685.052,2.7,2.7,0,0,0-2.347,2.389h.021a2.059,2.059,0,0,1,3.676,1.392,2.261,2.261,0,0,1-2.253,2.388c-1.433,0-2.378-1.121-2.378-2.876a4.2,4.2,0,0,1,1.143-3.042,3.67,3.67,0,0,1,2.158-1,4.459,4.459,0,0,1,.665-.052Zm-1.567,5.515c.777,0,1.308-.655,1.308-1.621a1.372,1.372,0,0,0-1.392-1.546,1.5,1.5,0,0,0-1.318.83.85.85,0,0,0-.094.4c.012,1.11.531,1.942,1.485,1.942Z" transform="translate(-986.24 -2773.703)" fill="red"/></g><g transform="translate(901.307 2776.735)"><path d="M920.844,2820.341c-1.319,0-2.223-1.235-2.242-3.468,0-2.274.986-3.51,2.357-3.51,1.412,0,2.232,1.268,2.232,3.417,0,2.295-.862,3.561-2.336,3.561Zm.052-.706c.925,0,1.371-1.09,1.371-2.813,0-1.662-.416-2.752-1.371-2.752-.83,0-1.37,1.06-1.37,2.752-.02,1.753.519,2.813,1.36,2.813Z" transform="translate(-918.602 -2813.363)" fill="red"/><path d="M925.378,2821.044a.609.609,0,0,1-.6-.653.619.619,0,0,1,.624-.654.605.605,0,0,1,.611.654.612.612,0,0,1-.623.653Z" transform="translate(-919.283 -2814.065)" fill="red"/><path d="M930.948,2814.123a3.459,3.459,0,0,0-.686.052,2.706,2.706,0,0,0-2.347,2.389h.021a2.059,2.059,0,0,1,3.677,1.391,2.262,2.262,0,0,1-2.254,2.388c-1.433,0-2.378-1.12-2.378-2.876a4.2,4.2,0,0,1,1.143-3.042,3.667,3.667,0,0,1,2.159-1,4.331,4.331,0,0,1,.665-.052Zm-1.568,5.514c.779,0,1.308-.654,1.308-1.62a1.372,1.372,0,0,0-1.392-1.547,1.5,1.5,0,0,0-1.319.83.855.855,0,0,0-.093.395c.011,1.11.529,1.942,1.484,1.942Z" transform="translate(-919.526 -2813.365)" fill="red"/><path d="M936.936,2814.123a3.457,3.457,0,0,0-.686.052,2.7,2.7,0,0,0-2.347,2.389h.021a2.059,2.059,0,0,1,3.676,1.391,2.261,2.261,0,0,1-2.253,2.388c-1.432,0-2.377-1.12-2.377-2.876a4.194,4.194,0,0,1,1.142-3.042,3.667,3.667,0,0,1,2.159-1,4.323,4.323,0,0,1,.665-.052Zm-1.568,5.514c.778,0,1.308-.654,1.308-1.62a1.372,1.372,0,0,0-1.393-1.547,1.5,1.5,0,0,0-1.318.83.854.854,0,0,0-.094.395c.012,1.11.53,1.942,1.485,1.942Z" transform="translate(-920.186 -2813.365)" fill="red"/></g><g transform="translate(995.479 2771.231)"><path d="M1026.684,2814.154c-1.318,0-2.222-1.235-2.242-3.467,0-2.274.986-3.511,2.357-3.511,1.412,0,2.232,1.267,2.232,3.416,0,2.3-.862,3.562-2.335,3.562Zm.052-.7c.925,0,1.371-1.091,1.371-2.815,0-1.66-.416-2.751-1.371-2.751-.83,0-1.37,1.06-1.37,2.751-.021,1.755.519,2.815,1.36,2.815Z" transform="translate(-1024.442 -2807.177)" fill="red"/><path d="M1031.219,2814.856a.609.609,0,0,1-.6-.654.62.62,0,0,1,.624-.653.6.6,0,0,1,.612.653.612.612,0,0,1-.623.654Z" transform="translate(-1025.123 -2807.879)" fill="red"/><path d="M1036.788,2807.936a3.5,3.5,0,0,0-.685.053,2.7,2.7,0,0,0-2.347,2.389h.021a2.058,2.058,0,0,1,3.676,1.391,2.261,2.261,0,0,1-2.253,2.387c-1.433,0-2.378-1.12-2.378-2.875a4.2,4.2,0,0,1,1.142-3.043,3.67,3.67,0,0,1,2.159-1,4.327,4.327,0,0,1,.665-.051Zm-1.568,5.516c.779,0,1.309-.656,1.309-1.62a1.373,1.373,0,0,0-1.393-1.549,1.5,1.5,0,0,0-1.318.83.858.858,0,0,0-.094.4c.011,1.111.53,1.944,1.485,1.944Z" transform="translate(-1025.366 -2807.178)" fill="red"/><path d="M1042.776,2807.936a3.494,3.494,0,0,0-.685.053,2.7,2.7,0,0,0-2.347,2.389h.021a2.058,2.058,0,0,1,3.677,1.391,2.261,2.261,0,0,1-2.253,2.387c-1.434,0-2.378-1.12-2.378-2.875a4.2,4.2,0,0,1,1.142-3.043,3.667,3.667,0,0,1,2.159-1,4.327,4.327,0,0,1,.665-.051Zm-1.568,5.516c.778,0,1.309-.656,1.309-1.62a1.374,1.374,0,0,0-1.392-1.549,1.5,1.5,0,0,0-1.318.83.853.853,0,0,0-.094.4c.011,1.111.53,1.944,1.485,1.944Z" transform="translate(-1026.026 -2807.178)" fill="red"/></g><g transform="translate(1137.305 2771.231)"><path d="M1186.083,2814.154c-1.319,0-2.223-1.235-2.243-3.467,0-2.274.987-3.511,2.358-3.511,1.411,0,2.232,1.267,2.232,3.416,0,2.3-.864,3.562-2.336,3.562Zm.051-.7c.925,0,1.371-1.091,1.371-2.815,0-1.66-.416-2.751-1.371-2.751-.83,0-1.369,1.06-1.369,2.751-.021,1.755.52,2.815,1.36,2.815Z" transform="translate(-1183.84 -2807.177)" fill="red"/><path d="M1190.616,2814.856a.608.608,0,0,1-.6-.654.62.62,0,0,1,.625-.653.6.6,0,0,1,.611.653.612.612,0,0,1-.622.654Z" transform="translate(-1184.521 -2807.879)" fill="red"/><path d="M1196.187,2807.936a3.519,3.519,0,0,0-.687.053,2.706,2.706,0,0,0-2.347,2.389h.022a2.059,2.059,0,0,1,3.677,1.391,2.262,2.262,0,0,1-2.255,2.387c-1.433,0-2.378-1.12-2.378-2.875a4.2,4.2,0,0,1,1.143-3.043,3.66,3.66,0,0,1,2.159-1,4.317,4.317,0,0,1,.665-.051Zm-1.568,5.516c.778,0,1.307-.656,1.307-1.62a1.373,1.373,0,0,0-1.391-1.549,1.5,1.5,0,0,0-1.319.83.856.856,0,0,0-.094.4c.011,1.111.529,1.944,1.486,1.944Z" transform="translate(-1184.764 -2807.178)" fill="red"/><path d="M1202.175,2807.936a3.516,3.516,0,0,0-.687.053,2.705,2.705,0,0,0-2.347,2.389h.022a2.058,2.058,0,0,1,3.677,1.391,2.262,2.262,0,0,1-2.255,2.387c-1.433,0-2.377-1.12-2.377-2.875a4.2,4.2,0,0,1,1.143-3.043,3.659,3.659,0,0,1,2.159-1,4.317,4.317,0,0,1,.665-.051Zm-1.568,5.516c.777,0,1.307-.656,1.307-1.62a1.372,1.372,0,0,0-1.391-1.549,1.5,1.5,0,0,0-1.319.83.854.854,0,0,0-.1.4c.012,1.111.53,1.944,1.487,1.944Z" transform="translate(-1185.424 -2807.178)" fill="red"/></g><g transform="translate(814.802 2777.719)"><path d="M823.621,2821.446c-1.318,0-2.222-1.235-2.242-3.467,0-2.274.986-3.51,2.357-3.51,1.412,0,2.232,1.267,2.232,3.417,0,2.294-.862,3.56-2.336,3.56Zm.052-.7c.924,0,1.371-1.091,1.371-2.814,0-1.661-.415-2.752-1.371-2.752-.83,0-1.37,1.06-1.37,2.752-.021,1.755.519,2.814,1.359,2.814Z" transform="translate(-821.379 -2814.468)" fill="red"/><path d="M828.156,2822.147a.609.609,0,0,1-.6-.653.62.62,0,0,1,.624-.655.655.655,0,0,1-.011,1.308Z" transform="translate(-822.06 -2815.17)" fill="red"/><path d="M833.725,2815.228a3.541,3.541,0,0,0-.685.051,2.7,2.7,0,0,0-2.347,2.389h.021a2.059,2.059,0,0,1,3.676,1.392,2.26,2.26,0,0,1-2.253,2.387c-1.433,0-2.378-1.12-2.378-2.876a4.2,4.2,0,0,1,1.143-3.042,3.678,3.678,0,0,1,2.159-1,4.395,4.395,0,0,1,.665-.052Zm-1.568,5.515c.779,0,1.309-.655,1.309-1.621a1.372,1.372,0,0,0-1.392-1.546,1.5,1.5,0,0,0-1.318.83.848.848,0,0,0-.094.395c.012,1.111.53,1.943,1.485,1.943Z" transform="translate(-822.303 -2814.469)" fill="red"/><path d="M839.714,2815.228a3.537,3.537,0,0,0-.685.051,2.7,2.7,0,0,0-2.347,2.389h.02a2.059,2.059,0,0,1,3.677,1.392,2.26,2.26,0,0,1-2.253,2.387c-1.433,0-2.378-1.12-2.378-2.876a4.2,4.2,0,0,1,1.142-3.042,3.676,3.676,0,0,1,2.159-1,4.393,4.393,0,0,1,.665-.052Zm-1.568,5.515c.779,0,1.309-.655,1.309-1.621a1.372,1.372,0,0,0-1.392-1.546,1.5,1.5,0,0,0-1.318.83.849.849,0,0,0-.094.395c.011,1.111.53,1.943,1.485,1.943Z" transform="translate(-822.963 -2814.469)" fill="red"/></g><g transform="translate(844.859 2759.434)"><path d="M857.4,2800.9c-1.319,0-2.223-1.235-2.242-3.467,0-2.274.986-3.511,2.357-3.511,1.412,0,2.232,1.268,2.232,3.417,0,2.295-.862,3.561-2.337,3.561Zm.052-.706c.925,0,1.371-1.09,1.371-2.814,0-1.662-.415-2.752-1.371-2.752-.83,0-1.37,1.06-1.37,2.752-.02,1.754.52,2.814,1.36,2.814Z" transform="translate(-855.16 -2793.918)" fill="red"/><path d="M861.936,2801.6a.609.609,0,0,1-.6-.653.62.62,0,0,1,.624-.655.606.606,0,0,1,.611.655.612.612,0,0,1-.623.653Z" transform="translate(-855.841 -2794.62)" fill="red"/><path d="M866.454,2800.8v-1.848h-3.136v-.591l3.012-4.309h.987v4.194h.944v.706h-.944v1.848Zm0-2.555v-2.253q0-.53.03-1.06h-.03c-.208.395-.375.685-.561,1l-1.651,2.3v.021Z" transform="translate(-856.059 -2793.932)" fill="red"/><path d="M869.656,2800.782v-.561l.716-.7c1.724-1.64,2.514-2.512,2.514-3.53a1.2,1.2,0,0,0-1.329-1.32,2.3,2.3,0,0,0-1.432.571l-.292-.643a3,3,0,0,1,1.911-.686,1.9,1.9,0,0,1,2.055,1.963c0,1.246-.9,2.253-2.326,3.624l-.529.5v.02h3.022v.758Z" transform="translate(-856.758 -2793.918)" fill="red"/></g><g transform="translate(761.721 2779.292)"><path d="M763.961,2823.214c-1.318,0-2.221-1.236-2.24-3.469,0-2.274.984-3.51,2.355-3.51,1.413,0,2.232,1.267,2.232,3.417,0,2.295-.861,3.562-2.336,3.562Zm.053-.706c.925,0,1.371-1.091,1.371-2.814,0-1.661-.416-2.752-1.371-2.752-.83,0-1.371,1.059-1.371,2.752-.021,1.755.519,2.814,1.359,2.814Z" transform="translate(-761.721 -2816.235)" fill="red"/><path d="M768.5,2823.917a.61.61,0,0,1-.6-.655.62.62,0,0,1,.623-.655.606.606,0,0,1,.612.655.613.613,0,0,1-.623.655Z" transform="translate(-762.401 -2816.938)" fill="red"/><path d="M774.066,2817a3.537,3.537,0,0,0-.684.052,2.7,2.7,0,0,0-2.347,2.389h.02a2.058,2.058,0,0,1,3.676,1.391,2.262,2.262,0,0,1-2.252,2.388c-1.432,0-2.377-1.121-2.377-2.877a4.2,4.2,0,0,1,1.141-3.042,3.683,3.683,0,0,1,2.16-1,4.437,4.437,0,0,1,.665-.051Zm-1.568,5.515c.78,0,1.31-.655,1.31-1.621a1.373,1.373,0,0,0-1.393-1.547,1.5,1.5,0,0,0-1.318.83.869.869,0,0,0-.093.4c.012,1.11.53,1.942,1.484,1.942Z" transform="translate(-762.645 -2816.237)" fill="red"/><path d="M780.054,2817a3.538,3.538,0,0,0-.684.052,2.7,2.7,0,0,0-2.347,2.389h.019a2.059,2.059,0,0,1,3.677,1.391,2.262,2.262,0,0,1-2.252,2.388c-1.433,0-2.378-1.121-2.378-2.877a4.2,4.2,0,0,1,1.142-3.042,3.683,3.683,0,0,1,2.159-1,4.43,4.43,0,0,1,.665-.051Zm-1.568,5.515c.779,0,1.31-.655,1.31-1.621a1.373,1.373,0,0,0-1.393-1.547,1.5,1.5,0,0,0-1.318.83.859.859,0,0,0-.093.4c.012,1.11.53,1.942,1.484,1.942Z" transform="translate(-763.305 -2816.237)" fill="red"/></g><g transform="translate(879.238 2519.032)"><path d="M896.041,2530.708c-1.318,0-2.222-1.236-2.242-3.469,0-2.273.986-3.51,2.357-3.51,1.412,0,2.232,1.267,2.232,3.417,0,2.295-.862,3.562-2.336,3.562Zm.052-.706c.925,0,1.371-1.091,1.371-2.814,0-1.661-.415-2.752-1.371-2.752-.83,0-1.369,1.06-1.369,2.752-.021,1.755.519,2.814,1.36,2.814Z" transform="translate(-893.799 -2523.729)" fill="red"/><path d="M900.576,2531.41a.61.61,0,0,1-.6-.654.62.62,0,0,1,.624-.655.606.606,0,0,1,.612.655.613.613,0,0,1-.623.654Z" transform="translate(-894.48 -2524.432)" fill="red"/><path d="M906.705,2523.859v.6l-2.939,6.147h-.935l2.917-5.971v-.021h-3.3v-.758Z" transform="translate(-894.752 -2523.744)" fill="red"/><path d="M912.133,2524.489a3.435,3.435,0,0,0-.685.052,2.7,2.7,0,0,0-2.347,2.389h.02a2.058,2.058,0,0,1,3.677,1.391,2.261,2.261,0,0,1-2.253,2.388c-1.433,0-2.378-1.121-2.378-2.877a4.2,4.2,0,0,1,1.142-3.042,3.664,3.664,0,0,1,2.159-1,4.261,4.261,0,0,1,.665-.052ZM910.566,2530c.779,0,1.308-.655,1.308-1.621a1.372,1.372,0,0,0-1.392-1.547,1.5,1.5,0,0,0-1.319.83.858.858,0,0,0-.093.4c.011,1.111.53,1.942,1.485,1.942Z" transform="translate(-895.383 -2523.731)" fill="red"/></g><g transform="translate(1023.66 2501.682)"><path d="M1058.356,2511.208c-1.319,0-2.223-1.235-2.242-3.468,0-2.274.986-3.511,2.357-3.511,1.412,0,2.232,1.268,2.232,3.417,0,2.3-.862,3.562-2.336,3.562Zm.052-.706c.925,0,1.371-1.091,1.371-2.813,0-1.662-.416-2.753-1.371-2.753-.83,0-1.37,1.06-1.37,2.753-.02,1.754.519,2.813,1.361,2.813Z" transform="translate(-1056.114 -2504.23)" fill="red"/><path d="M1062.89,2511.911a.609.609,0,0,1-.6-.653.62.62,0,0,1,.624-.655.606.606,0,0,1,.611.655.613.613,0,0,1-.623.653Z" transform="translate(-1056.795 -2504.932)" fill="red"/><path d="M1069.019,2504.359v.6l-2.939,6.146h-.935l2.918-5.971v-.02h-3.3v-.759Z" transform="translate(-1057.068 -2504.244)" fill="red"/><path d="M1070.609,2511.094v-.561l.716-.7c1.725-1.64,2.514-2.512,2.514-3.53a1.2,1.2,0,0,0-1.329-1.319,2.3,2.3,0,0,0-1.433.571l-.291-.643a3,3,0,0,1,1.91-.686,1.9,1.9,0,0,1,2.056,1.963c0,1.247-.9,2.254-2.326,3.625l-.53.5v.019h3.022v.758Z" transform="translate(-1057.712 -2504.23)" fill="red"/></g><g transform="translate(1071.139 2512.003)"><path d="M1111.718,2522.808c-1.319,0-2.223-1.236-2.242-3.467,0-2.274.986-3.511,2.357-3.511,1.412,0,2.231,1.267,2.231,3.416,0,2.3-.862,3.562-2.336,3.562Zm.052-.706c.925,0,1.371-1.091,1.371-2.814,0-1.661-.415-2.752-1.371-2.752-.83,0-1.37,1.06-1.37,2.752-.02,1.755.519,2.814,1.36,2.814Z" transform="translate(-1109.476 -2515.83)" fill="red"/><path d="M1116.253,2523.511a.609.609,0,0,1-.6-.654.619.619,0,0,1,.624-.654.6.6,0,0,1,.611.654.613.613,0,0,1-.623.654Z" transform="translate(-1110.157 -2516.533)" fill="red"/><path d="M1117.983,2522.694v-.561l.717-.7c1.724-1.641,2.514-2.512,2.514-3.531a1.2,1.2,0,0,0-1.329-1.319,2.3,2.3,0,0,0-1.433.571l-.291-.643a3,3,0,0,1,1.911-.686,1.9,1.9,0,0,1,2.055,1.962c0,1.247-.9,2.253-2.326,3.624l-.529.5v.021h3.022v.758Z" transform="translate(-1110.414 -2515.83)" fill="red"/><path d="M1128,2516.728h-2.576l-.259,1.734a3.577,3.577,0,0,1,.551-.042,2.834,2.834,0,0,1,1.453.363,1.911,1.911,0,0,1,.965,1.734,2.341,2.341,0,0,1-2.513,2.306,3.329,3.329,0,0,1-1.682-.416l.228-.7a3.034,3.034,0,0,0,1.454.374,1.483,1.483,0,0,0,1.589-1.475c0-.862-.592-1.485-1.932-1.485a5.554,5.554,0,0,0-.944.073l.436-3.241H1128Z" transform="translate(-1111.07 -2515.844)" fill="red"/></g><g transform="translate(1140.441 2493.719)"><path d="M1189.607,2502.259c-1.319,0-2.223-1.236-2.242-3.468,0-2.275.986-3.51,2.357-3.51,1.412,0,2.232,1.267,2.232,3.417,0,2.295-.862,3.562-2.336,3.562Zm.052-.706c.925,0,1.371-1.091,1.371-2.814,0-1.661-.416-2.752-1.371-2.752-.83,0-1.37,1.06-1.37,2.752-.021,1.755.519,2.814,1.361,2.814Z" transform="translate(-1187.365 -2495.281)" fill="red"/><path d="M1194.141,2502.962a.609.609,0,0,1-.6-.654.62.62,0,0,1,.624-.655.606.606,0,0,1,.611.655.613.613,0,0,1-.623.654Z" transform="translate(-1188.046 -2495.983)" fill="red"/><path d="M1199.711,2496.04a3.524,3.524,0,0,0-.686.053,2.7,2.7,0,0,0-2.347,2.388h.021a2.059,2.059,0,0,1,3.677,1.391,2.262,2.262,0,0,1-2.254,2.389c-1.433,0-2.377-1.121-2.377-2.876a4.2,4.2,0,0,1,1.142-3.042,3.665,3.665,0,0,1,2.159-1,4.285,4.285,0,0,1,.665-.052Zm-1.568,5.515c.779,0,1.308-.655,1.308-1.621a1.371,1.371,0,0,0-1.391-1.546,1.5,1.5,0,0,0-1.319.83.858.858,0,0,0-.093.395c.01,1.111.529,1.943,1.484,1.943Z" transform="translate(-1188.289 -2495.282)" fill="red"/></g><g transform="translate(989.549 2530.286)"><path d="M1020.019,2543.357c-1.318,0-2.223-1.235-2.242-3.468,0-2.274.986-3.511,2.357-3.511,1.412,0,2.232,1.268,2.232,3.417,0,2.3-.862,3.562-2.337,3.562Zm.052-.706c.925,0,1.371-1.091,1.371-2.813,0-1.662-.415-2.753-1.371-2.753-.83,0-1.369,1.06-1.369,2.753-.021,1.754.519,2.813,1.359,2.813Z" transform="translate(-1017.777 -2536.379)" fill="red"/><path d="M1024.553,2544.059a.609.609,0,0,1-.6-.653.62.62,0,0,1,.624-.655.606.606,0,0,1,.611.655.612.612,0,0,1-.622.653Z" transform="translate(-1018.458 -2537.081)" fill="red"/><path d="M1028.539,2536.379a1.747,1.747,0,0,1,1.973,1.662,1.716,1.716,0,0,1-1.122,1.578v.031a1.88,1.88,0,0,1,1.36,1.745,2.072,2.072,0,0,1-2.294,1.962c-1.414,0-2.264-.83-2.264-1.817a1.946,1.946,0,0,1,1.329-1.818v-.03a1.667,1.667,0,0,1-1.08-1.516,1.891,1.891,0,0,1,2.086-1.8Zm-.063,6.313a1.22,1.22,0,0,0,1.35-1.2c0-.809-.57-1.214-1.485-1.474a1.475,1.475,0,0,0-1.214,1.4,1.241,1.241,0,0,0,1.339,1.277Zm.011-5.659a1.074,1.074,0,0,0-1.174,1.079c-.01.677.509,1.04,1.288,1.247a1.329,1.329,0,0,0,1.027-1.225,1.045,1.045,0,0,0-1.132-1.1Z" transform="translate(-1018.705 -2536.379)" fill="red"/><path d="M1035.059,2543.258v-1.848h-3.136v-.592l3.012-4.31h.987v4.2h.944v.707h-.944v1.848Zm0-2.554v-2.253q0-.53.03-1.06h-.03c-.208.395-.375.685-.562,1l-1.651,2.3v.021Z" transform="translate(-1019.336 -2536.393)" fill="red"/></g><g transform="translate(996.626 2592.512)"><path d="M1027.973,2613.292c-1.318,0-2.222-1.236-2.242-3.467,0-2.274.986-3.511,2.357-3.511,1.412,0,2.232,1.267,2.232,3.417,0,2.3-.862,3.562-2.336,3.562Zm.053-.706c.924,0,1.371-1.091,1.371-2.814,0-1.661-.415-2.752-1.371-2.752-.83,0-1.37,1.06-1.37,2.752-.021,1.755.519,2.814,1.36,2.814Z" transform="translate(-1025.731 -2606.314)" fill="red"/><path d="M1032.508,2613.995a.609.609,0,0,1-.6-.654.62.62,0,0,1,.624-.655.606.606,0,0,1,.612.655.612.612,0,0,1-.623.654Z" transform="translate(-1026.412 -2607.017)" fill="red"/><path d="M1036.493,2606.314a1.747,1.747,0,0,1,1.972,1.661,1.716,1.716,0,0,1-1.121,1.58v.03a1.881,1.881,0,0,1,1.36,1.746,2.072,2.072,0,0,1-2.294,1.962c-1.413,0-2.264-.83-2.264-1.818a1.946,1.946,0,0,1,1.329-1.817v-.031a1.667,1.667,0,0,1-1.079-1.515,1.891,1.891,0,0,1,2.086-1.8Zm-.063,6.314a1.221,1.221,0,0,0,1.351-1.2c0-.809-.571-1.214-1.485-1.473a1.476,1.476,0,0,0-1.214,1.4,1.242,1.242,0,0,0,1.339,1.278Zm.011-5.659a1.073,1.073,0,0,0-1.173,1.079c-.01.675.509,1.039,1.286,1.247a1.331,1.331,0,0,0,1.029-1.225,1.045,1.045,0,0,0-1.132-1.1Z" transform="translate(-1026.659 -2606.314)" fill="red"/><path d="M1043.013,2613.192v-1.848h-3.136v-.592l3.012-4.31h.987v4.2h.944v.706h-.944v1.848Zm0-2.554v-2.254q0-.53.031-1.06h-.031c-.207.4-.373.686-.561,1l-1.651,2.295v.021Z" transform="translate(-1027.291 -2606.328)" fill="red"/></g><g transform="translate(967.963 2648.109)"><path d="M994.888,2669.78h-.021l-1.174.633-.176-.694,1.474-.79h.779v6.75h-.883Z" transform="translate(-993.517 -2668.814)" fill="red"/><path d="M999.5,2676.481a.609.609,0,0,1-.6-.653.619.619,0,0,1,.623-.655.6.6,0,0,1,.611.655.612.612,0,0,1-.623.653Z" transform="translate(-994.11 -2669.502)" fill="red"/><path d="M1001.232,2675.664v-.561l.717-.7c1.724-1.64,2.513-2.513,2.513-3.531a1.2,1.2,0,0,0-1.329-1.319,2.3,2.3,0,0,0-1.432.57l-.292-.643a3,3,0,0,1,1.912-.686,1.9,1.9,0,0,1,2.055,1.963c0,1.247-.9,2.254-2.327,3.625l-.528.5v.02h3.021v.758Z" transform="translate(-994.367 -2668.8)" fill="red"/><path d="M1011.058,2669.56a3.489,3.489,0,0,0-.685.052,2.7,2.7,0,0,0-2.346,2.389h.019a2.059,2.059,0,0,1,3.677,1.391,2.262,2.262,0,0,1-2.252,2.388c-1.433,0-2.378-1.12-2.378-2.875a4.2,4.2,0,0,1,1.141-3.042,3.669,3.669,0,0,1,2.159-1,4.375,4.375,0,0,1,.665-.052Zm-1.568,5.514c.779,0,1.309-.654,1.309-1.62a1.372,1.372,0,0,0-1.393-1.546,1.5,1.5,0,0,0-1.318.83.866.866,0,0,0-.093.395c.011,1.11.53,1.941,1.483,1.941Z" transform="translate(-995.013 -2668.801)" fill="red"/></g><g transform="translate(1105.263 2484.036)"><path d="M1150.07,2491.376c-1.318,0-2.222-1.235-2.242-3.468,0-2.274.986-3.511,2.357-3.511,1.412,0,2.232,1.268,2.232,3.417,0,2.3-.862,3.561-2.336,3.561Zm.053-.706c.924,0,1.371-1.091,1.371-2.814,0-1.661-.416-2.752-1.371-2.752-.83,0-1.37,1.06-1.37,2.752-.021,1.754.519,2.814,1.36,2.814Z" transform="translate(-1147.828 -2484.398)" fill="red"/><path d="M1154.605,2492.078a.61.61,0,0,1-.6-.654.62.62,0,0,1,.624-.654.606.606,0,0,1,.612.654.613.613,0,0,1-.623.654Z" transform="translate(-1148.509 -2485.1)" fill="red"/><path d="M1158.59,2484.4a1.748,1.748,0,0,1,1.973,1.662,1.716,1.716,0,0,1-1.122,1.578v.031a1.88,1.88,0,0,1,1.36,1.745,2.072,2.072,0,0,1-2.294,1.962c-1.413,0-2.264-.83-2.264-1.817a1.946,1.946,0,0,1,1.329-1.818v-.03a1.668,1.668,0,0,1-1.08-1.516,1.891,1.891,0,0,1,2.087-1.8Zm-.063,6.314a1.221,1.221,0,0,0,1.351-1.2c0-.809-.571-1.214-1.485-1.474a1.476,1.476,0,0,0-1.214,1.4,1.242,1.242,0,0,0,1.339,1.277Zm.011-5.659a1.074,1.074,0,0,0-1.174,1.079c-.011.676.509,1.04,1.287,1.247a1.329,1.329,0,0,0,1.028-1.225,1.045,1.045,0,0,0-1.131-1.1Z" transform="translate(-1148.755 -2484.398)" fill="red"/><path d="M1165.11,2491.277v-1.848h-3.136v-.592l3.012-4.31h.987v4.195h.944v.707h-.944v1.848Zm0-2.555v-2.253c0-.353.01-.707.031-1.06h-.031c-.207.395-.375.685-.561,1l-1.651,2.3v.02Z" transform="translate(-1149.388 -2484.412)" fill="red"/></g><g transform="translate(827.003 2524.445)"><path d="M837.334,2536.792c-1.318,0-2.223-1.235-2.242-3.467,0-2.274.986-3.511,2.357-3.511,1.412,0,2.232,1.268,2.232,3.417,0,2.294-.862,3.561-2.336,3.561Zm.052-.706c.925,0,1.371-1.09,1.371-2.813,0-1.662-.415-2.752-1.371-2.752-.83,0-1.369,1.06-1.369,2.752-.021,1.753.519,2.813,1.36,2.813Z" transform="translate(-835.092 -2529.814)" fill="red"/><path d="M841.868,2537.494a.608.608,0,0,1-.6-.653.62.62,0,0,1,.624-.655.605.605,0,0,1,.611.655.612.612,0,0,1-.622.653Z" transform="translate(-835.773 -2530.516)" fill="red"/><path d="M843.6,2536.678v-.561l.716-.7c1.724-1.64,2.514-2.512,2.514-3.53a1.2,1.2,0,0,0-1.329-1.32,2.3,2.3,0,0,0-1.433.571l-.292-.643a3,3,0,0,1,1.911-.686,1.9,1.9,0,0,1,2.055,1.964c0,1.245-.9,2.252-2.326,3.624l-.529.5v.02h3.022v.758Z" transform="translate(-836.03 -2529.814)" fill="red"/><path d="M853.613,2530.711h-2.575l-.26,1.734a3.65,3.65,0,0,1,.551-.042,2.836,2.836,0,0,1,1.453.363,1.915,1.915,0,0,1,.966,1.735,2.341,2.341,0,0,1-2.513,2.3,3.337,3.337,0,0,1-1.683-.415l.229-.7a3.027,3.027,0,0,0,1.454.375,1.483,1.483,0,0,0,1.588-1.475c0-.863-.592-1.485-1.932-1.485a5.591,5.591,0,0,0-.944.073l.436-3.24h3.229Z" transform="translate(-836.686 -2529.828)" fill="red"/></g></g><rect width="400" height="385" transform="translate(390 3328)" fill="none"/></g></svg>