<svg xmlns="http://www.w3.org/2000/svg" width="606.623" height="568.91" viewBox="0 0 606.623 568.91"><g transform="translate(-495.576 -20967.051)"><g transform="translate(495 20963)"><path d="M.926,0V-8.59h3.24a7.823,7.823,0,0,1,1.307.082,2.588,2.588,0,0,1,1.061.4,2.106,2.106,0,0,1,.688.829,2.631,2.631,0,0,1,.261,1.172,2.641,2.641,0,0,1-.7,1.854,3.345,3.345,0,0,1-2.52.759h-2.2V0ZM2.063-4.506H4.283a2.355,2.355,0,0,0,1.564-.41A1.461,1.461,0,0,0,6.311-6.07a1.553,1.553,0,0,0-.272-.923A1.274,1.274,0,0,0,5.32-7.5,4.857,4.857,0,0,0,4.26-7.576h-2.2ZM8.4-3.111a3.207,3.207,0,0,1,.961-2.561,2.9,2.9,0,0,1,1.957-.691,2.792,2.792,0,0,1,2.1.841A3.2,3.2,0,0,1,14.232-3.2a4.117,4.117,0,0,1-.36,1.89A2.551,2.551,0,0,1,12.823-.24a3.054,3.054,0,0,1-1.5.381A2.8,2.8,0,0,1,9.208-.7,3.347,3.347,0,0,1,8.4-3.111Zm1.084,0a2.65,2.65,0,0,0,.521,1.79,1.672,1.672,0,0,0,1.313.595,1.662,1.662,0,0,0,1.307-.6,2.713,2.713,0,0,0,.521-1.822A2.571,2.571,0,0,0,12.624-4.9a1.668,1.668,0,0,0-1.3-.595,1.675,1.675,0,0,0-1.312.592A2.639,2.639,0,0,0,9.486-3.111Zm5.561,1.254,1.043-.164a1.458,1.458,0,0,0,.489.961A1.705,1.705,0,0,0,17.7-.727a1.648,1.648,0,0,0,1.078-.3.885.885,0,0,0,.352-.694.641.641,0,0,0-.311-.562,4.574,4.574,0,0,0-1.078-.357,9.838,9.838,0,0,1-1.608-.507,1.558,1.558,0,0,1-.68-.592,1.568,1.568,0,0,1-.231-.835,1.6,1.6,0,0,1,.19-.771,1.708,1.708,0,0,1,.519-.589,2.174,2.174,0,0,1,.671-.308,3.19,3.19,0,0,1,.911-.126,3.6,3.6,0,0,1,1.286.211,1.749,1.749,0,0,1,.817.571,2.232,2.232,0,0,1,.363.964l-1.031.141a1.128,1.128,0,0,0-.407-.75,1.489,1.489,0,0,0-.952-.27,1.724,1.724,0,0,0-1.037.24.7.7,0,0,0-.311.563.582.582,0,0,0,.129.369.93.93,0,0,0,.4.281q.158.059.932.27a12.969,12.969,0,0,1,1.562.489,1.584,1.584,0,0,1,.694.554,1.546,1.546,0,0,1,.252.9,1.771,1.771,0,0,1-.308.993,1.988,1.988,0,0,1-.888.721,3.231,3.231,0,0,1-1.312.255,2.924,2.924,0,0,1-1.849-.5A2.343,2.343,0,0,1,15.047-1.857Zm8.725.914.152.932a3.912,3.912,0,0,1-.8.094A1.8,1.8,0,0,1,22.236-.1a1.017,1.017,0,0,1-.445-.478,3.776,3.776,0,0,1-.129-1.245V-5.4h-.773v-.82h.773V-7.764L22.711-8.4v2.174h1.061v.82H22.711v3.639a1.838,1.838,0,0,0,.056.58.439.439,0,0,0,.182.205.7.7,0,0,0,.36.076A3.431,3.431,0,0,0,23.771-.943ZM29.063-2l1.09.135A2.659,2.659,0,0,1,29.2-.387a2.871,2.871,0,0,1-1.781.527A2.846,2.846,0,0,1,25.251-.7a3.285,3.285,0,0,1-.8-2.358A3.438,3.438,0,0,1,25.26-5.5a2.737,2.737,0,0,1,2.1-.867,2.66,2.66,0,0,1,2.039.85,3.376,3.376,0,0,1,.791,2.391q0,.094-.006.281H25.541a2.391,2.391,0,0,0,.58,1.57,1.727,1.727,0,0,0,1.3.545,1.614,1.614,0,0,0,.99-.3A2.023,2.023,0,0,0,29.063-2ZM25.6-3.709h3.475a2.108,2.108,0,0,0-.4-1.178A1.616,1.616,0,0,0,27.369-5.5a1.675,1.675,0,0,0-1.222.486A1.925,1.925,0,0,0,25.6-3.709ZM31.465,0V-6.223h.949v.943a2.574,2.574,0,0,1,.671-.873,1.171,1.171,0,0,1,.677-.211,2.057,2.057,0,0,1,1.084.34l-.363.979a1.509,1.509,0,0,0-.773-.229,1,1,0,0,0-.621.208,1.127,1.127,0,0,0-.393.577,4.108,4.108,0,0,0-.176,1.23V0Zm4.014-7.377V-8.59h1.055v1.213Zm0,7.377V-6.223h1.055V0Zm2.268-3.111a3.207,3.207,0,0,1,.961-2.561,2.9,2.9,0,0,1,1.957-.691,2.792,2.792,0,0,1,2.1.841A3.2,3.2,0,0,1,43.576-3.2a4.117,4.117,0,0,1-.36,1.89A2.551,2.551,0,0,1,42.167-.24a3.054,3.054,0,0,1-1.5.381A2.8,2.8,0,0,1,38.552-.7,3.347,3.347,0,0,1,37.746-3.111Zm1.084,0a2.65,2.65,0,0,0,.521,1.79,1.672,1.672,0,0,0,1.313.595,1.662,1.662,0,0,0,1.307-.6,2.713,2.713,0,0,0,.521-1.822A2.571,2.571,0,0,0,41.968-4.9a1.668,1.668,0,0,0-1.3-.595,1.675,1.675,0,0,0-1.312.592A2.639,2.639,0,0,0,38.83-3.111ZM44.8,0V-6.223h.949v.943a2.574,2.574,0,0,1,.671-.873,1.171,1.171,0,0,1,.677-.211,2.057,2.057,0,0,1,1.084.34l-.363.979a1.509,1.509,0,0,0-.773-.229,1,1,0,0,0-.621.208,1.127,1.127,0,0,0-.393.577,4.108,4.108,0,0,0-.176,1.23V0Z" transform="translate(471.691 288.163) rotate(90)" fill="#161615"/><path d="M.926,0V-8.59H3.885a7.177,7.177,0,0,1,1.529.123,2.909,2.909,0,0,1,1.26.615A3.5,3.5,0,0,1,7.69-6.384a5.762,5.762,0,0,1,.337,2.042A6,6,0,0,1,7.8-2.607a4.208,4.208,0,0,1-.586,1.251,3.113,3.113,0,0,1-.782.779,3.188,3.188,0,0,1-1.025.431A5.852,5.852,0,0,1,4.025,0ZM2.063-1.014H3.9a4.451,4.451,0,0,0,1.333-.158A1.907,1.907,0,0,0,6-1.617,2.71,2.71,0,0,0,6.63-2.7a5.314,5.314,0,0,0,.226-1.655,4,4,0,0,0-.442-2.071A2.226,2.226,0,0,0,5.338-7.4a4.444,4.444,0,0,0-1.471-.176h-1.8ZM13.717-2l1.09.135a2.659,2.659,0,0,1-.955,1.482A2.871,2.871,0,0,1,12.07.141,2.846,2.846,0,0,1,9.905-.7a3.285,3.285,0,0,1-.8-2.358A3.438,3.438,0,0,1,9.914-5.5a2.737,2.737,0,0,1,2.1-.867,2.66,2.66,0,0,1,2.039.85,3.376,3.376,0,0,1,.791,2.391q0,.094-.006.281H10.2a2.391,2.391,0,0,0,.58,1.57,1.727,1.727,0,0,0,1.3.545,1.614,1.614,0,0,0,.99-.3A2.023,2.023,0,0,0,13.717-2ZM10.254-3.709h3.475a2.108,2.108,0,0,0-.4-1.178A1.616,1.616,0,0,0,12.023-5.5,1.675,1.675,0,0,0,10.8-5.01,1.925,1.925,0,0,0,10.254-3.709ZM16.107,0V-8.59h1.055V0Zm6.75-.768a3.927,3.927,0,0,1-1.128.7,3.259,3.259,0,0,1-1.163.205,2.262,2.262,0,0,1-1.576-.5,1.654,1.654,0,0,1-.551-1.28,1.7,1.7,0,0,1,.208-.835,1.722,1.722,0,0,1,.545-.606,2.562,2.562,0,0,1,.759-.346,7.536,7.536,0,0,1,.938-.158,9.64,9.64,0,0,0,1.881-.363q.006-.217.006-.275a1.164,1.164,0,0,0-.3-.908,1.765,1.765,0,0,0-1.2-.357,1.863,1.863,0,0,0-1.1.261,1.593,1.593,0,0,0-.524.923l-1.031-.141a2.555,2.555,0,0,1,.463-1.069,2.029,2.029,0,0,1,.932-.627,4.155,4.155,0,0,1,1.412-.22,3.738,3.738,0,0,1,1.295.188,1.706,1.706,0,0,1,.732.472,1.659,1.659,0,0,1,.328.718,5.938,5.938,0,0,1,.053.973v1.406A14.926,14.926,0,0,0,23.9-.747,2.347,2.347,0,0,0,24.17,0h-1.1A2.236,2.236,0,0,1,22.857-.768ZM22.77-3.123a7.738,7.738,0,0,1-1.723.4,3.985,3.985,0,0,0-.92.211.917.917,0,0,0-.416.343.9.9,0,0,0-.146.5.9.9,0,0,0,.319.7,1.374,1.374,0,0,0,.935.281A2.175,2.175,0,0,0,21.9-.952a1.642,1.642,0,0,0,.7-.729,2.548,2.548,0,0,0,.17-1.055ZM25.471,0V-6.223h.949v.885A2.237,2.237,0,0,1,28.4-6.363a2.6,2.6,0,0,1,1.034.2,1.627,1.627,0,0,1,.706.53,2.035,2.035,0,0,1,.328.779,6.039,6.039,0,0,1,.059,1.025V0H29.473V-3.785a2.841,2.841,0,0,0-.123-.964,1.014,1.014,0,0,0-.437-.51,1.389,1.389,0,0,0-.735-.19,1.709,1.709,0,0,0-1.163.428A2.11,2.11,0,0,0,26.525-3.4V0Zm8.977-.943.152.932a3.912,3.912,0,0,1-.8.094A1.8,1.8,0,0,1,32.912-.1a1.017,1.017,0,0,1-.445-.478,3.776,3.776,0,0,1-.129-1.245V-5.4h-.773v-.82h.773V-7.764L33.387-8.4v2.174h1.061v.82H33.387v3.639a1.838,1.838,0,0,0,.056.58.439.439,0,0,0,.182.205.7.7,0,0,0,.36.076A3.431,3.431,0,0,0,34.447-.943ZM39.738-2l1.09.135a2.659,2.659,0,0,1-.955,1.482,2.871,2.871,0,0,1-1.781.527A2.846,2.846,0,0,1,35.927-.7a3.285,3.285,0,0,1-.8-2.358A3.438,3.438,0,0,1,35.936-5.5a2.737,2.737,0,0,1,2.1-.867,2.66,2.66,0,0,1,2.039.85,3.376,3.376,0,0,1,.791,2.391q0,.094-.006.281H36.217a2.391,2.391,0,0,0,.58,1.57,1.727,1.727,0,0,0,1.3.545,1.614,1.614,0,0,0,.99-.3A2.023,2.023,0,0,0,39.738-2ZM36.275-3.709H39.75a2.108,2.108,0,0,0-.4-1.178A1.616,1.616,0,0,0,38.045-5.5a1.675,1.675,0,0,0-1.222.486A1.925,1.925,0,0,0,36.275-3.709ZM42.141,0V-6.223h.949v.943a2.574,2.574,0,0,1,.671-.873,1.171,1.171,0,0,1,.677-.211,2.057,2.057,0,0,1,1.084.34l-.363.979a1.509,1.509,0,0,0-.773-.229,1,1,0,0,0-.621.208,1.127,1.127,0,0,0-.393.577,4.108,4.108,0,0,0-.176,1.23V0Zm3.615-3.111a3.207,3.207,0,0,1,.961-2.561,2.9,2.9,0,0,1,1.957-.691,2.792,2.792,0,0,1,2.1.841A3.2,3.2,0,0,1,51.586-3.2a4.117,4.117,0,0,1-.36,1.89A2.551,2.551,0,0,1,50.177-.24a3.054,3.054,0,0,1-1.5.381A2.8,2.8,0,0,1,46.562-.7,3.347,3.347,0,0,1,45.756-3.111Zm1.084,0a2.65,2.65,0,0,0,.521,1.79,1.672,1.672,0,0,0,1.313.595,1.662,1.662,0,0,0,1.307-.6A2.713,2.713,0,0,0,50.5-3.146,2.571,2.571,0,0,0,49.978-4.9a1.668,1.668,0,0,0-1.3-.595,1.675,1.675,0,0,0-1.312.592A2.639,2.639,0,0,0,46.84-3.111Z" transform="translate(155.501 284.138) rotate(90)" fill="#161615"/><line y2="303.985" transform="translate(461.512 162.372)" fill="none" stroke="#161615" stroke-miterlimit="10" stroke-width="1.417"/><path d="M470.7,285.183l4.2-.477,4.168-.9,4.108-1.313,4.021-1.719,3.9-2.111,3.762-2.492,3.592-2.852,3.4-3.194,3.18-3.515,2.941-3.808,2.681-4.078,2.4-4.319,2.107-4.529,1.8-4.709,1.475-4.853,25.482-96.564,44.1,6.106,4.891-.72,4.51,2.022,45.2,6.257-3.894,54.728-2.278,28.172-3.842,41.044L621.613,387.985l-3.375,36.935-1.627,20.535-3.312-.245,3.312.245L614.575,476.3,612.784,511.6l-1.456,39.741-1.2,48.612-1.074,66.324H495.172l-.044-220.817,3.318-.159-3.318.159-3.04-30.192-1.858-15.519-2.348-16.554-2.7-16.5-3.046-16.442-3.394-16.373-3.738-16.3-4.083-16.215L466.5,285.236l4.2-.052" transform="translate(-90.602 -98.587)" fill="none" stroke="#161615" stroke-miterlimit="10" stroke-width="1.417"/><line x2="0.146" y2="33.553" transform="translate(497.412 51.27)" fill="none" stroke="#161615" stroke-miterlimit="10" stroke-width="1.417"/><line y1="32.251" x2="9.255" transform="translate(497.558 52.572)" fill="none" stroke="#161615" stroke-miterlimit="10" stroke-width="1.417"/><path d="M573.312,173.706a3.334,3.334,0,1,0-.253,1.271,2.215,2.215,0,0,0,.253-1.271" transform="translate(-71.781 -93.583)" fill="none" stroke="#161615" stroke-miterlimit="10" stroke-width="1.417"/><line y2="303.985" transform="translate(140.568 162.372)" fill="none" stroke="#161615" stroke-miterlimit="10" stroke-width="1.417"/><path d="M209.2,278.179l2.859-.558,2.8-.987,2.718-1.406,2.61-1.816,2.477-2.206,2.321-2.578,2.145-2.923,1.947-3.243,1.733-3.534,1.5-3.791,1.258-4.014,1-4.2.736-4.345.464-4.452,2.372-80.351,38.281-.271,24.086-.632,8.495-.369,19.3-1.1,4.45,7.436,4.053,7.686,3.644,7.909,3.226,8.112,2.8,8.291,2.363,8.446,1.918,8.577,1.471,8.683,1.019,8.763.562,8.821V278.3l-7.178,79.145-3.995,49.5-2.5,36.323-3.315-.208,3.315.208-2.215,39.7-1.91,44.144-1.725,53.007-2.031,83.967H227.86l.293-125.006-.189-95.811,3.32-.089-3.32.089-1.709-31.013L225.074,396.3l-1.632-17.006-1.985-16.968L219.123,345.4l-2.682-16.872-3.033-16.812-3.38-16.746L206.3,278.3l2.891-.124" transform="translate(-139.489 -96.399)" fill="none" stroke="#161615" stroke-miterlimit="10" stroke-width="1.417"/><line x1="28.758" transform="translate(77.885 567.686)" fill="none" stroke="#d9000d" stroke-miterlimit="10" stroke-width="1.417"/><path d="M221.318,579.51,203.067,584.4l18.252,4.892Z" transform="translate(-140.097 -16.715)" fill="#d9000d"/><path d="M4.454-11.237C2.21-11.237.612-9.2.612-5.491.646-1.836,2.108.187,4.267.187c2.448,0,3.842-2.074,3.842-5.831C8.109-9.163,6.783-11.237,4.454-11.237Zm-.085,1.156c1.547,0,2.244,1.785,2.244,4.505,0,2.822-.731,4.607-2.261,4.607-1.36,0-2.244-1.632-2.244-4.5C2.108-8.483,3.06-10.081,4.369-10.081ZM10.608.187a1,1,0,0,0,1.02-1.071.992.992,0,0,0-1-1.071A1,1,0,0,0,9.6-.884,1,1,0,0,0,10.608.187ZM20.06,0V-1.241H15.1v-.034l.884-.816c2.329-2.244,3.808-3.893,3.808-5.933A3.109,3.109,0,0,0,16.4-11.237a4.849,4.849,0,0,0-3.128,1.122l.476,1.054A3.763,3.763,0,0,1,16.1-10a1.971,1.971,0,0,1,2.193,2.159C18.275-6.171,17-4.743,14.178-2.057L13.005-.918V0Z" transform="translate(37.9 572.528)" fill="#d9000d"/><path d="M4.454-11.237C2.21-11.237.612-9.2.612-5.491.646-1.836,2.108.187,4.267.187c2.448,0,3.842-2.074,3.842-5.831C8.109-9.163,6.783-11.237,4.454-11.237Zm-.085,1.156c1.547,0,2.244,1.785,2.244,4.505,0,2.822-.731,4.607-2.261,4.607-1.36,0-2.244-1.632-2.244-4.5C2.108-8.483,3.06-10.081,4.369-10.081ZM10.608.187a1,1,0,0,0,1.02-1.071.992.992,0,0,0-1-1.071A1,1,0,0,0,9.6-.884,1,1,0,0,0,10.608.187ZM20.06,0V-1.241H15.1v-.034l.884-.816c2.329-2.244,3.808-3.893,3.808-5.933A3.109,3.109,0,0,0,16.4-11.237a4.849,4.849,0,0,0-3.128,1.122l.476,1.054A3.763,3.763,0,0,1,16.1-10a1.971,1.971,0,0,1,2.193,2.159C18.275-6.171,17-4.743,14.178-2.057L13.005-.918V0Z" transform="translate(217.085 572.528)" fill="#d9000d"/><line x2="28.757" transform="translate(172.975 567.686)" fill="none" stroke="#d9000d" stroke-miterlimit="10" stroke-width="1.417"/><path d="M317.074,589.292l18.251-4.892-18.251-4.891Z" transform="translate(-118.676 -16.715)" fill="#d9000d"/><line x1="28.758" transform="translate(397.129 567.932)" fill="none" stroke="#d9000d" stroke-miterlimit="10" stroke-width="1.417"/><path d="M490.068,579.717l-18.252,4.891,18.252,4.892Z" transform="translate(-89.603 -16.676)" fill="#d9000d"/><path d="M4.454-11.237C2.21-11.237.612-9.2.612-5.491.646-1.836,2.108.187,4.267.187c2.448,0,3.842-2.074,3.842-5.831C8.109-9.163,6.783-11.237,4.454-11.237Zm-.085,1.156c1.547,0,2.244,1.785,2.244,4.505,0,2.822-.731,4.607-2.261,4.607-1.36,0-2.244-1.632-2.244-4.5C2.108-8.483,3.06-10.081,4.369-10.081ZM10.608.187a1,1,0,0,0,1.02-1.071.992.992,0,0,0-1-1.071A1,1,0,0,0,9.6-.884,1,1,0,0,0,10.608.187ZM20.06,0V-1.241H15.1v-.034l.884-.816c2.329-2.244,3.808-3.893,3.808-5.933A3.109,3.109,0,0,0,16.4-11.237a4.849,4.849,0,0,0-3.128,1.122l.476,1.054A3.763,3.763,0,0,1,16.1-10a1.971,1.971,0,0,1,2.193,2.159C18.275-6.171,17-4.743,14.178-2.057L13.005-.918V0Z" transform="translate(357.145 572.773)" fill="#d9000d"/><path d="M4.454-11.237C2.21-11.237.612-9.2.612-5.491.646-1.836,2.108.187,4.267.187c2.448,0,3.842-2.074,3.842-5.831C8.109-9.163,6.783-11.237,4.454-11.237Zm-.085,1.156c1.547,0,2.244,1.785,2.244,4.505,0,2.822-.731,4.607-2.261,4.607-1.36,0-2.244-1.632-2.244-4.5C2.108-8.483,3.06-10.081,4.369-10.081ZM10.608.187a1,1,0,0,0,1.02-1.071.992.992,0,0,0-1-1.071A1,1,0,0,0,9.6-.884,1,1,0,0,0,10.608.187ZM20.06,0V-1.241H15.1v-.034l.884-.816c2.329-2.244,3.808-3.893,3.808-5.933A3.109,3.109,0,0,0,16.4-11.237a4.849,4.849,0,0,0-3.128,1.122l.476,1.054A3.763,3.763,0,0,1,16.1-10a1.971,1.971,0,0,1,2.193,2.159C18.275-6.171,17-4.743,14.178-2.057L13.005-.918V0Z" transform="translate(541.082 572.773)" fill="#d9000d"/><line x2="28.757" transform="translate(496.972 567.932)" fill="none" stroke="#d9000d" stroke-miterlimit="10" stroke-width="1.417"/><path d="M589.824,589.5l18.252-4.892-18.252-4.891Z" transform="translate(-67.431 -16.676)" fill="#d9000d"/><line x1="28.758" transform="translate(77.885 346.164)" fill="none" stroke="#d9000d" stroke-miterlimit="10" stroke-width="1.417"/><path d="M221.318,393.024l-18.252,4.892,18.252,4.891Z" transform="translate(-140.097 -51.753)" fill="#d9000d"/><path d="M4.454-11.237C2.21-11.237.612-9.2.612-5.491.646-1.836,2.108.187,4.267.187c2.448,0,3.842-2.074,3.842-5.831C8.109-9.163,6.783-11.237,4.454-11.237Zm-.085,1.156c1.547,0,2.244,1.785,2.244,4.505,0,2.822-.731,4.607-2.261,4.607-1.36,0-2.244-1.632-2.244-4.5C2.108-8.483,3.06-10.081,4.369-10.081ZM10.608.187a1,1,0,0,0,1.02-1.071.992.992,0,0,0-1-1.071A1,1,0,0,0,9.6-.884,1,1,0,0,0,10.608.187Zm2.346-.748a5.617,5.617,0,0,0,2.873.748c2.652,0,4.029-1.547,4.029-3.315a2.878,2.878,0,0,0-2.465-2.839V-6a2.744,2.744,0,0,0,2.04-2.6c0-1.343-.986-2.635-3.162-2.635a5.253,5.253,0,0,0-2.89.85L13.77-9.3a4.059,4.059,0,0,1,2.21-.731c1.377,0,1.938.782,1.938,1.666,0,1.309-1.377,1.87-2.465,1.87H14.62v1.122h.833c1.445,0,2.839.663,2.856,2.21.017.918-.578,2.142-2.5,2.142a5,5,0,0,1-2.448-.7Z" transform="translate(37.9 351.005)" fill="#d9000d"/><path d="M4.454-11.237C2.21-11.237.612-9.2.612-5.491.646-1.836,2.108.187,4.267.187c2.448,0,3.842-2.074,3.842-5.831C8.109-9.163,6.783-11.237,4.454-11.237Zm-.085,1.156c1.547,0,2.244,1.785,2.244,4.505,0,2.822-.731,4.607-2.261,4.607-1.36,0-2.244-1.632-2.244-4.5C2.108-8.483,3.06-10.081,4.369-10.081ZM10.608.187a1,1,0,0,0,1.02-1.071.992.992,0,0,0-1-1.071A1,1,0,0,0,9.6-.884,1,1,0,0,0,10.608.187Zm2.346-.748a5.617,5.617,0,0,0,2.873.748c2.652,0,4.029-1.547,4.029-3.315a2.878,2.878,0,0,0-2.465-2.839V-6a2.744,2.744,0,0,0,2.04-2.6c0-1.343-.986-2.635-3.162-2.635a5.253,5.253,0,0,0-2.89.85L13.77-9.3a4.059,4.059,0,0,1,2.21-.731c1.377,0,1.938.782,1.938,1.666,0,1.309-1.377,1.87-2.465,1.87H14.62v1.122h.833c1.445,0,2.839.663,2.856,2.21.017.918-.578,2.142-2.5,2.142a5,5,0,0,1-2.448-.7Z" transform="translate(217.085 351.005)" fill="#d9000d"/><line x2="28.757" transform="translate(172.975 346.164)" fill="none" stroke="#d9000d" stroke-miterlimit="10" stroke-width="1.417"/><path d="M317.074,402.807l18.251-4.891-18.251-4.892Z" transform="translate(-118.676 -51.753)" fill="#d9000d"/><line x1="28.758" transform="translate(397.129 346.409)" fill="none" stroke="#d9000d" stroke-miterlimit="10" stroke-width="1.417"/><path d="M490.068,393.231l-18.252,4.892,18.252,4.891Z" transform="translate(-89.603 -51.714)" fill="#d9000d"/><path d="M4.454-11.237C2.21-11.237.612-9.2.612-5.491.646-1.836,2.108.187,4.267.187c2.448,0,3.842-2.074,3.842-5.831C8.109-9.163,6.783-11.237,4.454-11.237Zm-.085,1.156c1.547,0,2.244,1.785,2.244,4.505,0,2.822-.731,4.607-2.261,4.607-1.36,0-2.244-1.632-2.244-4.5C2.108-8.483,3.06-10.081,4.369-10.081ZM10.608.187a1,1,0,0,0,1.02-1.071.992.992,0,0,0-1-1.071A1,1,0,0,0,9.6-.884,1,1,0,0,0,10.608.187Zm2.346-.748a5.617,5.617,0,0,0,2.873.748c2.652,0,4.029-1.547,4.029-3.315a2.878,2.878,0,0,0-2.465-2.839V-6a2.744,2.744,0,0,0,2.04-2.6c0-1.343-.986-2.635-3.162-2.635a5.253,5.253,0,0,0-2.89.85L13.77-9.3a4.059,4.059,0,0,1,2.21-.731c1.377,0,1.938.782,1.938,1.666,0,1.309-1.377,1.87-2.465,1.87H14.62v1.122h.833c1.445,0,2.839.663,2.856,2.21.017.918-.578,2.142-2.5,2.142a5,5,0,0,1-2.448-.7Z" transform="translate(357.145 351.251)" fill="#d9000d"/><path d="M4.454-11.237C2.21-11.237.612-9.2.612-5.491.646-1.836,2.108.187,4.267.187c2.448,0,3.842-2.074,3.842-5.831C8.109-9.163,6.783-11.237,4.454-11.237Zm-.085,1.156c1.547,0,2.244,1.785,2.244,4.505,0,2.822-.731,4.607-2.261,4.607-1.36,0-2.244-1.632-2.244-4.5C2.108-8.483,3.06-10.081,4.369-10.081ZM10.608.187a1,1,0,0,0,1.02-1.071.992.992,0,0,0-1-1.071A1,1,0,0,0,9.6-.884,1,1,0,0,0,10.608.187Zm2.346-.748a5.617,5.617,0,0,0,2.873.748c2.652,0,4.029-1.547,4.029-3.315a2.878,2.878,0,0,0-2.465-2.839V-6a2.744,2.744,0,0,0,2.04-2.6c0-1.343-.986-2.635-3.162-2.635a5.253,5.253,0,0,0-2.89.85L13.77-9.3a4.059,4.059,0,0,1,2.21-.731c1.377,0,1.938.782,1.938,1.666,0,1.309-1.377,1.87-2.465,1.87H14.62v1.122h.833c1.445,0,2.839.663,2.856,2.21.017.918-.578,2.142-2.5,2.142a5,5,0,0,1-2.448-.7Z" transform="translate(541.082 351.251)" fill="#d9000d"/><line x2="28.757" transform="translate(496.972 346.409)" fill="none" stroke="#d9000d" stroke-miterlimit="10" stroke-width="1.417"/><path d="M589.824,403.014l18.252-4.891-18.252-4.892Z" transform="translate(-67.431 -51.714)" fill="#d9000d"/><line x1="28.758" transform="translate(48.301 182.235)" fill="none" stroke="#d9000d" stroke-miterlimit="10" stroke-width="1.417"/><path d="M196.412,255.024l-18.251,4.892,18.251,4.891Z" transform="translate(-144.776 -77.681)" fill="#d9000d"/><line x1="28.759" transform="translate(85.689 141.022)" fill="none" stroke="#d9000d" stroke-miterlimit="10" stroke-width="1.417"/><path d="M227.888,220.331l-18.252,4.891,18.252,4.892Z" transform="translate(-138.863 -84.199)" fill="#d9000d"/><line y1="28.755" x2="0.397" transform="translate(95.915 130.225)" fill="none" stroke="#d9000d" stroke-miterlimit="10" stroke-width="1.417"/><path d="M236.76,221.121,232.122,202.8l-5.144,18.183Z" transform="translate(-135.604 -87.493)" fill="#d9000d"/><path d="M4.192-10.576C2.08-10.576.576-8.656.576-5.168.608-1.728,1.984.176,4.016.176c2.3,0,3.616-1.952,3.616-5.488C7.632-8.624,6.384-10.576,4.192-10.576Zm-.08,1.088c1.456,0,2.112,1.68,2.112,4.24,0,2.656-.688,4.336-2.128,4.336-1.28,0-2.112-1.536-2.112-4.24C1.984-7.984,2.88-9.488,4.112-9.488ZM9.984.176a.937.937,0,0,0,.96-1.008A.934.934,0,0,0,10-1.84.946.946,0,0,0,9.04-.832.942.942,0,0,0,9.984.176ZM13.056.16a6.557,6.557,0,0,0,1.3-.08,5.2,5.2,0,0,0,3.024-1.392,6.571,6.571,0,0,0,1.792-4.88c0-2.656-1.312-4.384-3.44-4.384a3.566,3.566,0,0,0-3.552,3.7A3.013,3.013,0,0,0,15.248-3.7,3.052,3.052,0,0,0,17.7-4.816h.048a4.564,4.564,0,0,1-1.376,2.768A3.923,3.923,0,0,1,14.192-1.04a5.875,5.875,0,0,1-1.136.048ZM15.616-9.5c1.472,0,2.128,1.36,2.128,3.136a.929.929,0,0,1-.128.512,2.328,2.328,0,0,1-2.048,1.088,2,2,0,0,1-2-2.208C13.568-8.448,14.416-9.5,15.616-9.5Zm11.04-.9H21.68l-.672,4.992a10.759,10.759,0,0,1,1.44-.112c2.08,0,2.976.96,2.992,2.3A2.3,2.3,0,0,1,22.976-.96a4.657,4.657,0,0,1-2.224-.576L20.4-.464a5.091,5.091,0,0,0,2.592.64,3.608,3.608,0,0,0,3.872-3.552,2.964,2.964,0,0,0-1.488-2.672,4.4,4.4,0,0,0-2.24-.56,5.56,5.56,0,0,0-.848.064l.4-2.672h3.968Z" transform="translate(0 186.077)" fill="#d9000d"/><path d="M4.192-10.576C2.08-10.576.576-8.656.576-5.168.608-1.728,1.984.176,4.016.176c2.3,0,3.616-1.952,3.616-5.488C7.632-8.624,6.384-10.576,4.192-10.576Zm-.08,1.088c1.456,0,2.112,1.68,2.112,4.24,0,2.656-.688,4.336-2.128,4.336-1.28,0-2.112-1.536-2.112-4.24C1.984-7.984,2.88-9.488,4.112-9.488ZM9.984.176a.937.937,0,0,0,.96-1.008A.934.934,0,0,0,10-1.84.946.946,0,0,0,9.04-.832.942.942,0,0,0,9.984.176ZM18.176-10.56a6.76,6.76,0,0,0-1.024.08,5.662,5.662,0,0,0-3.328,1.536,6.539,6.539,0,0,0-1.76,4.688c0,2.7,1.456,4.432,3.68,4.432A3.478,3.478,0,0,0,19.2-3.488a3.087,3.087,0,0,0-3.136-3.36,3.1,3.1,0,0,0-2.512,1.2H13.5a4.227,4.227,0,0,1,3.616-3.7,5.084,5.084,0,0,1,1.056-.064ZM15.744-.912c-1.472,0-2.256-1.264-2.288-2.976a1.2,1.2,0,0,1,.16-.624,2.317,2.317,0,0,1,2.016-1.28,2.113,2.113,0,0,1,2.144,2.384C17.776-1.92,16.96-.912,15.744-.912ZM20.4-.528a5.286,5.286,0,0,0,2.7.7c2.5,0,3.792-1.456,3.792-3.12a2.709,2.709,0,0,0-2.32-2.672v-.032A2.583,2.583,0,0,0,26.5-8.1c0-1.264-.928-2.48-2.976-2.48a4.944,4.944,0,0,0-2.72.8l.368,1.024a3.82,3.82,0,0,1,2.08-.688c1.3,0,1.824.736,1.824,1.568,0,1.232-1.3,1.76-2.32,1.76h-.784v1.056h.784c1.36,0,2.672.624,2.688,2.08.016.864-.544,2.016-2.352,2.016a4.706,4.706,0,0,1-2.3-.656Z" transform="translate(242.718 186.077)" fill="#d9000d"/><path d="M4.192-10.576C2.08-10.576.576-8.656.576-5.168.608-1.728,1.984.176,4.016.176c2.3,0,3.616-1.952,3.616-5.488C7.632-8.624,6.384-10.576,4.192-10.576Zm-.08,1.088c1.456,0,2.112,1.68,2.112,4.24,0,2.656-.688,4.336-2.128,4.336-1.28,0-2.112-1.536-2.112-4.24C1.984-7.984,2.88-9.488,4.112-9.488ZM9.984.176a.937.937,0,0,0,.96-1.008A.934.934,0,0,0,10-1.84.946.946,0,0,0,9.04-.832.942.942,0,0,0,9.984.176ZM18.176-10.56a6.76,6.76,0,0,0-1.024.08,5.662,5.662,0,0,0-3.328,1.536,6.539,6.539,0,0,0-1.76,4.688c0,2.7,1.456,4.432,3.68,4.432A3.478,3.478,0,0,0,19.2-3.488a3.087,3.087,0,0,0-3.136-3.36,3.1,3.1,0,0,0-2.512,1.2H13.5a4.227,4.227,0,0,1,3.616-3.7,5.084,5.084,0,0,1,1.056-.064ZM15.744-.912c-1.472,0-2.256-1.264-2.288-2.976a1.2,1.2,0,0,1,.16-.624,2.317,2.317,0,0,1,2.016-1.28,2.113,2.113,0,0,1,2.144,2.384C17.776-1.92,16.96-.912,15.744-.912ZM20.4-.528a5.286,5.286,0,0,0,2.7.7c2.5,0,3.792-1.456,3.792-3.12a2.709,2.709,0,0,0-2.32-2.672v-.032A2.583,2.583,0,0,0,26.5-8.1c0-1.264-.928-2.48-2.976-2.48a4.944,4.944,0,0,0-2.72.8l.368,1.024a3.82,3.82,0,0,1,2.08-.688c1.3,0,1.824.736,1.824,1.568,0,1.232-1.3,1.76-2.32,1.76h-.784v1.056h.784c1.36,0,2.672.624,2.688,2.08.016.864-.544,2.016-2.352,2.016a4.706,4.706,0,0,1-2.3-.656Z" transform="translate(42.074 144.916)" fill="#d9000d"/><path d="M4.454-11.237C2.21-11.237.612-9.2.612-5.491.646-1.836,2.108.187,4.267.187c2.448,0,3.842-2.074,3.842-5.831C8.109-9.163,6.783-11.237,4.454-11.237Zm-.085,1.156c1.547,0,2.244,1.785,2.244,4.505,0,2.822-.731,4.607-2.261,4.607-1.36,0-2.244-1.632-2.244-4.5C2.108-8.483,3.06-10.081,4.369-10.081ZM10.608.187a1,1,0,0,0,1.02-1.071.992.992,0,0,0-1-1.071A1,1,0,0,0,9.6-.884,1,1,0,0,0,10.608.187ZM16.252,0H17.7V-11.05H16.422L14.008-9.758,14.3-8.619l1.921-1.037h.034Z" transform="translate(102.143 124.894) rotate(0.792)" fill="#d9000d"/><line y1="28.755" x2="0.398" transform="translate(213.803 130.225)" fill="none" stroke="#d9000d" stroke-miterlimit="10" stroke-width="1.417"/><path d="M336,221.121,331.366,202.8l-5.144,18.183Z" transform="translate(-116.958 -87.493)" fill="#d9000d"/><path d="M4.454-11.237C2.21-11.237.612-9.2.612-5.491.646-1.836,2.108.187,4.267.187c2.448,0,3.842-2.074,3.842-5.831C8.109-9.163,6.783-11.237,4.454-11.237Zm-.085,1.156c1.547,0,2.244,1.785,2.244,4.505,0,2.822-.731,4.607-2.261,4.607-1.36,0-2.244-1.632-2.244-4.5C2.108-8.483,3.06-10.081,4.369-10.081ZM10.608.187a1,1,0,0,0,1.02-1.071.992.992,0,0,0-1-1.071A1,1,0,0,0,9.6-.884,1,1,0,0,0,10.608.187ZM16.252,0H17.7V-11.05H16.422L14.008-9.758,14.3-8.619l1.921-1.037h.034Z" transform="translate(220.032 124.894) rotate(0.792)" fill="#d9000d"/><line x1="28.758" transform="translate(87.551 62.222)" fill="none" stroke="#d9000d" stroke-miterlimit="10" stroke-width="1.417"/><path d="M229.455,153.994,211.2,158.885l18.252,4.892Z" transform="translate(-138.568 -96.663)" fill="#d9000d"/><line y1="28.754" x2="0.398" transform="translate(97.776 51.424)" fill="none" stroke="#d9000d" stroke-miterlimit="10" stroke-width="1.417"/><path d="M238.327,154.783l-4.639-18.317-5.142,18.183Z" transform="translate(-135.31 -99.956)" fill="#d9000d"/><path d="M4.454-11.237C2.21-11.237.612-9.2.612-5.491.646-1.836,2.108.187,4.267.187c2.448,0,3.842-2.074,3.842-5.831C8.109-9.163,6.783-11.237,4.454-11.237Zm-.085,1.156c1.547,0,2.244,1.785,2.244,4.505,0,2.822-.731,4.607-2.261,4.607-1.36,0-2.244-1.632-2.244-4.5C2.108-8.483,3.06-10.081,4.369-10.081ZM10.608.187a1,1,0,0,0,1.02-1.071.992.992,0,0,0-1-1.071A1,1,0,0,0,9.6-.884,1,1,0,0,0,10.608.187Zm8.7-11.407a7.183,7.183,0,0,0-1.088.085A6.015,6.015,0,0,0,14.688-9.5a6.948,6.948,0,0,0-1.87,4.981c0,2.873,1.547,4.709,3.91,4.709A3.7,3.7,0,0,0,20.4-3.706a3.28,3.28,0,0,0-3.332-3.57A3.293,3.293,0,0,0,14.4-6h-.051A4.491,4.491,0,0,1,18.19-9.928,5.4,5.4,0,0,1,19.312-10ZM16.728-.969c-1.564,0-2.4-1.343-2.431-3.162a1.273,1.273,0,0,1,.17-.663,2.462,2.462,0,0,1,2.142-1.36,2.245,2.245,0,0,1,2.278,2.533C18.887-2.04,18.02-.969,16.728-.969Z" transform="translate(90.489 32.361)" fill="#d9000d"/><path d="M4.454-11.237C2.21-11.237.612-9.2.612-5.491.646-1.836,2.108.187,4.267.187c2.448,0,3.842-2.074,3.842-5.831C8.109-9.163,6.783-11.237,4.454-11.237Zm-.085,1.156c1.547,0,2.244,1.785,2.244,4.505,0,2.822-.731,4.607-2.261,4.607-1.36,0-2.244-1.632-2.244-4.5C2.108-8.483,3.06-10.081,4.369-10.081ZM10.608.187a1,1,0,0,0,1.02-1.071.992.992,0,0,0-1-1.071A1,1,0,0,0,9.6-.884,1,1,0,0,0,10.608.187Zm8.7-11.407a7.183,7.183,0,0,0-1.088.085A6.015,6.015,0,0,0,14.688-9.5a6.948,6.948,0,0,0-1.87,4.981c0,2.873,1.547,4.709,3.91,4.709A3.7,3.7,0,0,0,20.4-3.706a3.28,3.28,0,0,0-3.332-3.57A3.293,3.293,0,0,0,14.4-6h-.051A4.491,4.491,0,0,1,18.19-9.928,5.4,5.4,0,0,1,19.312-10ZM16.728-.969c-1.564,0-2.4-1.343-2.431-3.162a1.273,1.273,0,0,1,.17-.663,2.462,2.462,0,0,1,2.142-1.36,2.245,2.245,0,0,1,2.278,2.533C18.887-2.04,18.02-.969,16.728-.969Z" transform="translate(178.593 30.788)" fill="#d9000d"/><line y1="14.5" x2="0.201" transform="translate(497.414 75.336)" fill="none" stroke="#d9000d" stroke-miterlimit="10" stroke-width="1.417"/><path d="M574.591,174.914,569.952,156.6l-5.144,18.183Z" transform="translate(-72.131 -96.174)" fill="#d9000d"/><path d="M4.454-11.237C2.21-11.237.612-9.2.612-5.491.646-1.836,2.108.187,4.267.187c2.448,0,3.842-2.074,3.842-5.831C8.109-9.163,6.783-11.237,4.454-11.237Zm-.085,1.156c1.547,0,2.244,1.785,2.244,4.505,0,2.822-.731,4.607-2.261,4.607-1.36,0-2.244-1.632-2.244-4.5C2.108-8.483,3.06-10.081,4.369-10.081ZM10.608.187a1,1,0,0,0,1.02-1.071.992.992,0,0,0-1-1.071A1,1,0,0,0,9.6-.884,1,1,0,0,0,10.608.187ZM16.252,0H17.7V-11.05H16.422L14.008-9.758,14.3-8.619l1.921-1.037h.034Z" transform="translate(504.632 87.191) rotate(0.792)" fill="#d9000d"/><line x2="28.757" transform="translate(198.597 182.235)" fill="none" stroke="#d9000d" stroke-miterlimit="10" stroke-width="1.417"/><path d="M338.643,264.807l18.252-4.89-18.252-4.892Z" transform="translate(-114.624 -77.681)" fill="#d9000d"/><path d="M4.192-10.576C2.08-10.576.576-8.656.576-5.168.608-1.728,1.984.176,4.016.176c2.3,0,3.616-1.952,3.616-5.488C7.632-8.624,6.384-10.576,4.192-10.576Zm-.08,1.088c1.456,0,2.112,1.68,2.112,4.24,0,2.656-.688,4.336-2.128,4.336-1.28,0-2.112-1.536-2.112-4.24C1.984-7.984,2.88-9.488,4.112-9.488ZM9.984.176a.937.937,0,0,0,.96-1.008A.934.934,0,0,0,10-1.84.946.946,0,0,0,9.04-.832.942.942,0,0,0,9.984.176ZM18.176-10.56a6.76,6.76,0,0,0-1.024.08,5.662,5.662,0,0,0-3.328,1.536,6.539,6.539,0,0,0-1.76,4.688c0,2.7,1.456,4.432,3.68,4.432A3.478,3.478,0,0,0,19.2-3.488a3.087,3.087,0,0,0-3.136-3.36,3.1,3.1,0,0,0-2.512,1.2H13.5a4.227,4.227,0,0,1,3.616-3.7,5.084,5.084,0,0,1,1.056-.064ZM15.744-.912c-1.472,0-2.256-1.264-2.288-2.976a1.2,1.2,0,0,1,.16-.624,2.317,2.317,0,0,1,2.016-1.28,2.113,2.113,0,0,1,2.144,2.384C17.776-1.92,16.96-.912,15.744-.912ZM20.4-.528a5.286,5.286,0,0,0,2.7.7c2.5,0,3.792-1.456,3.792-3.12a2.709,2.709,0,0,0-2.32-2.672v-.032A2.583,2.583,0,0,0,26.5-8.1c0-1.264-.928-2.48-2.976-2.48a4.944,4.944,0,0,0-2.72.8l.368,1.024a3.82,3.82,0,0,1,2.08-.688c1.3,0,1.824.736,1.824,1.568,0,1.232-1.3,1.76-2.32,1.76h-.784v1.056h.784c1.36,0,2.672.624,2.688,2.08.016.864-.544,2.016-2.352,2.016a4.706,4.706,0,0,1-2.3-.656Z" transform="translate(242.71 144.503)" fill="#d9000d"/><line x2="28.757" transform="translate(198.597 140.662)" fill="none" stroke="#d9000d" stroke-miterlimit="10" stroke-width="1.417"/><path d="M338.643,229.81l18.252-4.892-18.252-4.892Z" transform="translate(-114.624 -84.256)" fill="#d9000d"/><line x1="28.759" transform="translate(362.034 186.522)" fill="none" stroke="#d9000d" stroke-miterlimit="10" stroke-width="1.417"/><path d="M460.523,258.633l-18.252,4.892,18.252,4.891Z" transform="translate(-95.154 -77.003)" fill="#d9000d"/><line x1="28.758" transform="translate(417.283 141.022)" fill="none" stroke="#d9000d" stroke-miterlimit="10" stroke-width="1.417"/><path d="M507.033,220.331l-18.251,4.891,18.251,4.892Z" transform="translate(-86.415 -84.199)" fill="#d9000d"/><line y1="28.755" x2="0.398" transform="translate(427.508 130.225)" fill="none" stroke="#d9000d" stroke-miterlimit="10" stroke-width="1.417"/><path d="M515.906,221.121,511.268,202.8l-5.142,18.183Z" transform="translate(-83.157 -87.493)" fill="#d9000d"/><path d="M4.192-10.576C2.08-10.576.576-8.656.576-5.168.608-1.728,1.984.176,4.016.176c2.3,0,3.616-1.952,3.616-5.488C7.632-8.624,6.384-10.576,4.192-10.576Zm-.08,1.088c1.456,0,2.112,1.68,2.112,4.24,0,2.656-.688,4.336-2.128,4.336-1.28,0-2.112-1.536-2.112-4.24C1.984-7.984,2.88-9.488,4.112-9.488ZM9.984.176a.937.937,0,0,0,.96-1.008A.934.934,0,0,0,10-1.84.946.946,0,0,0,9.04-.832.942.942,0,0,0,9.984.176ZM13.056.16a6.557,6.557,0,0,0,1.3-.08,5.2,5.2,0,0,0,3.024-1.392,6.571,6.571,0,0,0,1.792-4.88c0-2.656-1.312-4.384-3.44-4.384a3.566,3.566,0,0,0-3.552,3.7A3.013,3.013,0,0,0,15.248-3.7,3.052,3.052,0,0,0,17.7-4.816h.048a4.564,4.564,0,0,1-1.376,2.768A3.923,3.923,0,0,1,14.192-1.04a5.875,5.875,0,0,1-1.136.048ZM15.616-9.5c1.472,0,2.128,1.36,2.128,3.136a.929.929,0,0,1-.128.512,2.328,2.328,0,0,1-2.048,1.088,2,2,0,0,1-2-2.208C13.568-8.448,14.416-9.5,15.616-9.5Zm11.04-.9H21.68l-.672,4.992a10.759,10.759,0,0,1,1.44-.112c2.08,0,2.976.96,2.992,2.3A2.3,2.3,0,0,1,22.976-.96a4.657,4.657,0,0,1-2.224-.576L20.4-.464a5.091,5.091,0,0,0,2.592.64,3.608,3.608,0,0,0,3.872-3.552,2.964,2.964,0,0,0-1.488-2.672,4.4,4.4,0,0,0-2.24-.56,5.56,5.56,0,0,0-.848.064l.4-2.672h3.968Z" transform="translate(313.734 190.363)" fill="#d9000d"/><path d="M4.192-10.576C2.08-10.576.576-8.656.576-5.168.608-1.728,1.984.176,4.016.176c2.3,0,3.616-1.952,3.616-5.488C7.632-8.624,6.384-10.576,4.192-10.576Zm-.08,1.088c1.456,0,2.112,1.68,2.112,4.24,0,2.656-.688,4.336-2.128,4.336-1.28,0-2.112-1.536-2.112-4.24C1.984-7.984,2.88-9.488,4.112-9.488ZM9.984.176a.937.937,0,0,0,.96-1.008A.934.934,0,0,0,10-1.84.946.946,0,0,0,9.04-.832.942.942,0,0,0,9.984.176ZM18.176-10.56a6.76,6.76,0,0,0-1.024.08,5.662,5.662,0,0,0-3.328,1.536,6.539,6.539,0,0,0-1.76,4.688c0,2.7,1.456,4.432,3.68,4.432A3.478,3.478,0,0,0,19.2-3.488a3.087,3.087,0,0,0-3.136-3.36,3.1,3.1,0,0,0-2.512,1.2H13.5a4.227,4.227,0,0,1,3.616-3.7,5.084,5.084,0,0,1,1.056-.064ZM15.744-.912c-1.472,0-2.256-1.264-2.288-2.976a1.2,1.2,0,0,1,.16-.624,2.317,2.317,0,0,1,2.016-1.28,2.113,2.113,0,0,1,2.144,2.384C17.776-1.92,16.96-.912,15.744-.912ZM20.4-.528a5.286,5.286,0,0,0,2.7.7c2.5,0,3.792-1.456,3.792-3.12a2.709,2.709,0,0,0-2.32-2.672v-.032A2.583,2.583,0,0,0,26.5-8.1c0-1.264-.928-2.48-2.976-2.48a4.944,4.944,0,0,0-2.72.8l.368,1.024a3.82,3.82,0,0,1,2.08-.688c1.3,0,1.824.736,1.824,1.568,0,1.232-1.3,1.76-2.32,1.76h-.784v1.056h.784c1.36,0,2.672.624,2.688,2.08.016.864-.544,2.016-2.352,2.016a4.706,4.706,0,0,1-2.3-.656Z" transform="translate(574.31 186.084)" fill="#d9000d"/><path d="M4.192-10.576C2.08-10.576.576-8.656.576-5.168.608-1.728,1.984.176,4.016.176c2.3,0,3.616-1.952,3.616-5.488C7.632-8.624,6.384-10.576,4.192-10.576Zm-.08,1.088c1.456,0,2.112,1.68,2.112,4.24,0,2.656-.688,4.336-2.128,4.336-1.28,0-2.112-1.536-2.112-4.24C1.984-7.984,2.88-9.488,4.112-9.488ZM9.984.176a.937.937,0,0,0,.96-1.008A.934.934,0,0,0,10-1.84.946.946,0,0,0,9.04-.832.942.942,0,0,0,9.984.176ZM18.176-10.56a6.76,6.76,0,0,0-1.024.08,5.662,5.662,0,0,0-3.328,1.536,6.539,6.539,0,0,0-1.76,4.688c0,2.7,1.456,4.432,3.68,4.432A3.478,3.478,0,0,0,19.2-3.488a3.087,3.087,0,0,0-3.136-3.36,3.1,3.1,0,0,0-2.512,1.2H13.5a4.227,4.227,0,0,1,3.616-3.7,5.084,5.084,0,0,1,1.056-.064ZM15.744-.912c-1.472,0-2.256-1.264-2.288-2.976a1.2,1.2,0,0,1,.16-.624,2.317,2.317,0,0,1,2.016-1.28,2.113,2.113,0,0,1,2.144,2.384C17.776-1.92,16.96-.912,15.744-.912ZM20.4-.528a5.286,5.286,0,0,0,2.7.7c2.5,0,3.792-1.456,3.792-3.12a2.709,2.709,0,0,0-2.32-2.672v-.032A2.583,2.583,0,0,0,26.5-8.1c0-1.264-.928-2.48-2.976-2.48a4.944,4.944,0,0,0-2.72.8l.368,1.024a3.82,3.82,0,0,1,2.08-.688c1.3,0,1.824.736,1.824,1.568,0,1.232-1.3,1.76-2.32,1.76h-.784v1.056h.784c1.36,0,2.672.624,2.688,2.08.016.864-.544,2.016-2.352,2.016a4.706,4.706,0,0,1-2.3-.656Z" transform="translate(373.665 144.924)" fill="#d9000d"/><path d="M4.454-11.237C2.21-11.237.612-9.2.612-5.491.646-1.836,2.108.187,4.267.187c2.448,0,3.842-2.074,3.842-5.831C8.109-9.163,6.783-11.237,4.454-11.237Zm-.085,1.156c1.547,0,2.244,1.785,2.244,4.505,0,2.822-.731,4.607-2.261,4.607-1.36,0-2.244-1.632-2.244-4.5C2.108-8.483,3.06-10.081,4.369-10.081ZM10.608.187a1,1,0,0,0,1.02-1.071.992.992,0,0,0-1-1.071A1,1,0,0,0,9.6-.884,1,1,0,0,0,10.608.187ZM16.252,0H17.7V-11.05H16.422L14.008-9.758,14.3-8.619l1.921-1.037h.034Z" transform="translate(433.734 124.893) rotate(0.792)" fill="#d9000d"/><line y1="28.755" x2="0.398" transform="translate(546.056 130.225)" fill="none" stroke="#d9000d" stroke-miterlimit="10" stroke-width="1.417"/><path d="M615.7,221.121,611.067,202.8l-5.143,18.183Z" transform="translate(-64.406 -87.493)" fill="#d9000d"/><path d="M4.454-11.237C2.21-11.237.612-9.2.612-5.491.646-1.836,2.108.187,4.267.187c2.448,0,3.842-2.074,3.842-5.831C8.109-9.163,6.783-11.237,4.454-11.237Zm-.085,1.156c1.547,0,2.244,1.785,2.244,4.505,0,2.822-.731,4.607-2.261,4.607-1.36,0-2.244-1.632-2.244-4.5C2.108-8.483,3.06-10.081,4.369-10.081ZM10.608.187a1,1,0,0,0,1.02-1.071.992.992,0,0,0-1-1.071A1,1,0,0,0,9.6-.884,1,1,0,0,0,10.608.187ZM16.252,0H17.7V-11.05H16.422L14.008-9.758,14.3-8.619l1.921-1.037h.034Z" transform="translate(552.283 124.893) rotate(0.792)" fill="#d9000d"/><line x2="28.757" transform="translate(530.19 182.235)" fill="none" stroke="#d9000d" stroke-miterlimit="10" stroke-width="1.417"/><path d="M617.788,264.807l18.252-4.89-18.252-4.892Z" transform="translate(-62.177 -77.681)" fill="#d9000d"/><path d="M4.192-10.576C2.08-10.576.576-8.656.576-5.168.608-1.728,1.984.176,4.016.176c2.3,0,3.616-1.952,3.616-5.488C7.632-8.624,6.384-10.576,4.192-10.576Zm-.08,1.088c1.456,0,2.112,1.68,2.112,4.24,0,2.656-.688,4.336-2.128,4.336-1.28,0-2.112-1.536-2.112-4.24C1.984-7.984,2.88-9.488,4.112-9.488ZM9.984.176a.937.937,0,0,0,.96-1.008A.934.934,0,0,0,10-1.84.946.946,0,0,0,9.04-.832.942.942,0,0,0,9.984.176ZM18.176-10.56a6.76,6.76,0,0,0-1.024.08,5.662,5.662,0,0,0-3.328,1.536,6.539,6.539,0,0,0-1.76,4.688c0,2.7,1.456,4.432,3.68,4.432A3.478,3.478,0,0,0,19.2-3.488a3.087,3.087,0,0,0-3.136-3.36,3.1,3.1,0,0,0-2.512,1.2H13.5a4.227,4.227,0,0,1,3.616-3.7,5.084,5.084,0,0,1,1.056-.064ZM15.744-.912c-1.472,0-2.256-1.264-2.288-2.976a1.2,1.2,0,0,1,.16-.624,2.317,2.317,0,0,1,2.016-1.28,2.113,2.113,0,0,1,2.144,2.384C17.776-1.92,16.96-.912,15.744-.912ZM20.4-.528a5.286,5.286,0,0,0,2.7.7c2.5,0,3.792-1.456,3.792-3.12a2.709,2.709,0,0,0-2.32-2.672v-.032A2.583,2.583,0,0,0,26.5-8.1c0-1.264-.928-2.48-2.976-2.48a4.944,4.944,0,0,0-2.72.8l.368,1.024a3.82,3.82,0,0,1,2.08-.688c1.3,0,1.824.736,1.824,1.568,0,1.232-1.3,1.76-2.32,1.76h-.784v1.056h.784c1.36,0,2.672.624,2.688,2.08.016.864-.544,2.016-2.352,2.016a4.706,4.706,0,0,1-2.3-.656Z" transform="translate(574.303 144.503)" fill="#d9000d"/><line x2="28.757" transform="translate(530.19 140.662)" fill="none" stroke="#d9000d" stroke-miterlimit="10" stroke-width="1.417"/><path d="M617.788,229.81l18.252-4.892-18.252-4.892Z" transform="translate(-62.177 -84.256)" fill="#d9000d"/><line y1="28.755" x2="0.397" transform="translate(188.184 47.907)" fill="none" stroke="#d9000d" stroke-miterlimit="10" stroke-width="1.417"/><path d="M314.436,151.823,309.8,133.5l-5.144,18.183Z" transform="translate(-121.01 -100.513)" fill="#d9000d"/><path d="M4.192-10.576C2.08-10.576.576-8.656.576-5.168.608-1.728,1.984.176,4.016.176c2.3,0,3.616-1.952,3.616-5.488C7.632-8.624,6.384-10.576,4.192-10.576Zm-.08,1.088c1.456,0,2.112,1.68,2.112,4.24,0,2.656-.688,4.336-2.128,4.336-1.28,0-2.112-1.536-2.112-4.24C1.984-7.984,2.88-9.488,4.112-9.488ZM9.984.176a.937.937,0,0,0,.96-1.008A.934.934,0,0,0,10-1.84.946.946,0,0,0,9.04-.832.942.942,0,0,0,9.984.176ZM18.176-10.56a6.76,6.76,0,0,0-1.024.08,5.662,5.662,0,0,0-3.328,1.536,6.539,6.539,0,0,0-1.76,4.688c0,2.7,1.456,4.432,3.68,4.432A3.478,3.478,0,0,0,19.2-3.488a3.087,3.087,0,0,0-3.136-3.36,3.1,3.1,0,0,0-2.512,1.2H13.5a4.227,4.227,0,0,1,3.616-3.7,5.084,5.084,0,0,1,1.056-.064ZM15.744-.912c-1.472,0-2.256-1.264-2.288-2.976a1.2,1.2,0,0,1,.16-.624,2.317,2.317,0,0,1,2.016-1.28,2.113,2.113,0,0,1,2.144,2.384C17.776-1.92,16.96-.912,15.744-.912ZM20.4-.528a5.286,5.286,0,0,0,2.7.7c2.5,0,3.792-1.456,3.792-3.12a2.709,2.709,0,0,0-2.32-2.672v-.032A2.583,2.583,0,0,0,26.5-8.1c0-1.264-.928-2.48-2.976-2.48a4.944,4.944,0,0,0-2.72.8l.368,1.024a3.82,3.82,0,0,1,2.08-.688c1.3,0,1.824.736,1.824,1.568,0,1.232-1.3,1.76-2.32,1.76h-.784v1.056h.784c1.36,0,2.672.624,2.688,2.08.016.864-.544,2.016-2.352,2.016a4.706,4.706,0,0,1-2.3-.656Z" transform="translate(216.928 62.185)" fill="#d9000d"/><path d="M4.192-10.576C2.08-10.576.576-8.656.576-5.168.608-1.728,1.984.176,4.016.176c2.3,0,3.616-1.952,3.616-5.488C7.632-8.624,6.384-10.576,4.192-10.576Zm-.08,1.088c1.456,0,2.112,1.68,2.112,4.24,0,2.656-.688,4.336-2.128,4.336-1.28,0-2.112-1.536-2.112-4.24C1.984-7.984,2.88-9.488,4.112-9.488ZM9.984.176a.937.937,0,0,0,.96-1.008A.934.934,0,0,0,10-1.84.946.946,0,0,0,9.04-.832.942.942,0,0,0,9.984.176ZM18.176-10.56a6.76,6.76,0,0,0-1.024.08,5.662,5.662,0,0,0-3.328,1.536,6.539,6.539,0,0,0-1.76,4.688c0,2.7,1.456,4.432,3.68,4.432A3.478,3.478,0,0,0,19.2-3.488a3.087,3.087,0,0,0-3.136-3.36,3.1,3.1,0,0,0-2.512,1.2H13.5a4.227,4.227,0,0,1,3.616-3.7,5.084,5.084,0,0,1,1.056-.064ZM15.744-.912c-1.472,0-2.256-1.264-2.288-2.976a1.2,1.2,0,0,1,.16-.624,2.317,2.317,0,0,1,2.016-1.28,2.113,2.113,0,0,1,2.144,2.384C17.776-1.92,16.96-.912,15.744-.912ZM20.4-.528a5.286,5.286,0,0,0,2.7.7c2.5,0,3.792-1.456,3.792-3.12a2.709,2.709,0,0,0-2.32-2.672v-.032A2.583,2.583,0,0,0,26.5-8.1c0-1.264-.928-2.48-2.976-2.48a4.944,4.944,0,0,0-2.72.8l.368,1.024a3.82,3.82,0,0,1,2.08-.688c1.3,0,1.824.736,1.824,1.568,0,1.232-1.3,1.76-2.32,1.76h-.784v1.056h.784c1.36,0,2.672.624,2.688,2.08.016.864-.544,2.016-2.352,2.016a4.706,4.706,0,0,1-2.3-.656Z" transform="translate(42.056 66.413)" fill="#d9000d"/><line x2="28.757" transform="translate(172.815 58.344)" fill="none" stroke="#d9000d" stroke-miterlimit="10" stroke-width="1.417"/><path d="M316.939,160.512l18.252-4.892-18.252-4.892Z" transform="translate(-118.702 -97.277)" fill="#d9000d"/><line x1="28.758" transform="translate(442.724 45.861)" fill="none" stroke="#d9000d" stroke-miterlimit="10" stroke-width="1.417"/><path d="M528.451,140.221,510.2,145.111,528.451,150Z" transform="translate(-82.391 -99.251)" fill="#d9000d"/><line y1="28.755" x2="0.398" transform="translate(452.949 35.063)" fill="none" stroke="#d9000d" stroke-miterlimit="10" stroke-width="1.417"/><path d="M537.323,141.011l-4.639-18.318-5.142,18.183Z" transform="translate(-79.133 -102.544)" fill="#d9000d"/><path d="M4.454-11.237C2.21-11.237.612-9.2.612-5.491.646-1.836,2.108.187,4.267.187c2.448,0,3.842-2.074,3.842-5.831C8.109-9.163,6.783-11.237,4.454-11.237Zm-.085,1.156c1.547,0,2.244,1.785,2.244,4.505,0,2.822-.731,4.607-2.261,4.607-1.36,0-2.244-1.632-2.244-4.5C2.108-8.483,3.06-10.081,4.369-10.081ZM10.608.187a1,1,0,0,0,1.02-1.071.992.992,0,0,0-1-1.071A1,1,0,0,0,9.6-.884,1,1,0,0,0,10.608.187Zm8.7-11.407a7.183,7.183,0,0,0-1.088.085A6.015,6.015,0,0,0,14.688-9.5a6.948,6.948,0,0,0-1.87,4.981c0,2.873,1.547,4.709,3.91,4.709A3.7,3.7,0,0,0,20.4-3.706a3.28,3.28,0,0,0-3.332-3.57A3.293,3.293,0,0,0,14.4-6h-.051A4.491,4.491,0,0,1,18.19-9.928,5.4,5.4,0,0,1,19.312-10ZM16.728-.969c-1.564,0-2.4-1.343-2.431-3.162a1.273,1.273,0,0,1,.17-.663,2.462,2.462,0,0,1,2.142-1.36,2.245,2.245,0,0,1,2.278,2.533C18.887-2.04,18.02-.969,16.728-.969Z" transform="translate(445.661 16)" fill="#d9000d"/><path d="M4.454-11.237C2.21-11.237.612-9.2.612-5.491.646-1.836,2.108.187,4.267.187c2.448,0,3.842-2.074,3.842-5.831C8.109-9.163,6.783-11.237,4.454-11.237Zm-.085,1.156c1.547,0,2.244,1.785,2.244,4.505,0,2.822-.731,4.607-2.261,4.607-1.36,0-2.244-1.632-2.244-4.5C2.108-8.483,3.06-10.081,4.369-10.081ZM10.608.187a1,1,0,0,0,1.02-1.071.992.992,0,0,0-1-1.071A1,1,0,0,0,9.6-.884,1,1,0,0,0,10.608.187Zm8.7-11.407a7.183,7.183,0,0,0-1.088.085A6.015,6.015,0,0,0,14.688-9.5a6.948,6.948,0,0,0-1.87,4.981c0,2.873,1.547,4.709,3.91,4.709A3.7,3.7,0,0,0,20.4-3.706a3.28,3.28,0,0,0-3.332-3.57A3.293,3.293,0,0,0,14.4-6h-.051A4.491,4.491,0,0,1,18.19-9.928,5.4,5.4,0,0,1,19.312-10ZM16.728-.969c-1.564,0-2.4-1.343-2.431-3.162a1.273,1.273,0,0,1,.17-.663,2.462,2.462,0,0,1,2.142-1.36,2.245,2.245,0,0,1,2.278,2.533C18.887-2.04,18.02-.969,16.728-.969Z" transform="translate(541.968 31.575)" fill="#d9000d"/><line y1="28.755" x2="0.398" transform="translate(551.557 48.697)" fill="none" stroke="#d9000d" stroke-miterlimit="10" stroke-width="1.417"/><path d="M620.335,152.488,615.7,134.17l-5.142,18.183Z" transform="translate(-63.536 -100.388)" fill="#d9000d"/><path d="M3.144-7.932C1.56-7.932.432-6.492.432-3.876.456-1.3,1.488.132,3.012.132c1.728,0,2.712-1.464,2.712-4.116C5.724-6.468,4.788-7.932,3.144-7.932Zm-.06.816c1.092,0,1.584,1.26,1.584,3.18,0,1.992-.516,3.252-1.6,3.252-.96,0-1.584-1.152-1.584-3.18C1.488-5.988,2.16-7.116,3.084-7.116ZM7.488.132a.7.7,0,0,0,.72-.756A.7.7,0,0,0,7.5-1.38a.709.709,0,0,0-.72.756A.707.707,0,0,0,7.488.132ZM13.632-7.92a5.07,5.07,0,0,0-.768.06,4.246,4.246,0,0,0-2.5,1.152,4.9,4.9,0,0,0-1.32,3.516c0,2.028,1.092,3.324,2.76,3.324A2.608,2.608,0,0,0,14.4-2.616a2.316,2.316,0,0,0-2.352-2.52,2.324,2.324,0,0,0-1.884.9h-.036A3.17,3.17,0,0,1,12.84-7.008a3.813,3.813,0,0,1,.792-.048ZM11.808-.684c-1.1,0-1.692-.948-1.716-2.232a.9.9,0,0,1,.12-.468,1.738,1.738,0,0,1,1.512-.96,1.585,1.585,0,0,1,1.608,1.788C13.332-1.44,12.72-.684,11.808-.684Z" transform="translate(492.659 11.983)" fill="#d9000d"/><line y1="15.268" x2="0.282" transform="translate(496.114 41.367)" fill="none" stroke="#d9000d" stroke-miterlimit="10" stroke-width="1.417"/><path d="M573.551,146.34,569,128l-5.229,18.158Z" transform="translate(-72.326 -101.547)" fill="#d9000d"/><line y1="24.796" x2="0.431" transform="translate(502.353 27.775)" fill="none" stroke="#d9000d" stroke-miterlimit="10" stroke-width="1.417"/><path d="M578.931,134.893l-4.573-18.335-5.206,18.164Z" transform="translate(-71.315 -103.697)" fill="#d9000d"/><line y1="15.204" x2="0.28" transform="translate(509.241 41.997)" fill="none" stroke="#d9000d" stroke-miterlimit="10" stroke-width="1.417"/><path d="M584.6,146.871l-4.552-18.34L574.82,146.69Z" transform="translate(-70.25 -101.447)" fill="#d9000d"/><path d="M4.192-10.576C2.08-10.576.576-8.656.576-5.168.608-1.728,1.984.176,4.016.176c2.3,0,3.616-1.952,3.616-5.488C7.632-8.624,6.384-10.576,4.192-10.576Zm-.08,1.088c1.456,0,2.112,1.68,2.112,4.24,0,2.656-.688,4.336-2.128,4.336-1.28,0-2.112-1.536-2.112-4.24C1.984-7.984,2.88-9.488,4.112-9.488ZM9.984.176a.937.937,0,0,0,.96-1.008A.934.934,0,0,0,10-1.84.946.946,0,0,0,9.04-.832.942.942,0,0,0,9.984.176ZM18.176-10.56a6.76,6.76,0,0,0-1.024.08,5.662,5.662,0,0,0-3.328,1.536,6.539,6.539,0,0,0-1.76,4.688c0,2.7,1.456,4.432,3.68,4.432A3.478,3.478,0,0,0,19.2-3.488a3.087,3.087,0,0,0-3.136-3.36,3.1,3.1,0,0,0-2.512,1.2H13.5a4.227,4.227,0,0,1,3.616-3.7,5.084,5.084,0,0,1,1.056-.064ZM15.744-.912c-1.472,0-2.256-1.264-2.288-2.976a1.2,1.2,0,0,1,.16-.624,2.317,2.317,0,0,1,2.016-1.28,2.113,2.113,0,0,1,2.144,2.384C17.776-1.92,16.96-.912,15.744-.912ZM20.4-.528a5.286,5.286,0,0,0,2.7.7c2.5,0,3.792-1.456,3.792-3.12a2.709,2.709,0,0,0-2.32-2.672v-.032A2.583,2.583,0,0,0,26.5-8.1c0-1.264-.928-2.48-2.976-2.48a4.944,4.944,0,0,0-2.72.8l.368,1.024a3.82,3.82,0,0,1,2.08-.688c1.3,0,1.824.736,1.824,1.568,0,1.232-1.3,1.76-2.32,1.76h-.784v1.056h.784c1.36,0,2.672.624,2.688,2.08.016.864-.544,2.016-2.352,2.016a4.706,4.706,0,0,1-2.3-.656Z" transform="translate(580.303 62.976)" fill="#d9000d"/><path d="M4.192-10.576C2.08-10.576.576-8.656.576-5.168.608-1.728,1.984.176,4.016.176c2.3,0,3.616-1.952,3.616-5.488C7.632-8.624,6.384-10.576,4.192-10.576Zm-.08,1.088c1.456,0,2.112,1.68,2.112,4.24,0,2.656-.688,4.336-2.128,4.336-1.28,0-2.112-1.536-2.112-4.24C1.984-7.984,2.88-9.488,4.112-9.488ZM9.984.176a.937.937,0,0,0,.96-1.008A.934.934,0,0,0,10-1.84.946.946,0,0,0,9.04-.832.942.942,0,0,0,9.984.176ZM18.176-10.56a6.76,6.76,0,0,0-1.024.08,5.662,5.662,0,0,0-3.328,1.536,6.539,6.539,0,0,0-1.76,4.688c0,2.7,1.456,4.432,3.68,4.432A3.478,3.478,0,0,0,19.2-3.488a3.087,3.087,0,0,0-3.136-3.36,3.1,3.1,0,0,0-2.512,1.2H13.5a4.227,4.227,0,0,1,3.616-3.7,5.084,5.084,0,0,1,1.056-.064ZM15.744-.912c-1.472,0-2.256-1.264-2.288-2.976a1.2,1.2,0,0,1,.16-.624,2.317,2.317,0,0,1,2.016-1.28,2.113,2.113,0,0,1,2.144,2.384C17.776-1.92,16.96-.912,15.744-.912ZM20.4-.528a5.286,5.286,0,0,0,2.7.7c2.5,0,3.792-1.456,3.792-3.12a2.709,2.709,0,0,0-2.32-2.672v-.032A2.583,2.583,0,0,0,26.5-8.1c0-1.264-.928-2.48-2.976-2.48a4.944,4.944,0,0,0-2.72.8l.368,1.024a3.82,3.82,0,0,1,2.08-.688c1.3,0,1.824.736,1.824,1.568,0,1.232-1.3,1.76-2.32,1.76h-.784v1.056h.784c1.36,0,2.672.624,2.688,2.08.016.864-.544,2.016-2.352,2.016a4.706,4.706,0,0,1-2.3-.656Z" transform="translate(397.228 50.057)" fill="#d9000d"/><line x2="28.758" transform="translate(536.189 59.135)" fill="none" stroke="#d9000d" stroke-miterlimit="10" stroke-width="1.417"/><path d="M622.839,161.177l18.251-4.891-18.251-4.892Z" transform="translate(-61.228 -97.151)" fill="#d9000d"/></g></g></svg>