<svg xmlns="http://www.w3.org/2000/svg" width="190" height="245" viewBox="0 0 190 245"><g transform="translate(-390 -16349)"><rect width="190" height="245" transform="translate(390 16349)" fill="none"/><g transform="translate(451.9 16366.489)"><path d="M169.337,337.244c1.561-1.471,13.093.785,25.814.425s27.823-3.7,28.772-2.254-8.366,6.858-8.366,6.858L176.336,343Z" transform="translate(-150.991 -335.054)" fill="#0f2039"/><path d="M241.894,490.31c-1.167-9.53-2.815-22.548-4.787-37.717-1.766-13.569-1.508-36.195-1.744-44.961-.743-27.284-7.155-57.66-7.754-63.181-.17-1.583.56-10.224-2.309-9.038-8.136,3.373-25.5,5.013-28.053,5.066-2.99.062-17.282-.587-24.889-3.477-2.582-.981-1.788,5.689-2.2,8.087-4.659,8.042-5.873,40.942-6.811,59.507-.432,8.5,2.118,31.215.605,44.405-.552,4.81-4.8,27.251-6.628,38.289-2.97,17.991-4.089,57.161-4.089,57.161s5.967,4.507,19.882,3.9,18.912-4.375,18.912-4.375-.157-61.831.722-79.761,2.374-60.667,5.652-75.839c.1-.472.2-.955.292-1.447q.149.713.32,1.4c3.7,15.029,4.631,57.895,6,75.781s2.934,79.683,2.934,79.683,5.1,3.572,19.023,3.619,19.759-4.693,19.759-4.693S244.1,508.365,241.894,490.31Z" transform="translate(-153.238 -335.019)" fill="#00416f"/><path d="M204.4,366.594c-3.311,1.03-2.262-14.627-.568-13.269s15.7,6.389,17.143,6.579.224,7.1-.071,7.912S205.7,366.188,204.4,366.594Z" transform="translate(-146.399 -332.515)" fill="#005177"/><path d="M190.531,369.739c-5.52,1.1-21.224-4.2-18.553-5.146s14.085-13.464,13.529-16.211,6.256-2.941,6.521,0S192.564,369.332,190.531,369.739Z" transform="translate(-150.664 -333.491)" fill="#005177"/><path d="M212.284,530.7c-6.019-.464-3.17-2.842-3.809-18.818s-1.153-37.677-3.362-55.207-4.371-49.445-4.093-58.231-4.849-15.975-.365-16.714,18.432-4.759,22.453-.854,2.76,48.036,2.848,59.388,9.3,50.721,9.1,63.555,1.217,25.257-1.984,26.882S219.3,531.239,212.284,530.7Z" transform="translate(-146.877 -328.893)" fill="#005177"/><path d="M173.6,527.857c-10.9,1.34-13.573-10.036-14.245-21.681s1.607-16.052,3.058-32.127,6.99-28.588,7.395-39.7-3.532-50.364-.607-51.9,18.909-4.205,20.757-1.652.314,24.427-2.515,36.826.392,37.588-.94,46.96-.988,26.439-2.9,33.751-3.376,14.628-1.569,20.314S180.205,527.043,173.6,527.857Z" transform="translate(-152.401 -328.817)" fill="#005177"/><path d="M193.54,376.3c-.275-1.259-13.266-8.026-21.656-7.724C180.952,370.1,193.948,378.171,193.54,376.3Z" transform="translate(-150.635 -330.376)" fill="#052b4a"/><path d="M193.086,374.355c.895-.374-6.15-5.208-12.171-6.6C186.713,370.463,192.041,374.79,193.086,374.355Z" transform="translate(-149.375 -330.489)" fill="#052b4a"/><path d="M192.82,378.461c1.471-.131-3.869-2.265-11.84-2.206a47.4,47.4,0,0,0-12.836,1.921c-.591.328,7.624-.828,12.092-.821C186.389,377.365,191.6,378.573,192.82,378.461Z" transform="translate(-151.162 -329.303)" fill="#052b4a"/><path d="M195.493,376.566c.5-1.227,18.41-8.6,30.946-6.57C211.674,370.141,194.765,378.387,195.493,376.566Z" transform="translate(-147.343 -330.225)" fill="#052b4a"/><path d="M196.021,374.344c-.932-.272,4-4.492,11.449-6.663C200.669,370.487,197.108,374.663,196.021,374.344Z" transform="translate(-147.282 -330.499)" fill="#052b4a"/><path d="M195.918,378.535c-1.473.026,3.6-2.676,11.535-3.491a47.32,47.32,0,0,1,12.966.507c.626.26-7.667.011-12.108.507C202.194,376.739,197.147,378.51,195.918,378.535Z" transform="translate(-147.316 -329.502)" fill="#052b4a"/><g transform="translate(43.908 12.275)"><path d="M193.524,386.925a.55.55,0,0,1-.56-.5c-.194-3.146-.211-6.37-.224-9.488l0-1.088c-.016-2.162-.079-4.361-.14-6.488-.074-2.324-.144-4.724-.146-7.092,0-1.593-.16-4.144-.328-6.842a66.639,66.639,0,0,1-.264-9.134.569.569,0,0,1,.647-.457.543.543,0,0,1,.47.619,71.159,71.159,0,0,0,.275,8.9c.171,2.718.33,5.283.33,6.909,0,2.351.073,4.745.144,7.06.064,2.133.129,4.341.14,6.514l.007,1.089c.014,3.1.031,6.31.222,9.424A.564.564,0,0,1,193.524,386.925Z" transform="translate(-191.767 -345.825)" fill="#0f2039"/></g><g transform="translate(12.927 11.665)"><g transform="translate(0 15.69)"><path d="M164.86,359.7a.271.271,0,0,1-.046-.539l.554-.1a.272.272,0,1,1,.1.533S164.914,359.7,164.86,359.7Z" transform="translate(-164.581 -359.058)" fill="#0f2039"/></g><g transform="translate(2.696 2.649)"><path d="M167.225,360.748a.271.271,0,0,1-.062-.536c.356-.082.7-.171,1.051-.264a.281.281,0,0,1,.348.187.275.275,0,0,1-.2.336c-.351.1-.709.184-1.067.27A.379.379,0,0,1,167.225,360.748Zm3.143-.921a.279.279,0,0,1-.261-.174.27.27,0,0,1,.166-.351q.3-.109.6-.228l.41-.165a.283.283,0,0,1,.368.142.268.268,0,0,1-.15.357l-.414.169c-.205.081-.407.158-.614.235A.337.337,0,0,1,170.368,359.827Zm2.995-1.3a.284.284,0,0,1-.247-.146.268.268,0,0,1,.122-.367c.324-.165.638-.333.945-.509a.291.291,0,0,1,.387.1.271.271,0,0,1-.1.373c-.316.179-.637.352-.969.521A.306.306,0,0,1,173.363,358.523Zm2.787-1.682a.3.3,0,0,1-.227-.107.264.264,0,0,1,.06-.381c.291-.211.57-.427.841-.651a.289.289,0,0,1,.4.03.266.266,0,0,1-.034.384c-.279.23-.569.452-.872.67A.283.283,0,0,1,176.15,356.841Zm2.418-2.141a.291.291,0,0,1-.186-.067.267.267,0,0,1-.025-.383c.237-.261.464-.529.677-.8a.291.291,0,0,1,.4-.056.26.26,0,0,1,.056.378c-.222.288-.46.565-.7.836A.3.3,0,0,1,178.569,354.7Zm1.87-2.6a.292.292,0,0,1-.132-.031.266.266,0,0,1-.115-.368q.251-.451.473-.929a.288.288,0,0,1,.373-.14.266.266,0,0,1,.142.359c-.152.33-.319.65-.49.963A.284.284,0,0,1,180.439,352.1Zm1.517-3.132-.54-.16c.111-.361.2-.678.269-.98a.278.278,0,0,1,.335-.209.267.267,0,0,1,.215.32C182.165,348.255,182.073,348.588,181.955,348.97Z" transform="translate(-166.947 -347.615)" fill="#0f2039"/></g><g transform="translate(17.66)"><path d="M180.358,346.378a.276.276,0,0,1-.28-.279c0-.168.007-.345.011-.539a.281.281,0,0,1,.286-.27.277.277,0,0,1,.28.272c0,.2-.007.379-.011.548A.281.281,0,0,1,180.358,346.378Z" transform="translate(-180.078 -345.29)" fill="#0f2039"/></g></g><g transform="translate(57.387 11.475)"><path d="M203.916,346.21a.275.275,0,0,1-.277-.245c-.016-.18-.03-.364-.043-.55a.281.281,0,0,1,.268-.291.27.27,0,0,1,.3.251c.01.183.026.364.041.538A.287.287,0,0,1,203.916,346.21Z" transform="translate(-203.596 -345.124)" fill="#0f2039"/><g transform="translate(0.355 2.55)"><path d="M219.832,357.99c-.4-.065-.743-.124-1.093-.19a.269.269,0,0,1-.222-.317.284.284,0,0,1,.332-.217c.349.064.7.124,1.037.184a.272.272,0,0,1,.226.317A.283.283,0,0,1,219.832,357.99Zm-3.108-.6a.349.349,0,0,1-.065-.007c-.344-.076-.688-.155-1.032-.238a.271.271,0,0,1-.2-.332.285.285,0,0,1,.344-.2c.34.083.68.16,1.022.236a.267.267,0,0,1,.209.325A.287.287,0,0,1,216.724,357.393Zm-3.055-.8a.292.292,0,0,1-.088-.014c-.341-.106-.677-.22-1.007-.338a.264.264,0,0,1-.163-.349.286.286,0,0,1,.365-.161c.321.117.651.227.985.332a.267.267,0,0,1,.179.342A.286.286,0,0,1,213.669,356.593Zm-2.928-1.142a.275.275,0,0,1-.128-.029c-.324-.156-.639-.321-.942-.5a.263.263,0,0,1-.095-.371.29.29,0,0,1,.386-.1c.293.169.6.326.907.476a.267.267,0,0,1,.122.366A.282.282,0,0,1,210.741,355.451Zm-2.647-1.657a.276.276,0,0,1-.178-.063,10.593,10.593,0,0,1-.789-.712.264.264,0,0,1,.011-.385.29.29,0,0,1,.4.007,8.864,8.864,0,0,0,.746.675.268.268,0,0,1,.03.382A.292.292,0,0,1,208.094,353.794Zm-2.112-2.247a.285.285,0,0,1-.227-.109c-.222-.291-.421-.577-.6-.859a.268.268,0,0,1,.095-.375.292.292,0,0,1,.39.088c.171.27.366.545.577.823a.266.266,0,0,1-.062.379A.3.3,0,0,1,205.982,351.547Zm-1.5-2.666a.284.284,0,0,1-.264-.18,10.24,10.24,0,0,1-.305-1,.284.284,0,0,1,.552-.129,8.928,8.928,0,0,0,.287.948.272.272,0,0,1-.174.348A.277.277,0,0,1,204.485,348.881Z" transform="translate(-203.908 -347.361)" fill="#0f2039"/></g><g transform="translate(18.087 12.989)"><path d="M220.3,357.2a.263.263,0,0,1-.07-.01c-.223-.056-.394-.1-.545-.129a.271.271,0,0,1-.207-.327.285.285,0,0,1,.342-.205c.15.034.328.077.557.136a.266.266,0,0,1,.2.332A.287.287,0,0,1,220.3,357.2Z" transform="translate(-219.467 -356.522)" fill="#0f2039"/></g></g><g transform="translate(45.145 12.521)"><path d="M192.971,372.414l-.119-.806c.3-.046.633-.066.964-.087a4.594,4.594,0,0,0,1.892-.369c2.145-1.231,2.057-3.991,1.984-6.21-.017-.528-.033-1.023-.019-1.468l.042-1.353a82.673,82.673,0,0,0-.549-15.961l.84-.121a83.365,83.365,0,0,1,.556,16.1l-.039,1.353c-.016.428,0,.909.018,1.418.074,2.305.178,5.463-2.4,6.941a5.192,5.192,0,0,1-2.275.486C193.557,372.355,193.254,372.375,192.971,372.414Z" transform="translate(-192.853 -346.041)" fill="#0f2039"/></g><g transform="translate(47.568 12.311)"><path d="M195.259,373.828a.271.271,0,0,1-.034-.54,9.463,9.463,0,0,0,1.072-.211.277.277,0,0,1,.343.19.274.274,0,0,1-.2.335A9.679,9.679,0,0,1,195.259,373.828Zm3.168-1.1a.278.278,0,0,1-.234-.121.266.266,0,0,1,.079-.376,5.341,5.341,0,0,0,.834-.655.289.289,0,0,1,.4,0,.264.264,0,0,1,0,.384,5.842,5.842,0,0,1-.921.721A.271.271,0,0,1,198.427,372.73Zm2.148-2.48a.29.29,0,0,1-.114-.023.265.265,0,0,1-.141-.357,7.113,7.113,0,0,0,.375-.988.286.286,0,0,1,.351-.189.271.271,0,0,1,.193.335,8.194,8.194,0,0,1-.4,1.06A.283.283,0,0,1,200.575,370.25Zm.762-3.167a.279.279,0,0,1-.28-.289c.023-.293.034-.579.036-.854v-.214a.285.285,0,0,1,.284-.276.277.277,0,0,1,.283.271l0,.222c0,.283-.011.58-.036.883A.28.28,0,0,1,201.338,367.083Zm-.083-3.259a.274.274,0,0,1-.278-.251l-.014-.229c-.007-.165-.019-.464-.041-.866a.283.283,0,0,1,.565-.032c.021.408.035.709.04.873l.014.214A.284.284,0,0,1,201.255,363.824Zm-.163-3.267a.275.275,0,0,1-.28-.258l-.057-1.088a.278.278,0,0,1,.269-.287.274.274,0,0,1,.3.254l.057,1.09A.288.288,0,0,1,201.092,360.557Zm-.172-3.267a.275.275,0,0,1-.28-.255l-.059-1.088a.279.279,0,0,1,.267-.287.269.269,0,0,1,.3.255L201.2,357A.283.283,0,0,1,200.92,357.289Zm-.179-3.264a.276.276,0,0,1-.279-.256l-.059-1.087a.279.279,0,0,1,.268-.287.264.264,0,0,1,.3.254l.06,1.089A.285.285,0,0,1,200.741,354.026Zm-.176-3.265a.273.273,0,0,1-.279-.255l-.063-1.089a.28.28,0,0,1,.269-.287.271.271,0,0,1,.3.255l.062,1.088A.286.286,0,0,1,200.565,350.761Zm-.181-3.268a.273.273,0,0,1-.279-.254l-.062-1.093a.277.277,0,0,1,.269-.288.264.264,0,0,1,.3.254l.058,1.094A.279.279,0,0,1,200.384,347.492Z" transform="translate(-194.98 -345.857)" fill="#0f2039"/></g><g transform="translate(0.171 201.573)"><path d="M239.713,512.571c-4.734,1.937-12.292,4.455-19.829,4.562a52.546,52.546,0,0,1-18.751-3.354c.01.414.022.813.033,1.182a53.882,53.882,0,0,0,18.053,3.259c.226,0,.448,0,.673,0,7.517-.107,15.04-2.546,19.894-4.5C239.764,513.349,239.74,512.974,239.713,512.571Z" transform="translate(-146.723 -511.847)" fill="#0f2039"/><path d="M153.429,513.887c-.014.4-.03.784-.041,1.149a53.693,53.693,0,0,0,17.166,2.948c.222,0,.448,0,.675,0,7.991-.113,15.982-2.86,20.774-4.863v-1.182c-4.626,1.969-12.719,4.845-20.783,4.961A52.549,52.549,0,0,1,153.429,513.887Z" transform="translate(-153.388 -511.936)" fill="#0f2039"/></g><path d="M228.042,356.12c-4.144-.682-8.806-1.707-11.456-3.154-2.458-1.338-3.746-4.243-4.428-6.987a108.751,108.751,0,0,0,13.79-3.355c0-.332,0-.72,0-1.141a103.4,103.4,0,0,1-28.908,4.887,113.835,113.835,0,0,1-28.4-3.395,10.991,10.991,0,0,1-.092,1.1c1.972.5,5.524,1.322,10.118,2.03-.376,2.844-1.346,5.9-3.666,7.517-2.247,1.567-6.2,2.975-9.9,4.058-.065.367-.132.746-.195,1.124,4.166-1.192,8.4-2.7,10.865-4.418,2.553-1.777,3.672-4.932,4.1-8.1a112.853,112.853,0,0,0,15.925,1.175q.619,0,1.247-.009a93.751,93.751,0,0,0,13.9-1.268c.765,3.1,2.21,6.133,4.944,7.626,2.85,1.554,7.7,2.637,12.334,3.374C228.164,356.822,228.1,356.472,228.042,356.12Z" transform="translate(-151.608 -334.156)" fill="#0f2039"/><g transform="translate(41.069 4.282)"><path d="M192.721,348.211a.566.566,0,0,1-.191-.033,5.2,5.2,0,0,1-3.218-4.284c-.421-3.334,3.105-4.963,3.255-5.031a.57.57,0,0,1,.746.259.537.537,0,0,1-.275.725c-.12.055-2.924,1.366-2.605,3.909a4.15,4.15,0,0,0,2.488,3.4.533.533,0,0,1,.334.7A.569.569,0,0,1,192.721,348.211Z" transform="translate(-189.276 -338.812)" fill="#0f2039"/></g><g transform="translate(45.894 6.974)"><path d="M193.51,344.335l.4-3.161.542.034c.267.015.716.024,1.259.036,4.667.1,6.214.3,6.205,1.266,0,.475-.01,1.271-7.724,1.779Zm1.407-2.01-.1.818a49.7,49.7,0,0,0,5.02-.6c-1.259-.141-3.24-.185-4.153-.2Z" transform="translate(-193.51 -341.174)" fill="#0f2039"/></g><g transform="translate(44.625 6.326)"><path d="M196.467,342.847a2,2,0,0,1-1.951,2.023,1.96,1.96,0,0,1-1.917-2.023,2,2,0,0,1,1.952-2.024A1.961,1.961,0,0,1,196.467,342.847Z" transform="translate(-192.369 -340.575)" fill="#acd4e0"/><path d="M194.542,345.15a2.2,2.2,0,0,1-2.145-2.272,2.242,2.242,0,0,1,2.182-2.272,2.2,2.2,0,0,1,2.147,2.272A2.248,2.248,0,0,1,194.542,345.15Zm.033-4.047a1.758,1.758,0,0,0-1.715,1.774,1.724,1.724,0,0,0,1.687,1.774,1.756,1.756,0,0,0,1.715-1.774A1.722,1.722,0,0,0,194.575,341.1Z" transform="translate(-192.397 -340.605)" fill="#5796b3"/></g><g transform="translate(29.04 3.321)"><path d="M179.547,349.2c.158.495,2.5.57,2.548.053,0,0-1.412-7.075.073-10.5.207-.483-.7-.5-1.257-.542s-1.181-.041-1.366.451C178.711,340.875,178.819,346.939,179.547,349.2Z" transform="translate(-178.688 -337.936)" fill="#00416f"/><path d="M180.087,349.8c-.436-.1-.7-.266-.768-.492-.734-2.276-.859-8.41,0-10.7.268-.717,1.2-.653,1.644-.623l.118.007a4.808,4.808,0,0,1,.8.095.8.8,0,0,1,.57.343.5.5,0,0,1,0,.447c-1.436,3.322-.068,10.292-.055,10.362l0,.068a.489.489,0,0,1-.231.354A3.351,3.351,0,0,1,180.087,349.8Zm1.658-11.218a4.662,4.662,0,0,0-.7-.078l-.122-.008c-.7-.047-.99.029-1.086.277-.817,2.171-.688,8.221.009,10.384a.958.958,0,0,0,.379.146,3.031,3.031,0,0,0,1.621-.047c-.161-.838-1.323-7.266.1-10.567C181.961,338.667,181.925,338.622,181.745,338.581Z" transform="translate(-178.721 -337.968)" fill="#0f2039"/></g><g transform="translate(55.788 2.634)"><path d="M204.981,348.6c-.17.5-2.512.573-2.55.056,0,0,1.54-7.075.12-10.5-.2-.482.711-.5,1.266-.541s1.18-.041,1.36.45C205.968,340.276,205.751,346.336,204.981,348.6Z" transform="translate(-202.159 -337.334)" fill="#00416f"/><path d="M204.5,349.2c.442-.1.7-.267.78-.493.773-2.273,1.013-8.41.194-10.7-.254-.715-1.19-.652-1.635-.622l-.117.009a5.131,5.131,0,0,0-.8.09.824.824,0,0,0-.575.346.493.493,0,0,0-.016.448c1.379,3.32-.119,10.289-.131,10.359l0,.07a.463.463,0,0,0,.222.354A3.34,3.34,0,0,0,204.5,349.2Zm-1.452-11.219a5.1,5.1,0,0,1,.705-.079l.119-.006c.7-.048.989.029,1.081.278.776,2.169.542,8.22-.2,10.382a.96.96,0,0,1-.381.145,3.008,3.008,0,0,1-1.622-.047c.175-.836,1.459-7.265.091-10.566C202.827,338.065,202.865,338.019,203.043,337.978Z" transform="translate(-202.192 -337.365)" fill="#0f2039"/></g></g></g></svg>