<svg xmlns="http://www.w3.org/2000/svg" width="295" height="288.847" viewBox="0 0 295 288.847"><g transform="translate(868.171 572.585)"><g transform="translate(-709.19 -572.585)" opacity="0.46"><g transform="translate(0.001 103.826)"><path d="M-561.576-301.055c-.313-1.644-29.441-11.4-32.932-11.613v-94.661h-6.209v94.661c-3.492.218-32.618,9.969-32.933,11.613-.318,1.661-.635,1.937,3.812,2.213a20.162,20.162,0,0,0,8.893-1.937s14.022-4.883,21.067-7.377c-.335,4.3-2.705,10.473-1.234,11.582.866.653,6.131.653,7,0,1.472-1.109-.9-7.286-1.233-11.582,7.045,2.495,21.067,7.377,21.067,7.377a20.167,20.167,0,0,0,8.894,1.937C-560.94-299.118-561.257-299.394-561.576-301.055Z" transform="translate(633.814 407.329)" fill="#302c31"/></g><path d="M-573.981-486c1.868-6.537,8.094-23.664,6.848-31.758s-13.384-6.226-16.5-5.914-4.046-7.159-4.046-9.961c0-2.077-3.736-3.928-7.994-3.928s-8,1.851-8,3.928c0,2.8-.933,10.272-4.047,9.961s-15.251-2.179-16.5,5.914,4.98,25.221,6.848,31.758-.311,11.828-3.735,25.214-4.046,29.309,4.047,30.867c4.55.875,13.81,2.5,21.38,2.5s16.829-1.623,21.379-2.5c8.094-1.557,7.471-17.483,4.047-30.867S-575.848-479.465-573.981-486Z" transform="translate(631.874 537.928)" fill="#e5dcc4"/><rect width="1.035" height="106.244" transform="translate(35.684 4.26)" fill="#4d4944"/><g transform="translate(8.781 36.328)"><path d="M-568.841-491.17c.1-.369.2-.744.294-1.119a105.872,105.872,0,0,1-26.574,3.213,105.794,105.794,0,0,1-26.576-3.217c.1.379.2.755.3,1.127a107.061,107.061,0,0,0,26.278,3.126A106.812,106.812,0,0,0-568.841-491.17Z" transform="translate(622.542 492.293)" fill="#4d4944"/><path d="M-572.453-462.253c-.053-.345-.1-.683-.138-1.018a98.692,98.692,0,0,1-21.166,2.205,98.406,98.406,0,0,1-21.164-2.219q-.06.5-.138,1.025a99.378,99.378,0,0,0,21.3,2.228A99.352,99.352,0,0,0-572.453-462.253Z" transform="translate(621.178 486.329)" fill="#4d4944"/><path d="M-567.917-433.5q-.051-.521-.109-1.04a92.41,92.41,0,0,1-27.314,3.851,92.658,92.658,0,0,1-27.311-3.874c-.039.347-.076.7-.11,1.046a93.928,93.928,0,0,0,27.421,3.863A93.541,93.541,0,0,0-567.917-433.5Z" transform="translate(622.761 480.425)" fill="#4d4944"/></g><path d="M-583-534.4c0,2-3.165,3.622-7.071,3.622s-7.071-1.621-7.071-3.622,3.165-3.622,7.071-3.622S-583-536.4-583-534.4Z" transform="translate(626.276 538.022)" fill="#302c31"/></g><g transform="translate(-645.574 -572.585)" opacity="0.46"><g transform="translate(0 103.826)"><path d="M-467.651-301.055c-.314-1.644-29.442-11.4-32.932-11.613v-94.661h-6.209v94.661c-3.492.218-32.619,9.969-32.933,11.613-.318,1.661-.636,1.937,3.812,2.213a20.158,20.158,0,0,0,8.893-1.937s14.022-4.883,21.067-7.377c-.334,4.3-2.7,10.473-1.234,11.582.866.653,6.131.653,7,0,1.471-1.109-.9-7.286-1.233-11.582,7.045,2.495,21.067,7.377,21.067,7.377a20.162,20.162,0,0,0,8.893,1.937C-467.015-299.118-467.332-299.394-467.651-301.055Z" transform="translate(539.89 407.329)" fill="#302c31"/></g><path d="M-480.056-486c1.867-6.537,8.094-23.664,6.848-31.758s-13.385-6.226-16.5-5.914-4.047-7.159-4.047-9.961c0-2.077-3.735-3.928-7.994-3.928s-8,1.851-8,3.928c0,2.8-.933,10.272-4.046,9.961s-15.252-2.179-16.5,5.914,4.98,25.221,6.848,31.758-.312,11.828-3.735,25.214-4.047,29.309,4.046,30.867c4.55.875,13.81,2.5,21.38,2.5s16.83-1.623,21.379-2.5c8.094-1.557,7.471-17.483,4.047-30.867S-481.923-479.465-480.056-486Z" transform="translate(537.949 537.928)" fill="#e5dcc4"/><rect width="1.035" height="106.244" transform="translate(35.684 4.26)" fill="#4d4944"/><g transform="translate(8.781 36.328)"><path d="M-474.916-491.17c.1-.369.2-.744.294-1.119a105.878,105.878,0,0,1-26.575,3.213,105.8,105.8,0,0,1-26.576-3.217q.149.568.3,1.127A107.067,107.067,0,0,0-501.2-488.04,106.824,106.824,0,0,0-474.916-491.17Z" transform="translate(528.618 492.293)" fill="#4d4944"/><path d="M-478.529-462.253c-.053-.345-.1-.683-.137-1.018a98.694,98.694,0,0,1-21.167,2.205A98.406,98.406,0,0,1-521-463.284q-.06.5-.138,1.025a99.383,99.383,0,0,0,21.3,2.228A99.347,99.347,0,0,0-478.529-462.253Z" transform="translate(527.254 486.329)" fill="#4d4944"/><path d="M-473.993-433.5c-.033-.347-.071-.694-.109-1.04a92.41,92.41,0,0,1-27.314,3.851,92.65,92.65,0,0,1-27.31-3.874c-.04.347-.076.7-.111,1.046a93.929,93.929,0,0,0,27.421,3.863A93.541,93.541,0,0,0-473.993-433.5Z" transform="translate(528.837 480.425)" fill="#4d4944"/></g><path d="M-489.079-534.4c0,2-3.165,3.622-7.071,3.622s-7.071-1.621-7.071-3.622,3.165-3.622,7.071-3.622S-489.079-536.4-489.079-534.4Z" transform="translate(532.351 538.022)" fill="#302c31"/></g><g transform="translate(-771.805 -572.585)" opacity="0.46"><g transform="translate(0 103.826)"><path d="M-655.5-301.055c-.314-1.644-29.442-11.4-32.933-11.613v-94.661h-6.209v94.661c-3.491.218-32.618,9.969-32.933,11.613-.318,1.661-.635,1.937,3.813,2.213a20.162,20.162,0,0,0,8.893-1.937s14.022-4.883,21.067-7.377c-.335,4.3-2.705,10.473-1.234,11.582.866.653,6.131.653,7,0,1.471-1.109-.9-7.286-1.234-11.582,7.045,2.495,21.067,7.377,21.067,7.377a20.167,20.167,0,0,0,8.893,1.937C-654.864-299.118-655.181-299.394-655.5-301.055Z" transform="translate(727.738 407.329)" fill="#302c31"/></g><path d="M-667.9-486c1.867-6.537,8.093-23.664,6.848-31.758s-13.385-6.226-16.5-5.914-4.047-7.159-4.047-9.961c0-2.077-3.735-3.928-7.994-3.928s-8,1.851-8,3.928c0,2.8-.933,10.272-4.046,9.961s-15.252-2.179-16.5,5.914,4.98,25.221,6.849,31.758-.312,11.828-3.736,25.214-4.046,29.309,4.047,30.867c4.55.875,13.81,2.5,21.38,2.5s16.83-1.623,21.38-2.5c8.094-1.557,7.471-17.483,4.047-30.867S-669.772-479.465-667.9-486Z" transform="translate(725.797 537.928)" fill="#e5dcc4"/><rect width="1.035" height="106.244" transform="translate(35.684 4.26)" fill="#4d4944"/><g transform="translate(8.78 36.328)"><path d="M-662.765-491.17c.1-.369.2-.744.294-1.119a105.869,105.869,0,0,1-26.575,3.213,105.8,105.8,0,0,1-26.575-3.217c.1.379.2.755.3,1.127a107.064,107.064,0,0,0,26.277,3.126A106.814,106.814,0,0,0-662.765-491.17Z" transform="translate(716.466 492.293)" fill="#4d4944"/><path d="M-666.377-462.253c-.053-.345-.1-.683-.138-1.018a98.694,98.694,0,0,1-21.167,2.205,98.4,98.4,0,0,1-21.163-2.219c-.04.336-.087.678-.138,1.025a99.375,99.375,0,0,0,21.3,2.228A99.35,99.35,0,0,0-666.377-462.253Z" transform="translate(715.102 486.329)" fill="#4d4944"/><path d="M-661.841-433.5q-.051-.521-.109-1.04a92.414,92.414,0,0,1-27.315,3.851,92.657,92.657,0,0,1-27.31-3.874c-.039.347-.075.7-.11,1.046a93.928,93.928,0,0,0,27.42,3.863A93.543,93.543,0,0,0-661.841-433.5Z" transform="translate(716.685 480.425)" fill="#4d4944"/></g><path d="M-676.927-534.4c0,2-3.165,3.622-7.072,3.622s-7.07-1.621-7.07-3.622,3.165-3.622,7.07-3.622S-676.927-536.4-676.927-534.4Z" transform="translate(720.199 538.022)" fill="#302c31"/></g><g transform="translate(-868.171 -535.309)"><path d="M-813.625-474.189c3.556,2,7.147,11.4,10.147,15.065s8.334-6.334,10.668-9,7.668,2.334,7.668,2.334-10.925,26.052-19.593,22.718-13.779-16.448-15.335-22S-817.181-476.19-813.625-474.189Z" transform="translate(852.248 514.176)" fill="#e8b296"/><g transform="translate(46.962 33.453)"><g transform="translate(0 96.556)"><path d="M-730.556-240.132c-.292-1.529-27.381-10.6-30.627-10.8v-88.033h-5.775v88.033c-3.247.2-30.335,9.272-30.627,10.8s-.591,1.8,3.545,2.058a18.741,18.741,0,0,0,8.27-1.8s13.041-4.541,19.592-6.861c-.311,4-2.515,9.74-1.147,10.771.805.607,5.7.607,6.508,0,1.368-1.031-.835-6.776-1.147-10.771,6.552,2.32,19.593,6.861,19.593,6.861a18.744,18.744,0,0,0,8.27,1.8C-729.966-238.332-730.261-238.589-730.556-240.132Z" transform="translate(797.738 338.966)" fill="#3a363c"/></g><path d="M-740.413-435.322c1.737-6.079,7.527-22.008,6.369-29.535s-12.448-5.79-15.343-5.5-3.763-6.658-3.763-9.264c0-1.932-3.474-3.653-7.434-3.653s-7.436,1.722-7.436,3.653c0,2.606-.867,9.553-3.763,9.264s-14.184-2.027-15.343,5.5,4.632,23.455,6.369,29.535-.289,11-3.474,23.448-3.763,27.257,3.763,28.705c4.231.813,12.843,2.323,19.883,2.323s15.651-1.51,19.882-2.323c7.527-1.448,6.948-16.258,3.763-28.705S-742.149-429.243-740.413-435.322Z" transform="translate(794.252 483.612)" fill="#f4ebd0"/><rect width="0.963" height="98.805" transform="translate(33.186 3.962)" fill="#58534e"/><g transform="translate(8.166 33.785)"><path d="M-735.156-432.066q.137-.516.273-1.041a98.465,98.465,0,0,1-24.714,2.988,98.444,98.444,0,0,1-24.715-2.992q.138.528.277,1.048a99.6,99.6,0,0,0,24.439,2.907A99.342,99.342,0,0,0-735.156-432.066Z" transform="translate(785.098 433.11)" fill="#58534e"/><path d="M-737.334-400.008q-.073-.481-.127-.946a91.787,91.787,0,0,1-19.685,2.05,91.491,91.491,0,0,1-19.683-2.063q-.055.468-.129.953a92.488,92.488,0,0,0,19.811,2.072A92.42,92.42,0,0,0-737.334-400.008Z" transform="translate(782.647 422.399)" fill="#58534e"/><path d="M-734.486-368.155q-.048-.484-.1-.967a85.929,85.929,0,0,1-25.4,3.582,86.183,86.183,0,0,1-25.4-3.6q-.054.485-.1.973a87.369,87.369,0,0,0,25.5,3.592A87.01,87.01,0,0,0-734.486-368.155Z" transform="translate(785.491 411.794)" fill="#58534e"/></g><path d="M-743.955-480.413c0,1.861-2.944,3.368-6.576,3.368s-6.576-1.508-6.576-3.368,2.944-3.368,6.576-3.368S-743.955-482.273-743.955-480.413Z" transform="translate(784.198 483.781)" fill="#3a363c"/><path d="M-773.416-464.487c1.333.5,4.167,8.334,5.167,23.336s2.667,22,1,31.671-8.668,26.67-9.668,27-3.334-2.667-6.334-2-2.667-1.667-6-.667-3.667,2.667-4-1.667,4.667-15.335,5.667-24,2.334-12.668,0-19.669-5.462-27.31-.167-32C-782.268-467.348-774.75-464.987-773.416-464.487Z" transform="translate(796.248 477.689)" fill="#c87075"/><path d="M-779.246-425.16c-.7-3.324-1.149-6.712-1.567-10.085-.055-.445.515-5.072-.318-5.239s-.833,4.5-.833,5.834a14.333,14.333,0,0,0,.125,2.162c.916,6.377,3.068,12.467,3.865,18.874.737,5.936-1.373,11.854-2.8,17.578-1.266,5.069-5.091,8.688-4.584,14.226a.4.4,0,0,0,.777.105c1.37-4.429,3.368-8.584,5.071-12.884.973-2.454,1.2-5.3,1.629-7.894a55.855,55.855,0,0,0,1.045-7.332C-776.668-414.961-778.193-420.172-779.246-425.16Z" transform="translate(793.629 469.354)" fill="#b4666a"/><path d="M-767.3-424.669c-.627-5.753-2.228-11.3-2.993-17a.4.4,0,0,0-.791,0,22.021,22.021,0,0,0,.683,5.623c.577,2.65.727,5.418,1.172,8.1,1.019,6.13,2.136,12.487,1.926,18.711-.18,5.311-3.116,9.987-4.51,14.976-1.125,4.027-3.107,9.025-2.709,13.266a.5.5,0,0,0,.853.353c1.226-1.347,1.454-2.737,1.953-4.448.707-2.425,1.011-5.153,1.6-7.636,1.095-4.656,3.169-9.141,3.7-13.94C-765.744-412.775-766.636-418.605-767.3-424.669Z" transform="translate(790.018 469.876)" fill="#b4666a"/><path d="M-771.072-463.828c-1.564-1.539-4.456-1.245-6.538-1.175-2.448.083-5.515.6-6.508,2.935-.008.017-.009.036-.016.054a1.109,1.109,0,0,0-.923,1.116c-.026,2.374,3.018,1.482,4.6,1.652a15.49,15.49,0,0,0,4.667-.26c.68-.173,1.381.249,2.09.069s1.032-.953,1.676-1.077A1.946,1.946,0,0,0-771.072-463.828Z" transform="translate(793.512 477.546)" fill="#b4666a"/><path d="M-787.443-450.11s11.835-2.834,13.668,0,1.167,4.334.333,5.834-3.167,4.167-5.5,4.667-4.667,2.834-7.668,3-2.167-3.834-2-6.168S-787.443-450.11-787.443-450.11Z" transform="translate(794.773 472.98)" fill="#b4666a"/></g><path d="M-865.2-219.21c.749-1.99,1.992-2.216,3.443-2.442s2.067,1.327,3.1,3.1,1.466,7.928,2.25,10.437,3.887,10.237-1.669,10.9c-4.523.543-7.334-1.778-8.446-4.223-.845-1.857-.589-5.556-.233-9.095C-866.335-214.75-865.951-217.219-865.2-219.21Z" transform="translate(867.812 429.888)" fill="#3e3d43"/><path d="M-861.88-223.533c3.334,2.667,6.668.223,5.468-5.869a30.111,30.111,0,0,1-.8-8.132,104.551,104.551,0,0,1,1.554-12.91c3.125-14.694,3.131-19.7,2.908-21.355-.683-5.074-10.292-11.051-12.24.26s.179,24.263,0,32.351c.062,2.1.3,5.957.669,8.988C-863.931-226.922-864.045-225.266-861.88-223.533Z" transform="translate(867.387 448.655)" fill="#f9c0ae"/><path d="M-818.869-219.21c.749-1.99,1.993-2.216,3.443-2.442s2.067,1.327,3.1,3.1,1.466,7.928,2.249,10.437,3.887,10.237-1.669,10.9c-4.523.543-7.334-1.778-8.446-4.223-.844-1.857-.589-5.556-.232-9.095C-820-214.75-819.618-217.219-818.869-219.21Z" transform="translate(852.372 429.888)" fill="#3e3d43"/><path d="M-815.546-223.533c3.334,2.667,6.668.223,5.467-5.869a30.105,30.105,0,0,1-.8-8.132,104.528,104.528,0,0,1,1.554-12.91c3.124-14.694,3.131-19.7,2.908-21.355-.684-5.074-10.292-11.051-12.241.26s.18,24.263,0,32.351c.061,2.1.3,5.957.669,8.988C-817.6-226.922-817.712-225.266-815.546-223.533Z" transform="translate(851.947 448.655)" fill="#f9c0ae"/><path d="M-812.677-391.865c2.091.42,5.256,37.452,4.565,51.254-.592,11.791-3.39,37.962-4.046,41.754s-1.175,12.168-2.177,12.926-10.689,2.329-11.392-1.463-1.239-32.335-1.388-37.882-1.315-30.79-3-35-7.569-16.013-5.182-29.735C-835.3-390.016-814.149-392.161-812.677-391.865Z" transform="translate(857.403 486.613)" fill="#514b4f"/><path d="M-837.048-389.816s-5.169,44.949-9.169,57.617c-3.555,11.258-4.588,22.214-6,28.337s-2.788,16.4-4,17-8.149,1.611-11.211-2.392c-1.494-1.954-.349-13.25.136-22.829.4-7.924,2.741-20.451,2.741-20.451s.263-26.143.342-30.683-2.684-19.719,4.835-31.444Z" transform="translate(868.171 487.535)" fill="#514b4f"/><path d="M-822.968-420.042c-11.776-.235-27.791-4-28.262-1.649s-.707,9.186-1.884,12.954a33.9,33.9,0,0,1-3.2,7.091c.88.793,13.221,4.6,20.859,4.449,11.776-.234,17.9-4.475,17.9-4.475s-1.741-4.481-3.3-8.243A25.238,25.238,0,0,1-822.968-420.042Z" transform="translate(864.218 496.8)" fill="#f9c0ae"/><path d="M-817.826-409.365c-.353-5.825-6.806-30.975-6.806-36.637,0-4.475,5.635-13.606,2.12-18.134-4.255-5.481-2.25-9.088-4.315-11.571s-10.121-3.031-14.84-3.41-14.831,1.743-16.5,6.077c-2.526,6.568.039,15.033,3.388,25.389,1.988,6.15-8.71,34.907-7.055,36.952.99,1.224,17.272,6.009,26.67,5.334C-828.872-405.817-819.678-407.584-817.826-409.365Z" transform="translate(866.117 515.694)" fill="#fff"/><path d="M-822.2-480.808s5.927,3.891,7.842,7.219c1.279,2.222,4.961,10.668,4.321,19.336s1.492,16.892,2.131,21.781-.852,12.668-.852,12.668l-2.984-.889s1.492-10,.426-15.335-2.344-12.89-1.918-16.669a37.011,37.011,0,0,0-.852-12.224c-1.065-4.445-3.409-7.112-4.688-9.335-1.165-2.026-4.475-3.556-4.475-3.556Z" transform="translate(853.199 516.243)" fill="#d4b522"/><g transform="translate(8.144 0)"><path d="M-833.107-503.007a18.759,18.759,0,0,0,7.29,4.939c3.834,1.167,8.334-.667,9.668-1.667s-.137-1.582.431-3.458,4.92-10.81,1.294-20.384-16.686-9.176-16.686-9.176C-839.837-529.61-834.4-504.613-833.107-503.007Z" transform="translate(849.295 533.554)" fill="#d28600"/><path d="M-820.242-516.984c.653,3.338,1.54,15.536-5.94,19.043-9.877,4.637-16.4-.571-19.543-10.983s5.357-18.59,13.58-17.676C-823.667-525.659-820.89-520.321-820.242-516.984Z" transform="translate(852.769 531.526)" fill="#f9c0ae"/><path d="M-825.986-490.975s-.224,2.424-.447,6.4c-.175,3.167.953,8.809-4.473,8.554s-7.634-6.79-7.634-6.79l3.065-12.137Z" transform="translate(850.153 520.955)" fill="#f9c0ae"/><path d="M-831.261-484.1c2.042.753,4.916,1.907,7.083,1.407.378-.087-.377.614-.74.782a5.607,5.607,0,0,1-6.6-1.862A.217.217,0,0,1-831.261-484.1Z" transform="translate(847.823 517.345)" fill="#d37767"/><path d="M-844.518-533.032c-5.181,3.3-6.806,4.264-9.421,10.363-2.826,6.595-2.539,11.708-.041,16.2s11.695,8.412,12.68,7.538-2.4-5.545-2.983-8.67a17.633,17.633,0,0,1,1.413-9.891c.77-1.542,3.43-2.453,6.434-3.635a16.814,16.814,0,0,0-1.31,1.136c-.605.591.009,1.838.872,1.5a22.681,22.681,0,0,0,2.666-.925c1.031-.556,2.006-1.231,2.983-1.874a17.218,17.218,0,0,0,4.05-3.308,4.619,4.619,0,0,0,1.733-2.078C-824.028-529.97-839.337-536.328-844.518-533.032Z" transform="translate(855.956 533.953)" fill="#d28600"/></g><g transform="translate(54.772 41.459)"><path d="M-770.6-467.864c-.316-1.4-1.752-3.546-2.8-3.668s-1.153.369-1.153.369a2.957,2.957,0,0,0-1.9-.583,1.921,1.921,0,0,0-1.23,1.094s-1.147-.986-1.837-.749a2.35,2.35,0,0,0-1.432,1.435c-.231-.115-1.216-.9-1.906-.662s-1.091.919-1.282,2.055a2.946,2.946,0,0,0-1.572,1.3,4.464,4.464,0,0,0-.055,3.018c.567,1.039,1.169,1.4,1.974,1.209a1.982,1.982,0,0,0,1.3-.942,3.386,3.386,0,0,0,1.526,1.244,1.984,1.984,0,0,0,2.005-.241,1.615,1.615,0,0,0,.369-.358,2.037,2.037,0,0,0,2.66-.288,3,3,0,0,0,.615.262,2.119,2.119,0,0,0,2.056-.767,2.79,2.79,0,0,0,.861.391,1.965,1.965,0,0,0,1.656-.425C-769.909-464.767-770.284-466.466-770.6-467.864Z" transform="translate(786.024 471.773)" fill="#f9c0ae"/><path d="M-781.71-464.236a9.6,9.6,0,0,0-.861-1.68c-.036-.062-.121,0-.1.057.289.959.286,2.348,1.027,3.066.077.075.183,0,.207-.08A2.194,2.194,0,0,0-781.71-464.236Z" transform="translate(784.908 469.829)" fill="#d37767"/><path d="M-776.146-464.19c-.156-.621-.423-1.219-.615-1.831a6.875,6.875,0,0,0-1.148-2.3.149.149,0,0,0-.266.105,5.161,5.161,0,0,0,.324.886c.213.627.325,1.267.512,1.9a16.672,16.672,0,0,1,.61,2.15c.033.22.109.481.334.561a.278.278,0,0,0,.333-.418C-776.079-463.169-776.117-464.076-776.146-464.19Z" transform="translate(783.409 470.641)" fill="#d37767"/><path d="M-771.646-465.9c-.429-1.249-.675-2.488-1.229-3.706a.2.2,0,0,0-.367.146,13.168,13.168,0,0,1,.9,3.43,4.52,4.52,0,0,0,.669,2.354.08.08,0,0,0,.136-.015A3.038,3.038,0,0,0-771.646-465.9Z" transform="translate(781.769 471.091)" fill="#d37767"/><path d="M-766.848-466.056a30.7,30.7,0,0,0-1.264-4.033c-.081-.3-.6-.17-.533.134a31.763,31.763,0,0,1,1.041,3.6,3.628,3.628,0,0,0,.458,2.042.154.154,0,0,0,.207.03C-766.437-464.567-766.8-465.651-766.848-466.056Z" transform="translate(780.234 471.269)" fill="#d37767"/></g><path d="M-839.49-481.064s-6.942.351-4.051,7.167c3.229,7.612,7.044,12.446,7.514,18.447s-.7,8.891-2.113,13.113-2.818,10.445-2.348,15.335a26.8,26.8,0,0,0,1.41,7.112l2.978.158s-.578-4.164-1.1-8.381c-.763-6.167,3.995-18.568,5.166-23.558.939-4-.828-8.456-3.053-12.668-2.113-4-4.773-9.029-5.166-10.891a7.323,7.323,0,0,1,.235-3.945Z" transform="translate(860.198 516.328)" fill="#d4b522"/><g transform="translate(48.868 53.191)"><path d="M-793.954-447.575s2.867-4.3,5.734-5.733,10.665-.977,10.964.51a1.622,1.622,0,0,1,1.288,2.081c.677.269.974,2.133-.067,3.381-.6.717-.329,2.07-1.221,2.566-2.666,1.481-5.409,3.767-7.38,4.125-2.628.477-7.884,3.823-9.557,3.344S-793.954-447.575-793.954-447.575Z" transform="translate(794.88 454.178)" fill="#f9c0ae"/><path d="M-774.744-452.011a12.886,12.886,0,0,0-12.727,4.022.183.183,0,0,0,.259.259,13.288,13.288,0,0,1,6.992-3.413,38.441,38.441,0,0,0,5.475-.666A.105.105,0,0,0-774.744-452.011Z" transform="translate(792.427 453.582)" fill="#d37767"/><path d="M-773.354-449.129c-2.514-.12-4.949.839-7.274,1.67a18.088,18.088,0,0,0-5.481,3.011c-.24.2.066.546.317.411a43.066,43.066,0,0,1,6.043-2.762c2.124-.745,4.461-1.128,6.454-2.111C-773.183-448.964-773.244-449.124-773.354-449.129Z" transform="translate(791.986 452.499)" fill="#d37767"/><path d="M-773.439-444.221c-3.611.245-7.507,2.1-10.633,3.6-.459.221-.068.845.394.629,3.344-1.55,6.993-2.457,10.294-4.039A.1.1,0,0,0-773.439-444.221Z" transform="translate(791.346 450.86)" fill="#d37767"/></g><path d="M-852.811-473.983c2.223-.111,6.112,1.667,8.446,7.334s8.668,14.669,8.668,14.669,18.668.444,21.113,1.111,2.445,5.557,0,7.112-24.447,4.223-27.781.445-16.891-19.447-16.224-24.448S-855.033-473.873-852.811-473.983Z" transform="translate(864.986 513.97)" fill="#f9c0ae"/></g><g transform="translate(-778.976 -493.042)"><g transform="translate(71.392 142.449)"><path d="M-614.121-234.6s-1.744,2.771-5.29,7.955c-1.308,1.916-4.907,4.458-6.056,6.316-2.169,3.51-3.055,5.971.835,6.564a17.87,17.87,0,0,0,9.7-.9c2.819-1.174,5.274-6.986,7.424-8.614a19.624,19.624,0,0,0,3.876-3.546c1.14-1.331-1.395-8.007-1.395-8.007Z" transform="translate(627.322 249.556)" fill="#3e3d43"/><path d="M-610.686-244.914s-3.112,6.223-4.223,9.335-3.112,5.334,0,5.779,5.111-1.334,8-4,5.556-4.445,5.778-6.223a17.789,17.789,0,0,0-.667-6c-.444-1.556-.222-10-.222-10l-8-.889Z" transform="translate(623.74 256.916)" fill="#f9c0ae"/></g><g transform="translate(114.8 146.158)"><path d="M-555.5-228.862s-.393,3.25-1.384,9.453c-.364,2.29-2.532,6.127-2.776,8.3-.461,4.1-.211,6.7,3.559,5.577a17.885,17.885,0,0,0,8.384-4.955c2.047-2.267,1.783-8.569,3.031-10.96a19.686,19.686,0,0,0,1.99-4.862c.461-1.69-4.683-6.644-4.683-6.644Z" transform="translate(561.423 245.222)" fill="#3e3d43"/><path d="M-557.693-237.6s-.154,6.956.171,10.244-.533,6.153,2.47,5.225,4.051-3.39,5.524-7.036,3.124-6.393,2.565-8.1a17.817,17.817,0,0,0-3.167-5.141c-1.067-1.216-4.475-8.947-4.475-8.947l-7.613,2.615Z" transform="translate(562.218 251.353)" fill="#f9c0ae"/></g><path d="M-549.638-408.784c-2.667.889-5.667,4.556-5.445,12.779s1.333,11.78,1.111,17.336a39.3,39.3,0,0,0,.889,10s5.556,2.89,7.334,1.778-.223-4.445.222-14.669S-545.61-410.127-549.638-408.784Z" transform="translate(674.645 449.997)" fill="#f9c0ae"/><path d="M-562.169-326.832s-43.227.785-46.456,9.416-3.748,49.005-2.7,50.2,17.3-1.216,17.558-2.667c.465-2.648,1.017-34.5,2.724-37.311s22.138,7.165,30.053,6.519c8.206-.667,17.4-4.541,19.781-9.439,2.218-4.571-1.169-17.063-1.169-17.063Z" transform="translate(693.546 422.779)" fill="#514b4f"/><path d="M-525.271-415.545s14.039-.931,17.373,5.069,2.566,9.5,1.778,16.225c-.505,4.312-1.533,11.461-2,15.557s.393,2.684,1.53,7.788,2.119,15.524,1.581,16.66c-2,4.223-16.042,6.8-27.774,5.862s-11.039-2.824-13.12-4.084,2.222-19.115,2.667-22.448-2.967-11.567-4.667-16c-.946-2.466.542-6.992.222-10.224-.455-4.6-.444-9.335,0-10.113a4.362,4.362,0,0,1,2.4-1.519C-536.34-414.074-525.271-415.545-525.271-415.545Z" transform="translate(672.355 452.244)" fill="#514b4f"/><path d="M-537.024-200.048c0,2.807,7.613,4.471,17,4.471s17-1.664,17-4.471-7.613-5.082-17-5.082S-537.024-202.854-537.024-200.048Z" transform="translate(668.623 382.107)" fill="#3a363c"/><path d="M-510.2-277.96v51.266h-.011c-.055.815-1.21,1.47-2.634,1.47s-2.579-.654-2.634-1.47h-.011V-277.96Z" transform="translate(661.446 406.377)" fill="#3a363c"/><g transform="translate(127.2 113.418)"><path d="M-543.621-294.306h42.806s-.191,14.388-.191,14.511c0,2.244-9.5,4.064-21.212,4.064s-21.213-1.82-21.213-4.064C-543.43-279.918-543.621-294.306-543.621-294.306Z" transform="translate(543.621 298.407)" fill="#3a363c"/><path d="M-543.621-296.355c0,2.264,9.583,4.1,21.4,4.1s21.4-1.836,21.4-4.1-9.582-4.1-21.4-4.1S-543.621-298.62-543.621-296.355Z" transform="translate(543.621 300.456)" fill="#544e58"/></g><g transform="translate(108.389 90.886)"><path d="M-535.454-327.193s-33.155,5.677-35.836,14.494,5.35,49.485,6.476,50.611,16.88-7.134,17.043-8.6c.3-2.67-5.38-27.685-5.017-29.5s13.909-.672,21.766-1.814a27.852,27.852,0,0,0,17.538-9.828c5.94-7.311.606-22.424.606-22.424Z" transform="translate(571.833 334.249)" fill="#514b4f"/></g><path d="M-530.252-403.673c3.112,0,13.144-6.481,16.189-11.406a41.482,41.482,0,0,0-9.114-.553s-10.813-1.265-18.761,2.184C-540.946-409.175-533.363-403.673-530.252-403.673Z" transform="translate(670.26 452.331)" fill="#f9c0ae"/><g transform="translate(121.635)"><path d="M-549.619-452.131a15.534,15.534,0,0,0-1.272,9.157,106.4,106.4,0,0,1,.866,13.537c.063,2,2.076,2.381,6.47.688s10.168-.583,10.124-6.23-3.172-20.447-5.894-22.142S-549.619-452.131-549.619-452.131Z" transform="translate(551.674 466.173)" fill="#a68635"/><path d="M-521.734-424.682l-11.243,2.275.755,9.641s-.467,4.455,5.107,4.156c5.163-.277,7.271-6.367,7.271-6.367Z" transform="translate(545.639 455.272)" fill="#f9c0ae"/><path d="M-522.493-415.268a19.38,19.38,0,0,1-6.955,1.367.235.235,0,0,0-.1.453,7.238,7.238,0,0,0,7.309-1.516C-522.087-415.134-522.329-415.322-522.493-415.268Z" transform="translate(544.546 452.138)" fill="#d37767"/><path d="M-519.641-450.063c-.059-.008-.117-.01-.173-.013-.052-6.624-3.091-10.667-9.4-12.952-4.918-1.782-14.886.614-17.362,6.544-1.846,4.42-1.344,9.172.255,15.335,2.264,8.725,12.385,15.6,20.678,6.777a21.563,21.563,0,0,0,4.747-8.406,2.038,2.038,0,0,0,.361,0,4.035,4.035,0,0,0,3.424-3.2C-516.748-447.724-517.77-449.83-519.641-450.063Z" transform="translate(550.566 468.242)" fill="#f9c0ae"/><path d="M-520.145-464.561c-2.38-5.04-13.786-7.131-19.291-5.4a13.742,13.742,0,0,0-7.616,5.351s-7.318,7.788-4.1,11.245,7.851,2.2,8.92.835c.171-.219.3-.41.413-.577a10.583,10.583,0,0,0,9,3.087,7.054,7.054,0,0,0,3.488-1.818c1.147.627,2.246,1.486,2.735,1.712.9.417,2.048,1.493,1.52,5.957s-4.576,10.149-.126,10.233,9.025-2.95,9.5-9.191S-517.764-459.521-520.145-464.561Z" transform="translate(551.968 470.56)" fill="#a68635"/></g><g transform="translate(6.657 110.957)"><rect width="3" height="98.346" transform="translate(5.001)" fill="#9e6614"/><rect width="5.667" height="98.346" fill="#b08812"/></g><g transform="translate(182.691 110.957)"><rect width="3" height="98.346" transform="translate(5.001)" fill="#9e6614"/><rect width="5.667" height="98.346" fill="#b08812"/></g><g transform="translate(61.998 82.953)"><rect width="3" height="110.681" transform="translate(5.001)" fill="#9e6614"/><rect width="5.667" height="110.681" fill="#b08812"/></g><path d="M-528.591-351.749H-673.452L-734.4-321.711v3.411h191.813l13.992-7.007Z" transform="translate(734.396 430.967)" fill="#e2c496"/><path d="M-553.452-369.051s-1.334,5.79-.445,9.983,2.338,6.929,4.223,7.986c1.778,1,4.445.6,5.334-2.8s-1.111-12.978-3.111-15.374C-549.42-371.609-553.452-369.051-553.452-369.051Z" transform="translate(674.347 437.132)" fill="#f9c0ae"/><path d="M-492.157-403.787c1.778,6.446,5.612,22.9,1.612,29.349-3.246,5.231-12.391,8.779-16.169,10.335s-6.446-4.233-4-5.778,11.835-11.057,11.835-11.057-5.945-22.182-3.056-26.182S-493.935-410.232-492.157-403.787Z" transform="translate(660.169 450.223)" fill="#f9c0ae"/><path d="M-616.742-344.279c6.325,0,15-.667,17.669.667s9.335-.333,12.335-1,12.668,3,15.335,2.334,3.334-3.334,5-2.667,4,2.334,6.668,3.334,16.336.667,22.336,1,11,1,14.335,2.334,4.334,5,7.668,6.668,6,3.667,1,5.334-15.335,5-24,3.334-41.339-6-52.007-6.334-17-2.334-29.671-3.334-22.67,2.667-29.671,0,6.334-3.667,9.335-7.334,8.334-7.668,11.335-6.334S-618.409-344.279-616.742-344.279Z" transform="translate(706.855 429.232)" fill="#32abaa"/><path d="M-534.437-340.247c-2.052-.109-3.27.874-5.043,1.768-3.408,1.719-7.372-.389-10.594-1.7-1.251-.509-2.4,1.464-1.338,2.3,2.824,2.216,7.02,4.836,10.834,3.938,2.39-.563,6.771-2.135,7.165-4.962A1.086,1.086,0,0,0-534.437-340.247Z" transform="translate(673.557 427.139)" fill="#227571"/><path d="M-499.622-337.08c-2.926-1.348-5.439-1.256-8.6-1.171-4.139.111-7.755,2.168-11.329-1.039-.789-.708-2.092.2-1.505,1.161,1.95,3.2,4.374,4.364,8.088,4.349a41.344,41.344,0,0,0,13.22-2.31C-499.357-336.231-499.157-336.866-499.622-337.08Z" transform="translate(663.352 426.9)" fill="#227571"/><path d="M-469.58-323.786c-4.323.881-9.01-.293-13.3-.986-3.6-.58-7.386.129-10.922-.741a.25.25,0,0,0-.133.482,15.317,15.317,0,0,0,5.839.306c2.564-.307,4.371.5,6.76,1.277,3.746,1.22,8.385,2.33,11.9,0A.188.188,0,0,0-469.58-323.786Z" transform="translate(654.322 422.227)" fill="#227571"/><path d="M-572.162-329.954c-1.845.045-3.983-.478-5.834-.6a82.182,82.182,0,0,1-9.529-1.033c-2.689-.5-5.319-1.3-7.984-1.9-2.286-.514-4.555-.479-6.822-1.108a17.139,17.139,0,0,0-4.888-.733c-2,.018-3.653-.623-5.677-.253-3.028.555-5.888.173-8.939.078-1.223-.039-2.444-.079-3.667-.093-1.2-.013-2.806.909-4,1.056-.679.083-.7,1.151,0,1.083,2.161-.207,4.142-.926,6.346-1,2.78-.087,5.548-.27,8.322-.459,2.12-.145,1.809-.412,3.878.025a19.993,19.993,0,0,0,2.79.843,29.625,29.625,0,0,1,7.124,1.475c2.207.683,5.2.359,7.492.7,2.742.4,5.4,1.305,8.129,1.79,4.089.724,9.307,2.048,13.338.7A.293.293,0,0,0-572.162-329.954Z" transform="translate(699.613 425.617)" fill="#227571"/><path d="M-565.674-338.171c-2.226.1-4.413.547-6.668.578a46.328,46.328,0,0,1-6.668-.869c-.6-.079-.744.963-.144,1.064,4.19.7,10.038,2.814,13.656-.345A.252.252,0,0,0-565.674-338.171Z" transform="translate(682.791 426.541)" fill="#227571"/><path d="M-527.926-329.463c-.543.379-.966.875-1.536,1.221a21.7,21.7,0,0,1-2.081,1.294c-.913.425-.1,1.881.8,1.367a11.777,11.777,0,0,0,1.96-1.432c.646-.573.769-1.416,1.173-2.137C-527.507-329.338-527.729-329.6-527.926-329.463Z" transform="translate(666.93 423.553)" fill="#227571"/><path d="M-491.165-320.109c-7.046-1.2-14.713-1.836-21.075-5.361-.682-.378-1.292.668-.61,1.043a32.536,32.536,0,0,0,9.747,3.322c4,.769,7.833,1.882,11.938,1.318C-491-319.81-491.008-320.082-491.165-320.109Z" transform="translate(660.667 422.237)" fill="#227571"/><g transform="translate(122.029 76.355)"><path d="M-548.288-353.78s3.334-3.667,7-1.667,7,9.668,7,9.668a4.151,4.151,0,0,1-3.334,3.334,14.525,14.525,0,0,1-10.335-1C-552.288-345.445-552.622-351.112-548.288-353.78Z" transform="translate(551.376 356.043)" fill="#f9c0ae"/><path d="M-540.795-338.26a17.943,17.943,0,0,1-3.064-2.377c-1.063-.977-2.655-1.96-3.287-3.284-.135-.282-.575-.081-.495.209.45,1.629,1.928,2.652,3.074,3.783.922.909,2.3,2.137,3.688,1.98A.168.168,0,0,0-540.795-338.26Z" transform="translate(550.135 352.049)" fill="#d37767"/><path d="M-536.131-339.656a3.017,3.017,0,0,0-.993-1.023,30.093,30.093,0,0,1-2.578-2.384c-1.607-1.468-3.693-2.781-4.948-4.583a.25.25,0,0,0-.431.253c.952,2.109,2.882,3.641,4.559,5.151,1.064.959,2.554,3.3,4.231,2.985A.273.273,0,0,0-536.131-339.656Z" transform="translate(549.288 353.285)" fill="#d37767"/><path d="M-532.16-342.788c-1.816-3.328-5.43-5.9-8.252-8.332a.4.4,0,0,0-.56.559c2.634,2.8,5.029,6.266,8.5,8.086A.231.231,0,0,0-532.16-342.788Z" transform="translate(547.948 354.438)" fill="#d37767"/></g><g transform="translate(142.173 76.355)"><path d="M-507.162-353.78s-3.334-3.667-7-1.667-7,9.668-7,9.668a4.151,4.151,0,0,0,3.334,3.334,14.525,14.525,0,0,0,10.335-1C-503.162-345.445-502.828-351.112-507.162-353.78Z" transform="translate(521.164 356.043)" fill="#f9c0ae"/><path d="M-509.582-338.26a17.909,17.909,0,0,0,3.064-2.377c1.063-.977,2.655-1.96,3.287-3.284.135-.282.575-.081.495.209-.449,1.629-1.928,2.652-3.074,3.783-.921.909-2.295,2.137-3.687,1.98A.168.168,0,0,1-509.582-338.26Z" transform="translate(517.332 352.049)" fill="#d37767"/><path d="M-515.281-339.656a3.03,3.03,0,0,1,.993-1.023,30.012,30.012,0,0,0,2.578-2.384c1.607-1.468,3.694-2.781,4.948-4.583a.25.25,0,0,1,.431.253c-.952,2.109-2.882,3.641-4.558,5.151-1.065.959-2.554,3.3-4.231,2.985A.273.273,0,0,1-515.281-339.656Z" transform="translate(519.215 353.285)" fill="#d37767"/><path d="M-519.226-342.788c1.816-3.328,5.429-5.9,8.252-8.332a.4.4,0,0,1,.56.559c-2.635,2.8-5.029,6.266-8.5,8.086A.231.231,0,0,1-519.226-342.788Z" transform="translate(520.528 354.438)" fill="#d37767"/></g><g transform="translate(90.223 87.901)"><path d="M-587.848-313.156c0,1.219-2.514,2.209-5.615,2.209s-5.617-.989-5.617-2.209,2.514-2.209,5.617-2.209S-587.848-314.377-587.848-313.156Z" transform="translate(599.08 330.941)" fill="#fbae27"/><path d="M-588.147-334.58h-10.039V-320.5h.036c.083,1.055,2.28,1.9,4.985,1.9s4.9-.846,4.983-1.9h.035Z" transform="translate(598.782 337.344)" fill="#c6462d"/><g transform="translate(2.142 4.465)"><path d="M-595.868-313.8s.142.027.388.081c.123.025.271.071.445.094s.367.045.576.078.442.037.683.062a7.4,7.4,0,0,0,.765.035c.265,0,.54.016.817,0s.562-.025.842-.048.561-.055.836-.1.543-.089.8-.149.5-.127.731-.2a6.489,6.489,0,0,0,.627-.251,3.513,3.513,0,0,0,.485-.293,1.6,1.6,0,0,0,.306-.31.967.967,0,0,0,.125-.255l.032-.1s0,.035-.01.1a.823.823,0,0,1-.077.289,1.716,1.716,0,0,1-.272.384,2.663,2.663,0,0,1-.472.385l-.3.175-.335.157a6.759,6.759,0,0,1-.75.265c-.266.072-.541.141-.825.19s-.575.086-.866.112-.589.036-.869.035-.569-.027-.843-.039a5.222,5.222,0,0,1-.781-.092,5.585,5.585,0,0,1-.693-.135c-.213-.055-.406-.113-.575-.163s-.306-.12-.424-.164C-595.737-313.743-595.868-313.8-595.868-313.8Z" transform="translate(595.868 326.405)" fill="#a33b27"/><path d="M-595.868-319.43s.142.026.388.081c.123.025.271.071.445.094s.367.045.576.077.442.037.683.063a7.228,7.228,0,0,0,.765.035c.265,0,.54.016.817,0s.562-.024.842-.048.561-.055.836-.095.543-.09.8-.149.5-.127.731-.2a6.5,6.5,0,0,0,.627-.251,3.452,3.452,0,0,0,.485-.293,1.622,1.622,0,0,0,.306-.311.966.966,0,0,0,.125-.254c.021-.065.032-.1.032-.1s0,.036-.01.1a.826.826,0,0,1-.077.289,1.713,1.713,0,0,1-.272.383,2.633,2.633,0,0,1-.472.385l-.3.175-.335.157a6.631,6.631,0,0,1-.75.264c-.266.072-.541.141-.825.19s-.575.086-.866.113-.589.036-.869.035-.569-.028-.843-.039a5.312,5.312,0,0,1-.781-.092,5.456,5.456,0,0,1-.693-.135c-.213-.055-.406-.112-.575-.162s-.306-.12-.424-.165C-595.737-319.369-595.868-319.43-595.868-319.43Z" transform="translate(595.868 328.28)" fill="#a33b27"/><path d="M-595.868-315.679s.142.026.388.081c.123.025.271.071.445.094s.367.045.576.077.442.037.683.063a7.228,7.228,0,0,0,.765.035c.265,0,.54.016.817,0s.562-.024.842-.048.561-.055.836-.095.543-.09.8-.149.5-.127.731-.2a6.489,6.489,0,0,0,.627-.251,3.452,3.452,0,0,0,.485-.293,1.623,1.623,0,0,0,.306-.311.966.966,0,0,0,.125-.254c.021-.065.032-.1.032-.1s0,.036-.01.1a.826.826,0,0,1-.077.289,1.714,1.714,0,0,1-.272.383,2.637,2.637,0,0,1-.472.385l-.3.175-.335.157a6.637,6.637,0,0,1-.75.264c-.266.072-.541.141-.825.19s-.575.086-.866.113-.589.036-.869.035-.569-.028-.843-.039a5.311,5.311,0,0,1-.781-.092,5.461,5.461,0,0,1-.693-.135c-.213-.055-.406-.112-.575-.163s-.306-.119-.424-.164C-595.737-315.618-595.868-315.679-595.868-315.679Z" transform="translate(595.868 327.03)" fill="#a33b27"/><path d="M-595.868-323.181s.142.026.388.081c.123.025.271.071.445.094s.367.045.576.077.442.037.683.063a7.22,7.22,0,0,0,.765.035c.265,0,.54.016.817,0s.562-.024.842-.048.561-.055.836-.095.543-.09.8-.149.5-.127.731-.2a6.5,6.5,0,0,0,.627-.251,3.458,3.458,0,0,0,.485-.293,1.622,1.622,0,0,0,.306-.311.965.965,0,0,0,.125-.254c.021-.065.032-.1.032-.1s0,.036-.01.1a.826.826,0,0,1-.077.289,1.714,1.714,0,0,1-.272.383,2.634,2.634,0,0,1-.472.385l-.3.175-.335.157a6.625,6.625,0,0,1-.75.264c-.266.072-.541.141-.825.19s-.575.086-.866.113-.589.036-.869.035-.569-.028-.843-.039a5.316,5.316,0,0,1-.781-.092,5.472,5.472,0,0,1-.693-.135c-.213-.055-.406-.112-.575-.162s-.306-.12-.424-.165C-595.737-323.12-595.868-323.181-595.868-323.181Z" transform="translate(595.868 329.53)" fill="#a33b27"/><path d="M-595.868-326.932s.142.026.388.081c.123.025.271.071.445.094s.367.045.576.078.442.037.683.062a7.22,7.22,0,0,0,.765.035c.265,0,.54.016.817,0s.562-.024.842-.048.561-.055.836-.095.543-.09.8-.149.5-.127.731-.2a6.489,6.489,0,0,0,.627-.251,3.452,3.452,0,0,0,.485-.293,1.623,1.623,0,0,0,.306-.311.966.966,0,0,0,.125-.254l.032-.1s0,.036-.01.1a.826.826,0,0,1-.077.289,1.713,1.713,0,0,1-.272.383,2.636,2.636,0,0,1-.472.385l-.3.175-.335.157a6.631,6.631,0,0,1-.75.264c-.266.072-.541.141-.825.19s-.575.086-.866.113-.589.036-.869.035-.569-.028-.843-.039a5.316,5.316,0,0,1-.781-.092,5.467,5.467,0,0,1-.693-.135c-.213-.055-.406-.112-.575-.163s-.306-.119-.424-.164C-595.737-326.872-595.868-326.932-595.868-326.932Z" transform="translate(595.868 330.78)" fill="#a33b27"/><path d="M-595.868-317.555s.142.027.388.081c.123.025.271.071.445.094s.367.045.576.078.442.037.683.062a7.407,7.407,0,0,0,.765.035c.265,0,.54.016.817,0s.562-.025.842-.048.561-.055.836-.095.543-.09.8-.149.5-.127.731-.2a6.489,6.489,0,0,0,.627-.251,3.452,3.452,0,0,0,.485-.293,1.6,1.6,0,0,0,.306-.31.968.968,0,0,0,.125-.255l.032-.1s0,.035-.01.1a.823.823,0,0,1-.077.289,1.716,1.716,0,0,1-.272.384,2.665,2.665,0,0,1-.472.385l-.3.175-.335.157a6.772,6.772,0,0,1-.75.265c-.266.072-.541.141-.825.19s-.575.086-.866.112-.589.036-.869.035-.569-.027-.843-.039a5.222,5.222,0,0,1-.781-.092,5.591,5.591,0,0,1-.693-.135c-.213-.055-.406-.113-.575-.163s-.306-.12-.424-.164C-595.737-317.494-595.868-317.555-595.868-317.555Z" transform="translate(595.868 327.655)" fill="#a33b27"/><path d="M-595.868-325.057s.142.026.388.081c.123.025.271.071.445.094s.367.045.576.078.442.037.683.062a7.407,7.407,0,0,0,.765.035c.265,0,.54.016.817,0s.562-.024.842-.047.561-.055.836-.095.543-.09.8-.149.5-.127.731-.2a6.5,6.5,0,0,0,.627-.251,3.455,3.455,0,0,0,.485-.293,1.6,1.6,0,0,0,.306-.31.975.975,0,0,0,.125-.254c.021-.065.032-.1.032-.1s0,.035-.01.1a.823.823,0,0,1-.077.289,1.715,1.715,0,0,1-.272.384,2.631,2.631,0,0,1-.472.385l-.3.175-.335.157a6.765,6.765,0,0,1-.75.265c-.266.072-.541.141-.825.19s-.575.086-.866.112-.589.036-.869.035-.569-.027-.843-.038a5.31,5.31,0,0,1-.781-.093,5.591,5.591,0,0,1-.693-.135c-.213-.055-.406-.113-.575-.163s-.306-.12-.424-.164C-595.737-325-595.868-325.057-595.868-325.057Z" transform="translate(595.868 330.155)" fill="#a33b27"/><path d="M-595.868-321.306s.142.026.388.081c.123.025.271.071.445.094s.367.045.576.078.442.037.683.062a7.228,7.228,0,0,0,.765.035c.265,0,.54.017.817,0s.562-.025.842-.048.561-.055.836-.095.543-.09.8-.149.5-.127.731-.2a6.5,6.5,0,0,0,.627-.251,3.452,3.452,0,0,0,.485-.293,1.6,1.6,0,0,0,.306-.31.975.975,0,0,0,.125-.254c.021-.065.032-.1.032-.1s0,.035-.01.1a.823.823,0,0,1-.077.289,1.716,1.716,0,0,1-.272.384,2.664,2.664,0,0,1-.472.385l-.3.175-.335.157a6.759,6.759,0,0,1-.75.265c-.266.072-.541.141-.825.19s-.575.086-.866.112-.589.036-.869.035-.569-.027-.843-.038a5.31,5.31,0,0,1-.781-.093,5.579,5.579,0,0,1-.693-.135c-.213-.055-.406-.113-.575-.163s-.306-.12-.424-.164C-595.737-321.245-595.868-321.306-595.868-321.306Z" transform="translate(595.868 328.905)" fill="#a33b27"/><path d="M-595.868-328.808s.142.026.388.081c.123.025.271.071.445.094s.367.045.576.078.442.037.683.062a7.407,7.407,0,0,0,.765.035c.265,0,.54.016.817,0s.562-.024.842-.047.561-.055.836-.095.543-.09.8-.149.5-.127.731-.2a6.5,6.5,0,0,0,.627-.251,3.455,3.455,0,0,0,.485-.293,1.6,1.6,0,0,0,.306-.31.975.975,0,0,0,.125-.254l.032-.1s0,.036-.01.1a.823.823,0,0,1-.077.289,1.716,1.716,0,0,1-.272.384,2.633,2.633,0,0,1-.472.385l-.3.175-.335.157a6.625,6.625,0,0,1-.75.265c-.266.072-.541.141-.825.19s-.575.086-.866.112-.589.036-.869.035-.569-.027-.843-.038a5.314,5.314,0,0,1-.781-.093,5.591,5.591,0,0,1-.693-.135c-.213-.055-.406-.113-.575-.163s-.306-.12-.424-.164C-595.737-328.747-595.868-328.808-595.868-328.808Z" transform="translate(595.868 331.405)" fill="#a33b27"/><path d="M-595.868-330.683s.142.026.388.081c.123.025.271.071.445.094s.367.045.576.078.442.037.683.062a7.237,7.237,0,0,0,.765.035c.265,0,.54.016.817,0s.562-.024.842-.048.561-.055.836-.095.543-.09.8-.149.5-.126.731-.2a6.321,6.321,0,0,0,.627-.251,3.392,3.392,0,0,0,.485-.293,1.6,1.6,0,0,0,.306-.31.965.965,0,0,0,.125-.254l.032-.1s0,.036-.01.1a.827.827,0,0,1-.077.289,1.714,1.714,0,0,1-.272.383,2.634,2.634,0,0,1-.472.385l-.3.175-.335.157a6.625,6.625,0,0,1-.75.264c-.266.072-.541.141-.825.19s-.575.086-.866.113-.589.036-.869.035-.569-.028-.843-.039a5.312,5.312,0,0,1-.781-.092,5.461,5.461,0,0,1-.693-.135c-.213-.055-.406-.112-.575-.163s-.306-.119-.424-.164C-595.737-330.623-595.868-330.683-595.868-330.683Z" transform="translate(595.868 332.03)" fill="#a33b27"/></g><path d="M-587.848-336.517c0,1.22-2.514,2.209-5.615,2.209s-5.617-.989-5.617-2.209,2.514-2.209,5.617-2.209S-587.848-337.737-587.848-336.517Z" transform="translate(599.08 338.726)" fill="#fbae27"/><path d="M-589.922-336.318c0,.319-.658.578-1.47.578s-1.47-.259-1.47-.578.659-.579,1.47-.579S-589.922-336.638-589.922-336.318Z" transform="translate(597.008 338.117)" fill="#c17809"/></g><g transform="translate(69.288 82.42)"><path d="M-619.246-321.378c0,1.22-2.514,2.209-5.615,2.209s-5.617-.989-5.617-2.209,2.515-2.209,5.617-2.209S-619.246-322.6-619.246-321.378Z" transform="translate(630.478 339.162)" fill="#fbae27"/><path d="M-619.544-342.8h-10.039v14.085h.035c.083,1.055,2.28,1.9,4.985,1.9s4.9-.846,4.983-1.9h.036Z" transform="translate(630.18 345.565)" fill="#ffefd5"/><g transform="translate(2.142 4.464)"><path d="M-627.266-322.025s.143.026.389.081c.123.025.271.071.444.094s.367.045.576.078.442.037.683.062a7.422,7.422,0,0,0,.765.035c.265,0,.54.016.817,0s.562-.025.843-.049.561-.055.836-.095.542-.089.8-.149.5-.127.731-.2a6.092,6.092,0,0,0,.627-.251,3.42,3.42,0,0,0,.485-.293,1.583,1.583,0,0,0,.306-.31,1.006,1.006,0,0,0,.125-.255l.031-.1-.009.1a.824.824,0,0,1-.077.289,1.7,1.7,0,0,1-.273.383,2.641,2.641,0,0,1-.472.386l-.3.175-.335.157a6.769,6.769,0,0,1-.75.265c-.265.071-.541.141-.826.19s-.574.086-.865.112-.59.036-.869.035-.57-.028-.843-.039a5.324,5.324,0,0,1-.781-.092,5.453,5.453,0,0,1-.693-.135c-.214-.055-.406-.112-.576-.162s-.305-.12-.424-.164C-627.135-321.964-627.266-322.025-627.266-322.025Z" transform="translate(627.266 334.627)" fill="#dbccb5"/><path d="M-627.266-327.652s.143.027.389.081c.123.025.271.071.444.095s.367.045.576.077.442.037.683.063a7.251,7.251,0,0,0,.765.035c.265,0,.54.016.817,0s.562-.024.843-.048.561-.055.836-.095.542-.09.8-.149.5-.127.731-.2a6.4,6.4,0,0,0,.627-.251,3.417,3.417,0,0,0,.485-.293,1.583,1.583,0,0,0,.306-.31,1,1,0,0,0,.125-.254l.031-.1-.009.1a.828.828,0,0,1-.077.289,1.718,1.718,0,0,1-.273.383,2.612,2.612,0,0,1-.472.385l-.3.175-.335.157a6.64,6.64,0,0,1-.75.264c-.265.072-.541.141-.826.19s-.574.086-.865.113-.59.035-.869.035-.57-.027-.843-.038a5.328,5.328,0,0,1-.781-.092,5.454,5.454,0,0,1-.693-.135c-.214-.055-.406-.112-.576-.163s-.305-.119-.424-.164C-627.135-327.59-627.266-327.652-627.266-327.652Z" transform="translate(627.266 336.502)" fill="#dbccb5"/><path d="M-627.266-323.9s.143.027.389.081c.123.025.271.071.444.095s.367.045.576.077.442.037.683.063a7.243,7.243,0,0,0,.765.035c.265,0,.54.016.817,0s.562-.024.843-.048.561-.055.836-.095.542-.09.8-.149.5-.127.731-.2a6.4,6.4,0,0,0,.627-.251,3.422,3.422,0,0,0,.485-.293,1.583,1.583,0,0,0,.306-.31,1,1,0,0,0,.125-.254l.031-.1-.009.1a.828.828,0,0,1-.077.289,1.718,1.718,0,0,1-.273.383,2.611,2.611,0,0,1-.472.385l-.3.175-.335.157a6.634,6.634,0,0,1-.75.264c-.265.072-.541.141-.826.19s-.574.086-.865.113-.59.035-.869.035-.57-.027-.843-.038a5.324,5.324,0,0,1-.781-.092,5.453,5.453,0,0,1-.693-.135c-.214-.055-.406-.112-.576-.163s-.305-.119-.424-.164C-627.135-323.839-627.266-323.9-627.266-323.9Z" transform="translate(627.266 335.252)" fill="#dbccb5"/><path d="M-627.266-331.4s.143.026.389.081c.123.025.271.071.444.095s.367.045.576.077.442.037.683.063a7.235,7.235,0,0,0,.765.035c.265,0,.54.016.817,0s.562-.024.843-.048.561-.055.836-.095.542-.09.8-.149.5-.127.731-.2a6.412,6.412,0,0,0,.627-.251,3.481,3.481,0,0,0,.485-.293,1.6,1.6,0,0,0,.306-.311,1,1,0,0,0,.125-.254l.031-.1-.009.1a.828.828,0,0,1-.077.289,1.719,1.719,0,0,1-.273.383,2.612,2.612,0,0,1-.472.385l-.3.175-.335.157a6.64,6.64,0,0,1-.75.264c-.265.072-.541.141-.826.19s-.574.086-.865.113-.59.035-.869.035-.57-.027-.843-.038a5.324,5.324,0,0,1-.781-.092,5.453,5.453,0,0,1-.693-.135c-.214-.055-.406-.112-.576-.163s-.305-.119-.424-.164C-627.135-331.341-627.266-331.4-627.266-331.4Z" transform="translate(627.266 337.752)" fill="#dbccb5"/><path d="M-627.266-335.154s.143.027.389.082c.123.025.271.071.444.094s.367.045.576.077.442.037.683.063a7.243,7.243,0,0,0,.765.035c.265,0,.54.016.817,0s.562-.024.843-.048.561-.055.836-.095.542-.09.8-.149.5-.127.731-.2a6.412,6.412,0,0,0,.627-.251,3.481,3.481,0,0,0,.485-.293,1.6,1.6,0,0,0,.306-.311,1,1,0,0,0,.125-.254l.031-.1-.009.1a.828.828,0,0,1-.077.289,1.719,1.719,0,0,1-.273.383,2.612,2.612,0,0,1-.472.385l-.3.175-.335.157a6.634,6.634,0,0,1-.75.264c-.265.072-.541.141-.826.19s-.574.086-.865.113-.59.035-.869.035-.57-.027-.843-.038a5.324,5.324,0,0,1-.781-.092,5.453,5.453,0,0,1-.693-.135c-.214-.055-.406-.112-.576-.163s-.305-.119-.424-.164C-627.135-335.094-627.266-335.154-627.266-335.154Z" transform="translate(627.266 339.002)" fill="#dbccb5"/><path d="M-627.266-325.776s.143.026.389.081c.123.025.271.071.444.094s.367.045.576.078.442.037.683.062a7.431,7.431,0,0,0,.765.035c.265,0,.54.016.817,0s.562-.025.843-.049.561-.055.836-.095.542-.089.8-.149.5-.127.731-.2a6.085,6.085,0,0,0,.627-.251,3.417,3.417,0,0,0,.485-.293,1.584,1.584,0,0,0,.306-.31,1.007,1.007,0,0,0,.125-.255l.031-.1-.009.1a.824.824,0,0,1-.077.289,1.7,1.7,0,0,1-.273.383,2.641,2.641,0,0,1-.472.386l-.3.175-.335.157a6.775,6.775,0,0,1-.75.265c-.265.071-.541.141-.826.19s-.574.086-.865.112-.59.036-.869.035-.57-.028-.843-.039a5.238,5.238,0,0,1-.781-.092,5.454,5.454,0,0,1-.693-.135c-.214-.055-.406-.112-.576-.162s-.305-.12-.424-.164C-627.135-325.715-627.266-325.776-627.266-325.776Z" transform="translate(627.266 335.877)" fill="#dbccb5"/><path d="M-627.266-333.278s.143.026.389.081c.123.025.271.071.444.094s.367.045.576.078.442.037.683.062a7.243,7.243,0,0,0,.765.035c.265,0,.54.017.817,0s.562-.024.843-.048.561-.055.836-.095.542-.089.8-.149.5-.127.731-.2a6.092,6.092,0,0,0,.627-.251,3.417,3.417,0,0,0,.485-.293,1.583,1.583,0,0,0,.306-.31,1.007,1.007,0,0,0,.125-.255l.031-.1-.009.1a.824.824,0,0,1-.077.289,1.7,1.7,0,0,1-.273.383,2.612,2.612,0,0,1-.472.385l-.3.175-.335.157a6.769,6.769,0,0,1-.75.265c-.265.072-.541.141-.826.19s-.574.086-.865.112-.59.036-.869.035-.57-.028-.843-.039a5.23,5.23,0,0,1-.781-.092,5.572,5.572,0,0,1-.693-.135c-.214-.055-.406-.113-.576-.163s-.305-.119-.424-.163C-627.135-333.217-627.266-333.278-627.266-333.278Z" transform="translate(627.266 338.377)" fill="#dbccb5"/><path d="M-627.266-329.527s.143.026.389.081c.123.025.271.071.444.094s.367.045.576.078.442.037.683.062a7.235,7.235,0,0,0,.765.035c.265,0,.54.017.817,0s.562-.025.843-.049.561-.055.836-.095.542-.089.8-.149.5-.127.731-.2a6.1,6.1,0,0,0,.627-.251,3.42,3.42,0,0,0,.485-.293,1.582,1.582,0,0,0,.306-.31,1.006,1.006,0,0,0,.125-.255l.031-.1-.009.1a.824.824,0,0,1-.077.289,1.7,1.7,0,0,1-.273.383,2.641,2.641,0,0,1-.472.386l-.3.175-.335.157a6.775,6.775,0,0,1-.75.265c-.265.071-.541.141-.826.19s-.574.086-.865.112-.59.036-.869.035-.57-.028-.843-.039a5.238,5.238,0,0,1-.781-.092,5.453,5.453,0,0,1-.693-.135c-.214-.055-.406-.112-.576-.162s-.305-.12-.424-.164C-627.135-329.466-627.266-329.527-627.266-329.527Z" transform="translate(627.266 337.127)" fill="#dbccb5"/><path d="M-627.266-337.029s.143.026.389.081c.123.025.271.071.444.094s.367.045.576.078.442.037.683.062a7.243,7.243,0,0,0,.765.035c.265,0,.54.017.817,0s.562-.024.843-.048.561-.055.836-.095.542-.089.8-.149.5-.127.731-.2a6.251,6.251,0,0,0,.627-.251,3.48,3.48,0,0,0,.485-.293,1.583,1.583,0,0,0,.306-.31,1.006,1.006,0,0,0,.125-.255c.021-.064.031-.1.031-.1l-.009.1a.824.824,0,0,1-.077.289,1.7,1.7,0,0,1-.273.383,2.584,2.584,0,0,1-.472.385l-.3.175-.335.157a6.769,6.769,0,0,1-.75.265c-.265.072-.541.141-.826.19s-.574.086-.865.112-.59.036-.869.035-.57-.028-.843-.039a5.234,5.234,0,0,1-.781-.092,5.577,5.577,0,0,1-.693-.135c-.214-.055-.406-.113-.576-.163s-.305-.119-.424-.163C-627.135-336.969-627.266-337.029-627.266-337.029Z" transform="translate(627.266 339.627)" fill="#dbccb5"/><path d="M-627.266-338.905s.143.027.389.082c.123.025.271.071.444.094s.367.045.576.077.442.037.683.063a7.243,7.243,0,0,0,.765.035c.265,0,.54.016.817,0s.562-.024.843-.048.561-.055.836-.095.542-.09.8-.149.5-.127.731-.2a6.412,6.412,0,0,0,.627-.251,3.422,3.422,0,0,0,.485-.293,1.583,1.583,0,0,0,.306-.31,1,1,0,0,0,.125-.254l.031-.1-.009.1a.828.828,0,0,1-.077.289,1.719,1.719,0,0,1-.273.383,2.611,2.611,0,0,1-.472.385l-.3.175-.335.157a6.634,6.634,0,0,1-.75.264c-.265.072-.541.141-.826.19s-.574.086-.865.113-.59.035-.869.035-.57-.027-.843-.038a5.324,5.324,0,0,1-.781-.092,5.453,5.453,0,0,1-.693-.135c-.214-.055-.406-.112-.576-.163s-.305-.119-.424-.164C-627.135-338.844-627.266-338.905-627.266-338.905Z" transform="translate(627.266 340.252)" fill="#dbccb5"/></g><path d="M-619.246-344.738c0,1.22-2.514,2.209-5.615,2.209s-5.617-.989-5.617-2.209,2.515-2.209,5.617-2.209S-619.246-345.958-619.246-344.738Z" transform="translate(630.478 346.947)" fill="#fbae27"/><path d="M-621.319-344.54c0,.319-.659.579-1.47.579s-1.47-.259-1.47-.579.658-.578,1.47-.578S-621.319-344.859-621.319-344.54Z" transform="translate(628.406 346.337)" fill="#c17809"/></g><g transform="translate(48.403 84.926)"><path d="M-650.568-317.618c0,1.219-2.514,2.209-5.616,2.209s-5.617-.989-5.617-2.209,2.515-2.209,5.617-2.209S-650.568-318.839-650.568-317.618Z" transform="translate(661.801 335.403)" fill="#fbae27"/><path d="M-650.866-339.042h-10.039v14.085h.035c.083,1.055,2.28,1.9,4.984,1.9s4.9-.846,4.984-1.9h.036Z" transform="translate(661.502 341.806)" fill="#ffdb06"/><g transform="translate(2.142 4.465)"><path d="M-658.589-318.266s.143.027.389.081c.124.025.271.071.444.094s.368.045.577.078.442.037.683.062a7.411,7.411,0,0,0,.765.035c.265,0,.539.016.817,0s.562-.025.842-.048.562-.055.837-.095.542-.09.8-.149.5-.127.731-.2a6.485,6.485,0,0,0,.627-.251,3.508,3.508,0,0,0,.486-.293,1.6,1.6,0,0,0,.305-.31,1,1,0,0,0,.125-.254c.02-.065.031-.1.031-.1s0,.035-.01.1a.836.836,0,0,1-.077.289,1.744,1.744,0,0,1-.273.384,2.688,2.688,0,0,1-.472.385l-.3.175-.335.157a6.7,6.7,0,0,1-.751.265c-.266.072-.541.141-.826.19s-.574.086-.865.112-.59.036-.87.035-.57-.027-.843-.038a5.333,5.333,0,0,1-.782-.093,5.626,5.626,0,0,1-.693-.135c-.213-.055-.406-.113-.575-.163s-.305-.12-.424-.164C-658.457-318.205-658.589-318.266-658.589-318.266Z" transform="translate(658.589 330.867)" fill="#dbb50b"/><path d="M-658.589-323.892s.143.026.389.081c.124.025.271.071.444.094s.368.045.577.078.442.037.683.062a7.411,7.411,0,0,0,.765.035c.265,0,.539.015.817,0s.562-.024.842-.048.562-.055.837-.095.542-.09.8-.149.5-.126.731-.2a6.165,6.165,0,0,0,.627-.251,3.514,3.514,0,0,0,.486-.293,1.614,1.614,0,0,0,.305-.311.992.992,0,0,0,.125-.254c.02-.065.031-.1.031-.1s0,.036-.01.1a.839.839,0,0,1-.077.289,1.741,1.741,0,0,1-.273.383,2.656,2.656,0,0,1-.472.385l-.3.175-.335.157a6.684,6.684,0,0,1-.751.264c-.266.072-.541.141-.826.191s-.574.085-.865.112-.59.036-.87.035-.57-.028-.843-.039a5.335,5.335,0,0,1-.782-.092,5.506,5.506,0,0,1-.693-.135c-.213-.055-.406-.112-.575-.162s-.305-.12-.424-.164C-658.457-323.831-658.589-323.892-658.589-323.892Z" transform="translate(658.589 332.742)" fill="#dbb50b"/><path d="M-658.589-320.141s.143.026.389.081c.124.025.271.071.444.094s.368.045.577.078.442.037.683.062a7.411,7.411,0,0,0,.765.035c.265,0,.539.015.817,0s.562-.024.842-.048.562-.055.837-.095.542-.09.8-.149.5-.126.731-.2a6.325,6.325,0,0,0,.627-.251,3.508,3.508,0,0,0,.486-.293,1.614,1.614,0,0,0,.305-.311.991.991,0,0,0,.125-.254c.02-.065.031-.1.031-.1s0,.036-.01.1a.839.839,0,0,1-.077.289,1.741,1.741,0,0,1-.273.383,2.655,2.655,0,0,1-.472.385l-.3.175-.335.157a6.69,6.69,0,0,1-.751.264c-.266.072-.541.141-.826.19s-.574.086-.865.113-.59.036-.87.035-.57-.028-.843-.039a5.335,5.335,0,0,1-.782-.092,5.5,5.5,0,0,1-.693-.135c-.213-.055-.406-.112-.575-.162s-.305-.12-.424-.165C-658.457-320.081-658.589-320.141-658.589-320.141Z" transform="translate(658.589 331.492)" fill="#dbb50b"/><path d="M-658.589-327.643s.143.026.389.081c.124.025.271.071.444.094s.368.045.577.078.442.037.683.062a7.225,7.225,0,0,0,.765.035c.265,0,.539.017.817,0s.562-.024.842-.048.562-.055.837-.095.542-.09.8-.149.5-.126.731-.2a6.158,6.158,0,0,0,.627-.251,3.508,3.508,0,0,0,.486-.293,1.6,1.6,0,0,0,.305-.311.992.992,0,0,0,.125-.254c.02-.065.031-.1.031-.1s0,.036-.01.1a.839.839,0,0,1-.077.289,1.741,1.741,0,0,1-.273.383,2.658,2.658,0,0,1-.472.385l-.3.175-.335.157a6.69,6.69,0,0,1-.751.264c-.266.072-.541.141-.826.191s-.574.085-.865.112-.59.036-.87.035-.57-.028-.843-.039a5.339,5.339,0,0,1-.782-.092,5.506,5.506,0,0,1-.693-.135c-.213-.055-.406-.112-.575-.162s-.305-.12-.424-.164C-658.457-327.582-658.589-327.643-658.589-327.643Z" transform="translate(658.589 333.992)" fill="#dbb50b"/><path d="M-658.589-331.394s.143.026.389.081c.124.025.271.071.444.094s.368.045.577.078.442.037.683.062a7.233,7.233,0,0,0,.765.035c.265,0,.539.017.817,0s.562-.024.842-.048.562-.055.837-.095.542-.09.8-.149.5-.127.731-.2a6.158,6.158,0,0,0,.627-.251,3.508,3.508,0,0,0,.486-.293,1.6,1.6,0,0,0,.305-.311.993.993,0,0,0,.125-.254c.02-.065.031-.1.031-.1s0,.036-.01.1a.839.839,0,0,1-.077.289,1.74,1.74,0,0,1-.273.383,2.658,2.658,0,0,1-.472.385l-.3.175-.335.157a6.69,6.69,0,0,1-.751.264c-.266.072-.541.141-.826.191s-.574.085-.865.112-.59.036-.87.035-.57-.028-.843-.039a5.335,5.335,0,0,1-.782-.092,5.506,5.506,0,0,1-.693-.135c-.213-.055-.406-.112-.575-.163s-.305-.119-.424-.163C-658.457-331.333-658.589-331.394-658.589-331.394Z" transform="translate(658.589 335.242)" fill="#dbb50b"/><path d="M-658.589-322.017s.143.027.389.081c.124.025.271.071.444.094s.368.045.577.078.442.037.683.062a7.411,7.411,0,0,0,.765.035c.265,0,.539.016.817,0s.562-.025.842-.048.562-.055.837-.095.542-.09.8-.149.5-.127.731-.2a6.493,6.493,0,0,0,.627-.251,3.508,3.508,0,0,0,.486-.293,1.593,1.593,0,0,0,.305-.31,1,1,0,0,0,.125-.254c.02-.065.031-.1.031-.1s0,.035-.01.1a.835.835,0,0,1-.077.289,1.743,1.743,0,0,1-.273.384,2.684,2.684,0,0,1-.472.385l-.3.175-.335.157a6.69,6.69,0,0,1-.751.265c-.266.072-.541.141-.826.19s-.574.086-.865.112-.59.036-.87.035-.57-.027-.843-.038a5.333,5.333,0,0,1-.782-.093,5.626,5.626,0,0,1-.693-.135c-.213-.055-.406-.113-.575-.163s-.305-.12-.424-.164C-658.457-321.956-658.589-322.017-658.589-322.017Z" transform="translate(658.589 332.117)" fill="#dbb50b"/><path d="M-658.589-329.519s.143.026.389.081c.124.025.271.071.444.094s.368.045.577.078.442.037.683.062a7.054,7.054,0,0,0,.765.035c.265,0,.539.016.817,0s.562-.025.842-.048.562-.055.837-.095.542-.09.8-.149.5-.127.731-.2a6.485,6.485,0,0,0,.627-.251,3.508,3.508,0,0,0,.486-.293,1.6,1.6,0,0,0,.305-.31,1,1,0,0,0,.125-.254c.02-.065.031-.1.031-.1s0,.035-.01.1a.842.842,0,0,1-.077.29,1.741,1.741,0,0,1-.273.383,2.656,2.656,0,0,1-.472.385l-.3.176-.335.157a6.69,6.69,0,0,1-.751.265c-.266.072-.541.141-.826.19s-.574.086-.865.112-.59.036-.87.035-.57-.027-.843-.038a5.337,5.337,0,0,1-.782-.093,5.631,5.631,0,0,1-.693-.135c-.213-.055-.406-.113-.575-.163s-.305-.12-.424-.164C-658.457-329.458-658.589-329.519-658.589-329.519Z" transform="translate(658.589 334.617)" fill="#dbb50b"/><path d="M-658.589-325.768s.143.026.389.081c.124.025.271.071.444.094s.368.045.577.078.442.037.683.062a7.411,7.411,0,0,0,.765.035c.265,0,.539.016.817,0s.562-.025.842-.048.562-.055.837-.095.542-.09.8-.149.5-.127.731-.2a6.493,6.493,0,0,0,.627-.251,3.514,3.514,0,0,0,.486-.293,1.594,1.594,0,0,0,.305-.31,1,1,0,0,0,.125-.254c.02-.065.031-.1.031-.1s0,.035-.01.1a.842.842,0,0,1-.077.29,1.741,1.741,0,0,1-.273.383,2.686,2.686,0,0,1-.472.385l-.3.175-.335.157a6.684,6.684,0,0,1-.751.265c-.266.072-.541.141-.826.19s-.574.086-.865.112-.59.036-.87.035-.57-.027-.843-.038a5.337,5.337,0,0,1-.782-.093,5.637,5.637,0,0,1-.693-.135c-.213-.055-.406-.113-.575-.163s-.305-.12-.424-.164C-658.457-325.707-658.589-325.768-658.589-325.768Z" transform="translate(658.589 333.367)" fill="#dbb50b"/><path d="M-658.589-333.27s.143.026.389.081c.124.025.271.071.444.094s.368.045.577.078.442.037.683.062a7.054,7.054,0,0,0,.765.035c.265,0,.539.016.817,0s.562-.025.842-.048.562-.055.837-.095.542-.09.8-.149.5-.127.731-.2a6.485,6.485,0,0,0,.627-.251,3.5,3.5,0,0,0,.486-.293,1.594,1.594,0,0,0,.305-.31,1,1,0,0,0,.125-.254c.02-.065.031-.1.031-.1s0,.036-.01.1a.842.842,0,0,1-.077.29,1.74,1.74,0,0,1-.273.383,2.656,2.656,0,0,1-.472.385l-.3.176-.335.157a6.7,6.7,0,0,1-.751.265c-.266.072-.541.141-.826.19s-.574.086-.865.113-.59.035-.87.035-.57-.027-.843-.038a5.333,5.333,0,0,1-.782-.093,5.5,5.5,0,0,1-.693-.135c-.213-.055-.406-.113-.575-.163s-.305-.12-.424-.164C-658.457-333.209-658.589-333.27-658.589-333.27Z" transform="translate(658.589 335.867)" fill="#dbb50b"/><path d="M-658.589-335.145s.143.026.389.081c.124.025.271.071.444.094s.368.045.577.078.442.037.683.062a7.233,7.233,0,0,0,.765.035c.265,0,.539.017.817,0s.562-.024.842-.048.562-.055.837-.095.542-.09.8-.149.5-.127.731-.2a6.158,6.158,0,0,0,.627-.251,3.447,3.447,0,0,0,.486-.293,1.594,1.594,0,0,0,.305-.309,1,1,0,0,0,.125-.255c.02-.065.031-.1.031-.1s0,.036-.01.1a.839.839,0,0,1-.077.289,1.741,1.741,0,0,1-.273.383,2.659,2.659,0,0,1-.472.385l-.3.175-.335.157a6.7,6.7,0,0,1-.751.264c-.266.072-.541.141-.826.191s-.574.085-.865.112-.59.036-.87.035-.57-.028-.843-.039a5.334,5.334,0,0,1-.782-.092,5.5,5.5,0,0,1-.693-.135c-.213-.055-.406-.112-.575-.163s-.305-.119-.424-.163C-658.457-335.084-658.589-335.145-658.589-335.145Z" transform="translate(658.589 336.492)" fill="#dbb50b"/></g><path d="M-650.568-340.979c0,1.22-2.514,2.209-5.616,2.209s-5.617-.989-5.617-2.209,2.515-2.209,5.617-2.209S-650.568-342.2-650.568-340.979Z" transform="translate(661.801 343.188)" fill="#fbae27"/><path d="M-652.642-340.78c0,.319-.658.578-1.47.578s-1.47-.259-1.47-.578.659-.578,1.47-.578S-652.642-341.1-652.642-340.78Z" transform="translate(659.729 342.578)" fill="#c17809"/></g><g transform="translate(168.193 75.404)"><g transform="translate(3.4 1.141)"><path d="M-471.31-355.018s-.367,1.667-3.675,3.667-2.573,4,1.838,4,7.35-.333,13.23.667,11.025,1.333,12.863.667,3.308-4.667,1.47-7-5.145-2-10.658-2S-469.84-356.685-471.31-355.018Z" transform="translate(477.041 355.759)" fill="#56bbd0"/><path d="M-448.026-344.986c-1.733.407-3.448-.857-5.223-.849-2.134.009-4.237-.55-6.376-.689-2.455-.159-4.538-.019-6.966-.695-2.529-.7-5.475.341-7.994.593a.709.709,0,0,0,0,1.417c2.8.043,6.185-1.231,8.865-.545,2.492.637,5.094-.532,7.7.215,2.169.621,4.422.852,6.614,1.318,1.553.331,2.572.945,3.786-.069C-447.281-344.573-447.65-345.075-448.026-344.986Z" transform="translate(476.451 352.993)" fill="#3b8ea8"/></g><path d="M-475.542-356.922c-1.424.282-3.451,1.207-4,2.5-.347.815-.167,1.834-1.334,2.667s-1.59,2.1-1,2.334c2.5,1,4.24-1.624,6.5-2.167,2.736-.655,7.228-.445,10.163-.271,5.361.319,8.418-.775,11.794.319,3.932,1.273,6.578,1.691,7.863-.955,1.082-2.229-1.43-4.458-4.289-4.458s-5.361-.318-9.65-.318-4.289.318-7.148,0A28.26,28.26,0,0,0-475.542-356.922Z" transform="translate(482.141 357.47)" fill="#eb96c0"/><path d="M-446.457-350.073a16.647,16.647,0,0,0-8.447-1.47c-2.529.127-5.219-1.326-7.742-1.288a74.133,74.133,0,0,0-8.726.734,14.809,14.809,0,0,0-3.825.817c-1.356.621-2.677,1.654-4.168,1.922-.647.117-.375,1.09.273.965a6.411,6.411,0,0,0,2.166-.9,15.294,15.294,0,0,1,5.053-1.71,31.765,31.765,0,0,1,9.732-.5c.489.077,1.043.022,1.547.064a44.328,44.328,0,0,1,5.595.583c1.738.363,3.388.847,5.15,1.174a5.389,5.389,0,0,0,3.336.027C-446.339-349.716-446.26-349.977-446.457-350.073Z" transform="translate(481.339 355.924)" fill="#e273a9"/></g></g></g></svg>