<svg xmlns="http://www.w3.org/2000/svg" width="401.037" height="355.747" viewBox="0 0 401.037 355.747"><g transform="translate(-483.823 387.76)"><path d="M500.139-387.26s29.949,9.912,77.189,8.437,70.439-6.959,70.439-6.959l5.062,23.409,8.013,82.882s3.375,84.78,1.478,97.645-3.8,54.621-3.8,54.621l-9.49,94.27s-57.786-1.266-57.786-10.334.212-101.229.422-102.283-8.225-44.5-7.169-55.255-3.587-58.208-5.694-60.949-6.75-4.852-6.75-2.953-10.544,76.345-10.544,76.345l-6.75,60.527s-.634,68.962,1.475,76.977l2.109,8.013S504.991-30,498.875-32.955s-12.655-52.3-12.655-52.3l-1.9-113.251,4.85-149.737s.212-16.238,2.741-17.081S500.139-387.26,500.139-387.26Z" transform="translate(0 0)" fill="#d7dde0" stroke="#565656" stroke-linecap="round" stroke-linejoin="round" stroke-width="1"/><path d="M647.612-376.258l-34.3,3.692s-44.077,4.955-64.112,3.69-56.1-7.381-56.1-7.381l-4.955-1.616" transform="translate(4.715 11.563)" fill="#d7dde0" stroke="#565656" stroke-linecap="round" stroke-linejoin="round" stroke-width="1"/><path d="M565.034-371.787h-8.7l4.823,68.647h10.571Z" transform="translate(88.717 19.062)" fill="#d7dde0" stroke="#565656" stroke-linecap="round" stroke-linejoin="round" stroke-width="1"/><path d="M487.863-372.357l7.356,1.27v67.7h-9.64" transform="translate(1.547 18.361)" fill="#d7dde0" stroke="#565656" stroke-linecap="round" stroke-linejoin="round" stroke-width="1"/><path d="M523.348-372.709v89.525L522.7-266.85" transform="translate(47.284 17.927)" fill="#d7dde0" stroke="#565656" stroke-linecap="round" stroke-linejoin="round" stroke-width="1"/><path d="M541.814-373.75v54.2s-.473,15.5-18.822,14.869" transform="translate(47.64 16.644)" fill="#d7dde0" stroke="#565656" stroke-linecap="round" stroke-linejoin="round" stroke-width="1"/><path d="M484.415-297.369a48.156,48.156,0,0,1,36.279-14.762c23.2.634,43.256,13.137,43.256,13.137" transform="translate(0.113 92.534)" fill="#d7dde0" stroke="#565656" stroke-linecap="round" stroke-linejoin="round" stroke-width="1"/><path d="M484.7-280.014c0,.221,17.289,10.12,37.535,8.432s33.109-8.432,33.109-8.432" transform="translate(0.468 132.125)" fill="#d7dde0" stroke="#565656" stroke-linecap="round" stroke-linejoin="round" stroke-width="1"/><path d="M529.231-301.416s20.82-13.086,37.27-11.4,41.037,15.184,41.037,15.184" transform="translate(55.326 91.53)" fill="#d7dde0" stroke="#565656" stroke-linecap="round" stroke-linejoin="round" stroke-width="1"/><path d="M532.417-278.153s48.673,13.048,67.888-1.491" transform="translate(59.251 132.581)" fill="#d7dde0" stroke="#565656" stroke-linecap="round" stroke-linejoin="round" stroke-width="1"/><path d="M533.547-375.644l13.4,33.44-7.75,5.333-14.077-37.916" transform="translate(50.259 14.311)" fill="#d7dde0" stroke="#565656" stroke-linecap="round" stroke-linejoin="round" stroke-width="1"/><path d="M532.073-376.528s-8.923-5.136-10.584-4.031-6.328,7.354-3.243,9.173,9.2,1.989,9.2,1.989" transform="translate(40.523 8.064)" fill="#d7dde0" stroke="#565656" stroke-linecap="round" stroke-linejoin="round" stroke-width="1"/><path d="M595.1-367.3l5.694-19.05s83.3,4.85,107.135,4.216,37.54-5.06,38.171-4.216,5.062,21.51,5.062,21.51,11.39,93.429,12.653,109.878-6.325,150.157-6.325,150.157l-8.015,71.3s-50.193-4.236-56.1-11.83c0,0-2.107-119.367-2.107-121.9s-13.077-96.591-14.343-97.013a19.352,19.352,0,0,0-4.216-.422S655.416-162.589,656.258-150.78s-4.216,99.964.844,106.714c0,0-51.037,9.7-55.675,8.856S587.506-89.2,587.506-89.2l-5.482-125.558,4.216-138.957S589.615-367.443,595.1-367.3Z" transform="translate(120.366 0.99)" fill="#d7dde0" stroke="#565656" stroke-linecap="round" stroke-linejoin="round" stroke-width="1"/><path d="M588.165-376.961s58.63,9.062,93.217,7.167a586.023,586.023,0,0,0,62.214-6.745" transform="translate(127.932 12.688)" fill="#d7dde0" stroke="#565656" stroke-linecap="round" stroke-linejoin="round" stroke-width="1"/><line x2="1.284" y2="89.684" transform="translate(792.073 -355.414)" fill="#d7dde0" stroke="#565656" stroke-linecap="round" stroke-linejoin="round" stroke-width="1"/><path d="M594.868-364.063s-5.377,66.116-3.48,66.116h53.3l3.165-62.636Z" transform="translate(131.404 28.578)" fill="#d7dde0" stroke="#565656" stroke-linecap="round" stroke-linejoin="round" stroke-width="1"/><path d="M592.087-350.6l22.777,9.332,30.844-6.327" transform="translate(132.763 45.167)" fill="#d7dde0" stroke="#565656" stroke-linecap="round" stroke-linejoin="round" stroke-width="1"/><path d="M630.85-359.951l2.531,63.743,54.728-3.322-3.48-64.534Z" transform="translate(180.52 28.578)" fill="#d7dde0" stroke="#565656" stroke-linecap="round" stroke-linejoin="round" stroke-width="1"/><path d="M631.842-346.531l28.787,5.773,24.456-9.354" transform="translate(181.742 45.765)" fill="#d7dde0" stroke="#565656" stroke-linecap="round" stroke-linejoin="round" stroke-width="1"/><path d="M538.154-377.009s-10.915,10.756-15.026,24.36-9.491,41.6-9.491,41.6l7.591,2.058s5.538-48.559,18.032-59.632c0,0,.411.085,1.076.152,1.638.163,4.832.214,7.308-1.384,3.48-2.248,4.9-7.624,3-8.732s-6.959-2.531-8.7-1.9S538.154-377.009,538.154-377.009Z" transform="translate(36.116 8.15)" fill="#d7dde0" stroke="#565656" stroke-linecap="round" stroke-linejoin="round" stroke-width="1"/><line x2="2.064" y2="7.173" transform="translate(575.377 -367.435)" fill="#d7dde0" stroke="#565656" stroke-linecap="round" stroke-linejoin="round" stroke-width="1"/></g></svg>