<svg xmlns="http://www.w3.org/2000/svg" width="508.121" height="246.174" viewBox="0 0 508.121 246.174"><g transform="translate(1511.083 4409.668)"><path d="M-1294.7-4408.96l-213.969,213.969h364.552l5.309-5.31,135.139-135.138" fill="none" stroke="#7a1c47" stroke-miterlimit="10" stroke-width="2"/><path d="M-1219.478-4188.158l-14.372,14.372h-100.6s-22.737-23.381,1.716-44.4h230.378s33.892,35.394-1.716,69.607" transform="translate(-40.043 -46.409)" fill="none" stroke="#7a1c47" stroke-miterlimit="10" stroke-width="2"/><line x1="146.293" y2="149.624" transform="translate(-1377.928 -4408.96)" fill="none" stroke="#7a1c47" stroke-miterlimit="10" stroke-width="2"/><path d="M-1294.324-4218.189l-21.165,25.312h213.934l14.064-14.065" transform="translate(-46.996 -46.409)" fill="none" stroke="#7a1c47" stroke-miterlimit="10" stroke-width="2"/><g transform="translate(-1203.596 -4402.674)"><rect width="4.54" height="2.271" transform="matrix(0.698, -0.716, 0.716, 0.698, 139.154, 3.251)" fill="#4c4c4c"/><path d="M-1092.482-4174.417h-2.27v-9.074h2.27Zm0-18.148h-2.27v-9.074h2.27Zm0-18.148h-2.27v-9.074h2.27Zm0-18.148h-2.27v-9.074h2.27Zm0-18.148h-2.27v-9.075h2.27Zm3.666-15.733-1.625-1.586,6.335-6.5,1.625,1.586Zm12.669-12.994-1.625-1.585,6.334-6.5,1.625,1.585Zm12.67-12.995-1.625-1.584,6.334-6.5,1.625,1.584Zm12.669-12.995-1.625-1.584,6.335-6.5,1.625,1.586Zm12.669-12.993-1.625-1.586,6.335-6.5,1.625,1.585Zm12.67-12.994-1.626-1.585,6.335-6.5,1.626,1.585Zm12.669-12.995-1.626-1.585,6.335-6.5,1.626,1.584Zm12.669-12.994-1.625-1.585,6.335-6.5,1.625,1.586Zm12.669-12.994-1.625-1.585,6.335-6.5,1.625,1.584Zm12.669-12.994-1.625-1.585,6.335-6.5,1.625,1.586Z" transform="translate(1102.902 4397.52)" fill="#4c4c4c"/><rect width="2.27" height="4.54" transform="translate(8.15 232.177)" fill="#4c4c4c"/><g transform="translate(0 227.647)"><path d="M-1105.521-4098.274l1.663-1.549,7.62,8.2,7.622-8.2,1.663,1.549-9.285,9.984Z" transform="translate(1105.521 4099.823)" fill="#4c4c4c"/></g></g><g transform="translate(-1341.738 -4402.674)"><rect width="4.541" height="2.27" transform="matrix(0.698, -0.716, 0.716, 0.698, 139.154, 3.25)" fill="#4c4c4c"/><path d="M-1275.033-4174.417h-2.27v-9.074h2.27Zm0-18.148h-2.27v-9.074h2.27Zm0-18.148h-2.27v-9.074h2.27Zm0-18.148h-2.27v-9.074h2.27Zm0-18.148h-2.27v-9.075h2.27Zm3.666-15.733-1.626-1.586,6.335-6.5,1.625,1.586Zm12.669-12.994-1.625-1.585,6.334-6.5,1.625,1.585Zm12.669-12.995-1.625-1.584,6.335-6.5,1.625,1.584Zm12.669-12.995-1.625-1.584,6.335-6.5,1.625,1.586Zm12.67-12.993-1.625-1.586,6.335-6.5,1.625,1.585Zm12.669-12.994-1.625-1.585,6.335-6.5,1.625,1.585Zm12.67-12.995-1.626-1.585,6.335-6.5,1.626,1.584Zm12.669-12.994-1.626-1.585,6.334-6.5,1.626,1.586Zm12.669-12.994-1.626-1.585,6.335-6.5,1.625,1.584Zm12.669-12.994-1.625-1.585,6.335-6.5,1.625,1.586Z" transform="translate(1285.453 4397.52)" fill="#4c4c4c"/><rect width="2.27" height="4.54" transform="translate(8.15 232.177)" fill="#4c4c4c"/><g transform="translate(0 227.647)"><path d="M-1288.073-4098.274l1.663-1.549,7.62,8.2,7.622-8.2,1.663,1.549-9.285,9.984Z" transform="translate(1288.073 4099.823)" fill="#4c4c4c"/></g></g></g></svg>