<svg xmlns="http://www.w3.org/2000/svg" width="400" height="456" viewBox="0 0 400 456"><g transform="translate(-810 -17252)"><rect width="400" height="456" transform="translate(810 17252)" fill="#fff"/><g transform="translate(-1509.372 16373.266)"><path d="M2553.181,918.915s4.512,8.513,2.83,30.676-12.421,27.636-20.854,28.965-19.341,3.787-24.386,7.188-8.173,10.4-8.173,10.4-6.458-10.153-3.107-20.88,14.56-15.311,18.154-25.673.285-39.482,7.326-41S2552.6,911.271,2553.181,918.915Z" fill="#4f2b25"/><path d="M2515.753,966.453s-11.146,4.919-17.2,16.267,2.475,18.531,2.475,18.531-1.758-6.4,5.728-8.781,19.584-4.881,26.771-13.65S2515.753,966.453,2515.753,966.453Z" fill="#582f29"/><path d="M2510.08,984.931c-5.323,8.619-9.373,16.206-14.644,21.341-7.436,7.242-13.012,14.557-7.508,24.334a14.872,14.872,0,0,0,6.341,5.9,193.858,193.858,0,0,1,4.354,28.769c1.031,17.336,36.571,27.54,37.944.386.31-6.14,5.968-16.107,10.078-46.992,2.3-17.294-10.85-40.54-11.665-41.73C2531.821,972.326,2519.095,970.331,2510.08,984.931Z" fill="#f9b99c"/><path d="M2513.778,965.749s.373,16.98.373,18.3,10.568,14.313,22.016-3.832l-1.92-23.052Z" fill="#f2a079"/><path d="M2531.777,920.92c-7.641-2.529-25.124-1.774-25.69-1.208s-2.789,9.129-2.789,20.213c0,2.667-2.541,12.233-2.3,13.751.436,2.772,1.6,7.556,1.6,7.556s.6,9.6,1.262,10.161c3.066,2.588,18.573-1.543,19.718-1.983,13.365-5.129,13.5-26.474,13.365-31.074C2536.78,932.746,2531.777,920.92,2531.777,920.92Z" fill="#f9b99c"/><path d="M2511.853,940.47c-2.789-3.371-5.447-.151-5.56-.012l-1.489-1.95c1.459-1.808,5.116-4.135,8.521-.009Z" fill="#3f2921"/><path d="M2513.816,929.369l2.927,3.377a29.929,29.929,0,0,0-11.541-.47l-.4-2.927C2512.31,928.036,2513.816,929.369,2513.816,929.369Z" fill="#3e221c"/><path d="M2503.055,956.464c2.936,3.187,6.915-.3,7.012-.448l.843,2.168c-1.3,1.895-4.718,4.453-8.312.557Z" fill="#cc373d"/><path d="M2503.516,944.408c-1.1-.18-4.625,3.577-4.986,4.89s1.913,4.315,2.47,4.378,4.9-1.669,5.074-2.328S2504.137,944.508,2503.516,944.408Z" fill="#f2a079"/><rect width="2.306" height="3.237" transform="translate(2506.339 938.336)" fill="#3f2921"/><path d="M2528.464,936.268s4.931-2.214,6.08-1.342.5,12.061-.494,13.671-6.928,2.3-6.928,2.3A53.828,53.828,0,0,0,2528.464,936.268Z" fill="#f2a079"/><path d="M2506.05,947.568c-1.643.083-2.589-3.732-2.92-6.853l-.006-.079a23.328,23.328,0,0,1,0-2.714c.03-.587.34-1.922,2.136-4.1,1.644-1.992,3.4-1.63,3.61-.785a20,20,0,0,1,.308,3.22h0c-.05,2.057-.283,7.182-1.352,9.884A2.191,2.191,0,0,1,2506.05,947.568Zm-2.649-8.649a19.864,19.864,0,0,0,.206,2.887c.331,2.228.862,4.085,1.6,4.783.6.563,1.166.451,1.674-1.327a29.361,29.361,0,0,0,1-7.118c.046-1.782-.371-3.383-.962-3.676-.443-.22-.625-.285-1.364.318a5.877,5.877,0,0,0-2.119,3.268l0,.057-.018.117A6.109,6.109,0,0,0,2503.4,938.919Zm.038-.841Z" fill="#361912"/><path d="M2508.444,938.145s20.919-.995,22.649-.442,3.276,4.8,2.972,4.946-1.939.983-2.059.206.457-3.518-2.355-3.7-21.569.4-21.569.4Z" fill="#361912"/><path d="M2504.8,922.966s7.087-3.711,8.521,1.892-.6,12.379,6.4,21.127.378,16.51,0,23.408a18.615,18.615,0,0,0,3.2,11.541s1.354-12.188,8.626-18.246,21.236-9.855,24.838-19.119-2.054-31.594-12.266-36.039-30.965-.826-35.054,2.768S2504.8,922.966,2504.8,922.966Z" fill="#582f29"/><path d="M2534.082,1290.088s-15.054,19.882-21.137,21.363c-4.371,1.064-11.876,3.731-7.619,5.676s15.206,2.714,19.984,1.086,6.889-8.975,16.8-9.925c4.476-.428,5.472-2.071,4.952-5.068a113.425,113.425,0,0,0-3.459-12.429S2540.185,1284.333,2534.082,1290.088Z" fill="#f9b99c"/><path d="M2544.731,1118.689c-.175,11.935-1.055,31.531-1.967,49.282-1.02,19.851-2.142,46.781-2.73,48.638-1.36,4.291-16.023,14.274-22.437,2.01-1.748-3.341-7.381-18.929-12.118-48.379-5.223-32.475-6.344-53.656-6.44-56.476C2498.04,1084.58,2545,1100.458,2544.731,1118.689Z" fill="#f9b99c"/><path d="M2498.43,1063.487c.207,9.524-.859,12.259-2.27,26.82-.6,6.243,1.2,16.63,4.154,29.009,1.047,4.387,8.933,8.722,24.477,8.651,8.183-.038,13.469-2.392,21.323-9.5,8.477-7.667,5.411-24.041,1.706-29.916-7-11.1-10.882-17.121-9.793-28.11C2540.87,1031.765,2497.977,1042.654,2498.43,1063.487Z" fill="#f9b99c"/><path d="M2517.889,1217.461c1.18,5.709,15.261,77.433,15.959,78.768s9.384,2.329,9.629-1.274c2.623-38.483,8.306-35.847,4.392-59.7-1.332-8.116-4.078-18.985-8.013-23.586C2530.689,1200.946,2515.285,1204.86,2517.889,1217.461Z" fill="#f9b99c"/><path d="M2539.277,998.74c-2.318-7.677-11.87-13.744-20.133-10.43s-10.178,8.836-15.4,12.892a97.139,97.139,0,0,1-11.687,7.532c-14.248,13.082-2.611,28.113,2.213,27.77,25.888-1.842,50.463-5.4,50.463-5.4l1.231-7.6C2542.221,1020.039,2541.594,1006.417,2539.277,998.74Zm-.435,25.348c-1.593,2.752-19.12,4.2-23.872,2.914s-8.429-4.507-5.532-18.992,8.058-19.637,13.326-19.41C2542.9,989.469,2540.436,1021.336,2538.842,1024.088Z" fill="#38323e"/><path d="M2497.114,1081.524s29.748,5.552,44.11-5.682c0,0,25.381,27.671,3.508,48.143,0,0-22.854-19.892-45.295-3.571C2499.437,1120.414,2493.639,1100.145,2497.114,1081.524Z" fill="#38323e"/><path d="M2496.955,1067.982s-3.765,21.123-2.378,36.977,2.378,23.943,4.446,29.017,42.758,3.367,47.892-.736,11.675-23.036,7.711-34.676-15.656-31.036-15.656-31.036S2507.657,1072.622,2496.955,1067.982Z" fill="#ecd1c6"/><path d="M2512.49,1208.644s5.344,24.142,7.985,37.024,8.189,37.258,8.189,37.258a34.835,34.835,0,0,0,17.008,0s4.955-23.128,4.4-40.766c-.657-20.729-6.055-30.131-9.084-37.367C2536.2,1193.348,2510.63,1191.565,2512.49,1208.644Z" fill="#ecd1c6"/><path d="M2497.672,1070.1c-1.038-.154-1.671,4.11-.631,4.264S2498.712,1070.257,2497.672,1070.1Z" fill="#f7ede5"/><path d="M2500.6,1073.016s11.046,2.756,17.2,1.629l.864,4.509s-13.889.3-16.251-1.126S2500.6,1073.016,2500.6,1073.016Z" fill="#e2c1b5"/><path d="M2530.043,1102.655c-16.515-2.775-35.136,4.423-33.7,19.4,0,0,3.181,21,5.828,38.325,0,0,1.3,9.06,2.155,11.924,3.3,15.672,6.948,32.151,9.154,39.669,5.872,20.016,27.869,14.891,28.464.2.266-6.582,4.749-71.414,6.14-80.1S2546.559,1105.429,2530.043,1102.655Z" fill="#ecd1c6"/><path d="M2534.408,995.928c5.784,15.835-1.134,63.03-1.271,65.645s-12.115,8.759-18.62,3.28c-1.829-1.542-2.34-61.078-1.856-65.527C2514,987.072,2531.436,987.793,2534.408,995.928Z" fill="#f2a079"/><path d="M2522.68,984.076c-7.487,2.112-28.367,18.758-33.916,25.383s-6.606,16.929-6.342,24.064,1.85,23.64,1.586,32.563,10.2,7.844,16.6,6.93,32.944-.867,37.636-2.212,6.489-7.158,6.251-13.235,4.594-30.55,3.9-46.324a65.628,65.628,0,0,0-8.1-28.036A45.534,45.534,0,0,0,2522.68,984.076Z" fill="#f7e5db"/><path d="M2533.137,1061.573c2.652,17.556-1.364,51-3.69,62.1-.443,2.117-8.353,5.7-9.75-2.582-8.41-49.831-6.589-51.968-5.732-57.946C2514.842,1057.025,2531.274,1049.238,2533.137,1061.573Z" fill="#f9b99c"/><path d="M2522.764,988.6c-9.161,1.058-11.433,8.372-12.675,16.474s1.864,55.474,1.864,55.474,14.094,4.3,23.066,0c0,0,4.189-49.923,1.692-61.992S2522.764,988.6,2522.764,988.6Z" fill="#efd6c8"/><path d="M2504.062,1316.4s.229,1.833.388,2.63,4.945,2.632,12.3,2.65c8.208.02,12.662-2.16,14.807-4.786a110.179,110.179,0,0,1,8.208-8.368l1.116,12.432h5.18l1.382-17.934s-3.454-.714-8.235,2.633-9.808,10.942-15.626,12.636S2503.743,1317.354,2504.062,1316.4Z" fill="#cc9b92"/><path d="M2508.23,1312.726a4.494,4.494,0,0,1,4.145,1.986,9.1,9.1,0,0,1,1.475,4.167l6.763.173a11.364,11.364,0,0,0-5.573-8.967Z" fill="#cc9b92"/><path d="M2545.582,1303.981s-1.691-10.742-2.252-13.45c0,0-3.993,1.917-11.1.4l-1.007-4.476s10.075.8,13.262-.476a19.366,19.366,0,0,0,1.095,8.523c1.673,4.861,2.482,8.582,1.546,8.981A7.721,7.721,0,0,1,2545.582,1303.981Z" fill="#cc9b92"/><path d="M2487.311,1012.455c2.085-1.833,28.11-24,28.11-24s-15.559,21.811-22.825,26.832-7.878,1.424-7.878,1.424A12.085,12.085,0,0,1,2487.311,1012.455Z" fill="#efd6c8"/><path d="M2502.769,1007.759s-7.532,16.972-18.73,18.365c-1.062.132-1.8,3.3,0,3.1S2500.8,1021.9,2502.769,1007.759Z" fill="#efd6c8"/><path d="M2524.222,1143.712s-2.727-5.026-3.649-5.445a1.506,1.506,0,0,0-2.1,1.644,13.06,13.06,0,0,0,2.539,5.4C2522.012,1146.306,2524.817,1145.246,2524.222,1143.712Z" fill="#f9b99c"/><path d="M2527.082,1142.465s-2.727-5.028-3.649-5.447a1.506,1.506,0,0,0-2.1,1.643,13.024,13.024,0,0,0,2.539,5.4C2524.872,1145.056,2527.677,1144,2527.082,1142.465Z" fill="#f9b99c"/><path d="M2520.45,1121.826c-4.422,6.129-1.254,8.712-4.686,21.843-.407,1.557,2.627.14,2.916-.537,1.293-3.043,3.62-9.081,3.591-9.951S2522.254,1119.33,2520.45,1121.826Z" fill="#f9b99c"/><path d="M2519.777,1127.454s2.468,10.975,2.683,11.432-1.639,4.52-1.841,5.161,8.618,1.365,10.312,1.235,2.827-4.037,2.964-5.489-2.95-11.883-3.657-14.043C2528.59,1120.725,2518.842,1115.079,2519.777,1127.454Z" fill="#f9b99c"/><path d="M2522.29,1138.285s-1.954,5.375-1.659,6.344,2.167,1.864,3.115.77,1.784-4.356,1.866-5.765S2523.041,1136.823,2522.29,1138.285Z" fill="#f9b99c"/><path d="M2525.154,1138.586s-1.954,5.375-1.658,6.344a2,2,0,0,0,3.143.638c.948-1.1,1.756-4.224,1.838-5.637S2525.905,1137.123,2525.154,1138.586Z" fill="#f9b99c"/><path d="M2528.116,1138.625s-1.954,5.375-1.658,6.344a1.885,1.885,0,0,0,3.042.571,12.741,12.741,0,0,0,1.939-5.566C2531.521,1138.562,2528.867,1137.163,2528.116,1138.625Z" fill="#f9b99c"/><path d="M2530.5,1138.366s-1.216,5.817-.918,6.785,1.721.821,2.669-.273,1.489-3.754,1.572-5.164S2531.253,1136.9,2530.5,1138.366Z" fill="#f9b99c"/></g><path d="M6.645-4.4H2.468V0H1.155V-9.953H7.321v1.08H2.468v3.4H6.645Zm1.572.629a4.369,4.369,0,0,1,.427-1.955,3.187,3.187,0,0,1,1.189-1.34,3.238,3.238,0,0,1,1.74-.472,3.119,3.119,0,0,1,2.444,1.046,4.024,4.024,0,0,1,.933,2.782v.089a4.407,4.407,0,0,1-.414,1.938A3.14,3.14,0,0,1,13.354-.342a3.275,3.275,0,0,1-1.767.479A3.111,3.111,0,0,1,9.15-.909a4,4,0,0,1-.933-2.769Zm1.271.15a3.164,3.164,0,0,0,.571,1.976A1.827,1.827,0,0,0,11.587-.9a1.816,1.816,0,0,0,1.531-.755,3.46,3.46,0,0,0,.567-2.116,3.159,3.159,0,0,0-.578-1.972,1.836,1.836,0,0,0-1.535-.755,1.816,1.816,0,0,0-1.511.745A3.434,3.434,0,0,0,9.488-3.616ZM20.843-1.962a.931.931,0,0,0-.386-.8,3.718,3.718,0,0,0-1.347-.489,6.367,6.367,0,0,1-1.524-.492,2.169,2.169,0,0,1-.834-.684,1.635,1.635,0,0,1-.27-.943A1.919,1.919,0,0,1,17.25-6.9a3,3,0,0,1,1.965-.629,3.091,3.091,0,0,1,2.041.649,2.063,2.063,0,0,1,.783,1.661H20.768a1.142,1.142,0,0,0-.441-.9,1.652,1.652,0,0,0-1.111-.376,1.729,1.729,0,0,0-1.08.3.947.947,0,0,0-.39.786.767.767,0,0,0,.362.69,4.458,4.458,0,0,0,1.309.444,6.821,6.821,0,0,1,1.535.506,2.239,2.239,0,0,1,.872.708,1.74,1.74,0,0,1,.284,1.008,1.893,1.893,0,0,1-.793,1.589,3.326,3.326,0,0,1-2.058.6,3.725,3.725,0,0,1-1.572-.314,2.557,2.557,0,0,1-1.07-.878,2.117,2.117,0,0,1-.386-1.22h1.265A1.309,1.309,0,0,0,18-1.268,1.976,1.976,0,0,0,19.257-.9a2.039,2.039,0,0,0,1.152-.291A.893.893,0,0,0,20.843-1.962ZM28.321,0a2.657,2.657,0,0,1-.178-.779,2.822,2.822,0,0,1-2.105.916,2.611,2.611,0,0,1-1.794-.619,2,2,0,0,1-.7-1.569,2.091,2.091,0,0,1,.878-1.794,4.142,4.142,0,0,1,2.471-.639h1.23v-.581a1.42,1.42,0,0,0-.4-1.056,1.593,1.593,0,0,0-1.169-.393,1.844,1.844,0,0,0-1.135.342,1.007,1.007,0,0,0-.458.827H23.693a1.745,1.745,0,0,1,.393-1.07,2.683,2.683,0,0,1,1.066-.817,3.588,3.588,0,0,1,1.48-.3,2.924,2.924,0,0,1,2,.639,2.306,2.306,0,0,1,.752,1.76v3.4a4.162,4.162,0,0,0,.26,1.62V0Zm-2.1-.964a2.223,2.223,0,0,0,1.128-.308,1.861,1.861,0,0,0,.772-.8V-3.589h-.991q-2.324,0-2.324,1.36a1.151,1.151,0,0,0,.4.93A1.524,1.524,0,0,0,26.223-.964ZM39.4,0a2.657,2.657,0,0,1-.178-.779,2.822,2.822,0,0,1-2.105.916,2.611,2.611,0,0,1-1.794-.619,2,2,0,0,1-.7-1.569A2.091,2.091,0,0,1,35.5-3.845a4.142,4.142,0,0,1,2.471-.639H39.2v-.581a1.42,1.42,0,0,0-.4-1.056,1.593,1.593,0,0,0-1.169-.393,1.844,1.844,0,0,0-1.135.342,1.007,1.007,0,0,0-.458.827H34.774a1.745,1.745,0,0,1,.393-1.07,2.683,2.683,0,0,1,1.066-.817,3.588,3.588,0,0,1,1.48-.3,2.924,2.924,0,0,1,2,.639,2.306,2.306,0,0,1,.752,1.76v3.4a4.162,4.162,0,0,0,.26,1.62V0ZM37.3-.964a2.223,2.223,0,0,0,1.128-.308,1.861,1.861,0,0,0,.772-.8V-3.589h-.991q-2.324,0-2.324,1.36a1.151,1.151,0,0,0,.4.93A1.524,1.524,0,0,0,37.3-.964ZM44.933-4.7l1.641-2.7H48.05L45.63-3.739,48.125,0H46.662L44.953-2.769,43.244,0h-1.47l2.5-3.739L41.85-7.4h1.463ZM50.764,0H49.5V-7.4h1.265ZM49.4-9.358a.755.755,0,0,1,.188-.52.706.706,0,0,1,.557-.212.717.717,0,0,1,.561.212.747.747,0,0,1,.191.52.722.722,0,0,1-.191.513.73.73,0,0,1-.561.205.718.718,0,0,1-.557-.205A.73.73,0,0,1,49.4-9.358ZM54.161,0H52.9V-10.5h1.265Zm6.59,0a2.657,2.657,0,0,1-.178-.779,2.822,2.822,0,0,1-2.105.916,2.611,2.611,0,0,1-1.794-.619,2,2,0,0,1-.7-1.569,2.091,2.091,0,0,1,.878-1.794,4.142,4.142,0,0,1,2.471-.639h1.23v-.581a1.42,1.42,0,0,0-.4-1.056,1.593,1.593,0,0,0-1.169-.393,1.844,1.844,0,0,0-1.135.342,1.007,1.007,0,0,0-.458.827H56.123a1.745,1.745,0,0,1,.393-1.07,2.683,2.683,0,0,1,1.066-.817,3.588,3.588,0,0,1,1.48-.3,2.924,2.924,0,0,1,2,.639,2.306,2.306,0,0,1,.752,1.76v3.4a4.162,4.162,0,0,0,.26,1.62V0Zm-2.1-.964a2.223,2.223,0,0,0,1.128-.308,1.861,1.861,0,0,0,.772-.8V-3.589h-.991q-2.324,0-2.324,1.36a1.151,1.151,0,0,0,.4.93A1.524,1.524,0,0,0,58.652-.964Zm8.723-5.3a3.79,3.79,0,0,0-.622-.048,1.667,1.667,0,0,0-1.688,1.06V0H63.8V-7.4h1.23l.021.854a1.969,1.969,0,0,1,1.764-.991,1.292,1.292,0,0,1,.561.1Z" transform="translate(883.864 17378.039)" fill="#161615"/><path d="M4.806-4.026H2.468V0H1.148V-9.953H4.443a3.9,3.9,0,0,1,2.587.766,2.755,2.755,0,0,1,.906,2.229,2.68,2.68,0,0,1-.5,1.62,3,3,0,0,1-1.4,1.032L8.374-.082V0H6.966ZM2.468-5.1H4.484A2.277,2.277,0,0,0,6.04-5.605a1.709,1.709,0,0,0,.578-1.354,1.8,1.8,0,0,0-.55-1.415,2.333,2.333,0,0,0-1.589-.5H2.468ZM9.242-3.767a4.369,4.369,0,0,1,.427-1.955,3.187,3.187,0,0,1,1.189-1.34,3.238,3.238,0,0,1,1.74-.472,3.119,3.119,0,0,1,2.444,1.046,4.024,4.024,0,0,1,.933,2.782v.089a4.407,4.407,0,0,1-.414,1.938A3.14,3.14,0,0,1,14.379-.342a3.275,3.275,0,0,1-1.767.479A3.111,3.111,0,0,1,10.175-.909a4,4,0,0,1-.933-2.769Zm1.271.15a3.164,3.164,0,0,0,.571,1.976A1.827,1.827,0,0,0,12.612-.9a1.816,1.816,0,0,0,1.531-.755,3.46,3.46,0,0,0,.567-2.116,3.159,3.159,0,0,0-.578-1.972A1.836,1.836,0,0,0,12.6-6.494a1.816,1.816,0,0,0-1.511.745A3.434,3.434,0,0,0,10.514-3.616Zm8.764-5.571V-7.4h1.381v.978H19.277v4.587a1.024,1.024,0,0,0,.185.667.777.777,0,0,0,.629.222,3.062,3.062,0,0,0,.6-.082V0a3.666,3.666,0,0,1-.971.137,1.575,1.575,0,0,1-1.278-.513,2.2,2.2,0,0,1-.431-1.456V-6.419H16.666V-7.4h1.347V-9.187ZM26.7-.731a2.686,2.686,0,0,1-2.167.868,2.3,2.3,0,0,1-1.8-.687,2.974,2.974,0,0,1-.625-2.034V-7.4h1.265v4.778q0,1.682,1.367,1.682a1.893,1.893,0,0,0,1.928-1.08V-7.4h1.265V0h-1.2ZM31.227,0H29.962V-10.5h1.265Zm6.59,0a2.657,2.657,0,0,1-.178-.779,2.822,2.822,0,0,1-2.105.916,2.611,2.611,0,0,1-1.794-.619,2,2,0,0,1-.7-1.569,2.091,2.091,0,0,1,.878-1.794,4.142,4.142,0,0,1,2.471-.639h1.23v-.581a1.42,1.42,0,0,0-.4-1.056,1.593,1.593,0,0,0-1.169-.393,1.844,1.844,0,0,0-1.135.342,1.007,1.007,0,0,0-.458.827H33.188a1.745,1.745,0,0,1,.393-1.07,2.683,2.683,0,0,1,1.066-.817,3.588,3.588,0,0,1,1.48-.3,2.924,2.924,0,0,1,2,.639,2.306,2.306,0,0,1,.752,1.76v3.4a4.162,4.162,0,0,0,.26,1.62V0Zm-2.1-.964a2.223,2.223,0,0,0,1.128-.308,1.861,1.861,0,0,0,.772-.8V-3.589h-.991q-2.324,0-2.324,1.36a1.151,1.151,0,0,0,.4.93A1.524,1.524,0,0,0,35.718-.964Z" transform="translate(883.864 17580.654)" fill="#161615"/><path d="M6.645-4.4H2.468V0H1.155V-9.953H7.321v1.08H2.468v3.4H6.645Zm1.572.629a4.369,4.369,0,0,1,.427-1.955,3.187,3.187,0,0,1,1.189-1.34,3.238,3.238,0,0,1,1.74-.472,3.119,3.119,0,0,1,2.444,1.046,4.024,4.024,0,0,1,.933,2.782v.089a4.407,4.407,0,0,1-.414,1.938A3.14,3.14,0,0,1,13.354-.342a3.275,3.275,0,0,1-1.767.479A3.111,3.111,0,0,1,9.15-.909a4,4,0,0,1-.933-2.769Zm1.271.15a3.164,3.164,0,0,0,.571,1.976A1.827,1.827,0,0,0,11.587-.9a1.816,1.816,0,0,0,1.531-.755,3.46,3.46,0,0,0,.567-2.116,3.159,3.159,0,0,0-.578-1.972,1.836,1.836,0,0,0-1.535-.755,1.816,1.816,0,0,0-1.511.745A3.434,3.434,0,0,0,9.488-3.616ZM20.843-1.962a.931.931,0,0,0-.386-.8,3.718,3.718,0,0,0-1.347-.489,6.367,6.367,0,0,1-1.524-.492,2.169,2.169,0,0,1-.834-.684,1.635,1.635,0,0,1-.27-.943A1.919,1.919,0,0,1,17.25-6.9a3,3,0,0,1,1.965-.629,3.091,3.091,0,0,1,2.041.649,2.063,2.063,0,0,1,.783,1.661H20.768a1.142,1.142,0,0,0-.441-.9,1.652,1.652,0,0,0-1.111-.376,1.729,1.729,0,0,0-1.08.3.947.947,0,0,0-.39.786.767.767,0,0,0,.362.69,4.458,4.458,0,0,0,1.309.444,6.821,6.821,0,0,1,1.535.506,2.239,2.239,0,0,1,.872.708,1.74,1.74,0,0,1,.284,1.008,1.893,1.893,0,0,1-.793,1.589,3.326,3.326,0,0,1-2.058.6,3.725,3.725,0,0,1-1.572-.314,2.557,2.557,0,0,1-1.07-.878,2.117,2.117,0,0,1-.386-1.22h1.265A1.309,1.309,0,0,0,18-1.268,1.976,1.976,0,0,0,19.257-.9a2.039,2.039,0,0,0,1.152-.291A.893.893,0,0,0,20.843-1.962ZM28.321,0a2.657,2.657,0,0,1-.178-.779,2.822,2.822,0,0,1-2.105.916,2.611,2.611,0,0,1-1.794-.619,2,2,0,0,1-.7-1.569,2.091,2.091,0,0,1,.878-1.794,4.142,4.142,0,0,1,2.471-.639h1.23v-.581a1.42,1.42,0,0,0-.4-1.056,1.593,1.593,0,0,0-1.169-.393,1.844,1.844,0,0,0-1.135.342,1.007,1.007,0,0,0-.458.827H23.693a1.745,1.745,0,0,1,.393-1.07,2.683,2.683,0,0,1,1.066-.817,3.588,3.588,0,0,1,1.48-.3,2.924,2.924,0,0,1,2,.639,2.306,2.306,0,0,1,.752,1.76v3.4a4.162,4.162,0,0,0,.26,1.62V0Zm-2.1-.964a2.223,2.223,0,0,0,1.128-.308,1.861,1.861,0,0,0,.772-.8V-3.589h-.991q-2.324,0-2.324,1.36a1.151,1.151,0,0,0,.4.93A1.524,1.524,0,0,0,26.223-.964ZM41.084-3.616A4.429,4.429,0,0,1,40.312-.9,2.476,2.476,0,0,1,38.22.137,2.713,2.713,0,0,1,36.1-.718V2.844H34.836V-7.4h1.155l.062.82A2.605,2.605,0,0,1,38.2-7.533a2.522,2.522,0,0,1,2.109,1,4.477,4.477,0,0,1,.776,2.8ZM39.819-3.76a3.268,3.268,0,0,0-.533-1.976,1.718,1.718,0,0,0-1.463-.725A1.859,1.859,0,0,0,36.1-5.441v3.534A1.863,1.863,0,0,0,37.837-.9a1.71,1.71,0,0,0,1.446-.721A3.567,3.567,0,0,0,39.819-3.76Zm2.536-.007a4.369,4.369,0,0,1,.427-1.955,3.187,3.187,0,0,1,1.189-1.34,3.238,3.238,0,0,1,1.74-.472,3.119,3.119,0,0,1,2.444,1.046,4.024,4.024,0,0,1,.933,2.782v.089a4.407,4.407,0,0,1-.414,1.938A3.14,3.14,0,0,1,47.493-.342a3.275,3.275,0,0,1-1.767.479A3.111,3.111,0,0,1,43.289-.909a4,4,0,0,1-.933-2.769Zm1.271.15A3.164,3.164,0,0,0,44.2-1.641,1.827,1.827,0,0,0,45.726-.9a1.816,1.816,0,0,0,1.531-.755,3.46,3.46,0,0,0,.567-2.116,3.159,3.159,0,0,0-.578-1.972,1.836,1.836,0,0,0-1.535-.755,1.816,1.816,0,0,0-1.511.745A3.434,3.434,0,0,0,43.627-3.616Zm13.3,0A4.429,4.429,0,0,1,56.15-.9,2.476,2.476,0,0,1,54.059.137a2.713,2.713,0,0,1-2.119-.854V2.844H50.675V-7.4H51.83l.062.82a2.605,2.605,0,0,1,2.146-.957,2.522,2.522,0,0,1,2.109,1,4.477,4.477,0,0,1,.776,2.8ZM55.658-3.76a3.268,3.268,0,0,0-.533-1.976,1.718,1.718,0,0,0-1.463-.725,1.859,1.859,0,0,0-1.723,1.019v3.534A1.863,1.863,0,0,0,53.676-.9a1.71,1.71,0,0,0,1.446-.721A3.567,3.567,0,0,0,55.658-3.76ZM59.9,0H58.632V-7.4H59.9Zm.014-10.493h1.531l-1.832,2.01H58.6ZM63.7-9.187V-7.4h1.381v.978H63.7v4.587a1.024,1.024,0,0,0,.185.667.777.777,0,0,0,.629.222,3.062,3.062,0,0,0,.6-.082V0a3.666,3.666,0,0,1-.971.137A1.575,1.575,0,0,1,62.87-.376a2.2,2.2,0,0,1-.431-1.456V-6.419H61.093V-7.4h1.347V-9.187Zm6.433,2.926a3.79,3.79,0,0,0-.622-.048,1.667,1.667,0,0,0-1.688,1.06V0H66.562V-7.4h1.23l.021.854a1.969,1.969,0,0,1,1.764-.991,1.292,1.292,0,0,1,.561.1Zm4.231,6.4a3.232,3.232,0,0,1-2.447-.988,3.666,3.666,0,0,1-.943-2.642v-.232a4.438,4.438,0,0,1,.42-1.965,3.28,3.28,0,0,1,1.176-1.354,2.956,2.956,0,0,1,1.637-.489,2.77,2.77,0,0,1,2.242.95,4.114,4.114,0,0,1,.8,2.721v.526H72.242a2.629,2.629,0,0,0,.639,1.767A2.009,2.009,0,0,0,74.437-.9a2.2,2.2,0,0,0,1.135-.273,2.851,2.851,0,0,0,.813-.725l.772.6A3.106,3.106,0,0,1,74.368.137Zm-.157-6.631a1.687,1.687,0,0,0-1.285.557,2.708,2.708,0,0,0-.643,1.562h3.705v-.1a2.409,2.409,0,0,0-.52-1.494A1.588,1.588,0,0,0,74.211-6.494ZM83.282,0A2.657,2.657,0,0,1,83.1-.779,2.822,2.822,0,0,1,81,.137,2.611,2.611,0,0,1,79.2-.482a2,2,0,0,1-.7-1.569,2.091,2.091,0,0,1,.878-1.794,4.141,4.141,0,0,1,2.471-.639h1.23v-.581a1.42,1.42,0,0,0-.4-1.056,1.593,1.593,0,0,0-1.169-.393,1.844,1.844,0,0,0-1.135.342,1.007,1.007,0,0,0-.458.827H78.654a1.745,1.745,0,0,1,.393-1.07,2.683,2.683,0,0,1,1.066-.817,3.588,3.588,0,0,1,1.48-.3,2.924,2.924,0,0,1,2,.639,2.306,2.306,0,0,1,.752,1.76v3.4a4.162,4.162,0,0,0,.26,1.62V0Zm-2.1-.964a2.223,2.223,0,0,0,1.128-.308,1.861,1.861,0,0,0,.772-.8V-3.589h-.991q-2.324,0-2.324,1.36a1.151,1.151,0,0,0,.4.93A1.524,1.524,0,0,0,81.184-.964Z" transform="translate(1087.327 17580.654)" fill="#161615"/><path d="M8.032-8.873h-3.2V0H3.527V-8.873H.335v-1.08h7.7ZM13.1,0a2.657,2.657,0,0,1-.178-.779,2.822,2.822,0,0,1-2.105.916A2.611,2.611,0,0,1,9.027-.482a2,2,0,0,1-.7-1.569A2.091,2.091,0,0,1,9.2-3.845a4.142,4.142,0,0,1,2.471-.639h1.23v-.581a1.42,1.42,0,0,0-.4-1.056,1.593,1.593,0,0,0-1.169-.393,1.844,1.844,0,0,0-1.135.342,1.007,1.007,0,0,0-.458.827H8.477a1.745,1.745,0,0,1,.393-1.07,2.683,2.683,0,0,1,1.066-.817,3.588,3.588,0,0,1,1.48-.3,2.924,2.924,0,0,1,2,.639,2.306,2.306,0,0,1,.752,1.76v3.4a4.162,4.162,0,0,0,.26,1.62V0Zm-2.1-.964a2.223,2.223,0,0,0,1.128-.308,1.861,1.861,0,0,0,.772-.8V-3.589h-.991q-2.324,0-2.324,1.36a1.151,1.151,0,0,0,.4.93A1.524,1.524,0,0,0,11.006-.964ZM17.527,0H16.263V-10.5h1.265Zm1.688-3.767a4.369,4.369,0,0,1,.427-1.955,3.187,3.187,0,0,1,1.189-1.34,3.238,3.238,0,0,1,1.74-.472,3.119,3.119,0,0,1,2.444,1.046,4.024,4.024,0,0,1,.933,2.782v.089a4.407,4.407,0,0,1-.414,1.938A3.14,3.14,0,0,1,24.353-.342a3.275,3.275,0,0,1-1.767.479A3.111,3.111,0,0,1,20.149-.909a4,4,0,0,1-.933-2.769Zm1.271.15a3.164,3.164,0,0,0,.571,1.976A1.827,1.827,0,0,0,22.586-.9a1.816,1.816,0,0,0,1.531-.755,3.46,3.46,0,0,0,.567-2.116,3.159,3.159,0,0,0-.578-1.972,1.836,1.836,0,0,0-1.535-.755,1.816,1.816,0,0,0-1.511.745A3.434,3.434,0,0,0,20.487-3.616ZM23.146-10.5h1.531L22.846-8.49H21.827Zm5.585,3.1.041.93a2.7,2.7,0,0,1,2.215-1.066q2.345,0,2.365,2.646V0H32.088V-4.895a1.7,1.7,0,0,0-.366-1.183A1.466,1.466,0,0,0,30.6-6.46a1.825,1.825,0,0,0-1.08.328,2.228,2.228,0,0,0-.725.861V0H27.535V-7.4Z" transform="translate(1073.321 17659.24)" fill="#161615"/><path d="M6.781-4.6H2.468v3.527H7.479V0H1.155V-9.953H7.41v1.08H2.468v3.2H6.781ZM10.1-7.4l.034.82a2.732,2.732,0,0,1,2.194-.957,2.115,2.115,0,0,1,2.112,1.189,2.8,2.8,0,0,1,.96-.861,2.837,2.837,0,0,1,1.4-.328q2.434,0,2.475,2.577V0H18.013V-4.881a1.7,1.7,0,0,0-.362-1.186,1.6,1.6,0,0,0-1.217-.393,1.677,1.677,0,0,0-1.169.42,1.706,1.706,0,0,0-.54,1.131V0H13.453V-4.847A1.411,1.411,0,0,0,11.874-6.46a1.692,1.692,0,0,0-1.7,1.06V0H8.907V-7.4Zm17.329,3.78A4.429,4.429,0,0,1,26.66-.9,2.476,2.476,0,0,1,24.568.137a2.713,2.713,0,0,1-2.119-.854V2.844H21.185V-7.4H22.34l.062.82a2.605,2.605,0,0,1,2.146-.957,2.522,2.522,0,0,1,2.109,1,4.477,4.477,0,0,1,.776,2.8ZM26.168-3.76a3.268,3.268,0,0,0-.533-1.976,1.718,1.718,0,0,0-1.463-.725,1.859,1.859,0,0,0-1.723,1.019v3.534A1.863,1.863,0,0,0,24.186-.9a1.71,1.71,0,0,0,1.446-.721A3.567,3.567,0,0,0,26.168-3.76Zm5.94,3.9a3.232,3.232,0,0,1-2.447-.988,3.666,3.666,0,0,1-.943-2.642v-.232a4.438,4.438,0,0,1,.42-1.965,3.28,3.28,0,0,1,1.176-1.354,2.956,2.956,0,0,1,1.637-.489,2.77,2.77,0,0,1,2.242.95,4.114,4.114,0,0,1,.8,2.721v.526H29.982a2.629,2.629,0,0,0,.639,1.767A2.009,2.009,0,0,0,32.177-.9a2.2,2.2,0,0,0,1.135-.273,2.851,2.851,0,0,0,.813-.725l.772.6A3.106,3.106,0,0,1,32.108.137Zm-.157-6.631a1.687,1.687,0,0,0-1.285.557,2.708,2.708,0,0,0-.643,1.562h3.705v-.1a2.409,2.409,0,0,0-.52-1.494A1.588,1.588,0,0,0,31.951-6.494ZM37.83,0H36.565V-7.4H37.83ZM36.463-9.358a.755.755,0,0,1,.188-.52.706.706,0,0,1,.557-.212.717.717,0,0,1,.561.212.747.747,0,0,1,.191.52.722.722,0,0,1-.191.513.73.73,0,0,1-.561.205.718.718,0,0,1-.557-.205A.73.73,0,0,1,36.463-9.358ZM41.05-7.4l.041.93a2.7,2.7,0,0,1,2.215-1.066q2.345,0,2.365,2.646V0H44.406V-4.895a1.7,1.7,0,0,0-.366-1.183,1.466,1.466,0,0,0-1.118-.383,1.825,1.825,0,0,0-1.08.328,2.228,2.228,0,0,0-.725.861V0H39.854V-7.4Zm9.6,7.533A3.232,3.232,0,0,1,48.2-.851a3.666,3.666,0,0,1-.943-2.642v-.232a4.438,4.438,0,0,1,.42-1.965,3.28,3.28,0,0,1,1.176-1.354,2.956,2.956,0,0,1,1.637-.489,2.77,2.77,0,0,1,2.242.95,4.114,4.114,0,0,1,.8,2.721v.526H48.521a2.629,2.629,0,0,0,.639,1.767A2.009,2.009,0,0,0,50.716-.9a2.2,2.2,0,0,0,1.135-.273,2.851,2.851,0,0,0,.813-.725l.772.6A3.106,3.106,0,0,1,50.647.137ZM50.49-6.494a1.687,1.687,0,0,0-1.285.557,2.708,2.708,0,0,0-.643,1.562h3.705v-.1a2.409,2.409,0,0,0-.52-1.494A1.588,1.588,0,0,0,50.49-6.494Z" transform="translate(923.008 17662.576)" fill="#161615"/><path d="M-40.332-8.873h-3.2V0h-1.306V-8.873h-3.192v-1.08h7.7Zm4.348,9.01a3.232,3.232,0,0,1-2.447-.988,3.666,3.666,0,0,1-.943-2.642v-.232a4.438,4.438,0,0,1,.42-1.965,3.28,3.28,0,0,1,1.176-1.354,2.956,2.956,0,0,1,1.637-.489,2.77,2.77,0,0,1,2.242.95,4.114,4.114,0,0,1,.8,2.721v.526H-38.11a2.629,2.629,0,0,0,.639,1.767A2.009,2.009,0,0,0-35.916-.9a2.2,2.2,0,0,0,1.135-.273,2.851,2.851,0,0,0,.813-.725l.772.6A3.106,3.106,0,0,1-35.984.137Zm-.157-6.631a1.687,1.687,0,0,0-1.285.557,2.708,2.708,0,0,0-.643,1.562h3.705v-.1a2.409,2.409,0,0,0-.52-1.494A1.588,1.588,0,0,0-36.142-6.494Zm8.08.232a3.79,3.79,0,0,0-.622-.048,1.667,1.667,0,0,0-1.688,1.06V0h-1.265V-7.4h1.23l.021.854a1.969,1.969,0,0,1,1.764-.991,1.292,1.292,0,0,1,.561.1ZM-25.71-7.4l.034.82a2.732,2.732,0,0,1,2.194-.957,2.115,2.115,0,0,1,2.112,1.189,2.8,2.8,0,0,1,.96-.861,2.837,2.837,0,0,1,1.4-.328q2.434,0,2.475,2.577V0H-17.8V-4.881a1.7,1.7,0,0,0-.362-1.186A1.6,1.6,0,0,0-19.38-6.46a1.677,1.677,0,0,0-1.169.42,1.706,1.706,0,0,0-.54,1.131V0H-22.36V-4.847A1.411,1.411,0,0,0-23.939-6.46a1.692,1.692,0,0,0-1.7,1.06V0h-1.265V-7.4ZM-13.255,0H-14.52V-7.4h1.265Zm-1.367-9.358a.755.755,0,0,1,.188-.52.706.706,0,0,1,.557-.212.717.717,0,0,1,.561.212.747.747,0,0,1,.191.52.722.722,0,0,1-.191.513.73.73,0,0,1-.561.205.718.718,0,0,1-.557-.205A.73.73,0,0,1-14.622-9.358ZM-10.035-7.4l.041.93A2.7,2.7,0,0,1-7.779-7.533q2.345,0,2.365,2.646V0H-6.679V-4.895a1.7,1.7,0,0,0-.366-1.183A1.466,1.466,0,0,0-8.162-6.46a1.825,1.825,0,0,0-1.08.328,2.228,2.228,0,0,0-.725.861V0h-1.265V-7.4ZM1.06,0A2.657,2.657,0,0,1,.882-.779,2.822,2.822,0,0,1-1.224.137,2.611,2.611,0,0,1-3.018-.482a2,2,0,0,1-.7-1.569A2.091,2.091,0,0,1-2.84-3.845,4.142,4.142,0,0,1-.369-4.484H.861v-.581a1.42,1.42,0,0,0-.4-1.056A1.593,1.593,0,0,0-.7-6.515a1.844,1.844,0,0,0-1.135.342,1.007,1.007,0,0,0-.458.827H-3.568a1.745,1.745,0,0,1,.393-1.07,2.683,2.683,0,0,1,1.066-.817,3.588,3.588,0,0,1,1.48-.3,2.924,2.924,0,0,1,2,.639,2.306,2.306,0,0,1,.752,1.76v3.4a4.162,4.162,0,0,0,.26,1.62V0Zm-2.1-.964A2.223,2.223,0,0,0,.089-1.271a1.861,1.861,0,0,0,.772-.8V-3.589H-.13q-2.324,0-2.324,1.36a1.151,1.151,0,0,0,.4.93A1.524,1.524,0,0,0-1.039-.964ZM7.075-.9a1.822,1.822,0,0,0,1.183-.41,1.443,1.443,0,0,0,.561-1.025h1.2a2.293,2.293,0,0,1-.437,1.21A2.881,2.881,0,0,1,8.5-.205,3.107,3.107,0,0,1,7.075.137a3.047,3.047,0,0,1-2.4-1.008A4.016,4.016,0,0,1,3.78-3.63v-.212a4.453,4.453,0,0,1,.4-1.921A3.02,3.02,0,0,1,5.315-7.068a3.233,3.233,0,0,1,1.753-.465,2.966,2.966,0,0,1,2.068.745,2.663,2.663,0,0,1,.878,1.935h-1.2a1.743,1.743,0,0,0-.543-1.179,1.691,1.691,0,0,0-1.207-.461A1.77,1.77,0,0,0,5.575-5.8a3.259,3.259,0,0,0-.53,2.006v.239a3.194,3.194,0,0,0,.526,1.969A1.779,1.779,0,0,0,7.075-.9Zm5.735.9H11.546V-7.4h1.265ZM11.443-9.358a.755.755,0,0,1,.188-.52.706.706,0,0,1,.557-.212.717.717,0,0,1,.561.212.747.747,0,0,1,.191.52.722.722,0,0,1-.191.513.73.73,0,0,1-.561.205.718.718,0,0,1-.557-.205A.73.73,0,0,1,11.443-9.358ZM14.5-3.767a4.369,4.369,0,0,1,.427-1.955,3.187,3.187,0,0,1,1.189-1.34,3.238,3.238,0,0,1,1.74-.472A3.119,3.119,0,0,1,20.3-6.487a4.024,4.024,0,0,1,.933,2.782v.089a4.407,4.407,0,0,1-.414,1.938A3.14,3.14,0,0,1,19.636-.342a3.275,3.275,0,0,1-1.767.479A3.111,3.111,0,0,1,15.432-.909,4,4,0,0,1,14.5-3.678Zm1.271.15a3.164,3.164,0,0,0,.571,1.976A1.827,1.827,0,0,0,17.869-.9,1.816,1.816,0,0,0,19.4-1.651a3.46,3.46,0,0,0,.567-2.116,3.159,3.159,0,0,0-.578-1.972,1.836,1.836,0,0,0-1.535-.755,1.816,1.816,0,0,0-1.511.745A3.434,3.434,0,0,0,15.771-3.616ZM18.43-10.5h1.531L18.129-8.49H17.11Zm5.585,3.1.041.93a2.7,2.7,0,0,1,2.215-1.066q2.345,0,2.365,2.646V0H27.371V-4.895a1.7,1.7,0,0,0-.366-1.183,1.466,1.466,0,0,0-1.118-.383,1.825,1.825,0,0,0-1.08.328,2.228,2.228,0,0,0-.725.861V0H22.818V-7.4ZM33.7-3.76A4.333,4.333,0,0,1,34.508-6.5,2.551,2.551,0,0,1,36.62-7.533a2.565,2.565,0,0,1,2.058.889V-10.5h1.265V0H38.78l-.062-.793a2.575,2.575,0,0,1-2.112.93,2.526,2.526,0,0,1-2.1-1.053,4.382,4.382,0,0,1-.81-2.748Zm1.265.144a3.281,3.281,0,0,0,.52,1.969,1.68,1.68,0,0,0,1.436.711,1.845,1.845,0,0,0,1.757-1.08v-3.4A1.859,1.859,0,0,0,36.935-6.46a1.687,1.687,0,0,0-1.449.718A3.612,3.612,0,0,0,34.966-3.616ZM44.974.137a3.232,3.232,0,0,1-2.447-.988,3.666,3.666,0,0,1-.943-2.642v-.232A4.438,4.438,0,0,1,42-5.691a3.28,3.28,0,0,1,1.176-1.354,2.956,2.956,0,0,1,1.637-.489,2.77,2.77,0,0,1,2.242.95,4.114,4.114,0,0,1,.8,2.721v.526H42.848a2.629,2.629,0,0,0,.639,1.767A2.009,2.009,0,0,0,45.042-.9a2.2,2.2,0,0,0,1.135-.273,2.851,2.851,0,0,0,.813-.725l.772.6A3.106,3.106,0,0,1,44.974.137Zm-.157-6.631a1.687,1.687,0,0,0-1.285.557,2.708,2.708,0,0,0-.643,1.562h3.705v-.1a2.409,2.409,0,0,0-.52-1.494A1.588,1.588,0,0,0,44.816-6.494ZM-37.256,16.8h-1.265V6.3h1.265Zm6.59,0a2.657,2.657,0,0,1-.178-.779,2.822,2.822,0,0,1-2.105.916,2.611,2.611,0,0,1-1.794-.619,2,2,0,0,1-.7-1.569,2.091,2.091,0,0,1,.878-1.794,4.142,4.142,0,0,1,2.471-.639h1.23v-.581a1.42,1.42,0,0,0-.4-1.056,1.593,1.593,0,0,0-1.169-.393,1.844,1.844,0,0,0-1.135.342,1.007,1.007,0,0,0-.458.827h-1.271a1.745,1.745,0,0,1,.393-1.07,2.683,2.683,0,0,1,1.066-.817,3.588,3.588,0,0,1,1.48-.3,2.924,2.924,0,0,1,2,.639,2.306,2.306,0,0,1,.752,1.76v3.4a4.162,4.162,0,0,0,.26,1.62V16.8Zm-2.1-.964a2.223,2.223,0,0,0,1.128-.308,1.861,1.861,0,0,0,.772-.8V13.211h-.991q-2.324,0-2.324,1.36a1.151,1.151,0,0,0,.4.93A1.524,1.524,0,0,0-32.765,15.836Zm12.188-5.3a3.79,3.79,0,0,0-.622-.048,1.667,1.667,0,0,0-1.688,1.06V16.8h-1.265V9.4h1.23l.021.854a1.969,1.969,0,0,1,1.764-.991,1.292,1.292,0,0,1,.561.1Zm4.231,6.4a3.232,3.232,0,0,1-2.447-.988,3.666,3.666,0,0,1-.943-2.642v-.232a4.438,4.438,0,0,1,.42-1.965,3.28,3.28,0,0,1,1.176-1.354A2.956,2.956,0,0,1-16.5,9.267a2.77,2.77,0,0,1,2.242.95,4.114,4.114,0,0,1,.8,2.721v.526h-5.011a2.629,2.629,0,0,0,.639,1.767,2.009,2.009,0,0,0,1.555.673,2.2,2.2,0,0,0,1.135-.273,2.851,2.851,0,0,0,.813-.725l.772.6A3.106,3.106,0,0,1-16.345,16.937Zm-.157-6.631a1.687,1.687,0,0,0-1.285.557,2.708,2.708,0,0,0-.643,1.562h3.705v-.1a2.409,2.409,0,0,0-.52-1.494A1.588,1.588,0,0,0-16.5,10.306Zm5.811-.9v8.251q0,2.133-1.935,2.133a2.347,2.347,0,0,1-.772-.123V18.653a2.445,2.445,0,0,0,.574.055.859.859,0,0,0,.646-.229,1.132,1.132,0,0,0,.222-.8V9.4Zm-1.395-1.962a.758.758,0,0,1,.188-.516.691.691,0,0,1,.55-.215.717.717,0,0,1,.561.212.747.747,0,0,1,.191.52.722.722,0,0,1-.191.513.73.73,0,0,1-.561.205.707.707,0,0,1-.554-.205A.738.738,0,0,1-12.086,7.442Zm8,9.358a2.657,2.657,0,0,1-.178-.779,2.822,2.822,0,0,1-2.105.916,2.611,2.611,0,0,1-1.794-.619,2,2,0,0,1-.7-1.569,2.091,2.091,0,0,1,.878-1.794,4.142,4.142,0,0,1,2.471-.639h1.23v-.581a1.42,1.42,0,0,0-.4-1.056,1.593,1.593,0,0,0-1.169-.393,1.844,1.844,0,0,0-1.135.342,1.007,1.007,0,0,0-.458.827H-8.716a1.745,1.745,0,0,1,.393-1.07,2.683,2.683,0,0,1,1.066-.817,3.588,3.588,0,0,1,1.48-.3,2.924,2.924,0,0,1,2,.639,2.306,2.306,0,0,1,.752,1.76v3.4a4.162,4.162,0,0,0,.26,1.62V16.8Zm-2.1-.964a2.223,2.223,0,0,0,1.128-.308,1.861,1.861,0,0,0,.772-.8V13.211h-.991q-2.324,0-2.324,1.36a1.151,1.151,0,0,0,.4.93A1.524,1.524,0,0,0-6.187,15.836Zm11.58.068a1.822,1.822,0,0,0,1.183-.41,1.443,1.443,0,0,0,.561-1.025h1.2a2.293,2.293,0,0,1-.437,1.21,2.881,2.881,0,0,1-1.077.916,3.107,3.107,0,0,1-1.425.342,3.047,3.047,0,0,1-2.4-1.008A4.016,4.016,0,0,1,2.1,13.17v-.212a4.453,4.453,0,0,1,.4-1.921A3.02,3.02,0,0,1,3.633,9.732a3.233,3.233,0,0,1,1.753-.465,2.966,2.966,0,0,1,2.068.745,2.663,2.663,0,0,1,.878,1.935h-1.2a1.743,1.743,0,0,0-.543-1.179,1.691,1.691,0,0,0-1.207-.461A1.77,1.77,0,0,0,3.893,11a3.259,3.259,0,0,0-.53,2.006v.239a3.194,3.194,0,0,0,.526,1.969A1.779,1.779,0,0,0,5.394,15.9ZM9.42,13.033a4.369,4.369,0,0,1,.427-1.955,3.187,3.187,0,0,1,1.189-1.34,3.238,3.238,0,0,1,1.74-.472,3.119,3.119,0,0,1,2.444,1.046,4.024,4.024,0,0,1,.933,2.782v.089a4.407,4.407,0,0,1-.414,1.938,3.14,3.14,0,0,1-1.183,1.336,3.275,3.275,0,0,1-1.767.479,3.111,3.111,0,0,1-2.437-1.046,4,4,0,0,1-.933-2.769Zm1.271.15a3.164,3.164,0,0,0,.571,1.976,1.934,1.934,0,0,0,3.059-.01,3.46,3.46,0,0,0,.567-2.116,3.159,3.159,0,0,0-.578-1.972,1.836,1.836,0,0,0-1.535-.755,1.816,1.816,0,0,0-1.511.745A3.435,3.435,0,0,0,10.691,13.184Zm11.354,1.654a.931.931,0,0,0-.386-.8,3.718,3.718,0,0,0-1.347-.489,6.367,6.367,0,0,1-1.524-.492,2.169,2.169,0,0,1-.834-.684,1.635,1.635,0,0,1-.27-.943A1.919,1.919,0,0,1,18.454,9.9a3,3,0,0,1,1.965-.629,3.091,3.091,0,0,1,2.041.649,2.063,2.063,0,0,1,.783,1.661H21.971a1.142,1.142,0,0,0-.441-.9,1.652,1.652,0,0,0-1.111-.376,1.729,1.729,0,0,0-1.08.3.947.947,0,0,0-.39.786.767.767,0,0,0,.362.69,4.458,4.458,0,0,0,1.309.444,6.821,6.821,0,0,1,1.535.506,2.239,2.239,0,0,1,.872.708,1.74,1.74,0,0,1,.284,1.008,1.893,1.893,0,0,1-.793,1.589,3.326,3.326,0,0,1-2.058.6,3.725,3.725,0,0,1-1.572-.314,2.557,2.557,0,0,1-1.07-.878,2.117,2.117,0,0,1-.386-1.22H18.7a1.309,1.309,0,0,0,.509,1.008,1.976,1.976,0,0,0,1.254.373,2.039,2.039,0,0,0,1.152-.291A.893.893,0,0,0,22.046,14.838Zm4.628-7.226V9.4h1.381v.978H26.674v4.587a1.024,1.024,0,0,0,.185.667.777.777,0,0,0,.629.222,3.062,3.062,0,0,0,.6-.082V16.8a3.666,3.666,0,0,1-.971.137,1.575,1.575,0,0,1-1.278-.513,2.2,2.2,0,0,1-.431-1.456V10.381H24.063V9.4h1.347V7.613ZM34.1,16.8a2.657,2.657,0,0,1-.178-.779,2.822,2.822,0,0,1-2.105.916,2.611,2.611,0,0,1-1.794-.619,2,2,0,0,1-.7-1.569,2.091,2.091,0,0,1,.878-1.794,4.142,4.142,0,0,1,2.471-.639H33.9v-.581a1.42,1.42,0,0,0-.4-1.056,1.593,1.593,0,0,0-1.169-.393,1.844,1.844,0,0,0-1.135.342,1.007,1.007,0,0,0-.458.827H29.47a1.745,1.745,0,0,1,.393-1.07,2.683,2.683,0,0,1,1.066-.817,3.588,3.588,0,0,1,1.48-.3,2.924,2.924,0,0,1,2,.639,2.306,2.306,0,0,1,.752,1.76v3.4a4.162,4.162,0,0,0,.26,1.62V16.8ZM32,15.836a2.223,2.223,0,0,0,1.128-.308,1.861,1.861,0,0,0,.772-.8V13.211h-.991q-2.324,0-2.324,1.36a1.151,1.151,0,0,0,.4.93A1.524,1.524,0,0,0,32,15.836Zm6.521.964H37.256V6.3h1.265Z" transform="translate(897.776 17426.459)" fill="#161615"/><path d="M-46.71-2.6h-4.17L-51.816,0H-53.17l3.8-9.953h1.148L-44.413,0H-45.76Zm-3.773-1.08H-47.1l-1.7-4.655Zm13.46.062A4.429,4.429,0,0,1-37.8-.9,2.476,2.476,0,0,1-39.888.137a2.713,2.713,0,0,1-2.119-.854V2.844h-1.265V-7.4h1.155l.062.82a2.605,2.605,0,0,1,2.146-.957,2.522,2.522,0,0,1,2.109,1,4.477,4.477,0,0,1,.776,2.8Zm-1.265-.144a3.268,3.268,0,0,0-.533-1.976,1.718,1.718,0,0,0-1.463-.725,1.859,1.859,0,0,0-1.723,1.019v3.534A1.863,1.863,0,0,0-40.271-.9a1.71,1.71,0,0,0,1.446-.721A3.567,3.567,0,0,0-38.288-3.76Zm2.536-.007a4.369,4.369,0,0,1,.427-1.955,3.187,3.187,0,0,1,1.189-1.34,3.238,3.238,0,0,1,1.74-.472,3.119,3.119,0,0,1,2.444,1.046,4.024,4.024,0,0,1,.933,2.782v.089a4.407,4.407,0,0,1-.414,1.938A3.14,3.14,0,0,1-30.615-.342a3.275,3.275,0,0,1-1.767.479A3.111,3.111,0,0,1-34.819-.909a4,4,0,0,1-.933-2.769Zm1.271.15a3.164,3.164,0,0,0,.571,1.976A1.827,1.827,0,0,0-32.382-.9a1.816,1.816,0,0,0,1.531-.755,3.46,3.46,0,0,0,.567-2.116,3.159,3.159,0,0,0-.578-1.972A1.836,1.836,0,0,0-32.4-6.494a1.816,1.816,0,0,0-1.511.745A3.434,3.434,0,0,0-34.48-3.616Zm2.659-6.884h1.531l-1.832,2.01h-1.019ZM-27.009,0V-6.419h-1.169V-7.4h1.169v-.629A2.57,2.57,0,0,1-26.3-9.953a2.744,2.744,0,0,1,2-.69,6.021,6.021,0,0,1,1.935.417l-.212,1.066A4.382,4.382,0,0,0-24.206-9.5a1.592,1.592,0,0,0-1.172.366,1.508,1.508,0,0,0-.359,1.1V-7.4h1.511v.978h-1.511V0Zm5.271,0H-23.01V-7.4h1.271Zm6.364-1.962a.931.931,0,0,0-.386-.8,3.718,3.718,0,0,0-1.347-.489,6.367,6.367,0,0,1-1.524-.492,2.169,2.169,0,0,1-.834-.684,1.635,1.635,0,0,1-.27-.943A1.919,1.919,0,0,1-18.966-6.9,3,3,0,0,1-17-7.533a3.091,3.091,0,0,1,2.041.649,2.063,2.063,0,0,1,.783,1.661h-1.271a1.142,1.142,0,0,0-.441-.9A1.652,1.652,0,0,0-17-6.494a1.729,1.729,0,0,0-1.08.3.947.947,0,0,0-.39.786.767.767,0,0,0,.362.69,4.458,4.458,0,0,0,1.309.444,6.821,6.821,0,0,1,1.535.506,2.239,2.239,0,0,1,.872.708,1.74,1.74,0,0,1,.284,1.008A1.893,1.893,0,0,1-14.9-.461a3.326,3.326,0,0,1-2.058.6,3.725,3.725,0,0,1-1.572-.314,2.557,2.557,0,0,1-1.07-.878,2.117,2.117,0,0,1-.386-1.22h1.265a1.309,1.309,0,0,0,.509,1.008A1.976,1.976,0,0,0-16.96-.9a2.039,2.039,0,0,0,1.152-.291A.893.893,0,0,0-15.374-1.962ZM-11.088,0h-1.265V-7.4h1.265Zm-1.367-9.358a.755.755,0,0,1,.188-.52.706.706,0,0,1,.557-.212.717.717,0,0,1,.561.212.747.747,0,0,1,.191.52.722.722,0,0,1-.191.513.73.73,0,0,1-.561.205.718.718,0,0,1-.557-.205A.73.73,0,0,1-12.455-9.358Zm7.7,7.4a.931.931,0,0,0-.386-.8,3.718,3.718,0,0,0-1.347-.489,6.367,6.367,0,0,1-1.524-.492,2.169,2.169,0,0,1-.834-.684,1.635,1.635,0,0,1-.27-.943A1.919,1.919,0,0,1-8.35-6.9a3,3,0,0,1,1.965-.629,3.091,3.091,0,0,1,2.041.649,2.063,2.063,0,0,1,.783,1.661H-4.833a1.142,1.142,0,0,0-.441-.9,1.652,1.652,0,0,0-1.111-.376,1.729,1.729,0,0,0-1.08.3.947.947,0,0,0-.39.786.767.767,0,0,0,.362.69,4.458,4.458,0,0,0,1.309.444,6.821,6.821,0,0,1,1.535.506,2.239,2.239,0,0,1,.872.708,1.74,1.74,0,0,1,.284,1.008A1.893,1.893,0,0,1-4.286-.461a3.326,3.326,0,0,1-2.058.6A3.725,3.725,0,0,1-7.916-.178a2.557,2.557,0,0,1-1.07-.878,2.117,2.117,0,0,1-.386-1.22h1.265A1.309,1.309,0,0,0-7.6-1.268,1.976,1.976,0,0,0-6.344-.9a2.039,2.039,0,0,0,1.152-.291A.893.893,0,0,0-4.758-1.962ZM4.689.137A3.232,3.232,0,0,1,2.242-.851,3.666,3.666,0,0,1,1.3-3.493v-.232a4.438,4.438,0,0,1,.42-1.965A3.28,3.28,0,0,1,2.9-7.044a2.956,2.956,0,0,1,1.637-.489,2.77,2.77,0,0,1,2.242.95,4.114,4.114,0,0,1,.8,2.721v.526H2.563A2.629,2.629,0,0,0,3.2-1.569,2.009,2.009,0,0,0,4.758-.9a2.2,2.2,0,0,0,1.135-.273,2.851,2.851,0,0,0,.813-.725l.772.6A3.106,3.106,0,0,1,4.689.137ZM4.532-6.494a1.687,1.687,0,0,0-1.285.557A2.708,2.708,0,0,0,2.6-4.375H6.31v-.1a2.409,2.409,0,0,0-.52-1.494A1.588,1.588,0,0,0,4.532-6.494Zm8.812,4.532a.931.931,0,0,0-.386-.8,3.718,3.718,0,0,0-1.347-.489,6.367,6.367,0,0,1-1.524-.492,2.169,2.169,0,0,1-.834-.684,1.635,1.635,0,0,1-.27-.943A1.919,1.919,0,0,1,9.751-6.9a3,3,0,0,1,1.965-.629,3.091,3.091,0,0,1,2.041.649,2.063,2.063,0,0,1,.783,1.661H13.269a1.142,1.142,0,0,0-.441-.9,1.652,1.652,0,0,0-1.111-.376,1.729,1.729,0,0,0-1.08.3.947.947,0,0,0-.39.786.767.767,0,0,0,.362.69,4.458,4.458,0,0,0,1.309.444,6.821,6.821,0,0,1,1.535.506,2.239,2.239,0,0,1,.872.708,1.74,1.74,0,0,1,.284,1.008,1.893,1.893,0,0,1-.793,1.589,3.326,3.326,0,0,1-2.058.6,3.725,3.725,0,0,1-1.572-.314,2.557,2.557,0,0,1-1.07-.878,2.117,2.117,0,0,1-.386-1.22H9.994A1.309,1.309,0,0,0,10.5-1.268,1.976,1.976,0,0,0,11.758-.9a2.039,2.039,0,0,0,1.152-.291A.893.893,0,0,0,13.344-1.962Zm4.628-7.226V-7.4h1.381v.978H17.972v4.587a1.024,1.024,0,0,0,.185.667.777.777,0,0,0,.629.222,3.062,3.062,0,0,0,.6-.082V0a3.666,3.666,0,0,1-.971.137,1.575,1.575,0,0,1-1.278-.513,2.2,2.2,0,0,1-.431-1.456V-6.419H15.36V-7.4h1.347V-9.187ZM22.2,0H20.938V-7.4H22.2ZM20.836-9.358a.755.755,0,0,1,.188-.52.706.706,0,0,1,.557-.212.717.717,0,0,1,.561.212.747.747,0,0,1,.191.52.722.722,0,0,1-.191.513.73.73,0,0,1-.561.205.718.718,0,0,1-.557-.205A.73.73,0,0,1,20.836-9.358ZM25.6,0H24.336V-10.5H25.6Zm1.688-3.767a4.369,4.369,0,0,1,.427-1.955,3.187,3.187,0,0,1,1.189-1.34,3.238,3.238,0,0,1,1.74-.472,3.119,3.119,0,0,1,2.444,1.046,4.024,4.024,0,0,1,.933,2.782v.089a4.407,4.407,0,0,1-.414,1.938A3.14,3.14,0,0,1,32.426-.342a3.275,3.275,0,0,1-1.767.479A3.111,3.111,0,0,1,28.222-.909a4,4,0,0,1-.933-2.769Zm1.271.15a3.164,3.164,0,0,0,.571,1.976A1.827,1.827,0,0,0,30.659-.9a1.816,1.816,0,0,0,1.531-.755,3.46,3.46,0,0,0,.567-2.116,3.159,3.159,0,0,0-.578-1.972,1.836,1.836,0,0,0-1.535-.755,1.816,1.816,0,0,0-1.511.745A3.434,3.434,0,0,0,28.561-3.616ZM36.982,0H35.718V-7.4h1.265ZM35.615-9.358a.755.755,0,0,1,.188-.52.706.706,0,0,1,.557-.212.717.717,0,0,1,.561.212.747.747,0,0,1,.191.52.722.722,0,0,1-.191.513.73.73,0,0,1-.561.205.718.718,0,0,1-.557-.205A.73.73,0,0,1,35.615-9.358ZM38.7-3.76A4.333,4.333,0,0,1,39.5-6.5a2.551,2.551,0,0,1,2.112-1.036,2.565,2.565,0,0,1,2.058.889V-10.5h1.265V0H43.777l-.062-.793A2.575,2.575,0,0,1,41.6.137a2.526,2.526,0,0,1-2.1-1.053,4.382,4.382,0,0,1-.81-2.748Zm1.265.144a3.281,3.281,0,0,0,.52,1.969,1.68,1.68,0,0,0,1.436.711,1.845,1.845,0,0,0,1.757-1.08v-3.4A1.859,1.859,0,0,0,41.932-6.46a1.687,1.687,0,0,0-1.449.718A3.612,3.612,0,0,0,39.963-3.616ZM49.971.137a3.232,3.232,0,0,1-2.447-.988,3.666,3.666,0,0,1-.943-2.642v-.232A4.438,4.438,0,0,1,47-5.691a3.28,3.28,0,0,1,1.176-1.354,2.956,2.956,0,0,1,1.637-.489,2.77,2.77,0,0,1,2.242.95,4.114,4.114,0,0,1,.8,2.721v.526H47.845a2.629,2.629,0,0,0,.639,1.767A2.009,2.009,0,0,0,50.039-.9a2.2,2.2,0,0,0,1.135-.273,2.851,2.851,0,0,0,.813-.725l.772.6A3.106,3.106,0,0,1,49.971.137Zm-.157-6.631a1.687,1.687,0,0,0-1.285.557,2.708,2.708,0,0,0-.643,1.562h3.705v-.1a2.409,2.409,0,0,0-.52-1.494A1.588,1.588,0,0,0,49.813-6.494ZM-26.117,13.04A4.333,4.333,0,0,1-25.31,10.3,2.551,2.551,0,0,1-23.2,9.267a2.565,2.565,0,0,1,2.058.889V6.3h1.265V16.8h-1.162l-.062-.793a2.575,2.575,0,0,1-2.112.93,2.526,2.526,0,0,1-2.1-1.053,4.382,4.382,0,0,1-.81-2.748Zm1.265.144a3.281,3.281,0,0,0,.52,1.969,1.68,1.68,0,0,0,1.436.711,1.845,1.845,0,0,0,1.757-1.08v-3.4a1.859,1.859,0,0,0-1.743-1.046,1.687,1.687,0,0,0-1.449.718A3.612,3.612,0,0,0-24.852,13.184Zm10.008,3.753a3.232,3.232,0,0,1-2.447-.988,3.666,3.666,0,0,1-.943-2.642v-.232a4.438,4.438,0,0,1,.42-1.965,3.28,3.28,0,0,1,1.176-1.354A2.956,2.956,0,0,1-15,9.267a2.77,2.77,0,0,1,2.242.95,4.114,4.114,0,0,1,.8,2.721v.526H-16.97a2.629,2.629,0,0,0,.639,1.767,2.009,2.009,0,0,0,1.555.673,2.2,2.2,0,0,0,1.135-.273,2.851,2.851,0,0,0,.813-.725l.772.6A3.106,3.106,0,0,1-14.844,16.937ZM-15,10.306a1.687,1.687,0,0,0-1.285.557,2.708,2.708,0,0,0-.643,1.562h3.705v-.1a2.409,2.409,0,0,0-.52-1.494A1.588,1.588,0,0,0-15,10.306ZM-9.123,16.8h-1.265V6.3h1.265Zm9.064-6.262A3.79,3.79,0,0,0-.68,10.49a1.667,1.667,0,0,0-1.688,1.06V16.8H-3.633V9.4H-2.4l.021.854A1.969,1.969,0,0,1-.619,9.267a1.292,1.292,0,0,1,.561.1ZM5.4,16.8a2.657,2.657,0,0,1-.178-.779,2.822,2.822,0,0,1-2.105.916,2.611,2.611,0,0,1-1.794-.619,2,2,0,0,1-.7-1.569A2.091,2.091,0,0,1,1.5,12.955a4.142,4.142,0,0,1,2.471-.639H5.2v-.581a1.42,1.42,0,0,0-.4-1.056,1.593,1.593,0,0,0-1.169-.393,1.844,1.844,0,0,0-1.135.342,1.007,1.007,0,0,0-.458.827H.769a1.745,1.745,0,0,1,.393-1.07,2.683,2.683,0,0,1,1.066-.817,3.588,3.588,0,0,1,1.48-.3,2.924,2.924,0,0,1,2,.639,2.306,2.306,0,0,1,.752,1.76v3.4a4.162,4.162,0,0,0,.26,1.62V16.8Zm-2.1-.964a2.223,2.223,0,0,0,1.128-.308,1.861,1.861,0,0,0,.772-.8V13.211H4.208q-2.324,0-2.324,1.36a1.151,1.151,0,0,0,.4.93A1.524,1.524,0,0,0,3.3,15.836Zm4.84-2.8A4.333,4.333,0,0,1,8.945,10.3a2.551,2.551,0,0,1,2.112-1.036,2.565,2.565,0,0,1,2.058.889V6.3h1.265V16.8H13.217l-.062-.793a2.575,2.575,0,0,1-2.112.93,2.526,2.526,0,0,1-2.1-1.053,4.382,4.382,0,0,1-.81-2.748Zm1.265.144a3.281,3.281,0,0,0,.52,1.969,1.68,1.68,0,0,0,1.436.711,1.845,1.845,0,0,0,1.757-1.08v-3.4a1.859,1.859,0,0,0-1.743-1.046,1.687,1.687,0,0,0-1.449.718A3.612,3.612,0,0,0,9.4,13.184ZM17.715,16.8H16.451V9.4h1.265ZM16.348,7.442a.755.755,0,0,1,.188-.52.706.706,0,0,1,.557-.212.717.717,0,0,1,.561.212.747.747,0,0,1,.191.52.722.722,0,0,1-.191.513.73.73,0,0,1-.561.205.718.718,0,0,1-.557-.205A.73.73,0,0,1,16.348,7.442ZM19.4,13.033a4.369,4.369,0,0,1,.427-1.955,3.187,3.187,0,0,1,1.189-1.34,3.238,3.238,0,0,1,1.74-.472A3.119,3.119,0,0,1,25.2,10.313a4.024,4.024,0,0,1,.933,2.782v.089a4.407,4.407,0,0,1-.414,1.938,3.14,3.14,0,0,1-1.183,1.336,3.275,3.275,0,0,1-1.767.479,3.111,3.111,0,0,1-2.437-1.046,4,4,0,0,1-.933-2.769Zm1.271.15a3.164,3.164,0,0,0,.571,1.976,1.934,1.934,0,0,0,3.059-.01,3.46,3.46,0,0,0,.567-2.116,3.159,3.159,0,0,0-.578-1.972,1.836,1.836,0,0,0-1.535-.755,1.816,1.816,0,0,0-1.511.745A3.435,3.435,0,0,0,20.675,13.184Z" transform="translate(1118.426 17482.066)" fill="#161615"/><circle cx="2.594" cy="2.594" r="2.594" transform="translate(997.214 17393.537)" fill="#ad2564"/><circle cx="2.594" cy="2.594" r="2.594" transform="translate(997.214 17430.539)" fill="#ad2564"/><circle cx="2.594" cy="2.594" r="2.594" transform="translate(1009.412 17493.262)" fill="#ad2564"/><circle cx="2.594" cy="2.594" r="2.594" transform="translate(1000.428 17578.059)" fill="#ad2564"/><circle cx="2.594" cy="2.594" r="2.594" transform="translate(1011.241 17672.496)" fill="#ad2564"/><circle cx="2.594" cy="2.594" r="2.594" transform="translate(1034.863 17672.496)" fill="#ad2564"/><circle cx="2.594" cy="2.594" r="2.594" transform="translate(1031.042 17578.059)" fill="#ad2564"/><line x1="47.03" y1="16.235" transform="translate(952.777 17379.896)" fill="none" stroke="#ad2564" stroke-miterlimit="10" stroke-width="2"/><line x1="52.321" transform="translate(947.486 17433.133)" fill="none" stroke="#ad2564" stroke-miterlimit="10" stroke-width="2"/><line x1="72.262" transform="translate(930.856 17580.91)" fill="none" stroke="#ad2564" stroke-miterlimit="10" stroke-width="2"/><line x1="34.034" y1="12.513" transform="translate(979.801 17662.576)" fill="none" stroke="#ad2564" stroke-miterlimit="10" stroke-width="2"/><line y1="14.123" x2="34.375" transform="translate(1037.457 17660.967)" fill="none" stroke="#ad2564" stroke-miterlimit="10" stroke-width="2"/><line x2="48.968" transform="translate(1033.636 17580.652)" fill="none" stroke="#ad2564" stroke-miterlimit="10" stroke-width="2"/><line y1="4.355" x2="65.874" transform="translate(1012.006 17491.5)" fill="none" stroke="#ad2564" stroke-miterlimit="10" stroke-width="2"/></g></svg>