<svg xmlns="http://www.w3.org/2000/svg" width="295" height="125" viewBox="0 0 295 125"><g transform="translate(-600 -4748)"><rect width="295" height="125" transform="translate(600 4748)" fill="none"/><g transform="translate(2251.096 4463.587)"><path d="M-1629.994,325.917h80.362l-84.614,28.63" fill="none" stroke="#2287cb" stroke-miterlimit="10" stroke-width="1"/><path d="M-1631.128,377.082h79.8l-83.764-31.748" fill="none" stroke="#2287cb" stroke-miterlimit="10" stroke-width="1"/><path d="M-1630.419,342.5h83.764l-87.591,8.787" fill="none" stroke="#2287cb" stroke-miterlimit="10" stroke-width="1"/><path d="M-1635.1,348.169l87.286,11.339h-82.467" fill="none" stroke="#2287cb" stroke-miterlimit="10" stroke-width="1"/><path d="M-1617,327.705l1.79-1.788-1.79-1.788h1.519l1.788,1.788-1.788,1.788Z" fill="#1e87ca"/><path d="M-1577.836,340.711l-1.79,1.788,1.79,1.788h-1.519l-1.788-1.788,1.788-1.788Z" fill="#1e87ca"/><path d="M-1582.286,334.882l-.919,2.357,2.358.917-1.39.611-2.357-.918.918-2.357Z" fill="#1e87ca"/><path d="M-1580.242,364.577l-2.437.679.681,2.437-1.323-.746-.68-2.436,2.436-.68Z" fill="#1e87ca"/><path d="M-1581.753,344.028l-1.458,2.067,2.068,1.457-1.5.259-2.067-1.457,1.457-2.067Z" fill="#1e87ca"/><path d="M-1580.531,353.7l-2.16,1.318,1.319,2.159-1.476-.357-1.318-2.159,2.159-1.318Z" fill="#1e87ca"/><path d="M-1577.836,357.719l-1.79,1.788,1.79,1.788h-1.519l-1.788-1.788,1.788-1.788Z" fill="#1e87ca"/><path d="M-1617,344.288l1.79-1.788-1.79-1.788h1.519l1.788,1.788-1.788,1.788Z" fill="#1e87ca"/><path d="M-1617,361.3l1.79-1.788-1.79-1.788h1.519l1.788,1.788-1.788,1.788Z" fill="#1e87ca"/><path d="M-1617,378.871l1.79-1.788-1.79-1.788h1.519l1.788,1.788-1.788,1.788Z" fill="#1e87ca"/><path d="M-1550.34,322.515s11.386,23.764,0,56.079" fill="none" stroke="#535253" stroke-linecap="round" stroke-linejoin="round" stroke-width="3"/><path d="M-1442.619,375.877l-1.069.378-46.435,16.441" fill="none" stroke="#2287cb" stroke-linecap="round" stroke-linejoin="round" stroke-width="1"/><path d="M-1490.122,308.413l44.625,15.942.8.285" fill="none" stroke="#2287cb" stroke-linecap="round" stroke-linejoin="round" stroke-width="1"/><line x2="92.787" transform="translate(-1526.028 325.043)" fill="none" stroke="#2287cb" stroke-linecap="round" stroke-linejoin="round" stroke-width="1"/><line x2="92.787" transform="translate(-1526.028 376.255)" fill="none" stroke="#2287cb" stroke-linecap="round" stroke-linejoin="round" stroke-width="1"/><path d="M-1526.028,342.287h76.961l-53.858-6.236" fill="none" stroke="#2287cb" stroke-linecap="round" stroke-linejoin="round" stroke-width="1"/><path d="M-1526.028,359.271h76.961l-53.858,6.236" fill="none" stroke="#2287cb" stroke-linecap="round" stroke-linejoin="round" stroke-width="1"/><path d="M-1446,358.87l74.362-8.126-73.864-8.457" fill="none" stroke="#2287cb" stroke-linecap="round" stroke-linejoin="round" stroke-width="1" stroke-dasharray="2"/><path d="M-1444.113,324.85l.54.193,71.939,25.7-70.913,25.108-.64.227" fill="none" stroke="#2287cb" stroke-linecap="round" stroke-linejoin="round" stroke-width="1" stroke-dasharray="2"/><path d="M-1442.548,320.744s-13.275,29.433,0,55.511" fill="none" stroke="#535253" stroke-linecap="round" stroke-linejoin="round" stroke-width="3"/></g><text transform="translate(621 4773)" fill="#8f2b58" font-size="13" font-family="Roboto-Regular, Roboto"><tspan x="0" y="0">Espejos curvos</tspan></text></g></svg>