<svg xmlns="http://www.w3.org/2000/svg" width="610" height="147.897" viewBox="0 0 610 147.897"><g transform="translate(-3501.663 1891.04)"><rect width="610" height="147.897" transform="translate(3501.663 -1891.04)" fill="#fff"/><circle cx="2.676" cy="2.676" r="2.676" transform="translate(3552.911 -1862.963)" fill="#7a1c47"/><circle cx="2.676" cy="2.676" r="2.676" transform="translate(4054.5 -1862.963)" fill="#7a1c47"/><circle cx="2.676" cy="2.676" r="2.676" transform="translate(4088.256 -1830.108)" fill="#7a1c47"/><circle cx="2.676" cy="2.676" r="2.676" transform="translate(4088.256 -1778.506)" fill="#7a1c47"/><circle cx="2.676" cy="2.676" r="2.676" transform="translate(3518.857 -1778.506)" fill="#7a1c47"/><circle cx="2.676" cy="2.676" r="2.676" transform="translate(3518.857 -1830.057)" fill="#7a1c47"/><circle cx="2.676" cy="2.676" r="2.676" transform="translate(3526.545 -1854.886)" fill="#7a1c47"/><circle cx="2.676" cy="2.676" r="2.676" transform="translate(4080.649 -1854.886)" fill="#7a1c47"/><path d="M3658.826-1813.588h285.891l-26.7-12.62" transform="translate(4.46 1.84)" fill="none" stroke="#7a1c47" stroke-miterlimit="10" stroke-width="1.665"/><path d="M3797.826-1861.135" transform="translate(8.406 0.849)" fill="none" stroke="#7a1c47" stroke-miterlimit="10" stroke-width="1.81"/><path d="M2.82-4.453V0H1.32V-11.375h4.2a4.215,4.215,0,0,1,2.926.953A3.231,3.231,0,0,1,9.5-7.9,3.189,3.189,0,0,1,8.465-5.348,4.4,4.4,0,0,1,5.5-4.453Zm0-1.227h2.7a2.7,2.7,0,0,0,1.844-.566A2.069,2.069,0,0,0,8-7.883a2.138,2.138,0,0,0-.641-1.625A2.528,2.528,0,0,0,5.6-10.141H2.82ZM16.406-.836A3.07,3.07,0,0,1,13.93.156a2.628,2.628,0,0,1-2.059-.785,3.4,3.4,0,0,1-.715-2.324v-5.5H12.6v5.461q0,1.922,1.563,1.922a2.163,2.163,0,0,0,2.2-1.234V-8.453h1.445V0H16.438Zm4.969-7.617.047,1.063a3.08,3.08,0,0,1,2.531-1.219q2.68,0,2.7,3.023V0H25.211V-5.594a1.946,1.946,0,0,0-.418-1.352,1.675,1.675,0,0,0-1.277-.437,2.086,2.086,0,0,0-1.234.375,2.546,2.546,0,0,0-.828.984V0H20.008V-8.453Zm4.781-3.3a1.942,1.942,0,0,1-.48,1.367,1.561,1.561,0,0,1-1.2.523,1.76,1.76,0,0,1-.555-.078,2.993,2.993,0,0,1-.613-.32,2.656,2.656,0,0,0-.547-.293,1.338,1.338,0,0,0-.387-.051.717.717,0,0,0-.547.246.892.892,0,0,0-.227.629l-.969-.055a2.039,2.039,0,0,1,.473-1.383,1.516,1.516,0,0,1,1.2-.547,1.457,1.457,0,0,1,.492.078,3.587,3.587,0,0,1,.594.3,3.494,3.494,0,0,0,.574.3,1.319,1.319,0,0,0,.441.07.7.7,0,0,0,.559-.266.932.932,0,0,0,.223-.617Zm2.3,7.445a4.993,4.993,0,0,1,.488-2.234A3.643,3.643,0,0,1,30.3-8.07a3.7,3.7,0,0,1,1.988-.539,3.565,3.565,0,0,1,2.793,1.2,4.6,4.6,0,0,1,1.066,3.18v.1a5.036,5.036,0,0,1-.473,2.215A3.589,3.589,0,0,1,34.324-.391,3.743,3.743,0,0,1,32.3.156a3.556,3.556,0,0,1-2.785-1.2A4.575,4.575,0,0,1,28.453-4.2Zm1.453.172a3.616,3.616,0,0,0,.652,2.258,2.088,2.088,0,0,0,1.746.852,2.075,2.075,0,0,0,1.75-.863A3.955,3.955,0,0,0,34.7-4.3a3.61,3.61,0,0,0-.66-2.254,2.1,2.1,0,0,0-1.754-.863,2.075,2.075,0,0,0-1.727.852A3.925,3.925,0,0,0,29.906-4.133Z" transform="translate(3787.275 -1819.615)" fill="#161615"/><path d="M4090.375-1829.211c.083-3.755-.217-17.45-8.513-24.609-9.672-8.347-25.579-7.314-25.579-7.314H3555.147l-.041.039-.066-.039s-15.908-1.033-25.58,7.314-8.475,25.591-8.475,25.591v.314h0v51.237h569.4V-1829.2Z" transform="translate(0.547 0.848)" fill="none" stroke="#7a1c47" stroke-miterlimit="10" stroke-width="1.81"/></g></svg>