<svg xmlns="http://www.w3.org/2000/svg" width="609.859" height="288.422" viewBox="0 0 609.859 288.422"><g transform="translate(-495 -19304.361)"><g transform="translate(2329.103 19318.137)"><g transform="translate(-1832.528 -11.775)"><rect width="606.851" height="285.274" fill="none" stroke="#ad2564" stroke-miterlimit="10" stroke-width="1"/></g><circle cx="1.575" cy="1.575" r="1.575" transform="translate(-1834.102 -13.776)" fill="#ad2564"/><circle cx="1.575" cy="1.575" r="1.575" transform="translate(-1834.102 271.498)" fill="#ad2564"/><circle cx="1.575" cy="1.575" r="1.575" transform="translate(-1227.393 -13.776)" fill="#ad2564"/><circle cx="1.575" cy="1.575" r="1.575" transform="translate(-1227.393 271.498)" fill="#ad2564"/><path d="M-1708.559,21.277h119.4l-5.038-5.828" transform="translate(-1512.62 1779.283) rotate(90)" fill="none" stroke="#ad2564" stroke-miterlimit="10" stroke-width="1"/></g><g transform="translate(718 19391.572)" style="isolation:isolate"><path d="M5.669-4.657H3.329V0h-2.1V-12.086h4.25a4.947,4.947,0,0,1,3.229.938A3.317,3.317,0,0,1,9.845-8.434,3.4,3.4,0,0,1,9.26-6.4,3.723,3.723,0,0,1,7.628-5.146L10.343-.108V0H8.093ZM3.329-6.342H5.487a2.4,2.4,0,0,0,1.66-.535,1.867,1.867,0,0,0,.6-1.465,1.988,1.988,0,0,0-.552-1.5,2.345,2.345,0,0,0-1.648-.548H3.329ZM13.788,0H11.771V-8.981h2.017ZM11.646-11.314a1.071,1.071,0,0,1,.295-.772,1.113,1.113,0,0,1,.843-.307,1.127,1.127,0,0,1,.847.307,1.062,1.062,0,0,1,.3.772,1.038,1.038,0,0,1-.3.76,1.136,1.136,0,0,1-.847.3,1.122,1.122,0,0,1-.843-.3A1.046,1.046,0,0,1,11.646-11.314ZM23.865-4.4a5.4,5.4,0,0,1-.934,3.329A3.042,3.042,0,0,1,20.362.166,2.93,2.93,0,0,1,17.9-.971l-.1.971H15.979V-12.75H18v4.632a2.92,2.92,0,0,1,2.349-1.029,3.077,3.077,0,0,1,2.582,1.22,5.484,5.484,0,0,1,.938,3.412Zm-2.017-.174a3.813,3.813,0,0,0-.515-2.191,1.714,1.714,0,0,0-1.494-.73A1.873,1.873,0,0,0,18-6.35v3.7a1.892,1.892,0,0,0,1.859,1.17,1.7,1.7,0,0,0,1.461-.706,3.7,3.7,0,0,0,.531-2.133ZM29.509.166A4.173,4.173,0,0,1,26.4-1.042a4.381,4.381,0,0,1-1.191-3.217v-.249a5.389,5.389,0,0,1,.519-2.4,3.949,3.949,0,0,1,1.457-1.648,3.851,3.851,0,0,1,2.092-.589,3.525,3.525,0,0,1,2.835,1.17,4.949,4.949,0,0,1,1,3.312v.813H27.243a2.7,2.7,0,0,0,.743,1.76,2.23,2.23,0,0,0,1.639.647,2.731,2.731,0,0,0,2.258-1.121l1.087,1.038a3.631,3.631,0,0,1-1.44,1.249A4.509,4.509,0,0,1,29.509.166Zm-.241-7.695a1.7,1.7,0,0,0-1.341.581,3.012,3.012,0,0,0-.652,1.619H31.12v-.149a2.452,2.452,0,0,0-.54-1.531A1.686,1.686,0,0,0,29.269-7.529ZM37.2-11.165v2.183H38.79v1.494H37.2v5.014a1.1,1.1,0,0,0,.2.743.943.943,0,0,0,.726.228,3.107,3.107,0,0,0,.706-.083V-.025a4.968,4.968,0,0,1-1.328.191q-2.324,0-2.324-2.565V-7.487H33.709V-8.981h1.478v-2.183ZM44.285.166a4.173,4.173,0,0,1-3.109-1.208,4.381,4.381,0,0,1-1.191-3.217v-.249a5.389,5.389,0,0,1,.519-2.4A3.949,3.949,0,0,1,41.96-8.558a3.851,3.851,0,0,1,2.092-.589,3.525,3.525,0,0,1,2.835,1.17,4.949,4.949,0,0,1,1,3.312v.813H42.019a2.7,2.7,0,0,0,.743,1.76,2.23,2.23,0,0,0,1.639.647,2.731,2.731,0,0,0,2.258-1.121l1.087,1.038a3.631,3.631,0,0,1-1.44,1.249A4.509,4.509,0,0,1,44.285.166Zm-.241-7.695a1.7,1.7,0,0,0-1.341.581,3.012,3.012,0,0,0-.652,1.619H45.9v-.149a2.452,2.452,0,0,0-.54-1.531A1.686,1.686,0,0,0,44.044-7.529Z" transform="translate(92 63.001)" fill="#111211"/></g></g></svg>