<svg xmlns="http://www.w3.org/2000/svg" width="295.285" height="406.998" viewBox="0 0 295.285 406.998"><g transform="translate(-1020 -18406)"><g transform="translate(1020 18406)"><g transform="translate(1.915 1.915)"><rect width="291.456" height="403.17" fill="none" stroke="#ad2564" stroke-miterlimit="10" stroke-width="1"/><rect width="290.468" height="402.182" transform="translate(0.494 0.494)" fill="none" stroke="#ad2564" stroke-miterlimit="10" stroke-width="1"/></g><circle cx="2.409" cy="2.409" r="2.409" transform="translate(0 0)" fill="#ad2564"/><circle cx="2.409" cy="2.409" r="2.409" transform="translate(145.234 0)" fill="#ad2564"/><circle cx="2.409" cy="2.409" r="2.409" transform="translate(290.468 0)" fill="#ad2564"/><circle cx="2.409" cy="2.409" r="2.409" transform="translate(0 402.182)" fill="#ad2564"/><circle cx="2.409" cy="2.409" r="2.409" transform="translate(145.234 402.182)" fill="#ad2564"/><circle cx="2.409" cy="2.409" r="2.409" transform="translate(290.468 402.182)" fill="#ad2564"/><path d="M-1098.814,911.669v19.188h-6.959" transform="translate(1246.468 -909.464)" fill="none" stroke="#ad2564" stroke-miterlimit="10" stroke-width="1"/><path d="M-1098.786,1346.174v-19.188h6.959" transform="translate(1246.488 -941.583)" fill="none" stroke="#ad2564" stroke-miterlimit="10" stroke-width="1"/><path d="M-1105.6,998.316v223.5l13.547-27.208" transform="translate(1246.473 -906.565)" fill="none" stroke="#ad2564" stroke-miterlimit="10" stroke-width="1"/></g><g transform="translate(1179 18599.941)" style="isolation:isolate"><path d="M7.994-2.814H3.312L2.333,0H.149L4.715-12.086H6.6L11.173,0H8.981ZM3.9-4.507H7.4L5.653-9.521ZM14.493,0H12.476V-12.75h2.017Zm6.151.166a4.173,4.173,0,0,1-3.109-1.208,4.381,4.381,0,0,1-1.191-3.217v-.249a5.389,5.389,0,0,1,.519-2.4A3.949,3.949,0,0,1,18.32-8.558a3.851,3.851,0,0,1,2.092-.589,3.525,3.525,0,0,1,2.835,1.17,4.949,4.949,0,0,1,1,3.312v.813H18.378a2.7,2.7,0,0,0,.743,1.76,2.23,2.23,0,0,0,1.639.647,2.731,2.731,0,0,0,2.258-1.121l1.087,1.038a3.631,3.631,0,0,1-1.44,1.249A4.509,4.509,0,0,1,20.644.166ZM20.4-7.529a1.7,1.7,0,0,0-1.341.581,3.012,3.012,0,0,0-.652,1.619h3.843v-.149a2.452,2.452,0,0,0-.54-1.531A1.686,1.686,0,0,0,20.4-7.529Zm7.936-3.636v2.183h1.585v1.494H28.339v5.014a1.1,1.1,0,0,0,.2.743.943.943,0,0,0,.726.228,3.107,3.107,0,0,0,.706-.083V-.025a4.968,4.968,0,0,1-1.328.191q-2.324,0-2.324-2.565V-7.487H24.844V-8.981h1.478v-2.183ZM33.61,0H31.593V-8.981H33.61ZM31.468-11.314a1.071,1.071,0,0,1,.295-.772,1.113,1.113,0,0,1,.843-.307,1.127,1.127,0,0,1,.847.307,1.062,1.062,0,0,1,.3.772,1.038,1.038,0,0,1-.3.76,1.136,1.136,0,0,1-.847.3,1.122,1.122,0,0,1-.843-.3A1.046,1.046,0,0,1,31.468-11.314ZM37.951,0H35.934V-12.75h2.017Zm4.341,0H40.275V-12.75h2.017ZM44.11-4.574a5.3,5.3,0,0,1,.523-2.378A3.819,3.819,0,0,1,46.1-8.579a4.14,4.14,0,0,1,2.175-.569,3.923,3.923,0,0,1,2.951,1.17,4.6,4.6,0,0,1,1.224,3.1l.008.473a5.343,5.343,0,0,1-.51,2.374A3.773,3.773,0,0,1,50.49-.407a4.17,4.17,0,0,1-2.2.573A3.9,3.9,0,0,1,45.252-1.1,4.848,4.848,0,0,1,44.11-4.474Zm2.017.174A3.619,3.619,0,0,0,46.7-2.229a1.862,1.862,0,0,0,1.594.784,1.842,1.842,0,0,0,1.59-.8,4,4,0,0,0,.569-2.333,3.572,3.572,0,0,0-.585-2.158,1.869,1.869,0,0,0-1.59-.8,1.852,1.852,0,0,0-1.569.784A3.922,3.922,0,0,0,46.127-4.4Zm2.706-8.351h2.3l-2.3,2.515H47.215Zm7.205,3.769L56.1-7.944a3.229,3.229,0,0,1,2.615-1.2q2.806,0,2.855,3.212V0H59.55V-5.819a1.85,1.85,0,0,0-.369-1.266A1.554,1.554,0,0,0,57.973-7.5a1.944,1.944,0,0,0-1.818,1.1V0H54.138V-8.981Z" transform="translate(0 16.059)" fill="#111211"/></g></g></svg>