<svg xmlns="http://www.w3.org/2000/svg" width="822" height="107.73" viewBox="0 0 822 107.73"><g transform="translate(-389 -2082.083)"><path d="M3446.848-1371.454v-74.583s12.983-5.8,14.917-17.126l23.48,8.01s-8.287,31.214,15.745,28.729l7.735,45.854-20.394,8.675-16.621,7.07-1.341-39.778Z" transform="translate(-3056.848 3551.354)" fill="#fff" stroke="#1d1d1b" stroke-linecap="round" stroke-linejoin="round" stroke-width="2"/><line x2="15.864" y2="32.783" transform="translate(413.548 2147.557)" fill="none" stroke="#1d1d1b" stroke-linecap="round" stroke-linejoin="round" stroke-width="2"/><path d="M3674-1372.909l-16.961-1.619v-74.892l23.128,38.327" transform="translate(-3057.696 3551.299)" fill="#fff" stroke="#1d1d1b" stroke-linecap="round" stroke-linejoin="round" stroke-width="2"/><path d="M3781.505-1454.727l11.674,42.292-.233,2.178-4.173,39.013-18.062-1.685v-76.29Z" transform="translate(-3058.155 3551.32)" fill="#fff" stroke="#1d1d1b" stroke-linecap="round" stroke-linejoin="round" stroke-width="2"/><path d="M3807.57-1456.52l7.71-5.727,17.4,16.961s-27.314,20.485-4.406,36.124l-16.52,41.191-22.908-3.3,4.173-39.012Z" transform="translate(-3058.228 3551.351)" fill="#fff" stroke="#1d1d1b" stroke-linecap="round" stroke-linejoin="round" stroke-width="2"/><path d="M3902.69-1464.016s-2.2,16.3-12.775,16.74l-1.1,77.756h17.622l8.182-90.311Z" transform="translate(-3058.632 3551.358)" fill="#fff" stroke="#1d1d1b" stroke-linecap="round" stroke-linejoin="round" stroke-width="2"/><path d="M3940.868-1451.189l8.37,8.591s-25.243,20.925-3.48,35.9l-17,41.191-22.247-3.965,3.877-38.878Z" transform="translate(-3058.703 3551.306)" fill="#fff" stroke="#1d1d1b" stroke-linecap="round" stroke-linejoin="round" stroke-width="2"/><path d="M4002.879-1465.564l25.067,7.709s-14.936,48.019-15.156,50.663-5.947,39.428-5.947,39.428h-16.08l-1.322-81.28S3998.693-1445.74,4002.879-1465.564Z" transform="translate(-3059.038 3551.364)" fill="#fff" stroke="#1d1d1b" stroke-linecap="round" stroke-linejoin="round" stroke-width="2"/><path d="M4051.629-1444.111l-38.51,35.794-6.2,40.639,22.357,4.846,18.172-45.486S4027.179-1414.375,4051.629-1444.111Z" transform="translate(-3059.108 3551.277)" fill="#fff" stroke="#1d1d1b" stroke-linecap="round" stroke-linejoin="round" stroke-width="2"/><path d="M4115.589-1468.292l22.027,6.755s-4.4,19.972,0,25.258l-14.1,26.139-7.93,37.155-15.566,1.613v-79.3S4112.652-1457.131,4115.589-1468.292Z" transform="translate(-3059.484 3551.375)" fill="#fff" stroke="#1d1d1b" stroke-linecap="round" stroke-linejoin="round" stroke-width="2"/><path d="M4126.225-1411.422l22.026-10.573s.588,8.224,7.636,10.573l-14.832,43.833-25.4-5.21,7.93-37.155Z" transform="translate(-3059.547 3551.188)" fill="#fff" stroke="#1d1d1b" stroke-linecap="round" stroke-linejoin="round" stroke-width="2"/><path d="M4229.122-1468.292l21.733,9.4s-11.161,32.013,16.74,32.307l2.35,17.328-33.456,1.174,27.875,16.447-10.573,26.138-24.67-4.111h-13.8l-1.175-80.766S4225.3-1449.789,4229.122-1468.292Z" transform="translate(-3059.945 3551.375)" fill="#fff" stroke="#1d1d1b" stroke-linecap="round" stroke-linejoin="round" stroke-width="2"/><line x1="5.463" y2="36.735" transform="translate(1171.083 2145.346)" fill="none" stroke="#1d1d1b" stroke-linecap="round" stroke-linejoin="round" stroke-width="2"/><path d="M3682.874-1455.643l-2.643,44.495-6.167,38.183,26.212,3.448,17.842-40.09s-20.044-11.013-3.083-30.838l6.608-5.507-16.3-17.212S3693.447-1446.831,3682.874-1455.643Z" transform="translate(-3057.765 3551.354)" fill="#fff" stroke="#1d1d1b" stroke-linecap="round" stroke-linejoin="round" stroke-width="2"/><path d="M3595.274-1371.657l-16.392,9.353-20.265-32.894,22.033-9.167" transform="translate(-3057.299 3551.117)" fill="#fff" stroke="#1d1d1b" stroke-linecap="round" stroke-linejoin="round" stroke-width="2"/><path d="M3553.773-1405.127v-40.909s12.982-5.8,14.917-17.126l23.48,8.01s-8.287,31.214,15.745,28.729l7.733,45.854-20.393,8.675L3580.63-1404.6Z" transform="translate(-3057.28 3551.354)" fill="#fff" stroke="#1d1d1b" stroke-linecap="round" stroke-linejoin="round" stroke-width="2"/></g></svg>