<svg xmlns="http://www.w3.org/2000/svg" width="295" height="252" viewBox="0 0 295 252"><g transform="translate(-286 -19462)"><g transform="translate(1 1271)"><rect width="295" height="252" transform="translate(285 18191)" fill="#fff"/></g><g transform="translate(-191.639 19723.676)"><path d="M681.591-46.654l.373,8.58s22.6,1.716,24.768.672,1.045-8.505,1.045-8.505Z" transform="translate(8.123 10.448)" fill="#cce7fa" stroke="#2b2b2b" stroke-linecap="round" stroke-linejoin="round" stroke-width="1"/><path d="M656.907-45.217s.671,7.759-1.269,7.684-22.456.225-23.053,0a5.661,5.661,0,0,0-2.089.084V-48.425Z" transform="translate(5.427 10.354)" fill="#cce7fa" stroke="#2b2b2b" stroke-linecap="round" stroke-linejoin="round" stroke-width="1"/><path d="M584.652-45.866v7.445s18.264,3.532,25.178.5l1.445-6.7-24.921-2.058Z" transform="translate(3.008 10.447)" fill="#cce7fa" stroke="#2b2b2b" stroke-linecap="round" stroke-linejoin="round" stroke-width="1"/><path d="M533.733-45.862c0,.224,0,6.192.97,7.237s4.4,1.977,4.4,1.977l20.739-.933,1.349-7.895s-4.556-2.177-5.228-2.028S533.733-45.862,533.733-45.862Z" transform="translate(0.321 10.403)" fill="#cce7fa" stroke="#2b2b2b" stroke-linecap="round" stroke-linejoin="round" stroke-width="1"/><path d="M537.422-241.039a158.587,158.587,0,0,0,38.048,6.565c20.74.895,34.468-6.565,34.468-6.565l3.879,49.239v45.658s1.641,40.437,1.641,43.869,1.79,57,1.044,60.43-2.089,7.461-2.089,7.461-23.278,1.342-26.261-.6-1.94-8.655-2.09-12.683-.895-32.976-.895-35.513.447-1.193.6-8.356-2.089-17.308-2.089-17.9.3-26.858-2.238-30.589-1.493-11.936-1.493-11.936-3.133-29.1-5.521-28.8-6.416,3.731-5.371,8.207-3.432,34.174-3.432,35.066-1.194,8.951-.746,10.592-1.492,46.255-.6,55.058,0,36.556-2.388,36.556-27.008,1.493-28.8.448-1.342-27.455-1.342-31.334,1.044-47.747,1.044-47.747l.149-68.936,1.939-44.912.746-9.55Z" transform="translate(0.214 0.192)" fill="#d6ebfb" stroke="#2b2b2b" stroke-linecap="round" stroke-linejoin="round" stroke-width="1"/><line y2="53.777" transform="translate(574.407 -234.344)" fill="#cce7fa" stroke="#2b2b2b" stroke-linecap="round" stroke-linejoin="round" stroke-width="1"/><path d="M534.984-231.742s46.133,13.52,75.551,0" transform="translate(0.388 0.682)" fill="none" stroke="#2b2b2b" stroke-linecap="round" stroke-linejoin="round" stroke-width="1"/><path d="M551.828-236.911s-1.492,8.106-1.442,10.892-2.288,2.238-2.288,2.238l-1.94-.2s.914-13.929,2.023-14.2S551.828-236.911,551.828-236.911Z" transform="translate(0.977 0.341)" fill="#cce7fa" stroke="#2b2b2b" stroke-linecap="round" stroke-linejoin="round" stroke-width="1"/><path d="M545.431-227.008l-11.414,29.021s6.416,2.462,6.715,2.462,10.295-12.012,10.295-12.012l3.059-16.413-1.617-3.059" transform="translate(0.337 0.932)" fill="none" stroke="#2b2b2b" stroke-linecap="round" stroke-linejoin="round" stroke-width="1"/><path d="M590.941-236.911s1.492,8.106,1.442,10.892,2.288,2.238,2.288,2.238l1.94-.2s-.913-13.929-2.023-14.2S590.941-236.911,590.941-236.911Z" transform="translate(3.34 0.341)" fill="#cce7fa" stroke="#2b2b2b" stroke-linecap="round" stroke-linejoin="round" stroke-width="1"/><path d="M598.06-227.008l11.414,29.021s-6.416,2.462-6.713,2.462-10.3-12.012-10.3-12.012l-3.059-16.413,1.617-3.059" transform="translate(3.259 0.932)" fill="none" stroke="#2b2b2b" stroke-linecap="round" stroke-linejoin="round" stroke-width="1"/><path d="M579.17-224.463v22.587l-1.89,6.217-4.476,1.144" transform="translate(2.383 1.067)" fill="none" stroke="#2b2b2b" stroke-linecap="round" stroke-linejoin="round" stroke-width="1"/><path d="M562.977-182.72s15.518-4.874,22.382,3.978" transform="translate(1.864 3.198)" fill="none" stroke="#2b2b2b" stroke-linecap="round" stroke-linejoin="round" stroke-width="1"/><path d="M604.458-181.509l.522,39.936s6.341,2.169,9.847.972-.672-24.025-.672-24.025l-.447-5.073-2.611-11.81S604.443-182.576,604.458-181.509Z" transform="translate(4.053 3.308)" fill="#d6ebfb" stroke="#2b2b2b" stroke-linecap="round" stroke-linejoin="round" stroke-width="1"/><path d="M605.024-174s-.148,4.1,8.655,3.879" transform="translate(4.083 3.729)" fill="#cce7fa" stroke="#2b2b2b" stroke-linecap="round" stroke-linejoin="round" stroke-width="1"/><path d="M531.916-181.49l-1.99,12.307.6.9-2.885,27.706s.1,1.838,4.874,1.241a13.559,13.559,0,0,0,7.46-3.283l-1.106-30.35-.286-7.848S533.706-183.751,531.916-181.49Z" transform="translate(0 3.289)" fill="#d6ebfb" stroke="#2b2b2b" stroke-linecap="round" stroke-linejoin="round" stroke-width="1"/><line y1="4.786" x2="7.96" transform="translate(530.921 -169.287)" fill="#cce7fa" stroke="#2b2b2b" stroke-linecap="round" stroke-linejoin="round" stroke-width="1"/><path d="M583.2-132.142s7.958,21.686,7.162,23.476-3.553,0-3.553,0" transform="translate(2.931 5.937)" fill="#cce7fa" stroke="#2b2b2b" stroke-linecap="round" stroke-linejoin="round" stroke-width="1"/><path d="M610.767-79.606c-.017.2-7.378,11.538-14.341,12.732" transform="translate(3.629 8.709)" fill="#cce7fa" stroke="#2b2b2b" stroke-linecap="round" stroke-linejoin="round" stroke-width="1"/><path d="M606.382-37.949l-.7-7.262.7-13.23" transform="translate(4.118 9.826)" fill="#cce7fa" stroke="#2b2b2b" stroke-linecap="round" stroke-linejoin="round" stroke-width="1"/><path d="M588.017-38.646l1.365-5.334s-.272-7.6,1.22-10.68" transform="translate(3.186 10.025)" fill="#cce7fa" stroke="#2b2b2b" stroke-linecap="round" stroke-linejoin="round" stroke-width="1"/><path d="M597.951-39.825s-.6-7.859,0-9.451" transform="translate(3.696 10.31)" fill="#cce7fa" stroke="#2b2b2b" stroke-linecap="round" stroke-linejoin="round" stroke-width="1"/><path d="M555.27-38.532c0-.4-.7-6.864-.7-6.864s-.7-10.842-1.989-11.439" transform="translate(1.316 9.911)" fill="#cce7fa" stroke="#2b2b2b" stroke-linecap="round" stroke-linejoin="round" stroke-width="1"/><path d="M538.759-39.342s-.5-17.607-1.294-19.1" transform="translate(0.518 9.826)" fill="#cce7fa" stroke="#2b2b2b" stroke-linecap="round" stroke-linejoin="round" stroke-width="1"/><path d="M546.392-39.82s.9-8.058-.895-9.55" transform="translate(0.942 10.305)" fill="#cce7fa" stroke="#2b2b2b" stroke-linecap="round" stroke-linejoin="round" stroke-width="1"/><path d="M533.733-115.039s7.609,23.426,7.759,27.156-.4,0-3.183-2.686" transform="translate(0.321 6.84)" fill="#cce7fa" stroke="#2b2b2b" stroke-linecap="round" stroke-linejoin="round" stroke-width="1"/><path d="M565.655-158.976s-12.235,23.824-11.937,28.25" transform="translate(1.376 4.522)" fill="#cce7fa" stroke="#2b2b2b" stroke-linecap="round" stroke-linejoin="round" stroke-width="1"/><path d="M633.973-240.927,628.6-178.755v86.093S626.811-52.474,626.811-47s0,9.152,3.582,10.694,26.658,3.531,27.852,1.939,1.99-19.1,1.99-19.1v-49.34l.8-23.476L667-175.623s1.194-6.312,4.576-2.658,1.194,6.059,2.387,11.818,1.99,23.069,3.184,26.054,3.383,11.937,3.383,15.12-.6,23.078,0,24.868,1.591,23.277,1.591,25.067-.795,36.308.8,39.044,26.659,3.531,28.251,1.939,3.78-11.14,3.184-15.518.6-25.067.1-27.057-3.284-46.553-3.085-53.317-.6-59.286-.6-59.286l-3.184-51.378S658.045-245.951,633.973-240.927Z" transform="translate(5.232 0.08)" fill="#d6ebfb" stroke="#2b2b2b" stroke-linecap="round" stroke-linejoin="round" stroke-width="1"/><path d="M630.264-181.465h4.974s.795,38.619,0,39.851-10.644,3.42-11.34,1.531,0-7.063,0-7.063l2.388-21.785-.995-.895S626.086-179.972,630.264-181.465Z" transform="translate(5.062 3.335)" fill="#d6ebfb" stroke="#2b2b2b" stroke-linecap="round" stroke-linejoin="round" stroke-width="1"/><path d="M626.575-169.2s4.869-.645,6.764-2.337,1.875-2.937,1.875-2.937" transform="translate(5.22 3.704)" fill="#cce7fa" stroke="#2b2b2b" stroke-linecap="round" stroke-linejoin="round" stroke-width="1"/><path d="M701.365-181.45s-.014,1.775-.028,4.575c-.054,10.263-.12,34.307.426,35.276.7,1.232,10.245,2.63,10.942.985s-2.686-29-2.686-29l1.393-.2s-2.755-10.942-4.362-11.639S701.365-181.45,701.365-181.45Z" transform="translate(9.163 3.32)" fill="#d6ebfb" stroke="#2b2b2b" stroke-linecap="round" stroke-linejoin="round" stroke-width="1"/><path d="M709.122-170.459s-4.476-.594-5.272-1.239-2.515-5.421-2.515-5.421" transform="translate(9.164 3.564)" fill="#cce7fa" stroke="#2b2b2b" stroke-linecap="round" stroke-linejoin="round" stroke-width="1"/><path d="M656.008-182.981s19.7,1.044,26.41-1.791" transform="translate(6.773 3.161)" fill="#cce7fa" stroke="#2b2b2b" stroke-linecap="round" stroke-linejoin="round" stroke-width="1"/><path d="M632.933-233.065s58.71-3.882,74.427,0" transform="translate(5.555 0.522)" fill="#cce7fa" stroke="#2b2b2b" stroke-linecap="round" stroke-linejoin="round" stroke-width="1"/><path d="M667.169-244.677s-1.068,13.975,1.406,14.324,2.821-.4,2.821-.4l-.646-13.926Z" transform="translate(7.35 0)" fill="#cce7fa" stroke="#2b2b2b" stroke-linecap="round" stroke-linejoin="round" stroke-width="1"/><path d="M699.614-242.044s.646,8.1.5,9.4a24.468,24.468,0,0,1-.5,2.688s2.885,2.288,3.432,2.288,1.5-7.971,1.144-9.9S703.941-244.58,699.614-242.044Z" transform="translate(9.073 0.102)" fill="#cce7fa" stroke="#2b2b2b" stroke-linecap="round" stroke-linejoin="round" stroke-width="1"/><path d="M637.586-242.044s-.646,8.1-.5,9.4a24.607,24.607,0,0,0,.5,2.688s-2.885,2.288-3.431,2.288-1.5-7.971-1.144-9.9S633.259-244.58,637.586-242.044Z" transform="translate(5.555 0.102)" fill="#cce7fa" stroke="#2b2b2b" stroke-linecap="round" stroke-linejoin="round" stroke-width="1"/><path d="M639.155-225.133s-.6,7.41,0,7.41,10.892,2.735,10.892,2.735l11.34-2.885v-7.908Z" transform="translate(5.87 0.997)" fill="#cce7fa" stroke="#2b2b2b" stroke-linecap="round" stroke-linejoin="round" stroke-width="1"/><line x2="21.685" transform="translate(645.273 -220.256)" fill="#cce7fa" stroke="#2b2b2b" stroke-linecap="round" stroke-linejoin="round" stroke-width="1"/><line y1="8.702" x2="0.464" transform="translate(655.544 -233.484)" fill="#cce7fa" stroke="#2b2b2b" stroke-linecap="round" stroke-linejoin="round" stroke-width="1"/><path d="M700.476-225.133s.6,7.41,0,7.41-10.892,2.735-10.892,2.735l-11.34-2.885v-7.908Z" transform="translate(7.946 0.997)" fill="#cce7fa" stroke="#2b2b2b" stroke-linecap="round" stroke-linejoin="round" stroke-width="1"/><line x1="21.685" transform="translate(686.489 -220.256)" fill="#cce7fa" stroke="#2b2b2b" stroke-linecap="round" stroke-linejoin="round" stroke-width="1"/><line x1="0.464" y1="8.702" transform="translate(697.439 -233.484)" fill="#cce7fa" stroke="#2b2b2b" stroke-linecap="round" stroke-linejoin="round" stroke-width="1"/><line x1="0.816" y2="50.628" transform="translate(675.702 -230.26)" fill="#cce7fa" stroke="#2b2b2b" stroke-linecap="round" stroke-linejoin="round" stroke-width="1"/><path d="M692.008-186.449s9.059-5.222,12.661-8.953" transform="translate(8.672 2.6)" fill="#cce7fa" stroke="#2b2b2b" stroke-linecap="round" stroke-linejoin="round" stroke-width="1"/><path d="M647.526-186.36s-12.774-7.012-14.593-10.742" transform="translate(5.555 2.51)" fill="#cce7fa" stroke="#2b2b2b" stroke-linecap="round" stroke-linejoin="round" stroke-width="1"/><path d="M630.118-129.024s10.147,8.655,14.921,10.247-6.863-.8-6.863-.8" transform="translate(5.407 6.102)" fill="#cce7fa" stroke="#2b2b2b" stroke-linecap="round" stroke-linejoin="round" stroke-width="1"/><path d="M706.683-122.126s-11.042,5.371-9.948,5.869,4.277,0,4.277,0" transform="translate(8.918 6.466)" fill="#cce7fa" stroke="#2b2b2b" stroke-linecap="round" stroke-linejoin="round" stroke-width="1"/><path d="M702.283-39.923v-3.059l2.089-15.294" transform="translate(9.214 9.835)" fill="#cce7fa" stroke="#2b2b2b" stroke-linecap="round" stroke-linejoin="round" stroke-width="1"/><path d="M685.205-39.132l1.427-5.148s-.307-8.058.886-10.594" transform="translate(8.313 10.014)" fill="#cce7fa" stroke="#2b2b2b" stroke-linecap="round" stroke-linejoin="round" stroke-width="1"/><path d="M694.848-39.439s-.224-8.058,0-9.624" transform="translate(8.817 10.321)" fill="#cce7fa" stroke="#2b2b2b" stroke-linecap="round" stroke-linejoin="round" stroke-width="1"/><path d="M652.3-39.072l-1.419-4.6s-.52-11.212-.969-12.331" transform="translate(6.451 9.954)" fill="#cce7fa" stroke="#2b2b2b" stroke-linecap="round" stroke-linejoin="round" stroke-width="1"/><path d="M635.05-40.6l.311-4.339L634.677-58.2" transform="translate(5.647 9.838)" fill="#cce7fa" stroke="#2b2b2b" stroke-linecap="round" stroke-linejoin="round" stroke-width="1"/><path d="M642.543-39.771c.075-.3,1.2-4.645,1.2-4.645a49.817,49.817,0,0,0-1.2-5.427" transform="translate(6.062 10.28)" fill="#cce7fa" stroke="#2b2b2b" stroke-linecap="round" stroke-linejoin="round" stroke-width="1"/><path d="M708.275-91.654s-4.029,18.2-5,19.1" transform="translate(9.267 8.074)" fill="#cce7fa" stroke="#2b2b2b" stroke-linecap="round" stroke-linejoin="round" stroke-width="1"/><path d="M634.9-76.649s-4.252-27.9-4.4-30.737" transform="translate(5.427 7.244)" fill="#cce7fa" stroke="#2b2b2b" stroke-linecap="round" stroke-linejoin="round" stroke-width="1"/></g></g></svg>