<svg xmlns="http://www.w3.org/2000/svg" width="295" height="296" viewBox="0 0 295 296"><g transform="translate(-1020 -15028)"><path d="M0,0H5V28H0Z" transform="translate(1020 15028)" fill="#339be8"/><path d="M2.647-9.242,5.668-1.7,8.69-9.242h1.581V0H9.052V-3.6l.114-3.885L6.132,0H5.2L2.171-7.465,2.292-3.6V0H1.073V-9.242ZM15.088.127A3,3,0,0,1,12.816-.79a3.4,3.4,0,0,1-.876-2.453v-.216a4.121,4.121,0,0,1,.39-1.825,3.045,3.045,0,0,1,1.092-1.257A2.745,2.745,0,0,1,14.942-7a2.572,2.572,0,0,1,2.082.882,3.82,3.82,0,0,1,.743,2.526V-3.1H13.114a2.441,2.441,0,0,0,.594,1.641,1.866,1.866,0,0,0,1.444.625,2.045,2.045,0,0,0,1.054-.254,2.648,2.648,0,0,0,.755-.673l.717.559A2.884,2.884,0,0,1,15.088.127ZM14.942-6.03a1.566,1.566,0,0,0-1.193.517,2.515,2.515,0,0,0-.6,1.45h3.44v-.089a2.237,2.237,0,0,0-.482-1.387A1.475,1.475,0,0,0,14.942-6.03Zm3.9,2.539a4.023,4.023,0,0,1,.749-2.542A2.369,2.369,0,0,1,21.55-7a2.382,2.382,0,0,1,1.911.825V-9.75h1.174V0H23.556L23.5-.736a2.391,2.391,0,0,1-1.961.863,2.346,2.346,0,0,1-1.946-.978A4.069,4.069,0,0,1,18.84-3.4Zm1.174.133A3.046,3.046,0,0,0,20.5-1.53a1.56,1.56,0,0,0,1.333.66,1.713,1.713,0,0,0,1.631-1V-5.027A1.726,1.726,0,0,0,21.842-6a1.567,1.567,0,0,0-1.346.667A3.354,3.354,0,0,0,20.014-3.358ZM27.733,0H26.559V-6.868h1.174Zm-1.27-8.69a.7.7,0,0,1,.175-.482.655.655,0,0,1,.517-.2.666.666,0,0,1,.521.2.694.694,0,0,1,.178.482.671.671,0,0,1-.178.476.678.678,0,0,1-.521.19.667.667,0,0,1-.517-.19A.678.678,0,0,1,26.463-8.69Zm2.863,5.2a4.023,4.023,0,0,1,.749-2.542A2.369,2.369,0,0,1,32.037-7a2.382,2.382,0,0,1,1.911.825V-9.75h1.174V0H34.042l-.057-.736a2.391,2.391,0,0,1-1.961.863,2.346,2.346,0,0,1-1.946-.978A4.069,4.069,0,0,1,29.326-3.4Zm1.174.133a3.046,3.046,0,0,0,.482,1.828,1.56,1.56,0,0,0,1.333.66,1.713,1.713,0,0,0,1.631-1V-5.027A1.726,1.726,0,0,0,32.329-6a1.567,1.567,0,0,0-1.346.667A3.354,3.354,0,0,0,30.5-3.358ZM41.184,0a2.467,2.467,0,0,1-.165-.724,2.62,2.62,0,0,1-1.955.851A2.424,2.424,0,0,1,37.4-.448,1.859,1.859,0,0,1,36.747-1.9a1.942,1.942,0,0,1,.816-1.666,3.846,3.846,0,0,1,2.295-.594H41V-4.7a1.319,1.319,0,0,0-.368-.981,1.48,1.48,0,0,0-1.085-.365,1.712,1.712,0,0,0-1.054.317.935.935,0,0,0-.425.768H36.886a1.621,1.621,0,0,1,.365-.993,2.491,2.491,0,0,1,.99-.759A3.331,3.331,0,0,1,39.616-7a2.715,2.715,0,0,1,1.86.594,2.141,2.141,0,0,1,.7,1.635v3.161a3.865,3.865,0,0,0,.241,1.5V0ZM39.235-.9a2.064,2.064,0,0,0,1.047-.286A1.728,1.728,0,0,0,41-1.923V-3.333h-.92q-2.158,0-2.158,1.263a1.069,1.069,0,0,0,.368.863A1.415,1.415,0,0,0,39.235-.9Zm7.712-2.6A4.023,4.023,0,0,1,47.7-6.033,2.369,2.369,0,0,1,49.658-7a2.382,2.382,0,0,1,1.911.825V-9.75h1.174V0H51.664l-.057-.736a2.391,2.391,0,0,1-1.961.863A2.346,2.346,0,0,1,47.7-.851,4.069,4.069,0,0,1,46.947-3.4Zm1.174.133A3.046,3.046,0,0,0,48.6-1.53a1.56,1.56,0,0,0,1.333.66,1.713,1.713,0,0,0,1.631-1V-5.027A1.726,1.726,0,0,0,49.95-6a1.567,1.567,0,0,0-1.346.667A3.354,3.354,0,0,0,48.122-3.358ZM57.415.127A3,3,0,0,1,55.142-.79a3.4,3.4,0,0,1-.876-2.453v-.216a4.121,4.121,0,0,1,.39-1.825,3.045,3.045,0,0,1,1.092-1.257A2.745,2.745,0,0,1,57.269-7a2.572,2.572,0,0,1,2.082.882,3.82,3.82,0,0,1,.743,2.526V-3.1H55.44a2.441,2.441,0,0,0,.594,1.641,1.866,1.866,0,0,0,1.444.625,2.045,2.045,0,0,0,1.054-.254,2.648,2.648,0,0,0,.755-.673L60-1.2A2.884,2.884,0,0,1,57.415.127ZM57.269-6.03a1.566,1.566,0,0,0-1.193.517,2.515,2.515,0,0,0-.6,1.45h3.44v-.089a2.237,2.237,0,0,0-.482-1.387A1.475,1.475,0,0,0,57.269-6.03Zm10.156,5.2a1.691,1.691,0,0,0,1.1-.381,1.34,1.34,0,0,0,.521-.952h1.111a2.13,2.13,0,0,1-.406,1.124,2.676,2.676,0,0,1-1,.851,2.885,2.885,0,0,1-1.323.317,2.829,2.829,0,0,1-2.231-.936,3.729,3.729,0,0,1-.828-2.561v-.2a4.135,4.135,0,0,1,.368-1.784A2.8,2.8,0,0,1,65.79-6.563,3,3,0,0,1,67.418-7a2.755,2.755,0,0,1,1.92.692,2.473,2.473,0,0,1,.816,1.8H69.043a1.618,1.618,0,0,0-.5-1.095,1.57,1.57,0,0,0-1.12-.428,1.644,1.644,0,0,0-1.387.644,3.026,3.026,0,0,0-.492,1.863V-3.3a2.966,2.966,0,0,0,.489,1.828A1.651,1.651,0,0,0,67.425-.832ZM71.164-3.5a4.057,4.057,0,0,1,.4-1.815,2.96,2.96,0,0,1,1.1-1.244A3.007,3.007,0,0,1,74.28-7a2.9,2.9,0,0,1,2.269.971,3.736,3.736,0,0,1,.866,2.583v.083a4.092,4.092,0,0,1-.384,1.8,2.916,2.916,0,0,1-1.1,1.241,3.041,3.041,0,0,1-1.641.444A2.889,2.889,0,0,1,72.03-.844a3.718,3.718,0,0,1-.866-2.571Zm1.181.14a2.938,2.938,0,0,0,.53,1.834,1.7,1.7,0,0,0,1.419.692,1.686,1.686,0,0,0,1.422-.7A3.213,3.213,0,0,0,76.242-3.5a2.933,2.933,0,0,0-.536-1.831,1.705,1.705,0,0,0-1.425-.7,1.686,1.686,0,0,0-1.4.692A3.189,3.189,0,0,0,72.344-3.358ZM80-6.868,80.038-6A2.5,2.5,0,0,1,82.094-7q2.177,0,2.2,2.457V0H83.116V-4.545a1.581,1.581,0,0,0-.34-1.1A1.361,1.361,0,0,0,81.739-6a1.7,1.7,0,0,0-1,.3,2.069,2.069,0,0,0-.673.8V0H78.889V-6.868Zm7.655-1.663v1.663h1.282v.908H87.655V-1.7a.951.951,0,0,0,.171.619.722.722,0,0,0,.584.206,2.843,2.843,0,0,0,.559-.076V0a3.4,3.4,0,0,1-.9.127A1.462,1.462,0,0,1,86.88-.349a2.045,2.045,0,0,1-.4-1.352V-5.96H85.23v-.908h1.25V-8.531ZM89.87-3.5a4.057,4.057,0,0,1,.4-1.815,2.96,2.96,0,0,1,1.1-1.244A3.007,3.007,0,0,1,92.987-7a2.9,2.9,0,0,1,2.269.971,3.736,3.736,0,0,1,.866,2.583v.083a4.092,4.092,0,0,1-.384,1.8,2.916,2.916,0,0,1-1.1,1.241A3.041,3.041,0,0,1,93,.127a2.889,2.889,0,0,1-2.263-.971,3.718,3.718,0,0,1-.866-2.571Zm1.181.14a2.938,2.938,0,0,0,.53,1.834A1.7,1.7,0,0,0,93-.832a1.686,1.686,0,0,0,1.422-.7A3.213,3.213,0,0,0,94.948-3.5a2.933,2.933,0,0,0-.536-1.831,1.705,1.705,0,0,0-1.425-.7,1.686,1.686,0,0,0-1.4.692A3.189,3.189,0,0,0,91.051-3.358Zm9.864-2.457a3.519,3.519,0,0,0-.578-.044,1.547,1.547,0,0,0-1.568.984V0H97.6V-6.868h1.143l.019.793A1.829,1.829,0,0,1,100.395-7a1.2,1.2,0,0,1,.521.089Zm2.19-1.054.038.863A2.5,2.5,0,0,1,105.2-7q2.177,0,2.2,2.457V0h-1.174V-4.545a1.581,1.581,0,0,0-.34-1.1A1.361,1.361,0,0,0,104.844-6a1.7,1.7,0,0,0-1,.3,2.069,2.069,0,0,0-.673.8V0h-1.174V-6.868ZM108.856-3.5a4.057,4.057,0,0,1,.4-1.815,2.96,2.96,0,0,1,1.1-1.244A3.007,3.007,0,0,1,111.973-7a2.9,2.9,0,0,1,2.269.971,3.736,3.736,0,0,1,.866,2.583v.083a4.092,4.092,0,0,1-.384,1.8,2.916,2.916,0,0,1-1.1,1.241,3.041,3.041,0,0,1-1.641.444,2.889,2.889,0,0,1-2.263-.971,3.718,3.718,0,0,1-.866-2.571Zm1.181.14a2.938,2.938,0,0,0,.53,1.834,1.7,1.7,0,0,0,1.419.692,1.686,1.686,0,0,0,1.422-.7,3.213,3.213,0,0,0,.527-1.965,2.933,2.933,0,0,0-.536-1.831,1.705,1.705,0,0,0-1.425-.7,1.686,1.686,0,0,0-1.4.692A3.189,3.189,0,0,0,110.037-3.358Zm9.477-.133a4.023,4.023,0,0,1,.749-2.542A2.369,2.369,0,0,1,122.224-7a2.382,2.382,0,0,1,1.911.825V-9.75h1.174V0H124.23l-.057-.736a2.391,2.391,0,0,1-1.961.863,2.346,2.346,0,0,1-1.946-.978,4.069,4.069,0,0,1-.752-2.552Zm1.174.133a3.046,3.046,0,0,0,.482,1.828,1.56,1.56,0,0,0,1.333.66,1.713,1.713,0,0,0,1.631-1V-5.027A1.726,1.726,0,0,0,122.516-6a1.567,1.567,0,0,0-1.346.667A3.354,3.354,0,0,0,120.688-3.358ZM129.981.127a3,3,0,0,1-2.272-.917,3.4,3.4,0,0,1-.876-2.453v-.216a4.121,4.121,0,0,1,.39-1.825,3.045,3.045,0,0,1,1.092-1.257A2.745,2.745,0,0,1,129.835-7a2.572,2.572,0,0,1,2.082.882,3.82,3.82,0,0,1,.743,2.526V-3.1h-4.653a2.441,2.441,0,0,0,.594,1.641,1.866,1.866,0,0,0,1.444.625,2.045,2.045,0,0,0,1.054-.254,2.647,2.647,0,0,0,.755-.673l.717.559A2.884,2.884,0,0,1,129.981.127Zm-.146-6.157a1.566,1.566,0,0,0-1.193.517,2.515,2.515,0,0,0-.6,1.45h3.44v-.089A2.237,2.237,0,0,0,131-5.538,1.475,1.475,0,0,0,129.835-6.03Zm13.2,2.672a4.112,4.112,0,0,1-.717,2.526,2.3,2.3,0,0,1-1.942.958,2.519,2.519,0,0,1-1.968-.793V2.641h-1.174V-6.868h1.073l.057.762A2.419,2.419,0,0,1,140.359-7a2.342,2.342,0,0,1,1.958.933,4.157,4.157,0,0,1,.72,2.6Zm-1.174-.133a3.035,3.035,0,0,0-.5-1.834A1.6,1.6,0,0,0,140.01-6a1.726,1.726,0,0,0-1.6.946v3.282a1.73,1.73,0,0,0,1.612.939,1.587,1.587,0,0,0,1.343-.67A3.312,3.312,0,0,0,141.864-3.491ZM145.806,0h-1.174V-6.868h1.174Zm-1.27-8.69a.7.7,0,0,1,.175-.482.655.655,0,0,1,.517-.2.666.666,0,0,1,.521.2.694.694,0,0,1,.178.482.671.671,0,0,1-.178.476.678.678,0,0,1-.521.19.667.667,0,0,1-.517-.19A.678.678,0,0,1,144.536-8.69Zm6,8.817a3,3,0,0,1-2.272-.917,3.4,3.4,0,0,1-.876-2.453v-.216a4.121,4.121,0,0,1,.39-1.825,3.045,3.045,0,0,1,1.092-1.257A2.745,2.745,0,0,1,150.389-7a2.572,2.572,0,0,1,2.082.882,3.82,3.82,0,0,1,.743,2.526V-3.1h-4.653a2.441,2.441,0,0,0,.594,1.641,1.866,1.866,0,0,0,1.444.625,2.045,2.045,0,0,0,1.054-.254,2.647,2.647,0,0,0,.755-.673l.717.559A2.884,2.884,0,0,1,150.535.127Zm-.146-6.157a1.566,1.566,0,0,0-1.193.517,2.515,2.515,0,0,0-.6,1.45h3.44v-.089a2.237,2.237,0,0,0-.482-1.387A1.475,1.475,0,0,0,150.389-6.03ZM154.6-.616a.735.735,0,0,1,.181-.508.689.689,0,0,1,.543-.2.71.71,0,0,1,.549.2.721.721,0,0,1,.187.508.682.682,0,0,1-.187.489.723.723,0,0,1-.549.2.7.7,0,0,1-.543-.2A.7.7,0,0,1,154.6-.616Z" transform="translate(1037 15047)" fill="#12263f"/><g transform="translate(163.258 14607.257)"><ellipse cx="115" cy="10" rx="115" ry="10" transform="translate(904.742 696.743)" fill="#e8e8e8"/><path d="M1005.922,469.37s30.588,69.656,43,82.982,17.3,13.023,29.852,23.319,17.393,12.418,15.273,25.138-4.845,21.8-25.44,40.279-3.331,35.737-3.331,36.646,9.994,24.228-2.423,33.919-37.4,6.852-38.311,6.511-9.427,3.18-12.152,2.272-14.423-4.2-14.764-11.471,3.748-7.5,3.748-7.5l10.334-.568s18.172-3.067,16.695-9.54-3.293-13.173-3.293-13.173-11.774-37.554-14.954-55.271-4.846-27.106-8.782-33.465c-3.382-5.463-53.246-84-73.655-108.845-3.145-3.829-9.347-10.1-10.735-10.677" transform="translate(-9.51 -7.066)" fill="#afafaf" stroke="#000" stroke-miterlimit="10" stroke-width="1"/><path d="M1105.682,610.87c3.824,3.307,6.062,6,6.8,9.873.307.113.594.226.847.336-4.8,2.609-20.318,6.677-45.625,7.727-22.221.923-37.111-1.1-43.8-3.1a1.02,1.02,0,0,1-.651-.2q-.967-.315-1.66-.621c.312-.169.672-.345,1.075-.526a32.128,32.128,0,0,0-3.063-6.789,3.569,3.569,0,0,1-.235-.475c-4.889,2.256-7.105,4.9-6.97,8.172.212,5.1,5.963,8.221,18.65,10.122a180.976,180.976,0,0,0,25.973,1.654c3.583,0,7.269-.076,11.008-.232,13.883-.576,26.931-2.166,36.737-4.478,12.485-2.943,17.959-6.531,17.748-11.631C1122.316,615.851,1117.095,612.793,1105.682,610.87Z" transform="translate(-27.736 -31.899)" fill="#0ac4bf"/><path d="M856.742,462.3h295" fill="none" stroke="#707070" stroke-width="3"/></g></g></svg>