<svg xmlns="http://www.w3.org/2000/svg" width="610" height="217" viewBox="0 0 610 217"><g transform="translate(-495 -18968)"><rect width="610" height="217" transform="translate(495 18968)" fill="#fff"/><g transform="translate(-44 -60)"><g transform="translate(545.98 18715.883)"><path d="M479.787,325.37l59.15,156.85s-163.276,46.489-310.11,32.315-171.213-29.48-171.213-29.48l5.1-78.236s147.4,13.606,276.094-27.213S479.787,325.37,479.787,325.37Z" fill="none" stroke="#f4b5b9" stroke-miterlimit="10" stroke-width="1"/><path d="M470.284,351.183l44.737,118.632c-13.432,3.282-33.3,7.806-57.371,12.3-41.833,7.806-105.3,17.111-170.108,17.111-19.906,0-39.079-.877-56.986-2.605-95.239-9.193-137.238-18.7-154.112-23.7l3.063-46.96c10.637.533,25.449,1.04,43.331,1.04,57.526,0,142.636-5.245,221.415-30.232,53.99-17.125,94.557-31.631,120.575-43.116q2.93-1.293,5.456-2.465" fill="none" stroke="#222" stroke-miterlimit="10" stroke-width="1" stroke-dasharray="3"/><path d="M479.787,325.37S467.5,338.787,338.811,379.606C261.591,404.1,177.644,409,122.838,409c-36.532,0-60.122-2.177-60.122-2.177l-5.1,78.236s24.378,15.307,171.213,29.48c19.43,1.876,39.125,2.689,58.714,2.689,128.45,0,251.4-35,251.4-35l-59.15-156.85Z" fill="none" stroke="#222" stroke-miterlimit="10" stroke-width="1"/><circle cx="1.594" cy="1.594" r="1.594" transform="translate(61.335 404.941)" fill="#222"/><circle cx="1.594" cy="1.594" r="1.594" transform="translate(56.02 483.413)" fill="#222"/><circle cx="1.594" cy="1.594" r="1.594" transform="translate(217.524 402.177)" fill="#222"/><circle cx="1.594" cy="1.594" r="1.594" transform="translate(226.807 512.857)" fill="#222"/><circle cx="1.594" cy="1.594" r="1.594" transform="translate(338.075 377.799)" fill="#222"/><circle cx="1.594" cy="1.594" r="1.594" transform="translate(478.11 324.118)" fill="#222"/><circle cx="1.594" cy="1.594" r="1.594" transform="translate(487.89 349.588)" fill="#222"/><circle cx="1.594" cy="1.594" r="1.594" transform="translate(537.094 480.543)" fill="#222"/><path d="M292.606,437.858v52.016l2.268-4.961" fill="none" stroke="#222" stroke-miterlimit="10" stroke-width="1"/><path d="M8.477-3.158A3.662,3.662,0,0,1,7.311-.721,3.82,3.82,0,0,1,4.7.137,3.507,3.507,0,0,1,1.876-1.128,5.088,5.088,0,0,1,.813-4.512v-.957a5.671,5.671,0,0,1,.5-2.44,3.7,3.7,0,0,1,1.4-1.617,3.911,3.911,0,0,1,2.105-.564A3.6,3.6,0,0,1,7.362-9.2,3.706,3.706,0,0,1,8.477-6.754H7.157a2.847,2.847,0,0,0-.742-1.723,2.248,2.248,0,0,0-1.6-.533,2.349,2.349,0,0,0-1.972.93,4.265,4.265,0,0,0-.714,2.646v.964A4.384,4.384,0,0,0,2.81-1.894,2.187,2.187,0,0,0,4.7-.937a2.526,2.526,0,0,0,1.678-.5,2.75,2.75,0,0,0,.776-1.726Zm1.258-.608a4.369,4.369,0,0,1,.427-1.955,3.187,3.187,0,0,1,1.189-1.34,3.238,3.238,0,0,1,1.74-.472,3.119,3.119,0,0,1,2.444,1.046,4.024,4.024,0,0,1,.933,2.782v.089a4.407,4.407,0,0,1-.414,1.938A3.14,3.14,0,0,1,14.872-.342,3.275,3.275,0,0,1,13.1.137,3.111,3.111,0,0,1,10.667-.909a4,4,0,0,1-.933-2.769Zm1.271.15a3.164,3.164,0,0,0,.571,1.976A1.827,1.827,0,0,0,13.1-.9a1.816,1.816,0,0,0,1.531-.755A3.46,3.46,0,0,0,15.2-3.767a3.159,3.159,0,0,0-.578-1.972,1.836,1.836,0,0,0-1.535-.755,1.816,1.816,0,0,0-1.511.745A3.434,3.434,0,0,0,11.006-3.616ZM19.77-9.187V-7.4H21.15v.978H19.77v4.587a1.024,1.024,0,0,0,.185.667.777.777,0,0,0,.629.222,3.062,3.062,0,0,0,.6-.082V0a3.666,3.666,0,0,1-.971.137,1.575,1.575,0,0,1-1.278-.513A2.2,2.2,0,0,1,18.5-1.832V-6.419H17.158V-7.4H18.5V-9.187ZM24,0H22.736V-7.4H24ZM22.634-9.358a.755.755,0,0,1,.188-.52.706.706,0,0,1,.557-.212.717.717,0,0,1,.561.212.747.747,0,0,1,.191.52.722.722,0,0,1-.191.513.73.73,0,0,1-.561.205.718.718,0,0,1-.557-.205A.73.73,0,0,1,22.634-9.358ZM27.4,0H26.134V-10.5H27.4Zm3.4,0H29.531V-10.5H30.8Zm6.59,0a2.657,2.657,0,0,1-.178-.779A2.822,2.822,0,0,1,35.1.137a2.611,2.611,0,0,1-1.794-.619,2,2,0,0,1-.7-1.569,2.091,2.091,0,0,1,.878-1.794,4.142,4.142,0,0,1,2.471-.639h1.23v-.581a1.42,1.42,0,0,0-.4-1.056,1.593,1.593,0,0,0-1.169-.393,1.844,1.844,0,0,0-1.135.342,1.007,1.007,0,0,0-.458.827H32.758a1.745,1.745,0,0,1,.393-1.07,2.683,2.683,0,0,1,1.066-.817,3.588,3.588,0,0,1,1.48-.3,2.924,2.924,0,0,1,2,.639,2.306,2.306,0,0,1,.752,1.76v3.4a4.162,4.162,0,0,0,.26,1.62V0Zm-2.1-.964a2.223,2.223,0,0,0,1.128-.308,1.861,1.861,0,0,0,.772-.8V-3.589H36.2q-2.324,0-2.324,1.36a1.151,1.151,0,0,0,.4.93A1.524,1.524,0,0,0,35.287-.964Z" transform="translate(248.01 465.213)" fill="#161615"/></g></g></g></svg>