<svg xmlns="http://www.w3.org/2000/svg" width="714.753" height="976.22" viewBox="0 0 714.753 976.22"><g transform="translate(7136.018 -5603.086)"><rect width="714.753" height="976.22" transform="translate(-7136.018 5603.086)" fill="#fff"/><path d="M-6635.952,6177.226l-12.389,396.29H-6873.98l-14-396.12-20.706-309.225" fill="none" stroke="#7a1d47" stroke-miterlimit="10" stroke-width="1.796"/><path d="M-6677.448,5867.662h41.326v1.563" fill="none" stroke="#7a1d47" stroke-miterlimit="10" stroke-width="1.796"/><path d="M-6862.015,5642.872h184.567v183.04" fill="none" stroke="#7a1d47" stroke-miterlimit="10" stroke-width="1.796"/><path d="M-6681.992,5867.662" fill="none" stroke="#7a1d47" stroke-miterlimit="10" stroke-width="1.796"/><line x1="234.878" transform="translate(-6908.688 5867.662)" fill="none" stroke="#7a1d47" stroke-miterlimit="10" stroke-width="1.796"/><path d="M-6941.782,5642.872" fill="none" stroke="#7a1d47" stroke-miterlimit="10" stroke-width="1.796"/><path d="M-6706.693,5616.845" fill="none" stroke="#7a1d47" stroke-miterlimit="10" stroke-width="1.796"/><path d="M-6857.5,6573.516l-12.537-397.435-15.911-308.419c2.036-107.431,23.93-224.79,23.93-224.79l175.911,7.976,8.656,174.173" fill="none" stroke="#7a1d47" stroke-linecap="round" stroke-linejoin="round" stroke-width="1.796"/><path d="M-6887.982,6177.4l17.947-1.315h216.771l17.311,1.146" fill="none" stroke="#7a1d47" stroke-linecap="round" stroke-linejoin="round" stroke-width="1.796"/><path d="M-6762.476,5867.662v705.854" fill="none" stroke="#7a1d47" stroke-linecap="round" stroke-linejoin="round" stroke-width="1.796"/><path d="M-6666.925,6573.516l13.662-397.435s3.03-186.78,17.141-308.419" fill="none" stroke="#7a1d47" stroke-linecap="round" stroke-linejoin="round" stroke-width="1.796"/><path d="M-6601.839,5876.318" fill="none" stroke="#7a1d47" stroke-linecap="round" stroke-linejoin="round" stroke-width="1.796"/><path d="M-6685.34,5833.665" fill="none" stroke="#7a1d47" stroke-linecap="round" stroke-linejoin="round" stroke-width="1.796"/><path d="M9.836-3.7A4.107,4.107,0,0,1,8.492-.863,4.581,4.581,0,0,1,5.375.156,4.436,4.436,0,0,1,2.98-.488a4.231,4.231,0,0,1-1.6-1.832A6.611,6.611,0,0,1,.8-5.078V-6.141a6.659,6.659,0,0,1,.57-2.836A4.3,4.3,0,0,1,3-10.867a4.566,4.566,0,0,1,2.465-.664A4.386,4.386,0,0,1,8.5-10.508,4.276,4.276,0,0,1,9.836-7.617H7.867a2.81,2.81,0,0,0-.715-1.77A2.363,2.363,0,0,0,5.469-9.93a2.309,2.309,0,0,0-1.98.941,4.7,4.7,0,0,0-.707,2.762v1.008a4.988,4.988,0,0,0,.66,2.813,2.191,2.191,0,0,0,1.934.969,2.555,2.555,0,0,0,1.75-.523A2.729,2.729,0,0,0,7.867-3.7Zm3.6,3.7h-1.9V-8.453h1.9ZM11.422-10.648a1.008,1.008,0,0,1,.277-.727,1.048,1.048,0,0,1,.793-.289,1.061,1.061,0,0,1,.8.289,1,1,0,0,1,.281.727.977.977,0,0,1-.281.715,1.069,1.069,0,0,1-.8.285,1.056,1.056,0,0,1-.793-.285A.984.984,0,0,1,11.422-10.648Zm5.844,2.2.055.977a3.039,3.039,0,0,1,2.461-1.133q2.641,0,2.688,3.023V0h-1.9V-5.477a1.741,1.741,0,0,0-.348-1.191,1.462,1.462,0,0,0-1.137-.387,1.829,1.829,0,0,0-1.711,1.039V0h-1.9V-8.453Zm9.516-2.055v2.055h1.492v1.406H26.781v4.719a1.039,1.039,0,0,0,.191.7.888.888,0,0,0,.684.215,2.924,2.924,0,0,0,.664-.078V-.023a4.676,4.676,0,0,1-1.25.18q-2.188,0-2.187-2.414V-7.047H23.492V-8.453h1.391v-2.055Zm8.063,9.68a2.944,2.944,0,0,1-2.375.984,2.624,2.624,0,0,1-2.082-.8,3.423,3.423,0,0,1-.707-2.328V-8.453h1.9V-3q0,1.609,1.336,1.609a1.876,1.876,0,0,0,1.867-.992v-6.07h1.9V0H34.891Zm8.2-5.891a4.7,4.7,0,0,0-.773-.062,1.741,1.741,0,0,0-1.758,1V0h-1.9V-8.453h1.813l.047.945a2.139,2.139,0,0,1,1.906-1.1,1.777,1.777,0,0,1,.672.109ZM49.055,0a2.93,2.93,0,0,1-.219-.789,2.955,2.955,0,0,1-2.219.945A2.982,2.982,0,0,1,44.539-.57a2.325,2.325,0,0,1-.8-1.8,2.4,2.4,0,0,1,1-2.074,4.865,4.865,0,0,1,2.871-.723h1.164v-.555a1.481,1.481,0,0,0-.367-1.051,1.456,1.456,0,0,0-1.117-.395,1.672,1.672,0,0,0-1.062.324,1,1,0,0,0-.414.824h-1.9a2.107,2.107,0,0,1,.461-1.3,3.071,3.071,0,0,1,1.254-.949,4.4,4.4,0,0,1,1.77-.344,3.547,3.547,0,0,1,2.367.746,2.661,2.661,0,0,1,.906,2.1v3.813a4.321,4.321,0,0,0,.32,1.82V0ZM46.969-1.367a2.16,2.16,0,0,0,1.059-.273,1.827,1.827,0,0,0,.746-.734V-3.969H47.75a2.8,2.8,0,0,0-1.586.367,1.189,1.189,0,0,0-.531,1.039A1.109,1.109,0,0,0,46-1.691,1.407,1.407,0,0,0,46.969-1.367Z" transform="translate(-6787.085 5668.583)" fill="#161615"/><path d="M3.133-1.578H8.3V0H1.156V-11.375H3.133ZM10.813-2a1.084,1.084,0,0,1,.82.3,1.045,1.045,0,0,1,.289.754,1.008,1.008,0,0,1-.289.738,1.1,1.1,0,0,1-.82.293,1.1,1.1,0,0,1-.8-.289.991.991,0,0,1-.3-.742A1.045,1.045,0,0,1,10-1.7,1.074,1.074,0,0,1,10.813-2Zm7.453,2V-11.375h3.9A4.76,4.76,0,0,1,25.1-10.6a2.724,2.724,0,0,1,1.008,2.3,2.456,2.456,0,0,1-.422,1.406,2.715,2.715,0,0,1-1.234.969,2.511,2.511,0,0,1,1.426.941,2.742,2.742,0,0,1,.5,1.66A3.028,3.028,0,0,1,25.355-.859,4.467,4.467,0,0,1,22.414,0Zm1.977-5.133v3.555h2.2a2.124,2.124,0,0,0,1.453-.461,1.618,1.618,0,0,0,.523-1.281A1.623,1.623,0,0,0,22.6-5.133Zm0-1.453H22.18A2.241,2.241,0,0,0,23.621-7a1.432,1.432,0,0,0,.52-1.184,1.452,1.452,0,0,0-.48-1.219,2.426,2.426,0,0,0-1.5-.375H20.242ZM33.227,0a2.93,2.93,0,0,1-.219-.789,2.955,2.955,0,0,1-2.219.945A2.982,2.982,0,0,1,28.711-.57a2.325,2.325,0,0,1-.8-1.8,2.4,2.4,0,0,1,1-2.074,4.865,4.865,0,0,1,2.871-.723h1.164v-.555a1.481,1.481,0,0,0-.367-1.051,1.456,1.456,0,0,0-1.117-.395A1.672,1.672,0,0,0,30.4-6.84a1,1,0,0,0-.414.824h-1.9a2.107,2.107,0,0,1,.461-1.3A3.071,3.071,0,0,1,29.8-8.266a4.4,4.4,0,0,1,1.77-.344,3.547,3.547,0,0,1,2.367.746,2.661,2.661,0,0,1,.906,2.1v3.813a4.321,4.321,0,0,0,.32,1.82V0ZM31.141-1.367A2.159,2.159,0,0,0,32.2-1.641a1.827,1.827,0,0,0,.746-.734V-3.969H31.922a2.8,2.8,0,0,0-1.586.367A1.189,1.189,0,0,0,29.8-2.562a1.109,1.109,0,0,0,.363.871A1.407,1.407,0,0,0,31.141-1.367ZM41.57-2.3a.861.861,0,0,0-.418-.773,4.445,4.445,0,0,0-1.387-.469,7.129,7.129,0,0,1-1.617-.516,2.158,2.158,0,0,1-1.422-1.992,2.25,2.25,0,0,1,.922-1.828,3.644,3.644,0,0,1,2.344-.734,3.792,3.792,0,0,1,2.449.75,2.38,2.38,0,0,1,.934,1.945h-1.9a1.17,1.17,0,0,0-.406-.91,1.557,1.557,0,0,0-1.078-.363,1.682,1.682,0,0,0-1.02.289.911.911,0,0,0-.395.773.769.769,0,0,0,.367.68,5.049,5.049,0,0,0,1.484.488,7.027,7.027,0,0,1,1.754.586,2.484,2.484,0,0,1,.945.816A2.082,2.082,0,0,1,43.438-2.4a2.2,2.2,0,0,1-.945,1.848,4.031,4.031,0,0,1-2.477.707,4.371,4.371,0,0,1-1.852-.375A3.047,3.047,0,0,1,36.9-1.25a2.441,2.441,0,0,1-.453-1.414h1.844A1.338,1.338,0,0,0,38.8-1.629a1.973,1.973,0,0,0,1.242.363,1.92,1.92,0,0,0,1.141-.285A.883.883,0,0,0,41.57-2.3ZM48.813.156A3.928,3.928,0,0,1,45.887-.98a4.124,4.124,0,0,1-1.121-3.027v-.234A5.072,5.072,0,0,1,45.254-6.5a3.716,3.716,0,0,1,1.371-1.551,3.625,3.625,0,0,1,1.969-.555,3.318,3.318,0,0,1,2.668,1.1A4.658,4.658,0,0,1,52.2-4.391v.766H46.68a2.539,2.539,0,0,0,.7,1.656,2.1,2.1,0,0,0,1.543.609,2.571,2.571,0,0,0,2.125-1.055l1.023.977A3.418,3.418,0,0,1,50.715-.262,4.244,4.244,0,0,1,48.813.156Zm-.227-7.242a1.6,1.6,0,0,0-1.262.547,2.835,2.835,0,0,0-.613,1.523h3.617v-.141A2.307,2.307,0,0,0,49.82-6.6,1.586,1.586,0,0,0,48.586-7.086Z" transform="translate(-6789.782 5854.99)" fill="#161615"/><path d="M3.133-1.578H8.3V0H1.156V-11.375H3.133ZM10.813-2a1.084,1.084,0,0,1,.82.3,1.045,1.045,0,0,1,.289.754,1.008,1.008,0,0,1-.289.738,1.1,1.1,0,0,1-.82.293,1.1,1.1,0,0,1-.8-.289.991.991,0,0,1-.3-.742A1.045,1.045,0,0,1,10-1.7,1.074,1.074,0,0,1,10.813-2ZM22.445-4.383h-2.2V0H18.266V-11.375h4a4.656,4.656,0,0,1,3.039.883,3.122,3.122,0,0,1,1.07,2.555,3.2,3.2,0,0,1-.551,1.91,3.5,3.5,0,0,1-1.535,1.184L26.844-.1V0H24.727Zm-2.2-1.586h2.031a2.259,2.259,0,0,0,1.563-.5A1.757,1.757,0,0,0,24.4-7.852a1.871,1.871,0,0,0-.52-1.414,2.207,2.207,0,0,0-1.551-.516H20.242ZM27.711-4.3A4.984,4.984,0,0,1,28.2-6.543a3.6,3.6,0,0,1,1.383-1.531,3.9,3.9,0,0,1,2.047-.535,3.692,3.692,0,0,1,2.777,1.1,4.333,4.333,0,0,1,1.152,2.922l.008.445a5.029,5.029,0,0,1-.48,2.234A3.551,3.551,0,0,1,33.715-.383a3.925,3.925,0,0,1-2.066.539,3.667,3.667,0,0,1-2.863-1.191,4.563,4.563,0,0,1-1.074-3.176Zm1.9.164A3.406,3.406,0,0,0,30.148-2.1a1.752,1.752,0,0,0,1.5.738,1.733,1.733,0,0,0,1.5-.75,3.762,3.762,0,0,0,.535-2.2,3.362,3.362,0,0,0-.551-2.031,1.759,1.759,0,0,0-1.5-.75,1.743,1.743,0,0,0-1.477.738A3.691,3.691,0,0,0,29.609-4.141Zm7.211-.148a5.026,5.026,0,0,1,.906-3.137,2.9,2.9,0,0,1,2.43-1.184,2.759,2.759,0,0,1,2.172.938V-12h1.9V0H42.508l-.094-.875A2.8,2.8,0,0,1,40.141.156a2.887,2.887,0,0,1-2.4-1.2A5.21,5.21,0,0,1,36.82-4.289Zm1.9.164a3.519,3.519,0,0,0,.5,2.012,1.61,1.61,0,0,0,1.41.723,1.793,1.793,0,0,0,1.7-1.039V-6.039a1.766,1.766,0,0,0-1.687-1.016,1.622,1.622,0,0,0-1.422.73A3.919,3.919,0,0,0,38.719-4.125ZM48.227,0h-1.9V-8.453h1.9ZM46.211-10.648a1.008,1.008,0,0,1,.277-.727,1.048,1.048,0,0,1,.793-.289,1.061,1.061,0,0,1,.8.289,1,1,0,0,1,.281.727.977.977,0,0,1-.281.715,1.069,1.069,0,0,1-.8.285,1.056,1.056,0,0,1-.793-.285A.984.984,0,0,1,46.211-10.648ZM52.313,0h-1.9V-12h1.9ZM56.4,0H54.5V-12h1.9Zm7.117,0A2.93,2.93,0,0,1,63.3-.789a2.955,2.955,0,0,1-2.219.945A2.982,2.982,0,0,1,59-.57a2.325,2.325,0,0,1-.8-1.8,2.4,2.4,0,0,1,1-2.074,4.865,4.865,0,0,1,2.871-.723h1.164v-.555a1.481,1.481,0,0,0-.367-1.051,1.456,1.456,0,0,0-1.117-.395,1.672,1.672,0,0,0-1.062.324,1,1,0,0,0-.414.824h-1.9a2.107,2.107,0,0,1,.461-1.3,3.071,3.071,0,0,1,1.254-.949,4.4,4.4,0,0,1,1.77-.344,3.547,3.547,0,0,1,2.367.746,2.661,2.661,0,0,1,.906,2.1v3.813a4.321,4.321,0,0,0,.32,1.82V0ZM61.43-1.367a2.16,2.16,0,0,0,1.059-.273,1.827,1.827,0,0,0,.746-.734V-3.969H62.211a2.8,2.8,0,0,0-1.586.367,1.189,1.189,0,0,0-.531,1.039,1.109,1.109,0,0,0,.363.871A1.407,1.407,0,0,0,61.43-1.367Z" transform="translate(-6841.66 6169.048)" fill="#161615"/><path d="M7.8-5.078H3.133v3.5H8.594V0H1.156V-11.375H8.539v1.594H3.133v3.141H7.8Zm3.977-3.375.055.977A3.039,3.039,0,0,1,14.3-8.609q2.641,0,2.688,3.023V0h-1.9V-5.477a1.741,1.741,0,0,0-.348-1.191A1.462,1.462,0,0,0,13.6-7.055a1.829,1.829,0,0,0-1.711,1.039V0h-1.9V-8.453ZM21.3-10.508v2.055h1.492v1.406H21.3v4.719a1.039,1.039,0,0,0,.191.7.888.888,0,0,0,.684.215,2.924,2.924,0,0,0,.664-.078V-.023a4.676,4.676,0,0,1-1.25.18Q19.4.156,19.4-2.258V-7.047H18.008V-8.453H19.4v-2.055Zm7.367,3.789a4.7,4.7,0,0,0-.773-.062,1.741,1.741,0,0,0-1.758,1V0h-1.9V-8.453h1.813l.047.945A2.139,2.139,0,0,1,28-8.609a1.777,1.777,0,0,1,.672.109ZM33.586.156A3.928,3.928,0,0,1,30.66-.98a4.124,4.124,0,0,1-1.121-3.027v-.234A5.072,5.072,0,0,1,30.027-6.5,3.716,3.716,0,0,1,31.4-8.055a3.625,3.625,0,0,1,1.969-.555,3.318,3.318,0,0,1,2.668,1.1,4.658,4.658,0,0,1,.941,3.117v.766H31.453a2.539,2.539,0,0,0,.7,1.656,2.1,2.1,0,0,0,1.543.609A2.571,2.571,0,0,0,35.82-2.414l1.023.977A3.418,3.418,0,0,1,35.488-.262,4.244,4.244,0,0,1,33.586.156Zm-.227-7.242a1.6,1.6,0,0,0-1.262.547,2.835,2.835,0,0,0-.613,1.523H35.1v-.141A2.307,2.307,0,0,0,34.594-6.6,1.586,1.586,0,0,0,33.359-7.086ZM45.852-4.141a5.033,5.033,0,0,1-.891,3.129A2.852,2.852,0,0,1,42.57.156a2.871,2.871,0,0,1-2.227-.914V3.25h-1.9v-11.7H40.2l.078.859a2.788,2.788,0,0,1,2.273-1.016,2.881,2.881,0,0,1,2.426,1.152,5.167,5.167,0,0,1,.879,3.2ZM43.961-4.3a3.526,3.526,0,0,0-.5-2.008,1.638,1.638,0,0,0-1.441-.742,1.747,1.747,0,0,0-1.672.961v3.75a1.763,1.763,0,0,0,1.688.984,1.636,1.636,0,0,0,1.418-.73A3.881,3.881,0,0,0,43.961-4.3ZM49.477,0h-1.9V-8.453h1.9ZM47.461-10.648a1.008,1.008,0,0,1,.277-.727,1.048,1.048,0,0,1,.793-.289,1.061,1.061,0,0,1,.8.289,1,1,0,0,1,.281.727.977.977,0,0,1-.281.715,1.069,1.069,0,0,1-.8.285,1.056,1.056,0,0,1-.793-.285A.984.984,0,0,1,47.461-10.648Zm7.8,10.8A3.928,3.928,0,0,1,52.34-.98a4.124,4.124,0,0,1-1.121-3.027v-.234A5.072,5.072,0,0,1,51.707-6.5a3.716,3.716,0,0,1,1.371-1.551,3.625,3.625,0,0,1,1.969-.555,3.318,3.318,0,0,1,2.668,1.1,4.658,4.658,0,0,1,.941,3.117v.766H53.133a2.539,2.539,0,0,0,.7,1.656,2.1,2.1,0,0,0,1.543.609A2.571,2.571,0,0,0,57.5-2.414l1.023.977A3.418,3.418,0,0,1,57.168-.262,4.244,4.244,0,0,1,55.266.156Zm-.227-7.242a1.6,1.6,0,0,0-1.262.547,2.835,2.835,0,0,0-.613,1.523h3.617v-.141A2.307,2.307,0,0,0,56.273-6.6,1.586,1.586,0,0,0,55.039-7.086Zm9.516.367a4.7,4.7,0,0,0-.773-.062,1.741,1.741,0,0,0-1.758,1V0h-1.9V-8.453h1.813l.047.945a2.139,2.139,0,0,1,1.906-1.1,1.777,1.777,0,0,1,.672.109Zm2.961-1.734.055.977a3.039,3.039,0,0,1,2.461-1.133q2.641,0,2.688,3.023V0h-1.9V-5.477a1.741,1.741,0,0,0-.348-1.191,1.462,1.462,0,0,0-1.137-.387,1.829,1.829,0,0,0-1.711,1.039V0h-1.9V-8.453ZM79.7,0a2.93,2.93,0,0,1-.219-.789,2.955,2.955,0,0,1-2.219.945A2.982,2.982,0,0,1,75.188-.57a2.325,2.325,0,0,1-.8-1.8,2.4,2.4,0,0,1,1-2.074,4.865,4.865,0,0,1,2.871-.723h1.164v-.555a1.481,1.481,0,0,0-.367-1.051,1.456,1.456,0,0,0-1.117-.395,1.672,1.672,0,0,0-1.062.324,1,1,0,0,0-.414.824h-1.9a2.107,2.107,0,0,1,.461-1.3,3.071,3.071,0,0,1,1.254-.949,4.4,4.4,0,0,1,1.77-.344,3.547,3.547,0,0,1,2.367.746,2.661,2.661,0,0,1,.906,2.1v3.813a4.321,4.321,0,0,0,.32,1.82V0ZM77.617-1.367a2.159,2.159,0,0,0,1.059-.273,1.827,1.827,0,0,0,.746-.734V-3.969H78.4a2.8,2.8,0,0,0-1.586.367,1.189,1.189,0,0,0-.531,1.039,1.109,1.109,0,0,0,.363.871A1.407,1.407,0,0,0,77.617-1.367Z" transform="translate(-6631.149 6393.736)" fill="#161615"/><path d="M9.836-3.7A4.107,4.107,0,0,1,8.492-.863,4.581,4.581,0,0,1,5.375.156,4.436,4.436,0,0,1,2.98-.488a4.231,4.231,0,0,1-1.6-1.832A6.611,6.611,0,0,1,.8-5.078V-6.141a6.659,6.659,0,0,1,.57-2.836A4.3,4.3,0,0,1,3-10.867a4.566,4.566,0,0,1,2.465-.664A4.386,4.386,0,0,1,8.5-10.508,4.276,4.276,0,0,1,9.836-7.617H7.867a2.81,2.81,0,0,0-.715-1.77A2.363,2.363,0,0,0,5.469-9.93a2.309,2.309,0,0,0-1.98.941,4.7,4.7,0,0,0-.707,2.762v1.008a4.988,4.988,0,0,0,.66,2.813,2.191,2.191,0,0,0,1.934.969,2.555,2.555,0,0,0,1.75-.523A2.729,2.729,0,0,0,7.867-3.7Zm1.227-.6a4.984,4.984,0,0,1,.492-2.238,3.6,3.6,0,0,1,1.383-1.531,3.9,3.9,0,0,1,2.047-.535,3.692,3.692,0,0,1,2.777,1.1,4.333,4.333,0,0,1,1.152,2.922l.008.445a5.029,5.029,0,0,1-.48,2.234A3.551,3.551,0,0,1,17.066-.383,3.925,3.925,0,0,1,15,.156a3.667,3.667,0,0,1-2.863-1.191,4.563,4.563,0,0,1-1.074-3.176Zm1.9.164A3.406,3.406,0,0,0,13.5-2.1a1.752,1.752,0,0,0,1.5.738,1.733,1.733,0,0,0,1.5-.75,3.762,3.762,0,0,0,.535-2.2,3.362,3.362,0,0,0-.551-2.031,1.759,1.759,0,0,0-1.5-.75,1.743,1.743,0,0,0-1.477.738A3.691,3.691,0,0,0,12.961-4.141ZM25.266-2.3a.861.861,0,0,0-.418-.773,4.445,4.445,0,0,0-1.387-.469,7.129,7.129,0,0,1-1.617-.516,2.158,2.158,0,0,1-1.422-1.992,2.25,2.25,0,0,1,.922-1.828,3.644,3.644,0,0,1,2.344-.734,3.792,3.792,0,0,1,2.449.75,2.38,2.38,0,0,1,.934,1.945h-1.9a1.17,1.17,0,0,0-.406-.91,1.557,1.557,0,0,0-1.078-.363,1.682,1.682,0,0,0-1.02.289.911.911,0,0,0-.395.773.769.769,0,0,0,.367.68,5.049,5.049,0,0,0,1.484.488,7.027,7.027,0,0,1,1.754.586,2.484,2.484,0,0,1,.945.816A2.082,2.082,0,0,1,27.133-2.4a2.2,2.2,0,0,1-.945,1.848,4.031,4.031,0,0,1-2.477.707,4.371,4.371,0,0,1-1.852-.375A3.047,3.047,0,0,1,20.594-1.25a2.441,2.441,0,0,1-.453-1.414h1.844a1.338,1.338,0,0,0,.508,1.035,1.973,1.973,0,0,0,1.242.363,1.92,1.92,0,0,0,1.141-.285A.883.883,0,0,0,25.266-2.3Zm5.9-8.211v2.055h1.492v1.406H31.164v4.719a1.039,1.039,0,0,0,.191.7.888.888,0,0,0,.684.215,2.924,2.924,0,0,0,.664-.078V-.023a4.676,4.676,0,0,1-1.25.18q-2.188,0-2.187-2.414V-7.047H27.875V-8.453h1.391v-2.055ZM39.156,0a2.93,2.93,0,0,1-.219-.789,2.955,2.955,0,0,1-2.219.945A2.982,2.982,0,0,1,34.641-.57a2.325,2.325,0,0,1-.8-1.8,2.4,2.4,0,0,1,1-2.074,4.865,4.865,0,0,1,2.871-.723h1.164v-.555a1.481,1.481,0,0,0-.367-1.051,1.456,1.456,0,0,0-1.117-.395,1.672,1.672,0,0,0-1.062.324,1,1,0,0,0-.414.824h-1.9a2.107,2.107,0,0,1,.461-1.3,3.071,3.071,0,0,1,1.254-.949,4.4,4.4,0,0,1,1.77-.344,3.547,3.547,0,0,1,2.367.746,2.661,2.661,0,0,1,.906,2.1v3.813a4.321,4.321,0,0,0,.32,1.82V0ZM37.07-1.367a2.16,2.16,0,0,0,1.059-.273,1.827,1.827,0,0,0,.746-.734V-3.969H37.852a2.8,2.8,0,0,0-1.586.367,1.189,1.189,0,0,0-.531,1.039,1.109,1.109,0,0,0,.363.871A1.407,1.407,0,0,0,37.07-1.367Zm5.336-2.922a5.026,5.026,0,0,1,.906-3.137,2.9,2.9,0,0,1,2.43-1.184,2.759,2.759,0,0,1,2.172.938V-12h1.9V0H48.094L48-.875A2.8,2.8,0,0,1,45.727.156a2.887,2.887,0,0,1-2.4-1.2A5.21,5.21,0,0,1,42.406-4.289Zm1.9.164a3.519,3.519,0,0,0,.5,2.012,1.61,1.61,0,0,0,1.41.723,1.793,1.793,0,0,0,1.7-1.039V-6.039a1.766,1.766,0,0,0-1.687-1.016,1.622,1.622,0,0,0-1.422.73A3.919,3.919,0,0,0,44.3-4.125Zm7.133-.18a4.984,4.984,0,0,1,.492-2.238,3.6,3.6,0,0,1,1.383-1.531,3.9,3.9,0,0,1,2.047-.535,3.692,3.692,0,0,1,2.777,1.1,4.333,4.333,0,0,1,1.152,2.922l.008.445a5.029,5.029,0,0,1-.48,2.234A3.551,3.551,0,0,1,57.441-.383a3.925,3.925,0,0,1-2.066.539,3.667,3.667,0,0,1-2.863-1.191,4.563,4.563,0,0,1-1.074-3.176Zm1.9.164A3.406,3.406,0,0,0,53.875-2.1a1.752,1.752,0,0,0,1.5.738,1.733,1.733,0,0,0,1.5-.75,3.762,3.762,0,0,0,.535-2.2,3.362,3.362,0,0,0-.551-2.031,1.759,1.759,0,0,0-1.5-.75,1.743,1.743,0,0,0-1.477.738A3.691,3.691,0,0,0,53.336-4.141Z" transform="translate(-6948.216 6394.855)" fill="#161615"/><path d="M3.133-4.227V0H1.156V-11.375H5.508a4.4,4.4,0,0,1,3.027.992A3.334,3.334,0,0,1,9.656-7.758a3.224,3.224,0,0,1-1.1,2.6,4.617,4.617,0,0,1-3.074.93Zm0-1.586H5.508a2.339,2.339,0,0,0,1.609-.5,1.823,1.823,0,0,0,.555-1.434,1.967,1.967,0,0,0-.562-1.473,2.168,2.168,0,0,0-1.547-.566H3.133ZM10.742-4.3a4.984,4.984,0,0,1,.492-2.238,3.6,3.6,0,0,1,1.383-1.531,3.9,3.9,0,0,1,2.047-.535,3.692,3.692,0,0,1,2.777,1.1,4.333,4.333,0,0,1,1.152,2.922l.008.445a5.029,5.029,0,0,1-.48,2.234A3.551,3.551,0,0,1,16.746-.383,3.925,3.925,0,0,1,14.68.156a3.667,3.667,0,0,1-2.863-1.191,4.563,4.563,0,0,1-1.074-3.176Zm1.9.164A3.406,3.406,0,0,0,13.18-2.1a1.752,1.752,0,0,0,1.5.738,1.733,1.733,0,0,0,1.5-.75,3.762,3.762,0,0,0,.535-2.2,3.362,3.362,0,0,0-.551-2.031,1.759,1.759,0,0,0-1.5-.75,1.743,1.743,0,0,0-1.477.738A3.691,3.691,0,0,0,12.641-4.141ZM24.945-2.3a.861.861,0,0,0-.418-.773,4.445,4.445,0,0,0-1.387-.469,7.129,7.129,0,0,1-1.617-.516A2.158,2.158,0,0,1,20.1-6.047a2.25,2.25,0,0,1,.922-1.828,3.644,3.644,0,0,1,2.344-.734,3.792,3.792,0,0,1,2.449.75,2.38,2.38,0,0,1,.934,1.945h-1.9a1.17,1.17,0,0,0-.406-.91,1.557,1.557,0,0,0-1.078-.363,1.682,1.682,0,0,0-1.02.289.911.911,0,0,0-.395.773.769.769,0,0,0,.367.68,5.049,5.049,0,0,0,1.484.488,7.027,7.027,0,0,1,1.754.586,2.484,2.484,0,0,1,.945.816A2.082,2.082,0,0,1,26.813-2.4a2.2,2.2,0,0,1-.945,1.848,4.031,4.031,0,0,1-2.477.707,4.371,4.371,0,0,1-1.852-.375A3.047,3.047,0,0,1,20.273-1.25a2.441,2.441,0,0,1-.453-1.414h1.844a1.338,1.338,0,0,0,.508,1.035,1.973,1.973,0,0,0,1.242.363,1.92,1.92,0,0,0,1.141-.285A.883.883,0,0,0,24.945-2.3Z" transform="translate(-6682.348 6113.242)" fill="#161615"/><circle cx="3.14" cy="3.14" r="3.14" transform="translate(-6865.017 5639.732)" fill="#b13182"/><circle cx="3.14" cy="3.14" r="3.14" transform="translate(-6765.616 5864.681)" fill="#b13182"/><circle cx="3.14" cy="3.14" r="3.14" transform="translate(-6889.085 5864.681)" fill="#b13182"/><circle cx="3.14" cy="3.14" r="3.14" transform="translate(-6911.827 5864.681)" fill="#b13182"/><circle cx="3.14" cy="3.14" r="3.14" transform="translate(-6891.122 6174.256)" fill="#b13182"/><circle cx="3.14" cy="3.14" r="3.14" transform="translate(-6873.259 6172.941)" fill="#b13182"/><circle cx="3.14" cy="3.14" r="3.14" transform="translate(-6656.513 6172.941)" fill="#b13182"/><circle cx="3.14" cy="3.14" r="3.14" transform="translate(-6651.931 6570.376)" fill="#b13182"/><circle cx="3.14" cy="3.14" r="3.14" transform="translate(-6670.133 6570.376)" fill="#b13182"/><circle cx="3.14" cy="3.14" r="3.14" transform="translate(-6765.616 6570.376)" fill="#b13182"/><circle cx="3.14" cy="3.14" r="3.14" transform="translate(-6860.573 6570.376)" fill="#b13182"/><circle cx="3.14" cy="3.14" r="3.14" transform="translate(-6877.629 6570.376)" fill="#b13182"/><circle cx="3.14" cy="3.14" r="3.14" transform="translate(-6639.304 6174.256)" fill="#b13182"/><circle cx="3.14" cy="3.14" r="3.14" transform="translate(-6680.848 5639.732)" fill="#b13182"/><circle cx="3.14" cy="3.14" r="3.14" transform="translate(-6689.567 5647.942)" fill="#b13182"/><path d="M-6677.834,5824.575s3.553,41.84,41.369,42.7" fill="none" stroke="#7a1d47" stroke-linecap="round" stroke-linejoin="round" stroke-width="1.796"/><circle cx="3.14" cy="3.14" r="3.14" transform="translate(-6639.559 5864.522)" fill="#b13182"/><circle cx="3.14" cy="3.14" r="3.14" transform="translate(-6680.63 5821.824)" fill="#b13182"/><path d="M-6824.237,5629.858" fill="#fff"/></g></svg>