<svg xmlns="http://www.w3.org/2000/svg" width="400" height="196" viewBox="0 0 400 196"><g transform="translate(-915 -7959)"><g transform="translate(827.271 7910.43)"><g transform="translate(123.729 52.57)"><path d="M361.319,120.74S347.7,81.187,338.91,80.4c0,0-14.184,8.806-10.3,37.775l5.5,12.178a19.642,19.642,0,0,0,17.242-2.793C360.282,121.513,361.319,120.74,361.319,120.74Z" transform="translate(-206.985 -63.916)" fill="#f1f1f1"/><path d="M365.567,148.5l2.592,5.184s-7.991,1.3-11.231,3.563-8.1,5.076-11.014,5.616a10.522,10.522,0,0,1-4.644,0l-2.916-4.751s7.127,1.728,10.475-2.807S364.164,148.284,365.567,148.5Z" transform="translate(-211.234 -91.676)" fill="#fff"/><path d="M128.106,119.268s13.518-41.693,22.3-42.48c0,0,14.288,10.945,10.409,39.913l-5.5,12.178a19.641,19.641,0,0,1-17.242-2.793C129.143,120.041,128.106,119.268,128.106,119.268Z" transform="translate(-125.514 -62.444)" fill="#f1f1f1"/><path d="M181.67,355.69s13.78,6.4,28.29,4.493,19.925-2.988,25.79-2.8,15.106,2.948,20.97,1.923,14.327-2.97,14.327-2.97S207.031,330.676,181.67,355.69Z" transform="translate(-147.352 -171.689)" fill="#cbcbcb"/><path d="M219.422,61.9h42.345s-10.36,16.538-20.613,16.538S219.422,61.9,219.422,61.9Z" transform="translate(-162.744 -56.374)" fill="#cbcbcb"/><path d="M221.278,52.57s19.675,4.6,37.955,0l3.188,5.32s-7.6,2.687-21.267,2.687S219.422,58.1,219.422,58.1Z" transform="translate(-162.744 -52.57)" fill="#e5e5e5"/><path d="M193.308,59.38,165.762,69.536s1.994,18.112,5.459,23.356,3.555,19.167,4.443,21.071c0,0-.48,18.563-.48,36.613,0,0,1.067,14.537,1.067,23.219s-1.067,60.694-1.067,60.694,12.644-4.051,15.538-3.845,31.422,3.845,31.422,3.845,18.81,1.651,26.395,1.651,16.022-.89,16.022-.89-2.3-89.614-1.268-108.632l2.053-20.47s4.885-15.436,4.118-20.925c-.461-3.3.433-10.654,3.327-13.548L243.067,59s-8.5,17.429-23.791,17.429S193.308,59.38,193.308,59.38Z" transform="translate(-140.866 -55.192)" fill="#fff"/><path d="M218.361,52.57s5.712,18.914,19.929,18.914S256.316,52.57,256.316,52.57l5.712,3.808s-5.333,20.563-23.484,20.563-26.275-20.183-26.275-20.183Z" transform="translate(-159.828 -52.57)" fill="#f1f1f1"/><path d="M271.047,351.422s-8.325-.155-12.4-1.925-20.118-.537-23.326-1.721-16.231-.416-22.218-.416-10.37-3.421-15.609-3.421-15.822,6.723-15.822,6.723v4.7s10.583-6.842,15.822-6.842,9.622,3.421,15.609,3.421,20.026-1.362,21.661-.226,21.957.332,23.882,2.364,12.4,1.926,12.4,1.926Z" transform="translate(-147.352 -171.363)" fill="#f1f1f1"/><path d="M126.321,148.5l-2.592,5.184s7.991,1.3,11.231,3.563,8.1,5.076,11.015,5.616a10.52,10.52,0,0,0,4.643,0l2.916-4.751s-7.126,1.728-10.475-2.807S127.725,148.284,126.321,148.5Z" transform="translate(-123.729 -91.676)" fill="#fff"/></g><g transform="translate(294.069 52.57)"><path d="M556.812,355.3s-13.78,6.4-28.29,4.493-20.338-1.82-26.2-1.635-14.694,1.78-20.558.755-14.328-2.97-14.328-2.97S531.452,330.287,556.812,355.3Z" transform="translate(-434.201 -171.531)" fill="#cbcbcb"/><path d="M415.7,120.74S429.323,81.187,438.109,80.4c0,0,14.183,8.806,10.3,37.775l-5.5,12.178a19.643,19.643,0,0,1-17.242-2.793C416.737,121.513,415.7,120.74,415.7,120.74Z" transform="translate(-413.108 -63.916)" fill="#f1f1f1"/><path d="M413.916,148.5l-2.592,5.184s7.991,1.3,11.231,3.563,8.1,5.076,11.014,5.616a10.522,10.522,0,0,0,4.644,0l2.916-4.751S434,159.839,430.654,155.3,415.32,148.284,413.916,148.5Z" transform="translate(-411.324 -91.676)" fill="#fff"/><path d="M648.917,119.268s-13.518-41.693-22.3-42.48c0,0-14.288,10.945-10.408,39.913l5.5,12.178a19.644,19.644,0,0,0,17.243-2.793C647.88,120.041,648.917,119.268,648.917,119.268Z" transform="translate(-494.583 -62.444)" fill="#f1f1f1"/><path d="M528.781,61.759l31.782,8.817s-7.108,12.6-6.283,17.98S551.549,113.1,550.661,115c0,0,.48,18.563.48,36.613,0,0-1.068,14.537-1.068,23.219s1.068,60.694,1.068,60.694-12.644-4.051-15.538-3.845-31.422,3.845-31.422,3.845H477.1l-15.336.76s2.3-89.614,1.268-108.632c0,0,.16-14.52-1.436-20.526s-4.909-21.014-4.448-24.235a12.477,12.477,0,0,0-3.614-10.182l32.248-11.163Z" transform="translate(-428.533 -56.232)" fill="#fff"/><path d="M653.161,148.5l2.592,5.184s-7.991,1.3-11.23,3.563-8.1,5.076-11.015,5.616a10.52,10.52,0,0,1-4.643,0l-2.917-4.751s7.127,1.728,10.475-2.807S651.758,148.284,653.161,148.5Z" transform="translate(-498.828 -91.676)" fill="#fff"/><path d="M549.124,52.57s-19.675,4.6-37.955,0l-3.188,5.32s7.6,2.687,21.267,2.687S550.979,58.1,550.979,58.1Z" transform="translate(-450.732 -52.57)" fill="#e5e5e5"/><path d="M467.435,351.033s8.326-.155,12.4-1.926,20.118-.537,23.326-1.721,16.231-.416,22.218-.416,10.37-3.421,15.609-3.421,15.822,6.723,15.822,6.723v4.7s-10.583-6.842-15.822-6.842-9.622,3.421-15.609,3.421-20.026-1.361-21.661-.226-21.957.332-23.882,2.364-12.4,1.926-12.4,1.926Z" transform="translate(-434.201 -171.205)" fill="#f1f1f1"/></g></g><rect width="400" height="196" transform="translate(915 7959)" fill="none"/></g></svg>