<svg xmlns="http://www.w3.org/2000/svg" width="610.749" height="371.366" viewBox="0 0 610.749 371.366"><g transform="translate(38.287 182.737)"><path d="M-13.273-181.016s-4.947,17.188-4.947,18.839-10.593,24.016-9.18,33.668S-34.229-64.7-33.289-45.154s-1.648,74.643-1.648,74.643l5.888,88.767,7.3,66.871L24.4,182.539s-1.884-147.166,0-150.7S35.938-57.634,38.526-61.166a24.2,24.2,0,0,1,4.944-5.18S53.6-39.03,58.306-16.9s7.772,62.867,7.772,62.867l2.117,137.51,46.151,1.648,7.536-123.382s.472-102.659,0-105.015-1.648-92.771-1.884-95.6-12.48-26.84-12.48-26.84l-.236-15.307S33.346-173.716-13.273-181.016Z" transform="translate(6.911 3.126)" fill="#aea691" stroke="#303030" stroke-linecap="round" stroke-linejoin="round" stroke-width="0.75"/><path d="M-27.283-175.772s60.276,9.184,112.551,0" transform="translate(24.689 15.306)" fill="#aea691" stroke="#303030" stroke-linecap="round" stroke-linejoin="round" stroke-width="0.75"/><path d="M-6.449-163.151s1.884,76.527,2.592,76.527,59.06-4.24,59.06-4.24v-59.807l-1.372-17.66Z" transform="translate(73.078 32.589)" fill="#aea691" stroke="#303030" stroke-linecap="round" stroke-linejoin="round" stroke-width="0.75"/><line y1="4.942" x2="58.939" transform="translate(68.514 -106.777)" fill="#aea691" stroke="#303030" stroke-linecap="round" stroke-linejoin="round" stroke-width="0.75"/><path d="M8.858-134.031S10.506-49.5,11.214-49.5s16.952,1.651,18.6-2.824S26.99-108.6,26.99-108.6l2.12-.472-3.532-23.78Z" transform="translate(108.631 112.255)" fill="#aea691" stroke="#303030" stroke-linecap="round" stroke-linejoin="round" stroke-width="0.75"/><line x2="15.776" y2="6.828" transform="translate(119.844 -3.176)" fill="#aea691" stroke="#303030" stroke-linecap="round" stroke-linejoin="round" stroke-width="0.75"/><path d="M26.9-163.151s-1.884,76.527-2.588,76.527-59.06-4.24-59.06-4.24v-59.807l1.372-17.66Z" transform="translate(7.362 32.589)" fill="#aea691" stroke="#303030" stroke-linecap="round" stroke-linejoin="round" stroke-width="0.75"/><line x1="58.939" y1="4.942" transform="translate(-26.554 -106.777)" fill="#aea691" stroke="#303030" stroke-linecap="round" stroke-linejoin="round" stroke-width="0.75"/><path d="M-16.592-134.031S-18.24-49.5-18.945-49.5s-16.955,1.651-18.6-2.824,2.828-56.275,2.828-56.275l-2.12-.472,3.532-23.78Z" transform="translate(0 112.255)" fill="#aea691" stroke="#303030" stroke-linecap="round" stroke-linejoin="round" stroke-width="0.75"/><line x1="15.776" y2="6.828" transform="translate(-34.722 -3.176)" fill="#aea691" stroke="#303030" stroke-linecap="round" stroke-linejoin="round" stroke-width="0.75"/><path d="M-13.252-177.543s8.476,3.924,9.656,3.924,7.456-2.668,7.456-2.668" transform="translate(57.278 11.193)" fill="#aea691" stroke="#303030" stroke-linecap="round" stroke-linejoin="round" stroke-width="0.75"/><path d="M-4.169-175.734S-20.052-148.422-12.2-137.59s10.044-19.464,10.124-22.76,0-16.012,0-16.012,7.456,33.867,6.632,40.576,9.3,3.18,6.476-11.536S.2-175.578.2-175.578" transform="translate(54.657 13.936)" fill="#aea691" stroke="#303030" stroke-linecap="round" stroke-linejoin="round" stroke-width="0.75"/><path d="M-9.921-170.386s5.1,30.375,4,40.735" transform="translate(65.014 27.816)" fill="#aea691" stroke="#303030" stroke-linecap="round" stroke-linejoin="round" stroke-width="0.75"/><path d="M-4.17-175.772s-8.974,58.4-8.818,65.579A38.8,38.8,0,0,1-14.38-98.305" transform="translate(54.658 15.306)" fill="#aea691" stroke="#303030" stroke-linecap="round" stroke-linejoin="round" stroke-width="0.75"/><path d="M-29.906-72.124c.708.236,21.664.944,24.491,0S8.241-74.008,8.241-74.008" transform="translate(18.597 251.666)" fill="#aea691" stroke="#303030" stroke-linecap="round" stroke-linejoin="round" stroke-width="0.75"/><path d="M-3.151-72.124c.708.236,21.664.944,24.488,0s13.656-1.884,13.656-1.884" transform="translate(80.738 251.666)" fill="#aea691" stroke="#303030" stroke-linecap="round" stroke-linejoin="round" stroke-width="0.75"/><path d="M61.049-181.016s-4.944,17.188-4.944,18.839-10.6,24.016-9.184,33.668S40.093-64.7,41.037-45.154s-1.648,74.643-1.648,74.643l5.884,88.767,7.3,66.871,46.151-2.588s-1.884-147.166,0-150.7,11.536-89.475,14.128-93.007a24.2,24.2,0,0,1,4.944-5.18S127.92-39.03,132.632-16.9,140.4,45.969,140.4,45.969l2.12,137.51,46.151,1.648,7.536-123.382s.468-102.659,0-105.015-1.648-92.771-1.884-95.6-12.48-26.84-12.48-26.84l-.236-15.307S107.672-173.716,61.049-181.016Z" transform="translate(179.543 3.126)" fill="#aea691" stroke="#303030" stroke-linecap="round" stroke-linejoin="round" stroke-width="0.75"/><path d="M83.184-134.031S84.832-49.5,85.54-49.5s16.952,1.651,18.6-2.824-2.824-56.275-2.824-56.275l2.12-.472L99.9-132.855Z" transform="translate(281.262 112.255)" fill="#aea691" stroke="#303030" stroke-linecap="round" stroke-linejoin="round" stroke-width="0.75"/><line x2="15.776" y2="6.828" transform="translate(366.801 -3.176)" fill="#aea691" stroke="#303030" stroke-linecap="round" stroke-linejoin="round" stroke-width="0.75"/><path d="M57.734-134.031S56.086-49.5,55.378-49.5s-16.952,1.651-18.6-2.824S39.6-108.6,39.6-108.6l-2.117-.472,3.532-23.78Z" transform="translate(172.631 112.255)" fill="#aea691" stroke="#303030" stroke-linecap="round" stroke-linejoin="round" stroke-width="0.75"/><line x1="15.776" y2="6.828" transform="translate(212.235 -3.176)" fill="#aea691" stroke="#303030" stroke-linecap="round" stroke-linejoin="round" stroke-width="0.75"/><path d="M44.42-72.124c.708.236,21.664.944,24.488,0s13.659-1.884,13.659-1.884" transform="translate(191.228 251.666)" fill="#aea691" stroke="#303030" stroke-linecap="round" stroke-linejoin="round" stroke-width="0.75"/><path d="M71.175-72.124c.708.236,21.663.944,24.488,0s13.656-1.884,13.656-1.884" transform="translate(253.37 251.666)" fill="#aea691" stroke="#303030" stroke-linecap="round" stroke-linejoin="round" stroke-width="0.75"/><path d="M101.839-166.753v25.194l-59.718-1.648L45.564-168.4Z" transform="translate(185.889 32.425)" fill="#aea691" stroke="#303030" stroke-linecap="round" stroke-linejoin="round" stroke-width="0.75"/><path d="M66.472-166.753v25.194l57.881-2.355V-168.4Z" transform="translate(242.447 32.425)" fill="#aea691" stroke="#303030" stroke-linecap="round" stroke-linejoin="round" stroke-width="0.75"/><path d="M46.984-176.764s60.043,7.536,113.963,1.412" transform="translate(197.183 13.002)" fill="#aea691" stroke="#303030" stroke-linecap="round" stroke-linejoin="round" stroke-width="0.75"/><path d="M117.655-168.706s72.991-13.656,77.231-13.656,5.18,13.656,5.18,13.656,13.656,43.8,12.244,56.983-17.424,53.212-15.068,63.1-8.008,83.351-6.6,92.3,2.828,138.454,2.828,138.454l-45.679,6.12L125.659,30.967l-8-92.3L115.3-151.754Z" transform="translate(355.853 0)" fill="#aea691" stroke="#303030" stroke-linecap="round" stroke-linejoin="round" stroke-width="0.75"/><path d="M116.48-162.4s41.127-1.884,76.919-15.384" transform="translate(358.596 10.642)" fill="#aea691" stroke="#303030" stroke-linecap="round" stroke-linejoin="round" stroke-width="0.75"/><path d="M118.417-130.971l56.511-3.06s1.648,81.232,2.828,81.7S120.3-50.916,120.3-50.916Z" transform="translate(363.095 112.255)" fill="#aea691" stroke="#303030" stroke-linecap="round" stroke-linejoin="round" stroke-width="0.75"/><path d="M118.417-128.433c2.356,1.176,28.256,11.536,28.256,11.536l28.668-11.536" transform="translate(363.095 125.257)" fill="#aea691" stroke="#303030" stroke-linecap="round" stroke-linejoin="round" stroke-width="0.75"/><path d="M116.133-166.524l31.213,2.708-1.3,74.995-29.2-1.764s-1.173-27.535-1.552-49.444C115.057-154.363,115.15-166.288,116.133-166.524Z" transform="translate(355.594 36.786)" fill="#aea691" stroke="#303030" stroke-linecap="round" stroke-linejoin="round" stroke-width="0.75"/><path d="M145.5-155.493c-.356,0-30.279-3.057-30.279-3.057" transform="translate(355.674 55.306)" fill="#aea691" stroke="#303030" stroke-linecap="round" stroke-linejoin="round" stroke-width="0.75"/><path d="M133.063-163.737c1.256,1.1,2.984,27.156,2.984,27.156l38.928-6.28-5.964-27.312Z" transform="translate(397.112 28.31)" fill="#aea691" stroke="#303030" stroke-linecap="round" stroke-linejoin="round" stroke-width="0.75"/><line x1="1.215" y2="114.434" transform="translate(509.975 -147.043)" fill="#aea691" stroke="#303030" stroke-linecap="round" stroke-linejoin="round" stroke-width="0.75"/><line x2="11.773" y2="111.609" transform="translate(513.536 70.994)" fill="#aea691" stroke="#303030" stroke-linecap="round" stroke-linejoin="round" stroke-width="0.75"/><line y1="4.474" x2="41.324" transform="translate(505.295 174.008)" fill="#aea691" stroke="#303030" stroke-linecap="round" stroke-linejoin="round" stroke-width="0.75"/><path d="M125.235-174.85s-18.6,16.48-14.128,27.664,12.244,2.472,12.952-2.941,2.588-24.724,2.588-24.724-6.828,10.36-5.884,18.128.468,40.735,1.412,56.747-3.063,31.788-.708,38.851" transform="translate(344.505 17.448)" fill="#aea691" stroke="#303030" stroke-linecap="round" stroke-linejoin="round" stroke-width="0.75"/><path d="M65.672-167.386s.312,38.616-2.2,61.847" transform="translate(235.479 34.784)" fill="#aea691" stroke="#303030" stroke-linecap="round" stroke-linejoin="round" stroke-width="0.75"/></g></svg>