<svg xmlns="http://www.w3.org/2000/svg" width="610" height="714" viewBox="0 0 610 714"><g transform="translate(-6849 -7007)"><rect width="610" height="714" transform="translate(6849 7007)" fill="#fff"/><g transform="translate(8213.738 7211.995)"><path d="M-1268.109-156.777l89.9,2.184,53.868,1.82V-32.3s2.184,25.842,28.024,29.482l-28.3,209.3L-1143.357,478.6h-47.59l-48.045-.976-17-270.181S-1281.94.46-1281.94-5-1268.109-156.777-1268.109-156.777Z" transform="translate(-0.116 -0.832)" fill="none" stroke="#636262" stroke-miterlimit="10" stroke-width="2"/><path d="M-1187.452-21.564V353.51l5.369-11.329" transform="translate(-3.611 -5.833)" fill="none" stroke="#636262" stroke-miterlimit="10" stroke-width="2"/><line y2="123.569" transform="translate(-1191.063 353.228)" fill="none" stroke="#636262" stroke-miterlimit="10" stroke-width="2"/><circle cx="3.01" cy="3.01" r="3.01" transform="translate(-1270.935 -160.611)" fill="#636262"/><circle cx="3.01" cy="3.01" r="3.01" transform="translate(-1181.056 -158.7)" fill="#636262"/><circle cx="3.01" cy="3.01" r="3.01" transform="translate(-1168.363 -158.7)" fill="#636262"/><circle cx="3.01" cy="3.01" r="3.01" transform="translate(-1157.102 -157.608)" fill="#636262"/><circle cx="3.01" cy="3.01" r="3.01" transform="translate(-1128.167 -156.38)" fill="#636262"/><circle cx="3.01" cy="3.01" r="3.01" transform="translate(-1069.88 -161.384)" fill="#636262"/><circle cx="3.01" cy="3.01" r="3.01" transform="translate(-998.701 -169.505)" fill="#636262"/><circle cx="3.01" cy="3.01" r="3.01" transform="translate(-989.829 -170.392)" fill="#636262"/><circle cx="3.01" cy="3.01" r="3.01" transform="translate(-983.368 -111.521)" fill="#636262"/><circle cx="3.01" cy="3.01" r="3.01" transform="translate(-947.327 -115.706)" fill="#636262"/><circle cx="3.01" cy="3.01" r="3.01" transform="translate(-1019.122 -107.516)" fill="#636262"/><circle cx="3.01" cy="3.01" r="3.01" transform="translate(-980.821 -171.007)" fill="#636262"/><circle cx="3.01" cy="3.01" r="3.01" transform="translate(-909.504 -179.265)" fill="#636262"/><circle cx="3.01" cy="3.01" r="3.01" transform="translate(-895.719 -31.968)" fill="#636262"/><circle cx="3.01" cy="3.01" r="3.01" transform="translate(-1049.316 -7.81)" fill="#636262"/><circle cx="3.01" cy="3.01" r="3.01" transform="translate(-1026.135 202.64)" fill="#636262"/><circle cx="3.01" cy="3.01" r="3.01" transform="translate(-1006.162 476.596)" fill="#636262"/><circle cx="3.01" cy="3.01" r="3.01" transform="translate(-886.369 475.97)" fill="#636262"/><circle cx="3.01" cy="3.01" r="3.01" transform="translate(-947.585 477.559)" fill="#636262"/><circle cx="3.01" cy="3.01" r="3.01" transform="translate(-863.872 202.64)" fill="#636262"/><circle cx="3.01" cy="3.01" r="3.01" transform="translate(-878.93 -14.089)" fill="#636262"/><circle cx="3.01" cy="3.01" r="3.01" transform="translate(-839.554 -2.282)" fill="#636262"/><circle cx="3.01" cy="3.01" r="3.01" transform="translate(-1126.597 -36.654)" fill="#636262"/><circle cx="3.01" cy="3.01" r="3.01" transform="translate(-1099.44 -6.9)" fill="#636262"/><circle cx="3.01" cy="3.01" r="3.01" transform="translate(-1285.066 -6.9)" fill="#636262"/><circle cx="3.01" cy="3.01" r="3.01" transform="translate(-1194.073 66.179)" fill="#636262"/><circle cx="3.01" cy="3.01" r="3.01" transform="translate(-1128.217 203.604)" fill="#636262"/><circle cx="3.01" cy="3.01" r="3.01" transform="translate(-1259.115 203.604)" fill="#636262"/><circle cx="3.01" cy="3.01" r="3.01" transform="translate(-1146.483 473.786)" fill="#636262"/><circle cx="3.01" cy="3.01" r="3.01" transform="translate(-1194.073 473.786)" fill="#636262"/><circle cx="3.01" cy="3.01" r="3.01" transform="translate(-1242.118 473.786)" fill="#636262"/><g transform="translate(-1219.942 86.484)" style="isolation:isolate"><text transform="translate(4.297) rotate(90)" font-size="15" font-family="Roboto-Regular, Roboto" style="isolation:isolate"><tspan x="0" y="0">Pernera del</tspan></text></g><g transform="translate(-928.02 117.646)" style="isolation:isolate"><text transform="translate(4.297) rotate(90)" font-size="15" font-family="Roboto-Regular, Roboto" style="isolation:isolate"><tspan x="0" y="0">Pernera pos</tspan></text></g><path d="M-1058.489-158.6l160.512-17.834,13.831,146.544S-881.6-6.274-826.82.825c0,0-25.66,16.686-25.66,204.931l-22.4,273.6-61.315,1.319H-994.77l-19.974-274.412-23-210.047Z" transform="translate(-8.381 -0.105)" fill="none" stroke="#636262" stroke-miterlimit="10" stroke-width="2"/><line y1="8.189" x2="72.537" transform="translate(-1016.111 -112.696)" fill="none" stroke="#636262" stroke-miterlimit="10" stroke-width="2"/><path d="M-984.576-165.477l14.87,57.333-6-58.781" transform="translate(-11.115 -0.456)" fill="none" stroke="#636262" stroke-miterlimit="10" stroke-width="2"/><line x1="2.548" y2="59.396" transform="translate(-980.358 -167.997)" fill="none" stroke="#636262" stroke-miterlimit="10" stroke-width="2"/><path d="M-938.206-36.021V350.518l6.233-11.875" transform="translate(-12.83 -5.298)" fill="none" stroke="#636262" stroke-miterlimit="10" stroke-width="2"/><path d="M-931.5,489.576V77.6L-823.465,8.9" transform="translate(-13.078 -6.96)" fill="none" stroke="#636262" stroke-miterlimit="10" stroke-width="2"/><path d="M-1096.31,3.093l-94.63,72.841-90.813-72.841" transform="translate(-0.123 -6.745)" fill="none" stroke="#636262" stroke-miterlimit="10" stroke-width="2"/><circle cx="3.01" cy="3.01" r="3.01" transform="translate(-947.813 67.088)" fill="#636262"/><line x1="101.442" y1="74.899" transform="translate(-1046.245 -4.8)" fill="none" stroke="#636262" stroke-miterlimit="10" stroke-width="2"/></g></g></svg>