<svg xmlns="http://www.w3.org/2000/svg" width="505" height="768.012" viewBox="0 0 505 768.012"><g transform="translate(-525.894 7031.291)"><rect width="505" height="768.012" transform="translate(525.893 -7031.292)" fill="#fff"/><g transform="translate(628.125 -7013.56)"><rect width="71.905" height="643.865" transform="translate(255.233 88.683)" fill="none" stroke="#7a1c47" stroke-miterlimit="10" stroke-width="1.863"/><path d="M860.723-7005.211l-158.074,23.133s22.282,164.184,0,209.738c-17.35,35.47-50.893,30.844-50.893,30.844v468.827H906.989v-643.866s-42.153-1.285-43.7-45.751S860.723-7005.211,860.723-7005.211Z" transform="translate(-651.756 7005.217)" fill="none" stroke="#7a1c47" stroke-miterlimit="10" stroke-width="1.863"/><path d="M1065.687-6874.814v7h4.5" transform="translate(-782.501 6963.498)" fill="none" stroke="#7a1c47" stroke-miterlimit="10" stroke-width="1.863"/><path d="M1109.245-6874.814v7h4.5" transform="translate(-796.438 6963.498)" fill="none" stroke="#7a1c47" stroke-miterlimit="10" stroke-width="1.863"/><path d="M1108.474-5931.338v-7h-4.5" transform="translate(-796.438 6663.886)" fill="none" stroke="#7a1c47" stroke-miterlimit="10" stroke-width="1.863"/><path d="M1064.915-5931.338v-7h-4.5" transform="translate(-782.501 6663.886)" fill="none" stroke="#7a1c47" stroke-miterlimit="10" stroke-width="1.863"/><path d="M1027.063-6883.43h71.9v-18.313l-35.952,16.965" transform="translate(-771.83 6972.112)" fill="none" stroke="#272526" stroke-linecap="round" stroke-linejoin="round" stroke-width="2"/></g></g></svg>