<svg xmlns="http://www.w3.org/2000/svg" width="820" height="389" viewBox="0 0 820 389"><g transform="translate(-390 -6439)"><rect width="820" height="389" transform="translate(390 6439)" fill="#fff"/><path d="M164.176,14.656h-4.109L159.285,17h-2.492l4.234-11.375H163.2L167.457,17h-2.492Zm-3.477-1.9h2.844L162.113,8.5Zm9.375-4.211.07.977a2.951,2.951,0,0,1,2.43-1.133,2.453,2.453,0,0,1,2,.789,3.682,3.682,0,0,1,.672,2.359V17h-2.258V11.594a1.465,1.465,0,0,0-.312-1.043,1.4,1.4,0,0,0-1.039-.324,1.553,1.553,0,0,0-1.43.813V17h-2.258V8.547ZM181.855,17a2.507,2.507,0,0,1-.227-.758,2.732,2.732,0,0,1-2.133.914,3,3,0,0,1-2.059-.719,2.312,2.312,0,0,1-.816-1.812,2.389,2.389,0,0,1,1-2.062,4.915,4.915,0,0,1,2.879-.727h1.039v-.484a1.393,1.393,0,0,0-.3-.937,1.183,1.183,0,0,0-.949-.352,1.345,1.345,0,0,0-.895.273.929.929,0,0,0-.324.75h-2.258a2.268,2.268,0,0,1,.453-1.359,3,3,0,0,1,1.281-.98,4.669,4.669,0,0,1,1.859-.355,3.689,3.689,0,0,1,2.48.785,2.747,2.747,0,0,1,.918,2.207v3.664a4.041,4.041,0,0,0,.336,1.82V17Zm-1.867-1.57a1.945,1.945,0,0,0,.922-.223,1.462,1.462,0,0,0,.625-.6V13.156h-.844q-1.7,0-1.8,1.172l-.008.133a.9.9,0,0,0,.3.7A1.153,1.153,0,0,0,179.988,15.43Zm7.93,1.57h-2.266V5h2.266Zm1.508-4.3a5.013,5.013,0,0,1,.484-2.242A3.546,3.546,0,0,1,191.3,8.93a4.069,4.069,0,0,1,2.113-.539,3.849,3.849,0,0,1,2.793,1.047,4.2,4.2,0,0,1,1.207,2.844l.016.578a4.418,4.418,0,0,1-1.086,3.121,4.209,4.209,0,0,1-5.832,0,4.5,4.5,0,0,1-1.09-3.187Zm2.258.164a3.151,3.151,0,0,0,.453,1.84,1.629,1.629,0,0,0,2.578.008,3.448,3.448,0,0,0,.461-2.012,3.12,3.12,0,0,0-.461-1.828,1.5,1.5,0,0,0-1.3-.648,1.475,1.475,0,0,0-1.281.645A3.506,3.506,0,0,0,191.684,12.859Zm6.813-.148a4.954,4.954,0,0,1,.926-3.133,3,3,0,0,1,2.5-1.187,2.631,2.631,0,0,1,2.164.953l.094-.8h2.047v8.172a3.613,3.613,0,0,1-.5,1.93A3.236,3.236,0,0,1,204.3,19.9a4.985,4.985,0,0,1-2.141.43,4.635,4.635,0,0,1-1.812-.371A3.217,3.217,0,0,1,199.012,19l1-1.375a2.645,2.645,0,0,0,2.047.945,1.936,1.936,0,0,0,1.4-.48,1.8,1.8,0,0,0,.5-1.363v-.453a2.612,2.612,0,0,1-2.055.883,2.992,2.992,0,0,1-2.465-1.191,4.953,4.953,0,0,1-.941-3.16Zm2.258.164a3.076,3.076,0,0,0,.461,1.8,1.467,1.467,0,0,0,1.266.652,1.568,1.568,0,0,0,1.477-.773V11a1.565,1.565,0,0,0-1.461-.773,1.476,1.476,0,0,0-1.277.664A3.467,3.467,0,0,0,200.754,12.875ZM210.395,17h-2.258V8.547h2.258ZM209.73,5.117h2.461l-2.164,2.422h-1.836ZM217.238,17a2.507,2.507,0,0,1-.227-.758,2.732,2.732,0,0,1-2.133.914,3,3,0,0,1-2.059-.719A2.312,2.312,0,0,1,212,14.625a2.389,2.389,0,0,1,1-2.062,4.915,4.915,0,0,1,2.879-.727h1.039v-.484a1.393,1.393,0,0,0-.3-.937,1.183,1.183,0,0,0-.949-.352,1.345,1.345,0,0,0-.895.273.929.929,0,0,0-.324.75h-2.258a2.268,2.268,0,0,1,.453-1.359,3,3,0,0,1,1.281-.98,4.669,4.669,0,0,1,1.859-.355,3.689,3.689,0,0,1,2.48.785,2.747,2.747,0,0,1,.918,2.207v3.664a4.041,4.041,0,0,0,.336,1.82V17Zm-1.867-1.57a1.945,1.945,0,0,0,.922-.223,1.462,1.462,0,0,0,.625-.6V13.156h-.844q-1.7,0-1.8,1.172l-.008.133a.9.9,0,0,0,.3.7A1.153,1.153,0,0,0,215.371,15.43Zm9.18-2.719a5.094,5.094,0,0,1,.887-3.148,2.877,2.877,0,0,1,2.426-1.172,2.589,2.589,0,0,1,2.039.922V5h2.266V17h-2.039l-.109-.9a2.657,2.657,0,0,1-2.172,1.055,2.869,2.869,0,0,1-2.395-1.176A5.258,5.258,0,0,1,224.551,12.711Zm2.258.164a3.328,3.328,0,0,0,.414,1.82,1.349,1.349,0,0,0,1.2.633,1.511,1.511,0,0,0,1.477-.883V11.109a1.489,1.489,0,0,0-1.461-.883Q226.809,10.227,226.809,12.875Zm11,4.281a4.15,4.15,0,0,1-3.027-1.141,4.054,4.054,0,0,1-1.168-3.039v-.219a5.106,5.106,0,0,1,.492-2.277A3.612,3.612,0,0,1,235.5,8.934a3.914,3.914,0,0,1,2.059-.543,3.508,3.508,0,0,1,2.73,1.094,4.444,4.444,0,0,1,1,3.1v.922H235.9a2.1,2.1,0,0,0,.66,1.328,2,2,0,0,0,1.395.5A2.437,2.437,0,0,0,240,14.391l1.109,1.242a3.389,3.389,0,0,1-1.375,1.121A4.511,4.511,0,0,1,237.809,17.156Zm-.258-6.937a1.414,1.414,0,0,0-1.09.453,2.341,2.341,0,0,0-.535,1.3h3.141v-.18a1.669,1.669,0,0,0-.406-1.16A1.459,1.459,0,0,0,237.551,10.219Zm7.4,6.781h-2.266V5h2.266Zm9.359-1.664a1.481,1.481,0,0,0,1.016-.344,1.2,1.2,0,0,0,.406-.914h2.117a2.9,2.9,0,0,1-.469,1.574,3.093,3.093,0,0,1-1.262,1.109,3.949,3.949,0,0,1-1.77.395A3.67,3.67,0,0,1,251.488,16a4.56,4.56,0,0,1-1.047-3.184v-.148a4.508,4.508,0,0,1,1.039-3.117,3.627,3.627,0,0,1,2.852-1.164,3.555,3.555,0,0,1,2.543.9,3.2,3.2,0,0,1,.973,2.4H255.73a1.539,1.539,0,0,0-.406-1.066,1.513,1.513,0,0,0-2.223.164,3.324,3.324,0,0,0-.4,1.863v.234a3.366,3.366,0,0,0,.4,1.875A1.378,1.378,0,0,0,254.309,15.336ZM261.52,17h-2.266V8.547h2.266Zm-2.4-10.641a1.112,1.112,0,0,1,.34-.836,1.465,1.465,0,0,1,1.848,0,1.105,1.105,0,0,1,.344.836,1.108,1.108,0,0,1-.348.844,1.448,1.448,0,0,1-1.836,0A1.108,1.108,0,0,1,259.121,6.359ZM265.762,17H263.5V5h2.266ZM270,17h-2.266V8.547H270Zm-2.4-10.641a1.112,1.112,0,0,1,.34-.836,1.465,1.465,0,0,1,1.848,0,1.105,1.105,0,0,1,.344.836,1.108,1.108,0,0,1-.348.844,1.448,1.448,0,0,1-1.836,0A1.108,1.108,0,0,1,267.605,6.359Zm6.336,2.188.07.977a2.951,2.951,0,0,1,2.43-1.133,2.453,2.453,0,0,1,2,.789,3.681,3.681,0,0,1,.672,2.359V17h-2.258V11.594a1.465,1.465,0,0,0-.312-1.043,1.4,1.4,0,0,0-1.039-.324,1.553,1.553,0,0,0-1.43.813V17h-2.258V8.547Zm6.531,4.164a5.094,5.094,0,0,1,.887-3.148,2.877,2.877,0,0,1,2.426-1.172,2.589,2.589,0,0,1,2.039.922V5h2.266V17h-2.039l-.109-.9a2.657,2.657,0,0,1-2.172,1.055,2.869,2.869,0,0,1-2.395-1.176A5.258,5.258,0,0,1,280.473,12.711Zm2.258.164a3.328,3.328,0,0,0,.414,1.82,1.349,1.349,0,0,0,1.2.633,1.511,1.511,0,0,0,1.477-.883V11.109a1.489,1.489,0,0,0-1.461-.883Q282.73,10.227,282.73,12.875Zm11.859-2.211a6.134,6.134,0,0,0-.812-.062,1.654,1.654,0,0,0-1.68.867V17H289.84V8.547h2.133l.063,1.008a2.092,2.092,0,0,1,1.883-1.164,2.366,2.366,0,0,1,.7.1Zm.453,2.031a5.013,5.013,0,0,1,.484-2.242,3.546,3.546,0,0,1,1.395-1.523,4.069,4.069,0,0,1,2.113-.539,3.849,3.849,0,0,1,2.793,1.047,4.2,4.2,0,0,1,1.207,2.844l.016.578a4.418,4.418,0,0,1-1.086,3.121,4.209,4.209,0,0,1-5.832,0,4.5,4.5,0,0,1-1.09-3.187Zm2.258.164a3.151,3.151,0,0,0,.453,1.84,1.629,1.629,0,0,0,2.578.008,3.448,3.448,0,0,0,.461-2.012,3.12,3.12,0,0,0-.461-1.828,1.5,1.5,0,0,0-1.3-.648,1.475,1.475,0,0,0-1.281.645A3.506,3.506,0,0,0,297.3,12.859Zm14.281.945,1.563-5.258h2.422l-3.4,9.766-.187.445a2.577,2.577,0,0,1-2.5,1.656,3.552,3.552,0,0,1-1-.148V18.555l.344.008a1.857,1.857,0,0,0,.957-.2,1.283,1.283,0,0,0,.5-.648l.266-.7-2.961-8.477h2.43Zm12.75,3.352a4.15,4.15,0,0,1-3.027-1.141,4.054,4.054,0,0,1-1.168-3.039v-.219a5.106,5.106,0,0,1,.492-2.277,3.612,3.612,0,0,1,1.395-1.547,3.914,3.914,0,0,1,2.059-.543,3.508,3.508,0,0,1,2.73,1.094,4.444,4.444,0,0,1,1,3.1v.922h-5.383a2.1,2.1,0,0,0,.66,1.328,2,2,0,0,0,1.395.5,2.437,2.437,0,0,0,2.039-.945l1.109,1.242a3.389,3.389,0,0,1-1.375,1.121A4.511,4.511,0,0,1,324.332,17.156Zm-.258-6.937a1.414,1.414,0,0,0-1.09.453,2.341,2.341,0,0,0-.535,1.3h3.141v-.18a1.669,1.669,0,0,0-.406-1.16A1.459,1.459,0,0,0,324.074,10.219Zm7.4,6.781h-2.266V5h2.266Zm9.359-1.664a1.481,1.481,0,0,0,1.016-.344,1.2,1.2,0,0,0,.406-.914h2.117a2.9,2.9,0,0,1-.469,1.574,3.093,3.093,0,0,1-1.262,1.109,3.949,3.949,0,0,1-1.77.395A3.67,3.67,0,0,1,338.012,16a4.56,4.56,0,0,1-1.047-3.184v-.148A4.508,4.508,0,0,1,338,9.555a3.627,3.627,0,0,1,2.852-1.164,3.555,3.555,0,0,1,2.543.9,3.2,3.2,0,0,1,.973,2.4h-2.117a1.539,1.539,0,0,0-.406-1.066,1.513,1.513,0,0,0-2.223.164,3.324,3.324,0,0,0-.4,1.863v.234a3.366,3.366,0,0,0,.4,1.875A1.378,1.378,0,0,0,340.832,15.336Zm9.891.8a2.831,2.831,0,0,1-2.312,1.016,2.67,2.67,0,0,1-2.074-.781,3.335,3.335,0,0,1-.73-2.289V8.547h2.258v5.461q0,1.32,1.2,1.32a1.631,1.631,0,0,0,1.578-.8V8.547h2.266V17h-2.125Zm7.781,1.016a4.15,4.15,0,0,1-3.027-1.141,4.054,4.054,0,0,1-1.168-3.039v-.219a5.106,5.106,0,0,1,.492-2.277A3.612,3.612,0,0,1,356.2,8.934a3.914,3.914,0,0,1,2.059-.543,3.508,3.508,0,0,1,2.73,1.094,4.444,4.444,0,0,1,1,3.1v.922H356.6a2.1,2.1,0,0,0,.66,1.328,2,2,0,0,0,1.395.5,2.437,2.437,0,0,0,2.039-.945l1.109,1.242a3.389,3.389,0,0,1-1.375,1.121A4.511,4.511,0,0,1,358.5,17.156Zm-.258-6.937a1.414,1.414,0,0,0-1.09.453,2.341,2.341,0,0,0-.535,1.3h3.141v-.18a1.669,1.669,0,0,0-.406-1.16A1.459,1.459,0,0,0,358.246,10.219Zm9.766.445a6.134,6.134,0,0,0-.812-.062,1.654,1.654,0,0,0-1.68.867V17h-2.258V8.547h2.133l.063,1.008a2.092,2.092,0,0,1,1.883-1.164,2.366,2.366,0,0,1,.7.1Zm8.7,2.188a5.07,5.07,0,0,1-.887,3.129,2.843,2.843,0,0,1-2.395,1.176,2.633,2.633,0,0,1-2.07-.891V20.25H369.1V8.547h2.094l.078.828a2.654,2.654,0,0,1,2.141-.984,2.862,2.862,0,0,1,2.43,1.156,5.207,5.207,0,0,1,.867,3.188Zm-2.258-.164a3.327,3.327,0,0,0-.418-1.82,1.361,1.361,0,0,0-1.215-.641,1.478,1.478,0,0,0-1.461.813V14.5a1.5,1.5,0,0,0,1.477.836Q374.449,15.336,374.449,12.688Zm3.3.008a5.013,5.013,0,0,1,.484-2.242,3.546,3.546,0,0,1,1.395-1.523,4.069,4.069,0,0,1,2.113-.539,3.849,3.849,0,0,1,2.793,1.047,4.2,4.2,0,0,1,1.207,2.844l.016.578a4.418,4.418,0,0,1-1.086,3.121,4.209,4.209,0,0,1-5.832,0,4.5,4.5,0,0,1-1.09-3.187Zm2.258.164a3.151,3.151,0,0,0,.453,1.84,1.629,1.629,0,0,0,2.578.008A3.448,3.448,0,0,0,383.5,12.7a3.12,3.12,0,0,0-.461-1.828,1.5,1.5,0,0,0-1.3-.648,1.475,1.475,0,0,0-1.281.645A3.506,3.506,0,0,0,380.012,12.859ZM393.34,9.469A2.818,2.818,0,0,1,395.6,8.391q2.75,0,2.789,3.2V17h-2.258V11.648a1.57,1.57,0,0,0-.312-1.074,1.34,1.34,0,0,0-1.039-.348,1.537,1.537,0,0,0-1.437.766V17h-2.258V5h2.258Zm11.813,6.672a2.831,2.831,0,0,1-2.312,1.016,2.67,2.67,0,0,1-2.074-.781,3.335,3.335,0,0,1-.73-2.289V8.547h2.258v5.461q0,1.32,1.2,1.32a1.631,1.631,0,0,0,1.578-.8V8.547h2.266V17h-2.125Zm6.008-7.594.07.945a2.971,2.971,0,0,1,2.43-1.1A2.255,2.255,0,0,1,415.9,9.68a2.9,2.9,0,0,1,2.539-1.289,2.521,2.521,0,0,1,2.047.8,3.681,3.681,0,0,1,.672,2.41V17h-2.266V11.609a1.61,1.61,0,0,0-.281-1.051,1.246,1.246,0,0,0-.992-.332,1.409,1.409,0,0,0-1.406.969l.008,5.8h-2.258V11.617a1.59,1.59,0,0,0-.289-1.062,1.259,1.259,0,0,0-.984-.328,1.463,1.463,0,0,0-1.391.8V17h-2.258V8.547ZM427.793,17a2.508,2.508,0,0,1-.227-.758,2.732,2.732,0,0,1-2.133.914,3,3,0,0,1-2.059-.719,2.312,2.312,0,0,1-.816-1.812,2.389,2.389,0,0,1,1-2.062,4.915,4.915,0,0,1,2.879-.727h1.039v-.484a1.393,1.393,0,0,0-.3-.937,1.183,1.183,0,0,0-.949-.352,1.345,1.345,0,0,0-.895.273.929.929,0,0,0-.324.75h-2.258a2.268,2.268,0,0,1,.453-1.359,3,3,0,0,1,1.281-.98,4.669,4.669,0,0,1,1.859-.355,3.689,3.689,0,0,1,2.48.785,2.747,2.747,0,0,1,.918,2.207v3.664a4.041,4.041,0,0,0,.336,1.82V17Zm-1.867-1.57a1.945,1.945,0,0,0,.922-.223,1.462,1.462,0,0,0,.625-.6V13.156h-.844q-1.7,0-1.8,1.172l-.008.133a.9.9,0,0,0,.3.7A1.153,1.153,0,0,0,425.926,15.43Zm7.625-6.883.07.977a2.951,2.951,0,0,1,2.43-1.133,2.453,2.453,0,0,1,2,.789,3.681,3.681,0,0,1,.672,2.359V17h-2.258V11.594a1.465,1.465,0,0,0-.312-1.043,1.4,1.4,0,0,0-1.039-.324,1.553,1.553,0,0,0-1.43.813V17h-2.258V8.547Zm6.531,4.148a5.013,5.013,0,0,1,.484-2.242,3.546,3.546,0,0,1,1.395-1.523,4.069,4.069,0,0,1,2.113-.539,3.849,3.849,0,0,1,2.793,1.047,4.2,4.2,0,0,1,1.207,2.844l.016.578A4.418,4.418,0,0,1,447,15.98a4.209,4.209,0,0,1-5.832,0,4.5,4.5,0,0,1-1.09-3.187Zm2.258.164a3.151,3.151,0,0,0,.453,1.84,1.629,1.629,0,0,0,2.578.008,3.448,3.448,0,0,0,.461-2.012,3.12,3.12,0,0,0-.461-1.828,1.5,1.5,0,0,0-1.3-.648,1.475,1.475,0,0,0-1.281.645A3.506,3.506,0,0,0,442.34,12.859Zm7.258,3.031a1.137,1.137,0,0,1,.363-.875,1.412,1.412,0,0,1,1.828,0,1.137,1.137,0,0,1,.363.875,1.121,1.121,0,0,1-.359.863,1.435,1.435,0,0,1-1.836,0A1.121,1.121,0,0,1,449.6,15.891Z" transform="translate(495 6790)" fill="#12263f" stroke="rgba(0,0,0,0)" stroke-width="1"/><g transform="translate(0 -18)"><path d="M10.118,12.616a3.923,3.923,0,0,1-1.249,2.611,4.093,4.093,0,0,1-2.794.919,3.758,3.758,0,0,1-3.029-1.355,5.451,5.451,0,0,1-1.139-3.625V10.141a6.076,6.076,0,0,1,.531-2.615A3.966,3.966,0,0,1,3.943,5.794a4.191,4.191,0,0,1,2.256-.6,3.853,3.853,0,0,1,2.725.948,3.971,3.971,0,0,1,1.194,2.626H8.7a3.05,3.05,0,0,0-.795-1.846A2.409,2.409,0,0,0,6.2,6.347a2.517,2.517,0,0,0-2.113,1,4.57,4.57,0,0,0-.765,2.834V11.21a4.7,4.7,0,0,0,.725,2.761A2.344,2.344,0,0,0,6.075,15a2.706,2.706,0,0,0,1.8-.531A2.947,2.947,0,0,0,8.7,12.616ZM13.3,16H11.941V8.075H13.3ZM11.832,5.973a.809.809,0,0,1,.2-.557.756.756,0,0,1,.6-.227.768.768,0,0,1,.6.227.8.8,0,0,1,.205.557.774.774,0,0,1-.205.549.782.782,0,0,1-.6.22.77.77,0,0,1-.6-.22A.782.782,0,0,1,11.832,5.973ZM16.937,16H15.582V4.75h1.355Zm3.64,0H19.222V8.075h1.355ZM19.112,5.973a.809.809,0,0,1,.2-.557.756.756,0,0,1,.6-.227.768.768,0,0,1,.6.227.8.8,0,0,1,.205.557.774.774,0,0,1-.205.549.782.782,0,0,1-.6.22.77.77,0,0,1-.6-.22A.782.782,0,0,1,19.112,5.973Zm4.915,2.1.044,1a2.888,2.888,0,0,1,2.373-1.143q2.512,0,2.534,2.834V16H27.623V10.756a1.824,1.824,0,0,0-.392-1.267,1.57,1.57,0,0,0-1.2-.41,1.956,1.956,0,0,0-1.157.352,2.387,2.387,0,0,0-.776.923V16H22.745V8.075Zm6.665,3.9a4.642,4.642,0,0,1,.864-2.933,2.941,2.941,0,0,1,4.468-.157V4.75h1.355V16H36.133l-.066-.85a2.759,2.759,0,0,1-2.263,1,2.707,2.707,0,0,1-2.245-1.128,4.7,4.7,0,0,1-.868-2.944Zm1.355.154a3.515,3.515,0,0,0,.557,2.109A1.8,1.8,0,0,0,34.141,15a1.977,1.977,0,0,0,1.882-1.157V10.2a1.992,1.992,0,0,0-1.868-1.121,1.808,1.808,0,0,0-1.553.769A3.87,3.87,0,0,0,32.046,12.125ZM43.311,9.291a4.06,4.06,0,0,0-.667-.051,1.786,1.786,0,0,0-1.809,1.135V16H39.48V8.075H40.8l.022.916a2.11,2.11,0,0,1,1.89-1.062,1.384,1.384,0,0,1,.6.1Zm.74,2.673a4.681,4.681,0,0,1,.458-2.095,3.415,3.415,0,0,1,1.274-1.436,3.469,3.469,0,0,1,1.864-.505,3.342,3.342,0,0,1,2.618,1.121,4.311,4.311,0,0,1,1,2.981v.1a4.722,4.722,0,0,1-.443,2.076,3.365,3.365,0,0,1-1.267,1.432,3.509,3.509,0,0,1-1.893.513,3.334,3.334,0,0,1-2.611-1.121,4.29,4.29,0,0,1-1-2.966Zm1.362.161a3.39,3.39,0,0,0,.612,2.117,2.072,2.072,0,0,0,3.278-.011,3.707,3.707,0,0,0,.608-2.267,3.384,3.384,0,0,0-.619-2.113,1.968,1.968,0,0,0-1.644-.809,1.946,1.946,0,0,0-1.619.8A3.68,3.68,0,0,0,45.413,12.125Zm10.935-.154a4.651,4.651,0,0,1,.857-2.955,3.024,3.024,0,0,1,4.519-.143l.059-.8h1.245V19.047H61.673V15.268a2.844,2.844,0,0,1-2.183.879A2.733,2.733,0,0,1,57.2,15.03a4.755,4.755,0,0,1-.853-2.963Zm1.355.154a3.526,3.526,0,0,0,.575,2.139,1.829,1.829,0,0,0,1.549.776,2.029,2.029,0,0,0,1.846-1.069V10.089a2.035,2.035,0,0,0-1.831-1.047,1.843,1.843,0,0,0-1.56.78A3.838,3.838,0,0,0,57.7,12.125ZM70.1,15.216a2.878,2.878,0,0,1-2.322.93,2.464,2.464,0,0,1-1.93-.736,3.186,3.186,0,0,1-.67-2.179V8.075h1.355v5.12q0,1.8,1.465,1.8a2.028,2.028,0,0,0,2.065-1.157V8.075h1.355V16H70.125Zm6.665.93a3.463,3.463,0,0,1-2.622-1.058,3.928,3.928,0,0,1-1.011-2.831v-.249a4.756,4.756,0,0,1,.45-2.106,3.514,3.514,0,0,1,1.26-1.45,3.167,3.167,0,0,1,1.754-.524,2.968,2.968,0,0,1,2.4,1.018,4.408,4.408,0,0,1,.857,2.915v.564H74.483a2.817,2.817,0,0,0,.685,1.893,2.153,2.153,0,0,0,1.666.721,2.36,2.36,0,0,0,1.216-.293,3.055,3.055,0,0,0,.872-.776l.828.645A3.328,3.328,0,0,1,76.761,16.146Zm-.168-7.1a1.807,1.807,0,0,0-1.377.6,2.9,2.9,0,0,0-.688,1.674H78.5v-.1a2.581,2.581,0,0,0-.557-1.6A1.7,1.7,0,0,0,76.592,9.042Zm11.829,7.1A3.463,3.463,0,0,1,85.8,15.088a3.928,3.928,0,0,1-1.011-2.831v-.249a4.756,4.756,0,0,1,.45-2.106,3.514,3.514,0,0,1,1.26-1.45,3.167,3.167,0,0,1,1.754-.524,2.968,2.968,0,0,1,2.4,1.018,4.408,4.408,0,0,1,.857,2.915v.564H86.143a2.817,2.817,0,0,0,.685,1.893,2.153,2.153,0,0,0,1.666.721,2.36,2.36,0,0,0,1.216-.293,3.055,3.055,0,0,0,.872-.776l.828.645A3.328,3.328,0,0,1,88.421,16.146Zm-.168-7.1a1.807,1.807,0,0,0-1.377.6,2.9,2.9,0,0,0-.688,1.674h3.97v-.1a2.581,2.581,0,0,0-.557-1.6A1.7,1.7,0,0,0,88.252,9.042Zm6.108-.967.044,1a2.888,2.888,0,0,1,2.373-1.143q2.512,0,2.534,2.834V16H97.957V10.756a1.824,1.824,0,0,0-.392-1.267,1.57,1.57,0,0,0-1.2-.41,1.956,1.956,0,0,0-1.157.352,2.387,2.387,0,0,0-.776.923V16H93.079V8.075Zm9.609,6.086,1.963-6.086h1.384L104.476,16h-1.033l-2.871-7.925h1.384Zm9.543,1.055a2.878,2.878,0,0,1-2.322.93,2.464,2.464,0,0,1-1.93-.736,3.186,3.186,0,0,1-.67-2.179V8.075h1.355v5.12q0,1.8,1.465,1.8a2.028,2.028,0,0,0,2.065-1.157V8.075h1.355V16h-1.289Zm6.665.93a3.463,3.463,0,0,1-2.622-1.058,3.928,3.928,0,0,1-1.011-2.831v-.249A4.756,4.756,0,0,1,117,9.9a3.514,3.514,0,0,1,1.26-1.45,3.167,3.167,0,0,1,1.754-.524,2.968,2.968,0,0,1,2.4,1.018,4.408,4.408,0,0,1,.857,2.915v.564H117.9a2.817,2.817,0,0,0,.685,1.893,2.153,2.153,0,0,0,1.666.721,2.36,2.36,0,0,0,1.216-.293,3.055,3.055,0,0,0,.872-.776l.828.645A3.328,3.328,0,0,1,120.179,16.146Zm-.168-7.1a1.807,1.807,0,0,0-1.377.6,2.9,2.9,0,0,0-.688,1.674h3.97v-.1a2.581,2.581,0,0,0-.557-1.6A1.7,1.7,0,0,0,120.01,9.042Zm6.3,6.958h-1.355V4.75h1.355Zm4.783-1.838,1.963-6.086h1.384L131.6,16h-1.033l-2.871-7.925h1.384Zm7.939,1.985a3.463,3.463,0,0,1-2.622-1.058,3.928,3.928,0,0,1-1.011-2.831v-.249a4.756,4.756,0,0,1,.45-2.106,3.514,3.514,0,0,1,1.26-1.45,3.167,3.167,0,0,1,1.754-.524,2.968,2.968,0,0,1,2.4,1.018,4.408,4.408,0,0,1,.857,2.915v.564h-5.369a2.817,2.817,0,0,0,.685,1.893,2.153,2.153,0,0,0,1.666.721,2.36,2.36,0,0,0,1.216-.293,3.055,3.055,0,0,0,.872-.776l.828.645A3.328,3.328,0,0,1,139.031,16.146Zm-.168-7.1a1.807,1.807,0,0,0-1.377.6,2.9,2.9,0,0,0-.688,1.674h3.97v-.1a2.581,2.581,0,0,0-.557-1.6A1.7,1.7,0,0,0,138.863,9.042Zm11.829,7.1a3.463,3.463,0,0,1-2.622-1.058,3.928,3.928,0,0,1-1.011-2.831v-.249a4.756,4.756,0,0,1,.45-2.106,3.514,3.514,0,0,1,1.26-1.45,3.167,3.167,0,0,1,1.754-.524,2.968,2.968,0,0,1,2.4,1.018,4.408,4.408,0,0,1,.857,2.915v.564h-5.369a2.817,2.817,0,0,0,.685,1.893,2.153,2.153,0,0,0,1.666.721,2.36,2.36,0,0,0,1.216-.293,3.055,3.055,0,0,0,.872-.776l.828.645A3.328,3.328,0,0,1,150.691,16.146Zm-.168-7.1a1.807,1.807,0,0,0-1.377.6,2.9,2.9,0,0,0-.688,1.674h3.97v-.1a2.581,2.581,0,0,0-.557-1.6A1.7,1.7,0,0,0,150.523,9.042Zm6.3,6.958h-1.355V4.75h1.355ZM31.457,31.041a1.952,1.952,0,0,0,1.267-.439,1.546,1.546,0,0,0,.6-1.1h1.282a2.457,2.457,0,0,1-.469,1.3,3.087,3.087,0,0,1-1.154.981,3.329,3.329,0,0,1-1.527.366,3.265,3.265,0,0,1-2.574-1.08,4.3,4.3,0,0,1-.956-2.955v-.227a4.771,4.771,0,0,1,.425-2.058,3.236,3.236,0,0,1,1.219-1.4,3.464,3.464,0,0,1,1.879-.5,3.178,3.178,0,0,1,2.216.8,2.853,2.853,0,0,1,.941,2.073H33.324a1.867,1.867,0,0,0-.582-1.263,1.811,1.811,0,0,0-1.293-.494,1.9,1.9,0,0,0-1.6.743,3.491,3.491,0,0,0-.568,2.15v.256a3.422,3.422,0,0,0,.564,2.109A1.906,1.906,0,0,0,31.457,31.041Zm9.565.176a2.878,2.878,0,0,1-2.322.93,2.464,2.464,0,0,1-1.93-.736,3.186,3.186,0,0,1-.67-2.179V24.075h1.355v5.12q0,1.8,1.465,1.8a2.028,2.028,0,0,0,2.065-1.157V24.075h1.355V32H41.052Zm6.665.93a3.463,3.463,0,0,1-2.622-1.058,3.928,3.928,0,0,1-1.011-2.831v-.249A4.756,4.756,0,0,1,44.5,25.9a3.514,3.514,0,0,1,1.26-1.45,3.167,3.167,0,0,1,1.754-.524,2.968,2.968,0,0,1,2.4,1.018,4.408,4.408,0,0,1,.857,2.915v.564H45.409a2.817,2.817,0,0,0,.685,1.893,2.153,2.153,0,0,0,1.666.721,2.36,2.36,0,0,0,1.216-.293,3.055,3.055,0,0,0,.872-.776l.828.645A3.328,3.328,0,0,1,47.687,32.146Zm-.168-7.1a1.807,1.807,0,0,0-1.377.6,2.9,2.9,0,0,0-.688,1.674h3.97v-.1a2.581,2.581,0,0,0-.557-1.6A1.7,1.7,0,0,0,47.519,25.042Zm8.657.249a4.06,4.06,0,0,0-.667-.051A1.786,1.786,0,0,0,53.7,26.375V32H52.345V24.075h1.318l.022.916a2.11,2.11,0,0,1,1.89-1.062,1.384,1.384,0,0,1,.6.1Zm7.939,2.834a4.745,4.745,0,0,1-.828,2.915,2.653,2.653,0,0,1-2.241,1.106,2.906,2.906,0,0,1-2.271-.916v3.816H57.421V24.075h1.238l.066.879a2.791,2.791,0,0,1,2.3-1.025,2.7,2.7,0,0,1,2.26,1.077,4.8,4.8,0,0,1,.831,3Zm-1.355-.154a3.5,3.5,0,0,0-.571-2.117,1.84,1.84,0,0,0-1.567-.776,1.992,1.992,0,0,0-1.846,1.091v3.787a2,2,0,0,0,1.86,1.084,1.832,1.832,0,0,0,1.549-.773A3.822,3.822,0,0,0,62.76,27.972Zm2.717-.007a4.681,4.681,0,0,1,.458-2.095,3.415,3.415,0,0,1,1.274-1.436,3.469,3.469,0,0,1,1.864-.505,3.342,3.342,0,0,1,2.618,1.121,4.311,4.311,0,0,1,1,2.981v.1a4.722,4.722,0,0,1-.443,2.076,3.365,3.365,0,0,1-1.267,1.432,3.509,3.509,0,0,1-1.893.513,3.334,3.334,0,0,1-2.611-1.121,4.29,4.29,0,0,1-1-2.966Zm1.362.161a3.39,3.39,0,0,0,.612,2.117,2.072,2.072,0,0,0,3.278-.011,3.707,3.707,0,0,0,.608-2.267,3.384,3.384,0,0,0-.619-2.113,1.968,1.968,0,0,0-1.644-.809,1.946,1.946,0,0,0-1.619.8A3.68,3.68,0,0,0,66.84,28.125Zm12.62-3.091A2.881,2.881,0,0,1,81.8,23.929q2.512,0,2.534,2.834V32H82.983V26.756a1.824,1.824,0,0,0-.392-1.267,1.57,1.57,0,0,0-1.2-.41,1.956,1.956,0,0,0-1.157.352,2.387,2.387,0,0,0-.776.923V32H78.1V20.75H79.46Zm11.8,6.182a2.878,2.878,0,0,1-2.322.93,2.464,2.464,0,0,1-1.93-.736,3.186,3.186,0,0,1-.67-2.179V24.075h1.355v5.12q0,1.8,1.465,1.8a2.028,2.028,0,0,0,2.065-1.157V24.075h1.355V32H91.288Zm4.651-7.141.037.879A2.927,2.927,0,0,1,98.3,23.929a2.266,2.266,0,0,1,2.263,1.274,3,3,0,0,1,1.029-.923,3.039,3.039,0,0,1,1.5-.352q2.607,0,2.651,2.761V32h-1.355V26.771A1.82,1.82,0,0,0,104,25.5a1.71,1.71,0,0,0-1.3-.421,1.8,1.8,0,0,0-1.252.45,1.827,1.827,0,0,0-.579,1.212V32H99.5V26.807a1.512,1.512,0,0,0-1.692-1.729,1.813,1.813,0,0,0-1.824,1.135V32H94.628V24.075ZM112.675,32a2.846,2.846,0,0,1-.19-.835,3.023,3.023,0,0,1-2.256.981,2.8,2.8,0,0,1-1.923-.663,2.145,2.145,0,0,1-.751-1.681,2.24,2.24,0,0,1,.941-1.923,4.437,4.437,0,0,1,2.648-.685h1.318v-.623a1.522,1.522,0,0,0-.425-1.132,1.707,1.707,0,0,0-1.252-.421,1.976,1.976,0,0,0-1.216.366,1.079,1.079,0,0,0-.491.886h-1.362a1.87,1.87,0,0,1,.421-1.146,2.874,2.874,0,0,1,1.143-.875,3.844,3.844,0,0,1,1.586-.322,3.133,3.133,0,0,1,2.146.685,2.47,2.47,0,0,1,.806,1.886v3.647a4.459,4.459,0,0,0,.278,1.736V32Zm-2.249-1.033a2.381,2.381,0,0,0,1.208-.33,1.994,1.994,0,0,0,.828-.857V28.155H111.4q-2.49,0-2.49,1.458a1.234,1.234,0,0,0,.425,1A1.633,1.633,0,0,0,110.427,30.967Zm6.8-6.892.044,1a2.888,2.888,0,0,1,2.373-1.143q2.512,0,2.534,2.834V32H120.82V26.756a1.824,1.824,0,0,0-.392-1.267,1.57,1.57,0,0,0-1.2-.41,1.956,1.956,0,0,0-1.157.352,2.387,2.387,0,0,0-.776.923V32h-1.355V24.075Zm6.636,3.889a4.681,4.681,0,0,1,.458-2.095,3.415,3.415,0,0,1,1.274-1.436,3.469,3.469,0,0,1,1.864-.505,3.342,3.342,0,0,1,2.618,1.121,4.311,4.311,0,0,1,1,2.981v.1a4.722,4.722,0,0,1-.443,2.076,3.365,3.365,0,0,1-1.267,1.432,3.509,3.509,0,0,1-1.893.513,3.334,3.334,0,0,1-2.611-1.121,4.29,4.29,0,0,1-1-2.966Zm1.362.161a3.39,3.39,0,0,0,.612,2.117,2.072,2.072,0,0,0,3.278-.011,3.707,3.707,0,0,0,.608-2.267,3.384,3.384,0,0,0-.619-2.113,1.968,1.968,0,0,0-1.644-.809,1.946,1.946,0,0,0-1.619.8A3.68,3.68,0,0,0,125.221,28.125Z" transform="translate(475 6473)" fill="#12263f" stroke="rgba(0,0,0,0)" stroke-width="1"/><path d="M21.452,12.616A3.923,3.923,0,0,1,20.2,15.227a4.093,4.093,0,0,1-2.794.919,3.758,3.758,0,0,1-3.029-1.355,5.451,5.451,0,0,1-1.139-3.625V10.141a6.076,6.076,0,0,1,.531-2.615,3.966,3.966,0,0,1,1.505-1.732,4.191,4.191,0,0,1,2.256-.6,3.853,3.853,0,0,1,2.725.948,3.971,3.971,0,0,1,1.194,2.626H20.038a3.05,3.05,0,0,0-.795-1.846,2.409,2.409,0,0,0-1.71-.571,2.517,2.517,0,0,0-2.113,1,4.57,4.57,0,0,0-.765,2.834V11.21a4.7,4.7,0,0,0,.725,2.761A2.344,2.344,0,0,0,17.409,15a2.706,2.706,0,0,0,1.8-.531,2.947,2.947,0,0,0,.831-1.849Zm1.348-.652a4.681,4.681,0,0,1,.458-2.095,3.415,3.415,0,0,1,1.274-1.436A3.469,3.469,0,0,1,26.4,7.929a3.342,3.342,0,0,1,2.618,1.121,4.311,4.311,0,0,1,1,2.981v.1a4.722,4.722,0,0,1-.443,2.076A3.365,3.365,0,0,1,28.3,15.634a3.509,3.509,0,0,1-1.893.513A3.334,3.334,0,0,1,23.8,15.026a4.29,4.29,0,0,1-1-2.966Zm1.362.161a3.39,3.39,0,0,0,.612,2.117,2.072,2.072,0,0,0,3.278-.011,3.707,3.707,0,0,0,.608-2.267,3.384,3.384,0,0,0-.619-2.113A1.968,1.968,0,0,0,26.4,9.042a1.946,1.946,0,0,0-1.619.8A3.68,3.68,0,0,0,24.162,12.125ZM35.544,9.291a4.06,4.06,0,0,0-.667-.051,1.786,1.786,0,0,0-1.809,1.135V16H31.713V8.075h1.318l.022.916a2.11,2.11,0,0,1,1.89-1.062,1.384,1.384,0,0,1,.6.1Zm3.45-3.135V8.075h1.479V9.123H38.993v4.915a1.1,1.1,0,0,0,.2.714.833.833,0,0,0,.674.238,3.281,3.281,0,0,0,.645-.088V16a3.928,3.928,0,0,1-1.04.146A1.687,1.687,0,0,1,38.1,15.6a2.36,2.36,0,0,1-.461-1.56V9.123H36.2V8.075h1.443V6.156ZM46.948,16a2.846,2.846,0,0,1-.19-.835,3.023,3.023,0,0,1-2.256.981,2.8,2.8,0,0,1-1.923-.663,2.145,2.145,0,0,1-.751-1.681,2.24,2.24,0,0,1,.941-1.923,4.437,4.437,0,0,1,2.648-.685h1.318v-.623a1.522,1.522,0,0,0-.425-1.132,1.707,1.707,0,0,0-1.252-.421,1.976,1.976,0,0,0-1.216.366,1.079,1.079,0,0,0-.491.886H41.989a1.87,1.87,0,0,1,.421-1.146,2.874,2.874,0,0,1,1.143-.875,3.844,3.844,0,0,1,1.586-.322,3.133,3.133,0,0,1,2.146.685A2.47,2.47,0,0,1,48.09,10.5v3.647a4.459,4.459,0,0,0,.278,1.736V16ZM44.7,14.967a2.381,2.381,0,0,0,1.208-.33,1.994,1.994,0,0,0,.828-.857V12.155H45.673q-2.49,0-2.49,1.458a1.234,1.234,0,0,0,.425,1A1.633,1.633,0,0,0,44.7,14.967Zm6.79-6.892.037.879a2.927,2.927,0,0,1,2.351-1.025A2.266,2.266,0,0,1,56.139,9.2a3,3,0,0,1,1.029-.923,3.039,3.039,0,0,1,1.5-.352q2.607,0,2.651,2.761V16H59.963V10.771A1.82,1.82,0,0,0,59.574,9.5a1.71,1.71,0,0,0-1.3-.421,1.8,1.8,0,0,0-1.252.45,1.827,1.827,0,0,0-.579,1.212V16H55.077V10.807a1.512,1.512,0,0,0-1.692-1.729,1.813,1.813,0,0,0-1.824,1.135V16H50.207V8.075ZM63,11.964A4.681,4.681,0,0,1,63.46,9.87a3.415,3.415,0,0,1,1.274-1.436A3.469,3.469,0,0,1,66.6,7.929a3.342,3.342,0,0,1,2.618,1.121,4.311,4.311,0,0,1,1,2.981v.1a4.722,4.722,0,0,1-.443,2.076,3.365,3.365,0,0,1-1.267,1.432,3.509,3.509,0,0,1-1.893.513A3.334,3.334,0,0,1,64,15.026a4.29,4.29,0,0,1-1-2.966Zm1.362.161a3.39,3.39,0,0,0,.612,2.117,2.072,2.072,0,0,0,3.278-.011,3.707,3.707,0,0,0,.608-2.267,3.384,3.384,0,0,0-.619-2.113A1.968,1.968,0,0,0,66.6,9.042a1.946,1.946,0,0,0-1.619.8A3.68,3.68,0,0,0,64.365,12.125ZM76.53,13.9a1,1,0,0,0-.414-.853,3.983,3.983,0,0,0-1.443-.524,6.822,6.822,0,0,1-1.633-.527,2.324,2.324,0,0,1-.894-.732,1.752,1.752,0,0,1-.289-1.011A2.056,2.056,0,0,1,72.681,8.6a3.218,3.218,0,0,1,2.106-.674,3.311,3.311,0,0,1,2.186.7,2.21,2.21,0,0,1,.839,1.78H76.449a1.223,1.223,0,0,0-.472-.959,1.77,1.77,0,0,0-1.19-.4,1.852,1.852,0,0,0-1.157.322,1.014,1.014,0,0,0-.417.842.822.822,0,0,0,.388.74,4.776,4.776,0,0,0,1.4.476,7.308,7.308,0,0,1,1.644.542,2.4,2.4,0,0,1,.934.758,1.864,1.864,0,0,1,.3,1.08,2.028,2.028,0,0,1-.85,1.7,3.564,3.564,0,0,1-2.2.641,3.991,3.991,0,0,1-1.685-.337A2.74,2.74,0,0,1,72,14.868a2.268,2.268,0,0,1-.414-1.307h1.355a1.4,1.4,0,0,0,.546,1.08,2.117,2.117,0,0,0,1.344.4,2.185,2.185,0,0,0,1.234-.311A.956.956,0,0,0,76.53,13.9Zm10.122,2.249a3.463,3.463,0,0,1-2.622-1.058,3.928,3.928,0,0,1-1.011-2.831v-.249A4.756,4.756,0,0,1,83.47,9.9a3.514,3.514,0,0,1,1.26-1.45,3.167,3.167,0,0,1,1.754-.524,2.968,2.968,0,0,1,2.4,1.018,4.408,4.408,0,0,1,.857,2.915v.564H84.374a2.817,2.817,0,0,0,.685,1.893,2.153,2.153,0,0,0,1.666.721,2.36,2.36,0,0,0,1.216-.293,3.055,3.055,0,0,0,.872-.776l.828.645A3.328,3.328,0,0,1,86.652,16.146Zm-.168-7.1a1.807,1.807,0,0,0-1.377.6,2.9,2.9,0,0,0-.688,1.674h3.97v-.1a2.581,2.581,0,0,0-.557-1.6A1.7,1.7,0,0,0,86.484,9.042ZM92.782,16H91.427V4.75h1.355Zm9.06-.959a1.952,1.952,0,0,0,1.267-.439,1.546,1.546,0,0,0,.6-1.1h1.282a2.457,2.457,0,0,1-.469,1.3,3.087,3.087,0,0,1-1.154.981,3.329,3.329,0,0,1-1.527.366,3.265,3.265,0,0,1-2.574-1.08,4.3,4.3,0,0,1-.956-2.955v-.227a4.771,4.771,0,0,1,.425-2.058,3.236,3.236,0,0,1,1.219-1.4,3.464,3.464,0,0,1,1.879-.5,3.178,3.178,0,0,1,2.216.8,2.853,2.853,0,0,1,.941,2.073H103.71a1.867,1.867,0,0,0-.582-1.263,1.811,1.811,0,0,0-1.293-.494,1.9,1.9,0,0,0-1.6.743,3.491,3.491,0,0,0-.568,2.15v.256a3.422,3.422,0,0,0,.564,2.109A1.906,1.906,0,0,0,101.843,15.041Zm6.145.959h-1.355V8.075h1.355ZM106.523,5.973a.809.809,0,0,1,.2-.557.756.756,0,0,1,.6-.227.768.768,0,0,1,.6.227.8.8,0,0,1,.205.557.774.774,0,0,1-.205.549.782.782,0,0,1-.6.22.77.77,0,0,1-.6-.22A.782.782,0,0,1,106.523,5.973ZM111.628,16h-1.355V4.75h1.355Zm3.64,0h-1.355V8.075h1.355ZM113.8,5.973a.809.809,0,0,1,.2-.557.756.756,0,0,1,.6-.227.768.768,0,0,1,.6.227.8.8,0,0,1,.205.557.774.774,0,0,1-.205.549.782.782,0,0,1-.6.22.77.77,0,0,1-.6-.22A.782.782,0,0,1,113.8,5.973Zm4.915,2.1.044,1a2.888,2.888,0,0,1,2.373-1.143q2.512,0,2.534,2.834V16h-1.355V10.756a1.824,1.824,0,0,0-.392-1.267,1.57,1.57,0,0,0-1.2-.41,1.956,1.956,0,0,0-1.157.352,2.387,2.387,0,0,0-.776.923V16h-1.355V8.075Zm6.665,3.9a4.642,4.642,0,0,1,.864-2.933,2.941,2.941,0,0,1,4.468-.157V4.75h1.355V16h-1.245l-.066-.85a2.759,2.759,0,0,1-2.263,1,2.707,2.707,0,0,1-2.245-1.128,4.7,4.7,0,0,1-.868-2.944Zm1.355.154a3.515,3.515,0,0,0,.557,2.109,1.8,1.8,0,0,0,1.538.762,1.977,1.977,0,0,0,1.882-1.157V10.2a1.992,1.992,0,0,0-1.868-1.121,1.808,1.808,0,0,0-1.553.769A3.87,3.87,0,0,0,126.738,12.125ZM138,9.291a4.06,4.06,0,0,0-.667-.051,1.786,1.786,0,0,0-1.809,1.135V16h-1.355V8.075h1.318l.022.916a2.11,2.11,0,0,1,1.89-1.062,1.384,1.384,0,0,1,.6.1Zm.74,2.673A4.681,4.681,0,0,1,139.2,9.87a3.415,3.415,0,0,1,1.274-1.436,3.469,3.469,0,0,1,1.864-.505,3.342,3.342,0,0,1,2.618,1.121,4.311,4.311,0,0,1,1,2.981v.1a4.722,4.722,0,0,1-.443,2.076,3.365,3.365,0,0,1-1.267,1.432,3.509,3.509,0,0,1-1.893.513,3.334,3.334,0,0,1-2.611-1.121,4.29,4.29,0,0,1-1-2.966Zm1.362.161a3.39,3.39,0,0,0,.612,2.117,2.072,2.072,0,0,0,3.278-.011,3.707,3.707,0,0,0,.608-2.267,3.384,3.384,0,0,0-.619-2.113,1.968,1.968,0,0,0-1.644-.809,1.946,1.946,0,0,0-1.619.8A3.68,3.68,0,0,0,140.1,12.125Zm-92.673,16a4.745,4.745,0,0,1-.828,2.915,2.653,2.653,0,0,1-2.241,1.106,2.906,2.906,0,0,1-2.271-.916v3.816H40.737V24.075h1.238l.066.879a2.791,2.791,0,0,1,2.3-1.025,2.7,2.7,0,0,1,2.26,1.077,4.8,4.8,0,0,1,.831,3Zm-1.355-.154a3.5,3.5,0,0,0-.571-2.117,1.84,1.84,0,0,0-1.567-.776,1.992,1.992,0,0,0-1.846,1.091v3.787a2,2,0,0,0,1.86,1.084,1.832,1.832,0,0,0,1.549-.773A3.822,3.822,0,0,0,46.076,27.972Zm2.717-.007a4.681,4.681,0,0,1,.458-2.095,3.415,3.415,0,0,1,1.274-1.436,3.469,3.469,0,0,1,1.864-.505,3.342,3.342,0,0,1,2.618,1.121,4.311,4.311,0,0,1,1,2.981v.1a4.722,4.722,0,0,1-.443,2.076A3.365,3.365,0,0,1,54.3,31.634a3.509,3.509,0,0,1-1.893.513,3.334,3.334,0,0,1-2.611-1.121,4.29,4.29,0,0,1-1-2.966Zm1.362.161a3.39,3.39,0,0,0,.612,2.117,2.072,2.072,0,0,0,3.278-.011,3.707,3.707,0,0,0,.608-2.267,3.384,3.384,0,0,0-.619-2.113,1.968,1.968,0,0,0-1.644-.809,1.946,1.946,0,0,0-1.619.8A3.68,3.68,0,0,0,50.156,28.125Zm11.382-2.834a4.06,4.06,0,0,0-.667-.051,1.786,1.786,0,0,0-1.809,1.135V32H57.707V24.075h1.318l.022.916a2.11,2.11,0,0,1,1.89-1.062,1.384,1.384,0,0,1,.6.1ZM67.968,32H66.613V20.75h1.355Zm7.061,0a2.846,2.846,0,0,1-.19-.835,3.023,3.023,0,0,1-2.256.981,2.8,2.8,0,0,1-1.923-.663,2.145,2.145,0,0,1-.751-1.681,2.24,2.24,0,0,1,.941-1.923A4.437,4.437,0,0,1,73.5,27.2h1.318v-.623a1.522,1.522,0,0,0-.425-1.132,1.707,1.707,0,0,0-1.252-.421,1.976,1.976,0,0,0-1.216.366,1.079,1.079,0,0,0-.491.886H70.07a1.87,1.87,0,0,1,.421-1.146,2.874,2.874,0,0,1,1.143-.875,3.844,3.844,0,0,1,1.586-.322,3.133,3.133,0,0,1,2.146.685,2.47,2.47,0,0,1,.806,1.886v3.647a4.459,4.459,0,0,0,.278,1.736V32ZM72.78,30.967a2.381,2.381,0,0,0,1.208-.33,1.994,1.994,0,0,0,.828-.857V28.155H73.754q-2.49,0-2.49,1.458a1.234,1.234,0,0,0,.425,1A1.633,1.633,0,0,0,72.78,30.967Zm10.5-6.892.037.879a2.927,2.927,0,0,1,2.351-1.025A2.266,2.266,0,0,1,87.934,25.2a3,3,0,0,1,1.029-.923,3.039,3.039,0,0,1,1.5-.352q2.607,0,2.651,2.761V32H91.757V26.771a1.82,1.82,0,0,0-.388-1.271,1.71,1.71,0,0,0-1.3-.421,1.8,1.8,0,0,0-1.252.45,1.827,1.827,0,0,0-.579,1.212V32H86.872V26.807a1.512,1.512,0,0,0-1.692-1.729,1.813,1.813,0,0,0-1.824,1.135V32H82V24.075ZM96.628,32H95.273V24.075h1.355ZM95.163,21.973a.809.809,0,0,1,.2-.557.756.756,0,0,1,.6-.227.768.768,0,0,1,.6.227.8.8,0,0,1,.205.557.774.774,0,0,1-.205.549.782.782,0,0,1-.6.22.77.77,0,0,1-.6-.22A.782.782,0,0,1,95.163,21.973Zm5.471.183v1.919h1.479v1.047h-1.479v4.915a1.1,1.1,0,0,0,.2.714.833.833,0,0,0,.674.238,3.281,3.281,0,0,0,.645-.088V32a3.928,3.928,0,0,1-1.04.146,1.687,1.687,0,0,1-1.37-.549,2.36,2.36,0,0,1-.461-1.56V25.123H97.836V24.075h1.443V22.156ZM108.588,32a2.846,2.846,0,0,1-.19-.835,3.023,3.023,0,0,1-2.256.981,2.8,2.8,0,0,1-1.923-.663,2.145,2.145,0,0,1-.751-1.681,2.24,2.24,0,0,1,.941-1.923,4.437,4.437,0,0,1,2.648-.685h1.318v-.623a1.522,1.522,0,0,0-.425-1.132,1.707,1.707,0,0,0-1.252-.421,1.976,1.976,0,0,0-1.216.366,1.079,1.079,0,0,0-.491.886H103.63a1.87,1.87,0,0,1,.421-1.146,2.874,2.874,0,0,1,1.143-.875,3.844,3.844,0,0,1,1.586-.322,3.133,3.133,0,0,1,2.146.685,2.47,2.47,0,0,1,.806,1.886v3.647a4.459,4.459,0,0,0,.278,1.736V32Zm-2.249-1.033a2.381,2.381,0,0,0,1.208-.33,1.994,1.994,0,0,0,.828-.857V28.155h-1.062q-2.49,0-2.49,1.458a1.234,1.234,0,0,0,.425,1A1.633,1.633,0,0,0,106.34,30.967Zm5.186-3a4.642,4.642,0,0,1,.864-2.933,2.941,2.941,0,0,1,4.468-.157V20.75h1.355V32h-1.245l-.066-.85a2.759,2.759,0,0,1-2.263,1,2.707,2.707,0,0,1-2.245-1.128,4.7,4.7,0,0,1-.868-2.944Zm1.355.154a3.515,3.515,0,0,0,.557,2.109,1.8,1.8,0,0,0,1.538.762,1.977,1.977,0,0,0,1.882-1.157V26.2a1.992,1.992,0,0,0-1.868-1.121,1.808,1.808,0,0,0-1.553.769A3.87,3.87,0,0,0,112.88,28.125Z" transform="translate(672 6473)" fill="#12263f" stroke="rgba(0,0,0,0)" stroke-width="1"/><path d="M33.134,12.616a3.923,3.923,0,0,1-1.249,2.611,4.093,4.093,0,0,1-2.794.919,3.758,3.758,0,0,1-3.029-1.355,5.451,5.451,0,0,1-1.139-3.625V10.141a6.076,6.076,0,0,1,.531-2.615A3.966,3.966,0,0,1,26.96,5.794a4.191,4.191,0,0,1,2.256-.6,3.853,3.853,0,0,1,2.725.948,3.971,3.971,0,0,1,1.194,2.626H31.72a3.05,3.05,0,0,0-.795-1.846,2.409,2.409,0,0,0-1.71-.571,2.517,2.517,0,0,0-2.113,1,4.57,4.57,0,0,0-.765,2.834V11.21a4.7,4.7,0,0,0,.725,2.761A2.344,2.344,0,0,0,29.091,15a2.706,2.706,0,0,0,1.8-.531,2.947,2.947,0,0,0,.831-1.849Zm5,3.53a3.463,3.463,0,0,1-2.622-1.058A3.928,3.928,0,0,1,34.5,12.257v-.249a4.756,4.756,0,0,1,.45-2.106,3.514,3.514,0,0,1,1.26-1.45,3.167,3.167,0,0,1,1.754-.524,2.968,2.968,0,0,1,2.4,1.018,4.408,4.408,0,0,1,.857,2.915v.564H35.851a2.817,2.817,0,0,0,.685,1.893,2.153,2.153,0,0,0,1.666.721,2.36,2.36,0,0,0,1.216-.293,3.055,3.055,0,0,0,.872-.776l.828.645A3.328,3.328,0,0,1,38.129,16.146Zm-.168-7.1a1.807,1.807,0,0,0-1.377.6,2.9,2.9,0,0,0-.688,1.674h3.97v-.1a2.581,2.581,0,0,0-.557-1.6A1.7,1.7,0,0,0,37.961,9.042Zm6.108-.967.044,1a2.888,2.888,0,0,1,2.373-1.143q2.512,0,2.534,2.834V16H47.665V10.756a1.824,1.824,0,0,0-.392-1.267,1.57,1.57,0,0,0-1.2-.41,1.956,1.956,0,0,0-1.157.352,2.387,2.387,0,0,0-.776.923V16H42.787V8.075ZM52.9,6.156V8.075h1.479V9.123H52.9v4.915a1.1,1.1,0,0,0,.2.714.833.833,0,0,0,.674.238,3.281,3.281,0,0,0,.645-.088V16a3.928,3.928,0,0,1-1.04.146,1.687,1.687,0,0,1-1.37-.549,2.36,2.36,0,0,1-.461-1.56V9.123H50.1V8.075h1.443V6.156Zm6.892,3.135a4.06,4.06,0,0,0-.667-.051,1.786,1.786,0,0,0-1.809,1.135V16H55.964V8.075h1.318l.022.916a2.11,2.11,0,0,1,1.89-1.062,1.384,1.384,0,0,1,.6.1Zm.74,2.673a4.681,4.681,0,0,1,.458-2.095,3.415,3.415,0,0,1,1.274-1.436,3.469,3.469,0,0,1,1.864-.505,3.342,3.342,0,0,1,2.618,1.121,4.311,4.311,0,0,1,1,2.981v.1a4.722,4.722,0,0,1-.443,2.076,3.365,3.365,0,0,1-1.267,1.432,3.509,3.509,0,0,1-1.893.513,3.334,3.334,0,0,1-2.611-1.121,4.29,4.29,0,0,1-1-2.966Zm1.362.161a3.39,3.39,0,0,0,.612,2.117,2.072,2.072,0,0,0,3.278-.011,3.707,3.707,0,0,0,.608-2.267,3.384,3.384,0,0,0-.619-2.113,1.968,1.968,0,0,0-1.644-.809,1.946,1.946,0,0,0-1.619.8A3.68,3.68,0,0,0,61.9,12.125Zm10.935-.154A4.642,4.642,0,0,1,73.7,9.038a2.941,2.941,0,0,1,4.468-.157V4.75h1.355V16H78.273l-.066-.85a2.759,2.759,0,0,1-2.263,1A2.707,2.707,0,0,1,73.7,15.019a4.7,4.7,0,0,1-.868-2.944Zm1.355.154a3.515,3.515,0,0,0,.557,2.109A1.8,1.8,0,0,0,76.281,15a1.977,1.977,0,0,0,1.882-1.157V10.2A1.992,1.992,0,0,0,76.3,9.079a1.808,1.808,0,0,0-1.553.769A3.87,3.87,0,0,0,74.186,12.125Zm10.723,4.021a3.463,3.463,0,0,1-2.622-1.058,3.928,3.928,0,0,1-1.011-2.831v-.249a4.756,4.756,0,0,1,.45-2.106,3.514,3.514,0,0,1,1.26-1.45,3.167,3.167,0,0,1,1.754-.524,2.968,2.968,0,0,1,2.4,1.018A4.408,4.408,0,0,1,88,11.862v.564H82.631a2.817,2.817,0,0,0,.685,1.893,2.153,2.153,0,0,0,1.666.721,2.36,2.36,0,0,0,1.216-.293,3.055,3.055,0,0,0,.872-.776l.828.645A3.328,3.328,0,0,1,84.909,16.146Zm-.168-7.1a1.807,1.807,0,0,0-1.377.6,2.9,2.9,0,0,0-.688,1.674h3.97v-.1a2.581,2.581,0,0,0-.557-1.6A1.7,1.7,0,0,0,84.74,9.042ZM91.039,16H89.684V4.75h1.355ZM98.1,16a2.846,2.846,0,0,1-.19-.835,3.023,3.023,0,0,1-2.256.981,2.8,2.8,0,0,1-1.923-.663A2.145,2.145,0,0,1,92.98,13.8a2.24,2.24,0,0,1,.941-1.923,4.437,4.437,0,0,1,2.648-.685h1.318v-.623a1.522,1.522,0,0,0-.425-1.132A1.707,1.707,0,0,0,96.21,9.02a1.976,1.976,0,0,0-1.216.366,1.079,1.079,0,0,0-.491.886H93.141a1.87,1.87,0,0,1,.421-1.146,2.874,2.874,0,0,1,1.143-.875,3.844,3.844,0,0,1,1.586-.322,3.133,3.133,0,0,1,2.146.685,2.47,2.47,0,0,1,.806,1.886v3.647a4.459,4.459,0,0,0,.278,1.736V16Zm-2.249-1.033a2.381,2.381,0,0,0,1.208-.33,1.994,1.994,0,0,0,.828-.857V12.155H96.825q-2.49,0-2.49,1.458a1.234,1.234,0,0,0,.425,1A1.633,1.633,0,0,0,95.851,14.967Zm6.8-6.892.044,1a2.888,2.888,0,0,1,2.373-1.143q2.512,0,2.534,2.834V16h-1.355V10.756a1.824,1.824,0,0,0-.392-1.267,1.57,1.57,0,0,0-1.2-.41,1.956,1.956,0,0,0-1.157.352,2.387,2.387,0,0,0-.776.923V16h-1.355V8.075Zm8.833-1.919V8.075h1.479V9.123h-1.479v4.915a1.1,1.1,0,0,0,.2.714.833.833,0,0,0,.674.238A3.281,3.281,0,0,0,113,14.9V16a3.928,3.928,0,0,1-1.04.146,1.687,1.687,0,0,1-1.37-.549,2.36,2.36,0,0,1-.461-1.56V9.123h-1.443V8.075h1.443V6.156Zm6.35,9.99a3.463,3.463,0,0,1-2.622-1.058,3.928,3.928,0,0,1-1.011-2.831v-.249a4.756,4.756,0,0,1,.45-2.106,3.514,3.514,0,0,1,1.26-1.45,3.167,3.167,0,0,1,1.754-.524,2.968,2.968,0,0,1,2.4,1.018,4.408,4.408,0,0,1,.857,2.915v.564h-5.369a2.817,2.817,0,0,0,.685,1.893,2.153,2.153,0,0,0,1.666.721,2.36,2.36,0,0,0,1.216-.293,3.055,3.055,0,0,0,.872-.776l.828.645A3.328,3.328,0,0,1,117.831,16.146Zm-.168-7.1a1.807,1.807,0,0,0-1.377.6,2.9,2.9,0,0,0-.688,1.674h3.97v-.1a2.581,2.581,0,0,0-.557-1.6A1.7,1.7,0,0,0,117.663,9.042Zm8.657.249a4.06,4.06,0,0,0-.667-.051,1.786,1.786,0,0,0-1.809,1.135V16H122.49V8.075h1.318l.022.916a2.11,2.11,0,0,1,1.89-1.062,1.384,1.384,0,0,1,.6.1Zm.74,2.673a4.681,4.681,0,0,1,.458-2.095,3.415,3.415,0,0,1,1.274-1.436,3.469,3.469,0,0,1,1.864-.505,3.342,3.342,0,0,1,2.618,1.121,4.311,4.311,0,0,1,1,2.981v.1a4.722,4.722,0,0,1-.443,2.076,3.365,3.365,0,0,1-1.267,1.432,3.509,3.509,0,0,1-1.893.513,3.334,3.334,0,0,1-2.611-1.121,4.29,4.29,0,0,1-1-2.966Zm1.362.161a3.39,3.39,0,0,0,.612,2.117,2.072,2.072,0,0,0,3.278-.011,3.707,3.707,0,0,0,.608-2.267,3.384,3.384,0,0,0-.619-2.113,1.968,1.968,0,0,0-1.644-.809,1.946,1.946,0,0,0-1.619.8A3.68,3.68,0,0,0,128.422,12.125Z" transform="translate(861.5 6703.5) rotate(-90)" fill="#12263f" stroke="rgba(0,0,0,0)" stroke-width="1"/><path d="M33.134,12.616a3.923,3.923,0,0,1-1.249,2.611,4.093,4.093,0,0,1-2.794.919,3.758,3.758,0,0,1-3.029-1.355,5.451,5.451,0,0,1-1.139-3.625V10.141a6.076,6.076,0,0,1,.531-2.615A3.966,3.966,0,0,1,26.96,5.794a4.191,4.191,0,0,1,2.256-.6,3.853,3.853,0,0,1,2.725.948,3.971,3.971,0,0,1,1.194,2.626H31.72a3.05,3.05,0,0,0-.795-1.846,2.409,2.409,0,0,0-1.71-.571,2.517,2.517,0,0,0-2.113,1,4.57,4.57,0,0,0-.765,2.834V11.21a4.7,4.7,0,0,0,.725,2.761A2.344,2.344,0,0,0,29.091,15a2.706,2.706,0,0,0,1.8-.531,2.947,2.947,0,0,0,.831-1.849Zm5,3.53a3.463,3.463,0,0,1-2.622-1.058A3.928,3.928,0,0,1,34.5,12.257v-.249a4.756,4.756,0,0,1,.45-2.106,3.514,3.514,0,0,1,1.26-1.45,3.167,3.167,0,0,1,1.754-.524,2.968,2.968,0,0,1,2.4,1.018,4.408,4.408,0,0,1,.857,2.915v.564H35.851a2.817,2.817,0,0,0,.685,1.893,2.153,2.153,0,0,0,1.666.721,2.36,2.36,0,0,0,1.216-.293,3.055,3.055,0,0,0,.872-.776l.828.645A3.328,3.328,0,0,1,38.129,16.146Zm-.168-7.1a1.807,1.807,0,0,0-1.377.6,2.9,2.9,0,0,0-.688,1.674h3.97v-.1a2.581,2.581,0,0,0-.557-1.6A1.7,1.7,0,0,0,37.961,9.042Zm6.108-.967.044,1a2.888,2.888,0,0,1,2.373-1.143q2.512,0,2.534,2.834V16H47.665V10.756a1.824,1.824,0,0,0-.392-1.267,1.57,1.57,0,0,0-1.2-.41,1.956,1.956,0,0,0-1.157.352,2.387,2.387,0,0,0-.776.923V16H42.787V8.075ZM52.9,6.156V8.075h1.479V9.123H52.9v4.915a1.1,1.1,0,0,0,.2.714.833.833,0,0,0,.674.238,3.281,3.281,0,0,0,.645-.088V16a3.928,3.928,0,0,1-1.04.146,1.687,1.687,0,0,1-1.37-.549,2.36,2.36,0,0,1-.461-1.56V9.123H50.1V8.075h1.443V6.156Zm6.892,3.135a4.06,4.06,0,0,0-.667-.051,1.786,1.786,0,0,0-1.809,1.135V16H55.964V8.075h1.318l.022.916a2.11,2.11,0,0,1,1.89-1.062,1.384,1.384,0,0,1,.6.1Zm.74,2.673a4.681,4.681,0,0,1,.458-2.095,3.415,3.415,0,0,1,1.274-1.436,3.469,3.469,0,0,1,1.864-.505,3.342,3.342,0,0,1,2.618,1.121,4.311,4.311,0,0,1,1,2.981v.1a4.722,4.722,0,0,1-.443,2.076,3.365,3.365,0,0,1-1.267,1.432,3.509,3.509,0,0,1-1.893.513,3.334,3.334,0,0,1-2.611-1.121,4.29,4.29,0,0,1-1-2.966Zm1.362.161a3.39,3.39,0,0,0,.612,2.117,2.072,2.072,0,0,0,3.278-.011,3.707,3.707,0,0,0,.608-2.267,3.384,3.384,0,0,0-.619-2.113,1.968,1.968,0,0,0-1.644-.809,1.946,1.946,0,0,0-1.619.8A3.68,3.68,0,0,0,61.9,12.125Zm10.935-.154A4.642,4.642,0,0,1,73.7,9.038a2.941,2.941,0,0,1,4.468-.157V4.75h1.355V16H78.273l-.066-.85a2.759,2.759,0,0,1-2.263,1A2.707,2.707,0,0,1,73.7,15.019a4.7,4.7,0,0,1-.868-2.944Zm1.355.154a3.515,3.515,0,0,0,.557,2.109A1.8,1.8,0,0,0,76.281,15a1.977,1.977,0,0,0,1.882-1.157V10.2A1.992,1.992,0,0,0,76.3,9.079a1.808,1.808,0,0,0-1.553.769A3.87,3.87,0,0,0,74.186,12.125Zm10.723,4.021a3.463,3.463,0,0,1-2.622-1.058,3.928,3.928,0,0,1-1.011-2.831v-.249a4.756,4.756,0,0,1,.45-2.106,3.514,3.514,0,0,1,1.26-1.45,3.167,3.167,0,0,1,1.754-.524,2.968,2.968,0,0,1,2.4,1.018A4.408,4.408,0,0,1,88,11.862v.564H82.631a2.817,2.817,0,0,0,.685,1.893,2.153,2.153,0,0,0,1.666.721,2.36,2.36,0,0,0,1.216-.293,3.055,3.055,0,0,0,.872-.776l.828.645A3.328,3.328,0,0,1,84.909,16.146Zm-.168-7.1a1.807,1.807,0,0,0-1.377.6,2.9,2.9,0,0,0-.688,1.674h3.97v-.1a2.581,2.581,0,0,0-.557-1.6A1.7,1.7,0,0,0,84.74,9.042ZM91.039,16H89.684V4.75h1.355ZM98.1,16a2.846,2.846,0,0,1-.19-.835,3.023,3.023,0,0,1-2.256.981,2.8,2.8,0,0,1-1.923-.663A2.145,2.145,0,0,1,92.98,13.8a2.24,2.24,0,0,1,.941-1.923,4.437,4.437,0,0,1,2.648-.685h1.318v-.623a1.522,1.522,0,0,0-.425-1.132A1.707,1.707,0,0,0,96.21,9.02a1.976,1.976,0,0,0-1.216.366,1.079,1.079,0,0,0-.491.886H93.141a1.87,1.87,0,0,1,.421-1.146,2.874,2.874,0,0,1,1.143-.875,3.844,3.844,0,0,1,1.586-.322,3.133,3.133,0,0,1,2.146.685,2.47,2.47,0,0,1,.806,1.886v3.647a4.459,4.459,0,0,0,.278,1.736V16Zm-2.249-1.033a2.381,2.381,0,0,0,1.208-.33,1.994,1.994,0,0,0,.828-.857V12.155H96.825q-2.49,0-2.49,1.458a1.234,1.234,0,0,0,.425,1A1.633,1.633,0,0,0,95.851,14.967Zm6.8-6.892.044,1a2.888,2.888,0,0,1,2.373-1.143q2.512,0,2.534,2.834V16h-1.355V10.756a1.824,1.824,0,0,0-.392-1.267,1.57,1.57,0,0,0-1.2-.41,1.956,1.956,0,0,0-1.157.352,2.387,2.387,0,0,0-.776.923V16h-1.355V8.075Zm8.833-1.919V8.075h1.479V9.123h-1.479v4.915a1.1,1.1,0,0,0,.2.714.833.833,0,0,0,.674.238A3.281,3.281,0,0,0,113,14.9V16a3.928,3.928,0,0,1-1.04.146,1.687,1.687,0,0,1-1.37-.549,2.36,2.36,0,0,1-.461-1.56V9.123h-1.443V8.075h1.443V6.156Zm6.35,9.99a3.463,3.463,0,0,1-2.622-1.058,3.928,3.928,0,0,1-1.011-2.831v-.249a4.756,4.756,0,0,1,.45-2.106,3.514,3.514,0,0,1,1.26-1.45,3.167,3.167,0,0,1,1.754-.524,2.968,2.968,0,0,1,2.4,1.018,4.408,4.408,0,0,1,.857,2.915v.564h-5.369a2.817,2.817,0,0,0,.685,1.893,2.153,2.153,0,0,0,1.666.721,2.36,2.36,0,0,0,1.216-.293,3.055,3.055,0,0,0,.872-.776l.828.645A3.328,3.328,0,0,1,117.831,16.146Zm-.168-7.1a1.807,1.807,0,0,0-1.377.6,2.9,2.9,0,0,0-.688,1.674h3.97v-.1a2.581,2.581,0,0,0-.557-1.6A1.7,1.7,0,0,0,117.663,9.042Zm8.657.249a4.06,4.06,0,0,0-.667-.051,1.786,1.786,0,0,0-1.809,1.135V16H122.49V8.075h1.318l.022.916a2.11,2.11,0,0,1,1.89-1.062,1.384,1.384,0,0,1,.6.1Zm.74,2.673a4.681,4.681,0,0,1,.458-2.095,3.415,3.415,0,0,1,1.274-1.436,3.469,3.469,0,0,1,1.864-.505,3.342,3.342,0,0,1,2.618,1.121,4.311,4.311,0,0,1,1,2.981v.1a4.722,4.722,0,0,1-.443,2.076,3.365,3.365,0,0,1-1.267,1.432,3.509,3.509,0,0,1-1.893.513,3.334,3.334,0,0,1-2.611-1.121,4.29,4.29,0,0,1-1-2.966Zm1.362.161a3.39,3.39,0,0,0,.612,2.117,2.072,2.072,0,0,0,3.278-.011,3.707,3.707,0,0,0,.608-2.267,3.384,3.384,0,0,0-.619-2.113,1.968,1.968,0,0,0-1.644-.809,1.946,1.946,0,0,0-1.619.8A3.68,3.68,0,0,0,128.422,12.125Z" transform="translate(1078.5 6703.5) rotate(-90)" fill="#12263f" stroke="rgba(0,0,0,0)" stroke-width="1"/><path d="M38.283,12.616a3.923,3.923,0,0,1-1.249,2.611,4.093,4.093,0,0,1-2.794.919,3.758,3.758,0,0,1-3.029-1.355,5.451,5.451,0,0,1-1.139-3.625V10.141A6.076,6.076,0,0,1,30.6,7.526a3.966,3.966,0,0,1,1.505-1.732,4.191,4.191,0,0,1,2.256-.6,3.853,3.853,0,0,1,2.725.948,3.971,3.971,0,0,1,1.194,2.626H36.869a3.05,3.05,0,0,0-.795-1.846,2.409,2.409,0,0,0-1.71-.571,2.517,2.517,0,0,0-2.113,1,4.57,4.57,0,0,0-.765,2.834V11.21a4.7,4.7,0,0,0,.725,2.761A2.344,2.344,0,0,0,34.24,15a2.706,2.706,0,0,0,1.8-.531,2.947,2.947,0,0,0,.831-1.849Zm5,3.53a3.463,3.463,0,0,1-2.622-1.058,3.928,3.928,0,0,1-1.011-2.831v-.249A4.756,4.756,0,0,1,40.1,9.9a3.514,3.514,0,0,1,1.26-1.45,3.167,3.167,0,0,1,1.754-.524,2.968,2.968,0,0,1,2.4,1.018,4.408,4.408,0,0,1,.857,2.915v.564H41a2.817,2.817,0,0,0,.685,1.893,2.153,2.153,0,0,0,1.666.721,2.36,2.36,0,0,0,1.216-.293,3.055,3.055,0,0,0,.872-.776l.828.645A3.328,3.328,0,0,1,43.278,16.146Zm-.168-7.1a1.807,1.807,0,0,0-1.377.6,2.9,2.9,0,0,0-.688,1.674h3.97v-.1a2.581,2.581,0,0,0-.557-1.6A1.7,1.7,0,0,0,43.11,9.042Zm6.108-.967.044,1a2.888,2.888,0,0,1,2.373-1.143q2.512,0,2.534,2.834V16H52.814V10.756a1.824,1.824,0,0,0-.392-1.267,1.57,1.57,0,0,0-1.2-.41,1.956,1.956,0,0,0-1.157.352,2.387,2.387,0,0,0-.776.923V16H47.936V8.075Zm8.833-1.919V8.075h1.479V9.123H58.051v4.915a1.1,1.1,0,0,0,.2.714.833.833,0,0,0,.674.238,3.281,3.281,0,0,0,.645-.088V16a3.928,3.928,0,0,1-1.04.146,1.687,1.687,0,0,1-1.37-.549,2.36,2.36,0,0,1-.461-1.56V9.123H55.253V8.075H56.7V6.156Zm6.892,3.135a4.06,4.06,0,0,0-.667-.051,1.786,1.786,0,0,0-1.809,1.135V16H61.113V8.075h1.318l.022.916a2.11,2.11,0,0,1,1.89-1.062,1.384,1.384,0,0,1,.6.1Zm.74,2.673a4.681,4.681,0,0,1,.458-2.095,3.415,3.415,0,0,1,1.274-1.436,3.469,3.469,0,0,1,1.864-.505A3.342,3.342,0,0,1,71.9,9.049a4.311,4.311,0,0,1,1,2.981v.1a4.722,4.722,0,0,1-.443,2.076,3.365,3.365,0,0,1-1.267,1.432,3.509,3.509,0,0,1-1.893.513,3.334,3.334,0,0,1-2.611-1.121,4.29,4.29,0,0,1-1-2.966Zm1.362.161a3.39,3.39,0,0,0,.612,2.117,2.072,2.072,0,0,0,3.278-.011,3.707,3.707,0,0,0,.608-2.267,3.384,3.384,0,0,0-.619-2.113,1.968,1.968,0,0,0-1.644-.809,1.946,1.946,0,0,0-1.619.8A3.68,3.68,0,0,0,67.045,12.125ZM81.6,16.146a3.463,3.463,0,0,1-2.622-1.058,3.928,3.928,0,0,1-1.011-2.831v-.249a4.756,4.756,0,0,1,.45-2.106,3.514,3.514,0,0,1,1.26-1.45,3.167,3.167,0,0,1,1.754-.524,2.968,2.968,0,0,1,2.4,1.018,4.408,4.408,0,0,1,.857,2.915v.564H79.321a2.817,2.817,0,0,0,.685,1.893,2.153,2.153,0,0,0,1.666.721,2.36,2.36,0,0,0,1.216-.293,3.055,3.055,0,0,0,.872-.776l.828.645A3.328,3.328,0,0,1,81.6,16.146Zm-.168-7.1a1.807,1.807,0,0,0-1.377.6,2.9,2.9,0,0,0-.688,1.674h3.97v-.1a2.581,2.581,0,0,0-.557-1.6A1.7,1.7,0,0,0,81.43,9.042ZM90.871,13.9a1,1,0,0,0-.414-.853,3.983,3.983,0,0,0-1.443-.524,6.822,6.822,0,0,1-1.633-.527,2.324,2.324,0,0,1-.894-.732A1.752,1.752,0,0,1,86.2,10.25,2.056,2.056,0,0,1,87.022,8.6a3.218,3.218,0,0,1,2.106-.674,3.311,3.311,0,0,1,2.186.7,2.21,2.21,0,0,1,.839,1.78H90.79a1.223,1.223,0,0,0-.472-.959,1.77,1.77,0,0,0-1.19-.4,1.852,1.852,0,0,0-1.157.322,1.014,1.014,0,0,0-.417.842.822.822,0,0,0,.388.74,4.776,4.776,0,0,0,1.4.476,7.308,7.308,0,0,1,1.644.542,2.4,2.4,0,0,1,.934.758,1.864,1.864,0,0,1,.3,1.08,2.028,2.028,0,0,1-.85,1.7,3.564,3.564,0,0,1-2.2.641,3.991,3.991,0,0,1-1.685-.337,2.74,2.74,0,0,1-1.146-.941,2.268,2.268,0,0,1-.414-1.307h1.355a1.4,1.4,0,0,0,.546,1.08,2.117,2.117,0,0,0,1.344.4,2.185,2.185,0,0,0,1.234-.311A.956.956,0,0,0,90.871,13.9Zm9.814-1.772a4.745,4.745,0,0,1-.828,2.915,2.653,2.653,0,0,1-2.241,1.106,2.906,2.906,0,0,1-2.271-.916v3.816H93.991V8.075h1.238l.066.879a2.791,2.791,0,0,1,2.3-1.025,2.7,2.7,0,0,1,2.26,1.077,4.8,4.8,0,0,1,.831,3Zm-1.355-.154a3.5,3.5,0,0,0-.571-2.117,1.84,1.84,0,0,0-1.567-.776,1.992,1.992,0,0,0-1.846,1.091v3.787a2,2,0,0,0,1.86,1.084,1.832,1.832,0,0,0,1.549-.773A3.822,3.822,0,0,0,99.33,11.972ZM107.3,16a2.846,2.846,0,0,1-.19-.835,3.023,3.023,0,0,1-2.256.981,2.8,2.8,0,0,1-1.923-.663,2.145,2.145,0,0,1-.751-1.681,2.24,2.24,0,0,1,.941-1.923,4.437,4.437,0,0,1,2.648-.685h1.318v-.623a1.522,1.522,0,0,0-.425-1.132,1.707,1.707,0,0,0-1.252-.421,1.976,1.976,0,0,0-1.216.366,1.079,1.079,0,0,0-.491.886h-1.362a1.87,1.87,0,0,1,.421-1.146,2.874,2.874,0,0,1,1.143-.875,3.844,3.844,0,0,1,1.586-.322,3.133,3.133,0,0,1,2.146.685,2.47,2.47,0,0,1,.806,1.886v3.647a4.459,4.459,0,0,0,.278,1.736V16Zm-2.249-1.033a2.381,2.381,0,0,0,1.208-.33,1.994,1.994,0,0,0,.828-.857V12.155h-1.062q-2.49,0-2.49,1.458a1.234,1.234,0,0,0,.425,1A1.633,1.633,0,0,0,105.051,14.967ZM112.038,16h-1.355V4.75h1.355Zm1.838-4.028a4.642,4.642,0,0,1,.864-2.933,2.941,2.941,0,0,1,4.468-.157V4.75h1.355V16h-1.245l-.066-.85a2.759,2.759,0,0,1-2.263,1,2.707,2.707,0,0,1-2.245-1.128,4.7,4.7,0,0,1-.868-2.944Zm1.355.154a3.515,3.515,0,0,0,.557,2.109,1.8,1.8,0,0,0,1.538.762,1.977,1.977,0,0,0,1.882-1.157V10.2a1.992,1.992,0,0,0-1.868-1.121,1.808,1.808,0,0,0-1.553.769A3.87,3.87,0,0,0,115.231,12.125ZM127.558,16a2.846,2.846,0,0,1-.19-.835,3.023,3.023,0,0,1-2.256.981,2.8,2.8,0,0,1-1.923-.663,2.145,2.145,0,0,1-.751-1.681,2.24,2.24,0,0,1,.941-1.923,4.437,4.437,0,0,1,2.648-.685h1.318v-.623a1.522,1.522,0,0,0-.425-1.132,1.707,1.707,0,0,0-1.252-.421,1.976,1.976,0,0,0-1.216.366,1.079,1.079,0,0,0-.491.886H122.6a1.87,1.87,0,0,1,.421-1.146,2.874,2.874,0,0,1,1.143-.875,3.844,3.844,0,0,1,1.586-.322,3.133,3.133,0,0,1,2.146.685A2.47,2.47,0,0,1,128.7,10.5v3.647a4.459,4.459,0,0,0,.278,1.736V16Zm-2.249-1.033a2.381,2.381,0,0,0,1.208-.33,1.994,1.994,0,0,0,.828-.857V12.155h-1.062q-2.49,0-2.49,1.458a1.234,1.234,0,0,0,.425,1A1.633,1.633,0,0,0,125.309,14.967Z" transform="translate(955.5 6703.5) rotate(-90)" fill="#12263f" stroke="rgba(0,0,0,0)" stroke-width="1"/><path d="M26.674,13.217H22.206L21.2,16h-1.45L23.825,5.336h1.23L29.135,16H27.692ZM22.631,12.06h3.625L24.44,7.072ZM34.972,13.9a1,1,0,0,0-.414-.853,3.983,3.983,0,0,0-1.443-.524,6.822,6.822,0,0,1-1.633-.527,2.324,2.324,0,0,1-.894-.732A1.752,1.752,0,0,1,30.3,10.25,2.056,2.056,0,0,1,31.124,8.6a3.218,3.218,0,0,1,2.106-.674,3.311,3.311,0,0,1,2.186.7,2.21,2.21,0,0,1,.839,1.78H34.892a1.223,1.223,0,0,0-.472-.959,1.77,1.77,0,0,0-1.19-.4,1.852,1.852,0,0,0-1.157.322,1.014,1.014,0,0,0-.417.842.822.822,0,0,0,.388.74,4.776,4.776,0,0,0,1.4.476,7.308,7.308,0,0,1,1.644.542,2.4,2.4,0,0,1,.934.758,1.864,1.864,0,0,1,.3,1.08,2.028,2.028,0,0,1-.85,1.7,3.564,3.564,0,0,1-2.2.641,3.991,3.991,0,0,1-1.685-.337,2.74,2.74,0,0,1-1.146-.941,2.268,2.268,0,0,1-.414-1.307h1.355a1.4,1.4,0,0,0,.546,1.08,2.117,2.117,0,0,0,1.344.4,2.185,2.185,0,0,0,1.234-.311A.956.956,0,0,0,34.972,13.9ZM39.565,16H38.2V8.075h1.362Zm.015-11.243H41.22L39.257,6.911H38.166Zm2.175,13.367-.769-.527a3.534,3.534,0,0,0,.718-1.978V14.4h1.326v1.062a3.336,3.336,0,0,1-.363,1.479A3.464,3.464,0,0,1,41.755,18.124Zm8.54-11.968V8.075h1.479V9.123H50.295v4.915a1.1,1.1,0,0,0,.2.714.833.833,0,0,0,.674.238,3.281,3.281,0,0,0,.645-.088V16a3.928,3.928,0,0,1-1.04.146A1.687,1.687,0,0,1,49.4,15.6a2.36,2.36,0,0,1-.461-1.56V9.123H47.5V8.075H48.94V6.156Zm6.35,9.99a3.463,3.463,0,0,1-2.622-1.058,3.928,3.928,0,0,1-1.011-2.831v-.249a4.756,4.756,0,0,1,.45-2.106,3.514,3.514,0,0,1,1.26-1.45,3.167,3.167,0,0,1,1.754-.524,2.968,2.968,0,0,1,2.4,1.018,4.408,4.408,0,0,1,.857,2.915v.564H54.367a2.817,2.817,0,0,0,.685,1.893,2.153,2.153,0,0,0,1.666.721,2.36,2.36,0,0,0,1.216-.293,3.055,3.055,0,0,0,.872-.776l.828.645A3.328,3.328,0,0,1,56.645,16.146Zm-.168-7.1a1.807,1.807,0,0,0-1.377.6,2.9,2.9,0,0,0-.688,1.674h3.97v-.1a2.581,2.581,0,0,0-.557-1.6A1.7,1.7,0,0,0,56.476,9.042Zm6.108-.967.044,1A2.888,2.888,0,0,1,65,7.929q2.512,0,2.534,2.834V16H66.181V10.756a1.824,1.824,0,0,0-.392-1.267,1.57,1.57,0,0,0-1.2-.41,1.956,1.956,0,0,0-1.157.352,2.387,2.387,0,0,0-.776.923V16H61.3V8.075Zm10.283,8.071a3.463,3.463,0,0,1-2.622-1.058,3.928,3.928,0,0,1-1.011-2.831v-.249a4.756,4.756,0,0,1,.45-2.106,3.514,3.514,0,0,1,1.26-1.45A3.167,3.167,0,0,1,72.7,7.929a2.968,2.968,0,0,1,2.4,1.018,4.408,4.408,0,0,1,.857,2.915v.564H70.59a2.817,2.817,0,0,0,.685,1.893,2.153,2.153,0,0,0,1.666.721,2.36,2.36,0,0,0,1.216-.293,3.055,3.055,0,0,0,.872-.776l.828.645A3.328,3.328,0,0,1,72.868,16.146Zm-.168-7.1a1.807,1.807,0,0,0-1.377.6,2.9,2.9,0,0,0-.688,1.674H74.6v-.1a2.581,2.581,0,0,0-.557-1.6A1.7,1.7,0,0,0,72.7,9.042Zm6.1-.967.037.879a2.927,2.927,0,0,1,2.351-1.025A2.266,2.266,0,0,1,83.451,9.2,3,3,0,0,1,84.48,8.28a3.039,3.039,0,0,1,1.5-.352q2.607,0,2.651,2.761V16H87.275V10.771A1.82,1.82,0,0,0,86.886,9.5a1.71,1.71,0,0,0-1.3-.421,1.8,1.8,0,0,0-1.252.45,1.827,1.827,0,0,0-.579,1.212V16H82.389V10.807A1.512,1.512,0,0,0,80.7,9.079a1.813,1.813,0,0,0-1.824,1.135V16H77.519V8.075Zm11.514,3.889a4.681,4.681,0,0,1,.458-2.095,3.415,3.415,0,0,1,1.274-1.436,3.469,3.469,0,0,1,1.864-.505,3.342,3.342,0,0,1,2.618,1.121,4.311,4.311,0,0,1,1,2.981v.1a4.722,4.722,0,0,1-.443,2.076,3.365,3.365,0,0,1-1.267,1.432,3.509,3.509,0,0,1-1.893.513,3.334,3.334,0,0,1-2.611-1.121,4.29,4.29,0,0,1-1-2.966Zm1.362.161a3.39,3.39,0,0,0,.612,2.117,2.072,2.072,0,0,0,3.278-.011,3.707,3.707,0,0,0,.608-2.267,3.384,3.384,0,0,0-.619-2.113,1.968,1.968,0,0,0-1.644-.809,1.946,1.946,0,0,0-1.619.8A3.68,3.68,0,0,0,91.677,12.125ZM103.842,13.9a1,1,0,0,0-.414-.853,3.983,3.983,0,0,0-1.443-.524,6.822,6.822,0,0,1-1.633-.527,2.324,2.324,0,0,1-.894-.732,1.752,1.752,0,0,1-.289-1.011A2.056,2.056,0,0,1,99.993,8.6a3.218,3.218,0,0,1,2.106-.674,3.311,3.311,0,0,1,2.186.7,2.21,2.21,0,0,1,.839,1.78h-1.362a1.223,1.223,0,0,0-.472-.959,1.77,1.77,0,0,0-1.19-.4,1.852,1.852,0,0,0-1.157.322,1.014,1.014,0,0,0-.417.842.822.822,0,0,0,.388.74,4.776,4.776,0,0,0,1.4.476,7.308,7.308,0,0,1,1.644.542,2.4,2.4,0,0,1,.934.758,1.864,1.864,0,0,1,.3,1.08,2.028,2.028,0,0,1-.85,1.7,3.564,3.564,0,0,1-2.2.641,3.991,3.991,0,0,1-1.685-.337,2.74,2.74,0,0,1-1.146-.941,2.268,2.268,0,0,1-.414-1.307h1.355a1.4,1.4,0,0,0,.546,1.08,2.117,2.117,0,0,0,1.344.4,2.185,2.185,0,0,0,1.234-.311A.956.956,0,0,0,103.842,13.9Zm11.726,1.318a2.878,2.878,0,0,1-2.322.93,2.464,2.464,0,0,1-1.93-.736,3.186,3.186,0,0,1-.67-2.179V8.075H112v5.12q0,1.8,1.465,1.8a2.028,2.028,0,0,0,2.065-1.157V8.075h1.355V16H115.6Zm4.658-7.141.044,1a2.888,2.888,0,0,1,2.373-1.143q2.512,0,2.534,2.834V16h-1.355V10.756a1.824,1.824,0,0,0-.392-1.267,1.57,1.57,0,0,0-1.2-.41,1.956,1.956,0,0,0-1.157.352,2.387,2.387,0,0,0-.776.923V16h-1.355V8.075Zm14.539,1.216a4.06,4.06,0,0,0-.667-.051,1.786,1.786,0,0,0-1.809,1.135V16h-1.355V8.075h1.318l.022.916a2.11,2.11,0,0,1,1.89-1.062,1.384,1.384,0,0,1,.6.1Zm4.534,6.855a3.463,3.463,0,0,1-2.622-1.058,3.928,3.928,0,0,1-1.011-2.831v-.249a4.756,4.756,0,0,1,.45-2.106,3.514,3.514,0,0,1,1.26-1.45,3.167,3.167,0,0,1,1.754-.524,2.968,2.968,0,0,1,2.4,1.018,4.408,4.408,0,0,1,.857,2.915v.564h-5.369a2.817,2.817,0,0,0,.685,1.893,2.153,2.153,0,0,0,1.666.721,2.36,2.36,0,0,0,1.216-.293,3.055,3.055,0,0,0,.872-.776l.828.645A3.328,3.328,0,0,1,139.3,16.146Zm-.168-7.1a1.807,1.807,0,0,0-1.377.6,2.9,2.9,0,0,0-.688,1.674h3.97v-.1a2.581,2.581,0,0,0-.557-1.6A1.7,1.7,0,0,0,139.13,9.042Zm8.005,6A1.952,1.952,0,0,0,148.4,14.6a1.546,1.546,0,0,0,.6-1.1h1.282a2.457,2.457,0,0,1-.469,1.3,3.087,3.087,0,0,1-1.154.981,3.329,3.329,0,0,1-1.527.366,3.265,3.265,0,0,1-2.574-1.08,4.3,4.3,0,0,1-.956-2.955v-.227a4.771,4.771,0,0,1,.425-2.058,3.236,3.236,0,0,1,1.219-1.4,3.464,3.464,0,0,1,1.879-.5,3.178,3.178,0,0,1,2.216.8,2.853,2.853,0,0,1,.941,2.073H149a1.867,1.867,0,0,0-.582-1.263,1.811,1.811,0,0,0-1.293-.494,1.9,1.9,0,0,0-1.6.743,3.491,3.491,0,0,0-.568,2.15v.256a3.422,3.422,0,0,0,.564,2.109A1.906,1.906,0,0,0,147.135,15.041Zm6.511-8.884V8.075h1.479V9.123h-1.479v4.915a1.1,1.1,0,0,0,.2.714.833.833,0,0,0,.674.238,3.281,3.281,0,0,0,.645-.088V16a3.928,3.928,0,0,1-1.04.146,1.687,1.687,0,0,1-1.37-.549,2.36,2.36,0,0,1-.461-1.56V9.123h-1.443V8.075h1.443V6.156ZM161.6,16a2.846,2.846,0,0,1-.19-.835,3.023,3.023,0,0,1-2.256.981,2.8,2.8,0,0,1-1.923-.663,2.145,2.145,0,0,1-.751-1.681,2.24,2.24,0,0,1,.941-1.923,4.437,4.437,0,0,1,2.648-.685h1.318v-.623a1.522,1.522,0,0,0-.425-1.132,1.707,1.707,0,0,0-1.252-.421,1.976,1.976,0,0,0-1.216.366,1.079,1.079,0,0,0-.491.886h-1.362a1.87,1.87,0,0,1,.421-1.146,2.874,2.874,0,0,1,1.143-.875,3.844,3.844,0,0,1,1.586-.322,3.133,3.133,0,0,1,2.146.685,2.47,2.47,0,0,1,.806,1.886v3.647a4.459,4.459,0,0,0,.278,1.736V16Zm-2.249-1.033a2.381,2.381,0,0,0,1.208-.33,1.994,1.994,0,0,0,.828-.857V12.155h-1.062q-2.49,0-2.49,1.458a1.234,1.234,0,0,0,.425,1A1.633,1.633,0,0,0,159.352,14.967ZM160.6,4.75h1.641L160.282,6.9h-1.091Zm5.544,3.325.044,1a2.888,2.888,0,0,1,2.373-1.143q2.512,0,2.534,2.834V16h-1.355V10.756a1.824,1.824,0,0,0-.392-1.267,1.57,1.57,0,0,0-1.2-.41A1.956,1.956,0,0,0,167,9.43a2.387,2.387,0,0,0-.776.923V16h-1.355V8.075Zm6.672,3.9a4.658,4.658,0,0,1,.857-2.948,2.954,2.954,0,0,1,4.534-.07l.066-.879h1.238V15.81a3.224,3.224,0,0,1-.912,2.424,3.365,3.365,0,0,1-2.45.886,4.076,4.076,0,0,1-1.677-.366,2.887,2.887,0,0,1-1.252-1l.7-.813a2.65,2.65,0,0,0,2.131,1.077,2.076,2.076,0,0,0,1.542-.557,2.128,2.128,0,0,0,.553-1.567v-.681a2.785,2.785,0,0,1-2.219.938,2.707,2.707,0,0,1-2.252-1.121A4.9,4.9,0,0,1,172.822,11.972Zm1.362.154a3.553,3.553,0,0,0,.549,2.106,1.785,1.785,0,0,0,1.538.765,1.985,1.985,0,0,0,1.882-1.165V10.214a2.008,2.008,0,0,0-1.868-1.135,1.8,1.8,0,0,0-1.545.769A3.87,3.87,0,0,0,174.184,12.125Zm12.268,3.091a2.878,2.878,0,0,1-2.322.93,2.464,2.464,0,0,1-1.93-.736,3.186,3.186,0,0,1-.67-2.179V8.075h1.355v5.12q0,1.8,1.465,1.8a2.028,2.028,0,0,0,2.065-1.157V8.075h1.355V16h-1.289ZM191.3,16h-1.355V4.75H191.3Zm1.809-4.036a4.681,4.681,0,0,1,.458-2.095,3.415,3.415,0,0,1,1.274-1.436,3.469,3.469,0,0,1,1.864-.505,3.342,3.342,0,0,1,2.618,1.121,4.311,4.311,0,0,1,1,2.981v.1a4.722,4.722,0,0,1-.443,2.076,3.365,3.365,0,0,1-1.267,1.432,3.509,3.509,0,0,1-1.893.513,3.334,3.334,0,0,1-2.611-1.121,4.29,4.29,0,0,1-1-2.966Zm1.362.161a3.39,3.39,0,0,0,.612,2.117,2.072,2.072,0,0,0,3.278-.011,3.707,3.707,0,0,0,.608-2.267,3.384,3.384,0,0,0-.619-2.113,1.968,1.968,0,0,0-1.644-.809,1.946,1.946,0,0,0-1.619.8A3.68,3.68,0,0,0,194.472,12.125Zm10.935-.154a4.651,4.651,0,0,1,.857-2.955,3.024,3.024,0,0,1,4.519-.143l.059-.8h1.245V19.047h-1.355V15.268a2.844,2.844,0,0,1-2.183.879,2.733,2.733,0,0,1-2.289-1.117,4.755,4.755,0,0,1-.853-2.963Zm1.355.154a3.526,3.526,0,0,0,.575,2.139,1.829,1.829,0,0,0,1.549.776,2.029,2.029,0,0,0,1.846-1.069V10.089A2.035,2.035,0,0,0,208.9,9.042a1.843,1.843,0,0,0-1.56.78A3.838,3.838,0,0,0,206.762,12.125Zm12.393,3.091a2.878,2.878,0,0,1-2.322.93,2.464,2.464,0,0,1-1.93-.736,3.186,3.186,0,0,1-.67-2.179V8.075h1.355v5.12q0,1.8,1.465,1.8a2.028,2.028,0,0,0,2.065-1.157V8.075h1.355V16h-1.289Zm6.665.93a3.463,3.463,0,0,1-2.622-1.058,3.928,3.928,0,0,1-1.011-2.831v-.249a4.756,4.756,0,0,1,.45-2.106,3.514,3.514,0,0,1,1.26-1.45,3.167,3.167,0,0,1,1.754-.524,2.968,2.968,0,0,1,2.4,1.018,4.408,4.408,0,0,1,.857,2.915v.564h-5.369a2.817,2.817,0,0,0,.685,1.893,2.153,2.153,0,0,0,1.666.721,2.36,2.36,0,0,0,1.216-.293,3.055,3.055,0,0,0,.872-.776l.828.645A3.328,3.328,0,0,1,225.82,16.146Zm-.168-7.1a1.807,1.807,0,0,0-1.377.6,2.9,2.9,0,0,0-.688,1.674h3.97v-.1A2.581,2.581,0,0,0,227,9.61,1.7,1.7,0,0,0,225.651,9.042ZM26.927,25.291a4.06,4.06,0,0,0-.667-.051,1.786,1.786,0,0,0-1.809,1.135V32H23.1V24.075h1.318l.022.916a2.11,2.11,0,0,1,1.89-1.062,1.384,1.384,0,0,1,.6.1Zm4.534,6.855a3.463,3.463,0,0,1-2.622-1.058,3.928,3.928,0,0,1-1.011-2.831v-.249a4.756,4.756,0,0,1,.45-2.106,3.514,3.514,0,0,1,1.26-1.45,3.167,3.167,0,0,1,1.754-.524,2.968,2.968,0,0,1,2.4,1.018,4.408,4.408,0,0,1,.857,2.915v.564H29.183a2.817,2.817,0,0,0,.685,1.893,2.153,2.153,0,0,0,1.666.721,2.36,2.36,0,0,0,1.216-.293,3.055,3.055,0,0,0,.872-.776l.828.645A3.328,3.328,0,0,1,31.46,32.146Zm-.168-7.1a1.807,1.807,0,0,0-1.377.6,2.9,2.9,0,0,0-.688,1.674H33.2v-.1a2.581,2.581,0,0,0-.557-1.6A1.7,1.7,0,0,0,31.292,25.042Zm11.521,3.083a4.745,4.745,0,0,1-.828,2.915,2.653,2.653,0,0,1-2.241,1.106,2.906,2.906,0,0,1-2.271-.916v3.816H36.119V24.075h1.238l.066.879a2.791,2.791,0,0,1,2.3-1.025,2.7,2.7,0,0,1,2.26,1.077,4.8,4.8,0,0,1,.831,3Zm-1.355-.154a3.5,3.5,0,0,0-.571-2.117,1.84,1.84,0,0,0-1.567-.776,1.992,1.992,0,0,0-1.846,1.091v3.787a2,2,0,0,0,1.86,1.084,1.832,1.832,0,0,0,1.549-.773A3.822,3.822,0,0,0,41.458,27.972Zm6.907-2.681a4.06,4.06,0,0,0-.667-.051,1.786,1.786,0,0,0-1.809,1.135V32H44.534V24.075h1.318l.022.916a2.11,2.11,0,0,1,1.89-1.062,1.384,1.384,0,0,1,.6.1ZM52.9,32.146a3.463,3.463,0,0,1-2.622-1.058,3.928,3.928,0,0,1-1.011-2.831v-.249a4.756,4.756,0,0,1,.45-2.106,3.514,3.514,0,0,1,1.26-1.45,3.167,3.167,0,0,1,1.754-.524,2.968,2.968,0,0,1,2.4,1.018,4.408,4.408,0,0,1,.857,2.915v.564H50.621a2.817,2.817,0,0,0,.685,1.893,2.153,2.153,0,0,0,1.666.721,2.36,2.36,0,0,0,1.216-.293,3.055,3.055,0,0,0,.872-.776l.828.645A3.328,3.328,0,0,1,52.9,32.146Zm-.168-7.1a1.807,1.807,0,0,0-1.377.6,2.9,2.9,0,0,0-.688,1.674h3.97v-.1a2.581,2.581,0,0,0-.557-1.6A1.7,1.7,0,0,0,52.73,25.042ZM62.171,29.9a1,1,0,0,0-.414-.853,3.983,3.983,0,0,0-1.443-.524,6.822,6.822,0,0,1-1.633-.527,2.324,2.324,0,0,1-.894-.732A1.752,1.752,0,0,1,57.5,26.25a2.056,2.056,0,0,1,.824-1.648,3.218,3.218,0,0,1,2.106-.674,3.311,3.311,0,0,1,2.186.7,2.21,2.21,0,0,1,.839,1.78H62.09a1.223,1.223,0,0,0-.472-.959,1.77,1.77,0,0,0-1.19-.4,1.852,1.852,0,0,0-1.157.322,1.014,1.014,0,0,0-.417.842.822.822,0,0,0,.388.74,4.776,4.776,0,0,0,1.4.476,7.308,7.308,0,0,1,1.644.542,2.4,2.4,0,0,1,.934.758,1.864,1.864,0,0,1,.3,1.08,2.028,2.028,0,0,1-.85,1.7,3.564,3.564,0,0,1-2.2.641,3.991,3.991,0,0,1-1.685-.337,2.74,2.74,0,0,1-1.146-.941,2.268,2.268,0,0,1-.414-1.307h1.355a1.4,1.4,0,0,0,.546,1.08,2.117,2.117,0,0,0,1.344.4,2.185,2.185,0,0,0,1.234-.311A.956.956,0,0,0,62.171,29.9Zm6.409,2.249a3.463,3.463,0,0,1-2.622-1.058,3.928,3.928,0,0,1-1.011-2.831v-.249A4.756,4.756,0,0,1,65.4,25.9a3.514,3.514,0,0,1,1.26-1.45,3.167,3.167,0,0,1,1.754-.524,2.968,2.968,0,0,1,2.4,1.018,4.408,4.408,0,0,1,.857,2.915v.564H66.3a2.817,2.817,0,0,0,.685,1.893,2.153,2.153,0,0,0,1.666.721,2.36,2.36,0,0,0,1.216-.293,3.055,3.055,0,0,0,.872-.776l.828.645A3.328,3.328,0,0,1,68.58,32.146Zm-.168-7.1a1.807,1.807,0,0,0-1.377.6,2.9,2.9,0,0,0-.688,1.674h3.97v-.1a2.581,2.581,0,0,0-.557-1.6A1.7,1.7,0,0,0,68.411,25.042Zm6.108-.967.044,1a2.888,2.888,0,0,1,2.373-1.143q2.512,0,2.534,2.834V32H78.116V26.756a1.824,1.824,0,0,0-.392-1.267,1.57,1.57,0,0,0-1.2-.41,1.956,1.956,0,0,0-1.157.352,2.387,2.387,0,0,0-.776.923V32H73.238V24.075Zm8.833-1.919v1.919h1.479v1.047H83.353v4.915a1.1,1.1,0,0,0,.2.714.833.833,0,0,0,.674.238,3.281,3.281,0,0,0,.645-.088V32a3.928,3.928,0,0,1-1.04.146,1.687,1.687,0,0,1-1.37-.549A2.36,2.36,0,0,1,82,30.037V25.123H80.555V24.075H82V22.156ZM91.307,32a2.846,2.846,0,0,1-.19-.835,3.023,3.023,0,0,1-2.256.981,2.8,2.8,0,0,1-1.923-.663,2.145,2.145,0,0,1-.751-1.681,2.24,2.24,0,0,1,.941-1.923,4.437,4.437,0,0,1,2.648-.685h1.318v-.623a1.522,1.522,0,0,0-.425-1.132,1.707,1.707,0,0,0-1.252-.421,1.976,1.976,0,0,0-1.216.366,1.079,1.079,0,0,0-.491.886H86.348a1.87,1.87,0,0,1,.421-1.146,2.874,2.874,0,0,1,1.143-.875,3.844,3.844,0,0,1,1.586-.322,3.133,3.133,0,0,1,2.146.685,2.47,2.47,0,0,1,.806,1.886v3.647a4.459,4.459,0,0,0,.278,1.736V32Zm-2.249-1.033a2.381,2.381,0,0,0,1.208-.33,1.994,1.994,0,0,0,.828-.857V28.155H90.032q-2.49,0-2.49,1.458a1.234,1.234,0,0,0,.425,1A1.633,1.633,0,0,0,89.058,30.967Zm12.517,1.179a3.463,3.463,0,0,1-2.622-1.058,3.928,3.928,0,0,1-1.011-2.831v-.249a4.756,4.756,0,0,1,.45-2.106,3.514,3.514,0,0,1,1.26-1.45,3.167,3.167,0,0,1,1.754-.524,2.968,2.968,0,0,1,2.4,1.018,4.408,4.408,0,0,1,.857,2.915v.564H99.3a2.817,2.817,0,0,0,.685,1.893,2.153,2.153,0,0,0,1.666.721,2.36,2.36,0,0,0,1.216-.293,3.055,3.055,0,0,0,.872-.776l.828.645A3.328,3.328,0,0,1,101.575,32.146Zm-.168-7.1a1.807,1.807,0,0,0-1.377.6,2.9,2.9,0,0,0-.688,1.674h3.97v-.1a2.581,2.581,0,0,0-.557-1.6A1.7,1.7,0,0,0,101.407,25.042Zm6.3,6.958h-1.355V20.75h1.355Zm10.774,0a2.846,2.846,0,0,1-.19-.835,3.023,3.023,0,0,1-2.256.981,2.8,2.8,0,0,1-1.923-.663,2.145,2.145,0,0,1-.751-1.681,2.24,2.24,0,0,1,.941-1.923,4.437,4.437,0,0,1,2.648-.685h1.318v-.623a1.522,1.522,0,0,0-.425-1.132,1.707,1.707,0,0,0-1.252-.421,1.976,1.976,0,0,0-1.216.366,1.079,1.079,0,0,0-.491.886h-1.362a1.87,1.87,0,0,1,.421-1.146,2.874,2.874,0,0,1,1.143-.875,3.844,3.844,0,0,1,1.586-.322,3.133,3.133,0,0,1,2.146.685,2.47,2.47,0,0,1,.806,1.886v3.647a4.459,4.459,0,0,0,.278,1.736V32Zm-2.249-1.033a2.381,2.381,0,0,0,1.208-.33,1.994,1.994,0,0,0,.828-.857V28.155h-1.062q-2.49,0-2.49,1.458a1.234,1.234,0,0,0,.425,1A1.633,1.633,0,0,0,116.231,30.967Zm1.252-10.217h1.641L117.161,22.9H116.07Zm8.093,4.541a4.06,4.06,0,0,0-.667-.051,1.786,1.786,0,0,0-1.809,1.135V32h-1.355V24.075h1.318l.022.916a2.11,2.11,0,0,1,1.89-1.062,1.384,1.384,0,0,1,.6.1Zm4.534,6.855a3.463,3.463,0,0,1-2.622-1.058,3.928,3.928,0,0,1-1.011-2.831v-.249a4.756,4.756,0,0,1,.45-2.106,3.514,3.514,0,0,1,1.26-1.45,3.167,3.167,0,0,1,1.754-.524,2.968,2.968,0,0,1,2.4,1.018,4.408,4.408,0,0,1,.857,2.915v.564h-5.369a2.817,2.817,0,0,0,.685,1.893,2.153,2.153,0,0,0,1.666.721,2.36,2.36,0,0,0,1.216-.293,3.055,3.055,0,0,0,.872-.776l.828.645A3.328,3.328,0,0,1,130.11,32.146Zm-.168-7.1a1.807,1.807,0,0,0-1.377.6,2.9,2.9,0,0,0-.688,1.674h3.97v-.1a2.581,2.581,0,0,0-.557-1.6A1.7,1.7,0,0,0,129.942,25.042ZM139.661,32a2.846,2.846,0,0,1-.19-.835,3.023,3.023,0,0,1-2.256.981,2.8,2.8,0,0,1-1.923-.663,2.145,2.145,0,0,1-.751-1.681,2.24,2.24,0,0,1,.941-1.923,4.437,4.437,0,0,1,2.648-.685h1.318v-.623a1.522,1.522,0,0,0-.425-1.132,1.707,1.707,0,0,0-1.252-.421,1.976,1.976,0,0,0-1.216.366,1.079,1.079,0,0,0-.491.886H134.7a1.87,1.87,0,0,1,.421-1.146,2.874,2.874,0,0,1,1.143-.875,3.844,3.844,0,0,1,1.586-.322,3.133,3.133,0,0,1,2.146.685A2.47,2.47,0,0,1,140.8,26.5v3.647a4.459,4.459,0,0,0,.278,1.736V32Zm-2.249-1.033a2.381,2.381,0,0,0,1.208-.33,1.994,1.994,0,0,0,.828-.857V28.155h-1.062q-2.49,0-2.49,1.458a1.234,1.234,0,0,0,.425,1A1.633,1.633,0,0,0,137.413,30.967Zm8.9-3a4.651,4.651,0,0,1,.857-2.955,3.024,3.024,0,0,1,4.519-.143l.059-.8h1.245V35.047h-1.355V31.268a2.844,2.844,0,0,1-2.183.879,2.733,2.733,0,0,1-2.289-1.117,4.755,4.755,0,0,1-.853-2.963Zm1.355.154a3.526,3.526,0,0,0,.575,2.139,1.829,1.829,0,0,0,1.549.776,2.029,2.029,0,0,0,1.846-1.069V26.089a2.035,2.035,0,0,0-1.831-1.047,1.843,1.843,0,0,0-1.56.78A3.838,3.838,0,0,0,147.667,28.125Zm12.393,3.091a2.878,2.878,0,0,1-2.322.93,2.464,2.464,0,0,1-1.93-.736,3.186,3.186,0,0,1-.67-2.179V24.075h1.355v5.12q0,1.8,1.465,1.8a2.028,2.028,0,0,0,2.065-1.157V24.075h1.355V32h-1.289Zm6.665.93a3.463,3.463,0,0,1-2.622-1.058,3.928,3.928,0,0,1-1.011-2.831v-.249a4.756,4.756,0,0,1,.45-2.106,3.514,3.514,0,0,1,1.26-1.45,3.167,3.167,0,0,1,1.754-.524,2.968,2.968,0,0,1,2.4,1.018,4.408,4.408,0,0,1,.857,2.915v.564h-5.369a2.817,2.817,0,0,0,.685,1.893,2.153,2.153,0,0,0,1.666.721,2.36,2.36,0,0,0,1.216-.293,3.055,3.055,0,0,0,.872-.776l.828.645A3.328,3.328,0,0,1,166.724,32.146Zm-.168-7.1a1.807,1.807,0,0,0-1.377.6,2.9,2.9,0,0,0-.688,1.674h3.97v-.1a2.581,2.581,0,0,0-.557-1.6A1.7,1.7,0,0,0,166.556,25.042Zm11.719,6a1.952,1.952,0,0,0,1.267-.439,1.546,1.546,0,0,0,.6-1.1h1.282a2.457,2.457,0,0,1-.469,1.3,3.087,3.087,0,0,1-1.154.981,3.329,3.329,0,0,1-1.527.366,3.265,3.265,0,0,1-2.574-1.08,4.3,4.3,0,0,1-.956-2.955v-.227a4.771,4.771,0,0,1,.425-2.058,3.236,3.236,0,0,1,1.219-1.4,3.464,3.464,0,0,1,1.879-.5,3.178,3.178,0,0,1,2.216.8,2.853,2.853,0,0,1,.941,2.073h-1.282a1.867,1.867,0,0,0-.582-1.263,1.811,1.811,0,0,0-1.293-.494,1.9,1.9,0,0,0-1.6.743,3.491,3.491,0,0,0-.568,2.15v.256a3.422,3.422,0,0,0,.564,2.109A1.906,1.906,0,0,0,178.274,31.041Zm9.565.176a2.878,2.878,0,0,1-2.322.93,2.464,2.464,0,0,1-1.93-.736,3.186,3.186,0,0,1-.67-2.179V24.075h1.355v5.12q0,1.8,1.465,1.8a2.028,2.028,0,0,0,2.065-1.157V24.075h1.355V32h-1.289Zm10.085-3.091a4.712,4.712,0,0,1-.835,2.919,2.668,2.668,0,0,1-2.241,1.1,2.763,2.763,0,0,1-2.322-1.062l-.066.916h-1.245V20.75h1.355v4.2a2.747,2.747,0,0,1,2.263-1.018A2.684,2.684,0,0,1,197.1,25.02a4.853,4.853,0,0,1,.824,2.988Zm-1.355-.154a3.662,3.662,0,0,0-.535-2.139,1.77,1.77,0,0,0-1.538-.754,1.989,1.989,0,0,0-1.926,1.245v3.428A2.045,2.045,0,0,0,194.512,31a1.76,1.76,0,0,0,1.516-.754A3.894,3.894,0,0,0,196.57,27.972Zm6.892-2.681a4.06,4.06,0,0,0-.667-.051,1.786,1.786,0,0,0-1.809,1.135V32h-1.355V24.075h1.318l.022.916a2.11,2.11,0,0,1,1.89-1.062,1.384,1.384,0,0,1,.6.1ZM208,32.146a3.463,3.463,0,0,1-2.622-1.058,3.928,3.928,0,0,1-1.011-2.831v-.249a4.756,4.756,0,0,1,.45-2.106,3.514,3.514,0,0,1,1.26-1.45,3.167,3.167,0,0,1,1.754-.524,2.968,2.968,0,0,1,2.4,1.018,4.408,4.408,0,0,1,.857,2.915v.564h-5.369a2.817,2.817,0,0,0,.685,1.893,2.153,2.153,0,0,0,1.666.721,2.36,2.36,0,0,0,1.216-.293,3.055,3.055,0,0,0,.872-.776l.828.645A3.328,3.328,0,0,1,208,32.146Zm-.168-7.1a1.807,1.807,0,0,0-1.377.6,2.9,2.9,0,0,0-.688,1.674h3.97v-.1a2.581,2.581,0,0,0-.557-1.6A1.7,1.7,0,0,0,207.828,25.042Zm11.829,7.1a3.463,3.463,0,0,1-2.622-1.058,3.928,3.928,0,0,1-1.011-2.831v-.249a4.756,4.756,0,0,1,.45-2.106,3.514,3.514,0,0,1,1.26-1.45,3.167,3.167,0,0,1,1.754-.524,2.968,2.968,0,0,1,2.4,1.018,4.408,4.408,0,0,1,.857,2.915v.564h-5.369a2.817,2.817,0,0,0,.685,1.893,2.153,2.153,0,0,0,1.666.721,2.36,2.36,0,0,0,1.216-.293,3.055,3.055,0,0,0,.872-.776l.828.645A3.328,3.328,0,0,1,219.656,32.146Zm-.168-7.1a1.807,1.807,0,0,0-1.377.6,2.9,2.9,0,0,0-.688,1.674h3.97v-.1a2.581,2.581,0,0,0-.557-1.6A1.7,1.7,0,0,0,219.488,25.042Zm6.3,6.958h-1.355V20.75h1.355ZM103.674,47.041a1.952,1.952,0,0,0,1.267-.439,1.546,1.546,0,0,0,.6-1.1h1.282a2.457,2.457,0,0,1-.469,1.3,3.087,3.087,0,0,1-1.154.981,3.329,3.329,0,0,1-1.527.366,3.265,3.265,0,0,1-2.574-1.08,4.3,4.3,0,0,1-.956-2.955v-.227a4.771,4.771,0,0,1,.425-2.058,3.236,3.236,0,0,1,1.219-1.4,3.464,3.464,0,0,1,1.879-.5,3.178,3.178,0,0,1,2.216.8,2.853,2.853,0,0,1,.941,2.073h-1.282a1.867,1.867,0,0,0-.582-1.263,1.811,1.811,0,0,0-1.293-.494,1.9,1.9,0,0,0-1.6.743,3.491,3.491,0,0,0-.568,2.15v.256a3.422,3.422,0,0,0,.564,2.109A1.906,1.906,0,0,0,103.674,47.041Zm9.565.176a2.878,2.878,0,0,1-2.322.93,2.464,2.464,0,0,1-1.93-.736,3.186,3.186,0,0,1-.67-2.179V40.075h1.355v5.12q0,1.8,1.465,1.8a2.028,2.028,0,0,0,2.065-1.157V40.075h1.355V48h-1.289Zm6.665.93a3.463,3.463,0,0,1-2.622-1.058,3.928,3.928,0,0,1-1.011-2.831v-.249a4.756,4.756,0,0,1,.45-2.106,3.514,3.514,0,0,1,1.26-1.45,3.167,3.167,0,0,1,1.754-.524,2.968,2.968,0,0,1,2.4,1.018,4.408,4.408,0,0,1,.857,2.915v.564h-5.369a2.817,2.817,0,0,0,.685,1.893,2.153,2.153,0,0,0,1.666.721,2.36,2.36,0,0,0,1.216-.293,3.055,3.055,0,0,0,.872-.776l.828.645A3.328,3.328,0,0,1,119.9,48.146Zm-.168-7.1a1.807,1.807,0,0,0-1.377.6,2.9,2.9,0,0,0-.688,1.674h3.97v-.1a2.581,2.581,0,0,0-.557-1.6A1.7,1.7,0,0,0,119.736,41.042Zm8.657.249a4.06,4.06,0,0,0-.667-.051,1.786,1.786,0,0,0-1.809,1.135V48h-1.355V40.075h1.318l.022.916a2.11,2.11,0,0,1,1.89-1.062,1.384,1.384,0,0,1,.6.1Zm7.939,2.834a4.745,4.745,0,0,1-.828,2.915,2.653,2.653,0,0,1-2.241,1.106,2.906,2.906,0,0,1-2.271-.916v3.816h-1.355V40.075h1.238l.066.879a2.791,2.791,0,0,1,2.3-1.025,2.7,2.7,0,0,1,2.26,1.077,4.8,4.8,0,0,1,.831,3Zm-1.355-.154a3.5,3.5,0,0,0-.571-2.117,1.84,1.84,0,0,0-1.567-.776,1.992,1.992,0,0,0-1.846,1.091v3.787a2,2,0,0,0,1.86,1.084,1.832,1.832,0,0,0,1.549-.773A3.822,3.822,0,0,0,134.977,43.972Zm2.717-.007a4.681,4.681,0,0,1,.458-2.095,3.415,3.415,0,0,1,1.274-1.436,3.469,3.469,0,0,1,1.864-.505,3.342,3.342,0,0,1,2.618,1.121,4.311,4.311,0,0,1,1,2.981v.1a4.722,4.722,0,0,1-.443,2.076,3.365,3.365,0,0,1-1.267,1.432,3.509,3.509,0,0,1-1.893.513,3.334,3.334,0,0,1-2.611-1.121,4.29,4.29,0,0,1-1-2.966Zm1.362.161a3.39,3.39,0,0,0,.612,2.117,2.072,2.072,0,0,0,3.278-.011,3.707,3.707,0,0,0,.608-2.267,3.384,3.384,0,0,0-.619-2.113,1.968,1.968,0,0,0-1.644-.809,1.946,1.946,0,0,0-1.619.8A3.68,3.68,0,0,0,139.057,44.125Zm7.581,3.164a.849.849,0,0,1,.209-.586.8.8,0,0,1,.626-.234.819.819,0,0,1,.634.234.831.831,0,0,1,.216.586.786.786,0,0,1-.216.564.834.834,0,0,1-.634.227.753.753,0,0,1-.835-.791Z" transform="translate(856 6473)" fill="#12263f" stroke="rgba(0,0,0,0)" stroke-width="1"/><g transform="translate(64.347 4506.551)"><ellipse cx="59.655" cy="16.055" rx="59.655" ry="16.055" transform="translate(430.654 2188.103)" fill="none" stroke="#afafaf" stroke-miterlimit="10" stroke-width="2"/><line y2="168.654" transform="translate(549.963 2035.504)" fill="none" stroke="#afafaf" stroke-miterlimit="10" stroke-width="2"/><line y2="168.654" transform="translate(430.654 2035.504)" fill="none" stroke="#afafaf" stroke-miterlimit="10" stroke-width="2"/><line y2="168.784" transform="translate(481.029 2019.449)" fill="none" stroke="#8f2b58" stroke-miterlimit="10" stroke-width="2" stroke-dasharray="12"/><line y2="168.784" transform="translate(496.829 2052.738)" fill="none" stroke="#339be8" stroke-miterlimit="10" stroke-width="2" stroke-dasharray="12"/><g transform="translate(493.491 2091.774)"><line x2="6.677" y2="4.69" fill="none" stroke="#339be8" stroke-miterlimit="10" stroke-width="0.81"/><line y1="4.69" x2="5.644" transform="translate(0.397)" fill="none" stroke="#339be8" stroke-miterlimit="10" stroke-width="0.81"/></g><g transform="translate(493.491 2068.6)"><line x2="6.677" y2="4.69" fill="none" stroke="#339be8" stroke-miterlimit="10" stroke-width="0.81"/><line y1="4.69" x2="5.644" transform="translate(0.397)" fill="none" stroke="#339be8" stroke-miterlimit="10" stroke-width="0.81"/></g><g transform="translate(493.491 2114.949)"><line x2="6.677" y2="4.69" fill="none" stroke="#339be8" stroke-miterlimit="10" stroke-width="0.81"/><line y1="4.69" x2="5.644" transform="translate(0.397)" fill="none" stroke="#339be8" stroke-miterlimit="10" stroke-width="0.81"/></g><g transform="translate(493.491 2139.784)"><line x2="6.677" y2="4.69" fill="none" stroke="#339be8" stroke-miterlimit="10" stroke-width="0.81"/><line y1="4.69" x2="5.644" transform="translate(0.397)" fill="none" stroke="#339be8" stroke-miterlimit="10" stroke-width="0.81"/></g><g transform="translate(493.491 2163.508)"><line x2="6.677" y2="4.69" fill="none" stroke="#339be8" stroke-miterlimit="10" stroke-width="0.81"/><line y1="4.69" x2="5.644" transform="translate(0.397)" fill="none" stroke="#339be8" stroke-miterlimit="10" stroke-width="0.81"/></g><g transform="translate(493.491 2188.413)"><line x2="6.677" y2="4.69" fill="none" stroke="#339be8" stroke-miterlimit="10" stroke-width="0.81"/><line y1="4.69" x2="5.644" transform="translate(0.397)" fill="none" stroke="#339be8" stroke-miterlimit="10" stroke-width="0.81"/></g><g transform="translate(493.491 2212.393)"><line x2="6.677" y2="4.69" fill="none" stroke="#339be8" stroke-miterlimit="10" stroke-width="0.81"/><line y1="4.69" x2="5.644" transform="translate(0.397)" fill="none" stroke="#339be8" stroke-miterlimit="10" stroke-width="0.81"/></g><path d="M617.457,2039.334c0-10.983,26.708-19.885,59.654-19.885s59.655,8.9,59.655,19.885" transform="translate(7.332 0)" fill="none" stroke="#afafaf" stroke-miterlimit="10" stroke-width="2.226"/><path d="M617.457,2199.314c0-10.982,26.708-19.884,59.654-19.884s59.655,8.9,59.655,19.884" transform="translate(7.332 6.28)" fill="none" stroke="#afafaf" stroke-miterlimit="10" stroke-width="2.226"/><line y2="168.784" transform="translate(684.444 2019.449)" fill="none" stroke="#8f2b58" stroke-miterlimit="10" stroke-width="2" stroke-dasharray="12"/><line y2="168.784" transform="translate(916.729 2035.504)" fill="none" stroke="#8f2b58" stroke-miterlimit="10" stroke-width="2" stroke-dasharray="12"/><g transform="translate(689.893 2035.504)"><path d="M680.1,2058.382v168.654c30.391-.918,54.205-9.429,54.205-19.8V2038.583C734.307,2048.952,710.493,2057.463,680.1,2058.382Z" transform="translate(-680.102 -2034.753)" fill="#fff" stroke="#afafaf" stroke-miterlimit="10" stroke-width="2.226"/><path d="M731.185,2034.9a7.524,7.524,0,0,1,1.117,3.83v-3.83Z" transform="translate(-678.097 -2034.898)" fill="#fff" stroke="#afafaf" stroke-miterlimit="10" stroke-width="2.226"/></g><g transform="translate(624.789 2035.504)"><path d="M617.457,2034.9v3.83a7.532,7.532,0,0,1,1.116-3.83Z" transform="translate(-617.457 -2034.898)" fill="#fff" stroke="#afafaf" stroke-miterlimit="10" stroke-width="2.226"/><path d="M617.457,2038.583v168.654c0,9.792,21.24,17.925,49.2,19.574V2058.156C638.7,2056.508,617.457,2048.375,617.457,2038.583Z" transform="translate(-617.457 -2034.753)" fill="#fff" stroke="#afafaf" stroke-miterlimit="10" stroke-width="2.226"/></g><rect width="247.849" height="170.09" transform="translate(792.804 2035.504)" fill="none" stroke="#afafaf" stroke-miterlimit="10" stroke-width="2.226"/><ellipse cx="59.655" cy="16.055" rx="59.655" ry="16.055" transform="translate(430.654 2019.449)" fill="none" stroke="#afafaf" stroke-miterlimit="10" stroke-width="2"/></g><g transform="translate(289.506 6284.954)"><path d="M382.87,460.136a8.468,8.468,0,0,1,1.135-4.118s-.4-14.08-3.026-17.358c0,0-.961-1.692-.539,1.954l1.434,22.319Z" transform="translate(-99.334)" stroke="rgba(0,0,0,0)" stroke-width="1"/><g transform="translate(274.701 458.891)"><path d="M325.608,663.042a4.964,4.964,0,0,0-.22-2.254,1.4,1.4,0,0,0-2.335-.09c-.41.439-.583,1.009-.979,1.47a6.206,6.206,0,0,1-1.265,1.066c-.689.464-1.384.916-2.07,1.39a4.368,4.368,0,1,0,6.311,3.912c0-.045,0-.09,0-.134A34.831,34.831,0,0,0,325.608,663.042Zm-4.927,8.511a3.017,3.017,0,1,1,3.017-3.017A3.02,3.02,0,0,1,320.681,671.553Z" transform="translate(-316.073 -659.75)" stroke="rgba(0,0,0,0)" stroke-width="1"/><path d="M323.067,659.135a4.962,4.962,0,0,0-.22-2.254,1.4,1.4,0,0,0-2.335-.09c-.41.439-.583,1.009-.979,1.47a6.2,6.2,0,0,1-1.265,1.066c-.689.464-1.384.916-2.07,1.39a4.368,4.368,0,1,0,6.311,3.912c0-.045,0-.09,0-.134A34.828,34.828,0,0,0,323.067,659.135Zm-4.927,8.511a3.017,3.017,0,1,1,3.017-3.017A3.02,3.02,0,0,1,318.141,667.646Z" transform="translate(-313.772 -656.212)" stroke="rgba(0,0,0,0)" stroke-width="1"/></g><g transform="translate(270.617 443.611)"><path d="M447.56,624.44a4.373,4.373,0,0,0-4.579-.427c-.793.262-1.574.544-2.362.814a6.2,6.2,0,0,1-1.613.366c-.606.038-1.166-.168-1.763-.106A1.4,1.4,0,0,0,435.906,627c.246.627,1.147,1.132,1.665,1.535a34.819,34.819,0,0,0,4.618,2.788c.033.027.066.054.1.08a4.369,4.369,0,0,0,5.27-6.969Zm-.229,5.3a3.017,3.017,0,1,1-.586-4.226A3.02,3.02,0,0,1,447.331,629.744Z" transform="translate(-420.167 -611.368)" stroke="rgba(0,0,0,0)" stroke-width="1"/><path d="M286.709,509.815a8.466,8.466,0,0,0-3.969-1.579s-10.989-8.812-12.019-12.885c0,0-.77-1.787,1.884.749l16.936,14.607Z" transform="translate(-270.617 -494.74)" stroke="rgba(0,0,0,0)" stroke-width="1"/><path d="M487.841,626.775a4.369,4.369,0,1,1,6.119-.849A4.373,4.373,0,0,1,487.841,626.775Zm.815-1.078a3.017,3.017,0,1,0-.586-4.226A3.02,3.02,0,0,0,488.656,625.7Z" transform="translate(-465.718 -607.173)" stroke="rgba(0,0,0,0)" stroke-width="1"/><path d="M443.58,621.706c-1,.312-1.976.669-2.961,1.007a6.2,6.2,0,0,1-1.613.366c-.606.038-1.166-.168-1.763-.105a1.4,1.4,0,0,0-1.337,1.917c.246.627,1.147,1.132,1.665,1.535,1.056.822,5.358,3.49,6.743,3.553.121-.6-2.747-2.566-2.883-3.156a4.675,4.675,0,0,1,.062-1.973c.222-1.034.781-2.795,2.014-2.926Z" transform="translate(-420.167 -609.692)" stroke="rgba(0,0,0,0)" stroke-width="1"/></g><circle cx="0.854" cy="0.854" r="0.854" transform="translate(282.449 455.03)" stroke="rgba(0,0,0,0)" stroke-width="1"/><circle cx="0.854" cy="0.854" r="0.854" transform="translate(282.401 454.899)" stroke="rgba(0,0,0,0)" stroke-width="1"/><rect width="0.145" height="17.543" transform="translate(270.762 443.832) rotate(-49.297)" stroke="rgba(0,0,0,0)" stroke-width="1"/></g></g></g></svg>