<svg xmlns="http://www.w3.org/2000/svg" width="189.578" height="299.721" viewBox="0 0 189.578 299.721"><g transform="translate(-390.992 -2355.359)"><g transform="translate(-22.154 3964.614)"><path d="M413.646-1557.046v247.011h58.936l12.567-94.038,35.535,84.5,62.836-20.368,18.634-1.734L582.22-1480.342s-39,7.367-53.736-28.6,3.9-77.137,3.9-77.137l-74.969-22.534S448.314-1556.612,413.646-1557.046Z" fill="none" stroke="#6b6968" stroke-miterlimit="10" stroke-width="1"/><path d="M413.646-1551.14v242.709h56.5l12.047-92.4,34.065,83.032,60.236-20.013,17.863-1.7-19.11-136.258s-37.388,7.239-51.512-28.1,3.739-75.793,3.739-75.793L455.6-1601.811S446.879-1550.714,413.646-1551.14Z" transform="translate(0 -1.603)" fill="none" stroke="#6b6968" stroke-miterlimit="10" stroke-width="0.971"/><path d="M413.646-1545.235v238.407H467.93l11.575-90.762,32.73,81.56,57.876-19.659,17.164-1.672L568.915-1471.2s-35.924,7.11-49.495-27.6,3.593-74.45,3.593-74.45l-69.053-21.75S445.577-1544.817,413.646-1545.235Z" transform="translate(0 -3.206)" fill="none" stroke="#6b6968" stroke-miterlimit="10" stroke-width="0.943"/><g transform="translate(442.588 -1537.111)"><rect width="0.764" height="205.485" transform="translate(2.744 0.829)" fill="#35190f"/><path d="M451.509-1511.709l.56.521,2.566-2.761,2.566,2.761.56-.521-3.126-3.362Z" transform="translate(-451.509 1515.071)" fill="#35190f"/><g transform="translate(0 203.259)"><path d="M451.509-1248.638l.56-.521,2.566,2.761,2.566-2.761.56.521-3.126,3.362Z" transform="translate(-451.509 1249.159)" fill="#35190f"/></g></g></g><text transform="translate(401.5 2566) rotate(-90)" fill="#636363" font-size="16" font-family="Roboto-Regular, Roboto"><tspan x="0" y="17">Delantero</tspan></text></g></svg>