<svg xmlns="http://www.w3.org/2000/svg" width="610" height="356.609" viewBox="0 0 610 356.609"><g transform="translate(-810 -28316.391)"><rect width="610" height="54" transform="translate(810 28619)" fill="#d6ebfb"/><path d="M81.828,13.211A4.025,4.025,0,0,1,80.473,16.1a4.76,4.76,0,0,1-3.223,1.055,4.28,4.28,0,0,1-3.441-1.473,6.038,6.038,0,0,1-1.254-4.043v-.7a6.819,6.819,0,0,1,.578-2.891,4.332,4.332,0,0,1,1.652-1.918,5.164,5.164,0,0,1,5.668.387,4.326,4.326,0,0,1,1.391,2.961H79.5a2.376,2.376,0,0,0-.613-1.6,2.271,2.271,0,0,0-1.605-.5,1.991,1.991,0,0,0-1.754.84,4.707,4.707,0,0,0-.6,2.605V11.7a5.038,5.038,0,0,0,.559,2.7,1.954,1.954,0,0,0,1.762.852,2.314,2.314,0,0,0,1.621-.5,2.241,2.241,0,0,0,.613-1.535Zm3.594-3.742A2.818,2.818,0,0,1,87.68,8.391q2.75,0,2.789,3.2V17H88.211V11.648a1.57,1.57,0,0,0-.312-1.074,1.34,1.34,0,0,0-1.039-.348,1.537,1.537,0,0,0-1.437.766V17H83.164V5h2.258ZM97.07,17a2.507,2.507,0,0,1-.227-.758,2.732,2.732,0,0,1-2.133.914,3,3,0,0,1-2.059-.719,2.312,2.312,0,0,1-.816-1.812,2.389,2.389,0,0,1,1-2.062,4.915,4.915,0,0,1,2.879-.727H96.75v-.484a1.393,1.393,0,0,0-.3-.937,1.183,1.183,0,0,0-.949-.352,1.345,1.345,0,0,0-.895.273.929.929,0,0,0-.324.75H92.023a2.268,2.268,0,0,1,.453-1.359,3,3,0,0,1,1.281-.98,4.669,4.669,0,0,1,1.859-.355,3.689,3.689,0,0,1,2.48.785,2.747,2.747,0,0,1,.918,2.207v3.664a4.041,4.041,0,0,0,.336,1.82V17ZM95.2,15.43a1.945,1.945,0,0,0,.922-.223,1.462,1.462,0,0,0,.625-.6V13.156h-.844q-1.7,0-1.8,1.172l-.008.133a.9.9,0,0,0,.3.7A1.153,1.153,0,0,0,95.2,15.43Zm10.3-4.766a6.134,6.134,0,0,0-.812-.062,1.654,1.654,0,0,0-1.68.867V17H100.75V8.547h2.133l.063,1.008a2.092,2.092,0,0,1,1.883-1.164,2.366,2.366,0,0,1,.7.1Zm5.836,0a6.134,6.134,0,0,0-.812-.062,1.654,1.654,0,0,0-1.68.867V17h-2.258V8.547h2.133l.063,1.008a2.092,2.092,0,0,1,1.883-1.164,2.366,2.366,0,0,1,.7.1Zm4.977,6.492a4.15,4.15,0,0,1-3.027-1.141,4.054,4.054,0,0,1-1.168-3.039v-.219a5.106,5.106,0,0,1,.492-2.277A3.612,3.612,0,0,1,114,8.934a3.914,3.914,0,0,1,2.059-.543,3.508,3.508,0,0,1,2.73,1.094,4.444,4.444,0,0,1,1,3.1v.922h-5.383a2.1,2.1,0,0,0,.66,1.328,2,2,0,0,0,1.395.5,2.437,2.437,0,0,0,2.039-.945l1.109,1.242a3.389,3.389,0,0,1-1.375,1.121A4.511,4.511,0,0,1,116.313,17.156Zm-.258-6.937a1.414,1.414,0,0,0-1.09.453,2.341,2.341,0,0,0-.535,1.3h3.141v-.18a1.669,1.669,0,0,0-.406-1.16A1.459,1.459,0,0,0,116.055,10.219Zm7.719-3.75V8.547h1.445V10.2h-1.445v4.219a1.007,1.007,0,0,0,.18.672.9.9,0,0,0,.688.2,3.6,3.6,0,0,0,.664-.055v1.711a4.648,4.648,0,0,1-1.367.2,2.156,2.156,0,0,1-2.422-2.4V10.2h-1.234V8.547h1.234V6.469Zm6.594,10.688a4.15,4.15,0,0,1-3.027-1.141,4.054,4.054,0,0,1-1.168-3.039v-.219a5.106,5.106,0,0,1,.492-2.277,3.612,3.612,0,0,1,1.395-1.547,3.914,3.914,0,0,1,2.059-.543,3.508,3.508,0,0,1,2.73,1.094,4.444,4.444,0,0,1,1,3.1v.922h-5.383a2.1,2.1,0,0,0,.66,1.328,2,2,0,0,0,1.395.5,2.437,2.437,0,0,0,2.039-.945l1.109,1.242a3.389,3.389,0,0,1-1.375,1.121A4.511,4.511,0,0,1,130.367,17.156Zm-.258-6.937a1.414,1.414,0,0,0-1.09.453,2.341,2.341,0,0,0-.535,1.3h3.141v-.18a1.669,1.669,0,0,0-.406-1.16A1.459,1.459,0,0,0,130.109,10.219Zm9.766.445a6.134,6.134,0,0,0-.812-.062,1.654,1.654,0,0,0-1.68.867V17h-2.258V8.547h2.133l.063,1.008A2.092,2.092,0,0,1,139.2,8.391a2.366,2.366,0,0,1,.7.1ZM145.625,17a2.507,2.507,0,0,1-.227-.758,2.732,2.732,0,0,1-2.133.914,3,3,0,0,1-2.059-.719,2.312,2.312,0,0,1-.816-1.812,2.389,2.389,0,0,1,1-2.062,4.915,4.915,0,0,1,2.879-.727H145.3v-.484a1.393,1.393,0,0,0-.3-.937,1.183,1.183,0,0,0-.949-.352,1.345,1.345,0,0,0-.895.273.929.929,0,0,0-.324.75h-2.258a2.268,2.268,0,0,1,.453-1.359,3,3,0,0,1,1.281-.98,4.669,4.669,0,0,1,1.859-.355,3.689,3.689,0,0,1,2.48.785,2.747,2.747,0,0,1,.918,2.207v3.664a4.041,4.041,0,0,0,.336,1.82V17Zm-1.867-1.57a1.945,1.945,0,0,0,.922-.223,1.462,1.462,0,0,0,.625-.6V13.156h-.844q-1.7,0-1.8,1.172l-.008.133a.9.9,0,0,0,.3.7A1.153,1.153,0,0,0,143.758,15.43Zm13.422,1.727a4.15,4.15,0,0,1-3.027-1.141,4.054,4.054,0,0,1-1.168-3.039v-.219a5.106,5.106,0,0,1,.492-2.277,3.612,3.612,0,0,1,1.395-1.547,3.914,3.914,0,0,1,2.059-.543,3.508,3.508,0,0,1,2.73,1.094,4.444,4.444,0,0,1,1,3.1v.922h-5.383a2.1,2.1,0,0,0,.66,1.328,2,2,0,0,0,1.395.5,2.437,2.437,0,0,0,2.039-.945l1.109,1.242a3.389,3.389,0,0,1-1.375,1.121A4.511,4.511,0,0,1,157.18,17.156Zm-.258-6.937a1.414,1.414,0,0,0-1.09.453,2.341,2.341,0,0,0-.535,1.3h3.141v-.18a1.669,1.669,0,0,0-.406-1.16A1.459,1.459,0,0,0,156.922,10.219Zm7.094-1.672.07.977a2.951,2.951,0,0,1,2.43-1.133,2.453,2.453,0,0,1,2,.789,3.682,3.682,0,0,1,.672,2.359V17H166.93V11.594a1.465,1.465,0,0,0-.312-1.043,1.4,1.4,0,0,0-1.039-.324,1.553,1.553,0,0,0-1.43.813V17h-2.258V8.547Zm12.984,0,.07.945a2.971,2.971,0,0,1,2.43-1.1,2.255,2.255,0,0,1,2.242,1.289,2.9,2.9,0,0,1,2.539-1.289,2.521,2.521,0,0,1,2.047.8A3.681,3.681,0,0,1,187,11.6V17h-2.266V11.609a1.61,1.61,0,0,0-.281-1.051,1.246,1.246,0,0,0-.992-.332,1.409,1.409,0,0,0-1.406.969l.008,5.8H179.8V11.617a1.59,1.59,0,0,0-.289-1.062,1.259,1.259,0,0,0-.984-.328,1.463,1.463,0,0,0-1.391.8V17h-2.258V8.547ZM193.633,17a2.507,2.507,0,0,1-.227-.758,2.732,2.732,0,0,1-2.133.914,3,3,0,0,1-2.059-.719,2.312,2.312,0,0,1-.816-1.812,2.389,2.389,0,0,1,1-2.062,4.915,4.915,0,0,1,2.879-.727h1.039v-.484a1.393,1.393,0,0,0-.3-.937,1.183,1.183,0,0,0-.949-.352,1.345,1.345,0,0,0-.895.273.929.929,0,0,0-.324.75h-2.258a2.268,2.268,0,0,1,.453-1.359,3,3,0,0,1,1.281-.98,4.669,4.669,0,0,1,1.859-.355,3.689,3.689,0,0,1,2.48.785,2.747,2.747,0,0,1,.918,2.207v3.664a4.041,4.041,0,0,0,.336,1.82V17Zm-1.867-1.57a1.945,1.945,0,0,0,.922-.223,1.462,1.462,0,0,0,.625-.6V13.156h-.844q-1.7,0-1.8,1.172l-.008.133a.9.9,0,0,0,.3.7A1.153,1.153,0,0,0,191.766,15.43Zm7.625-6.883.07.977a2.951,2.951,0,0,1,2.43-1.133,2.453,2.453,0,0,1,2,.789,3.682,3.682,0,0,1,.672,2.359V17H202.3V11.594a1.465,1.465,0,0,0-.312-1.043,1.4,1.4,0,0,0-1.039-.324,1.553,1.553,0,0,0-1.43.813V17h-2.258V8.547Zm6.555,4.164a4.954,4.954,0,0,1,.926-3.133,3,3,0,0,1,2.5-1.187,2.631,2.631,0,0,1,2.164.953l.094-.8h2.047v8.172a3.613,3.613,0,0,1-.5,1.93,3.236,3.236,0,0,1-1.418,1.25,4.985,4.985,0,0,1-2.141.43,4.635,4.635,0,0,1-1.812-.371A3.217,3.217,0,0,1,206.461,19l1-1.375a2.645,2.645,0,0,0,2.047.945,1.936,1.936,0,0,0,1.4-.48,1.8,1.8,0,0,0,.5-1.363v-.453a2.612,2.612,0,0,1-2.055.883,2.992,2.992,0,0,1-2.465-1.191,4.953,4.953,0,0,1-.941-3.16Zm2.258.164a3.076,3.076,0,0,0,.461,1.8,1.467,1.467,0,0,0,1.266.652,1.568,1.568,0,0,0,1.477-.773V11a1.565,1.565,0,0,0-1.461-.773,1.476,1.476,0,0,0-1.277.664A3.467,3.467,0,0,0,208.2,12.875ZM220.3,17a2.507,2.507,0,0,1-.227-.758,2.732,2.732,0,0,1-2.133.914,3,3,0,0,1-2.059-.719,2.312,2.312,0,0,1-.816-1.812,2.389,2.389,0,0,1,1-2.062,4.915,4.915,0,0,1,2.879-.727h1.039v-.484a1.393,1.393,0,0,0-.3-.937,1.183,1.183,0,0,0-.949-.352,1.345,1.345,0,0,0-.895.273.929.929,0,0,0-.324.75h-2.258a2.268,2.268,0,0,1,.453-1.359,3,3,0,0,1,1.281-.98,4.669,4.669,0,0,1,1.859-.355,3.689,3.689,0,0,1,2.48.785,2.747,2.747,0,0,1,.918,2.207v3.664a4.041,4.041,0,0,0,.336,1.82V17Zm-1.867-1.57a1.945,1.945,0,0,0,.922-.223,1.462,1.462,0,0,0,.625-.6V13.156h-.844q-1.7,0-1.8,1.172l-.008.133a.9.9,0,0,0,.3.7A1.153,1.153,0,0,0,218.438,15.43Z" transform="translate(810 28639)" fill="#12263f"/><path d="M78.648,13.211A4.025,4.025,0,0,1,77.293,16.1a4.76,4.76,0,0,1-3.223,1.055,4.28,4.28,0,0,1-3.441-1.473,6.038,6.038,0,0,1-1.254-4.043v-.7a6.819,6.819,0,0,1,.578-2.891,4.332,4.332,0,0,1,1.652-1.918,5.164,5.164,0,0,1,5.668.387,4.326,4.326,0,0,1,1.391,2.961H76.32a2.376,2.376,0,0,0-.613-1.6,2.271,2.271,0,0,0-1.605-.5,1.991,1.991,0,0,0-1.754.84,4.707,4.707,0,0,0-.6,2.605V11.7a5.038,5.038,0,0,0,.559,2.7,1.954,1.954,0,0,0,1.762.852,2.314,2.314,0,0,0,1.621-.5,2.241,2.241,0,0,0,.613-1.535Zm3.594-3.742A2.818,2.818,0,0,1,84.5,8.391q2.75,0,2.789,3.2V17H85.031V11.648a1.57,1.57,0,0,0-.312-1.074,1.34,1.34,0,0,0-1.039-.348,1.537,1.537,0,0,0-1.437.766V17H79.984V5h2.258ZM93.891,17a2.507,2.507,0,0,1-.227-.758,2.732,2.732,0,0,1-2.133.914,3,3,0,0,1-2.059-.719,2.312,2.312,0,0,1-.816-1.812,2.389,2.389,0,0,1,1-2.062,4.915,4.915,0,0,1,2.879-.727H93.57v-.484a1.393,1.393,0,0,0-.3-.937,1.183,1.183,0,0,0-.949-.352,1.345,1.345,0,0,0-.895.273.929.929,0,0,0-.324.75H88.844A2.268,2.268,0,0,1,89.3,9.727a3,3,0,0,1,1.281-.98,4.669,4.669,0,0,1,1.859-.355,3.689,3.689,0,0,1,2.48.785,2.747,2.747,0,0,1,.918,2.207v3.664a4.041,4.041,0,0,0,.336,1.82V17Zm-1.867-1.57a1.945,1.945,0,0,0,.922-.223,1.462,1.462,0,0,0,.625-.6V13.156h-.844q-1.7,0-1.8,1.172l-.008.133a.9.9,0,0,0,.3.7A1.153,1.153,0,0,0,92.023,15.43Zm10.3-4.766a6.134,6.134,0,0,0-.812-.062,1.654,1.654,0,0,0-1.68.867V17H97.57V8.547H99.7l.063,1.008a2.092,2.092,0,0,1,1.883-1.164,2.366,2.366,0,0,1,.7.1Zm5.836,0a6.134,6.134,0,0,0-.812-.062,1.654,1.654,0,0,0-1.68.867V17h-2.258V8.547h2.133l.063,1.008a2.092,2.092,0,0,1,1.883-1.164,2.366,2.366,0,0,1,.7.1Zm4.977,6.492a4.15,4.15,0,0,1-3.027-1.141,4.054,4.054,0,0,1-1.168-3.039v-.219a5.106,5.106,0,0,1,.492-2.277,3.612,3.612,0,0,1,1.395-1.547,3.914,3.914,0,0,1,2.059-.543,3.508,3.508,0,0,1,2.73,1.094,4.444,4.444,0,0,1,1,3.1v.922h-5.383a2.1,2.1,0,0,0,.66,1.328,2,2,0,0,0,1.395.5,2.437,2.437,0,0,0,2.039-.945l1.109,1.242a3.389,3.389,0,0,1-1.375,1.121A4.511,4.511,0,0,1,113.133,17.156Zm-.258-6.937a1.414,1.414,0,0,0-1.09.453,2.341,2.341,0,0,0-.535,1.3h3.141v-.18a1.669,1.669,0,0,0-.406-1.16A1.459,1.459,0,0,0,112.875,10.219Zm7.719-3.75V8.547h1.445V10.2h-1.445v4.219a1.007,1.007,0,0,0,.18.672.9.9,0,0,0,.688.2,3.6,3.6,0,0,0,.664-.055v1.711a4.648,4.648,0,0,1-1.367.2,2.156,2.156,0,0,1-2.422-2.4V10.2H117.1V8.547h1.234V6.469Zm6.594,10.688a4.15,4.15,0,0,1-3.027-1.141,4.054,4.054,0,0,1-1.168-3.039v-.219a5.106,5.106,0,0,1,.492-2.277,3.612,3.612,0,0,1,1.395-1.547,3.914,3.914,0,0,1,2.059-.543,3.508,3.508,0,0,1,2.73,1.094,4.444,4.444,0,0,1,1,3.1v.922h-5.383a2.1,2.1,0,0,0,.66,1.328,2,2,0,0,0,1.395.5,2.437,2.437,0,0,0,2.039-.945l1.109,1.242a3.389,3.389,0,0,1-1.375,1.121A4.511,4.511,0,0,1,127.188,17.156Zm-.258-6.937a1.414,1.414,0,0,0-1.09.453,2.341,2.341,0,0,0-.535,1.3h3.141v-.18a1.669,1.669,0,0,0-.406-1.16A1.459,1.459,0,0,0,126.93,10.219Zm9.766.445a6.134,6.134,0,0,0-.812-.062,1.654,1.654,0,0,0-1.68.867V17h-2.258V8.547h2.133l.063,1.008a2.092,2.092,0,0,1,1.883-1.164,2.366,2.366,0,0,1,.7.1ZM142.445,17a2.507,2.507,0,0,1-.227-.758,2.732,2.732,0,0,1-2.133.914,3,3,0,0,1-2.059-.719,2.312,2.312,0,0,1-.816-1.812,2.389,2.389,0,0,1,1-2.062,4.915,4.915,0,0,1,2.879-.727h1.039v-.484a1.393,1.393,0,0,0-.3-.937,1.183,1.183,0,0,0-.949-.352,1.345,1.345,0,0,0-.895.273.929.929,0,0,0-.324.75H137.4a2.268,2.268,0,0,1,.453-1.359,3,3,0,0,1,1.281-.98,4.669,4.669,0,0,1,1.859-.355,3.689,3.689,0,0,1,2.48.785,2.747,2.747,0,0,1,.918,2.207v3.664a4.041,4.041,0,0,0,.336,1.82V17Zm-1.867-1.57a1.945,1.945,0,0,0,.922-.223,1.462,1.462,0,0,0,.625-.6V13.156h-.844q-1.7,0-1.8,1.172l-.008.133a.9.9,0,0,0,.3.7A1.153,1.153,0,0,0,140.578,15.43ZM154,17.156a4.15,4.15,0,0,1-3.027-1.141,4.054,4.054,0,0,1-1.168-3.039v-.219a5.106,5.106,0,0,1,.492-2.277,3.612,3.612,0,0,1,1.395-1.547,3.914,3.914,0,0,1,2.059-.543,3.508,3.508,0,0,1,2.73,1.094,4.444,4.444,0,0,1,1,3.1v.922h-5.383a2.1,2.1,0,0,0,.66,1.328,2,2,0,0,0,1.395.5,2.437,2.437,0,0,0,2.039-.945l1.109,1.242a3.389,3.389,0,0,1-1.375,1.121A4.511,4.511,0,0,1,154,17.156Zm-.258-6.937a1.414,1.414,0,0,0-1.09.453,2.341,2.341,0,0,0-.535,1.3h3.141v-.18a1.669,1.669,0,0,0-.406-1.16A1.459,1.459,0,0,0,153.742,10.219Zm7.094-1.672.07.977a2.951,2.951,0,0,1,2.43-1.133,2.453,2.453,0,0,1,2,.789,3.682,3.682,0,0,1,.672,2.359V17H163.75V11.594a1.465,1.465,0,0,0-.312-1.043,1.4,1.4,0,0,0-1.039-.324,1.553,1.553,0,0,0-1.43.813V17h-2.258V8.547Zm13.07.922a2.818,2.818,0,0,1,2.258-1.078q2.75,0,2.789,3.2V17H176.7V11.648a1.57,1.57,0,0,0-.312-1.074,1.34,1.34,0,0,0-1.039-.348,1.537,1.537,0,0,0-1.437.766V17h-2.258V5h2.258Zm6.4,3.227a5.013,5.013,0,0,1,.484-2.242,3.546,3.546,0,0,1,1.395-1.523,4.069,4.069,0,0,1,2.113-.539,3.849,3.849,0,0,1,2.793,1.047,4.2,4.2,0,0,1,1.207,2.844l.016.578a4.418,4.418,0,0,1-1.086,3.121,4.209,4.209,0,0,1-5.832,0A4.5,4.5,0,0,1,180.3,12.8Zm2.258.164a3.151,3.151,0,0,0,.453,1.84,1.629,1.629,0,0,0,2.578.008,3.448,3.448,0,0,0,.461-2.012,3.12,3.12,0,0,0-.461-1.828,1.5,1.5,0,0,0-1.3-.648,1.475,1.475,0,0,0-1.281.645A3.506,3.506,0,0,0,182.563,12.859Zm9.258-4.312.07.945a2.971,2.971,0,0,1,2.43-1.1,2.255,2.255,0,0,1,2.242,1.289A2.9,2.9,0,0,1,199.1,8.391a2.521,2.521,0,0,1,2.047.8,3.681,3.681,0,0,1,.672,2.41V17h-2.266V11.609a1.61,1.61,0,0,0-.281-1.051,1.246,1.246,0,0,0-.992-.332,1.409,1.409,0,0,0-1.406.969l.008,5.8h-2.258V11.617a1.59,1.59,0,0,0-.289-1.062,1.259,1.259,0,0,0-.984-.328,1.463,1.463,0,0,0-1.391.8V17H189.7V8.547Zm19.352,4.3a5.119,5.119,0,0,1-.867,3.168,2.872,2.872,0,0,1-2.422,1.137,2.639,2.639,0,0,1-2.2-1.055l-.1.9h-2.031V5h2.258V9.3a2.571,2.571,0,0,1,2.055-.914,2.9,2.9,0,0,1,2.426,1.137,5.126,5.126,0,0,1,.879,3.2Zm-2.258-.164a3.363,3.363,0,0,0-.406-1.871,1.374,1.374,0,0,0-1.211-.59,1.489,1.489,0,0,0-1.484.883v3.336a1.509,1.509,0,0,0,1.5.891,1.394,1.394,0,0,0,1.438-1.078A5.562,5.562,0,0,0,208.914,12.688Zm8.4-2.023a6.134,6.134,0,0,0-.812-.062,1.654,1.654,0,0,0-1.68.867V17h-2.258V8.547H214.7l.063,1.008a2.092,2.092,0,0,1,1.883-1.164,2.366,2.366,0,0,1,.7.1Zm.453,2.031a5.013,5.013,0,0,1,.484-2.242,3.546,3.546,0,0,1,1.395-1.523,4.069,4.069,0,0,1,2.113-.539,3.849,3.849,0,0,1,2.793,1.047,4.2,4.2,0,0,1,1.207,2.844l.016.578a4.418,4.418,0,0,1-1.086,3.121,4.209,4.209,0,0,1-5.832,0,4.5,4.5,0,0,1-1.09-3.187Zm2.258.164a3.151,3.151,0,0,0,.453,1.84,1.629,1.629,0,0,0,2.578.008,3.448,3.448,0,0,0,.461-2.012,3.12,3.12,0,0,0-.461-1.828,1.5,1.5,0,0,0-1.3-.648,1.475,1.475,0,0,0-1.281.645A3.506,3.506,0,0,0,220.023,12.859Z" transform="translate(1125 28639)" fill="#12263f"/><g transform="translate(4039.231 33520.844)"><path d="M-2603.2-5081.584c-3.917-14.7-8.036-27.914-11.452-33.814-9.8-16.92-27.608-46.309-27.608-46.309l-43.862-19.538s-7.459-11.744-12.134-14.528-33.954-3.228-37.739-1.113-13.358,14.473-13.358,14.473-37.627,19.371-40.522,22.71-38.184,50.763-42.192,79.484q-.329,2.352-.682,4.653c16.664,5.65,40.473,13.775,40.473,13.775l2.791-9.745-1.169,147.281s56.663,7.236,76.256,5.9,71.47-4.231,71.47-4.231v-146.946s2.806,6.62,5.5,13.616Z" transform="translate(-43.033 1.004)" fill="none" stroke="#4c4c4c" stroke-miterlimit="10" stroke-width="1.22"/><path d="M-3082.441-5182.414s-37.627,19.371-40.521,22.709-38.185,50.764-42.192,79.485a407.413,407.413,0,0,1-10.854,52.1v6.513l40.912,4.842,2.337-19.2,10.185-35.568-1.169,147.281s56.664,7.236,76.257,5.9,71.469-4.231,71.469-4.231v-146.946s10.409,24.547,10.409,29.055-1,10.354,0,10.688,2,15.529,2,15.529l41.244-7.18s-15.585-77.036-25.381-93.957-27.608-46.311-27.608-46.311l-43.861-19.538s-7.459-11.745-12.134-14.528-33.954-3.228-37.739-1.113S-3082.441-5182.414-3082.441-5182.414Z" transform="translate(-14.726 1.004)" fill="none" stroke="#4c4c4c" stroke-miterlimit="10" stroke-width="1.22"/><path d="M-3084.735-5195.717s-1.086,18.953,5.76,24.8,12.023,12.774,11.774,12.774-14.278,13.86-14.278,13.86-11.438-20.539-12.273-23.211-1.273-17.684-1.273-17.684" transform="translate(-0.297 1.448)" fill="none" stroke="#4c4c4c" stroke-miterlimit="10" stroke-width="1.22"/><path d="M-3049.1-5194.087s2.254,13.108-3.173,18.453-13.108,16.447-13.108,16.447l12.691,11.939s10.771-17.2,11.94-19.7,1.4-15.709,1.4-15.709" transform="translate(4.984 1.738)" fill="none" stroke="#4c4c4c" stroke-miterlimit="10" stroke-width="1.22"/><path d="M-3085.836-5185.119s30.142-6.938,40.407,1.356" transform="translate(1.34 2.852)" fill="none" stroke="#4c4c4c" stroke-miterlimit="10" stroke-width="1.22"/><line x1="1.115" y2="231.263" transform="translate(-3069.338 -5148.458)" fill="none" stroke="#4c4c4c" stroke-miterlimit="10" stroke-width="1.22"/><line y2="231.272" transform="translate(-3060.402 -5148.458)" fill="none" stroke="#4c4c4c" stroke-miterlimit="10" stroke-width="1.22"/><path d="M-3052.346-5127.4c.5.083,36.069,0,36.069,0v34.066l-16.949,9.852-19.119-9.685Z" transform="translate(7.308 13.62)" fill="none" stroke="#4c4c4c" stroke-miterlimit="10" stroke-width="1.22"/><path d="M-3125.477-5147.2s.658,56.775-5.181,67.239" transform="translate(-6.646 10.093)" fill="none" stroke="#4c4c4c" stroke-miterlimit="10" stroke-width="1.22"/><path d="M-3009.822-5152.063s-5.009,57.443,3.674,72.973" transform="translate(14.628 9.226)" fill="none" stroke="#4c4c4c" stroke-miterlimit="10" stroke-width="1.22"/><path d="M-3164.286-5061.633c1.113.335,33.62,4.009,33.62,4.009s-2.116,8.127-1.781,11.021-1,7.348-1,7.348l-33.19-4.67-11.116-1.564s.78-8.571.891-9.129,1.169-9.239,1.169-9.239Z" transform="translate(-15.037 24.942)" fill="none" stroke="#4c4c4c" stroke-miterlimit="10" stroke-width="1.22"/><path d="M-3170.831-5085.3s2.56-8.684,6.568-5.678,2.783,14.138,2.115,17.366-2.338,10.464-2.338,10.464l-.792,23.813-10.731-1.27,4.063-37.795Z" transform="translate(-14.726 19.997)" fill="#fff" stroke="#4c4c4c" stroke-miterlimit="10" stroke-width="1.22"/><ellipse cx="2.025" cy="3.399" rx="2.025" ry="3.399" transform="translate(-3183.448 -5065.933)" fill="none" stroke="#4c4c4c" stroke-miterlimit="10" stroke-width="1.22"/><path d="M-2964.645-5060.15c-1.114.334-33.621,4.008-33.621,4.008s2.116,8.126,1.782,11.021,1,7.347,1,7.347l33.19-4.669,11.116-1.565s-.779-8.572-.891-9.128-1.168-9.24-1.168-9.24Z" transform="translate(16.943 25.206)" fill="none" stroke="#4c4c4c" stroke-miterlimit="10" stroke-width="1.22"/><path d="M-2963.017-5083.816s-2.561-8.683-6.568-5.677-2.783,14.138-2.115,17.366,2.338,10.465,2.338,10.465l.792,23.813,10.731-1.271-4.063-37.794Z" transform="translate(21.549 20.261)" fill="#fff" stroke="#4c4c4c" stroke-miterlimit="10" stroke-width="1.22"/><ellipse cx="2.025" cy="3.399" rx="2.025" ry="3.399" transform="translate(-2947.627 -5064.187)" fill="none" stroke="#4c4c4c" stroke-miterlimit="10" stroke-width="1.22"/><circle cx="55.385" cy="55.385" r="55.385" transform="translate(-3224.633 -5095.277)" fill="none" stroke="#bf3976" stroke-miterlimit="10" stroke-width="1.22"/><path d="M-2750.109-5195.717s-1.085,18.953,5.761,24.8,12.022,12.774,11.772,12.774-14.277,13.86-14.277,13.86-11.439-20.539-12.274-23.211-1.272-17.684-1.272-17.684" transform="translate(-30.142 1.448)" fill="none" stroke="#4c4c4c" stroke-miterlimit="10" stroke-width="1.22"/><path d="M-2714.479-5194.087s2.255,13.108-3.173,18.453-13.108,16.447-13.108,16.447l12.691,11.939s10.771-17.2,11.94-19.7,1.4-15.709,1.4-15.709" transform="translate(-24.861 1.738)" fill="none" stroke="#4c4c4c" stroke-miterlimit="10" stroke-width="1.22"/><path d="M-2751.21-5185.119s30.142-6.938,40.408,1.356" transform="translate(-28.505 2.852)" fill="none" stroke="#4c4c4c" stroke-miterlimit="10" stroke-width="1.22"/><line x1="1.115" y2="231.263" transform="translate(-2764.557 -5148.458)" fill="none" stroke="#4c4c4c" stroke-miterlimit="10" stroke-width="1.22"/><line y2="231.272" transform="translate(-2755.621 -5148.458)" fill="none" stroke="#4c4c4c" stroke-miterlimit="10" stroke-width="1.22"/><path d="M-2717.72-5127.4c.5.083,36.069,0,36.069,0v34.066l-16.949,9.852-19.119-9.685Z" transform="translate(-22.538 13.62)" fill="none" stroke="#4c4c4c" stroke-miterlimit="10" stroke-width="1.22"/><path d="M-2790.851-5147.2s.657,56.775-5.181,67.239" transform="translate(-36.491 10.093)" fill="none" stroke="#4c4c4c" stroke-miterlimit="10" stroke-width="1.22"/><path d="M-2675.2-5152.063s-5.01,57.443,3.674,72.973" transform="translate(-15.217 9.226)" fill="none" stroke="#4c4c4c" stroke-miterlimit="10" stroke-width="1.22"/><circle cx="55.385" cy="55.385" r="55.385" transform="translate(-2865.02 -5203.844)" fill="none" stroke="#bf3976" stroke-miterlimit="10" stroke-width="1.22"/><path d="M-2827.779-5100.832c.446,0,33.509,13.357,33.509,13.357" transform="translate(-42.147 18.354)" fill="none" stroke="#4c4c4c" stroke-miterlimit="10" stroke-width="1.22"/><line y1="20.261" x2="29.278" transform="translate(-2681.225 -5087.12)" fill="none" stroke="#4c4c4c" stroke-miterlimit="10" stroke-width="1.22"/><path d="M-2664.873-5165.165s-4.728,16.03-4.839,15.7-35.29-17.367-35.29-17.367-5.065-13.761,9.935-11.778" transform="translate(-20.419 4.46)" fill="none" stroke="#4c4c4c" stroke-miterlimit="10" stroke-width="1.22"/><path d="M-2795.37-5163.6a25.045,25.045,0,0,1,4.424,12.5s26.534-20.038,29.705-19.037,5.99-17.04-4.685-10.022" transform="translate(-36.373 3.929)" fill="none" stroke="#4c4c4c" stroke-miterlimit="10" stroke-width="1.22"/><circle cx="1.952" cy="1.952" r="1.952" transform="translate(-2803.824 -5173.354)" fill="none" stroke="#4c4c4c" stroke-miterlimit="10" stroke-width="1.22"/><circle cx="1.952" cy="1.952" r="1.952" transform="translate(-2720.372 -5169.45)" fill="none" stroke="#4c4c4c" stroke-miterlimit="10" stroke-width="1.22"/></g><rect width="610" height="302" transform="translate(810 28317)" fill="none"/><rect width="2" height="37" transform="translate(1114 28628)" fill="#fff"/></g></svg>