<svg xmlns="http://www.w3.org/2000/svg" xmlns:xlink="http://www.w3.org/1999/xlink" width="211.341" height="233.012" viewBox="0 0 211.341 233.012"><defs><clipPath id="a"><path d="M317.068,284.34c-1.932-5.134-4.84-9.336-6.51-14.642-2.266-7.2-3.81-17.469-1.208-24.922,2.762-7.914,6.151-14.158,6.357-22.973.177-7.548-1.344-14.982-2.858-22.334-1.5-7.281-2.178-9.4-9.307-10.506-2.541-.4-5.05-1.084-7.585-1.534a75.232,75.232,0,0,0-13.028-1.114v0h-.341v0a75.243,75.243,0,0,0-13.028,1.114c-2.535.45-5.044,1.139-7.585,1.534-7.129,1.11-7.808,3.225-9.307,10.506-1.513,7.352-3.034,14.786-2.858,22.334.206,8.816,3.595,15.059,6.357,22.973,2.6,7.453,1.059,17.722-1.208,24.922-1.67,5.306-4.578,9.508-6.51,14.642a2.072,2.072,0,0,0-.182,1.258,2.027,2.027,0,0,0,1.151,1.1c9.475,4.95,20.094,6.439,30.481,7.2.913.067,1.8.132,2.677.189v.025l.184-.013.184.013v-.025c.876-.057,1.764-.122,2.677-.189,10.385-.766,21-2.254,30.481-7.2a2.029,2.029,0,0,0,1.151-1.1A2.067,2.067,0,0,0,317.068,284.34Z" transform="translate(-248.224 -186.313)" fill="#f16575"/></clipPath></defs><g transform="translate(-134.777 -76.953)"><path d="M326.118,404.864c0,5.124-47.31,9.278-105.671,9.278s-105.671-4.154-105.671-9.278,47.31-9.278,105.671-9.278S326.118,399.739,326.118,404.864Z" transform="translate(20 -104.177)" fill="#231f20" opacity="0.1"/><g transform="translate(146.201 77.484)"><path d="M325.826,186.141a23.674,23.674,0,0,1-21.94-2.4c-6.194-4.406-11.874-7.644-19.743-7.878-4.888-.145-9.469,1.9-14.127,3.067-4.095,1.026-7.222,4.315-11.636,4.919-5.8.795-11.758-2.771-14.367-8.014s-2.039-11.765.879-16.841c2.13-3.7,4.09-6.471,1.7-10.6a17.908,17.908,0,0,1-1.534-2.71,7.562,7.562,0,0,1-.35-2.9c.216-5.352,4.27-9.365,6.972-13.785a9.344,9.344,0,0,0,1.457-3.3c.485-3.043-1.933-5.674-3.222-8.473-4.176-9.068,2.951-19.384,9.887-24.825,4.092-3.211,9-4.506,13.41-7.122,2.01-1.191,3.843-2.667,5.876-3.817,3.547-2,7.412-2.09,11.349-1.538,11.217,1.573,23.97,9.727,26.57,21.462,1.762,7.955-1.123,17.2,6.757,22.772,2.373,1.677,5.371,2.675,6.991,5.089,3.44,5.13-1.615,12.729,1.531,18.045a17.924,17.924,0,0,0,2.7,3.111,25.638,25.638,0,0,1,6.927,19.972,12.847,12.847,0,0,1-1.416,5.09c-1.2,2.121-3.227,3.622-5.211,5.037a48.176,48.176,0,0,1-9.366,5.6Z" transform="translate(-186.035 -78.187)" fill="#5e3733"/><path d="M336.045,155.729c-3.484-2.993-4.231-8.225-3.223-12.706.66-2.932,1.961-5.784,1.845-8.787a9.7,9.7,0,0,0-6.307-8.558c-1.81-.638-3.8-.723-5.534-1.548-2.621-1.25-4.063-3.886-5.02-6.5-1.042-2.848-.61-5.28-.623-8.262-.016-3.813-.112-7.63-.5-11.426-.447-4.376-3.066-8.713-6.069-11.857q-.647-.677-1.346-1.3c-7.8-6.96-22.7-10.008-31.937-4.347-1.841,1.128-2.985,2.687-4.445,4.18a28.223,28.223,0,0,1-5.2,3.87,127.887,127.887,0,0,1-11.354,5.966,20.99,20.99,0,0,0-6.732,4.575,13.347,13.347,0,0,0-3.028,9.158,22.208,22.208,0,0,0,2.685,9.418,38.8,38.8,0,0,1,3.034,6.268c1.1,3.625-1.007,7.034-3.683,9.359-2.028,1.762-4.359,3.375-5.469,5.821a7.4,7.4,0,0,0,.219,6.46c.987,1.834,2.726,3.187,3.648,5.054a6.829,6.829,0,0,1,.071,5.8c-1.071,2.309-3.508,4.455-2.707,6.871" transform="translate(-186.086 -77.484)" fill="none" stroke="#5e3733" stroke-miterlimit="10" stroke-width="1"/><path d="M345.544,343.03a35.383,35.383,0,0,1-7.465,6.746c-14.637,10.209-32.128,17.191-49.47,21.69-15.49,4.019-31.724,3.841-47.567,2.281-10.828-1.066-21.6-4.422-32.048-7.537a188.023,188.023,0,0,1-31.355-12.092c-7.89-4-14.959-8.957-16.162-18.4-.473-3.715.342-7.828,3.186-10.348,3.426-3.035,8.611-2.933,13.229-2.575,26.172,2.027,51.516,10.842,77.868,11,14.707.091,28.42-3.734,42.552-7.192,10.9-2.668,23.005-5.6,34.358-5.042C342.961,322.072,353.137,333.458,345.544,343.03Z" transform="translate(-159.509 -157.397)" fill="#4099b2"/><path d="M236.6,304.029c-.288-.65-.578-1.315-.884-2a98.67,98.67,0,0,1-6.948-22.349c-.512-2.773-1.031-5.806-3.149-7.667-2.931-2.574-8.642-2.243-12.273-1.757a6.541,6.541,0,0,0-4.494,2.184c-1.7,2.272-1.529,7.4-1.6,10.139-.406,16.64,12.749,30.4,23.462,41.627,2.062,2.163,4.3,4.348,7.159,5.223s6.485-.034,7.735-2.748c.917-1.992.354-4.332-.371-6.4a41.928,41.928,0,0,0-5.268-9.912A36.786,36.786,0,0,1,236.6,304.029Z" transform="translate(-174.54 -140.507)" fill="#f8a17a"/><path d="M318.249,171.032a14.619,14.619,0,0,1-1.166,8.532c-3.433,7.144-11.935,8.537-19.1,8.817a42.7,42.7,0,0,1-7.948-.421c-2.341-.349-4.426.007-6.792-.047a26,26,0,0,1-13.277-4,12.341,12.341,0,0,1-4.717-4.813c-1.355-2.82-.961-6.153-.244-9.2a18.585,18.585,0,0,1,1.837-5.078c.966-1.675,2.353-3.1,3.158-4.854,1.514-3.3.27-7.163,1.615-10.4a19.013,19.013,0,0,1,5.9-6.987,16.126,16.126,0,0,1,10.532-2.59,44.707,44.707,0,0,1,10.749,2.507c2.761.9,5.134.344,7.159,2.624,1.6,1.808,1.044,4.758,1.558,6.948C309.235,159.436,317.087,163.324,318.249,171.032Z" transform="translate(-193.239 -97.939)" fill="#452330"/><path d="M248.106,220.967c-4.685,8.03-9.958,15.735-15,23.545-2.814,4.361-5.663,8.794-7.172,13.761-6.948-.17-13.916-1.64-20.74-2.945,1.1-9.217,5.961-17.571,10.314-25.6,4.534-8.369,9.417-16.549,13.683-25.061,3.469-6.922,9.95-15.182,18.615-11.021,6.668,3.2,5.631,12.375,4.254,18.293A33.244,33.244,0,0,1,248.106,220.967Z" transform="translate(-173.868 -115.158)" fill="#fb3e5e"/><path d="M342.434,304.029c.288-.65.578-1.315.884-2a98.672,98.672,0,0,0,6.948-22.349c.512-2.773,1.031-5.806,3.149-7.667,2.931-2.574,8.642-2.243,12.272-1.757a6.541,6.541,0,0,1,4.494,2.184c1.7,2.272,1.529,7.4,1.6,10.139.405,16.64-12.749,30.4-23.462,41.627-2.063,2.163-4.3,4.348-7.159,5.223s-6.485-.034-7.735-2.748c-.917-1.992-.354-4.332.371-6.4a41.952,41.952,0,0,1,5.267-9.912A36.792,36.792,0,0,0,342.434,304.029Z" transform="translate(-215.706 -140.507)" fill="#f8a17a"/><path d="M326.523,220.967c4.685,8.03,9.958,15.735,15,23.545,2.814,4.361,5.663,8.794,7.172,13.761,6.948-.17,13.916-1.64,20.74-2.945-1.1-9.217-5.961-17.571-10.314-25.6-4.534-8.369-9.417-16.549-13.683-25.061-3.469-6.922-9.95-15.182-18.615-11.021-6.668,3.2-5.631,12.375-4.254,18.293A33.225,33.225,0,0,0,326.523,220.967Z" transform="translate(-211.974 -115.158)" fill="#fb3e5e"/><g transform="translate(60.264 73.187)"><path d="M317.068,284.34c-1.932-5.134-4.84-9.336-6.51-14.642-2.266-7.2-3.81-17.469-1.208-24.922,2.762-7.914,6.151-14.158,6.357-22.973.177-7.548-1.344-14.982-2.858-22.334-1.5-7.281-2.178-9.4-9.307-10.506-2.541-.4-5.05-1.084-7.585-1.534a75.232,75.232,0,0,0-13.028-1.114v0h-.341v0a75.243,75.243,0,0,0-13.028,1.114c-2.535.45-5.044,1.139-7.585,1.534-7.129,1.11-7.808,3.225-9.307,10.506-1.513,7.352-3.034,14.786-2.858,22.334.206,8.816,3.595,15.059,6.357,22.973,2.6,7.453,1.059,17.722-1.208,24.922-1.67,5.306-4.578,9.508-6.51,14.642a2.072,2.072,0,0,0-.182,1.258,2.027,2.027,0,0,0,1.151,1.1c9.475,4.95,20.094,6.439,30.481,7.2.913.067,1.8.132,2.677.189v.025l.184-.013.184.013v-.025c.876-.057,1.764-.122,2.677-.189,10.385-.766,21-2.254,30.481-7.2a2.029,2.029,0,0,0,1.151-1.1A2.067,2.067,0,0,0,317.068,284.34Z" transform="translate(-248.224 -186.313)" fill="#f16575"/><g clip-path="url(#a)"><path d="M311.635,189.36c.44-1.354,2.1-4.374,1.261-5.557s-3.96-.934-5.179-.893l-40.208,1.351c.776,2.874.808,5.552,1.911,8.395a26.941,26.941,0,0,0,3.765,6.758,21.309,21.309,0,0,0,12.74,7.967,21.789,21.789,0,0,0,22.543-10.153A41.412,41.412,0,0,0,311.635,189.36Z" transform="translate(-254.54 -185.182)" fill="#f8a17a"/></g></g><path d="M283.417,190.5c4.2,4.774,12.269,5.153,17.919,3.2,3.845-1.33,6.562-4.361,6.643-8.529.091-4.66-4-7.971-5.029-12.313a29.237,29.237,0,0,1-.467-7.5c.071-2.923.091-5.855.233-8.773a31.016,31.016,0,0,0-8.313-.792c-2.543.1-5.083-.161-7.624-.011a.9.9,0,0,0-.571.169.819.819,0,0,0-.19.548c-.34,3.948-.005,7.946-.273,11.9a19.923,19.923,0,0,1-3.188,10.3A9.612,9.612,0,0,0,283.417,190.5Z" transform="translate(-198.668 -103.109)" fill="#f8a17a"/><g transform="translate(92.474 9.396)"><path d="M296.12,93.2A16.448,16.448,0,0,1,303,91.478a26.636,26.636,0,0,1,7.1.733,25.453,25.453,0,0,1,12.441,6.817A22.412,22.412,0,0,1,329,111.669a61.543,61.543,0,0,1,.259,7.158,16.9,16.9,0,0,0,1.209,6.833,13.915,13.915,0,0,0,4.592,5.137c1.9,1.376,4.012,2.478,6.045,3.735a9.131,9.131,0,0,1,2.819,2.336,6.245,6.245,0,0,1,.923,3.566,13.139,13.139,0,0,1-.459,3.6,24.925,24.925,0,0,1-1.312,3.348,6.761,6.761,0,0,0-.638,3.35,10.21,10.21,0,0,0,.983,3.328c1.007,2.133,2.247,4.173,3.271,6.33a19.59,19.59,0,0,1,1.993,6.849,16.885,16.885,0,0,1-.875,7.041,16.8,16.8,0,0,0,.711-7.025,19.328,19.328,0,0,0-2.124-6.722c-1.048-2.123-2.306-4.141-3.36-6.294a10.62,10.62,0,0,1-1.067-3.465,7.254,7.254,0,0,1,.628-3.588,24.61,24.61,0,0,0,1.247-3.3,12.761,12.761,0,0,0,.422-3.449,5.687,5.687,0,0,0-.831-3.233,8.62,8.62,0,0,0-2.651-2.157c-2.013-1.234-4.139-2.331-6.1-3.734a14.536,14.536,0,0,1-4.824-5.372,17.5,17.5,0,0,1-1.243-7.108,61.25,61.25,0,0,0-.223-7.085,22.2,22.2,0,0,0-6.221-12.364,25.074,25.074,0,0,0-12.15-6.861A26.389,26.389,0,0,0,303,91.641,16.371,16.371,0,0,0,296.12,93.2Z" transform="translate(-296.12 -91.457)" fill="#b37157"/></g><path d="M304.9,172.254a31.511,31.511,0,0,1-.354-6.95c.071-2.924.091-5.855.233-8.774a31.02,31.02,0,0,0-8.313-.792c-2.543.1-5.083-.161-7.624-.011a.9.9,0,0,0-.571.169.82.82,0,0,0-.189.548c-.341,3.948-.006,7.946-.273,11.9a29.08,29.08,0,0,1-.427,3.383c.4.349.8.685,1.223.993a13.03,13.03,0,0,0,11.125,2.026A16.8,16.8,0,0,0,304.9,172.254Z" transform="translate(-200.783 -103.093)" fill="#e5785c"/><path d="M310.585,122.617a35.442,35.442,0,0,0-1.705-10.573c-4.487-13.1-20.949-16.113-30.7-6.525-10.872,10.692-6.293,35.818,5.445,44.5a13.03,13.03,0,0,0,11.125,2.026C306.115,148.821,310.83,134.711,310.585,122.617Z" transform="translate(-195.752 -84.826)" fill="#f8a17a"/><path d="M310.278,110.258c-3.533-13.386-19.737-17.578-30.15-8.716a21.792,21.792,0,0,0-4,4.9c-1.005,1.53-2.4,2.687-3.291,4.369a15.148,15.148,0,0,0-1.667,5.581c-.184,1.893.434,3.548.483,5.367a6.637,6.637,0,0,1,2.194-5.064,21.047,21.047,0,0,1,3.784-2.284,6.213,6.213,0,0,0,3.026-3.1c4.143,5.431,10.572,7.094,16.9,8.661,5.307,1.315,11.131,4.66,11.251,10.858a5.305,5.305,0,0,0,.408,2.031,9.021,9.021,0,0,0,.621-2.609c.114-1.011.407-2.017.605-3.028a44.9,44.9,0,0,0,.778-6.3A35.456,35.456,0,0,0,310.278,110.258Z" transform="translate(-195.464 -83.832)" fill="#e5785c"/><path d="M310.5,132.11A7.158,7.158,0,0,0,312.8,128.9c1.415-4.159,1.262-8.763,1.089-13.219a31.09,31.09,0,0,0-.878-7.374,18.725,18.725,0,0,0-3.811-6.845,22.445,22.445,0,0,0-18.854-7.973c-2.767.237-4.8,1.562-7.231,2.687a72.348,72.348,0,0,1-7.654,2.525c-2.879.949-5.842,1.946-8.126,3.938a14.822,14.822,0,0,0-3.754,5.418,15.342,15.342,0,0,0-.846,7.77,20.333,20.333,0,0,0,1.482,6.447c.892,1.878,2.88,3.106,4.659,4.041-.264-.139-.036-3.238-.042-3.716a25.088,25.088,0,0,1,.966-8.17c.828-2.561,2.467-4.128,4.6-5.691a15.746,15.746,0,0,0,2.422-2.059c.358-.395,1.913-2.211,1.658-2.773a18.567,18.567,0,0,0,5.475,7.157,62.267,62.267,0,0,0,14.6,7.654c.375.146.752.291,1.128.442a12.626,12.626,0,0,1,3.924,2.246c2.564,2.333,2.751,5.921,2.655,9.154a3,3,0,0,0,.1,1.054C306.9,133.2,309.469,132.893,310.5,132.11Z" transform="translate(-192.666 -82.702)" fill="#5e3733"/><path d="M228.037,266.705l-.816,1.936h97.353l-.977-2.175Z" transform="translate(-181.081 -139.375)" fill="#b8d1ce"/><path d="M294,401.285c3.637.845,7.508,1.164,10.905,1.76,1.532.268,3.065.537,4.611.7a70.2,70.2,0,0,0,7.4.271l5.384.007a4.593,4.593,0,0,0,5.1-3.089,67.6,67.6,0,0,0,3.438-6.068,15.709,15.709,0,0,1,1.627-3.435c.794-1.083,1.56-2.5.993-3.855-.668-1.6-2.732-2-4.467-2.03a31.707,31.707,0,0,0-4.383.231c-5.756.7-11.238,2.974-17,3.614a68.267,68.267,0,0,1-11.094-.053c-2.948-.154-7.472-.913-10.1.781-1.076.693-2.746,2.367-2.877,3.688-.165,1.665,1.7,3.4,2.88,4.274A20.454,20.454,0,0,0,294,401.285Z" transform="translate(-199.522 -178.373)" fill="#f8a17a"/><path d="M331.269,395.1c.035-.078.074-.155.108-.233A15.709,15.709,0,0,1,333,391.434c.794-1.083,1.56-2.5.993-3.855-.668-1.6-2.732-2-4.467-2.03a31.707,31.707,0,0,0-4.383.231c-5.756.7-11.238,2.974-17,3.614a55.648,55.648,0,0,1-9.108.052c-2.2.985-10.128,3.569-13.882,6.981a10.763,10.763,0,0,0,1.795,1.657,20.454,20.454,0,0,0,7.583,3.2c2.3.534,4.686.858,6.991,1.174,7.7-1.356,15.28-3.727,22.786-5.6Q327.777,396,331.269,395.1Z" transform="translate(-200.055 -178.373)" fill="#e5785c"/><path d="M318.176,329.721H234.221l-6.015-62.5a1.9,1.9,0,0,1,1.868-2.091h92.249a1.9,1.9,0,0,1,1.868,2.091Z" transform="translate(-181.401 -138.936)" fill="#b8d1ce"/><path d="M317.8,403.432c3.2-.31,7.256-.974,9.445-3.331a9.5,9.5,0,0,0,2.3-6.669c-.013-2.4-1.89-4.306-4.037-5.388a18.542,18.542,0,0,1,15.934-.995,8.9,8.9,0,0,1,1.615.819c6.827,4.37,2.318,12.9-3.3,15.913a16.583,16.583,0,0,1-8.37,1.929c-2.338-.08-3.9-.344-6.215-.622C322.371,404.752,320.97,404.079,317.8,403.432Z" transform="translate(-210.747 -178.426)" fill="#003336"/><path d="M318.468,332.348H233.2l-6.11-62.5a1.906,1.906,0,0,1,1.9-2.091h93.7a1.906,1.906,0,0,1,1.9,2.091Z" transform="translate(-181.034 -139.797)" fill="#fff"/><rect width="85.221" height="3.793" transform="translate(52.161 192.551)" fill="#b8d1ce"/><circle cx="5.912" cy="5.912" r="5.912" transform="matrix(0.155, -0.988, 0.988, 0.155, 88.042, 165.181)" fill="#b8d1ce"/><path d="M233.542,357.942c5.047,2.94,10.145,5.908,15.3,8.6.1.053.207.1.311.154,2.2,1.051,4.481,1.927,6.671,3.009a40.425,40.425,0,0,1,4.068,2.272,20.923,20.923,0,0,1,1.78,1.278,3.175,3.175,0,0,1,.767.678,1.566,1.566,0,0,1-.029,1.2,3.186,3.186,0,0,1-.623.948,11.565,11.565,0,0,1-3.748,2.536c-.847.4-1.706.782-2.58,1.126a15.278,15.278,0,0,1-2.541.9,4.278,4.278,0,0,1-1.3-.115q-.68-.093-1.358-.2-1.358-.214-2.707-.479c-4.108-.8-8.147-1.919-12.154-3.119-3.975-1.19-7.925-2.467-11.912-3.615-18.831-5.425-38.419-11.5-54.816-22.524-3.777-2.547-7.58-6.307-9.192-10.635-4.227-11.383,7.868-20.2,18.189-15.911,17.237,7.161,31.44,20,47.694,29.177C228.074,354.756,230.8,356.345,233.542,357.942Z" transform="translate(-158.613 -157.872)" fill="#e5785c"/><path d="M324.465,376.554c3.794-1.144,7.562-2.354,11.315-3.436,18.831-5.425,38.419-11.5,54.816-22.524,3.777-2.547,7.58-6.307,9.192-10.635,4.226-11.383-7.868-20.2-18.189-15.911-17.236,7.161-31.44,20-47.694,29.177-2.713,1.532-5.44,3.12-8.182,4.718-2.354,1.371-4.72,2.749-7.1,4.1" transform="translate(-211.016 -157.872)" fill="#5baac2"/><path d="M307.006,381.085c-2.718,1.547-5.452,3.063-8.2,4.5-2.812,1.47-19.419,7.207-14.878,13.2.892,1.176,2.578,1.316,4.055,1.33,8.486.081,16.735-2.065,24.864-4.517" transform="translate(-199.396 -176.913)" fill="#f8a17a"/><path d="M234.814,376.554c-3.794-1.144-7.562-2.354-11.315-3.436-18.831-5.425-38.419-11.5-54.816-22.524-3.777-2.547-7.58-6.307-9.192-10.635-4.226-11.383,7.868-20.2,18.189-15.911,17.236,7.161,31.44,20,47.694,29.177,2.713,1.532,5.44,3.12,8.182,4.718,2.354,1.371,4.72,2.749,7.1,4.1" transform="translate(-158.617 -157.872)" fill="#5baac2"/><path d="M281.239,401.6c-3.636.845-7.507,1.164-10.905,1.76-1.532.268-3.065.537-4.611.7a70.21,70.21,0,0,1-7.4.271l-5.384.007a4.593,4.593,0,0,1-5.1-3.089,67.775,67.775,0,0,1-3.438-6.068c-.606-1.4-1.243-2.763-.424-4.219a7.071,7.071,0,0,1,1.632-1.821,13.053,13.053,0,0,1,2.576-1.8c3.083-1.555,6.223-.64,9.369.17a73.045,73.045,0,0,0,10.077,2.193,68.27,68.27,0,0,0,11.094-.053c2.948-.154,7.471-.913,10.1.781,1.077.693,2.746,2.367,2.877,3.688.165,1.665-1.7,3.4-2.88,4.274A20.462,20.462,0,0,1,281.239,401.6Z" transform="translate(-186.44 -178.685)" fill="#f8a17a"/><path d="M266.352,403.432c-3.2-.31-7.256-.974-9.445-3.331a9.492,9.492,0,0,1-2.3-6.669c.013-2.4,1.889-4.306,4.037-5.388a18.542,18.542,0,0,0-15.934-.995,8.9,8.9,0,0,0-1.616.819c-6.827,4.37-2.317,12.9,3.3,15.913a16.587,16.587,0,0,0,8.37,1.929c2.338-.08,3.9-.344,6.215-.622C261.783,404.752,263.184,404.079,266.352,403.432Z" transform="translate(-184.498 -178.426)" fill="#003336"/></g></g></svg>