<svg xmlns="http://www.w3.org/2000/svg" width="295" height="210" viewBox="0 0 295 210"><g transform="translate(-390 -3186)"><rect width="295" height="210" transform="translate(390 3186)" fill="#fff"/><g transform="translate(721.346 3013.599)"><path d="M-168.5,360.283v8.93s.52,2.787,9.071,3.023,8.362-3.307,8.362-3.307v-10.2Z" fill="#708695" stroke="#303030" stroke-miterlimit="10" stroke-width="1"/><path d="M-214.276,360.283v8.93s.52,2.787,9.071,3.023,8.362-3.307,8.362-3.307v-10.2Z" fill="#708695" stroke="#303030" stroke-miterlimit="10" stroke-width="1"/><path d="M-219.047,195.071v-11.48s61.653-.426,69.732,0l.992,11.48s5.528,38.551,5.528,42.945-2.551,88.866-2.835,92.834-1.417,5.386-1.7,6.52,0,17.858-1.7,20.126a6.21,6.21,0,0,0-1.418,4.252s-1.417-1.984-4.252,0-8.5,2.409-12.189.85-6.236-3.4-5.953-5.527,1.7-4.394,1.56-6.8-3.26-11.622-2.977-14.315,2.693-7.37,2.268-9.355-1.843-7.37-1.843-7.37-3.259-50.929-3.448-52.441.64-26.267-6.483-24.378-5.045,24.945-5.423,29.292-1.89,26.268-2.835,29.669-1.511,20.6-2.078,22.488.945,5.481.378,8.882-1.7,7.748-1.7,8.882,1.7,15.307.567,16.441-.756,4.535-6.992,3.78-10.961-.378-12.473.377-5.48-5.48-4.724-8.126-.756,0-2.079-6.8.945-9.26,0-12.472-3.4-27.024-3.968-32.315,0-56.882,0-56.882,5.385-46.488,5.385-47.244A24.885,24.885,0,0,1-219.047,195.071Z" fill="#708695" stroke="#303030" stroke-miterlimit="10" stroke-width="1"/><line x2="69.449" transform="translate(-218.386 195.732)" fill="#708695" stroke="#303030" stroke-miterlimit="10" stroke-width="1"/><rect width="22.394" height="4.346" transform="translate(-174.26 204.425)" fill="#708695" stroke="#303030" stroke-miterlimit="10" stroke-width="1"/><path d="M-184.654,196.583s-3.212,30.047-2.362,34.488,2.677,10.677,2.945,10.677" fill="#708695" stroke="#303030" stroke-miterlimit="10" stroke-width="1"/></g></g></svg>