<svg xmlns="http://www.w3.org/2000/svg" width="610" height="920" viewBox="0 0 610 920"><g transform="translate(-810 -19698)"><path d="M7.75,11.742H2.82v4.031H8.547V17H1.32V5.625H8.469V6.859H2.82v3.656H7.75Zm7.359,3.016a1.064,1.064,0,0,0-.441-.91,4.249,4.249,0,0,0-1.539-.559,7.277,7.277,0,0,1-1.742-.562,2.479,2.479,0,0,1-.953-.781,1.869,1.869,0,0,1-.309-1.078A2.193,2.193,0,0,1,11,9.109a3.432,3.432,0,0,1,2.246-.719,3.532,3.532,0,0,1,2.332.742,2.357,2.357,0,0,1,.895,1.9H15.023a1.3,1.3,0,0,0-.5-1.023,1.888,1.888,0,0,0-1.27-.43,1.976,1.976,0,0,0-1.234.344,1.082,1.082,0,0,0-.445.9.877.877,0,0,0,.414.789,5.1,5.1,0,0,0,1.5.508,7.8,7.8,0,0,1,1.754.578,2.558,2.558,0,0,1,1,.809,1.988,1.988,0,0,1,.324,1.152,2.163,2.163,0,0,1-.906,1.816,3.8,3.8,0,0,1-2.352.684,4.257,4.257,0,0,1-1.8-.359,2.922,2.922,0,0,1-1.223-1A2.42,2.42,0,0,1,9.836,14.4h1.445a1.5,1.5,0,0,0,.582,1.152,2.258,2.258,0,0,0,1.434.426,2.331,2.331,0,0,0,1.316-.332A1.02,1.02,0,0,0,15.109,14.758ZM20.4,6.5V8.547h1.578V9.664H20.4v5.242a1.171,1.171,0,0,0,.211.762.888.888,0,0,0,.719.254,3.5,3.5,0,0,0,.688-.094V17a4.19,4.19,0,0,1-1.109.156,1.8,1.8,0,0,1-1.461-.586,2.517,2.517,0,0,1-.492-1.664V9.664H17.414V8.547h1.539V6.5Zm2.727,6.2a4.993,4.993,0,0,1,.488-2.234A3.643,3.643,0,0,1,24.973,8.93a3.7,3.7,0,0,1,1.988-.539,3.565,3.565,0,0,1,2.793,1.2,4.6,4.6,0,0,1,1.066,3.18v.1a5.036,5.036,0,0,1-.473,2.215A3.589,3.589,0,0,1,29,16.609a3.743,3.743,0,0,1-2.02.547,3.556,3.556,0,0,1-2.785-1.2A4.575,4.575,0,0,1,23.125,12.8Zm1.453.172a3.616,3.616,0,0,0,.652,2.258,2.211,2.211,0,0,0,3.5-.012,3.955,3.955,0,0,0,.648-2.418,3.61,3.61,0,0,0-.66-2.254,2.1,2.1,0,0,0-1.754-.863,2.075,2.075,0,0,0-1.727.852A3.925,3.925,0,0,0,24.578,12.867Zm12.977,1.891a1.064,1.064,0,0,0-.441-.91,4.249,4.249,0,0,0-1.539-.559,7.277,7.277,0,0,1-1.742-.562,2.479,2.479,0,0,1-.953-.781,1.869,1.869,0,0,1-.309-1.078,2.193,2.193,0,0,1,.879-1.758A3.432,3.432,0,0,1,35.7,8.391a3.532,3.532,0,0,1,2.332.742,2.357,2.357,0,0,1,.895,1.9H37.469a1.3,1.3,0,0,0-.5-1.023,1.888,1.888,0,0,0-1.27-.43,1.976,1.976,0,0,0-1.234.344,1.082,1.082,0,0,0-.445.9.877.877,0,0,0,.414.789,5.1,5.1,0,0,0,1.5.508,7.8,7.8,0,0,1,1.754.578,2.558,2.558,0,0,1,1,.809A1.988,1.988,0,0,1,39,14.656a2.163,2.163,0,0,1-.906,1.816,3.8,3.8,0,0,1-2.352.684,4.257,4.257,0,0,1-1.8-.359,2.922,2.922,0,0,1-1.223-1,2.42,2.42,0,0,1-.441-1.395h1.445a1.5,1.5,0,0,0,.582,1.152,2.258,2.258,0,0,0,1.434.426,2.331,2.331,0,0,0,1.316-.332A1.02,1.02,0,0,0,37.555,14.758Zm10.8,2.4a3.693,3.693,0,0,1-2.8-1.129,4.19,4.19,0,0,1-1.078-3.02v-.266a5.073,5.073,0,0,1,.48-2.246A3.748,3.748,0,0,1,46.3,8.949a3.378,3.378,0,0,1,1.871-.559,3.166,3.166,0,0,1,2.563,1.086,4.7,4.7,0,0,1,.914,3.109v.6H45.922a3,3,0,0,0,.73,2.02,2.3,2.3,0,0,0,1.777.77,2.517,2.517,0,0,0,1.3-.312,3.259,3.259,0,0,0,.93-.828l.883.688A3.55,3.55,0,0,1,48.352,17.156Zm-.18-7.578a1.928,1.928,0,0,0-1.469.637A3.1,3.1,0,0,0,45.969,12H50.2v-.109a2.753,2.753,0,0,0-.594-1.707A1.815,1.815,0,0,0,48.172,9.578Zm6.641-1.031v9.43q0,2.438-2.211,2.438a2.682,2.682,0,0,1-.883-.141V19.117a2.794,2.794,0,0,0,.656.063.982.982,0,0,0,.738-.262,1.294,1.294,0,0,0,.254-.91V8.547ZM53.219,6.3a.867.867,0,0,1,.215-.59.79.79,0,0,1,.629-.246.819.819,0,0,1,.641.242.854.854,0,0,1,.219.594.826.826,0,0,1-.219.586.834.834,0,0,1-.641.234.808.808,0,0,1-.633-.234A.843.843,0,0,1,53.219,6.3Zm7.43,10.852a3.693,3.693,0,0,1-2.8-1.129,4.19,4.19,0,0,1-1.078-3.02v-.266a5.073,5.073,0,0,1,.48-2.246A3.748,3.748,0,0,1,58.6,8.949a3.378,3.378,0,0,1,1.871-.559,3.166,3.166,0,0,1,2.563,1.086,4.7,4.7,0,0,1,.914,3.109v.6H58.219a3,3,0,0,0,.73,2.02,2.3,2.3,0,0,0,1.777.77,2.517,2.517,0,0,0,1.3-.312,3.259,3.259,0,0,0,.93-.828l.883.688A3.55,3.55,0,0,1,60.648,17.156Zm-.18-7.578A1.928,1.928,0,0,0,59,10.215,3.1,3.1,0,0,0,58.266,12H62.5v-.109a2.753,2.753,0,0,0-.594-1.707A1.815,1.815,0,0,0,60.469,9.578Zm10.07,5.18a1.064,1.064,0,0,0-.441-.91,4.249,4.249,0,0,0-1.539-.559,7.277,7.277,0,0,1-1.742-.562,2.479,2.479,0,0,1-.953-.781,1.869,1.869,0,0,1-.309-1.078,2.193,2.193,0,0,1,.879-1.758,3.432,3.432,0,0,1,2.246-.719,3.532,3.532,0,0,1,2.332.742,2.357,2.357,0,0,1,.895,1.9H70.453a1.3,1.3,0,0,0-.5-1.023,1.888,1.888,0,0,0-1.27-.43,1.976,1.976,0,0,0-1.234.344,1.082,1.082,0,0,0-.445.9.877.877,0,0,0,.414.789,5.1,5.1,0,0,0,1.5.508,7.8,7.8,0,0,1,1.754.578,2.558,2.558,0,0,1,1,.809,1.988,1.988,0,0,1,.324,1.152,2.163,2.163,0,0,1-.906,1.816,3.8,3.8,0,0,1-2.352.684,4.257,4.257,0,0,1-1.8-.359,2.922,2.922,0,0,1-1.223-1,2.42,2.42,0,0,1-.441-1.395h1.445a1.5,1.5,0,0,0,.582,1.152,2.258,2.258,0,0,0,1.434.426,2.331,2.331,0,0,0,1.316-.332A1.02,1.02,0,0,0,70.539,14.758Zm12.211,0a1.064,1.064,0,0,0-.441-.91,4.249,4.249,0,0,0-1.539-.559,7.277,7.277,0,0,1-1.742-.562,2.479,2.479,0,0,1-.953-.781,1.869,1.869,0,0,1-.309-1.078,2.193,2.193,0,0,1,.879-1.758,3.432,3.432,0,0,1,2.246-.719,3.532,3.532,0,0,1,2.332.742,2.357,2.357,0,0,1,.895,1.9H82.664a1.3,1.3,0,0,0-.5-1.023,1.888,1.888,0,0,0-1.27-.43,1.976,1.976,0,0,0-1.234.344,1.082,1.082,0,0,0-.445.9.877.877,0,0,0,.414.789,5.1,5.1,0,0,0,1.5.508,7.8,7.8,0,0,1,1.754.578,2.558,2.558,0,0,1,1,.809,1.988,1.988,0,0,1,.324,1.152,2.163,2.163,0,0,1-.906,1.816,3.8,3.8,0,0,1-2.352.684,4.257,4.257,0,0,1-1.8-.359,2.922,2.922,0,0,1-1.223-1,2.42,2.42,0,0,1-.441-1.395h1.445a1.5,1.5,0,0,0,.582,1.152,2.258,2.258,0,0,0,1.434.426,2.331,2.331,0,0,0,1.316-.332A1.02,1.02,0,0,0,82.75,14.758ZM87.648,17H86.2V8.547h1.445ZM86.086,6.3a.863.863,0,0,1,.215-.594.807.807,0,0,1,.637-.242.819.819,0,0,1,.641.242A.854.854,0,0,1,87.8,6.3a.826.826,0,0,1-.219.586.834.834,0,0,1-.641.234.821.821,0,0,1-.637-.234A.834.834,0,0,1,86.086,6.3Zm7.961,3.539a4.331,4.331,0,0,0-.711-.055A1.9,1.9,0,0,0,91.406,11v6H89.961V8.547h1.406l.023.977a2.251,2.251,0,0,1,2.016-1.133,1.477,1.477,0,0,1,.641.109Zm4.258,5.2L100.4,8.547h1.477L98.844,17h-1.1L94.68,8.547h1.477Zm8.469,2.117a3.693,3.693,0,0,1-2.8-1.129,4.19,4.19,0,0,1-1.078-3.02v-.266a5.073,5.073,0,0,1,.48-2.246,3.748,3.748,0,0,1,1.344-1.547,3.378,3.378,0,0,1,1.871-.559,3.166,3.166,0,0,1,2.563,1.086,4.7,4.7,0,0,1,.914,3.109v.6h-5.727a3,3,0,0,0,.73,2.02,2.3,2.3,0,0,0,1.777.77,2.517,2.517,0,0,0,1.3-.312,3.259,3.259,0,0,0,.93-.828l.883.688A3.55,3.55,0,0,1,106.773,17.156Zm-.18-7.578a1.928,1.928,0,0,0-1.469.637A3.1,3.1,0,0,0,104.391,12h4.234v-.109a2.753,2.753,0,0,0-.594-1.707A1.815,1.815,0,0,0,106.594,9.578Zm6.516-1.031.047,1.063a3.08,3.08,0,0,1,2.531-1.219q2.68,0,2.7,3.023V17h-1.445V11.406a1.946,1.946,0,0,0-.418-1.352,1.675,1.675,0,0,0-1.277-.437,2.086,2.086,0,0,0-1.234.375,2.546,2.546,0,0,0-.828.984V17h-1.445V8.547Zm14.813,7.43a2.082,2.082,0,0,0,1.352-.469,1.649,1.649,0,0,0,.641-1.172h1.367a2.621,2.621,0,0,1-.5,1.383,3.293,3.293,0,0,1-1.23,1.047,3.55,3.55,0,0,1-1.629.391A3.482,3.482,0,0,1,125.176,16a4.59,4.59,0,0,1-1.02-3.152v-.242a5.089,5.089,0,0,1,.453-2.2,3.451,3.451,0,0,1,1.3-1.492,3.7,3.7,0,0,1,2-.531,3.39,3.39,0,0,1,2.363.852,3.043,3.043,0,0,1,1,2.211h-1.367a1.992,1.992,0,0,0-.621-1.348,1.932,1.932,0,0,0-1.379-.527,2.023,2.023,0,0,0-1.707.793,3.724,3.724,0,0,0-.605,2.293v.273a3.65,3.65,0,0,0,.6,2.25A2.033,2.033,0,0,0,127.922,15.977Zm4.6-3.281a4.993,4.993,0,0,1,.488-2.234,3.642,3.642,0,0,1,1.359-1.531,3.7,3.7,0,0,1,1.988-.539,3.565,3.565,0,0,1,2.793,1.2,4.6,4.6,0,0,1,1.066,3.18v.1a5.036,5.036,0,0,1-.473,2.215,3.589,3.589,0,0,1-1.352,1.527,3.743,3.743,0,0,1-2.02.547,3.556,3.556,0,0,1-2.785-1.2,4.575,4.575,0,0,1-1.066-3.164Zm1.453.172a3.616,3.616,0,0,0,.652,2.258,2.211,2.211,0,0,0,3.5-.012,3.954,3.954,0,0,0,.648-2.418,3.61,3.61,0,0,0-.66-2.254,2.1,2.1,0,0,0-1.754-.863,2.075,2.075,0,0,0-1.727.852A3.925,3.925,0,0,0,133.977,12.867Zm9.414-4.32.039.938a3.122,3.122,0,0,1,2.508-1.094,2.417,2.417,0,0,1,2.414,1.359,3.2,3.2,0,0,1,1.1-.984,3.242,3.242,0,0,1,1.6-.375q2.781,0,2.828,2.945V17H152.43V11.422a1.941,1.941,0,0,0-.414-1.355,1.823,1.823,0,0,0-1.391-.449,1.917,1.917,0,0,0-1.336.48,1.949,1.949,0,0,0-.617,1.293V17h-1.453V11.461a1.613,1.613,0,0,0-1.8-1.844,1.934,1.934,0,0,0-1.945,1.211V17h-1.445V8.547ZM155.672,12.7a4.993,4.993,0,0,1,.488-2.234A3.642,3.642,0,0,1,157.52,8.93a3.7,3.7,0,0,1,1.988-.539,3.565,3.565,0,0,1,2.793,1.2,4.6,4.6,0,0,1,1.066,3.18v.1a5.036,5.036,0,0,1-.473,2.215,3.589,3.589,0,0,1-1.352,1.527,3.743,3.743,0,0,1-2.02.547,3.556,3.556,0,0,1-2.785-1.2,4.575,4.575,0,0,1-1.066-3.164Zm1.453.172a3.616,3.616,0,0,0,.652,2.258,2.211,2.211,0,0,0,3.5-.012,3.954,3.954,0,0,0,.648-2.418,3.61,3.61,0,0,0-.66-2.254,2.1,2.1,0,0,0-1.754-.863,2.075,2.075,0,0,0-1.727.852A3.925,3.925,0,0,0,157.125,12.867Zm16.1-3.023a4.331,4.331,0,0,0-.711-.055A1.9,1.9,0,0,0,170.586,11v6h-1.445V8.547h1.406l.023.977a2.251,2.251,0,0,1,2.016-1.133,1.477,1.477,0,0,1,.641.109Zm4.836,7.313a3.693,3.693,0,0,1-2.8-1.129,4.19,4.19,0,0,1-1.078-3.02v-.266a5.073,5.073,0,0,1,.48-2.246,3.748,3.748,0,0,1,1.344-1.547,3.378,3.378,0,0,1,1.871-.559,3.166,3.166,0,0,1,2.563,1.086,4.7,4.7,0,0,1,.914,3.109v.6h-5.727a3,3,0,0,0,.73,2.02,2.3,2.3,0,0,0,1.777.77,2.517,2.517,0,0,0,1.3-.312,3.258,3.258,0,0,0,.93-.828l.883.688A3.55,3.55,0,0,1,178.063,17.156Zm-.18-7.578a1.928,1.928,0,0,0-1.469.637A3.1,3.1,0,0,0,175.68,12h4.234v-.109a2.753,2.753,0,0,0-.594-1.707A1.815,1.815,0,0,0,177.883,9.578ZM183.742,17V9.664h-1.336V8.547h1.336V7.68a2.878,2.878,0,0,1,.727-2.1,2.745,2.745,0,0,1,2.055-.742,3.793,3.793,0,0,1,.992.133l-.078,1.172a4.151,4.151,0,0,0-.781-.07,1.413,1.413,0,0,0-1.086.41,1.66,1.66,0,0,0-.383,1.176v.891h1.8V9.664h-1.8V17Zm8.352.156a3.693,3.693,0,0,1-2.8-1.129,4.19,4.19,0,0,1-1.078-3.02v-.266a5.073,5.073,0,0,1,.48-2.246,3.748,3.748,0,0,1,1.344-1.547,3.378,3.378,0,0,1,1.871-.559,3.166,3.166,0,0,1,2.563,1.086,4.7,4.7,0,0,1,.914,3.109v.6h-5.727a3,3,0,0,0,.73,2.02,2.3,2.3,0,0,0,1.777.77,2.517,2.517,0,0,0,1.3-.312,3.258,3.258,0,0,0,.93-.828l.883.688A3.55,3.55,0,0,1,192.094,17.156Zm-.18-7.578a1.928,1.928,0,0,0-1.469.637A3.1,3.1,0,0,0,189.711,12h4.234v-.109a2.753,2.753,0,0,0-.594-1.707A1.815,1.815,0,0,0,191.914,9.578Zm9.234.266a4.331,4.331,0,0,0-.711-.055A1.9,1.9,0,0,0,198.508,11v6h-1.445V8.547h1.406l.023.977a2.251,2.251,0,0,1,2.016-1.133,1.477,1.477,0,0,1,.641.109Zm4.836,7.313a3.693,3.693,0,0,1-2.8-1.129,4.19,4.19,0,0,1-1.078-3.02v-.266a5.073,5.073,0,0,1,.48-2.246,3.748,3.748,0,0,1,1.344-1.547,3.378,3.378,0,0,1,1.871-.559,3.166,3.166,0,0,1,2.563,1.086,4.7,4.7,0,0,1,.914,3.109v.6h-5.727a3,3,0,0,0,.73,2.02,2.3,2.3,0,0,0,1.777.77,2.517,2.517,0,0,0,1.3-.312,3.258,3.258,0,0,0,.93-.828l.883.688A3.55,3.55,0,0,1,205.984,17.156Zm-.18-7.578a1.928,1.928,0,0,0-1.469.637A3.1,3.1,0,0,0,203.6,12h4.234v-.109a2.753,2.753,0,0,0-.594-1.707A1.815,1.815,0,0,0,205.8,9.578Zm6.516-1.031.047,1.063A3.08,3.08,0,0,1,214.9,8.391q2.68,0,2.7,3.023V17h-1.445V11.406a1.946,1.946,0,0,0-.418-1.352,1.675,1.675,0,0,0-1.277-.437,2.086,2.086,0,0,0-1.234.375,2.546,2.546,0,0,0-.828.984V17h-1.445V8.547Zm10.852,7.43a2.082,2.082,0,0,0,1.352-.469,1.649,1.649,0,0,0,.641-1.172h1.367a2.621,2.621,0,0,1-.5,1.383,3.293,3.293,0,0,1-1.23,1.047,3.55,3.55,0,0,1-1.629.391A3.482,3.482,0,0,1,220.426,16a4.59,4.59,0,0,1-1.02-3.152v-.242a5.089,5.089,0,0,1,.453-2.2,3.451,3.451,0,0,1,1.3-1.492,3.7,3.7,0,0,1,2-.531,3.39,3.39,0,0,1,2.363.852,3.043,3.043,0,0,1,1,2.211h-1.367a1.992,1.992,0,0,0-.621-1.348,1.932,1.932,0,0,0-1.379-.527,2.023,2.023,0,0,0-1.707.793,3.724,3.724,0,0,0-.605,2.293v.273a3.65,3.65,0,0,0,.6,2.25A2.033,2.033,0,0,0,223.172,15.977ZM229.727,17h-1.445V8.547h1.445ZM228.164,6.3a.863.863,0,0,1,.215-.594.807.807,0,0,1,.637-.242.819.819,0,0,1,.641.242.854.854,0,0,1,.219.594.826.826,0,0,1-.219.586.834.834,0,0,1-.641.234.821.821,0,0,1-.637-.234A.834.834,0,0,1,228.164,6.3ZM237.258,17a3.036,3.036,0,0,1-.2-.891,3.225,3.225,0,0,1-2.406,1.047,2.984,2.984,0,0,1-2.051-.707,2.287,2.287,0,0,1-.8-1.793,2.39,2.39,0,0,1,1-2.051,4.733,4.733,0,0,1,2.824-.73h1.406v-.664A1.623,1.623,0,0,0,236.578,10a1.821,1.821,0,0,0-1.336-.449,2.107,2.107,0,0,0-1.3.391,1.151,1.151,0,0,0-.523.945h-1.453a2,2,0,0,1,.449-1.223,3.066,3.066,0,0,1,1.219-.934,4.1,4.1,0,0,1,1.691-.344,3.342,3.342,0,0,1,2.289.73,2.635,2.635,0,0,1,.859,2.012v3.891a4.757,4.757,0,0,0,.3,1.852V17Zm-2.4-1.1a2.54,2.54,0,0,0,1.289-.352,2.127,2.127,0,0,0,.883-.914V12.9H235.9q-2.656,0-2.656,1.555a1.316,1.316,0,0,0,.453,1.063A1.742,1.742,0,0,0,234.859,15.9Zm16.984-3.031a5.062,5.062,0,0,1-.883,3.109,2.829,2.829,0,0,1-2.391,1.18,3.1,3.1,0,0,1-2.422-.977v4.07H244.7V8.547h1.32l.07.938a2.977,2.977,0,0,1,2.453-1.094,2.882,2.882,0,0,1,2.41,1.148,5.117,5.117,0,0,1,.887,3.2ZM250.4,12.7a3.735,3.735,0,0,0-.609-2.258,1.963,1.963,0,0,0-1.672-.828,2.125,2.125,0,0,0-1.969,1.164V14.82a2.129,2.129,0,0,0,1.984,1.156,1.954,1.954,0,0,0,1.652-.824A4.077,4.077,0,0,0,250.4,12.7Zm8.5,4.3a3.036,3.036,0,0,1-.2-.891,3.225,3.225,0,0,1-2.406,1.047,2.984,2.984,0,0,1-2.051-.707,2.287,2.287,0,0,1-.8-1.793,2.39,2.39,0,0,1,1-2.051,4.733,4.733,0,0,1,2.824-.73h1.406v-.664A1.623,1.623,0,0,0,258.219,10a1.821,1.821,0,0,0-1.336-.449,2.107,2.107,0,0,0-1.3.391,1.151,1.151,0,0,0-.523.945h-1.453a2,2,0,0,1,.449-1.223,3.066,3.066,0,0,1,1.219-.934,4.1,4.1,0,0,1,1.691-.344,3.342,3.342,0,0,1,2.289.73,2.635,2.635,0,0,1,.859,2.012v3.891a4.757,4.757,0,0,0,.3,1.852V17Zm-2.4-1.1a2.54,2.54,0,0,0,1.289-.352,2.126,2.126,0,0,0,.883-.914V12.9h-1.133q-2.656,0-2.656,1.555a1.316,1.316,0,0,0,.453,1.063A1.742,1.742,0,0,0,256.5,15.9Zm9.969-6.055a4.331,4.331,0,0,0-.711-.055A1.9,1.9,0,0,0,263.828,11v6h-1.445V8.547h1.406l.023.977a2.251,2.251,0,0,1,2.016-1.133,1.477,1.477,0,0,1,.641.109ZM272.7,17a3.036,3.036,0,0,1-.2-.891,3.225,3.225,0,0,1-2.406,1.047,2.984,2.984,0,0,1-2.051-.707,2.288,2.288,0,0,1-.8-1.793,2.39,2.39,0,0,1,1-2.051,4.733,4.733,0,0,1,2.824-.73h1.406v-.664A1.623,1.623,0,0,0,272.023,10a1.821,1.821,0,0,0-1.336-.449,2.108,2.108,0,0,0-1.3.391,1.151,1.151,0,0,0-.523.945h-1.453a2,2,0,0,1,.449-1.223,3.066,3.066,0,0,1,1.219-.934,4.1,4.1,0,0,1,1.691-.344,3.342,3.342,0,0,1,2.289.73,2.635,2.635,0,0,1,.859,2.012v3.891a4.757,4.757,0,0,0,.3,1.852V17Zm-2.4-1.1a2.54,2.54,0,0,0,1.289-.352,2.126,2.126,0,0,0,.883-.914V12.9h-1.133q-2.656,0-2.656,1.555a1.316,1.316,0,0,0,.453,1.063A1.742,1.742,0,0,0,270.3,15.9Zm11.2-7.352.039.938a3.122,3.122,0,0,1,2.508-1.094,2.417,2.417,0,0,1,2.414,1.359,3.2,3.2,0,0,1,1.1-.984,3.242,3.242,0,0,1,1.6-.375q2.781,0,2.828,2.945V17h-1.445V11.422a1.941,1.941,0,0,0-.414-1.355,1.823,1.823,0,0,0-1.391-.449,1.916,1.916,0,0,0-1.336.48,1.949,1.949,0,0,0-.617,1.293V17h-1.453V11.461a1.613,1.613,0,0,0-1.8-1.844,1.934,1.934,0,0,0-1.945,1.211V17h-1.445V8.547ZM299.391,17a3.036,3.036,0,0,1-.2-.891,3.225,3.225,0,0,1-2.406,1.047,2.984,2.984,0,0,1-2.051-.707,2.288,2.288,0,0,1-.8-1.793,2.39,2.39,0,0,1,1-2.051,4.733,4.733,0,0,1,2.824-.73h1.406v-.664A1.623,1.623,0,0,0,298.711,10a1.821,1.821,0,0,0-1.336-.449,2.108,2.108,0,0,0-1.3.391,1.151,1.151,0,0,0-.523.945H294.1a2,2,0,0,1,.449-1.223,3.066,3.066,0,0,1,1.219-.934,4.1,4.1,0,0,1,1.691-.344,3.342,3.342,0,0,1,2.289.73,2.635,2.635,0,0,1,.859,2.012v3.891a4.757,4.757,0,0,0,.3,1.852V17Zm-2.4-1.1a2.54,2.54,0,0,0,1.289-.352,2.126,2.126,0,0,0,.883-.914V12.9h-1.133q-2.656,0-2.656,1.555a1.316,1.316,0,0,0,.453,1.063A1.742,1.742,0,0,0,296.992,15.9Zm9.969-6.055a4.331,4.331,0,0,0-.711-.055A1.9,1.9,0,0,0,304.32,11v6h-1.445V8.547h1.406l.023.977a2.251,2.251,0,0,1,2.016-1.133,1.477,1.477,0,0,1,.641.109Zm4.57,6.133a2.082,2.082,0,0,0,1.352-.469,1.649,1.649,0,0,0,.641-1.172h1.367a2.621,2.621,0,0,1-.5,1.383,3.293,3.293,0,0,1-1.23,1.047,3.551,3.551,0,0,1-1.629.391A3.482,3.482,0,0,1,308.785,16a4.59,4.59,0,0,1-1.02-3.152v-.242a5.089,5.089,0,0,1,.453-2.2,3.451,3.451,0,0,1,1.3-1.492,3.7,3.7,0,0,1,2-.531,3.39,3.39,0,0,1,2.363.852,3.043,3.043,0,0,1,1,2.211h-1.367a1.992,1.992,0,0,0-.621-1.348,1.932,1.932,0,0,0-1.379-.527,2.023,2.023,0,0,0-1.707.793,3.724,3.724,0,0,0-.605,2.293v.273a3.65,3.65,0,0,0,.6,2.25A2.033,2.033,0,0,0,311.531,15.977ZM321.734,17a3.036,3.036,0,0,1-.2-.891,3.225,3.225,0,0,1-2.406,1.047,2.984,2.984,0,0,1-2.051-.707,2.288,2.288,0,0,1-.8-1.793,2.39,2.39,0,0,1,1-2.051,4.733,4.733,0,0,1,2.824-.73h1.406v-.664A1.623,1.623,0,0,0,321.055,10a1.821,1.821,0,0,0-1.336-.449,2.108,2.108,0,0,0-1.3.391,1.151,1.151,0,0,0-.523.945h-1.453a2,2,0,0,1,.449-1.223,3.066,3.066,0,0,1,1.219-.934,4.1,4.1,0,0,1,1.691-.344,3.342,3.342,0,0,1,2.289.73,2.635,2.635,0,0,1,.859,2.012v3.891a4.757,4.757,0,0,0,.3,1.852V17Zm-2.4-1.1a2.54,2.54,0,0,0,1.289-.352,2.126,2.126,0,0,0,.883-.914V12.9h-1.133q-2.656,0-2.656,1.555a1.316,1.316,0,0,0,.453,1.063A1.742,1.742,0,0,0,319.336,15.9ZM329.3,9.844a4.331,4.331,0,0,0-.711-.055A1.9,1.9,0,0,0,326.664,11v6h-1.445V8.547h1.406l.023.977a2.251,2.251,0,0,1,2.016-1.133,1.477,1.477,0,0,1,.641.109Zm8.8,7.313a3.693,3.693,0,0,1-2.8-1.129,4.19,4.19,0,0,1-1.078-3.02v-.266a5.073,5.073,0,0,1,.48-2.246,3.748,3.748,0,0,1,1.344-1.547,3.379,3.379,0,0,1,1.871-.559,3.166,3.166,0,0,1,2.563,1.086,4.7,4.7,0,0,1,.914,3.109v.6h-5.727a3,3,0,0,0,.73,2.02,2.3,2.3,0,0,0,1.777.77,2.517,2.517,0,0,0,1.3-.312,3.259,3.259,0,0,0,.93-.828l.883.688A3.55,3.55,0,0,1,338.1,17.156Zm-.18-7.578a1.928,1.928,0,0,0-1.469.637A3.1,3.1,0,0,0,335.719,12h4.234v-.109a2.753,2.753,0,0,0-.594-1.707A1.815,1.815,0,0,0,337.922,9.578Zm6.516-1.031.047,1.063a3.08,3.08,0,0,1,2.531-1.219q2.68,0,2.7,3.023V17h-1.445V11.406a1.946,1.946,0,0,0-.418-1.352,1.675,1.675,0,0,0-1.277-.437,2.086,2.086,0,0,0-1.234.375,2.546,2.546,0,0,0-.828.984V17H343.07V8.547Zm14.813,7.43a2.082,2.082,0,0,0,1.352-.469,1.649,1.649,0,0,0,.641-1.172h1.367a2.621,2.621,0,0,1-.5,1.383,3.293,3.293,0,0,1-1.23,1.047,3.551,3.551,0,0,1-1.629.391A3.482,3.482,0,0,1,356.5,16a4.59,4.59,0,0,1-1.02-3.152v-.242a5.089,5.089,0,0,1,.453-2.2,3.451,3.451,0,0,1,1.3-1.492,3.7,3.7,0,0,1,2-.531,3.39,3.39,0,0,1,2.363.852,3.043,3.043,0,0,1,1,2.211h-1.367a1.992,1.992,0,0,0-.621-1.348,1.932,1.932,0,0,0-1.379-.527,2.023,2.023,0,0,0-1.707.793,3.724,3.724,0,0,0-.605,2.293v.273a3.65,3.65,0,0,0,.6,2.25A2.033,2.033,0,0,0,359.25,15.977ZM369.453,17a3.036,3.036,0,0,1-.2-.891,3.225,3.225,0,0,1-2.406,1.047,2.984,2.984,0,0,1-2.051-.707,2.288,2.288,0,0,1-.8-1.793,2.39,2.39,0,0,1,1-2.051,4.733,4.733,0,0,1,2.824-.73h1.406v-.664A1.623,1.623,0,0,0,368.773,10a1.821,1.821,0,0,0-1.336-.449,2.108,2.108,0,0,0-1.3.391,1.151,1.151,0,0,0-.523.945h-1.453a2,2,0,0,1,.449-1.223,3.066,3.066,0,0,1,1.219-.934,4.1,4.1,0,0,1,1.691-.344,3.342,3.342,0,0,1,2.289.73,2.635,2.635,0,0,1,.859,2.012v3.891a4.757,4.757,0,0,0,.3,1.852V17Zm-2.4-1.1a2.54,2.54,0,0,0,1.289-.352,2.126,2.126,0,0,0,.883-.914V12.9h-1.133q-2.656,0-2.656,1.555a1.316,1.316,0,0,0,.453,1.063A1.742,1.742,0,0,0,367.055,15.9Zm5.531-3.2a4.952,4.952,0,0,1,.922-3.129,3.137,3.137,0,0,1,4.766-.168V5h1.445V17h-1.328l-.07-.906a2.943,2.943,0,0,1-2.414,1.063,2.887,2.887,0,0,1-2.395-1.2,5.008,5.008,0,0,1-.926-3.141Zm1.445.164a3.749,3.749,0,0,0,.594,2.25,1.92,1.92,0,0,0,1.641.813,2.109,2.109,0,0,0,2.008-1.234V10.813a2.125,2.125,0,0,0-1.992-1.2,1.929,1.929,0,0,0-1.656.82A4.128,4.128,0,0,0,374.031,12.867ZM387.18,17a3.036,3.036,0,0,1-.2-.891,3.225,3.225,0,0,1-2.406,1.047,2.984,2.984,0,0,1-2.051-.707,2.288,2.288,0,0,1-.8-1.793,2.39,2.39,0,0,1,1-2.051,4.733,4.733,0,0,1,2.824-.73h1.406v-.664A1.623,1.623,0,0,0,386.5,10a1.821,1.821,0,0,0-1.336-.449,2.108,2.108,0,0,0-1.3.391,1.151,1.151,0,0,0-.523.945h-1.453a2,2,0,0,1,.449-1.223,3.066,3.066,0,0,1,1.219-.934,4.1,4.1,0,0,1,1.691-.344,3.342,3.342,0,0,1,2.289.73,2.635,2.635,0,0,1,.859,2.012v3.891a4.757,4.757,0,0,0,.3,1.852V17Zm-2.4-1.1a2.54,2.54,0,0,0,1.289-.352,2.126,2.126,0,0,0,.883-.914V12.9H385.82q-2.656,0-2.656,1.555a1.316,1.316,0,0,0,.453,1.063A1.742,1.742,0,0,0,384.781,15.9Zm15.063.266a3.07,3.07,0,0,1-2.477.992,2.628,2.628,0,0,1-2.059-.785,3.4,3.4,0,0,1-.715-2.324v-5.5h1.445v5.461q0,1.922,1.563,1.922a2.163,2.163,0,0,0,2.2-1.234V8.547h1.445V17h-1.375Zm4.969-7.617.047,1.063a3.08,3.08,0,0,1,2.531-1.219q2.68,0,2.7,3.023V17h-1.445V11.406a1.946,1.946,0,0,0-.418-1.352,1.675,1.675,0,0,0-1.277-.437,2.086,2.086,0,0,0-1.234.375,2.546,2.546,0,0,0-.828.984V17h-1.445V8.547Zm7.078,4.148a4.993,4.993,0,0,1,.488-2.234,3.643,3.643,0,0,1,1.359-1.531,3.7,3.7,0,0,1,1.988-.539,3.565,3.565,0,0,1,2.793,1.2,4.6,4.6,0,0,1,1.066,3.18v.1a5.036,5.036,0,0,1-.473,2.215,3.589,3.589,0,0,1-1.352,1.527,3.743,3.743,0,0,1-2.02.547,3.556,3.556,0,0,1-2.785-1.2,4.575,4.575,0,0,1-1.066-3.164Zm1.453.172A3.616,3.616,0,0,0,414,15.125a2.211,2.211,0,0,0,3.5-.012,3.955,3.955,0,0,0,.648-2.418,3.61,3.61,0,0,0-.66-2.254,2.1,2.1,0,0,0-1.754-.863A2.075,2.075,0,0,0,414,10.43,3.925,3.925,0,0,0,413.344,12.867Zm11.664-.164a4.952,4.952,0,0,1,.922-3.129,3.137,3.137,0,0,1,4.766-.168V5h1.445V17h-1.328l-.07-.906a2.943,2.943,0,0,1-2.414,1.063,2.887,2.887,0,0,1-2.395-1.2,5.008,5.008,0,0,1-.926-3.141Zm1.445.164a3.749,3.749,0,0,0,.594,2.25,1.92,1.92,0,0,0,1.641.813A2.109,2.109,0,0,0,430.7,14.7V10.813a2.125,2.125,0,0,0-1.992-1.2,1.929,1.929,0,0,0-1.656.82A4.128,4.128,0,0,0,426.453,12.867Zm11.438,4.289a3.693,3.693,0,0,1-2.8-1.129,4.19,4.19,0,0,1-1.078-3.02v-.266a5.073,5.073,0,0,1,.48-2.246,3.748,3.748,0,0,1,1.344-1.547,3.379,3.379,0,0,1,1.871-.559,3.166,3.166,0,0,1,2.563,1.086,4.7,4.7,0,0,1,.914,3.109v.6h-5.727a3,3,0,0,0,.73,2.02,2.3,2.3,0,0,0,1.777.77,2.517,2.517,0,0,0,1.3-.312,3.259,3.259,0,0,0,.93-.828l.883.688A3.55,3.55,0,0,1,437.891,17.156Zm-.18-7.578a1.928,1.928,0,0,0-1.469.637A3.1,3.1,0,0,0,435.508,12h4.234v-.109a2.753,2.753,0,0,0-.594-1.707A1.815,1.815,0,0,0,437.711,9.578ZM448.391,17h-1.445V5h1.445Zm1.93-4.3a4.993,4.993,0,0,1,.488-2.234,3.643,3.643,0,0,1,1.359-1.531,3.7,3.7,0,0,1,1.988-.539,3.565,3.565,0,0,1,2.793,1.2,4.6,4.6,0,0,1,1.066,3.18v.1a5.036,5.036,0,0,1-.473,2.215,3.589,3.589,0,0,1-1.352,1.527,3.743,3.743,0,0,1-2.02.547,3.556,3.556,0,0,1-2.785-1.2A4.575,4.575,0,0,1,450.32,12.8Zm1.453.172a3.616,3.616,0,0,0,.652,2.258,2.211,2.211,0,0,0,3.5-.012,3.955,3.955,0,0,0,.648-2.418,3.61,3.61,0,0,0-.66-2.254,2.1,2.1,0,0,0-1.754-.863,2.075,2.075,0,0,0-1.727.852A3.925,3.925,0,0,0,451.773,12.867Zm12.977,1.891a1.064,1.064,0,0,0-.441-.91,4.249,4.249,0,0,0-1.539-.559,7.276,7.276,0,0,1-1.742-.562,2.478,2.478,0,0,1-.953-.781,1.869,1.869,0,0,1-.309-1.078,2.193,2.193,0,0,1,.879-1.758,3.432,3.432,0,0,1,2.246-.719,3.532,3.532,0,0,1,2.332.742,2.357,2.357,0,0,1,.895,1.9h-1.453a1.3,1.3,0,0,0-.5-1.023,1.888,1.888,0,0,0-1.27-.43,1.976,1.976,0,0,0-1.234.344,1.082,1.082,0,0,0-.445.9.877.877,0,0,0,.414.789,5.1,5.1,0,0,0,1.5.508,7.8,7.8,0,0,1,1.754.578,2.559,2.559,0,0,1,1,.809,1.988,1.988,0,0,1,.324,1.152,2.163,2.163,0,0,1-.906,1.816,3.8,3.8,0,0,1-2.352.684,4.257,4.257,0,0,1-1.8-.359,2.922,2.922,0,0,1-1.223-1,2.42,2.42,0,0,1-.441-1.395h1.445a1.5,1.5,0,0,0,.582,1.152,2.258,2.258,0,0,0,1.434.426,2.331,2.331,0,0,0,1.316-.332A1.02,1.02,0,0,0,464.75,14.758Zm14.43-1.891a5.062,5.062,0,0,1-.883,3.109,2.829,2.829,0,0,1-2.391,1.18,3.1,3.1,0,0,1-2.422-.977v4.07h-1.445V8.547h1.32l.07.938a2.977,2.977,0,0,1,2.453-1.094,2.882,2.882,0,0,1,2.41,1.148,5.117,5.117,0,0,1,.887,3.2Zm-1.445-.164a3.735,3.735,0,0,0-.609-2.258,1.963,1.963,0,0,0-1.672-.828,2.125,2.125,0,0,0-1.969,1.164V14.82a2.129,2.129,0,0,0,1.984,1.156,1.954,1.954,0,0,0,1.652-.824A4.077,4.077,0,0,0,477.734,12.7Zm8.5,3.461a3.07,3.07,0,0,1-2.477.992,2.628,2.628,0,0,1-2.059-.785,3.4,3.4,0,0,1-.715-2.324v-5.5h1.445v5.461q0,1.922,1.563,1.922a2.163,2.163,0,0,0,2.2-1.234V8.547h1.445V17h-1.375ZM491.2,8.547l.047,1.063a3.08,3.08,0,0,1,2.531-1.219q2.68,0,2.7,3.023V17h-1.445V11.406a1.946,1.946,0,0,0-.418-1.352,1.675,1.675,0,0,0-1.277-.437,2.086,2.086,0,0,0-1.234.375,2.546,2.546,0,0,0-.828.984V17h-1.445V8.547ZM500.625,6.5V8.547H502.2V9.664h-1.578v5.242a1.171,1.171,0,0,0,.211.762.888.888,0,0,0,.719.254,3.5,3.5,0,0,0,.688-.094V17a4.19,4.19,0,0,1-1.109.156,1.8,1.8,0,0,1-1.461-.586,2.517,2.517,0,0,1-.492-1.664V9.664h-1.539V8.547h1.539V6.5Zm2.727,6.2a4.993,4.993,0,0,1,.488-2.234A3.643,3.643,0,0,1,505.2,8.93a3.7,3.7,0,0,1,1.988-.539,3.565,3.565,0,0,1,2.793,1.2,4.6,4.6,0,0,1,1.066,3.18v.1a5.036,5.036,0,0,1-.473,2.215,3.589,3.589,0,0,1-1.352,1.527,3.743,3.743,0,0,1-2.02.547,3.556,3.556,0,0,1-2.785-1.2,4.575,4.575,0,0,1-1.066-3.164Zm1.453.172a3.616,3.616,0,0,0,.652,2.258,2.211,2.211,0,0,0,3.5-.012A3.955,3.955,0,0,0,509.6,12.7a3.61,3.61,0,0,0-.66-2.254,2.1,2.1,0,0,0-1.754-.863,2.075,2.075,0,0,0-1.727.852A3.925,3.925,0,0,0,504.8,12.867Zm12.977,1.891a1.064,1.064,0,0,0-.441-.91,4.249,4.249,0,0,0-1.539-.559,7.277,7.277,0,0,1-1.742-.562,2.479,2.479,0,0,1-.953-.781,1.869,1.869,0,0,1-.309-1.078,2.193,2.193,0,0,1,.879-1.758,3.432,3.432,0,0,1,2.246-.719,3.532,3.532,0,0,1,2.332.742,2.357,2.357,0,0,1,.895,1.9H517.7a1.3,1.3,0,0,0-.5-1.023,1.888,1.888,0,0,0-1.27-.43,1.976,1.976,0,0,0-1.234.344,1.082,1.082,0,0,0-.445.9.877.877,0,0,0,.414.789,5.1,5.1,0,0,0,1.5.508,7.8,7.8,0,0,1,1.754.578,2.558,2.558,0,0,1,1,.809,1.988,1.988,0,0,1,.324,1.152,2.163,2.163,0,0,1-.906,1.816,3.8,3.8,0,0,1-2.352.684,4.257,4.257,0,0,1-1.8-.359,2.922,2.922,0,0,1-1.223-1,2.42,2.42,0,0,1-.441-1.395h1.445a1.5,1.5,0,0,0,.582,1.152,2.258,2.258,0,0,0,1.434.426,2.331,2.331,0,0,0,1.316-.332A1.02,1.02,0,0,0,517.781,14.758ZM6.313,41a3.036,3.036,0,0,1-.2-.891A3.225,3.225,0,0,1,3.7,41.156a2.984,2.984,0,0,1-2.051-.707,2.287,2.287,0,0,1-.8-1.793,2.39,2.39,0,0,1,1-2.051,4.733,4.733,0,0,1,2.824-.73H6.086v-.664A1.623,1.623,0,0,0,5.633,34,1.821,1.821,0,0,0,4.3,33.555a2.107,2.107,0,0,0-1.3.391,1.151,1.151,0,0,0-.523.945H1.023a2,2,0,0,1,.449-1.223,3.066,3.066,0,0,1,1.219-.934,4.1,4.1,0,0,1,1.691-.344,3.342,3.342,0,0,1,2.289.73,2.635,2.635,0,0,1,.859,2.012v3.891a4.757,4.757,0,0,0,.3,1.852V41Zm-2.4-1.1A2.54,2.54,0,0,0,5.2,39.547a2.127,2.127,0,0,0,.883-.914V36.9H4.953Q2.3,36.9,2.3,38.453a1.316,1.316,0,0,0,.453,1.063A1.742,1.742,0,0,0,3.914,39.9Zm13.352,1.258a3.693,3.693,0,0,1-2.8-1.129,4.19,4.19,0,0,1-1.078-3.02v-.266a5.073,5.073,0,0,1,.48-2.246,3.748,3.748,0,0,1,1.344-1.547,3.378,3.378,0,0,1,1.871-.559,3.166,3.166,0,0,1,2.563,1.086,4.7,4.7,0,0,1,.914,3.109v.6H14.836a3,3,0,0,0,.73,2.02,2.3,2.3,0,0,0,1.777.77,2.517,2.517,0,0,0,1.3-.312,3.259,3.259,0,0,0,.93-.828l.883.688A3.55,3.55,0,0,1,17.266,41.156Zm-.18-7.578a1.928,1.928,0,0,0-1.469.637A3.1,3.1,0,0,0,14.883,36h4.234v-.109a2.753,2.753,0,0,0-.594-1.707A1.815,1.815,0,0,0,17.086,33.578Zm10.07,5.18a1.064,1.064,0,0,0-.441-.91,4.249,4.249,0,0,0-1.539-.559,7.277,7.277,0,0,1-1.742-.562,2.479,2.479,0,0,1-.953-.781,1.869,1.869,0,0,1-.309-1.078,2.193,2.193,0,0,1,.879-1.758,3.432,3.432,0,0,1,2.246-.719,3.532,3.532,0,0,1,2.332.742,2.357,2.357,0,0,1,.895,1.9H27.07a1.3,1.3,0,0,0-.5-1.023,1.888,1.888,0,0,0-1.27-.43,1.976,1.976,0,0,0-1.234.344,1.082,1.082,0,0,0-.445.9.877.877,0,0,0,.414.789,5.1,5.1,0,0,0,1.5.508,7.8,7.8,0,0,1,1.754.578,2.558,2.558,0,0,1,1,.809,1.988,1.988,0,0,1,.324,1.152,2.163,2.163,0,0,1-.906,1.816,3.8,3.8,0,0,1-2.352.684,4.257,4.257,0,0,1-1.8-.359,2.922,2.922,0,0,1-1.223-1,2.42,2.42,0,0,1-.441-1.395h1.445a1.5,1.5,0,0,0,.582,1.152,2.258,2.258,0,0,0,1.434.426,2.331,2.331,0,0,0,1.316-.332A1.02,1.02,0,0,0,27.156,38.758Zm6.719,1.219a2.082,2.082,0,0,0,1.352-.469,1.649,1.649,0,0,0,.641-1.172h1.367a2.621,2.621,0,0,1-.5,1.383,3.293,3.293,0,0,1-1.23,1.047,3.55,3.55,0,0,1-1.629.391A3.482,3.482,0,0,1,31.129,40a4.59,4.59,0,0,1-1.02-3.152v-.242a5.089,5.089,0,0,1,.453-2.2,3.451,3.451,0,0,1,1.3-1.492,3.7,3.7,0,0,1,2-.531,3.39,3.39,0,0,1,2.363.852,3.043,3.043,0,0,1,1,2.211H35.867a1.992,1.992,0,0,0-.621-1.348,1.932,1.932,0,0,0-1.379-.527,2.023,2.023,0,0,0-1.707.793,3.724,3.724,0,0,0-.605,2.293v.273a3.65,3.65,0,0,0,.6,2.25A2.033,2.033,0,0,0,33.875,39.977ZM44.078,41a3.036,3.036,0,0,1-.2-.891,3.225,3.225,0,0,1-2.406,1.047,2.984,2.984,0,0,1-2.051-.707,2.287,2.287,0,0,1-.8-1.793,2.39,2.39,0,0,1,1-2.051,4.733,4.733,0,0,1,2.824-.73h1.406v-.664A1.623,1.623,0,0,0,43.4,34a1.821,1.821,0,0,0-1.336-.449,2.107,2.107,0,0,0-1.3.391,1.151,1.151,0,0,0-.523.945H38.789a2,2,0,0,1,.449-1.223,3.066,3.066,0,0,1,1.219-.934,4.1,4.1,0,0,1,1.691-.344,3.342,3.342,0,0,1,2.289.73,2.635,2.635,0,0,1,.859,2.012v3.891a4.757,4.757,0,0,0,.3,1.852V41Zm-2.4-1.1a2.54,2.54,0,0,0,1.289-.352,2.127,2.127,0,0,0,.883-.914V36.9H42.719q-2.656,0-2.656,1.555a1.316,1.316,0,0,0,.453,1.063A1.742,1.742,0,0,0,41.68,39.9ZM49.133,41H47.688V29h1.445Zm7.531,0a3.036,3.036,0,0,1-.2-.891,3.225,3.225,0,0,1-2.406,1.047A2.984,2.984,0,0,1,52,40.449a2.287,2.287,0,0,1-.8-1.793,2.39,2.39,0,0,1,1-2.051,4.733,4.733,0,0,1,2.824-.73h1.406v-.664A1.623,1.623,0,0,0,55.984,34a1.821,1.821,0,0,0-1.336-.449,2.107,2.107,0,0,0-1.3.391,1.151,1.151,0,0,0-.523.945H51.375a2,2,0,0,1,.449-1.223,3.066,3.066,0,0,1,1.219-.934,4.1,4.1,0,0,1,1.691-.344,3.342,3.342,0,0,1,2.289.73,2.635,2.635,0,0,1,.859,2.012v3.891a4.757,4.757,0,0,0,.3,1.852V41Zm-2.4-1.1a2.54,2.54,0,0,0,1.289-.352,2.127,2.127,0,0,0,.883-.914V36.9H55.3q-2.656,0-2.656,1.555a1.316,1.316,0,0,0,.453,1.063A1.742,1.742,0,0,0,54.266,39.9Zm9.969-6.055a4.331,4.331,0,0,0-.711-.055A1.9,1.9,0,0,0,61.594,35v6H60.148V32.547h1.406l.023.977a2.251,2.251,0,0,1,2.016-1.133,1.477,1.477,0,0,1,.641.109Zm.32,9.422-.82-.562a3.77,3.77,0,0,0,.766-2.109v-1.3h1.414v1.133A3.559,3.559,0,0,1,65.527,42,3.7,3.7,0,0,1,64.555,43.266Zm10.656-2.109a3.693,3.693,0,0,1-2.8-1.129,4.19,4.19,0,0,1-1.078-3.02v-.266a5.073,5.073,0,0,1,.48-2.246,3.748,3.748,0,0,1,1.344-1.547,3.378,3.378,0,0,1,1.871-.559,3.166,3.166,0,0,1,2.563,1.086,4.7,4.7,0,0,1,.914,3.109v.6H72.781a3,3,0,0,0,.73,2.02,2.3,2.3,0,0,0,1.777.77,2.517,2.517,0,0,0,1.3-.312,3.259,3.259,0,0,0,.93-.828l.883.688A3.55,3.55,0,0,1,75.211,41.156Zm-.18-7.578a1.928,1.928,0,0,0-1.469.637A3.1,3.1,0,0,0,72.828,36h4.234v-.109a2.753,2.753,0,0,0-.594-1.707A1.815,1.815,0,0,0,75.031,33.578ZM81.75,41H80.3V29H81.75Zm13.414-4.133a5.062,5.062,0,0,1-.883,3.109,2.829,2.829,0,0,1-2.391,1.18,3.1,3.1,0,0,1-2.422-.977v4.07H88.023v-11.7h1.32l.07.938a2.977,2.977,0,0,1,2.453-1.094,2.882,2.882,0,0,1,2.41,1.148,5.117,5.117,0,0,1,.887,3.2ZM93.719,36.7a3.735,3.735,0,0,0-.609-2.258,1.963,1.963,0,0,0-1.672-.828,2.125,2.125,0,0,0-1.969,1.164V38.82a2.129,2.129,0,0,0,1.984,1.156,1.954,1.954,0,0,0,1.652-.824A4.077,4.077,0,0,0,93.719,36.7ZM98.57,41H97.125V29H98.57Zm7.531,0a3.036,3.036,0,0,1-.2-.891,3.225,3.225,0,0,1-2.406,1.047,2.984,2.984,0,0,1-2.051-.707,2.288,2.288,0,0,1-.8-1.793,2.39,2.39,0,0,1,1-2.051,4.733,4.733,0,0,1,2.824-.73h1.406v-.664A1.623,1.623,0,0,0,105.422,34a1.821,1.821,0,0,0-1.336-.449,2.107,2.107,0,0,0-1.3.391,1.151,1.151,0,0,0-.523.945h-1.453a2,2,0,0,1,.449-1.223,3.066,3.066,0,0,1,1.219-.934,4.1,4.1,0,0,1,1.691-.344,3.342,3.342,0,0,1,2.289.73,2.635,2.635,0,0,1,.859,2.012v3.891a4.757,4.757,0,0,0,.3,1.852V41Zm-2.4-1.1a2.54,2.54,0,0,0,1.289-.352,2.127,2.127,0,0,0,.883-.914V36.9h-1.133q-2.656,0-2.656,1.555a1.316,1.316,0,0,0,.453,1.063A1.742,1.742,0,0,0,103.7,39.9Zm7.25-7.352L111,33.609a3.08,3.08,0,0,1,2.531-1.219q2.68,0,2.7,3.023V41h-1.445V35.406a1.946,1.946,0,0,0-.418-1.352,1.675,1.675,0,0,0-1.277-.437,2.086,2.086,0,0,0-1.234.375,2.546,2.546,0,0,0-.828.984V41h-1.445V32.547Zm7.078,4.148a4.993,4.993,0,0,1,.488-2.234,3.643,3.643,0,0,1,1.359-1.531,3.7,3.7,0,0,1,1.988-.539,3.565,3.565,0,0,1,2.793,1.2,4.6,4.6,0,0,1,1.066,3.18v.1a5.036,5.036,0,0,1-.473,2.215,3.589,3.589,0,0,1-1.352,1.527,3.743,3.743,0,0,1-2.02.547,3.556,3.556,0,0,1-2.785-1.2,4.575,4.575,0,0,1-1.066-3.164Zm1.453.172a3.616,3.616,0,0,0,.652,2.258,2.211,2.211,0,0,0,3.5-.012,3.955,3.955,0,0,0,.648-2.418,3.61,3.61,0,0,0-.66-2.254,2.1,2.1,0,0,0-1.754-.863,2.075,2.075,0,0,0-1.727.852A3.925,3.925,0,0,0,119.484,36.867Zm15.406,3.109a2.082,2.082,0,0,0,1.352-.469,1.649,1.649,0,0,0,.641-1.172h1.367a2.621,2.621,0,0,1-.5,1.383,3.293,3.293,0,0,1-1.23,1.047,3.55,3.55,0,0,1-1.629.391A3.482,3.482,0,0,1,132.145,40a4.59,4.59,0,0,1-1.02-3.152v-.242a5.089,5.089,0,0,1,.453-2.2,3.451,3.451,0,0,1,1.3-1.492,3.7,3.7,0,0,1,2-.531,3.39,3.39,0,0,1,2.363.852,3.043,3.043,0,0,1,1,2.211h-1.367a1.992,1.992,0,0,0-.621-1.348,1.932,1.932,0,0,0-1.379-.527,2.023,2.023,0,0,0-1.707.793,3.724,3.724,0,0,0-.605,2.293v.273a3.65,3.65,0,0,0,.6,2.25A2.033,2.033,0,0,0,134.891,39.977ZM145.094,41a3.036,3.036,0,0,1-.2-.891,3.225,3.225,0,0,1-2.406,1.047,2.984,2.984,0,0,1-2.051-.707,2.287,2.287,0,0,1-.8-1.793,2.39,2.39,0,0,1,1-2.051,4.733,4.733,0,0,1,2.824-.73h1.406v-.664A1.623,1.623,0,0,0,144.414,34a1.821,1.821,0,0,0-1.336-.449,2.107,2.107,0,0,0-1.3.391,1.151,1.151,0,0,0-.523.945H139.8a2,2,0,0,1,.449-1.223,3.066,3.066,0,0,1,1.219-.934,4.1,4.1,0,0,1,1.691-.344,3.342,3.342,0,0,1,2.289.73,2.635,2.635,0,0,1,.859,2.012v3.891a4.757,4.757,0,0,0,.3,1.852V41Zm-2.4-1.1a2.54,2.54,0,0,0,1.289-.352,2.127,2.127,0,0,0,.883-.914V36.9h-1.133q-2.656,0-2.656,1.555a1.316,1.316,0,0,0,.453,1.063A1.742,1.742,0,0,0,142.7,39.9Zm9.969-6.055a4.331,4.331,0,0,0-.711-.055A1.9,1.9,0,0,0,150.023,35v6h-1.445V32.547h1.406l.023.977a2.251,2.251,0,0,1,2.016-1.133,1.477,1.477,0,0,1,.641.109Zm3.68-3.344v2.047h1.578v1.117h-1.578v5.242a1.171,1.171,0,0,0,.211.762.888.888,0,0,0,.719.254,3.5,3.5,0,0,0,.688-.094V41a4.19,4.19,0,0,1-1.109.156,1.8,1.8,0,0,1-1.461-.586,2.517,2.517,0,0,1-.492-1.664V33.664h-1.539V32.547H154.9V30.5Zm6.773,10.656a3.693,3.693,0,0,1-2.8-1.129,4.19,4.19,0,0,1-1.078-3.02v-.266a5.073,5.073,0,0,1,.48-2.246,3.748,3.748,0,0,1,1.344-1.547,3.378,3.378,0,0,1,1.871-.559,3.166,3.166,0,0,1,2.563,1.086,4.7,4.7,0,0,1,.914,3.109v.6h-5.727a3,3,0,0,0,.73,2.02,2.3,2.3,0,0,0,1.777.77,2.517,2.517,0,0,0,1.3-.312,3.258,3.258,0,0,0,.93-.828l.883.688A3.55,3.55,0,0,1,163.117,41.156Zm-.18-7.578a1.928,1.928,0,0,0-1.469.637A3.1,3.1,0,0,0,160.734,36h4.234v-.109a2.753,2.753,0,0,0-.594-1.707A1.815,1.815,0,0,0,162.938,33.578Zm10.07,5.18a1.064,1.064,0,0,0-.441-.91,4.249,4.249,0,0,0-1.539-.559,7.277,7.277,0,0,1-1.742-.562,2.479,2.479,0,0,1-.953-.781,1.869,1.869,0,0,1-.309-1.078,2.193,2.193,0,0,1,.879-1.758,3.432,3.432,0,0,1,2.246-.719,3.532,3.532,0,0,1,2.332.742,2.357,2.357,0,0,1,.895,1.9h-1.453a1.3,1.3,0,0,0-.5-1.023,1.888,1.888,0,0,0-1.27-.43,1.976,1.976,0,0,0-1.234.344,1.082,1.082,0,0,0-.445.9.877.877,0,0,0,.414.789,5.1,5.1,0,0,0,1.5.508,7.8,7.8,0,0,1,1.754.578,2.558,2.558,0,0,1,1,.809,1.988,1.988,0,0,1,.324,1.152,2.163,2.163,0,0,1-.906,1.816,3.8,3.8,0,0,1-2.352.684,4.257,4.257,0,0,1-1.8-.359,2.922,2.922,0,0,1-1.223-1,2.42,2.42,0,0,1-.441-1.395h1.445a1.5,1.5,0,0,0,.582,1.152,2.258,2.258,0,0,0,1.434.426,2.331,2.331,0,0,0,1.316-.332A1.02,1.02,0,0,0,173.008,38.758Zm4.9,2.242h-1.445V32.547h1.445Zm-1.562-10.7a.863.863,0,0,1,.215-.594.807.807,0,0,1,.637-.242.819.819,0,0,1,.641.242.854.854,0,0,1,.219.594.826.826,0,0,1-.219.586.834.834,0,0,1-.641.234.821.821,0,0,1-.637-.234A.834.834,0,0,1,176.344,30.3ZM185.438,41a3.036,3.036,0,0,1-.2-.891,3.225,3.225,0,0,1-2.406,1.047,2.984,2.984,0,0,1-2.051-.707,2.287,2.287,0,0,1-.8-1.793,2.39,2.39,0,0,1,1-2.051,4.733,4.733,0,0,1,2.824-.73h1.406v-.664A1.623,1.623,0,0,0,184.758,34a1.821,1.821,0,0,0-1.336-.449,2.107,2.107,0,0,0-1.3.391,1.151,1.151,0,0,0-.523.945h-1.453a2,2,0,0,1,.449-1.223,3.066,3.066,0,0,1,1.219-.934,4.1,4.1,0,0,1,1.691-.344,3.342,3.342,0,0,1,2.289.73,2.635,2.635,0,0,1,.859,2.012v3.891a4.757,4.757,0,0,0,.3,1.852V41Zm-2.4-1.1a2.54,2.54,0,0,0,1.289-.352,2.127,2.127,0,0,0,.883-.914V36.9h-1.133q-2.656,0-2.656,1.555a1.316,1.316,0,0,0,.453,1.063A1.742,1.742,0,0,0,183.039,39.9Zm7.25-7.352.047,1.063a3.08,3.08,0,0,1,2.531-1.219q2.68,0,2.7,3.023V41h-1.445V35.406a1.946,1.946,0,0,0-.418-1.352,1.675,1.675,0,0,0-1.277-.437,2.086,2.086,0,0,0-1.234.375,2.546,2.546,0,0,0-.828.984V41h-1.445V32.547Zm7.078,4.148a4.993,4.993,0,0,1,.488-2.234,3.642,3.642,0,0,1,1.359-1.531,3.7,3.7,0,0,1,1.988-.539,3.565,3.565,0,0,1,2.793,1.2,4.6,4.6,0,0,1,1.066,3.18v.1a5.036,5.036,0,0,1-.473,2.215,3.589,3.589,0,0,1-1.352,1.527,3.743,3.743,0,0,1-2.02.547,3.556,3.556,0,0,1-2.785-1.2,4.575,4.575,0,0,1-1.066-3.164Zm1.453.172a3.616,3.616,0,0,0,.652,2.258,2.211,2.211,0,0,0,3.5-.012,3.954,3.954,0,0,0,.648-2.418,3.61,3.61,0,0,0-.66-2.254,2.1,2.1,0,0,0-1.754-.863,2.075,2.075,0,0,0-1.727.852A3.925,3.925,0,0,0,198.82,36.867ZM213.6,38.883l1.969-6.336h1.547l-3.4,9.758q-.789,2.109-2.508,2.109l-.273-.023-.539-.1V43.117l.391.031a1.923,1.923,0,0,0,1.145-.3,2.148,2.148,0,0,0,.676-1.086l.32-.859-3.016-8.359h1.578Zm13.688-.125a1.064,1.064,0,0,0-.441-.91,4.249,4.249,0,0,0-1.539-.559,7.277,7.277,0,0,1-1.742-.562,2.479,2.479,0,0,1-.953-.781,1.869,1.869,0,0,1-.309-1.078,2.193,2.193,0,0,1,.879-1.758,3.432,3.432,0,0,1,2.246-.719,3.532,3.532,0,0,1,2.332.742,2.357,2.357,0,0,1,.895,1.9H227.2a1.3,1.3,0,0,0-.5-1.023,1.888,1.888,0,0,0-1.27-.43,1.976,1.976,0,0,0-1.234.344,1.082,1.082,0,0,0-.445.9.877.877,0,0,0,.414.789,5.1,5.1,0,0,0,1.5.508,7.8,7.8,0,0,1,1.754.578,2.558,2.558,0,0,1,1,.809,1.988,1.988,0,0,1,.324,1.152,2.163,2.163,0,0,1-.906,1.816,3.8,3.8,0,0,1-2.352.684,4.257,4.257,0,0,1-1.8-.359,2.922,2.922,0,0,1-1.223-1,2.42,2.42,0,0,1-.441-1.395h1.445a1.5,1.5,0,0,0,.582,1.152,2.258,2.258,0,0,0,1.434.426,2.331,2.331,0,0,0,1.316-.332A1.02,1.02,0,0,0,227.289,38.758Zm2.945-2.062a4.993,4.993,0,0,1,.488-2.234,3.642,3.642,0,0,1,1.359-1.531,3.7,3.7,0,0,1,1.988-.539,3.565,3.565,0,0,1,2.793,1.2,4.6,4.6,0,0,1,1.066,3.18v.1a5.036,5.036,0,0,1-.473,2.215,3.589,3.589,0,0,1-1.352,1.527,3.743,3.743,0,0,1-2.02.547,3.556,3.556,0,0,1-2.785-1.2,4.575,4.575,0,0,1-1.066-3.164Zm1.453.172a3.616,3.616,0,0,0,.652,2.258,2.211,2.211,0,0,0,3.5-.012,3.954,3.954,0,0,0,.648-2.418,3.61,3.61,0,0,0-.66-2.254,2.1,2.1,0,0,0-1.754-.863,2.075,2.075,0,0,0-1.727.852A3.925,3.925,0,0,0,231.688,36.867Zm15.211,0a5.026,5.026,0,0,1-.891,3.113,2.846,2.846,0,0,1-2.391,1.176,2.947,2.947,0,0,1-2.477-1.133l-.07.977h-1.328V29h1.445v4.477a2.93,2.93,0,0,1,2.414-1.086,2.863,2.863,0,0,1,2.418,1.164,5.177,5.177,0,0,1,.879,3.188Zm-1.445-.164a3.906,3.906,0,0,0-.57-2.281,1.888,1.888,0,0,0-1.641-.8,2.122,2.122,0,0,0-2.055,1.328V38.6a2.181,2.181,0,0,0,2.07,1.328,1.878,1.878,0,0,0,1.617-.8A4.153,4.153,0,0,0,245.453,36.7Zm7.352-2.859a4.331,4.331,0,0,0-.711-.055A1.9,1.9,0,0,0,250.164,35v6h-1.445V32.547h1.406l.023.977a2.251,2.251,0,0,1,2.016-1.133,1.477,1.477,0,0,1,.641.109Zm4.836,7.313a3.693,3.693,0,0,1-2.8-1.129,4.19,4.19,0,0,1-1.078-3.02v-.266a5.073,5.073,0,0,1,.48-2.246,3.748,3.748,0,0,1,1.344-1.547,3.379,3.379,0,0,1,1.871-.559,3.166,3.166,0,0,1,2.563,1.086,4.7,4.7,0,0,1,.914,3.109v.6h-5.727a3,3,0,0,0,.73,2.02,2.3,2.3,0,0,0,1.777.77,2.517,2.517,0,0,0,1.3-.312,3.259,3.259,0,0,0,.93-.828l.883.688A3.55,3.55,0,0,1,257.641,41.156Zm-.18-7.578a1.928,1.928,0,0,0-1.469.637A3.1,3.1,0,0,0,255.258,36h4.234v-.109a2.753,2.753,0,0,0-.594-1.707A1.815,1.815,0,0,0,257.461,33.578Zm12.617,7.578a3.693,3.693,0,0,1-2.8-1.129,4.19,4.19,0,0,1-1.078-3.02v-.266a5.073,5.073,0,0,1,.48-2.246,3.748,3.748,0,0,1,1.344-1.547,3.379,3.379,0,0,1,1.871-.559,3.166,3.166,0,0,1,2.563,1.086,4.7,4.7,0,0,1,.914,3.109v.6h-5.727a3,3,0,0,0,.73,2.02,2.3,2.3,0,0,0,1.777.77,2.517,2.517,0,0,0,1.3-.312,3.259,3.259,0,0,0,.93-.828l.883.688A3.55,3.55,0,0,1,270.078,41.156Zm-.18-7.578a1.928,1.928,0,0,0-1.469.637A3.1,3.1,0,0,0,267.7,36h4.234v-.109a2.753,2.753,0,0,0-.594-1.707A1.815,1.815,0,0,0,269.9,33.578ZM270.6,29h1.75l-2.094,2.3h-1.164Zm6.016,12h-1.445V29h1.445Zm7.844,0h-1.445V29h1.445Zm1.93-4.3a4.993,4.993,0,0,1,.488-2.234,3.643,3.643,0,0,1,1.359-1.531,3.7,3.7,0,0,1,1.988-.539,3.565,3.565,0,0,1,2.793,1.2,4.6,4.6,0,0,1,1.066,3.18v.1a5.036,5.036,0,0,1-.473,2.215,3.589,3.589,0,0,1-1.352,1.527,3.743,3.743,0,0,1-2.02.547,3.556,3.556,0,0,1-2.785-1.2,4.575,4.575,0,0,1-1.066-3.164Zm1.453.172a3.616,3.616,0,0,0,.652,2.258,2.211,2.211,0,0,0,3.5-.012,3.955,3.955,0,0,0,.648-2.418,3.61,3.61,0,0,0-.66-2.254,2.1,2.1,0,0,0-1.754-.863,2.075,2.075,0,0,0-1.727.852A3.925,3.925,0,0,0,287.844,36.867Zm12.977,1.891a1.064,1.064,0,0,0-.441-.91,4.249,4.249,0,0,0-1.539-.559,7.276,7.276,0,0,1-1.742-.562,2.478,2.478,0,0,1-.953-.781,1.869,1.869,0,0,1-.309-1.078,2.193,2.193,0,0,1,.879-1.758,3.432,3.432,0,0,1,2.246-.719,3.532,3.532,0,0,1,2.332.742,2.357,2.357,0,0,1,.895,1.9h-1.453a1.3,1.3,0,0,0-.5-1.023,1.888,1.888,0,0,0-1.27-.43,1.976,1.976,0,0,0-1.234.344,1.082,1.082,0,0,0-.445.9.877.877,0,0,0,.414.789,5.1,5.1,0,0,0,1.5.508,7.8,7.8,0,0,1,1.754.578,2.559,2.559,0,0,1,1,.809,1.988,1.988,0,0,1,.324,1.152,2.163,2.163,0,0,1-.906,1.816,3.8,3.8,0,0,1-2.352.684,4.257,4.257,0,0,1-1.8-.359,2.922,2.922,0,0,1-1.223-1,2.42,2.42,0,0,1-.441-1.395h1.445a1.5,1.5,0,0,0,.582,1.152,2.258,2.258,0,0,0,1.434.426,2.331,2.331,0,0,0,1.316-.332A1.02,1.02,0,0,0,300.82,38.758ZM309.68,41h-1.445V32.547h1.445Zm-1.562-10.7a.863.863,0,0,1,.215-.594.807.807,0,0,1,.637-.242.819.819,0,0,1,.641.242.854.854,0,0,1,.219.594.826.826,0,0,1-.219.586.834.834,0,0,1-.641.234.821.821,0,0,1-.637-.234A.834.834,0,0,1,308.117,30.3Zm5.242,2.242.047,1.063a3.08,3.08,0,0,1,2.531-1.219q2.68,0,2.7,3.023V41H317.2V35.406a1.946,1.946,0,0,0-.418-1.352,1.675,1.675,0,0,0-1.277-.437,2.086,2.086,0,0,0-1.234.375,2.546,2.546,0,0,0-.828.984V41h-1.445V32.547Zm10.852,7.43a2.082,2.082,0,0,0,1.352-.469,1.649,1.649,0,0,0,.641-1.172h1.367a2.621,2.621,0,0,1-.5,1.383,3.293,3.293,0,0,1-1.23,1.047,3.55,3.55,0,0,1-1.629.391A3.482,3.482,0,0,1,321.465,40a4.59,4.59,0,0,1-1.02-3.152v-.242a5.089,5.089,0,0,1,.453-2.2,3.451,3.451,0,0,1,1.3-1.492,3.7,3.7,0,0,1,2-.531,3.39,3.39,0,0,1,2.363.852,3.043,3.043,0,0,1,1,2.211H326.2a1.992,1.992,0,0,0-.621-1.348,1.932,1.932,0,0,0-1.379-.527,2.023,2.023,0,0,0-1.707.793,3.724,3.724,0,0,0-.605,2.293v.273a3.65,3.65,0,0,0,.6,2.25A2.033,2.033,0,0,0,324.211,39.977Zm9.07-6.133a4.331,4.331,0,0,0-.711-.055A1.9,1.9,0,0,0,330.641,35v6H329.2V32.547H330.6l.023.977a2.251,2.251,0,0,1,2.016-1.133,1.477,1.477,0,0,1,.641.109Zm4.836,7.313a3.693,3.693,0,0,1-2.8-1.129,4.19,4.19,0,0,1-1.078-3.02v-.266a5.073,5.073,0,0,1,.48-2.246,3.748,3.748,0,0,1,1.344-1.547,3.379,3.379,0,0,1,1.871-.559,3.166,3.166,0,0,1,2.563,1.086,4.7,4.7,0,0,1,.914,3.109v.6h-5.727a3,3,0,0,0,.73,2.02,2.3,2.3,0,0,0,1.777.77,2.517,2.517,0,0,0,1.3-.312,3.259,3.259,0,0,0,.93-.828l.883.688A3.55,3.55,0,0,1,338.117,41.156Zm-.18-7.578a1.928,1.928,0,0,0-1.469.637A3.1,3.1,0,0,0,335.734,36h4.234v-.109a2.753,2.753,0,0,0-.594-1.707A1.815,1.815,0,0,0,337.938,33.578Zm6.508-1.031.039.938a3.122,3.122,0,0,1,2.508-1.094,2.417,2.417,0,0,1,2.414,1.359,3.2,3.2,0,0,1,1.1-.984,3.242,3.242,0,0,1,1.6-.375q2.781,0,2.828,2.945V41h-1.445V35.422a1.941,1.941,0,0,0-.414-1.355,1.823,1.823,0,0,0-1.391-.449,1.916,1.916,0,0,0-1.336.48,1.949,1.949,0,0,0-.617,1.293V41h-1.453V35.461a1.613,1.613,0,0,0-1.8-1.844,1.934,1.934,0,0,0-1.945,1.211V41h-1.445V32.547Zm16.172,8.609a3.693,3.693,0,0,1-2.8-1.129,4.19,4.19,0,0,1-1.078-3.02v-.266a5.073,5.073,0,0,1,.48-2.246,3.748,3.748,0,0,1,1.344-1.547,3.379,3.379,0,0,1,1.871-.559A3.166,3.166,0,0,1,363,33.477a4.7,4.7,0,0,1,.914,3.109v.6h-5.727a3,3,0,0,0,.73,2.02,2.3,2.3,0,0,0,1.777.77,2.517,2.517,0,0,0,1.3-.312,3.259,3.259,0,0,0,.93-.828l.883.688A3.55,3.55,0,0,1,360.617,41.156Zm-.18-7.578a1.928,1.928,0,0,0-1.469.637A3.1,3.1,0,0,0,358.234,36h4.234v-.109a2.753,2.753,0,0,0-.594-1.707A1.815,1.815,0,0,0,360.438,33.578Zm6.516-1.031L367,33.609a3.08,3.08,0,0,1,2.531-1.219q2.68,0,2.7,3.023V41h-1.445V35.406a1.946,1.946,0,0,0-.418-1.352,1.675,1.675,0,0,0-1.277-.437,2.086,2.086,0,0,0-1.234.375,2.546,2.546,0,0,0-.828.984V41h-1.445V32.547Zm9.422-2.047v2.047h1.578v1.117h-1.578v5.242a1.171,1.171,0,0,0,.211.762.888.888,0,0,0,.719.254,3.5,3.5,0,0,0,.688-.094V41a4.19,4.19,0,0,1-1.109.156,1.8,1.8,0,0,1-1.461-.586,2.517,2.517,0,0,1-.492-1.664V33.664h-1.539V32.547h1.539V30.5Zm2.727,6.2a4.993,4.993,0,0,1,.488-2.234,3.643,3.643,0,0,1,1.359-1.531,3.7,3.7,0,0,1,1.988-.539,3.565,3.565,0,0,1,2.793,1.2,4.6,4.6,0,0,1,1.066,3.18v.1a5.036,5.036,0,0,1-.473,2.215,3.589,3.589,0,0,1-1.352,1.527,3.743,3.743,0,0,1-2.02.547,3.556,3.556,0,0,1-2.785-1.2A4.575,4.575,0,0,1,379.1,36.8Zm1.453.172a3.616,3.616,0,0,0,.652,2.258,2.211,2.211,0,0,0,3.5-.012,3.955,3.955,0,0,0,.648-2.418,3.61,3.61,0,0,0-.66-2.254,2.1,2.1,0,0,0-1.754-.863,2.075,2.075,0,0,0-1.727.852A3.925,3.925,0,0,0,380.555,36.867Zm12.977,1.891a1.064,1.064,0,0,0-.441-.91,4.249,4.249,0,0,0-1.539-.559,7.276,7.276,0,0,1-1.742-.562,2.478,2.478,0,0,1-.953-.781,1.869,1.869,0,0,1-.309-1.078,2.193,2.193,0,0,1,.879-1.758,3.432,3.432,0,0,1,2.246-.719,3.532,3.532,0,0,1,2.332.742,2.357,2.357,0,0,1,.895,1.9h-1.453a1.3,1.3,0,0,0-.5-1.023,1.888,1.888,0,0,0-1.27-.43,1.976,1.976,0,0,0-1.234.344,1.082,1.082,0,0,0-.445.9.877.877,0,0,0,.414.789,5.1,5.1,0,0,0,1.5.508,7.8,7.8,0,0,1,1.754.578,2.559,2.559,0,0,1,1,.809,1.988,1.988,0,0,1,.324,1.152,2.163,2.163,0,0,1-.906,1.816,3.8,3.8,0,0,1-2.352.684,4.257,4.257,0,0,1-1.8-.359,2.922,2.922,0,0,1-1.223-1,2.42,2.42,0,0,1-.441-1.395H389.7a1.5,1.5,0,0,0,.582,1.152,2.258,2.258,0,0,0,1.434.426,2.331,2.331,0,0,0,1.316-.332A1.02,1.02,0,0,0,393.531,38.758Zm10.055.125,1.969-6.336H407.1L403.7,42.3q-.789,2.109-2.508,2.109l-.273-.023-.539-.1V43.117l.391.031a1.923,1.923,0,0,0,1.145-.3,2.149,2.149,0,0,0,.676-1.086l.32-.859L399.9,32.547h1.578ZM412,36.7a4.952,4.952,0,0,1,.922-3.129,3.137,3.137,0,0,1,4.766-.168V29h1.445V41H417.8l-.07-.906a2.943,2.943,0,0,1-2.414,1.063,2.887,2.887,0,0,1-2.395-1.2A5.008,5.008,0,0,1,412,36.813Zm1.445.164a3.749,3.749,0,0,0,.594,2.25,1.92,1.92,0,0,0,1.641.813,2.109,2.109,0,0,0,2.008-1.234V34.813a2.125,2.125,0,0,0-1.992-1.2,1.929,1.929,0,0,0-1.656.82A4.128,4.128,0,0,0,413.445,36.867Zm9.5,4.133H421.5V32.547h1.445Zm-1.562-10.7a.863.863,0,0,1,.215-.594.807.807,0,0,1,.637-.242.819.819,0,0,1,.641.242.854.854,0,0,1,.219.594.826.826,0,0,1-.219.586.834.834,0,0,1-.641.234.821.821,0,0,1-.637-.234A.834.834,0,0,1,421.383,30.3Zm8.8,8.453a1.064,1.064,0,0,0-.441-.91,4.249,4.249,0,0,0-1.539-.559,7.276,7.276,0,0,1-1.742-.562,2.478,2.478,0,0,1-.953-.781,1.869,1.869,0,0,1-.309-1.078,2.193,2.193,0,0,1,.879-1.758,3.432,3.432,0,0,1,2.246-.719,3.532,3.532,0,0,1,2.332.742,2.357,2.357,0,0,1,.895,1.9h-1.453a1.3,1.3,0,0,0-.5-1.023,1.888,1.888,0,0,0-1.27-.43,1.976,1.976,0,0,0-1.234.344,1.082,1.082,0,0,0-.445.9.877.877,0,0,0,.414.789,5.1,5.1,0,0,0,1.5.508,7.8,7.8,0,0,1,1.754.578,2.559,2.559,0,0,1,1,.809,1.988,1.988,0,0,1,.324,1.152,2.163,2.163,0,0,1-.906,1.816,3.8,3.8,0,0,1-2.352.684,4.257,4.257,0,0,1-1.8-.359,2.922,2.922,0,0,1-1.223-1,2.42,2.42,0,0,1-.441-1.395h1.445a1.5,1.5,0,0,0,.582,1.152,2.258,2.258,0,0,0,1.434.426,2.331,2.331,0,0,0,1.316-.332A1.02,1.02,0,0,0,430.18,38.758Zm4.688-6.211.039.938a3.122,3.122,0,0,1,2.508-1.094,2.417,2.417,0,0,1,2.414,1.359,3.2,3.2,0,0,1,1.1-.984,3.242,3.242,0,0,1,1.6-.375q2.781,0,2.828,2.945V41h-1.445V35.422a1.941,1.941,0,0,0-.414-1.355,1.823,1.823,0,0,0-1.391-.449,1.916,1.916,0,0,0-1.336.48,1.949,1.949,0,0,0-.617,1.293V41H438.7V35.461a1.613,1.613,0,0,0-1.8-1.844,1.934,1.934,0,0,0-1.945,1.211V41H433.5V32.547ZM449.1,41h-1.445V32.547H449.1Zm-1.562-10.7a.863.863,0,0,1,.215-.594.807.807,0,0,1,.637-.242.819.819,0,0,1,.641.242.854.854,0,0,1,.219.594.826.826,0,0,1-.219.586.834.834,0,0,1-.641.234.821.821,0,0,1-.637-.234A.834.834,0,0,1,447.539,30.3Zm5.242,2.242.047,1.063a3.08,3.08,0,0,1,2.531-1.219q2.68,0,2.7,3.023V41h-1.445V35.406a1.946,1.946,0,0,0-.418-1.352,1.675,1.675,0,0,0-1.277-.437,2.086,2.086,0,0,0-1.234.375,2.546,2.546,0,0,0-.828.984V41h-1.445V32.547Zm12.68,7.617a3.07,3.07,0,0,1-2.477.992,2.628,2.628,0,0,1-2.059-.785,3.4,3.4,0,0,1-.715-2.324v-5.5h1.445v5.461q0,1.922,1.563,1.922a2.163,2.163,0,0,0,2.2-1.234V32.547h1.445V41h-1.375Zm6.992-.187a2.082,2.082,0,0,0,1.352-.469,1.649,1.649,0,0,0,.641-1.172h1.367a2.621,2.621,0,0,1-.5,1.383,3.293,3.293,0,0,1-1.23,1.047,3.55,3.55,0,0,1-1.629.391A3.482,3.482,0,0,1,469.707,40a4.59,4.59,0,0,1-1.02-3.152v-.242a5.089,5.089,0,0,1,.453-2.2,3.451,3.451,0,0,1,1.3-1.492,3.7,3.7,0,0,1,2-.531,3.39,3.39,0,0,1,2.363.852,3.043,3.043,0,0,1,1,2.211h-1.367a1.992,1.992,0,0,0-.621-1.348,1.932,1.932,0,0,0-1.379-.527,2.023,2.023,0,0,0-1.707.793,3.724,3.724,0,0,0-.605,2.293v.273a3.65,3.65,0,0,0,.6,2.25A2.033,2.033,0,0,0,472.453,39.977ZM479.008,41h-1.445V32.547h1.445Zm-1.562-10.7a.863.863,0,0,1,.215-.594.807.807,0,0,1,.637-.242.819.819,0,0,1,.641.242.854.854,0,0,1,.219.594.826.826,0,0,1-.219.586.834.834,0,0,1-.641.234.821.821,0,0,1-.637-.234A.834.834,0,0,1,477.445,30.3Zm3.492,6.391a4.993,4.993,0,0,1,.488-2.234,3.643,3.643,0,0,1,1.359-1.531,3.7,3.7,0,0,1,1.988-.539,3.565,3.565,0,0,1,2.793,1.2,4.6,4.6,0,0,1,1.066,3.18v.1a5.036,5.036,0,0,1-.473,2.215,3.589,3.589,0,0,1-1.352,1.527,3.743,3.743,0,0,1-2.02.547,3.556,3.556,0,0,1-2.785-1.2,4.575,4.575,0,0,1-1.066-3.164Zm1.453.172a3.616,3.616,0,0,0,.652,2.258,2.211,2.211,0,0,0,3.5-.012,3.955,3.955,0,0,0,.648-2.418,3.61,3.61,0,0,0-.66-2.254,2.1,2.1,0,0,0-1.754-.863,2.075,2.075,0,0,0-1.727.852A3.925,3.925,0,0,0,482.391,36.867Zm9.422-4.32.047,1.063a3.08,3.08,0,0,1,2.531-1.219q2.68,0,2.7,3.023V41h-1.445V35.406a1.946,1.946,0,0,0-.418-1.352,1.675,1.675,0,0,0-1.277-.437,2.086,2.086,0,0,0-1.234.375,2.546,2.546,0,0,0-.828.984V41h-1.445V32.547Zm10.969,8.609a3.693,3.693,0,0,1-2.8-1.129,4.19,4.19,0,0,1-1.078-3.02v-.266a5.073,5.073,0,0,1,.48-2.246,3.748,3.748,0,0,1,1.344-1.547,3.379,3.379,0,0,1,1.871-.559,3.166,3.166,0,0,1,2.563,1.086,4.7,4.7,0,0,1,.914,3.109v.6h-5.727a3,3,0,0,0,.73,2.02,2.3,2.3,0,0,0,1.777.77,2.517,2.517,0,0,0,1.3-.312,3.259,3.259,0,0,0,.93-.828l.883.688A3.55,3.55,0,0,1,502.781,41.156Zm-.18-7.578a1.928,1.928,0,0,0-1.469.637A3.1,3.1,0,0,0,500.4,36h4.234v-.109a2.753,2.753,0,0,0-.594-1.707A1.815,1.815,0,0,0,502.6,33.578Zm10.07,5.18a1.064,1.064,0,0,0-.441-.91,4.249,4.249,0,0,0-1.539-.559,7.276,7.276,0,0,1-1.742-.562,2.478,2.478,0,0,1-.953-.781,1.869,1.869,0,0,1-.309-1.078,2.193,2.193,0,0,1,.879-1.758,3.432,3.432,0,0,1,2.246-.719,3.532,3.532,0,0,1,2.332.742,2.357,2.357,0,0,1,.895,1.9h-1.453a1.3,1.3,0,0,0-.5-1.023,1.888,1.888,0,0,0-1.27-.43,1.976,1.976,0,0,0-1.234.344,1.082,1.082,0,0,0-.445.9.877.877,0,0,0,.414.789,5.1,5.1,0,0,0,1.5.508,7.8,7.8,0,0,1,1.754.578,2.558,2.558,0,0,1,1,.809,1.988,1.988,0,0,1,.324,1.152,2.163,2.163,0,0,1-.906,1.816,3.8,3.8,0,0,1-2.352.684,4.257,4.257,0,0,1-1.8-.359,2.922,2.922,0,0,1-1.223-1A2.42,2.42,0,0,1,507.4,38.4h1.445a1.5,1.5,0,0,0,.582,1.152,2.258,2.258,0,0,0,1.434.426,2.331,2.331,0,0,0,1.316-.332A1.02,1.02,0,0,0,512.672,38.758Zm3.359,1.484a.905.905,0,0,1,.223-.625.848.848,0,0,1,.668-.25.874.874,0,0,1,.676.25.887.887,0,0,1,.23.625.839.839,0,0,1-.23.6.89.89,0,0,1-.676.242.8.8,0,0,1-.891-.844Z" transform="translate(853 19735)" fill="#12263f"/><g transform="translate(810 19698)" fill="none" stroke="#bf3976" stroke-width="1"><rect width="610" height="920" stroke="none"/><rect x="0.5" y="0.5" width="609" height="919" fill="none"/></g><g transform="translate(186.668 17058.072)"><g transform="translate(717.412 2972.765)"><path d="M737.749,2955.432h71.857s27.638,29.934,18.885,114.672l-9.213,107.764-5.527,162.568-.461,13.355H731.3v-156.12s-1.843-107.763-18.886-145.988c0,0,22.11-1.843,24.874-35.921Z" transform="translate(-711.186 -2954.604)" fill="#fff"/><path d="M814.24,3354.719H730.622V3197.772c-.018-1.062-2.035-108.018-18.815-145.65l-.472-1.062,1.16-.1c.874-.074,21.447-2.243,24.119-35.164l.464-61.09h73.038l.246.266c.28.3,27.791,31.183,19.1,115.319l-9.211,107.75Zm-81.963-1.655H812.64l5.96-175.122,9.215-107.81c8.181-79.2-15.82-110.612-18.441-113.773H738.72l-.454,59.508c-2.432,30.005-19.908,35.6-24.52,36.556,16.523,38.771,18.513,144.263,18.532,145.333Z" transform="translate(-711.335 -2954.705)"/></g><g transform="translate(959.632 2960.244)"><path d="M987.892,2944.506l76.925,10.131-5.067,69.541-4.607,53.421-8.291,76.448-3.685,64.935-3.685,136.318h-91.2V3195.034s-5.067-108.225-22.571-140c0,0,37.312,12.9,51.13-71.842Z" transform="translate(-923.952 -2943.593)" fill="#fff"/><path d="M1040.5,3356.238H947.665V3195.146c-.05-1.043-5.259-108.357-22.468-139.6l-1.032-1.873,2.025.692c.085.028,8.383,2.752,18.364-3.235,10.416-6.246,24.365-23.105,31.681-67.958l11.271-39.465.708.091,77.7,10.233-5.125,70.32-4.608,53.432-8.291,76.466-3.683,64.893Zm-91.181-1.655h89.572l3.661-135.513,3.687-64.959,8.294-76.49,4.606-53.4,5.009-68.75-75.443-9.938-10.858,38c-7.407,45.444-21.763,62.643-32.5,69.052-7.888,4.71-14.7,4.349-17.85,3.79,16.711,33.38,21.616,134.382,21.82,138.735Z" transform="translate(-924.165 -2943.704)"/></g><path d="M1011.933,2974.885a.634.634,0,0,1-.083,0,.827.827,0,0,1-.743-.764l-1.812-25.543a.837.837,0,0,1,.257-.66.824.824,0,0,1,.673-.22l8.526,1.08a.829.829,0,0,1,.572.342.82.82,0,0,1,.132.652l-.323,1.5c0,.015-.007.031-.011.046l-6.39,22.969A.827.827,0,0,1,1011.933,2974.885Zm-.915-25.423,1.4,19.761,5.23-18.921Z" transform="translate(47.223 17.091)"/><g transform="translate(788.887 3149.862)"><path d="M781.846,3110.313a14.53,14.53,0,0,1,.159,2.122,4.4,4.4,0,0,1-.958,3.115,3.509,3.509,0,0,1-2.762,1.1,4.114,4.114,0,0,1-2.99-1.107,4.785,4.785,0,0,1-1.106-3.411,14.152,14.152,0,0,1,.09-1.815Zm-6.814,1a6.487,6.487,0,0,0-.045,1,2.952,2.952,0,0,0,3.264,3.275c1.815.012,2.967-1.016,2.967-3.115a5.753,5.753,0,0,0-.1-1.165Z" transform="translate(-774.131 -3110.313)"/><path d="M776.841,3117.629a1.757,1.757,0,0,0-1.905,1.883,3.593,3.593,0,0,0,.285,1.528l-.719.182a4.508,4.508,0,0,1-.354-1.848,2.578,2.578,0,0,1,2.786-2.717,2.69,2.69,0,0,1,2.978,2.6,2.33,2.33,0,0,1-2.6,2.27,2.474,2.474,0,0,1-.469-.033Zm.719,2.933a1.429,1.429,0,0,0,1.632-1.382,1.656,1.656,0,0,0-1.632-1.541Z" transform="translate(-774.137 -3109.436)"/><path d="M782.35,3122.031v1h-8.1v-1Z" transform="translate(-774.123 -3108.695)"/><path d="M775.587,3128.341a9.544,9.544,0,0,0-1.324.078v-.9l.7-.09v-.035a2.038,2.038,0,0,1-.822-1.69,1.574,1.574,0,0,1,1.586-1.689c1.335,0,2.065,1.189,2.053,3.322h.115a1.135,1.135,0,0,0,1.278-1.255,2.669,2.669,0,0,0-.41-1.45l.672-.228a3.561,3.561,0,0,1,.48,1.825c0,1.7-1.152,2.112-2.259,2.112Zm1.5-.982c.024-1.1-.172-2.339-1.243-2.339a.881.881,0,0,0-.961.936,1.4,1.4,0,0,0,.924,1.358,1.022,1.022,0,0,0,.321.045Z" transform="translate(-774.138 -3108.421)"/><path d="M778.277,3129.234c.582,0,1.039-.011,1.494-.048v.891l-.9.057v.025a2.042,2.042,0,0,1,1.028,1.825c0,.764-.457,1.95-2.351,1.95h-3.3v-1h3.183c.891,0,1.643-.331,1.643-1.278a1.448,1.448,0,0,0-1.025-1.347,1.494,1.494,0,0,0-.469-.068h-3.332v-1Z" transform="translate(-774.123 -3107.706)"/><path d="M781.111,3136.036h-1.326v1.438h-.764v-1.438h-2.967c-.685,0-1.073.194-1.073.753a1.862,1.862,0,0,0,.068.581l-.765.048a2.785,2.785,0,0,1-.138-.892,1.431,1.431,0,0,1,.423-1.084,2.153,2.153,0,0,1,1.45-.387h3v-.857h.764v.857H780.8Z" transform="translate(-774.137 -3107.015)"/><path d="M776.841,3138.628a1.758,1.758,0,0,0-1.905,1.883,3.6,3.6,0,0,0,.285,1.53l-.719.182a4.5,4.5,0,0,1-.354-1.848,2.578,2.578,0,0,1,2.786-2.716,2.69,2.69,0,0,1,2.978,2.6,2.33,2.33,0,0,1-2.6,2.27,2.48,2.48,0,0,1-.469-.034Zm.719,2.932a1.428,1.428,0,0,0,1.632-1.381,1.656,1.656,0,0,0-1.632-1.541Z" transform="translate(-774.137 -3106.537)"/><path d="M778.049,3143.036c.65,0,1.209-.012,1.722-.046v.878l-1.083.045v.035a1.67,1.67,0,0,1,1.21,1.541,2.076,2.076,0,0,1-.023.274h-.947a2.869,2.869,0,0,0,.023-.342,1.407,1.407,0,0,0-1.278-1.348,3.11,3.11,0,0,0-.469-.034h-2.956v-1Z" transform="translate(-774.123 -3105.8)"/><path d="M774.138,3148.505a2.632,2.632,0,0,1,2.842-2.649,2.7,2.7,0,0,1,2.933,2.739,2.611,2.611,0,0,1-2.83,2.659,2.706,2.706,0,0,1-2.944-2.738Zm.752.046c0,.958.9,1.676,2.158,1.676.935,0,2.111-.466,2.111-1.655s-1.095-1.687-2.145-1.687c-1.211,0-2.124.685-2.124,1.655Z" transform="translate(-774.138 -3105.404)"/></g><g transform="translate(1036.586 3152.791)"><path d="M998.739,3115.227v-2.34h.846v5.7h-.846v-2.351h-6.847v-1Z" transform="translate(-991.765 -3112.886)"/><path d="M995.693,3118.166c.649,0,1.209-.014,1.722-.046V3119l-1.083.046v.034a1.672,1.672,0,0,1,1.21,1.541,2.082,2.082,0,0,1-.023.275h-.947a2.927,2.927,0,0,0,.023-.342,1.409,1.409,0,0,0-1.278-1.348,3.05,3.05,0,0,0-.469-.034h-2.956v-1Z" transform="translate(-991.765 -3112.164)"/><path d="M993.231,3125.332a9.421,9.421,0,0,0-1.324.079v-.9l.7-.09v-.034a2.039,2.039,0,0,1-.823-1.69,1.574,1.574,0,0,1,1.588-1.688c1.335,0,2.064,1.188,2.053,3.321h.115a1.134,1.134,0,0,0,1.278-1.255,2.661,2.661,0,0,0-.41-1.448l.671-.23a3.571,3.571,0,0,1,.48,1.826c0,1.7-1.152,2.112-2.259,2.112Zm1.494-.981c.025-1.1-.169-2.34-1.242-2.34a.881.881,0,0,0-.961.935,1.4,1.4,0,0,0,.924,1.358,1.058,1.058,0,0,0,.319.046Z" transform="translate(-991.781 -3111.765)"/><path d="M992.934,3126.128a2.84,2.84,0,0,0-.389,1.335c0,.719.354,1.062.823,1.062s.731-.285,1-1.016c.365-1,.915-1.473,1.565-1.473a1.711,1.711,0,0,1,1.621,1.908,2.561,2.561,0,0,1-.343,1.346l-.719-.24a2.25,2.25,0,0,0,.32-1.129c0-.6-.343-.913-.753-.913-.457,0-.663.317-.947,1.036-.354.95-.834,1.451-1.655,1.451-.984,0-1.668-.765-1.668-2.055a3.164,3.164,0,0,1,.388-1.552Z" transform="translate(-991.78 -3111.091)"/><path d="M994.485,3130.809a1.758,1.758,0,0,0-1.905,1.882,3.6,3.6,0,0,0,.285,1.529l-.719.183a4.507,4.507,0,0,1-.354-1.849,2.578,2.578,0,0,1,2.786-2.717,2.69,2.69,0,0,1,2.978,2.6,2.332,2.332,0,0,1-2.6,2.271,2.471,2.471,0,0,1-.469-.035Zm.719,2.933a1.428,1.428,0,0,0,1.632-1.382,1.656,1.656,0,0,0-1.632-1.54Z" transform="translate(-991.78 -3110.546)"/><path d="M995.693,3135.217c.649,0,1.209-.014,1.722-.048v.88l-1.083.045v.036a1.67,1.67,0,0,1,1.21,1.539,2.075,2.075,0,0,1-.023.274h-.947a2.9,2.9,0,0,0,.023-.343,1.407,1.407,0,0,0-1.278-1.347,3.111,3.111,0,0,0-.469-.035h-2.956v-1Z" transform="translate(-991.765 -3109.81)"/><path d="M991.781,3140.683a2.634,2.634,0,0,1,2.843-2.648,2.7,2.7,0,0,1,2.933,2.739,2.613,2.613,0,0,1-2.832,2.66,2.708,2.708,0,0,1-2.944-2.739Zm.753.046c0,.959.9,1.678,2.158,1.678.935,0,2.111-.468,2.111-1.654s-1.1-1.69-2.145-1.69c-1.211,0-2.124.685-2.124,1.654Z" transform="translate(-991.781 -3109.413)"/></g><g transform="translate(741.544 2953.235)"><rect width="1.655" height="33.586" transform="translate(1.977 1.891)" fill="red"/><g transform="translate(0)"><path d="M738.15,2942.732l-2.805-2.807-2.805,2.807v-2.383l2.805-2.8,2.805,2.8Z" transform="translate(-732.539 -2937.545)" fill="red"/></g></g><g transform="translate(813.2 2953.235)"><rect width="1.655" height="33.586" transform="translate(1.978 1.891)" fill="red"/><path d="M801.111,2942.732l-2.805-2.807-2.805,2.807v-2.383l2.805-2.8,2.805,2.8Z" transform="translate(-795.501 -2937.545)" fill="red"/></g><g transform="translate(726.754 2970.787)"><rect width="28.495" height="1.655" transform="translate(1.891 1.979)" fill="red"/><g transform="translate(0)"><path d="M724.731,2952.968l-2.807,2.805,2.807,2.8h-2.382l-2.805-2.8,2.805-2.805Z" transform="translate(-719.544 -2952.968)" fill="red"/></g></g><g transform="translate(801.045 2970.787)"><rect width="28.03" height="1.655" transform="translate(0 1.978)" fill="red"/><g transform="translate(24.734)"><path d="M806.553,2958.577l2.807-2.8-2.807-2.806h2.382l2.805,2.806-2.805,2.8Z" transform="translate(-806.553 -2952.967)" fill="red"/></g></g><g transform="translate(832.817 3016.474)"><rect width="1.655" height="31.86" transform="translate(1.978 1.891)" fill="red"/><g transform="translate(0)"><path d="M818.348,2998.3l-2.805-2.808-2.805,2.808v-2.383l2.805-2.8,2.805,2.8Z" transform="translate(-812.738 -2993.111)" fill="red"/></g></g><g transform="translate(740.896 3019.956)"><rect width="1.655" height="31.858" transform="translate(1.978 1.891)" fill="red"/><path d="M737.58,3001.357l-2.805-2.807-2.805,2.807v-2.383l2.805-2.8,2.805,2.8Z" transform="translate(-731.97 -2996.17)" fill="red"/></g><g transform="translate(823.775 3034.025)"><rect width="30.381" height="1.655" transform="translate(0 1.979)" fill="red"/><g transform="translate(27.085)"><path d="M828.591,3014.143l2.807-2.8-2.807-2.805h2.382l2.805,2.805-2.805,2.8Z" transform="translate(-828.591 -3008.533)" fill="red"/></g></g><g transform="translate(822.317 3065.549)"><rect width="30.38" height="1.655" transform="translate(0 1.977)" fill="red"/><g transform="translate(27.084)"><path d="M827.309,3041.842l2.807-2.805-2.807-2.805h2.382l2.805,2.805-2.805,2.805Z" transform="translate(-827.309 -3036.231)" fill="red"/></g></g><g transform="translate(726.754 3035.332)"><rect width="30.381" height="1.655" transform="translate(1.891 1.978)" fill="red"/><g transform="translate(0)"><path d="M724.731,3009.68l-2.807,2.805,2.807,2.806h-2.382l-2.805-2.806,2.805-2.805Z" transform="translate(-719.544 -3009.68)" fill="red"/></g></g><g transform="translate(698.14 3067.038)"><rect width="30.38" height="1.655" transform="translate(1.892 1.978)" fill="red"/><g transform="translate(0)"><path d="M699.589,3037.539l-2.807,2.8,2.807,2.8h-2.382l-2.805-2.8,2.805-2.8Z" transform="translate(-694.402 -3037.539)" fill="red"/></g></g><g transform="translate(719.495 3195.336)"><rect width="30.38" height="1.655" transform="translate(1.892 1.977)" fill="red"/><path d="M718.353,3150.27l-2.807,2.805,2.807,2.806h-2.382l-2.805-2.806,2.805-2.805Z" transform="translate(-713.166 -3150.27)" fill="red"/></g><g transform="translate(719.495 3369.146)"><rect width="30.38" height="1.655" transform="translate(1.892 1.978)" fill="red"/><path d="M718.353,3302.99l-2.807,2.805,2.807,2.806h-2.382l-2.805-2.806,2.805-2.805Z" transform="translate(-713.166 -3302.99)" fill="red"/></g><g transform="translate(804.157 3369.146)"><rect width="30.381" height="1.655" transform="translate(0 1.978)" fill="red"/><g transform="translate(27.085)"><path d="M811.354,3308.6l2.807-2.806-2.807-2.805h2.382l2.805,2.805-2.805,2.806Z" transform="translate(-811.354 -3302.99)" fill="red"/></g></g><g transform="translate(738.917 2942.477)"><path d="M733.513,2938.306c-1.93,0-3.253-1.808-3.282-5.076,0-3.329,1.443-5.138,3.45-5.138,2.067,0,3.267,1.855,3.267,5,0,3.359-1.261,5.213-3.419,5.213Zm.076-1.032c1.353,0,2.006-1.6,2.006-4.119,0-2.432-.608-4.029-2.006-4.029-1.216,0-2.006,1.551-2.006,4.029-.031,2.568.76,4.119,1.992,4.119Z" transform="translate(-730.231 -2928.092)" fill="red"/><path d="M738.179,2937.3a.892.892,0,0,1-.883-.957.907.907,0,0,1,.914-.956.885.885,0,0,1,.895.956.9.9,0,0,1-.912.957Z" transform="translate(-729.255 -2927.085)" fill="red"/><path d="M745.626,2929.2a5.075,5.075,0,0,0-1,.075,3.958,3.958,0,0,0-3.436,3.5h.031a3.014,3.014,0,0,1,5.381,2.036,3.31,3.31,0,0,1-3.3,3.494c-2.1,0-3.48-1.64-3.48-4.209a6.146,6.146,0,0,1,1.672-4.453,5.37,5.37,0,0,1,3.162-1.459,6.3,6.3,0,0,1,.972-.076Zm-2.294,8.071c1.139,0,1.915-.958,1.915-2.373a2.008,2.008,0,0,0-2.038-2.263,2.2,2.2,0,0,0-1.929,1.215,1.249,1.249,0,0,0-.138.579c.016,1.626.776,2.842,2.174,2.842Z" transform="translate(-728.907 -2928.09)" fill="red"/></g><g transform="translate(749.277 3015.572)"><path d="M742.616,3002.532c-1.93,0-3.254-1.807-3.282-5.075,0-3.33,1.443-5.139,3.45-5.139,2.067,0,3.267,1.855,3.267,5,0,3.36-1.262,5.212-3.419,5.212Zm.075-1.031c1.354,0,2.008-1.6,2.008-4.119,0-2.433-.608-4.029-2.008-4.029-1.214,0-2.005,1.551-2.005,4.029-.031,2.567.76,4.119,1.991,4.119Z" transform="translate(-739.334 -2992.318)" fill="red"/><path d="M747.281,3001.525a.891.891,0,0,1-.882-.956.907.907,0,0,1,.913-.958.887.887,0,0,1,.9.958.9.9,0,0,1-.912.956Z" transform="translate(-738.358 -2991.311)" fill="red"/><path d="M751.864,2993.712h-.031l-1.718.928-.258-1.019,2.159-1.155h1.139v9.88h-1.292Z" transform="translate(-737.881 -2992.298)" fill="red"/></g><g transform="translate(696.961 3192.627)"><path d="M696.647,3158.1c-1.929,0-3.253-1.808-3.281-5.076,0-3.329,1.443-5.138,3.45-5.138,2.067,0,3.267,1.855,3.267,5,0,3.36-1.262,5.213-3.419,5.213Zm.076-1.032c1.354,0,2.008-1.6,2.008-4.12,0-2.432-.608-4.027-2.008-4.027-1.215,0-2.005,1.551-2.005,4.027-.031,2.569.759,4.12,1.991,4.12Z" transform="translate(-693.366 -3147.89)" fill="red"/><path d="M701.313,3157.1a.892.892,0,0,1-.882-.957.908.908,0,0,1,.913-.959.888.888,0,0,1,.9.959.9.9,0,0,1-.912.957Z" transform="translate(-692.39 -3146.883)" fill="red"/><path d="M703.427,3156.417a4.6,4.6,0,0,0,2.188.609c1.7,0,2.25-1.08,2.235-1.917-.015-1.384-1.262-1.975-2.553-1.975h-.745v-1h.745c.972,0,2.2-.5,2.2-1.672,0-.791-.5-1.491-1.733-1.491a3.628,3.628,0,0,0-1.975.654l-.365-.971a4.791,4.791,0,0,1,2.6-.761c1.945,0,2.828,1.155,2.828,2.355a2.475,2.475,0,0,1-1.824,2.341v.031a2.546,2.546,0,0,1,2.2,2.523c0,1.582-1.245,2.964-3.6,2.964a5.036,5.036,0,0,1-2.57-.667Z" transform="translate(-692.027 -3147.89)" fill="red"/></g><g transform="translate(968.94 3195.336)"><rect width="30.38" height="1.655" transform="translate(1.892 1.977)" fill="red"/><g transform="translate(0)"><path d="M937.53,3150.27l-2.807,2.805,2.807,2.806h-2.382l-2.805-2.806,2.805-2.805Z" transform="translate(-932.343 -3150.27)" fill="red"/></g></g><g transform="translate(1053.602 3195.336)"><rect width="30.381" height="1.655" transform="translate(0 1.977)" fill="red"/><g transform="translate(27.085)"><path d="M1030.531,3155.881l2.807-2.806-2.807-2.805h2.382l2.805,2.805-2.805,2.806Z" transform="translate(-1030.531 -3150.27)" fill="red"/></g></g><g transform="translate(946.405 3192.627)"><path d="M915.825,3158.1c-1.93,0-3.253-1.808-3.282-5.076,0-3.329,1.443-5.138,3.45-5.138,2.067,0,3.268,1.855,3.268,5,0,3.36-1.261,5.213-3.419,5.213Zm.076-1.032c1.353,0,2.006-1.6,2.006-4.12,0-2.432-.608-4.027-2.006-4.027-1.216,0-2.006,1.551-2.006,4.027-.03,2.569.76,4.12,1.992,4.12Z" transform="translate(-912.543 -3147.89)" fill="red"/><path d="M920.491,3157.1a.892.892,0,0,1-.883-.957.909.909,0,0,1,.914-.959.887.887,0,0,1,.894.959.9.9,0,0,1-.912.957Z" transform="translate(-911.567 -3146.883)" fill="red"/><path d="M922.6,3156.417a4.607,4.607,0,0,0,2.189.609c1.7,0,2.249-1.08,2.234-1.917-.014-1.384-1.262-1.975-2.553-1.975h-.745v-1h.745c.973,0,2.2-.5,2.2-1.672,0-.791-.5-1.491-1.734-1.491a3.635,3.635,0,0,0-1.975.654l-.365-.971a4.791,4.791,0,0,1,2.6-.761c1.946,0,2.828,1.155,2.828,2.355a2.476,2.476,0,0,1-1.824,2.341v.031a2.547,2.547,0,0,1,2.2,2.523c0,1.582-1.246,2.964-3.6,2.964a5.041,5.041,0,0,1-2.57-.667Z" transform="translate(-911.204 -3147.89)" fill="red"/></g><g transform="translate(779.515 2823.928)"><path d="M910.751,2823.927l-.143,246.1H1156.37Zm30.446,72.394,146.308,146.591H941.112Z" transform="translate(-745.92 -2823.927)" fill="#626054"/><path d="M766.047,3286.1,765.9,3040h245.761Zm30.446-72.393L942.8,3067.114H796.407Z" transform="translate(-765.903 -2794.089)" fill="#626054"/></g><g transform="translate(1088.443 3192.627)"><path d="M1040.629,3158.1c-1.929,0-3.253-1.808-3.283-5.076,0-3.329,1.443-5.138,3.451-5.138,2.066,0,3.267,1.855,3.267,5,0,3.36-1.262,5.213-3.42,5.213Zm.076-1.032c1.354,0,2.006-1.6,2.006-4.12,0-2.432-.608-4.027-2.006-4.027-1.215,0-2.005,1.551-2.005,4.027-.031,2.569.759,4.12,1.99,4.12Z" transform="translate(-1037.346 -3147.89)" fill="red"/><path d="M1045.294,3157.1a.891.891,0,0,1-.882-.957.908.908,0,0,1,.913-.959.886.886,0,0,1,.894.959.9.9,0,0,1-.911.957Z" transform="translate(-1036.37 -3146.883)" fill="red"/><path d="M1047.407,3156.417a4.6,4.6,0,0,0,2.188.609c1.7,0,2.249-1.08,2.235-1.917-.015-1.384-1.262-1.975-2.554-1.975h-.744v-1h.744c.973,0,2.2-.5,2.2-1.672,0-.791-.5-1.491-1.734-1.491a3.633,3.633,0,0,0-1.974.654l-.365-.971a4.8,4.8,0,0,1,2.6-.761c1.945,0,2.827,1.155,2.827,2.355a2.475,2.475,0,0,1-1.825,2.341v.031a2.546,2.546,0,0,1,2.2,2.523c0,1.582-1.246,2.964-3.6,2.964a5.034,5.034,0,0,1-2.569-.667Z" transform="translate(-1036.007 -3147.89)" fill="red"/></g><g transform="translate(839 3365.007)"><path d="M821.452,3309.567c-1.929,0-3.253-1.809-3.282-5.076,0-3.329,1.443-5.138,3.451-5.138,2.067,0,3.268,1.855,3.268,5,0,3.36-1.262,5.214-3.42,5.214Zm.076-1.033c1.354,0,2.007-1.6,2.007-4.119,0-2.432-.608-4.029-2.007-4.029-1.215,0-2.005,1.551-2.005,4.029-.031,2.567.759,4.119,1.99,4.119Z" transform="translate(-818.17 -3299.353)" fill="red"/><path d="M826.118,3308.56a.891.891,0,0,1-.882-.956.908.908,0,0,1,.913-.959.886.886,0,0,1,.894.959.9.9,0,0,1-.91.956Z" transform="translate(-817.194 -3298.346)" fill="red"/><path d="M827.906,3309.4v-.821l1.049-1.019c2.524-2.4,3.679-3.677,3.679-5.167a1.752,1.752,0,0,0-1.946-1.931,3.368,3.368,0,0,0-2.1.835l-.426-.942a4.386,4.386,0,0,1,2.8-1,2.775,2.775,0,0,1,3.009,2.872c0,1.824-1.321,3.3-3.405,5.3l-.774.731v.029h4.424v1.11Z" transform="translate(-816.825 -3299.353)" fill="red"/></g><g transform="translate(696.961 3365.007)"><path d="M696.647,3309.567c-1.929,0-3.253-1.809-3.281-5.076,0-3.329,1.443-5.138,3.45-5.138,2.067,0,3.267,1.855,3.267,5,0,3.36-1.262,5.214-3.419,5.214Zm.076-1.033c1.354,0,2.008-1.6,2.008-4.119,0-2.432-.608-4.029-2.008-4.029-1.215,0-2.005,1.551-2.005,4.029-.031,2.567.759,4.119,1.991,4.119Z" transform="translate(-693.366 -3299.353)" fill="red"/><path d="M701.313,3308.56a.892.892,0,0,1-.882-.956.908.908,0,0,1,.913-.959.887.887,0,0,1,.9.959.9.9,0,0,1-.912.956Z" transform="translate(-692.39 -3298.346)" fill="red"/><path d="M703.1,3309.4v-.821l1.048-1.019c2.524-2.4,3.679-3.677,3.679-5.167a1.751,1.751,0,0,0-1.945-1.931,3.366,3.366,0,0,0-2.1.835l-.427-.942a4.389,4.389,0,0,1,2.8-1,2.775,2.775,0,0,1,3.008,2.872c0,1.824-1.321,3.3-3.4,5.3l-.774.731v.029h4.423v1.11Z" transform="translate(-692.021 -3299.353)" fill="red"/></g><g transform="translate(969.476 3369.146)"><rect width="30.38" height="1.655" transform="translate(1.892 1.978)" fill="red"/><path d="M938,3302.99l-2.807,2.805L938,3308.6H935.62l-2.805-2.806,2.805-2.805Z" transform="translate(-932.814 -3302.99)" fill="red"/></g><g transform="translate(1054.139 3369.146)"><rect width="30.381" height="1.655" transform="translate(0 1.978)" fill="red"/><g transform="translate(27.085)"><path d="M1031,3308.6l2.807-2.806L1031,3302.99h2.382l2.8,2.805-2.8,2.806Z" transform="translate(-1031.003 -3302.99)" fill="red"/></g></g><g transform="translate(1088.98 3365.007)"><path d="M1041.1,3309.567c-1.929,0-3.253-1.809-3.281-5.076,0-3.329,1.443-5.138,3.449-5.138,2.067,0,3.267,1.855,3.267,5,0,3.36-1.262,5.214-3.419,5.214Zm.076-1.033c1.355,0,2.008-1.6,2.008-4.119,0-2.432-.608-4.029-2.008-4.029-1.216,0-2.005,1.551-2.005,4.029-.031,2.567.759,4.119,1.99,4.119Z" transform="translate(-1037.818 -3299.353)" fill="red"/><path d="M1045.765,3308.56a.892.892,0,0,1-.882-.956.909.909,0,0,1,.913-.959.887.887,0,0,1,.9.959.9.9,0,0,1-.912.956Z" transform="translate(-1036.842 -3298.346)" fill="red"/><path d="M1047.554,3309.4v-.821l1.048-1.019c2.524-2.4,3.679-3.677,3.679-5.167a1.751,1.751,0,0,0-1.945-1.931,3.365,3.365,0,0,0-2.1.835l-.427-.942a4.389,4.389,0,0,1,2.8-1,2.774,2.774,0,0,1,3.008,2.872c0,1.824-1.321,3.3-3.4,5.3l-.774.731v.029h4.422v1.11Z" transform="translate(-1036.473 -3299.353)" fill="red"/></g><g transform="translate(946.941 3365.007)"><path d="M916.3,3309.567c-1.929,0-3.253-1.809-3.282-5.076,0-3.329,1.443-5.138,3.451-5.138,2.067,0,3.268,1.855,3.268,5,0,3.36-1.262,5.214-3.42,5.214Zm.076-1.033c1.354,0,2.006-1.6,2.006-4.119,0-2.432-.607-4.029-2.006-4.029-1.216,0-2.005,1.551-2.005,4.029-.031,2.567.759,4.119,1.99,4.119Z" transform="translate(-913.014 -3299.353)" fill="red"/><path d="M920.962,3308.56a.892.892,0,0,1-.882-.956.908.908,0,0,1,.913-.959.887.887,0,0,1,.9.959.9.9,0,0,1-.912.956Z" transform="translate(-912.038 -3298.346)" fill="red"/><path d="M922.75,3309.4v-.821l1.049-1.019c2.524-2.4,3.68-3.677,3.68-5.167a1.752,1.752,0,0,0-1.946-1.931,3.367,3.367,0,0,0-2.1.835l-.426-.942a4.386,4.386,0,0,1,2.8-1,2.775,2.775,0,0,1,3.009,2.872c0,1.824-1.321,3.3-3.4,5.3l-.775.731v.029h4.424v1.11Z" transform="translate(-911.669 -3299.353)" fill="red"/></g><g transform="translate(841.941 3015.572)"><path d="M824.036,3002.532c-1.929,0-3.253-1.807-3.282-5.075,0-3.33,1.443-5.139,3.451-5.139,2.067,0,3.267,1.855,3.267,5,0,3.36-1.262,5.212-3.42,5.212Zm.076-1.031c1.354,0,2.006-1.6,2.006-4.119,0-2.433-.607-4.029-2.006-4.029-1.215,0-2.005,1.551-2.005,4.029-.031,2.567.759,4.119,1.991,4.119Z" transform="translate(-820.754 -2992.318)" fill="red"/><path d="M828.7,3001.525a.891.891,0,0,1-.882-.956.907.907,0,0,1,.913-.958.887.887,0,0,1,.9.958.9.9,0,0,1-.912.956Z" transform="translate(-819.778 -2991.311)" fill="red"/><path d="M833.286,2993.712h-.031l-1.717.928-.258-1.019,2.158-1.155h1.139v9.88h-1.291Z" transform="translate(-819.301 -2992.298)" fill="red"/></g><g transform="translate(1099.646 3015.574)"><path d="M1050.472,3002.534c-1.929,0-3.253-1.808-3.282-5.075,0-3.33,1.443-5.138,3.451-5.138,2.066,0,3.267,1.855,3.267,5,0,3.36-1.262,5.213-3.42,5.213Zm.076-1.033c1.355,0,2.007-1.6,2.007-4.119,0-2.432-.608-4.029-2.007-4.029-1.215,0-2.005,1.552-2.005,4.029-.03,2.567.759,4.119,1.991,4.119Z" transform="translate(-1047.19 -2992.32)" fill="red"/><path d="M1055.138,3001.527a.893.893,0,0,1-.883-.957.908.908,0,0,1,.914-.958.886.886,0,0,1,.894.958.9.9,0,0,1-.911.957Z" transform="translate(-1046.214 -2991.313)" fill="red"/><path d="M1059.722,2993.713h-.031l-1.719.927-.258-1.017,2.159-1.157h1.139v9.88h-1.29Z" transform="translate(-1045.736 -2992.299)" fill="red"/></g><g transform="translate(985.624 3008.235)"><path d="M950.285,2996.085c-1.929,0-3.253-1.808-3.282-5.076,0-3.329,1.443-5.138,3.451-5.138,2.067,0,3.268,1.854,3.268,5,0,3.36-1.262,5.214-3.42,5.214Zm.076-1.034c1.353,0,2.007-1.6,2.007-4.118,0-2.432-.608-4.029-2.007-4.029-1.216,0-2.005,1.551-2.005,4.029-.031,2.567.759,4.118,1.99,4.118Z" transform="translate(-947.003 -2985.871)" fill="red"/><path d="M954.951,2995.078a.893.893,0,0,1-.883-.957.908.908,0,0,1,.914-.958.886.886,0,0,1,.894.958.9.9,0,0,1-.911.957Z" transform="translate(-946.027 -2984.864)" fill="red"/><path d="M959.535,2987.263H959.5l-1.718.927-.258-1.017,2.159-1.156h1.139v9.88h-1.291Z" transform="translate(-945.55 -2985.85)" fill="red"/></g><g transform="translate(808.847 2942.477)"><path d="M794.957,2938.306c-1.929,0-3.253-1.808-3.281-5.076,0-3.329,1.443-5.138,3.449-5.138,2.067,0,3.268,1.855,3.268,5,0,3.359-1.262,5.213-3.419,5.213Zm.076-1.032c1.354,0,2.008-1.6,2.008-4.119,0-2.432-.608-4.029-2.008-4.029-1.215,0-2.005,1.551-2.005,4.029-.031,2.568.759,4.119,1.99,4.119Z" transform="translate(-791.676 -2928.092)" fill="red"/><path d="M799.623,2937.3a.892.892,0,0,1-.882-.957.907.907,0,0,1,.913-.956.886.886,0,0,1,.9.956.9.9,0,0,1-.912.957Z" transform="translate(-790.7 -2927.085)" fill="red"/><path d="M807.072,2929.2a5.093,5.093,0,0,0-1,.075,3.958,3.958,0,0,0-3.435,3.5h.031a3.014,3.014,0,0,1,5.381,2.036,3.31,3.31,0,0,1-3.3,3.494c-2.1,0-3.481-1.64-3.481-4.209a6.146,6.146,0,0,1,1.673-4.453,5.369,5.369,0,0,1,3.161-1.459,6.316,6.316,0,0,1,.973-.076Zm-2.294,8.071c1.139,0,1.914-.958,1.914-2.373a2.007,2.007,0,0,0-2.037-2.263,2.2,2.2,0,0,0-1.929,1.215,1.251,1.251,0,0,0-.138.579c.016,1.626.775,2.842,2.174,2.842Z" transform="translate(-790.352 -2928.09)" fill="red"/></g><g transform="translate(694.6 2970.679)"><path d="M694.572,2963.086c-1.93,0-3.252-1.808-3.281-5.075,0-3.329,1.442-5.138,3.448-5.138,2.069,0,3.268,1.855,3.268,5,0,3.36-1.26,5.213-3.419,5.213Zm.077-1.032c1.354,0,2.007-1.6,2.007-4.12,0-2.431-.608-4.027-2.007-4.027-1.215,0-2.007,1.551-2.007,4.027-.028,2.569.76,4.12,1.992,4.12Z" transform="translate(-691.291 -2952.873)" fill="red"/><path d="M699.239,2962.081a.891.891,0,0,1-.882-.958.906.906,0,0,1,.91-.959.886.886,0,0,1,.9.959.9.9,0,0,1-.912.958Z" transform="translate(-690.315 -2951.865)" fill="red"/><path d="M706.685,2953.98a5.254,5.254,0,0,0-1,.076,3.956,3.956,0,0,0-3.436,3.5h.03a3.014,3.014,0,0,1,5.381,2.036,3.31,3.31,0,0,1-3.3,3.5c-2.1,0-3.48-1.64-3.48-4.21a6.142,6.142,0,0,1,1.671-4.453,5.371,5.371,0,0,1,3.16-1.459,6.32,6.32,0,0,1,.973-.077Zm-2.294,8.073c1.14,0,1.917-.958,1.917-2.373a2.009,2.009,0,0,0-2.04-2.264,2.194,2.194,0,0,0-1.929,1.216,1.261,1.261,0,0,0-.137.578c.017,1.625.776,2.843,2.173,2.843Z" transform="translate(-689.967 -2952.871)" fill="red"/><path d="M708.2,2961.4a4.614,4.614,0,0,0,2.188.609c1.7,0,2.249-1.08,2.236-1.916-.016-1.383-1.263-1.975-2.554-1.975h-.747v-1h.747c.973,0,2.2-.5,2.2-1.672,0-.791-.5-1.491-1.736-1.491a3.631,3.631,0,0,0-1.974.656l-.365-.973a4.8,4.8,0,0,1,2.6-.761c1.946,0,2.828,1.155,2.828,2.356a2.477,2.477,0,0,1-1.822,2.341v.031a2.546,2.546,0,0,1,2.2,2.522c0,1.582-1.247,2.963-3.6,2.963a5.053,5.053,0,0,1-2.57-.666Z" transform="translate(-689.006 -2952.873)" fill="red"/></g><g transform="translate(1021.118 2942.901)"><rect width="1.655" height="33.586" transform="translate(1.977 1.891)" fill="red"/><path d="M983.8,2933.652l-2.805-2.807-2.805,2.807v-2.382l2.805-2.805,2.805,2.805Z" transform="translate(-978.19 -2928.465)" fill="red"/></g><g transform="translate(1000.01 3021.68)"><rect width="1.655" height="33.586" transform="translate(1.978 1.891)" fill="red"/><g transform="translate(0)"><path d="M965.253,3002.872l-2.805-2.806-2.805,2.806v-2.382l2.805-2.805,2.805,2.805Z" transform="translate(-959.643 -2997.685)" fill="red"/></g></g><g transform="translate(1097.692 2957.073)"><rect width="1.655" height="33.586" transform="translate(1.979 1.891)" fill="red"/><g transform="translate(0)"><path d="M1051.083,2946.1l-2.805-2.807-2.805,2.807v-2.382l2.805-2.806,2.805,2.806Z" transform="translate(-1045.473 -2940.917)" fill="red"/></g></g><g transform="translate(1093.088 3021.68)"><rect width="1.655" height="33.586" transform="translate(1.978 1.891)" fill="red"/><g transform="translate(0)"><path d="M1047.037,3002.872l-2.805-2.806-2.805,2.806v-2.382l2.805-2.805,2.805,2.805Z" transform="translate(-1041.427 -2997.685)" fill="red"/></g></g><g transform="translate(1064.279 2953.414)"><rect width="1.655" height="15.848" transform="translate(1.977 1.891)" fill="red"/><g transform="translate(0)"><path d="M1021.724,2942.89l-2.805-2.807-2.805,2.807v-2.382l2.805-2.805,2.805,2.805Z" transform="translate(-1016.114 -2937.702)" fill="red"/></g></g><g transform="translate(1054.54 2953.414)"><rect width="1.655" height="15.848" transform="translate(1.979 1.891)" fill="red"/><path d="M1013.167,2942.89l-2.805-2.807-2.805,2.807v-2.382l2.805-2.805,2.805,2.805Z" transform="translate(-1007.557 -2937.702)" fill="red"/></g><g transform="translate(1058.802 2938.106)"><rect width="1.655" height="26.169" transform="translate(1.978 1.892)" fill="red"/><path d="M1016.912,2929.439l-2.805-2.806-2.805,2.806v-2.382l2.805-2.806,2.805,2.806Z" transform="translate(-1011.302 -2924.252)" fill="red"/></g><g transform="translate(1006.328 2960.453)"><rect width="28.495" height="1.655" transform="translate(1.891 1.977)" fill="red"/><g transform="translate(0)"><path d="M970.382,2943.887l-2.807,2.805,2.807,2.805H968l-2.805-2.805,2.805-2.805Z" transform="translate(-965.195 -2943.887)" fill="red"/></g></g><g transform="translate(987.623 3034.025)"><rect width="28.494" height="1.655" transform="translate(1.891 1.979)" fill="red"/><g transform="translate(0)"><path d="M953.946,3008.533l-2.807,2.805,2.807,2.8h-2.382l-2.805-2.8,2.805-2.805Z" transform="translate(-948.759 -3008.533)" fill="red"/></g></g><g transform="translate(946.197 3069.29)"><rect width="28.494" height="1.655" transform="translate(1.891 1.977)" fill="red"/><g transform="translate(0)"><path d="M917.547,3039.518l-2.807,2.806,2.807,2.8h-2.382l-2.805-2.8,2.805-2.806Z" transform="translate(-912.36 -3039.518)" fill="red"/></g></g><g transform="translate(1085.305 2969.935)"><rect width="28.494" height="1.655" transform="translate(0 1.978)" fill="red"/><g transform="translate(25.198)"><path d="M1056.729,2957.828l2.807-2.805-2.807-2.805h2.382l2.805,2.805-2.805,2.805Z" transform="translate(-1056.729 -2952.218)" fill="red"/></g></g><g transform="translate(1081.852 3035.332)"><rect width="28.494" height="1.655" transform="translate(0 1.978)" fill="red"/><g transform="translate(25.197)"><path d="M1053.695,3015.291l2.807-2.806-2.807-2.805h2.382l2.805,2.805-2.805,2.806Z" transform="translate(-1053.695 -3009.68)" fill="red"/></g></g><g transform="translate(1080.7 3067.038)"><rect width="28.495" height="1.655" transform="translate(0 1.978)" fill="red"/><g transform="translate(25.199)"><path d="M1052.683,3043.149l2.807-2.8-2.807-2.8h2.382l2.8,2.8-2.8,2.8Z" transform="translate(-1052.683 -3037.539)" fill="red"/></g></g><g transform="translate(1014.821 2932.143)"><path d="M975.939,2929.226c-1.929,0-3.253-1.808-3.282-5.075,0-3.329,1.443-5.138,3.451-5.138,2.067,0,3.268,1.855,3.268,5,0,3.358-1.262,5.212-3.42,5.212Zm.076-1.032c1.354,0,2.007-1.6,2.007-4.12,0-2.431-.608-4.028-2.007-4.028-1.215,0-2.005,1.552-2.005,4.028-.03,2.568.759,4.12,1.991,4.12Z" transform="translate(-972.657 -2919.012)" fill="red"/><path d="M980.6,2928.219a.891.891,0,0,1-.882-.958.907.907,0,0,1,.913-.958.886.886,0,0,1,.894.958.9.9,0,0,1-.911.958Z" transform="translate(-971.681 -2918.005)" fill="red"/><path d="M988.054,2920.121a5.129,5.129,0,0,0-1,.075,3.958,3.958,0,0,0-3.436,3.5h.031a3.014,3.014,0,0,1,5.381,2.036,3.311,3.311,0,0,1-3.3,3.5c-2.1,0-3.48-1.64-3.48-4.21a6.147,6.147,0,0,1,1.673-4.453,5.361,5.361,0,0,1,3.16-1.458,6.33,6.33,0,0,1,.973-.077Zm-2.3,8.071c1.139,0,1.916-.958,1.916-2.373a2.008,2.008,0,0,0-2.038-2.263,2.2,2.2,0,0,0-1.929,1.215,1.248,1.248,0,0,0-.138.579c.017,1.625.776,2.843,2.174,2.843Z" transform="translate(-971.333 -2919.01)" fill="red"/></g><g transform="translate(1094.247 2943.367)"><path d="M1045.728,2939.088c-1.929,0-3.253-1.808-3.282-5.075,0-3.329,1.443-5.139,3.451-5.139,2.067,0,3.267,1.855,3.267,5,0,3.36-1.262,5.213-3.42,5.213Zm.076-1.033c1.354,0,2.006-1.6,2.006-4.118,0-2.432-.607-4.029-2.006-4.029-1.215,0-2.005,1.551-2.005,4.029-.031,2.567.759,4.118,1.99,4.118Z" transform="translate(-1042.446 -2928.874)" fill="red"/><path d="M1050.394,2938.081a.892.892,0,0,1-.882-.956.907.907,0,0,1,.913-.958.887.887,0,0,1,.9.958.9.9,0,0,1-.911.956Z" transform="translate(-1041.47 -2927.867)" fill="red"/><path d="M1057.842,2929.983a5.021,5.021,0,0,0-1,.076,3.959,3.959,0,0,0-3.436,3.5h.031a3.015,3.015,0,0,1,5.382,2.036,3.31,3.31,0,0,1-3.3,3.495c-2.1,0-3.481-1.64-3.481-4.209a6.14,6.14,0,0,1,1.673-4.453,5.369,5.369,0,0,1,3.161-1.46,6.339,6.339,0,0,1,.973-.076Zm-2.294,8.071c1.139,0,1.914-.958,1.914-2.372a2.007,2.007,0,0,0-2.037-2.264,2.2,2.2,0,0,0-1.93,1.215,1.264,1.264,0,0,0-.136.579c.016,1.625.775,2.842,2.173,2.842Z" transform="translate(-1041.121 -2928.872)" fill="red"/></g><g transform="translate(1051.729 2925.885)"><path d="M1008.369,2923.727c-1.93,0-3.253-1.808-3.282-5.075,0-3.329,1.443-5.139,3.45-5.139,2.067,0,3.268,1.855,3.268,5,0,3.36-1.262,5.214-3.419,5.214Zm.075-1.032c1.354,0,2.008-1.6,2.008-4.12,0-2.432-.608-4.028-2.008-4.028-1.214,0-2.005,1.551-2.005,4.028-.031,2.568.76,4.12,1.992,4.12Z" transform="translate(-1005.087 -2913.513)" fill="red"/><path d="M1013.034,2922.72a.892.892,0,0,1-.882-.957.908.908,0,0,1,.913-.958.887.887,0,0,1,.9.958.9.9,0,0,1-.912.957Z" transform="translate(-1004.111 -2912.506)" fill="red"/><path d="M1020.482,2914.621a5.215,5.215,0,0,0-1,.076,3.96,3.96,0,0,0-3.436,3.5h.031a3.013,3.013,0,0,1,5.381,2.036,3.31,3.31,0,0,1-3.3,3.495c-2.1,0-3.48-1.64-3.48-4.209a6.145,6.145,0,0,1,1.672-4.454,5.366,5.366,0,0,1,3.162-1.459,6.366,6.366,0,0,1,.972-.077Zm-2.294,8.072c1.139,0,1.915-.958,1.915-2.373a2.008,2.008,0,0,0-2.039-2.264,2.2,2.2,0,0,0-1.929,1.215,1.252,1.252,0,0,0-.138.578c.016,1.625.776,2.843,2.174,2.843Z" transform="translate(-1003.763 -2913.511)" fill="red"/></g><g transform="translate(978.489 2956.893)"><path d="M944.016,2950.973c-1.929,0-3.253-1.809-3.282-5.076,0-3.329,1.443-5.139,3.451-5.139,2.067,0,3.268,1.855,3.268,5,0,3.359-1.262,5.213-3.42,5.213Zm.076-1.033c1.354,0,2.007-1.6,2.007-4.119,0-2.432-.607-4.029-2.007-4.029-1.215,0-2.005,1.552-2.005,4.029-.031,2.568.759,4.119,1.99,4.119Z" transform="translate(-940.734 -2940.759)" fill="red"/><path d="M948.682,2949.966a.892.892,0,0,1-.882-.957.907.907,0,0,1,.913-.958.887.887,0,0,1,.9.958.9.9,0,0,1-.911.957Z" transform="translate(-939.758 -2939.752)" fill="red"/><path d="M956.131,2941.867a5.009,5.009,0,0,0-1,.076,3.959,3.959,0,0,0-3.436,3.5h.031a3.015,3.015,0,0,1,5.382,2.038,3.31,3.31,0,0,1-3.3,3.5c-2.1,0-3.481-1.64-3.481-4.21a6.142,6.142,0,0,1,1.673-4.453,5.364,5.364,0,0,1,3.16-1.459,6.445,6.445,0,0,1,.973-.076Zm-2.294,8.071c1.139,0,1.914-.958,1.914-2.372a2.007,2.007,0,0,0-2.037-2.263,2.2,2.2,0,0,0-1.93,1.215,1.26,1.26,0,0,0-.137.579c.016,1.625.775,2.841,2.173,2.841Z" transform="translate(-939.41 -2940.757)" fill="red"/><path d="M957.648,2949.285a4.587,4.587,0,0,0,2.187.61c1.7,0,2.25-1.08,2.235-1.917-.015-1.384-1.262-1.975-2.553-1.975h-.745v-1h.745c.972,0,2.2-.5,2.2-1.672,0-.791-.5-1.491-1.733-1.491a3.618,3.618,0,0,0-1.974.655l-.366-.974a4.8,4.8,0,0,1,2.6-.76c1.946,0,2.828,1.155,2.828,2.356a2.476,2.476,0,0,1-1.824,2.342v.03a2.545,2.545,0,0,1,2.2,2.523c0,1.582-1.245,2.964-3.6,2.964a5.018,5.018,0,0,1-2.57-.668Z" transform="translate(-938.449 -2940.759)" fill="red"/></g><g transform="translate(958.921 3031.544)"><path d="M926.822,3016.566c-1.93,0-3.254-1.808-3.282-5.076,0-3.329,1.443-5.138,3.449-5.138,2.067,0,3.268,1.855,3.268,5,0,3.359-1.262,5.212-3.419,5.212Zm.075-1.032c1.354,0,2.008-1.6,2.008-4.119,0-2.432-.608-4.029-2.008-4.029-1.214,0-2.005,1.551-2.005,4.029-.031,2.568.76,4.119,1.992,4.119Z" transform="translate(-923.54 -3006.352)" fill="red"/><path d="M931.487,3015.559a.891.891,0,0,1-.882-.956.907.907,0,0,1,.913-.958.885.885,0,0,1,.9.958.9.9,0,0,1-.911.956Z" transform="translate(-922.564 -3005.345)" fill="red"/><path d="M938.935,3007.461a5.076,5.076,0,0,0-1,.075,3.958,3.958,0,0,0-3.436,3.5h.031a3.014,3.014,0,0,1,5.381,2.036,3.31,3.31,0,0,1-3.3,3.494c-2.1,0-3.48-1.64-3.48-4.209a6.142,6.142,0,0,1,1.672-4.453,5.379,5.379,0,0,1,3.161-1.459,6.351,6.351,0,0,1,.973-.076Zm-2.294,8.07c1.139,0,1.915-.958,1.915-2.372a2.009,2.009,0,0,0-2.038-2.264,2.2,2.2,0,0,0-1.929,1.216,1.251,1.251,0,0,0-.138.579c.016,1.626.776,2.842,2.174,2.842Z" transform="translate(-922.216 -3006.35)" fill="red"/><path d="M940.453,3014.879a4.6,4.6,0,0,0,2.189.609c1.7,0,2.249-1.079,2.234-1.917-.014-1.383-1.261-1.975-2.553-1.975h-.744v-1h.744c.973,0,2.2-.5,2.2-1.672,0-.791-.5-1.49-1.734-1.49a3.628,3.628,0,0,0-1.975.654l-.365-.973a4.792,4.792,0,0,1,2.6-.761c1.946,0,2.828,1.155,2.828,2.356a2.477,2.477,0,0,1-1.824,2.342v.031a2.545,2.545,0,0,1,2.2,2.522c0,1.583-1.246,2.964-3.6,2.964a5.046,5.046,0,0,1-2.57-.667Z" transform="translate(-921.255 -3006.352)" fill="red"/></g><g transform="translate(1121.649 2967.252)"><path d="M1069.805,2960.075c-1.929,0-3.253-1.807-3.282-5.074,0-3.33,1.443-5.14,3.45-5.14,2.068,0,3.267,1.854,3.267,5,0,3.36-1.261,5.212-3.419,5.212Zm.076-1.033c1.353,0,2.007-1.6,2.007-4.118,0-2.432-.608-4.029-2.007-4.029-1.215,0-2.005,1.551-2.005,4.029-.031,2.567.759,4.118,1.99,4.118Z" transform="translate(-1066.523 -2949.861)" fill="red"/><path d="M1074.471,2959.068a.891.891,0,0,1-.883-.956.908.908,0,0,1,.913-.958.886.886,0,0,1,.895.958.9.9,0,0,1-.912.956Z" transform="translate(-1065.547 -2948.854)" fill="red"/><path d="M1081.918,2950.969a5.058,5.058,0,0,0-1,.077,3.957,3.957,0,0,0-3.436,3.5h.03a3.014,3.014,0,0,1,5.381,2.036,3.309,3.309,0,0,1-3.3,3.495c-2.1,0-3.48-1.639-3.48-4.209a6.137,6.137,0,0,1,1.672-4.452,5.366,5.366,0,0,1,3.161-1.461,6.319,6.319,0,0,1,.972-.075Zm-2.294,8.072c1.139,0,1.915-.959,1.915-2.372a2.009,2.009,0,0,0-2.038-2.264,2.2,2.2,0,0,0-1.929,1.215,1.246,1.246,0,0,0-.138.578c.016,1.626.776,2.842,2.174,2.842Z" transform="translate(-1065.199 -2949.859)" fill="red"/><path d="M1083.436,2958.389a4.6,4.6,0,0,0,2.189.609c1.7,0,2.249-1.079,2.235-1.917-.015-1.383-1.262-1.975-2.554-1.975h-.744v-1h.744c.973,0,2.2-.5,2.2-1.673,0-.79-.5-1.49-1.734-1.49a3.628,3.628,0,0,0-1.975.654l-.365-.973a4.806,4.806,0,0,1,2.6-.761c1.945,0,2.827,1.156,2.827,2.357a2.477,2.477,0,0,1-1.824,2.341v.031a2.544,2.544,0,0,1,2.2,2.522c0,1.583-1.246,2.963-3.6,2.963a5.027,5.027,0,0,1-2.568-.667Z" transform="translate(-1064.238 -2949.861)" fill="red"/></g><g transform="translate(1120.21 3031.544)"><path d="M1068.54,3016.566c-1.93,0-3.252-1.808-3.282-5.076,0-3.329,1.443-5.138,3.45-5.138,2.067,0,3.267,1.855,3.267,5,0,3.359-1.262,5.212-3.419,5.212Zm.075-1.032c1.354,0,2.008-1.6,2.008-4.119,0-2.432-.608-4.029-2.008-4.029-1.214,0-2.005,1.551-2.005,4.029-.031,2.568.76,4.119,1.992,4.119Z" transform="translate(-1065.258 -3006.352)" fill="red"/><path d="M1073.205,3015.559a.891.891,0,0,1-.882-.956.907.907,0,0,1,.913-.958.885.885,0,0,1,.9.958.9.9,0,0,1-.911.956Z" transform="translate(-1064.283 -3005.345)" fill="red"/><path d="M1080.653,3007.461a5.08,5.08,0,0,0-1,.075,3.958,3.958,0,0,0-3.436,3.5h.031a3.014,3.014,0,0,1,5.381,2.036,3.31,3.31,0,0,1-3.3,3.494c-2.1,0-3.48-1.64-3.48-4.209a6.142,6.142,0,0,1,1.672-4.453,5.379,5.379,0,0,1,3.162-1.459,6.329,6.329,0,0,1,.972-.076Zm-2.294,8.07c1.139,0,1.915-.958,1.915-2.372a2.009,2.009,0,0,0-2.038-2.264,2.2,2.2,0,0,0-1.929,1.216,1.251,1.251,0,0,0-.138.579c.016,1.626.776,2.842,2.174,2.842Z" transform="translate(-1063.934 -3006.35)" fill="red"/><path d="M1082.171,3014.879a4.606,4.606,0,0,0,2.189.609c1.7,0,2.249-1.079,2.235-1.917-.015-1.383-1.262-1.975-2.554-1.975h-.744v-1h.744c.973,0,2.2-.5,2.2-1.672,0-.791-.5-1.49-1.735-1.49a3.629,3.629,0,0,0-1.974.654l-.365-.973a4.8,4.8,0,0,1,2.6-.761c1.945,0,2.827,1.155,2.827,2.356a2.477,2.477,0,0,1-1.824,2.342v.031a2.545,2.545,0,0,1,2.2,2.522c0,1.583-1.246,2.964-3.6,2.964a5.037,5.037,0,0,1-2.568-.667Z" transform="translate(-1062.973 -3006.352)" fill="red"/></g><g transform="translate(1118.771 3064.063)"><path d="M1067.276,3045.139c-1.929,0-3.253-1.807-3.282-5.075,0-3.329,1.443-5.138,3.451-5.138,2.067,0,3.267,1.855,3.267,5,0,3.359-1.262,5.212-3.42,5.212Zm.076-1.032c1.354,0,2.007-1.6,2.007-4.119,0-2.432-.608-4.028-2.007-4.028-1.215,0-2.005,1.551-2.005,4.028-.031,2.568.759,4.119,1.99,4.119Z" transform="translate(-1063.994 -3034.926)" fill="red"/><path d="M1071.942,3044.132a.89.89,0,0,1-.882-.956.908.908,0,0,1,.913-.958.886.886,0,0,1,.894.958.9.9,0,0,1-.91.956Z" transform="translate(-1063.018 -3033.919)" fill="red"/><path d="M1079.391,3036.033a5.035,5.035,0,0,0-1,.077,3.958,3.958,0,0,0-3.436,3.5h.031a3.014,3.014,0,0,1,5.381,2.036,3.31,3.31,0,0,1-3.3,3.5c-2.1,0-3.48-1.64-3.48-4.209a6.143,6.143,0,0,1,1.673-4.453,5.365,5.365,0,0,1,3.161-1.459,6.419,6.419,0,0,1,.973-.075Zm-2.3,8.071c1.139,0,1.916-.958,1.916-2.372a2.008,2.008,0,0,0-2.037-2.264,2.2,2.2,0,0,0-1.93,1.214,1.254,1.254,0,0,0-.137.58c.016,1.625.775,2.842,2.173,2.842Z" transform="translate(-1062.669 -3034.924)" fill="red"/><path d="M1080.908,3043.452a4.6,4.6,0,0,0,2.188.609c1.7,0,2.25-1.079,2.235-1.916-.015-1.383-1.262-1.975-2.554-1.975h-.744v-1h.744c.973,0,2.2-.5,2.2-1.673,0-.789-.5-1.489-1.733-1.489a3.624,3.624,0,0,0-1.974.654l-.365-.973a4.8,4.8,0,0,1,2.6-.76c1.945,0,2.828,1.156,2.828,2.356a2.477,2.477,0,0,1-1.825,2.341v.031a2.543,2.543,0,0,1,2.2,2.522c0,1.583-1.245,2.963-3.6,2.963a5.028,5.028,0,0,1-2.569-.667Z" transform="translate(-1061.709 -3034.926)" fill="red"/></g><g transform="translate(839 2970.679)"><path d="M821.452,2963.086c-1.929,0-3.253-1.808-3.282-5.075,0-3.329,1.443-5.138,3.451-5.138,2.067,0,3.268,1.855,3.268,5,0,3.36-1.262,5.213-3.42,5.213Zm.076-1.032c1.354,0,2.007-1.6,2.007-4.12,0-2.431-.608-4.027-2.007-4.027-1.215,0-2.005,1.551-2.005,4.027-.031,2.569.759,4.12,1.99,4.12Z" transform="translate(-818.17 -2952.873)" fill="red"/><path d="M826.118,2962.081a.891.891,0,0,1-.882-.958.908.908,0,0,1,.913-.959.886.886,0,0,1,.894.959.9.9,0,0,1-.91.958Z" transform="translate(-817.194 -2951.865)" fill="red"/><path d="M833.567,2953.98a5.277,5.277,0,0,0-1,.076,3.959,3.959,0,0,0-3.436,3.5h.031a3.014,3.014,0,0,1,5.381,2.036,3.31,3.31,0,0,1-3.3,3.5c-2.1,0-3.48-1.64-3.48-4.21a6.143,6.143,0,0,1,1.673-4.453,5.362,5.362,0,0,1,3.161-1.459,6.3,6.3,0,0,1,.973-.077Zm-2.3,8.073c1.139,0,1.916-.958,1.916-2.373a2.007,2.007,0,0,0-2.037-2.264,2.195,2.195,0,0,0-1.93,1.216,1.261,1.261,0,0,0-.137.578c.016,1.625.775,2.843,2.173,2.843Z" transform="translate(-816.846 -2952.871)" fill="red"/><path d="M835.084,2961.4a4.6,4.6,0,0,0,2.187.609c1.7,0,2.25-1.08,2.235-1.916-.015-1.383-1.262-1.975-2.553-1.975h-.745v-1h.745c.972,0,2.2-.5,2.2-1.672,0-.791-.5-1.491-1.733-1.491a3.617,3.617,0,0,0-1.974.656l-.365-.973a4.791,4.791,0,0,1,2.6-.761c1.945,0,2.828,1.155,2.828,2.356a2.477,2.477,0,0,1-1.824,2.341v.031a2.544,2.544,0,0,1,2.2,2.522c0,1.582-1.245,2.963-3.6,2.963a5.039,5.039,0,0,1-2.569-.666Z" transform="translate(-815.885 -2952.873)" fill="red"/></g><g transform="translate(858.282 3031.544)"><path d="M838.394,3016.566c-1.929,0-3.253-1.808-3.282-5.076,0-3.329,1.443-5.138,3.451-5.138,2.067,0,3.268,1.855,3.268,5,0,3.359-1.262,5.212-3.42,5.212Zm.076-1.032c1.353,0,2.006-1.6,2.006-4.119,0-2.432-.608-4.029-2.006-4.029-1.216,0-2.005,1.551-2.005,4.029-.031,2.568.759,4.119,1.991,4.119Z" transform="translate(-835.112 -3006.352)" fill="red"/><path d="M843.06,3015.559a.891.891,0,0,1-.883-.956.907.907,0,0,1,.914-.958.885.885,0,0,1,.895.958.9.9,0,0,1-.911.956Z" transform="translate(-834.136 -3005.345)" fill="red"/><path d="M850.509,3007.461a5.089,5.089,0,0,0-1,.075,3.958,3.958,0,0,0-3.436,3.5h.031a3.014,3.014,0,0,1,5.381,2.036,3.31,3.31,0,0,1-3.3,3.494c-2.1,0-3.48-1.64-3.48-4.209a6.147,6.147,0,0,1,1.672-4.453,5.379,5.379,0,0,1,3.162-1.459,6.358,6.358,0,0,1,.973-.076Zm-2.3,8.07c1.139,0,1.915-.958,1.915-2.372a2.009,2.009,0,0,0-2.038-2.264,2.2,2.2,0,0,0-1.929,1.216,1.25,1.25,0,0,0-.138.579c.017,1.626.776,2.842,2.174,2.842Z" transform="translate(-833.788 -3006.35)" fill="red"/><path d="M852.026,3014.879a4.6,4.6,0,0,0,2.187.609c1.7,0,2.25-1.079,2.235-1.917-.015-1.383-1.262-1.975-2.554-1.975h-.744v-1h.744c.973,0,2.2-.5,2.2-1.672,0-.791-.5-1.49-1.733-1.49a3.629,3.629,0,0,0-1.976.654l-.364-.973a4.789,4.789,0,0,1,2.6-.761c1.945,0,2.827,1.155,2.827,2.356a2.477,2.477,0,0,1-1.824,2.342v.031a2.544,2.544,0,0,1,2.2,2.522c0,1.583-1.246,2.964-3.6,2.964a5.039,5.039,0,0,1-2.569-.667Z" transform="translate(-832.827 -3006.352)" fill="red"/></g><g transform="translate(858.282 3064.063)"><path d="M838.394,3045.139c-1.929,0-3.253-1.807-3.282-5.075,0-3.329,1.443-5.138,3.451-5.138,2.067,0,3.268,1.855,3.268,5,0,3.359-1.262,5.212-3.42,5.212Zm.076-1.032c1.353,0,2.006-1.6,2.006-4.119,0-2.432-.608-4.028-2.006-4.028-1.216,0-2.005,1.551-2.005,4.028-.031,2.568.759,4.119,1.991,4.119Z" transform="translate(-835.112 -3034.926)" fill="red"/><path d="M843.06,3044.132a.891.891,0,0,1-.883-.956.908.908,0,0,1,.914-.958.886.886,0,0,1,.895.958.9.9,0,0,1-.911.956Z" transform="translate(-834.136 -3033.919)" fill="red"/><path d="M850.509,3036.033a5.028,5.028,0,0,0-1,.077,3.958,3.958,0,0,0-3.436,3.5h.031a3.014,3.014,0,0,1,5.381,2.036,3.31,3.31,0,0,1-3.3,3.5c-2.1,0-3.48-1.64-3.48-4.209a6.147,6.147,0,0,1,1.672-4.453,5.37,5.37,0,0,1,3.162-1.459,6.426,6.426,0,0,1,.973-.075Zm-2.3,8.071c1.139,0,1.915-.958,1.915-2.372a2.008,2.008,0,0,0-2.038-2.264,2.2,2.2,0,0,0-1.929,1.214,1.253,1.253,0,0,0-.138.58c.017,1.625.776,2.842,2.174,2.842Z" transform="translate(-833.788 -3034.924)" fill="red"/><path d="M852.026,3043.452a4.6,4.6,0,0,0,2.187.609c1.7,0,2.25-1.079,2.235-1.916-.015-1.383-1.262-1.975-2.554-1.975h-.744v-1h.744c.973,0,2.2-.5,2.2-1.673,0-.789-.5-1.489-1.733-1.489a3.633,3.633,0,0,0-1.976.654l-.364-.973a4.8,4.8,0,0,1,2.6-.76c1.945,0,2.827,1.156,2.827,2.356a2.477,2.477,0,0,1-1.824,2.341v.031a2.544,2.544,0,0,1,2.2,2.522c0,1.583-1.246,2.963-3.6,2.963a5.029,5.029,0,0,1-2.569-.667Z" transform="translate(-832.827 -3034.926)" fill="red"/></g><g transform="translate(914.183 3064.063)"><path d="M887.511,3045.139c-1.929,0-3.253-1.807-3.281-5.075,0-3.329,1.442-5.138,3.45-5.138,2.067,0,3.267,1.855,3.267,5,0,3.359-1.262,5.212-3.42,5.212Zm.076-1.032c1.354,0,2.006-1.6,2.006-4.119,0-2.432-.607-4.028-2.006-4.028-1.216,0-2.005,1.551-2.005,4.028-.031,2.568.759,4.119,1.99,4.119Z" transform="translate(-884.23 -3034.926)" fill="red"/><path d="M892.177,3044.132a.891.891,0,0,1-.882-.956.908.908,0,0,1,.913-.958.887.887,0,0,1,.9.958.9.9,0,0,1-.912.956Z" transform="translate(-883.254 -3033.919)" fill="red"/><path d="M894.75,3044.03a5.857,5.857,0,0,0,1.08-.06,3.611,3.611,0,0,0,2.067-.943,4.37,4.37,0,0,0,1.307-2.629h-.046a2.909,2.909,0,0,1-2.341,1.063,2.867,2.867,0,0,1-2.918-3.04,3.4,3.4,0,0,1,3.391-3.5c2.021,0,3.268,1.626,3.268,4.165a6.247,6.247,0,0,1-1.7,4.637,5.056,5.056,0,0,1-2.874,1.322,8.015,8.015,0,0,1-1.232.076Zm2.417-8.085c-1.124,0-1.931,1-1.931,2.4a1.9,1.9,0,0,0,1.9,2.1,2.257,2.257,0,0,0,1.961-1.033,1.054,1.054,0,0,0,.106-.487c.015-1.7-.624-2.979-2.021-2.979Z" transform="translate(-882.895 -3034.926)" fill="red"/><path d="M906.721,3036.2h-3.769l-.38,2.538a5.285,5.285,0,0,1,.807-.06,4.15,4.15,0,0,1,2.126.531,2.8,2.8,0,0,1,1.415,2.539,3.427,3.427,0,0,1-3.678,3.374,4.879,4.879,0,0,1-2.463-.607l.335-1.019a4.425,4.425,0,0,0,2.128.548,2.17,2.17,0,0,0,2.325-2.158c0-1.262-.866-2.174-2.828-2.174a8.12,8.12,0,0,0-1.382.107l.638-4.743h4.727Z" transform="translate(-881.945 -3034.906)" fill="red"/></g><g transform="translate(694.6 3031.544)"><path d="M694.572,3016.566c-1.93,0-3.252-1.808-3.281-5.076,0-3.329,1.442-5.138,3.448-5.138,2.069,0,3.268,1.855,3.268,5,0,3.359-1.26,5.212-3.419,5.212Zm.077-1.032c1.354,0,2.007-1.6,2.007-4.119,0-2.432-.608-4.029-2.007-4.029-1.215,0-2.007,1.551-2.007,4.029-.028,2.568.76,4.119,1.992,4.119Z" transform="translate(-691.291 -3006.352)" fill="red"/><path d="M699.239,3015.559a.89.89,0,0,1-.882-.956.905.905,0,0,1,.91-.958.885.885,0,0,1,.9.958.9.9,0,0,1-.912.956Z" transform="translate(-690.315 -3005.345)" fill="red"/><path d="M706.685,3007.461a5.071,5.071,0,0,0-1,.075,3.956,3.956,0,0,0-3.436,3.5h.03a3.014,3.014,0,0,1,5.381,2.036,3.31,3.31,0,0,1-3.3,3.494c-2.1,0-3.48-1.64-3.48-4.209a6.141,6.141,0,0,1,1.671-4.453,5.385,5.385,0,0,1,3.16-1.459,6.377,6.377,0,0,1,.973-.076Zm-2.294,8.07c1.14,0,1.917-.958,1.917-2.372a2.01,2.01,0,0,0-2.04-2.264,2.2,2.2,0,0,0-1.929,1.216,1.265,1.265,0,0,0-.137.579c.017,1.626.776,2.842,2.173,2.842Z" transform="translate(-689.967 -3006.35)" fill="red"/><path d="M708.2,3014.879a4.611,4.611,0,0,0,2.188.609c1.7,0,2.249-1.079,2.236-1.917-.016-1.383-1.263-1.975-2.554-1.975h-.747v-1h.747c.973,0,2.2-.5,2.2-1.672,0-.791-.5-1.49-1.736-1.49a3.634,3.634,0,0,0-1.974.654l-.365-.973a4.8,4.8,0,0,1,2.6-.761c1.946,0,2.828,1.155,2.828,2.356a2.478,2.478,0,0,1-1.822,2.342v.031a2.546,2.546,0,0,1,2.2,2.522c0,1.583-1.247,2.964-3.6,2.964a5.053,5.053,0,0,1-2.57-.667Z" transform="translate(-689.006 -3006.352)" fill="red"/></g><g transform="translate(667.332 3064.063)"><path d="M670.614,3045.139c-1.929,0-3.253-1.807-3.282-5.075,0-3.329,1.443-5.138,3.451-5.138,2.067,0,3.267,1.855,3.267,5,0,3.359-1.262,5.212-3.42,5.212Zm.076-1.032c1.354,0,2.007-1.6,2.007-4.119,0-2.432-.607-4.028-2.007-4.028-1.215,0-2.005,1.551-2.005,4.028-.031,2.568.759,4.119,1.99,4.119Z" transform="translate(-667.332 -3034.926)" fill="red"/><path d="M675.28,3044.132a.891.891,0,0,1-.882-.956.908.908,0,0,1,.913-.958.887.887,0,0,1,.9.958.9.9,0,0,1-.912.956Z" transform="translate(-666.356 -3033.919)" fill="red"/><path d="M677.853,3044.03a5.843,5.843,0,0,0,1.079-.06,3.6,3.6,0,0,0,2.067-.943,4.364,4.364,0,0,0,1.308-2.629h-.046a2.909,2.909,0,0,1-2.341,1.063,2.867,2.867,0,0,1-2.918-3.04,3.4,3.4,0,0,1,3.39-3.5c2.021,0,3.267,1.626,3.267,4.165a6.243,6.243,0,0,1-1.7,4.637,5.05,5.05,0,0,1-2.873,1.322,8.015,8.015,0,0,1-1.231.076Zm2.417-8.085c-1.124,0-1.931,1-1.931,2.4a1.9,1.9,0,0,0,1.9,2.1,2.254,2.254,0,0,0,1.96-1.033,1.04,1.04,0,0,0,.107-.487c.015-1.7-.624-2.979-2.021-2.979Z" transform="translate(-665.997 -3034.926)" fill="red"/><path d="M689.824,3036.2h-3.769l-.38,2.538a5.288,5.288,0,0,1,.807-.06,4.149,4.149,0,0,1,2.126.531,2.8,2.8,0,0,1,1.414,2.539,3.426,3.426,0,0,1-3.677,3.374,4.878,4.878,0,0,1-2.463-.607l.335-1.019a4.425,4.425,0,0,0,2.128.548,2.17,2.17,0,0,0,2.325-2.158c0-1.262-.866-2.174-2.828-2.174a8.122,8.122,0,0,0-1.382.107l.638-4.743h4.727Z" transform="translate(-665.047 -3034.906)" fill="red"/></g><g transform="translate(839 3192.627)"><path d="M821.452,3158.1c-1.929,0-3.253-1.808-3.282-5.076,0-3.329,1.443-5.138,3.451-5.138,2.067,0,3.268,1.855,3.268,5,0,3.36-1.262,5.213-3.42,5.213Zm.076-1.032c1.354,0,2.007-1.6,2.007-4.12,0-2.432-.608-4.027-2.007-4.027-1.215,0-2.005,1.551-2.005,4.027-.031,2.569.759,4.12,1.99,4.12Z" transform="translate(-818.17 -3147.89)" fill="red"/><path d="M826.118,3157.1a.891.891,0,0,1-.882-.957.908.908,0,0,1,.913-.959.887.887,0,0,1,.894.959.9.9,0,0,1-.91.957Z" transform="translate(-817.194 -3146.883)" fill="red"/><path d="M828.231,3156.417a4.606,4.606,0,0,0,2.189.609c1.7,0,2.249-1.08,2.235-1.917-.015-1.384-1.262-1.975-2.554-1.975h-.744v-1h.744c.973,0,2.2-.5,2.2-1.672,0-.791-.5-1.491-1.735-1.491a3.634,3.634,0,0,0-1.974.654l-.365-.971a4.8,4.8,0,0,1,2.6-.761c1.945,0,2.827,1.155,2.827,2.355a2.476,2.476,0,0,1-1.825,2.341v.031a2.546,2.546,0,0,1,2.2,2.523c0,1.582-1.246,2.964-3.6,2.964a5.035,5.035,0,0,1-2.568-.667Z" transform="translate(-816.831 -3147.89)" fill="red"/></g><g transform="translate(804.157 3195.336)"><rect width="30.381" height="1.655" transform="translate(0 1.977)" fill="red"/><g transform="translate(27.085)"><path d="M811.354,3155.881l2.807-2.806-2.807-2.805h2.382l2.805,2.805-2.805,2.806Z" transform="translate(-811.354 -3150.27)" fill="red"/></g></g></g></g></svg>