<svg xmlns="http://www.w3.org/2000/svg" width="714.753" height="976.22" viewBox="0 0 714.753 976.22"><g transform="translate(5494.17 -4276.897)"><rect width="714.753" height="976.22" transform="translate(-5494.17 4276.897)" fill="#fff"/><path d="M-5261.557,4541.473" fill="none" stroke="#7a1d47" stroke-linecap="round" stroke-linejoin="round" stroke-width="2.058"/><line x1="191.765" transform="translate(-5233.108 5247.327)" fill="none" stroke="#7a1d47" stroke-linecap="round" stroke-linejoin="round" stroke-width="2.058"/><path d="M-5261.217,4849.892" fill="none" stroke="#7a1d47" stroke-miterlimit="10" stroke-width="1.796"/><path d="M-5023.953,5247.327" fill="none" stroke="#7a1d47" stroke-miterlimit="10" stroke-width="1.796"/><path d="M-5012.751,4541.473h1.019v1.563" fill="none" stroke="#7a1d47" stroke-miterlimit="10" stroke-width="1.796"/><path d="M-5053.059,4499.723" fill="none" stroke="#7a1d47" stroke-miterlimit="10" stroke-width="1.796"/><path d="M-5237.627,4316.683" fill="none" stroke="#7a1d47" stroke-miterlimit="10" stroke-width="1.796"/><path d="M-5057.6,4541.473" fill="none" stroke="#7a1d47" stroke-miterlimit="10" stroke-width="1.796"/><path d="M-5264.7,4290.656" fill="none" stroke="#7a1d47" stroke-miterlimit="10" stroke-width="1.796"/><path d="M-5233.108,5247.327l-12.538-397.435-15.911-308.419c2.037-107.431,23.93-224.79,23.93-224.79l185.04,11.35,11.244,170.8" fill="none" stroke="#7a1d47" stroke-linecap="round" stroke-linejoin="round" stroke-width="1.796"/><path d="M-5138.087,4541.473v705.854" fill="none" stroke="#7a1d47" stroke-linecap="round" stroke-linejoin="round" stroke-width="1.796"/><path d="M-5060.951,4507.476" fill="none" stroke="#7a1d47" stroke-linecap="round" stroke-linejoin="round" stroke-width="1.796"/><path d="M3.133-4.227V0H1.156V-11.375H5.508a4.4,4.4,0,0,1,3.027.992A3.334,3.334,0,0,1,9.656-7.758a3.224,3.224,0,0,1-1.1,2.6,4.617,4.617,0,0,1-3.074.93Zm0-1.586H5.508a2.339,2.339,0,0,0,1.609-.5,1.823,1.823,0,0,0,.555-1.434,1.967,1.967,0,0,0-.562-1.473,2.168,2.168,0,0,0-1.547-.566H3.133ZM14.922.156A3.928,3.928,0,0,1,12-.98a4.124,4.124,0,0,1-1.121-3.027v-.234A5.072,5.072,0,0,1,11.363-6.5a3.716,3.716,0,0,1,1.371-1.551A3.625,3.625,0,0,1,14.7-8.609a3.318,3.318,0,0,1,2.668,1.1,4.658,4.658,0,0,1,.941,3.117v.766H12.789a2.539,2.539,0,0,0,.7,1.656,2.1,2.1,0,0,0,1.543.609,2.571,2.571,0,0,0,2.125-1.055l1.023.977A3.418,3.418,0,0,1,16.824-.262,4.244,4.244,0,0,1,14.922.156ZM14.7-7.086a1.6,1.6,0,0,0-1.262.547,2.835,2.835,0,0,0-.613,1.523h3.617v-.141A2.307,2.307,0,0,0,15.93-6.6,1.586,1.586,0,0,0,14.7-7.086Zm9.516.367a4.7,4.7,0,0,0-.773-.062,1.741,1.741,0,0,0-1.758,1V0h-1.9V-8.453h1.813l.047.945a2.139,2.139,0,0,1,1.906-1.1,1.777,1.777,0,0,1,.672.109Zm2.961-1.734.055.977a3.039,3.039,0,0,1,2.461-1.133q2.641,0,2.688,3.023V0h-1.9V-5.477a1.741,1.741,0,0,0-.348-1.191,1.462,1.462,0,0,0-1.137-.387,1.829,1.829,0,0,0-1.711,1.039V0h-1.9V-8.453ZM38.031.156A3.928,3.928,0,0,1,35.105-.98a4.124,4.124,0,0,1-1.121-3.027v-.234A5.072,5.072,0,0,1,34.473-6.5a3.716,3.716,0,0,1,1.371-1.551,3.625,3.625,0,0,1,1.969-.555,3.318,3.318,0,0,1,2.668,1.1,4.658,4.658,0,0,1,.941,3.117v.766H35.9a2.539,2.539,0,0,0,.7,1.656,2.1,2.1,0,0,0,1.543.609,2.571,2.571,0,0,0,2.125-1.055l1.023.977A3.418,3.418,0,0,1,39.934-.262,4.244,4.244,0,0,1,38.031.156ZM37.8-7.086a1.6,1.6,0,0,0-1.262.547,2.835,2.835,0,0,0-.613,1.523h3.617v-.141A2.307,2.307,0,0,0,39.039-6.6,1.586,1.586,0,0,0,37.8-7.086Zm9.516.367a4.7,4.7,0,0,0-.773-.062,1.741,1.741,0,0,0-1.758,1V0h-1.9V-8.453H44.7l.047.945a2.139,2.139,0,0,1,1.906-1.1,1.777,1.777,0,0,1,.672.109ZM53.336,0a2.93,2.93,0,0,1-.219-.789A2.955,2.955,0,0,1,50.9.156,2.982,2.982,0,0,1,48.82-.57a2.325,2.325,0,0,1-.8-1.8,2.4,2.4,0,0,1,1-2.074,4.865,4.865,0,0,1,2.871-.723h1.164v-.555a1.481,1.481,0,0,0-.367-1.051,1.456,1.456,0,0,0-1.117-.395,1.672,1.672,0,0,0-1.062.324,1,1,0,0,0-.414.824H48.2a2.107,2.107,0,0,1,.461-1.3,3.071,3.071,0,0,1,1.254-.949,4.4,4.4,0,0,1,1.77-.344,3.547,3.547,0,0,1,2.367.746,2.661,2.661,0,0,1,.906,2.1v3.813a4.321,4.321,0,0,0,.32,1.82V0ZM51.25-1.367a2.16,2.16,0,0,0,1.059-.273,1.827,1.827,0,0,0,.746-.734V-3.969H52.031a2.8,2.8,0,0,0-1.586.367,1.189,1.189,0,0,0-.531,1.039,1.109,1.109,0,0,0,.363.871A1.407,1.407,0,0,0,51.25-1.367Zm9.32-2.922a5.026,5.026,0,0,1,.906-3.137,2.9,2.9,0,0,1,2.43-1.184,2.759,2.759,0,0,1,2.172.938V-12h1.9V0H66.258l-.094-.875A2.8,2.8,0,0,1,63.891.156a2.887,2.887,0,0,1-2.4-1.2A5.21,5.21,0,0,1,60.57-4.289Zm1.9.164a3.519,3.519,0,0,0,.5,2.012,1.61,1.61,0,0,0,1.41.723,1.793,1.793,0,0,0,1.7-1.039V-6.039a1.766,1.766,0,0,0-1.687-1.016,1.622,1.622,0,0,0-1.422.73A3.919,3.919,0,0,0,62.469-4.125ZM73.68.156A3.928,3.928,0,0,1,70.754-.98a4.124,4.124,0,0,1-1.121-3.027v-.234A5.072,5.072,0,0,1,70.121-6.5a3.716,3.716,0,0,1,1.371-1.551,3.625,3.625,0,0,1,1.969-.555,3.318,3.318,0,0,1,2.668,1.1,4.658,4.658,0,0,1,.941,3.117v.766H71.547a2.539,2.539,0,0,0,.7,1.656,2.1,2.1,0,0,0,1.543.609,2.571,2.571,0,0,0,2.125-1.055l1.023.977A3.418,3.418,0,0,1,75.582-.262,4.244,4.244,0,0,1,73.68.156Zm-.227-7.242a1.6,1.6,0,0,0-1.262.547,2.835,2.835,0,0,0-.613,1.523H75.2v-.141A2.307,2.307,0,0,0,74.688-6.6,1.586,1.586,0,0,0,73.453-7.086ZM80.563,0h-1.9V-12h1.9ZM87.68,0a2.93,2.93,0,0,1-.219-.789,2.955,2.955,0,0,1-2.219.945A2.982,2.982,0,0,1,83.164-.57a2.325,2.325,0,0,1-.8-1.8,2.4,2.4,0,0,1,1-2.074,4.865,4.865,0,0,1,2.871-.723H87.4v-.555a1.481,1.481,0,0,0-.367-1.051,1.456,1.456,0,0,0-1.117-.395,1.672,1.672,0,0,0-1.062.324,1,1,0,0,0-.414.824h-1.9A2.107,2.107,0,0,1,83-7.316a3.071,3.071,0,0,1,1.254-.949,4.4,4.4,0,0,1,1.77-.344,3.547,3.547,0,0,1,2.367.746,2.661,2.661,0,0,1,.906,2.1v3.813a4.321,4.321,0,0,0,.32,1.82V0ZM85.594-1.367a2.159,2.159,0,0,0,1.059-.273,1.827,1.827,0,0,0,.746-.734V-3.969H86.375a2.8,2.8,0,0,0-1.586.367,1.189,1.189,0,0,0-.531,1.039,1.109,1.109,0,0,0,.363.871A1.407,1.407,0,0,0,85.594-1.367Zm8.07-9.141v2.055h1.492v1.406H93.664v4.719a1.039,1.039,0,0,0,.191.7.888.888,0,0,0,.684.215,2.924,2.924,0,0,0,.664-.078V-.023a4.676,4.676,0,0,1-1.25.18q-2.188,0-2.187-2.414V-7.047H90.375V-8.453h1.391v-2.055ZM100.328.156A3.928,3.928,0,0,1,97.4-.98a4.124,4.124,0,0,1-1.121-3.027v-.234A5.072,5.072,0,0,1,96.77-6.5a3.716,3.716,0,0,1,1.371-1.551,3.625,3.625,0,0,1,1.969-.555,3.318,3.318,0,0,1,2.668,1.1,4.658,4.658,0,0,1,.941,3.117v.766H98.2a2.539,2.539,0,0,0,.7,1.656,2.1,2.1,0,0,0,1.543.609,2.571,2.571,0,0,0,2.125-1.055l1.023.977A3.418,3.418,0,0,1,102.23-.262,4.244,4.244,0,0,1,100.328.156ZM100.1-7.086a1.6,1.6,0,0,0-1.262.547,2.835,2.835,0,0,0-.613,1.523h3.617v-.141a2.307,2.307,0,0,0-.508-1.441A1.586,1.586,0,0,0,100.1-7.086Zm9.516.367a4.7,4.7,0,0,0-.773-.062,1.741,1.741,0,0,0-1.758,1V0h-1.9V-8.453H107l.047.945a2.139,2.139,0,0,1,1.906-1.1,1.777,1.777,0,0,1,.672.109ZM115.633,0a2.93,2.93,0,0,1-.219-.789A2.955,2.955,0,0,1,113.2.156a2.982,2.982,0,0,1-2.078-.727,2.325,2.325,0,0,1-.8-1.8,2.4,2.4,0,0,1,1-2.074,4.865,4.865,0,0,1,2.871-.723h1.164v-.555a1.481,1.481,0,0,0-.367-1.051,1.456,1.456,0,0,0-1.117-.395,1.672,1.672,0,0,0-1.062.324,1,1,0,0,0-.414.824h-1.9a2.107,2.107,0,0,1,.461-1.3,3.071,3.071,0,0,1,1.254-.949,4.4,4.4,0,0,1,1.77-.344,3.547,3.547,0,0,1,2.367.746,2.661,2.661,0,0,1,.906,2.1v3.813a4.321,4.321,0,0,0,.32,1.82V0Zm-2.086-1.367a2.159,2.159,0,0,0,1.059-.273,1.827,1.827,0,0,0,.746-.734V-3.969h-1.023a2.8,2.8,0,0,0-1.586.367,1.189,1.189,0,0,0-.531,1.039,1.109,1.109,0,0,0,.363.871A1.407,1.407,0,0,0,113.547-1.367Z" transform="translate(-5204.51 4518.024)" fill="#161615"/><circle cx="3.14" cy="3.14" r="3.14" transform="translate(-5240.628 4313.543)" fill="#b13182"/><circle cx="3.14" cy="3.14" r="3.14" transform="translate(-5141.227 4538.492)" fill="#b13182"/><circle cx="3.14" cy="3.14" r="3.14" transform="translate(-5264.696 4538.492)" fill="#b13182"/><circle cx="3.14" cy="3.14" r="3.14" transform="translate(-5141.227 5244.187)" fill="#b13182"/><circle cx="3.14" cy="3.14" r="3.14" transform="translate(-5236.184 5244.187)" fill="#b13182"/><path d="M-5012.077,4541.084" fill="none" stroke="#7a1d47" stroke-linecap="round" stroke-linejoin="round" stroke-width="1.796"/><path d="M-5041.343,5247.327h7.787l4.681-397.435s3.03-186.78,17.142-308.419" fill="none" stroke="#7a1d47" stroke-linecap="round" stroke-linejoin="round" stroke-width="1.796"/><circle cx="3.14" cy="3.14" r="3.14" transform="translate(-5036.527 5244.187)" fill="#b13182"/><path d="M-5012.03,4541.473s-26.945-6.793-29.313-42.7" fill="none" stroke="#7a1d47" stroke-linecap="round" stroke-linejoin="round" stroke-width="2.058"/><circle cx="3.14" cy="3.14" r="3.14" transform="translate(-5044.482 4495.635)" fill="#b13182"/><circle cx="3.14" cy="3.14" r="3.14" transform="translate(-5056.199 4324.893)" fill="#b13182"/><circle cx="3.14" cy="3.14" r="3.14" transform="translate(-5015.17 4538.333)" fill="#b13182"/></g></svg>