<svg xmlns="http://www.w3.org/2000/svg" width="398.712" height="490.072" viewBox="0 0 398.712 490.072"><g transform="translate(-600 -16757)"><g transform="translate(2650.995 15147.727)"><path d="M-2033.726,1613.121l299.049,12.636,12.577,272.813s5.806,59.373,66.028,64.091l-17.173,132.295H-2035.54l-11.609-133.74v-18.14l1.813-46.8,3.991-150.552Z" transform="translate(0.274 0.274)" fill="#fff" stroke="#0063af" stroke-miterlimit="10" stroke-width="2.216"/><path d="M-1879.091,2014.149c56.543-3.52,55.656-52.456,55.656-52.456V1622.128l-.021-.123-210.27-8.884-7.619,132.6-3.991,150.552-1.813,46.8v18.145l4.595,52.939Z" transform="translate(0.274 0.274)" fill="#fff" stroke="#0063af" stroke-miterlimit="10" stroke-width="2.216"/><path d="M-2041.464,1745.718l-3.991,150.552-.02.514.213.361,153.384-275.525-.174-2.273-.012-.236-141.781-5.99Z" transform="translate(0.393 0.274)" fill="#ed979d" stroke="#0063af" stroke-miterlimit="10" stroke-width="2.216"/><circle cx="4.12" cy="4.12" r="4.12" transform="translate(-2037.573 1609.274)" fill="#0063af"/><circle cx="4.12" cy="4.12" r="4.12" transform="translate(-2045.329 1742.716)" fill="#0063af"/><circle cx="4.12" cy="4.12" r="4.12" transform="translate(-2048.989 1893.3)" fill="#0063af"/><circle cx="4.12" cy="4.12" r="4.12" transform="translate(-2050.995 1938.739)" fill="#0063af"/><circle cx="4.12" cy="4.12" r="4.12" transform="translate(-2050.995 1957.602)" fill="#0063af"/><circle cx="4.12" cy="4.12" r="4.12" transform="translate(-2039.477 2091.105)" fill="#0063af"/><circle cx="4.12" cy="4.12" r="4.12" transform="translate(-2046.875 2010.307)" fill="#0063af"/><circle cx="4.12" cy="4.12" r="4.12" transform="translate(-1855.458 2091.105)" fill="#0063af"/><circle cx="4.12" cy="4.12" r="4.12" transform="translate(-1677.696 2091.105)" fill="#0063af"/><circle cx="4.12" cy="4.12" r="4.12" transform="translate(-1660.523 1959.297)" fill="#0063af"/><circle cx="4.12" cy="4.12" r="4.12" transform="translate(-1726.429 1894.419)" fill="#0063af"/><circle cx="4.12" cy="4.12" r="4.12" transform="translate(-1855.458 1957.844)" fill="#0063af"/><circle cx="4.12" cy="4.12" r="4.12" transform="translate(-1882.938 2010.307)" fill="#0063af"/><circle cx="4.12" cy="4.12" r="4.12" transform="translate(-1827.281 1957.844)" fill="#0063af"/><circle cx="4.12" cy="4.12" r="4.12" transform="translate(-1983.942 1611.379)" fill="#0063af"/><circle cx="4.12" cy="4.12" r="4.12" transform="translate(-1895.605 1615.501)" fill="#0063af"/><circle cx="4.12" cy="4.12" r="4.12" transform="translate(-1827.281 1618.281)" fill="#0063af"/><circle cx="4.12" cy="4.12" r="4.12" transform="translate(-1775.601 1757.763)" fill="#0063af"/><circle cx="4.12" cy="4.12" r="4.12" transform="translate(-1827.281 1811.616)" fill="#0063af"/><circle cx="4.12" cy="4.12" r="4.12" transform="translate(-1813.416 1773.169)" fill="#0063af"/><circle cx="4.12" cy="4.12" r="4.12" transform="translate(-1732.765 1757.763)" fill="#0063af"/><circle cx="4.12" cy="4.12" r="4.12" transform="translate(-1739.101 1621.894)" fill="#0063af"/><line y2="133.261" transform="translate(-1851.338 1961.964)" fill="none" stroke="#0063af" stroke-miterlimit="10" stroke-width="2.216"/><circle cx="4.12" cy="4.12" r="4.12" transform="translate(-1968.119 1674.026)" fill="#0063af"/><circle cx="4.12" cy="4.12" r="4.12" transform="translate(-1968.119 1957.844)" fill="#0063af"/><line y2="283.022" transform="translate(-1963.999 1678.146)" fill="none" stroke="#0063af" stroke-miterlimit="10" stroke-width="2.216"/><line x2="45.835" transform="translate(-1773.876 1761.883)" fill="none" stroke="#0063af" stroke-miterlimit="10" stroke-width="2.216"/><path d="M-1786.643,1751.73s-50.457-1.071-51.679,53.853" transform="translate(15.158 10.153)" fill="none" stroke="#0063af" stroke-miterlimit="10" stroke-width="2.216"/><path d="M-1890.272,1987.467" transform="translate(11.455 26.955)" fill="none" stroke="#0063af" stroke-miterlimit="10" stroke-width="2.216"/><g transform="translate(-1909.931 1899.149)" style="isolation:isolate"><path d="M8.193-5.122H3.329V0h-2.1V-12.086H8.907v1.693H3.329V-6.8H8.193Zm1.627.548a5.3,5.3,0,0,1,.523-2.378,3.819,3.819,0,0,1,1.469-1.627,4.14,4.14,0,0,1,2.175-.569,3.923,3.923,0,0,1,2.951,1.17,4.6,4.6,0,0,1,1.224,3.1l.008.473a5.343,5.343,0,0,1-.51,2.374A3.773,3.773,0,0,1,16.2-.407,4.17,4.17,0,0,1,14,.166,3.9,3.9,0,0,1,10.961-1.1,4.848,4.848,0,0,1,9.82-4.474Zm2.017.174a3.619,3.619,0,0,0,.573,2.171A1.862,1.862,0,0,0,14-1.444a1.842,1.842,0,0,0,1.59-.8,4,4,0,0,0,.569-2.333,3.572,3.572,0,0,0-.585-2.158,1.869,1.869,0,0,0-1.59-.8,1.852,1.852,0,0,0-1.569.784A3.922,3.922,0,0,0,11.837-4.4Zm9.911-4.582.058,1.038a3.229,3.229,0,0,1,2.615-1.2q2.806,0,2.855,3.212V0H25.259V-5.819a1.85,1.85,0,0,0-.369-1.266A1.554,1.554,0,0,0,23.682-7.5a1.944,1.944,0,0,0-1.818,1.1V0H19.847V-8.981Zm7.205,4.424a5.34,5.34,0,0,1,.963-3.333A3.085,3.085,0,0,1,32.5-9.147a2.931,2.931,0,0,1,2.308,1v-4.6h2.017V0H35l-.1-.93a2.973,2.973,0,0,1-2.416,1.1A3.068,3.068,0,0,1,29.928-1.1,5.535,5.535,0,0,1,28.953-4.557Zm2.017.174A3.739,3.739,0,0,0,31.5-2.245a1.71,1.71,0,0,0,1.5.768,1.9,1.9,0,0,0,1.81-1.1V-6.417A1.876,1.876,0,0,0,33.012-7.5a1.723,1.723,0,0,0-1.511.776A4.163,4.163,0,0,0,30.97-4.383Zm7.579-.191a5.3,5.3,0,0,1,.523-2.378,3.819,3.819,0,0,1,1.469-1.627,4.14,4.14,0,0,1,2.175-.569,3.923,3.923,0,0,1,2.951,1.17,4.6,4.6,0,0,1,1.224,3.1L46.9-4.4a5.343,5.343,0,0,1-.51,2.374A3.773,3.773,0,0,1,44.928-.407a4.17,4.17,0,0,1-2.2.573A3.9,3.9,0,0,1,39.69-1.1a4.848,4.848,0,0,1-1.141-3.374Zm2.017.174a3.619,3.619,0,0,0,.573,2.171,1.862,1.862,0,0,0,1.594.784,1.842,1.842,0,0,0,1.59-.8,4,4,0,0,0,.569-2.333,3.572,3.572,0,0,0-.585-2.158,1.869,1.869,0,0,0-1.59-.8,1.852,1.852,0,0,0-1.569.784A3.922,3.922,0,0,0,40.566-4.4ZM58.172,0H56.163V-9.7L53.2-8.691v-1.7l4.715-1.735h.257Z" transform="translate(0 16)" fill="#111211"/></g></g></g></svg>