<svg xmlns="http://www.w3.org/2000/svg" width="295" height="144" viewBox="0 0 295 144"><g transform="translate(-600 -4370)"><g transform="translate(1923.694 4688.48)"><path d="M-1246.79-304.635s-21.122,7.236-23.469,11.93-13.1,33.835-13.1,33.835l18.286,8.214,2.444-5.671s.978,30.9.587,33.835-4.107,30.51,1.174,36.378,41.658,4.107,42.636,4.5,18.189-3.325,19.949-9.583-1.369-65.909-1.369-65.909l4.107,6.063s15.842-6.454,16.428-6.649-5.476-31.292-16.82-38.724-19.948-8.214-19.948-8.214l-4.425-6.845H-1241l-5.065,5.984Z" fill="none" stroke="#636363" stroke-linecap="round" stroke-linejoin="round" stroke-width="1"/><path d="M-1137.533-304.635s-21.122,7.236-23.469,11.93-13.1,33.835-13.1,33.835l18.286,8.214,2.445-5.671s.978,30.9.587,33.835-4.108,30.51,1.173,36.378,41.658,4.107,42.636,4.5,18.189-3.325,19.948-9.583-1.369-65.909-1.369-65.909l4.108,6.063s15.842-6.454,16.428-6.649-5.476-31.292-16.82-38.724-19.949-8.214-19.949-8.214l-4.424-6.845h-20.682l-5.065,5.984Z" transform="translate(3.816)" fill="none" stroke="#636363" stroke-linecap="round" stroke-linejoin="round" stroke-width="1"/><path d="M-1247.7-305.042s5.479,14.873,6.848,15.7l7.579-7.725s-11.3-9.462-9.148-14.217" transform="translate(1.246 0.007)" fill="none" stroke="#636363" stroke-linecap="round" stroke-linejoin="round" stroke-width="1"/><path d="M-1222.22-311.28s1.321,7.566-8.654,13.287l7.627,8.654s6.332-10.873,6.026-15.239" transform="translate(1.833 0.007)" fill="none" stroke="#636363" stroke-linecap="round" stroke-linejoin="round" stroke-width="1"/><path d="M-1222.76-277.641c.11-.036,15.879,0,15.879,0v15.072l-7.94,3.778-7.939-3.631Z" transform="translate(2.117 1.181)" fill="none" stroke="#636363" stroke-linecap="round" stroke-linejoin="round" stroke-width="1"/><path d="M-1266.044-297.142s.168,12.15.755,16.453,2.017,22.688,2.053,23.86" transform="translate(0.605 0.501)" fill="none" stroke="#636363" stroke-linecap="round" stroke-linejoin="round" stroke-width="1"/><path d="M-1199.136-297.162s.42,15.4-.459,17.818-3.044,18.592-2.884,21.733" transform="translate(2.825 0.5)" fill="none" stroke="#636363" stroke-linecap="round" stroke-linejoin="round" stroke-width="1"/><line y2="111.149" transform="translate(-1233.588 -292.852)" fill="none" stroke="#636363" stroke-linecap="round" stroke-linejoin="round" stroke-width="1"/><line x1="1.32" y1="111.199" transform="translate(-1229.041 -292.852)" fill="none" stroke="#636363" stroke-linecap="round" stroke-linejoin="round" stroke-width="1"/><line y1="8.48" x2="20.559" transform="translate(-1265.439 -300.892)" fill="none" stroke="#636363" stroke-linecap="round" stroke-linejoin="round" stroke-width="1"/><line x2="19.984" y2="7.891" transform="translate(-1216.217 -300.302)" fill="none" stroke="#636363" stroke-linecap="round" stroke-linejoin="round" stroke-width="1"/><line x2="13.984" transform="translate(-1237.475 -302.463)" fill="none" stroke="#636363" stroke-linecap="round" stroke-linejoin="round" stroke-width="1"/><path d="M-1108.729-304.446a49.22,49.22,0,0,1-29.333-1.252" transform="translate(5.075 0.202)" fill="none" stroke="#636363" stroke-linecap="round" stroke-linejoin="round" stroke-width="1"/><line x2="68.354" transform="translate(-1151.669 -287.718)" fill="none" stroke="#636363" stroke-linecap="round" stroke-linejoin="round" stroke-width="1"/><path d="M-1089.509-296.929s.139,15.743-1.719,20.242-1.956,19.856-1.956,19.856" transform="translate(6.642 0.508)" fill="none" stroke="#636363" stroke-linecap="round" stroke-linejoin="round" stroke-width="1"/><path d="M-1156.491-296.929s.587,16.037.88,21.317,1.663,20.1,1.663,20.1" transform="translate(4.431 0.508)" fill="none" stroke="#636363" stroke-linecap="round" stroke-linejoin="round" stroke-width="1"/><path d="M-1143.5-280.525l1.613-7.994v17.749" transform="translate(4.885 0.802)" fill="none" stroke="#636363" stroke-linecap="round" stroke-linejoin="round" stroke-width="1"/><path d="M-1102.484-280.525l-1.614-7.994v17.749" transform="translate(6.261 0.802)" fill="none" stroke="#636363" stroke-linecap="round" stroke-linejoin="round" stroke-width="1"/><ellipse cx="30.154" cy="18.582" rx="30.154" ry="18.582" transform="translate(-1148.475 -297.426)" fill="none" stroke="#bf3976" stroke-linecap="round" stroke-linejoin="round" stroke-width="1"/></g><rect width="295" height="144" transform="translate(600 4370)" fill="none"/></g></svg>