<svg xmlns="http://www.w3.org/2000/svg" width="714.753" height="976.22" viewBox="0 0 714.753 976.22"><g transform="translate(5494.17 -2996.461)"><rect width="714.753" height="976.22" transform="translate(-5494.17 2996.461)" fill="#fff"/><rect width="220.214" height="930.644" transform="translate(-5095.832 3036.246)" fill="none" stroke="#7a1d47" stroke-linecap="round" stroke-linejoin="round" stroke-width="2.058"/><path d="M-5095.492,3569.455" fill="none" stroke="#7a1d47" stroke-miterlimit="10" stroke-width="1.796"/><path d="M-4858.228,3966.89" fill="none" stroke="#7a1d47" stroke-miterlimit="10" stroke-width="1.796"/><path d="M-4887.334,3261.037h41.326v1.564" fill="none" stroke="#7a1d47" stroke-miterlimit="10" stroke-width="1.796"/><path d="M-4887.334,3219.286" fill="none" stroke="#7a1d47" stroke-miterlimit="10" stroke-width="1.796"/><path d="M-5071.9,3036.246" fill="none" stroke="#7a1d47" stroke-miterlimit="10" stroke-width="1.796"/><path d="M-4891.878,3261.037" fill="none" stroke="#7a1d47" stroke-miterlimit="10" stroke-width="1.796"/><line x1="212.136" transform="translate(-5095.832 3261.037)" fill="none" stroke="#7a1d47" stroke-miterlimit="10" stroke-width="1.796"/><path d="M-5299.934,3036.246" fill="none" stroke="#7a1d47" stroke-miterlimit="10" stroke-width="1.796"/><path d="M-5098.971,3010.219" fill="none" stroke="#7a1d47" stroke-miterlimit="10" stroke-width="1.796"/><path d="M-5067.383,3966.89l-12.538-397.435-15.911-308.418c2.037-107.431,23.93-224.791,23.93-224.791l185.04,11.35,11.244,170.8" fill="none" stroke="#7a1d47" stroke-linecap="round" stroke-linejoin="round" stroke-width="1.796"/><line x2="232.343" transform="translate(-5095.492 3569.455)" fill="none" stroke="#7a1d47" stroke-linecap="round" stroke-linejoin="round" stroke-width="1.796"/><path d="M-4972.362,3261.037V3966.89" fill="none" stroke="#7a1d47" stroke-linecap="round" stroke-linejoin="round" stroke-width="1.796"/><path d="M-4895.226,3227.04" fill="none" stroke="#7a1d47" stroke-linecap="round" stroke-linejoin="round" stroke-width="1.796"/><path d="M3.133-1.578H8.3V0H1.156V-11.375H3.133ZM10.813-2a1.084,1.084,0,0,1,.82.3,1.045,1.045,0,0,1,.289.754,1.008,1.008,0,0,1-.289.738,1.1,1.1,0,0,1-.82.293,1.1,1.1,0,0,1-.8-.289.991.991,0,0,1-.3-.742A1.045,1.045,0,0,1,10-1.7,1.074,1.074,0,0,1,10.813-2ZM26.945-3.7A4.107,4.107,0,0,1,25.6-.863,4.581,4.581,0,0,1,22.484.156,4.436,4.436,0,0,1,20.09-.488a4.231,4.231,0,0,1-1.6-1.832,6.611,6.611,0,0,1-.586-2.758V-6.141a6.659,6.659,0,0,1,.57-2.836,4.3,4.3,0,0,1,1.637-1.891,4.566,4.566,0,0,1,2.465-.664,4.386,4.386,0,0,1,3.031,1.023,4.276,4.276,0,0,1,1.336,2.891H24.977a2.81,2.81,0,0,0-.715-1.77,2.363,2.363,0,0,0-1.684-.543,2.309,2.309,0,0,0-1.98.941,4.7,4.7,0,0,0-.707,2.762v1.008a4.988,4.988,0,0,0,.66,2.813,2.191,2.191,0,0,0,1.934.969,2.555,2.555,0,0,0,1.75-.523A2.729,2.729,0,0,0,24.977-3.7Zm3.6,3.7h-1.9V-8.453h1.9ZM28.531-10.648a1.008,1.008,0,0,1,.277-.727,1.048,1.048,0,0,1,.793-.289,1.061,1.061,0,0,1,.8.289,1,1,0,0,1,.281.727.977.977,0,0,1-.281.715,1.069,1.069,0,0,1-.8.285,1.056,1.056,0,0,1-.793-.285A.984.984,0,0,1,28.531-10.648Zm5.844,2.2.055.977a3.039,3.039,0,0,1,2.461-1.133q2.641,0,2.688,3.023V0h-1.9V-5.477a1.741,1.741,0,0,0-.348-1.191A1.462,1.462,0,0,0,36.2-7.055a1.829,1.829,0,0,0-1.711,1.039V0h-1.9V-8.453Zm9.516-2.055v2.055h1.492v1.406H43.891v4.719a1.039,1.039,0,0,0,.191.7.888.888,0,0,0,.684.215,2.924,2.924,0,0,0,.664-.078V-.023a4.676,4.676,0,0,1-1.25.18q-2.187,0-2.187-2.414V-7.047H40.6V-8.453h1.391v-2.055Zm8.063,9.68a2.944,2.944,0,0,1-2.375.984,2.624,2.624,0,0,1-2.082-.8,3.423,3.423,0,0,1-.707-2.328V-8.453h1.9V-3q0,1.609,1.336,1.609a1.876,1.876,0,0,0,1.867-.992v-6.07h1.9V0H52Zm8.2-5.891a4.7,4.7,0,0,0-.773-.062,1.741,1.741,0,0,0-1.758,1V0h-1.9V-8.453h1.813l.047.945a2.139,2.139,0,0,1,1.906-1.1,1.777,1.777,0,0,1,.672.109ZM66.164,0a2.93,2.93,0,0,1-.219-.789,2.955,2.955,0,0,1-2.219.945A2.982,2.982,0,0,1,61.648-.57a2.325,2.325,0,0,1-.8-1.8,2.4,2.4,0,0,1,1-2.074,4.865,4.865,0,0,1,2.871-.723h1.164v-.555a1.481,1.481,0,0,0-.367-1.051A1.456,1.456,0,0,0,64.4-7.164a1.672,1.672,0,0,0-1.062.324,1,1,0,0,0-.414.824h-1.9a2.107,2.107,0,0,1,.461-1.3,3.071,3.071,0,0,1,1.254-.949,4.4,4.4,0,0,1,1.77-.344,3.547,3.547,0,0,1,2.367.746,2.661,2.661,0,0,1,.906,2.1v3.813a4.321,4.321,0,0,0,.32,1.82V0ZM64.078-1.367a2.159,2.159,0,0,0,1.059-.273,1.827,1.827,0,0,0,.746-.734V-3.969H64.859a2.8,2.8,0,0,0-1.586.367,1.189,1.189,0,0,0-.531,1.039,1.109,1.109,0,0,0,.363.871A1.407,1.407,0,0,0,64.078-1.367Z" transform="translate(-4998.629 3029.079)" fill="#161615"/><path d="M3.133-1.578H8.3V0H1.156V-11.375H3.133ZM10.813-2a1.084,1.084,0,0,1,.82.3,1.045,1.045,0,0,1,.289.754,1.008,1.008,0,0,1-.289.738,1.1,1.1,0,0,1-.82.293,1.1,1.1,0,0,1-.8-.289.991.991,0,0,1-.3-.742A1.045,1.045,0,0,1,10-1.7,1.074,1.074,0,0,1,10.813-2Zm7.453,2V-11.375h3.9A4.76,4.76,0,0,1,25.1-10.6a2.724,2.724,0,0,1,1.008,2.3,2.456,2.456,0,0,1-.422,1.406,2.715,2.715,0,0,1-1.234.969,2.511,2.511,0,0,1,1.426.941,2.742,2.742,0,0,1,.5,1.66A3.028,3.028,0,0,1,25.355-.859,4.467,4.467,0,0,1,22.414,0Zm1.977-5.133v3.555h2.2a2.124,2.124,0,0,0,1.453-.461,1.618,1.618,0,0,0,.523-1.281A1.623,1.623,0,0,0,22.6-5.133Zm0-1.453H22.18A2.241,2.241,0,0,0,23.621-7a1.432,1.432,0,0,0,.52-1.184,1.452,1.452,0,0,0-.48-1.219,2.426,2.426,0,0,0-1.5-.375H20.242ZM33.227,0a2.93,2.93,0,0,1-.219-.789,2.955,2.955,0,0,1-2.219.945A2.982,2.982,0,0,1,28.711-.57a2.325,2.325,0,0,1-.8-1.8,2.4,2.4,0,0,1,1-2.074,4.865,4.865,0,0,1,2.871-.723h1.164v-.555a1.481,1.481,0,0,0-.367-1.051,1.456,1.456,0,0,0-1.117-.395A1.672,1.672,0,0,0,30.4-6.84a1,1,0,0,0-.414.824h-1.9a2.107,2.107,0,0,1,.461-1.3A3.071,3.071,0,0,1,29.8-8.266a4.4,4.4,0,0,1,1.77-.344,3.547,3.547,0,0,1,2.367.746,2.661,2.661,0,0,1,.906,2.1v3.813a4.321,4.321,0,0,0,.32,1.82V0ZM31.141-1.367A2.159,2.159,0,0,0,32.2-1.641a1.827,1.827,0,0,0,.746-.734V-3.969H31.922a2.8,2.8,0,0,0-1.586.367A1.189,1.189,0,0,0,29.8-2.562a1.109,1.109,0,0,0,.363.871A1.407,1.407,0,0,0,31.141-1.367ZM41.57-2.3a.861.861,0,0,0-.418-.773,4.445,4.445,0,0,0-1.387-.469,7.129,7.129,0,0,1-1.617-.516,2.158,2.158,0,0,1-1.422-1.992,2.25,2.25,0,0,1,.922-1.828,3.644,3.644,0,0,1,2.344-.734,3.792,3.792,0,0,1,2.449.75,2.38,2.38,0,0,1,.934,1.945h-1.9a1.17,1.17,0,0,0-.406-.91,1.557,1.557,0,0,0-1.078-.363,1.682,1.682,0,0,0-1.02.289.911.911,0,0,0-.395.773.769.769,0,0,0,.367.68,5.049,5.049,0,0,0,1.484.488,7.027,7.027,0,0,1,1.754.586,2.484,2.484,0,0,1,.945.816A2.082,2.082,0,0,1,43.438-2.4a2.2,2.2,0,0,1-.945,1.848,4.031,4.031,0,0,1-2.477.707,4.371,4.371,0,0,1-1.852-.375A3.047,3.047,0,0,1,36.9-1.25a2.441,2.441,0,0,1-.453-1.414h1.844A1.338,1.338,0,0,0,38.8-1.629a1.973,1.973,0,0,0,1.242.363,1.92,1.92,0,0,0,1.141-.285A.883.883,0,0,0,41.57-2.3ZM48.813.156A3.928,3.928,0,0,1,45.887-.98a4.124,4.124,0,0,1-1.121-3.027v-.234A5.072,5.072,0,0,1,45.254-6.5a3.716,3.716,0,0,1,1.371-1.551,3.625,3.625,0,0,1,1.969-.555,3.318,3.318,0,0,1,2.668,1.1A4.658,4.658,0,0,1,52.2-4.391v.766H46.68a2.539,2.539,0,0,0,.7,1.656,2.1,2.1,0,0,0,1.543.609,2.571,2.571,0,0,0,2.125-1.055l1.023.977A3.418,3.418,0,0,1,50.715-.262,4.244,4.244,0,0,1,48.813.156Zm-.227-7.242a1.6,1.6,0,0,0-1.262.547,2.835,2.835,0,0,0-.613,1.523h3.617v-.141A2.307,2.307,0,0,0,49.82-6.6,1.586,1.586,0,0,0,48.586-7.086Z" transform="translate(-4999.668 3248.365)" fill="#161615"/><path d="M3.133-1.578H8.3V0H1.156V-11.375H3.133ZM10.813-2a1.084,1.084,0,0,1,.82.3,1.045,1.045,0,0,1,.289.754,1.008,1.008,0,0,1-.289.738,1.1,1.1,0,0,1-.82.293,1.1,1.1,0,0,1-.8-.289.991.991,0,0,1-.3-.742A1.045,1.045,0,0,1,10-1.7,1.074,1.074,0,0,1,10.813-2ZM22.445-4.383h-2.2V0H18.266V-11.375h4a4.656,4.656,0,0,1,3.039.883,3.122,3.122,0,0,1,1.07,2.555,3.2,3.2,0,0,1-.551,1.91,3.5,3.5,0,0,1-1.535,1.184L26.844-.1V0H24.727Zm-2.2-1.586h2.031a2.259,2.259,0,0,0,1.563-.5A1.757,1.757,0,0,0,24.4-7.852a1.871,1.871,0,0,0-.52-1.414,2.207,2.207,0,0,0-1.551-.516H20.242ZM27.711-4.3A4.984,4.984,0,0,1,28.2-6.543a3.6,3.6,0,0,1,1.383-1.531,3.9,3.9,0,0,1,2.047-.535,3.692,3.692,0,0,1,2.777,1.1,4.333,4.333,0,0,1,1.152,2.922l.008.445a5.029,5.029,0,0,1-.48,2.234A3.551,3.551,0,0,1,33.715-.383a3.925,3.925,0,0,1-2.066.539,3.667,3.667,0,0,1-2.863-1.191,4.563,4.563,0,0,1-1.074-3.176Zm1.9.164A3.406,3.406,0,0,0,30.148-2.1a1.752,1.752,0,0,0,1.5.738,1.733,1.733,0,0,0,1.5-.75,3.762,3.762,0,0,0,.535-2.2,3.362,3.362,0,0,0-.551-2.031,1.759,1.759,0,0,0-1.5-.75,1.743,1.743,0,0,0-1.477.738A3.691,3.691,0,0,0,29.609-4.141Zm7.211-.148a5.026,5.026,0,0,1,.906-3.137,2.9,2.9,0,0,1,2.43-1.184,2.759,2.759,0,0,1,2.172.938V-12h1.9V0H42.508l-.094-.875A2.8,2.8,0,0,1,40.141.156a2.887,2.887,0,0,1-2.4-1.2A5.21,5.21,0,0,1,36.82-4.289Zm1.9.164a3.519,3.519,0,0,0,.5,2.012,1.61,1.61,0,0,0,1.41.723,1.793,1.793,0,0,0,1.7-1.039V-6.039a1.766,1.766,0,0,0-1.687-1.016,1.622,1.622,0,0,0-1.422.73A3.919,3.919,0,0,0,38.719-4.125ZM48.227,0h-1.9V-8.453h1.9ZM46.211-10.648a1.008,1.008,0,0,1,.277-.727,1.048,1.048,0,0,1,.793-.289,1.061,1.061,0,0,1,.8.289,1,1,0,0,1,.281.727.977.977,0,0,1-.281.715,1.069,1.069,0,0,1-.8.285,1.056,1.056,0,0,1-.793-.285A.984.984,0,0,1,46.211-10.648ZM52.313,0h-1.9V-12h1.9ZM56.4,0H54.5V-12h1.9Zm7.117,0A2.93,2.93,0,0,1,63.3-.789a2.955,2.955,0,0,1-2.219.945A2.982,2.982,0,0,1,59-.57a2.325,2.325,0,0,1-.8-1.8,2.4,2.4,0,0,1,1-2.074,4.865,4.865,0,0,1,2.871-.723h1.164v-.555a1.481,1.481,0,0,0-.367-1.051,1.456,1.456,0,0,0-1.117-.395,1.672,1.672,0,0,0-1.062.324,1,1,0,0,0-.414.824h-1.9a2.107,2.107,0,0,1,.461-1.3,3.071,3.071,0,0,1,1.254-.949,4.4,4.4,0,0,1,1.77-.344,3.547,3.547,0,0,1,2.367.746,2.661,2.661,0,0,1,.906,2.1v3.813a4.321,4.321,0,0,0,.32,1.82V0ZM61.43-1.367a2.16,2.16,0,0,0,1.059-.273,1.827,1.827,0,0,0,.746-.734V-3.969H62.211a2.8,2.8,0,0,0-1.586.367,1.189,1.189,0,0,0-.531,1.039,1.109,1.109,0,0,0,.363.871A1.407,1.407,0,0,0,61.43-1.367Z" transform="translate(-5051.546 3562.423)" fill="#161615"/><path d="M1.156,0V-11.375H4.516a5.269,5.269,0,0,1,2.676.672A4.581,4.581,0,0,1,9-8.8a6.051,6.051,0,0,1,.641,2.828v.57A6.026,6.026,0,0,1,9-2.555,4.526,4.526,0,0,1,7.16-.664,5.513,5.513,0,0,1,4.43,0ZM3.133-9.781v8.2H4.422a2.968,2.968,0,0,0,2.387-.973,4.237,4.237,0,0,0,.848-2.793v-.633a4.347,4.347,0,0,0-.8-2.828,2.853,2.853,0,0,0-2.336-.977ZM15.148.156A3.928,3.928,0,0,1,12.223-.98,4.124,4.124,0,0,1,11.1-4.008v-.234A5.072,5.072,0,0,1,11.59-6.5a3.716,3.716,0,0,1,1.371-1.551,3.625,3.625,0,0,1,1.969-.555,3.318,3.318,0,0,1,2.668,1.1,4.658,4.658,0,0,1,.941,3.117v.766H13.016a2.539,2.539,0,0,0,.7,1.656,2.1,2.1,0,0,0,1.543.609,2.571,2.571,0,0,0,2.125-1.055l1.023.977A3.418,3.418,0,0,1,17.051-.262,4.244,4.244,0,0,1,15.148.156Zm-.227-7.242a1.6,1.6,0,0,0-1.262.547,2.835,2.835,0,0,0-.613,1.523h3.617v-.141A2.307,2.307,0,0,0,16.156-6.6,1.586,1.586,0,0,0,14.922-7.086ZM22.031,0h-1.9V-12h1.9Z" transform="translate(-4932.996 3418.901)" fill="#161615"/><path d="M1.156,0V-11.375H4.516a5.269,5.269,0,0,1,2.676.672A4.581,4.581,0,0,1,9-8.8a6.051,6.051,0,0,1,.641,2.828v.57A6.026,6.026,0,0,1,9-2.555,4.526,4.526,0,0,1,7.16-.664,5.513,5.513,0,0,1,4.43,0ZM3.133-9.781v8.2H4.422a2.968,2.968,0,0,0,2.387-.973,4.237,4.237,0,0,0,.848-2.793v-.633a4.347,4.347,0,0,0-.8-2.828,2.853,2.853,0,0,0-2.336-.977ZM15.148.156A3.928,3.928,0,0,1,12.223-.98,4.124,4.124,0,0,1,11.1-4.008v-.234A5.072,5.072,0,0,1,11.59-6.5a3.716,3.716,0,0,1,1.371-1.551,3.625,3.625,0,0,1,1.969-.555,3.318,3.318,0,0,1,2.668,1.1,4.658,4.658,0,0,1,.941,3.117v.766H13.016a2.539,2.539,0,0,0,.7,1.656,2.1,2.1,0,0,0,1.543.609,2.571,2.571,0,0,0,2.125-1.055l1.023.977A3.418,3.418,0,0,1,17.051-.262,4.244,4.244,0,0,1,15.148.156Zm-.227-7.242a1.6,1.6,0,0,0-1.262.547,2.835,2.835,0,0,0-.613,1.523h3.617v-.141A2.307,2.307,0,0,0,16.156-6.6,1.586,1.586,0,0,0,14.922-7.086ZM22.031,0h-1.9V-12h1.9Z" transform="translate(-5253.209 3418.901)" fill="#161615"/><path d="M3.133-1.578H8.3V0H1.156V-11.375H3.133ZM10.813-2a1.084,1.084,0,0,1,.82.3,1.045,1.045,0,0,1,.289.754,1.008,1.008,0,0,1-.289.738,1.1,1.1,0,0,1-.82.293,1.1,1.1,0,0,1-.8-.289.991.991,0,0,1-.3-.742A1.045,1.045,0,0,1,10-1.7,1.074,1.074,0,0,1,10.813-2ZM22.445-4.383h-2.2V0H18.266V-11.375h4a4.656,4.656,0,0,1,3.039.883,3.122,3.122,0,0,1,1.07,2.555,3.2,3.2,0,0,1-.551,1.91,3.5,3.5,0,0,1-1.535,1.184L26.844-.1V0H24.727Zm-2.2-1.586h2.031a2.259,2.259,0,0,0,1.563-.5A1.757,1.757,0,0,0,24.4-7.852a1.871,1.871,0,0,0-.52-1.414,2.207,2.207,0,0,0-1.551-.516H20.242ZM33.188-.828a2.944,2.944,0,0,1-2.375.984,2.624,2.624,0,0,1-2.082-.8,3.423,3.423,0,0,1-.707-2.328V-8.453h1.9V-3q0,1.609,1.336,1.609a1.876,1.876,0,0,0,1.867-.992v-6.07h1.9V0H33.234ZM40.68.156A3.928,3.928,0,0,1,37.754-.98a4.124,4.124,0,0,1-1.121-3.027v-.234A5.072,5.072,0,0,1,37.121-6.5a3.716,3.716,0,0,1,1.371-1.551,3.625,3.625,0,0,1,1.969-.555,3.318,3.318,0,0,1,2.668,1.1,4.658,4.658,0,0,1,.941,3.117v.766H38.547a2.539,2.539,0,0,0,.7,1.656,2.1,2.1,0,0,0,1.543.609,2.571,2.571,0,0,0,2.125-1.055l1.023.977A3.418,3.418,0,0,1,42.582-.262,4.244,4.244,0,0,1,40.68.156Zm-.227-7.242a1.6,1.6,0,0,0-1.262.547,2.835,2.835,0,0,0-.613,1.523H42.2v-.141A2.307,2.307,0,0,0,41.688-6.6,1.586,1.586,0,0,0,40.453-7.086Zm4.734,2.8a5.026,5.026,0,0,1,.906-3.137,2.9,2.9,0,0,1,2.43-1.184,2.759,2.759,0,0,1,2.172.938V-12h1.9V0H50.875l-.094-.875A2.8,2.8,0,0,1,48.508.156a2.887,2.887,0,0,1-2.4-1.2A5.21,5.21,0,0,1,45.188-4.289Zm1.9.164a3.519,3.519,0,0,0,.5,2.012,1.61,1.61,0,0,0,1.41.723A1.793,1.793,0,0,0,50.7-2.43V-6.039a1.766,1.766,0,0,0-1.687-1.016,1.622,1.622,0,0,0-1.422.73A3.919,3.919,0,0,0,47.086-4.125Zm7.133-.18a4.984,4.984,0,0,1,.492-2.238,3.6,3.6,0,0,1,1.383-1.531,3.9,3.9,0,0,1,2.047-.535,3.692,3.692,0,0,1,2.777,1.1A4.333,4.333,0,0,1,62.07-4.586l.008.445a5.029,5.029,0,0,1-.48,2.234A3.551,3.551,0,0,1,60.223-.383a3.925,3.925,0,0,1-2.066.539,3.667,3.667,0,0,1-2.863-1.191,4.563,4.563,0,0,1-1.074-3.176Zm1.9.164A3.406,3.406,0,0,0,56.656-2.1a1.752,1.752,0,0,0,1.5.738,1.733,1.733,0,0,0,1.5-.75,3.762,3.762,0,0,0,.535-2.2,3.362,3.362,0,0,0-.551-2.031,1.759,1.759,0,0,0-1.5-.75,1.743,1.743,0,0,0-1.477.738A3.691,3.691,0,0,0,56.117-4.141ZM8.375,15.059a5.033,5.033,0,0,1-.891,3.129,2.852,2.852,0,0,1-2.391,1.168,2.871,2.871,0,0,1-2.227-.914V22.45H.969v-11.7h1.75l.078.859A2.788,2.788,0,0,1,5.07,10.591,2.881,2.881,0,0,1,7.5,11.743a5.167,5.167,0,0,1,.879,3.2ZM6.484,14.9a3.526,3.526,0,0,0-.5-2.008,1.638,1.638,0,0,0-1.441-.742,1.747,1.747,0,0,0-1.672.961v3.75a1.763,1.763,0,0,0,1.688.984,1.636,1.636,0,0,0,1.418-.73A3.881,3.881,0,0,0,6.484,14.9Zm8.547,4.3a2.93,2.93,0,0,1-.219-.789,2.955,2.955,0,0,1-2.219.945,2.982,2.982,0,0,1-2.078-.727,2.325,2.325,0,0,1-.8-1.8,2.4,2.4,0,0,1,1-2.074,4.865,4.865,0,0,1,2.871-.723H14.75v-.555a1.481,1.481,0,0,0-.367-1.051,1.456,1.456,0,0,0-1.117-.395,1.672,1.672,0,0,0-1.062.324,1,1,0,0,0-.414.824h-1.9a2.107,2.107,0,0,1,.461-1.3,3.071,3.071,0,0,1,1.254-.949,4.4,4.4,0,0,1,1.77-.344,3.547,3.547,0,0,1,2.367.746,2.661,2.661,0,0,1,.906,2.1v3.813a4.321,4.321,0,0,0,.32,1.82V19.2Zm-2.086-1.367A2.16,2.16,0,0,0,14,17.559a1.827,1.827,0,0,0,.746-.734V15.231H13.727a2.8,2.8,0,0,0-1.586.367,1.189,1.189,0,0,0-.531,1.039,1.109,1.109,0,0,0,.363.871A1.407,1.407,0,0,0,12.945,17.833ZM20.4,10.747l.055.977a3.039,3.039,0,0,1,2.461-1.133q2.641,0,2.688,3.023V19.2H23.7V13.723a1.741,1.741,0,0,0-.348-1.191,1.462,1.462,0,0,0-1.137-.387,1.829,1.829,0,0,0-1.711,1.039V19.2h-1.9V10.747Zm9.516-2.055v2.055h1.492v1.406H29.914v4.719a1.039,1.039,0,0,0,.191.7.888.888,0,0,0,.684.215,2.924,2.924,0,0,0,.664-.078v1.469a4.676,4.676,0,0,1-1.25.18q-2.188,0-2.187-2.414V12.153H26.625V10.747h1.391V8.692ZM37.906,19.2a2.93,2.93,0,0,1-.219-.789,3.193,3.193,0,0,1-4.3.219,2.325,2.325,0,0,1-.8-1.8,2.4,2.4,0,0,1,1-2.074,4.865,4.865,0,0,1,2.871-.723h1.164v-.555a1.481,1.481,0,0,0-.367-1.051,1.456,1.456,0,0,0-1.117-.395,1.672,1.672,0,0,0-1.062.324,1,1,0,0,0-.414.824h-1.9a2.107,2.107,0,0,1,.461-1.3,3.071,3.071,0,0,1,1.254-.949,4.4,4.4,0,0,1,1.77-.344,3.547,3.547,0,0,1,2.367.746,2.661,2.661,0,0,1,.906,2.1v3.813a4.321,4.321,0,0,0,.32,1.82V19.2ZM35.82,17.833a2.16,2.16,0,0,0,1.059-.273,1.827,1.827,0,0,0,.746-.734V15.231H36.6a2.8,2.8,0,0,0-1.586.367,1.189,1.189,0,0,0-.531,1.039,1.109,1.109,0,0,0,.363.871A1.407,1.407,0,0,0,35.82,17.833ZM43.531,19.2h-1.9V7.2h1.9Zm1.711-4.3a4.984,4.984,0,0,1,.492-2.238,3.6,3.6,0,0,1,1.383-1.531,3.9,3.9,0,0,1,2.047-.535,3.692,3.692,0,0,1,2.777,1.1,4.333,4.333,0,0,1,1.152,2.922l.008.445a5.029,5.029,0,0,1-.48,2.234,3.551,3.551,0,0,1-1.375,1.523,3.925,3.925,0,0,1-2.066.539,3.667,3.667,0,0,1-2.863-1.191,4.563,4.563,0,0,1-1.074-3.176Zm1.9.164A3.406,3.406,0,0,0,47.68,17.1a1.752,1.752,0,0,0,1.5.738,1.733,1.733,0,0,0,1.5-.75,3.762,3.762,0,0,0,.535-2.2,3.362,3.362,0,0,0-.551-2.031,1.856,1.856,0,0,0-2.973-.012A3.691,3.691,0,0,0,47.141,15.059ZM49.688,7.2h2.164L49.688,9.567H48.164Zm6.781,3.547.055.977a3.039,3.039,0,0,1,2.461-1.133q2.641,0,2.688,3.023V19.2h-1.9V13.723a1.741,1.741,0,0,0-.348-1.191,1.462,1.462,0,0,0-1.137-.387,1.829,1.829,0,0,0-1.711,1.039V19.2h-1.9V10.747ZM67.234,14.9a4.984,4.984,0,0,1,.492-2.238,3.6,3.6,0,0,1,1.383-1.531,3.9,3.9,0,0,1,2.047-.535,3.692,3.692,0,0,1,2.777,1.1,4.333,4.333,0,0,1,1.152,2.922l.008.445a5.029,5.029,0,0,1-.48,2.234,3.551,3.551,0,0,1-1.375,1.523,3.925,3.925,0,0,1-2.066.539,3.667,3.667,0,0,1-2.863-1.191,4.563,4.563,0,0,1-1.074-3.176Zm1.9.164a3.406,3.406,0,0,0,.539,2.043,1.752,1.752,0,0,0,1.5.738,1.733,1.733,0,0,0,1.5-.75,3.762,3.762,0,0,0,.535-2.2,3.362,3.362,0,0,0-.551-2.031,1.856,1.856,0,0,0-2.973-.012A3.691,3.691,0,0,0,69.133,15.059ZM5.4,31.681a4.7,4.7,0,0,0-.773-.062,1.741,1.741,0,0,0-1.758,1V38.4H.969V29.947H2.781l.047.945a2.139,2.139,0,0,1,1.906-1.1,1.777,1.777,0,0,1,.672.109Zm6.32,5.891a2.944,2.944,0,0,1-2.375.984,2.624,2.624,0,0,1-2.082-.8,3.423,3.423,0,0,1-.707-2.328V29.947h1.9V35.4q0,1.609,1.336,1.609a1.876,1.876,0,0,0,1.867-.992v-6.07h1.9V38.4H11.766Zm7.492.984a3.928,3.928,0,0,1-2.926-1.137,4.124,4.124,0,0,1-1.121-3.027v-.234a5.072,5.072,0,0,1,.488-2.262,3.716,3.716,0,0,1,1.371-1.551,3.625,3.625,0,0,1,1.969-.555,3.318,3.318,0,0,1,2.668,1.1,4.658,4.658,0,0,1,.941,3.117v.766H17.078a2.539,2.539,0,0,0,.7,1.656,2.1,2.1,0,0,0,1.543.609,2.571,2.571,0,0,0,2.125-1.055l1.023.977a3.418,3.418,0,0,1-1.355,1.176A4.244,4.244,0,0,1,19.211,38.556Zm-.227-7.242a1.6,1.6,0,0,0-1.262.547,2.835,2.835,0,0,0-.613,1.523h3.617v-.141a2.307,2.307,0,0,0-.508-1.441A1.586,1.586,0,0,0,18.984,31.314Zm4.734,2.8a5.026,5.026,0,0,1,.906-3.137,2.9,2.9,0,0,1,2.43-1.184,2.759,2.759,0,0,1,2.172.938V26.4h1.9v12H29.406l-.094-.875a2.8,2.8,0,0,1-2.273,1.031,2.887,2.887,0,0,1-2.4-1.2A5.21,5.21,0,0,1,23.719,34.111Zm1.9.164a3.519,3.519,0,0,0,.5,2.012,1.61,1.61,0,0,0,1.41.723,1.793,1.793,0,0,0,1.7-1.039V32.361a1.766,1.766,0,0,0-1.687-1.016,1.622,1.622,0,0,0-1.422.73A3.918,3.918,0,0,0,25.617,34.275Zm7.133-.18a4.984,4.984,0,0,1,.492-2.238,3.6,3.6,0,0,1,1.383-1.531,3.9,3.9,0,0,1,2.047-.535,3.692,3.692,0,0,1,2.777,1.1A4.333,4.333,0,0,1,40.6,33.814l.008.445a5.029,5.029,0,0,1-.48,2.234,3.551,3.551,0,0,1-1.375,1.523,3.925,3.925,0,0,1-2.066.539,3.667,3.667,0,0,1-2.863-1.191,4.563,4.563,0,0,1-1.074-3.176Zm1.9.164a3.406,3.406,0,0,0,.539,2.043,1.752,1.752,0,0,0,1.5.738,1.733,1.733,0,0,0,1.5-.75,3.762,3.762,0,0,0,.535-2.2,3.362,3.362,0,0,0-.551-2.031,1.856,1.856,0,0,0-2.973-.012A3.691,3.691,0,0,0,34.648,34.259Z" transform="translate(-5051.546 3921.757)" fill="#161615"/><circle cx="3.14" cy="3.14" r="3.14" transform="translate(-5074.903 3033.106)" fill="#b13182"/><circle cx="3.14" cy="3.14" r="3.14" transform="translate(-5098.972 3033.106)" fill="#b13182"/><circle cx="3.14" cy="3.14" r="3.14" transform="translate(-4975.502 3258.055)" fill="#b13182"/><circle cx="3.14" cy="3.14" r="3.14" transform="translate(-5098.972 3258.055)" fill="#b13182"/><circle cx="3.14" cy="3.14" r="3.14" transform="translate(-5098.632 3566.315)" fill="#b13182"/><circle cx="3.14" cy="3.14" r="3.14" transform="translate(-5098.632 3611.446)" fill="#b13182"/><circle cx="3.14" cy="3.14" r="3.14" transform="translate(-5083.146 3566.315)" fill="#b13182"/><circle cx="3.14" cy="3.14" r="3.14" transform="translate(-4878.757 3566.315)" fill="#b13182"/><circle cx="3.14" cy="3.14" r="3.14" transform="translate(-4975.502 3566.315)" fill="#b13182"/><circle cx="3.14" cy="3.14" r="3.14" transform="translate(-4975.502 3963.75)" fill="#b13182"/><circle cx="3.14" cy="3.14" r="3.14" transform="translate(-5070.459 3963.75)" fill="#b13182"/><circle cx="3.14" cy="3.14" r="3.14" transform="translate(-5098.972 3963.75)" fill="#b13182"/><path d="M-4846.352,3260.648" fill="none" stroke="#7a1d47" stroke-linecap="round" stroke-linejoin="round" stroke-width="1.796"/><path d="M-5182.389,3023.233" fill="#fff"/><path d="M-4875.618,3966.89h7.787l4.681-397.435s3.03-186.78,17.142-308.418" fill="none" stroke="#7a1d47" stroke-linecap="round" stroke-linejoin="round" stroke-width="1.796"/><circle cx="3.14" cy="3.14" r="3.14" transform="translate(-4878.757 3963.75)" fill="#b13182"/><circle cx="3.14" cy="3.14" r="3.14" transform="translate(-4870.802 3963.75)" fill="#b13182"/><rect width="11.244" height="11.244" transform="translate(-4886.861 3036.352)" fill="none" stroke="#7a1d47" stroke-linecap="round" stroke-linejoin="round" stroke-width="1.624"/><circle cx="3.14" cy="3.14" r="3.14" transform="translate(-4866.399 3566.315)" fill="#b13182"/><path d="M-4846.305,3261.037s-26.945-6.794-29.313-42.7" fill="none" stroke="#7a1d47" stroke-linecap="round" stroke-linejoin="round" stroke-width="2.058"/><line y1="11.528" x2="11.528" transform="translate(-4875.618 3249.12)" fill="none" stroke="#7a1d47" stroke-linecap="round" stroke-linejoin="round" stroke-width="2.058"/><circle cx="3.14" cy="3.14" r="3.14" transform="translate(-4878.757 3215.199)" fill="#b13182"/><circle cx="3.14" cy="3.14" r="3.14" transform="translate(-4890.001 3033.106)" fill="#0d0d0d"/><circle cx="3.14" cy="3.14" r="3.14" transform="translate(-4890.474 3044.456)" fill="#0d0d0d"/><circle cx="3.14" cy="3.14" r="3.14" transform="translate(-4878.521 3033.106)" fill="#0d0d0d"/><circle cx="3.14" cy="3.14" r="3.14" transform="translate(-4878.994 3044.456)" fill="#0d0d0d"/><circle cx="3.14" cy="3.14" r="3.14" transform="translate(-4849.445 3257.897)" fill="#b13182"/><circle cx="3.14" cy="3.14" r="3.14" transform="translate(-4878.757 3257.897)" fill="#b13182"/><rect width="11.244" height="11.244" transform="translate(-4886.861 3036.352)" fill="none" stroke="#0d0d0d" stroke-linecap="round" stroke-linejoin="round" stroke-width="3.592"/><rect width="220.214" height="930.644" transform="translate(-5415.046 3036.246)" fill="none" stroke="#7a1d47" stroke-linecap="round" stroke-linejoin="round" stroke-width="2.058"/><path d="M-5414.706,3569.455" fill="none" stroke="#7a1d47" stroke-miterlimit="10" stroke-width="1.796"/><path d="M-5177.442,3966.89" fill="none" stroke="#7a1d47" stroke-miterlimit="10" stroke-width="1.796"/><path d="M-5206.548,3261.037h41.326v1.564" fill="none" stroke="#7a1d47" stroke-miterlimit="10" stroke-width="1.796"/><path d="M-5206.548,3219.286" fill="none" stroke="#7a1d47" stroke-miterlimit="10" stroke-width="1.796"/><path d="M-5391.116,3036.246" fill="none" stroke="#7a1d47" stroke-miterlimit="10" stroke-width="1.796"/><path d="M-5211.092,3261.037" fill="none" stroke="#7a1d47" stroke-miterlimit="10" stroke-width="1.796"/><line x1="212.136" transform="translate(-5415.046 3261.037)" fill="none" stroke="#7a1d47" stroke-miterlimit="10" stroke-width="1.796"/><path d="M-5418.186,3010.219" fill="none" stroke="#7a1d47" stroke-miterlimit="10" stroke-width="1.796"/><path d="M-5194.832,3218.4" fill="none" stroke="#7a1d47" stroke-linecap="round" stroke-linejoin="round" stroke-width="1.796"/><path d="M-5386.6,3966.89l-12.538-397.435-15.911-308.418" fill="none" stroke="#7a1d47" stroke-linecap="round" stroke-linejoin="round" stroke-width="1.796"/><line x2="232.343" transform="translate(-5414.707 3569.455)" fill="none" stroke="#7a1d47" stroke-linecap="round" stroke-linejoin="round" stroke-width="1.796"/><path d="M-5291.577,3261.037V3966.89" fill="none" stroke="#7a1d47" stroke-linecap="round" stroke-linejoin="round" stroke-width="1.796"/><path d="M-5214.44,3227.04" fill="none" stroke="#7a1d47" stroke-linecap="round" stroke-linejoin="round" stroke-width="1.796"/><path d="M3.133-1.578H8.3V0H1.156V-11.375H3.133ZM10.813-2a1.084,1.084,0,0,1,.82.3,1.045,1.045,0,0,1,.289.754,1.008,1.008,0,0,1-.289.738,1.1,1.1,0,0,1-.82.293,1.1,1.1,0,0,1-.8-.289.991.991,0,0,1-.3-.742A1.045,1.045,0,0,1,10-1.7,1.074,1.074,0,0,1,10.813-2ZM26.945-3.7A4.107,4.107,0,0,1,25.6-.863,4.581,4.581,0,0,1,22.484.156,4.436,4.436,0,0,1,20.09-.488a4.231,4.231,0,0,1-1.6-1.832,6.611,6.611,0,0,1-.586-2.758V-6.141a6.659,6.659,0,0,1,.57-2.836,4.3,4.3,0,0,1,1.637-1.891,4.566,4.566,0,0,1,2.465-.664,4.386,4.386,0,0,1,3.031,1.023,4.276,4.276,0,0,1,1.336,2.891H24.977a2.81,2.81,0,0,0-.715-1.77,2.363,2.363,0,0,0-1.684-.543,2.309,2.309,0,0,0-1.98.941,4.7,4.7,0,0,0-.707,2.762v1.008a4.988,4.988,0,0,0,.66,2.813,2.191,2.191,0,0,0,1.934.969,2.555,2.555,0,0,0,1.75-.523A2.729,2.729,0,0,0,24.977-3.7Zm3.6,3.7h-1.9V-8.453h1.9ZM28.531-10.648a1.008,1.008,0,0,1,.277-.727,1.048,1.048,0,0,1,.793-.289,1.061,1.061,0,0,1,.8.289,1,1,0,0,1,.281.727.977.977,0,0,1-.281.715,1.069,1.069,0,0,1-.8.285,1.056,1.056,0,0,1-.793-.285A.984.984,0,0,1,28.531-10.648Zm5.844,2.2.055.977a3.039,3.039,0,0,1,2.461-1.133q2.641,0,2.688,3.023V0h-1.9V-5.477a1.741,1.741,0,0,0-.348-1.191A1.462,1.462,0,0,0,36.2-7.055a1.829,1.829,0,0,0-1.711,1.039V0h-1.9V-8.453Zm9.516-2.055v2.055h1.492v1.406H43.891v4.719a1.039,1.039,0,0,0,.191.7.888.888,0,0,0,.684.215,2.924,2.924,0,0,0,.664-.078V-.023a4.676,4.676,0,0,1-1.25.18q-2.187,0-2.187-2.414V-7.047H40.6V-8.453h1.391v-2.055Zm8.063,9.68a2.944,2.944,0,0,1-2.375.984,2.624,2.624,0,0,1-2.082-.8,3.423,3.423,0,0,1-.707-2.328V-8.453h1.9V-3q0,1.609,1.336,1.609a1.876,1.876,0,0,0,1.867-.992v-6.07h1.9V0H52Zm8.2-5.891a4.7,4.7,0,0,0-.773-.062,1.741,1.741,0,0,0-1.758,1V0h-1.9V-8.453h1.813l.047.945a2.139,2.139,0,0,1,1.906-1.1,1.777,1.777,0,0,1,.672.109ZM66.164,0a2.93,2.93,0,0,1-.219-.789,2.955,2.955,0,0,1-2.219.945A2.982,2.982,0,0,1,61.648-.57a2.325,2.325,0,0,1-.8-1.8,2.4,2.4,0,0,1,1-2.074,4.865,4.865,0,0,1,2.871-.723h1.164v-.555a1.481,1.481,0,0,0-.367-1.051A1.456,1.456,0,0,0,64.4-7.164a1.672,1.672,0,0,0-1.062.324,1,1,0,0,0-.414.824h-1.9a2.107,2.107,0,0,1,.461-1.3,3.071,3.071,0,0,1,1.254-.949,4.4,4.4,0,0,1,1.77-.344,3.547,3.547,0,0,1,2.367.746,2.661,2.661,0,0,1,.906,2.1v3.813a4.321,4.321,0,0,0,.32,1.82V0ZM64.078-1.367a2.159,2.159,0,0,0,1.059-.273,1.827,1.827,0,0,0,.746-.734V-3.969H64.859a2.8,2.8,0,0,0-1.586.367,1.189,1.189,0,0,0-.531,1.039,1.109,1.109,0,0,0,.363.871A1.407,1.407,0,0,0,64.078-1.367Z" transform="translate(-5317.844 3029.079)" fill="#161615"/><path d="M3.133-1.578H8.3V0H1.156V-11.375H3.133ZM10.813-2a1.084,1.084,0,0,1,.82.3,1.045,1.045,0,0,1,.289.754,1.008,1.008,0,0,1-.289.738,1.1,1.1,0,0,1-.82.293,1.1,1.1,0,0,1-.8-.289.991.991,0,0,1-.3-.742A1.045,1.045,0,0,1,10-1.7,1.074,1.074,0,0,1,10.813-2Zm7.453,2V-11.375h3.9A4.76,4.76,0,0,1,25.1-10.6a2.724,2.724,0,0,1,1.008,2.3,2.456,2.456,0,0,1-.422,1.406,2.715,2.715,0,0,1-1.234.969,2.511,2.511,0,0,1,1.426.941,2.742,2.742,0,0,1,.5,1.66A3.028,3.028,0,0,1,25.355-.859,4.467,4.467,0,0,1,22.414,0Zm1.977-5.133v3.555h2.2a2.124,2.124,0,0,0,1.453-.461,1.618,1.618,0,0,0,.523-1.281A1.623,1.623,0,0,0,22.6-5.133Zm0-1.453H22.18A2.241,2.241,0,0,0,23.621-7a1.432,1.432,0,0,0,.52-1.184,1.452,1.452,0,0,0-.48-1.219,2.426,2.426,0,0,0-1.5-.375H20.242ZM33.227,0a2.93,2.93,0,0,1-.219-.789,2.955,2.955,0,0,1-2.219.945A2.982,2.982,0,0,1,28.711-.57a2.325,2.325,0,0,1-.8-1.8,2.4,2.4,0,0,1,1-2.074,4.865,4.865,0,0,1,2.871-.723h1.164v-.555a1.481,1.481,0,0,0-.367-1.051,1.456,1.456,0,0,0-1.117-.395A1.672,1.672,0,0,0,30.4-6.84a1,1,0,0,0-.414.824h-1.9a2.107,2.107,0,0,1,.461-1.3A3.071,3.071,0,0,1,29.8-8.266a4.4,4.4,0,0,1,1.77-.344,3.547,3.547,0,0,1,2.367.746,2.661,2.661,0,0,1,.906,2.1v3.813a4.321,4.321,0,0,0,.32,1.82V0ZM31.141-1.367A2.159,2.159,0,0,0,32.2-1.641a1.827,1.827,0,0,0,.746-.734V-3.969H31.922a2.8,2.8,0,0,0-1.586.367A1.189,1.189,0,0,0,29.8-2.562a1.109,1.109,0,0,0,.363.871A1.407,1.407,0,0,0,31.141-1.367ZM41.57-2.3a.861.861,0,0,0-.418-.773,4.445,4.445,0,0,0-1.387-.469,7.129,7.129,0,0,1-1.617-.516,2.158,2.158,0,0,1-1.422-1.992,2.25,2.25,0,0,1,.922-1.828,3.644,3.644,0,0,1,2.344-.734,3.792,3.792,0,0,1,2.449.75,2.38,2.38,0,0,1,.934,1.945h-1.9a1.17,1.17,0,0,0-.406-.91,1.557,1.557,0,0,0-1.078-.363,1.682,1.682,0,0,0-1.02.289.911.911,0,0,0-.395.773.769.769,0,0,0,.367.68,5.049,5.049,0,0,0,1.484.488,7.027,7.027,0,0,1,1.754.586,2.484,2.484,0,0,1,.945.816A2.082,2.082,0,0,1,43.438-2.4a2.2,2.2,0,0,1-.945,1.848,4.031,4.031,0,0,1-2.477.707,4.371,4.371,0,0,1-1.852-.375A3.047,3.047,0,0,1,36.9-1.25a2.441,2.441,0,0,1-.453-1.414h1.844A1.338,1.338,0,0,0,38.8-1.629a1.973,1.973,0,0,0,1.242.363,1.92,1.92,0,0,0,1.141-.285A.883.883,0,0,0,41.57-2.3ZM48.813.156A3.928,3.928,0,0,1,45.887-.98a4.124,4.124,0,0,1-1.121-3.027v-.234A5.072,5.072,0,0,1,45.254-6.5a3.716,3.716,0,0,1,1.371-1.551,3.625,3.625,0,0,1,1.969-.555,3.318,3.318,0,0,1,2.668,1.1A4.658,4.658,0,0,1,52.2-4.391v.766H46.68a2.539,2.539,0,0,0,.7,1.656,2.1,2.1,0,0,0,1.543.609,2.571,2.571,0,0,0,2.125-1.055l1.023.977A3.418,3.418,0,0,1,50.715-.262,4.244,4.244,0,0,1,48.813.156Zm-.227-7.242a1.6,1.6,0,0,0-1.262.547,2.835,2.835,0,0,0-.613,1.523h3.617v-.141A2.307,2.307,0,0,0,49.82-6.6,1.586,1.586,0,0,0,48.586-7.086Z" transform="translate(-5318.882 3248.365)" fill="#161615"/><path d="M3.133-1.578H8.3V0H1.156V-11.375H3.133ZM10.813-2a1.084,1.084,0,0,1,.82.3,1.045,1.045,0,0,1,.289.754,1.008,1.008,0,0,1-.289.738,1.1,1.1,0,0,1-.82.293,1.1,1.1,0,0,1-.8-.289.991.991,0,0,1-.3-.742A1.045,1.045,0,0,1,10-1.7,1.074,1.074,0,0,1,10.813-2ZM22.445-4.383h-2.2V0H18.266V-11.375h4a4.656,4.656,0,0,1,3.039.883,3.122,3.122,0,0,1,1.07,2.555,3.2,3.2,0,0,1-.551,1.91,3.5,3.5,0,0,1-1.535,1.184L26.844-.1V0H24.727Zm-2.2-1.586h2.031a2.259,2.259,0,0,0,1.563-.5A1.757,1.757,0,0,0,24.4-7.852a1.871,1.871,0,0,0-.52-1.414,2.207,2.207,0,0,0-1.551-.516H20.242ZM27.711-4.3A4.984,4.984,0,0,1,28.2-6.543a3.6,3.6,0,0,1,1.383-1.531,3.9,3.9,0,0,1,2.047-.535,3.692,3.692,0,0,1,2.777,1.1,4.333,4.333,0,0,1,1.152,2.922l.008.445a5.029,5.029,0,0,1-.48,2.234A3.551,3.551,0,0,1,33.715-.383a3.925,3.925,0,0,1-2.066.539,3.667,3.667,0,0,1-2.863-1.191,4.563,4.563,0,0,1-1.074-3.176Zm1.9.164A3.406,3.406,0,0,0,30.148-2.1a1.752,1.752,0,0,0,1.5.738,1.733,1.733,0,0,0,1.5-.75,3.762,3.762,0,0,0,.535-2.2,3.362,3.362,0,0,0-.551-2.031,1.759,1.759,0,0,0-1.5-.75,1.743,1.743,0,0,0-1.477.738A3.691,3.691,0,0,0,29.609-4.141Zm7.211-.148a5.026,5.026,0,0,1,.906-3.137,2.9,2.9,0,0,1,2.43-1.184,2.759,2.759,0,0,1,2.172.938V-12h1.9V0H42.508l-.094-.875A2.8,2.8,0,0,1,40.141.156a2.887,2.887,0,0,1-2.4-1.2A5.21,5.21,0,0,1,36.82-4.289Zm1.9.164a3.519,3.519,0,0,0,.5,2.012,1.61,1.61,0,0,0,1.41.723,1.793,1.793,0,0,0,1.7-1.039V-6.039a1.766,1.766,0,0,0-1.687-1.016,1.622,1.622,0,0,0-1.422.73A3.919,3.919,0,0,0,38.719-4.125ZM48.227,0h-1.9V-8.453h1.9ZM46.211-10.648a1.008,1.008,0,0,1,.277-.727,1.048,1.048,0,0,1,.793-.289,1.061,1.061,0,0,1,.8.289,1,1,0,0,1,.281.727.977.977,0,0,1-.281.715,1.069,1.069,0,0,1-.8.285,1.056,1.056,0,0,1-.793-.285A.984.984,0,0,1,46.211-10.648ZM52.313,0h-1.9V-12h1.9ZM56.4,0H54.5V-12h1.9Zm7.117,0A2.93,2.93,0,0,1,63.3-.789a2.955,2.955,0,0,1-2.219.945A2.982,2.982,0,0,1,59-.57a2.325,2.325,0,0,1-.8-1.8,2.4,2.4,0,0,1,1-2.074,4.865,4.865,0,0,1,2.871-.723h1.164v-.555a1.481,1.481,0,0,0-.367-1.051,1.456,1.456,0,0,0-1.117-.395,1.672,1.672,0,0,0-1.062.324,1,1,0,0,0-.414.824h-1.9a2.107,2.107,0,0,1,.461-1.3,3.071,3.071,0,0,1,1.254-.949,4.4,4.4,0,0,1,1.77-.344,3.547,3.547,0,0,1,2.367.746,2.661,2.661,0,0,1,.906,2.1v3.813a4.321,4.321,0,0,0,.32,1.82V0ZM61.43-1.367a2.16,2.16,0,0,0,1.059-.273,1.827,1.827,0,0,0,.746-.734V-3.969H62.211a2.8,2.8,0,0,0-1.586.367,1.189,1.189,0,0,0-.531,1.039,1.109,1.109,0,0,0,.363.871A1.407,1.407,0,0,0,61.43-1.367Z" transform="translate(-5370.76 3562.423)" fill="#161615"/><path d="M3.133-1.578H8.3V0H1.156V-11.375H3.133ZM10.813-2a1.084,1.084,0,0,1,.82.3,1.045,1.045,0,0,1,.289.754,1.008,1.008,0,0,1-.289.738,1.1,1.1,0,0,1-.82.293,1.1,1.1,0,0,1-.8-.289.991.991,0,0,1-.3-.742A1.045,1.045,0,0,1,10-1.7,1.074,1.074,0,0,1,10.813-2ZM22.445-4.383h-2.2V0H18.266V-11.375h4a4.656,4.656,0,0,1,3.039.883,3.122,3.122,0,0,1,1.07,2.555,3.2,3.2,0,0,1-.551,1.91,3.5,3.5,0,0,1-1.535,1.184L26.844-.1V0H24.727Zm-2.2-1.586h2.031a2.259,2.259,0,0,0,1.563-.5A1.757,1.757,0,0,0,24.4-7.852a1.871,1.871,0,0,0-.52-1.414,2.207,2.207,0,0,0-1.551-.516H20.242ZM33.188-.828a2.944,2.944,0,0,1-2.375.984,2.624,2.624,0,0,1-2.082-.8,3.423,3.423,0,0,1-.707-2.328V-8.453h1.9V-3q0,1.609,1.336,1.609a1.876,1.876,0,0,0,1.867-.992v-6.07h1.9V0H33.234ZM40.68.156A3.928,3.928,0,0,1,37.754-.98a4.124,4.124,0,0,1-1.121-3.027v-.234A5.072,5.072,0,0,1,37.121-6.5a3.716,3.716,0,0,1,1.371-1.551,3.625,3.625,0,0,1,1.969-.555,3.318,3.318,0,0,1,2.668,1.1,4.658,4.658,0,0,1,.941,3.117v.766H38.547a2.539,2.539,0,0,0,.7,1.656,2.1,2.1,0,0,0,1.543.609,2.571,2.571,0,0,0,2.125-1.055l1.023.977A3.418,3.418,0,0,1,42.582-.262,4.244,4.244,0,0,1,40.68.156Zm-.227-7.242a1.6,1.6,0,0,0-1.262.547,2.835,2.835,0,0,0-.613,1.523H42.2v-.141A2.307,2.307,0,0,0,41.688-6.6,1.586,1.586,0,0,0,40.453-7.086Zm4.734,2.8a5.026,5.026,0,0,1,.906-3.137,2.9,2.9,0,0,1,2.43-1.184,2.759,2.759,0,0,1,2.172.938V-12h1.9V0H50.875l-.094-.875A2.8,2.8,0,0,1,48.508.156a2.887,2.887,0,0,1-2.4-1.2A5.21,5.21,0,0,1,45.188-4.289Zm1.9.164a3.519,3.519,0,0,0,.5,2.012,1.61,1.61,0,0,0,1.41.723A1.793,1.793,0,0,0,50.7-2.43V-6.039a1.766,1.766,0,0,0-1.687-1.016,1.622,1.622,0,0,0-1.422.73A3.919,3.919,0,0,0,47.086-4.125Zm7.133-.18a4.984,4.984,0,0,1,.492-2.238,3.6,3.6,0,0,1,1.383-1.531,3.9,3.9,0,0,1,2.047-.535,3.692,3.692,0,0,1,2.777,1.1A4.333,4.333,0,0,1,62.07-4.586l.008.445a5.029,5.029,0,0,1-.48,2.234A3.551,3.551,0,0,1,60.223-.383a3.925,3.925,0,0,1-2.066.539,3.667,3.667,0,0,1-2.863-1.191,4.563,4.563,0,0,1-1.074-3.176Zm1.9.164A3.406,3.406,0,0,0,56.656-2.1a1.752,1.752,0,0,0,1.5.738,1.733,1.733,0,0,0,1.5-.75,3.762,3.762,0,0,0,.535-2.2,3.362,3.362,0,0,0-.551-2.031,1.759,1.759,0,0,0-1.5-.75,1.743,1.743,0,0,0-1.477.738A3.691,3.691,0,0,0,56.117-4.141ZM8.391,15.059a5.078,5.078,0,0,1-.879,3.133,2.863,2.863,0,0,1-2.418,1.164,2.758,2.758,0,0,1-2.312-1.07l-.094.914H.969V7.2h1.9v4.359a2.748,2.748,0,0,1,2.211-.969,2.9,2.9,0,0,1,2.43,1.148,5.162,5.162,0,0,1,.883,3.211Zm-1.9-.164a3.589,3.589,0,0,0-.484-2.062A1.613,1.613,0,0,0,4.6,12.145a1.763,1.763,0,0,0-1.734,1.078v3.484a1.781,1.781,0,0,0,1.75,1.1,1.6,1.6,0,0,0,1.375-.664,3.477,3.477,0,0,0,.5-2.008Zm8.539,4.3a2.93,2.93,0,0,1-.219-.789,2.955,2.955,0,0,1-2.219.945,2.982,2.982,0,0,1-2.078-.727,2.325,2.325,0,0,1-.8-1.8,2.4,2.4,0,0,1,1-2.074,4.865,4.865,0,0,1,2.871-.723H14.75v-.555a1.481,1.481,0,0,0-.367-1.051,1.456,1.456,0,0,0-1.117-.395,1.672,1.672,0,0,0-1.062.324,1,1,0,0,0-.414.824h-1.9a2.107,2.107,0,0,1,.461-1.3,3.071,3.071,0,0,1,1.254-.949,4.4,4.4,0,0,1,1.77-.344,3.547,3.547,0,0,1,2.367.746,2.661,2.661,0,0,1,.906,2.1v3.813a4.321,4.321,0,0,0,.32,1.82V19.2Zm-2.086-1.367A2.16,2.16,0,0,0,14,17.559a1.827,1.827,0,0,0,.746-.734V15.231H13.727a2.8,2.8,0,0,0-1.586.367,1.189,1.189,0,0,0-.531,1.039,1.109,1.109,0,0,0,.363.871A1.407,1.407,0,0,0,12.945,17.833Zm7.672-7.086v9.2a2.781,2.781,0,0,1-.645,1.98,2.47,2.47,0,0,1-1.887.684,3.794,3.794,0,0,1-1.008-.133v-1.5a2.925,2.925,0,0,0,.672.07q.945,0,.969-1.031V10.747Zm-2.062-2.2a1.008,1.008,0,0,1,.277-.727,1.048,1.048,0,0,1,.793-.289,1.061,1.061,0,0,1,.8.289,1,1,0,0,1,.281.727.977.977,0,0,1-.281.715,1.069,1.069,0,0,1-.8.285,1.056,1.056,0,0,1-.793-.285A.984.984,0,0,1,18.555,8.552ZM22.289,14.9a4.984,4.984,0,0,1,.492-2.238,3.6,3.6,0,0,1,1.383-1.531,3.9,3.9,0,0,1,2.047-.535,3.692,3.692,0,0,1,2.777,1.1,4.333,4.333,0,0,1,1.152,2.922l.008.445a5.029,5.029,0,0,1-.48,2.234,3.551,3.551,0,0,1-1.375,1.523,3.925,3.925,0,0,1-2.066.539,3.667,3.667,0,0,1-2.863-1.191,4.563,4.563,0,0,1-1.074-3.176Zm1.9.164a3.406,3.406,0,0,0,.539,2.043,1.752,1.752,0,0,0,1.5.738,1.733,1.733,0,0,0,1.5-.75,3.762,3.762,0,0,0,.535-2.2,3.362,3.362,0,0,0-.551-2.031,1.856,1.856,0,0,0-2.973-.012A3.691,3.691,0,0,0,24.188,15.059Zm11.2-.164a4.984,4.984,0,0,1,.492-2.238,3.6,3.6,0,0,1,1.383-1.531,3.9,3.9,0,0,1,2.047-.535,3.692,3.692,0,0,1,2.777,1.1,4.333,4.333,0,0,1,1.152,2.922l.008.445a5.029,5.029,0,0,1-.48,2.234,3.551,3.551,0,0,1-1.375,1.523,3.925,3.925,0,0,1-2.066.539,3.667,3.667,0,0,1-2.863-1.191,4.563,4.563,0,0,1-1.074-3.176Zm1.9.164A3.406,3.406,0,0,0,37.82,17.1a1.752,1.752,0,0,0,1.5.738,1.733,1.733,0,0,0,1.5-.75,3.762,3.762,0,0,0,.535-2.2,3.362,3.362,0,0,0-.551-2.031,1.856,1.856,0,0,0-2.973-.012A3.691,3.691,0,0,0,37.281,15.059ZM5.4,31.681a4.7,4.7,0,0,0-.773-.062,1.741,1.741,0,0,0-1.758,1V38.4H.969V29.947H2.781l.047.945a2.139,2.139,0,0,1,1.906-1.1,1.777,1.777,0,0,1,.672.109Zm6.32,5.891a2.944,2.944,0,0,1-2.375.984,2.624,2.624,0,0,1-2.082-.8,3.423,3.423,0,0,1-.707-2.328V29.947h1.9V35.4q0,1.609,1.336,1.609a1.876,1.876,0,0,0,1.867-.992v-6.07h1.9V38.4H11.766Zm7.492.984a3.928,3.928,0,0,1-2.926-1.137,4.124,4.124,0,0,1-1.121-3.027v-.234a5.072,5.072,0,0,1,.488-2.262,3.716,3.716,0,0,1,1.371-1.551,3.625,3.625,0,0,1,1.969-.555,3.318,3.318,0,0,1,2.668,1.1,4.658,4.658,0,0,1,.941,3.117v.766H17.078a2.539,2.539,0,0,0,.7,1.656,2.1,2.1,0,0,0,1.543.609,2.571,2.571,0,0,0,2.125-1.055l1.023.977a3.418,3.418,0,0,1-1.355,1.176A4.244,4.244,0,0,1,19.211,38.556Zm-.227-7.242a1.6,1.6,0,0,0-1.262.547,2.835,2.835,0,0,0-.613,1.523h3.617v-.141a2.307,2.307,0,0,0-.508-1.441A1.586,1.586,0,0,0,18.984,31.314Zm4.734,2.8a5.026,5.026,0,0,1,.906-3.137,2.9,2.9,0,0,1,2.43-1.184,2.759,2.759,0,0,1,2.172.938V26.4h1.9v12H29.406l-.094-.875a2.8,2.8,0,0,1-2.273,1.031,2.887,2.887,0,0,1-2.4-1.2A5.21,5.21,0,0,1,23.719,34.111Zm1.9.164a3.519,3.519,0,0,0,.5,2.012,1.61,1.61,0,0,0,1.41.723,1.793,1.793,0,0,0,1.7-1.039V32.361a1.766,1.766,0,0,0-1.687-1.016,1.622,1.622,0,0,0-1.422.73A3.918,3.918,0,0,0,25.617,34.275Zm7.133-.18a4.984,4.984,0,0,1,.492-2.238,3.6,3.6,0,0,1,1.383-1.531,3.9,3.9,0,0,1,2.047-.535,3.692,3.692,0,0,1,2.777,1.1A4.333,4.333,0,0,1,40.6,33.814l.008.445a5.029,5.029,0,0,1-.48,2.234,3.551,3.551,0,0,1-1.375,1.523,3.925,3.925,0,0,1-2.066.539,3.667,3.667,0,0,1-2.863-1.191,4.563,4.563,0,0,1-1.074-3.176Zm1.9.164a3.406,3.406,0,0,0,.539,2.043,1.752,1.752,0,0,0,1.5.738,1.733,1.733,0,0,0,1.5-.75,3.762,3.762,0,0,0,.535-2.2,3.362,3.362,0,0,0-.551-2.031,1.856,1.856,0,0,0-2.973-.012A3.691,3.691,0,0,0,34.648,34.259Z" transform="translate(-5370.76 3921.757)" fill="#161615"/><circle cx="3.14" cy="3.14" r="3.14" transform="translate(-5418.186 3033.106)" fill="#b13182"/><circle cx="3.14" cy="3.14" r="3.14" transform="translate(-5294.716 3258.055)" fill="#b13182"/><circle cx="3.14" cy="3.14" r="3.14" transform="translate(-5418.186 3258.055)" fill="#b13182"/><circle cx="3.14" cy="3.14" r="3.14" transform="translate(-5417.846 3566.315)" fill="#b13182"/><circle cx="3.14" cy="3.14" r="3.14" transform="translate(-5417.846 3611.446)" fill="#b13182"/><circle cx="3.14" cy="3.14" r="3.14" transform="translate(-5402.359 3566.315)" fill="#b13182"/><circle cx="3.14" cy="3.14" r="3.14" transform="translate(-5197.972 3566.315)" fill="#b13182"/><circle cx="3.14" cy="3.14" r="3.14" transform="translate(-5294.716 3566.315)" fill="#b13182"/><circle cx="3.14" cy="3.14" r="3.14" transform="translate(-5294.716 3963.75)" fill="#b13182"/><circle cx="3.14" cy="3.14" r="3.14" transform="translate(-5389.673 3963.75)" fill="#b13182"/><circle cx="3.14" cy="3.14" r="3.14" transform="translate(-5418.186 3963.75)" fill="#b13182"/><path d="M-5165.566,3260.648" fill="none" stroke="#7a1d47" stroke-linecap="round" stroke-linejoin="round" stroke-width="1.796"/><path d="M-5194.832,3966.89h7.787l4.681-397.435s3.03-186.78,17.142-308.418" fill="none" stroke="#7a1d47" stroke-linecap="round" stroke-linejoin="round" stroke-width="1.796"/><circle cx="3.14" cy="3.14" r="3.14" transform="translate(-5197.972 3963.75)" fill="#b13182"/><circle cx="3.14" cy="3.14" r="3.14" transform="translate(-5190.016 3963.75)" fill="#b13182"/><rect width="11.244" height="11.244" transform="translate(-5206.076 3036.352)" fill="none" stroke="#7a1d47" stroke-linecap="round" stroke-linejoin="round" stroke-width="1.624"/><circle cx="3.14" cy="3.14" r="3.14" transform="translate(-5185.613 3566.315)" fill="#b13182"/><path d="M-5165.519,3261.037s-26.945-6.794-29.313-42.7" fill="none" stroke="#7a1d47" stroke-linecap="round" stroke-linejoin="round" stroke-width="2.058"/><line y1="11.528" x2="11.528" transform="translate(-5194.832 3249.12)" fill="none" stroke="#7a1d47" stroke-linecap="round" stroke-linejoin="round" stroke-width="2.058"/><circle cx="3.14" cy="3.14" r="3.14" transform="translate(-5197.972 3215.199)" fill="#b13182"/><circle cx="3.14" cy="3.14" r="3.14" transform="translate(-5209.215 3033.106)" fill="#b13182"/><circle cx="3.14" cy="3.14" r="3.14" transform="translate(-5209.688 3044.456)" fill="#b13182"/><circle cx="3.14" cy="3.14" r="3.14" transform="translate(-5197.735 3033.106)" fill="#b13182"/><circle cx="3.14" cy="3.14" r="3.14" transform="translate(-5198.208 3044.456)" fill="#b13182"/><circle cx="3.14" cy="3.14" r="3.14" transform="translate(-5168.659 3257.897)" fill="#b13182"/><circle cx="3.14" cy="3.14" r="3.14" transform="translate(-5197.972 3257.897)" fill="#b13182"/><path d="M-5194.832,3047.6v-11.244h-11.244" fill="none" stroke="#0d0d0d" stroke-linecap="round" stroke-linejoin="round" stroke-width="3.592"/></g></svg>