<svg xmlns="http://www.w3.org/2000/svg" width="610" height="399" viewBox="0 0 610 399"><g transform="translate(-10159 -6750)"><g transform="translate(9600.552 4883.049)"><rect width="610" height="399" transform="translate(558.448 1866.951)" fill="none"/><path d="M588.034,1896.856l210.93,8.913,8.871,192.423s4.095,41.878,46.571,45.206l-12.112,93.311H586.755l-8.188-94.334V2129.58l1.279-33.009,2.815-106.19Z" fill="#fff" stroke="#0075bd" stroke-miterlimit="10" stroke-width="2"/><circle cx="2.906" cy="2.906" r="2.906" transform="translate(585.128 1893.95)" fill="#0075bd"/><circle cx="2.906" cy="2.906" r="2.906" transform="translate(579.657 1988.071)" fill="#0075bd"/><circle cx="2.906" cy="2.906" r="2.906" transform="translate(577.076 2094.283)" fill="#0075bd"/><circle cx="2.906" cy="2.906" r="2.906" transform="translate(575.661 2126.332)" fill="#0075bd"/><circle cx="2.906" cy="2.906" r="2.906" transform="translate(575.661 2139.637)" fill="#0075bd"/><circle cx="2.906" cy="2.906" r="2.906" transform="translate(583.785 2233.801)" fill="#0075bd"/><circle cx="2.906" cy="2.906" r="2.906" transform="translate(578.567 2176.812)" fill="#0075bd"/><circle cx="2.906" cy="2.906" r="2.906" transform="translate(713.58 2233.801)" fill="#0075bd"/><circle cx="2.906" cy="2.906" r="2.906" transform="translate(838.961 2233.801)" fill="#0075bd"/><circle cx="2.906" cy="2.906" r="2.906" transform="translate(851.073 2140.832)" fill="#0075bd"/><circle cx="2.906" cy="2.906" r="2.906" transform="translate(804.588 2095.072)" fill="#0075bd"/><circle cx="2.906" cy="2.906" r="2.906" transform="translate(713.58 2139.808)" fill="#0075bd"/><circle cx="2.906" cy="2.906" r="2.906" transform="translate(694.197 2176.812)" fill="#0075bd"/><circle cx="2.906" cy="2.906" r="2.906" transform="translate(733.454 2139.808)" fill="#0075bd"/><circle cx="2.906" cy="2.906" r="2.906" transform="translate(622.956 1895.435)" fill="#0075bd"/><circle cx="2.906" cy="2.906" r="2.906" transform="translate(685.263 1898.342)" fill="#0075bd"/><circle cx="2.906" cy="2.906" r="2.906" transform="translate(733.454 1900.303)" fill="#0075bd"/><circle cx="2.906" cy="2.906" r="2.906" transform="translate(733.454 1998.685)" fill="#0075bd"/><circle cx="2.906" cy="2.906" r="2.906" transform="translate(800.12 1998.685)" fill="#0075bd"/><circle cx="2.906" cy="2.906" r="2.906" transform="translate(795.65 1902.852)" fill="#0075bd"/><line y2="93.993" transform="translate(716.486 2142.714)" fill="none" stroke="#0075bd" stroke-miterlimit="10" stroke-width="2"/><path d="M736.36,1903.21v239.505s.625,34.516-39.256,37H581.474" fill="none" stroke="#0075bd" stroke-miterlimit="10" stroke-width="2"/><line x2="67.09" transform="translate(736.361 2001.591)" fill="none" stroke="#0075bd" stroke-miterlimit="10" stroke-width="2"/><path d="M880.919,1896.856l210.93,8.913,8.871,192.423s4.095,41.878,46.571,45.206l-12.112,93.311H879.64l-8.188-94.334V2129.58l1.279-33.009,2.815-106.19Z" fill="#fff" stroke="#0075bd" stroke-miterlimit="10" stroke-width="2"/><circle cx="2.906" cy="2.906" r="2.906" transform="translate(878.013 1893.95)" fill="#0075bd"/><circle cx="2.906" cy="2.906" r="2.906" transform="translate(872.542 1988.071)" fill="#0075bd"/><circle cx="2.906" cy="2.906" r="2.906" transform="translate(869.961 2094.283)" fill="#0075bd"/><circle cx="2.906" cy="2.906" r="2.906" transform="translate(868.546 2126.332)" fill="#0075bd"/><circle cx="2.906" cy="2.906" r="2.906" transform="translate(868.546 2139.637)" fill="#0075bd"/><circle cx="2.906" cy="2.906" r="2.906" transform="translate(876.67 2233.801)" fill="#0075bd"/><circle cx="2.906" cy="2.906" r="2.906" transform="translate(871.452 2176.812)" fill="#0075bd"/><circle cx="2.906" cy="2.906" r="2.906" transform="translate(1006.465 2233.801)" fill="#0075bd"/><circle cx="2.906" cy="2.906" r="2.906" transform="translate(1131.846 2233.801)" fill="#0075bd"/><circle cx="2.906" cy="2.906" r="2.906" transform="translate(1143.958 2140.832)" fill="#0075bd"/><circle cx="2.906" cy="2.906" r="2.906" transform="translate(1097.473 2095.072)" fill="#0075bd"/><circle cx="2.906" cy="2.906" r="2.906" transform="translate(1006.465 2139.808)" fill="#0075bd"/><circle cx="2.906" cy="2.906" r="2.906" transform="translate(987.082 2176.812)" fill="#0075bd"/><circle cx="2.906" cy="2.906" r="2.906" transform="translate(1026.339 2139.808)" fill="#0075bd"/><circle cx="2.906" cy="2.906" r="2.906" transform="translate(915.841 1895.435)" fill="#0075bd"/><circle cx="2.906" cy="2.906" r="2.906" transform="translate(978.148 1898.342)" fill="#0075bd"/><circle cx="2.906" cy="2.906" r="2.906" transform="translate(1026.339 1900.303)" fill="#0075bd"/><circle cx="2.906" cy="2.906" r="2.906" transform="translate(1026.339 1998.685)" fill="#0075bd"/><circle cx="2.906" cy="2.906" r="2.906" transform="translate(1062.791 1998.685)" fill="#0075bd"/><circle cx="2.906" cy="2.906" r="2.906" transform="translate(1026.339 2036.669)" fill="#0075bd"/><circle cx="2.906" cy="2.906" r="2.906" transform="translate(1036.119 2009.551)" fill="#0075bd"/><circle cx="2.906" cy="2.906" r="2.906" transform="translate(1093.005 1998.685)" fill="#0075bd"/><circle cx="2.906" cy="2.906" r="2.906" transform="translate(1088.535 1902.852)" fill="#0075bd"/><line y2="93.993" transform="translate(1009.371 2142.714)" fill="none" stroke="#0075bd" stroke-miterlimit="10" stroke-width="2"/><path d="M1029.245,1903.21v239.505s.625,34.516-39.256,37H874.359" fill="none" stroke="#0075bd" stroke-miterlimit="10" stroke-width="2"/><line x2="67.09" transform="translate(1029.246 2001.591)" fill="none" stroke="#0075bd" stroke-miterlimit="10" stroke-width="2"/><path d="M1065.7,2001.591s-35.591-.756-36.451,37.984" fill="none" stroke="#0075bd" stroke-miterlimit="10" stroke-width="2"/></g><path d="M-19.889-4.519h-4.292V0h-1.853V-10.664h6.775V-9.17h-4.922V-6h4.292Zm1.436.483a4.673,4.673,0,0,1,.461-2.1A3.37,3.37,0,0,1-16.7-7.57a3.653,3.653,0,0,1,1.919-.5,3.462,3.462,0,0,1,2.6,1.033A4.062,4.062,0,0,1-11.093-4.3l.007.417a4.715,4.715,0,0,1-.45,2.095A3.329,3.329,0,0,1-12.825-.359a3.679,3.679,0,0,1-1.937.505A3.438,3.438,0,0,1-17.446-.97a4.278,4.278,0,0,1-1.007-2.977Zm1.78.154a3.193,3.193,0,0,0,.505,1.915,1.643,1.643,0,0,0,1.406.692,1.625,1.625,0,0,0,1.4-.7,3.527,3.527,0,0,0,.5-2.058,3.152,3.152,0,0,0-.516-1.9,1.649,1.649,0,0,0-1.4-.7,1.634,1.634,0,0,0-1.384.692A3.46,3.46,0,0,0-16.674-3.882Zm8.745-4.043.051.916A2.849,2.849,0,0,1-5.57-8.071q2.476,0,2.52,2.834V0H-4.83V-5.134a1.632,1.632,0,0,0-.326-1.117,1.371,1.371,0,0,0-1.066-.363,1.715,1.715,0,0,0-1.6.974V0h-1.78V-7.925Zm6.357,3.9a4.712,4.712,0,0,1,.85-2.941,2.722,2.722,0,0,1,2.278-1.11,2.587,2.587,0,0,1,2.036.879V-11.25h1.78V0H3.761L3.673-.82A2.624,2.624,0,0,1,1.542.146,2.707,2.707,0,0,1-.71-.974,4.884,4.884,0,0,1-1.571-4.021Zm1.78.154A3.3,3.3,0,0,0,.674-1.981,1.509,1.509,0,0,0,2-1.3a1.681,1.681,0,0,0,1.6-.974V-5.662A1.655,1.655,0,0,0,2.01-6.614a1.52,1.52,0,0,0-1.333.685A3.674,3.674,0,0,0,.209-3.867ZM6.9-4.036a4.673,4.673,0,0,1,.461-2.1,3.37,3.37,0,0,1,1.3-1.436,3.653,3.653,0,0,1,1.919-.5,3.462,3.462,0,0,1,2.6,1.033A4.062,4.062,0,0,1,14.257-4.3l.007.417a4.715,4.715,0,0,1-.45,2.095A3.329,3.329,0,0,1,12.524-.359a3.679,3.679,0,0,1-1.937.505A3.438,3.438,0,0,1,7.9-.97,4.278,4.278,0,0,1,6.9-3.948Zm1.78.154a3.193,3.193,0,0,0,.505,1.915,1.643,1.643,0,0,0,1.406.692,1.625,1.625,0,0,0,1.4-.7,3.527,3.527,0,0,0,.5-2.058,3.152,3.152,0,0,0-.516-1.9,1.649,1.649,0,0,0-1.4-.7,1.634,1.634,0,0,0-1.384.692A3.46,3.46,0,0,0,8.676-3.882ZM24.21,0H22.438V-8.562l-2.615.894v-1.5l4.16-1.531h.227Z" transform="translate(10582 6982)" fill="#161615"/><path d="M-19.889-4.519h-4.292V0h-1.853V-10.664h6.775V-9.17h-4.922V-6h4.292Zm1.436.483a4.673,4.673,0,0,1,.461-2.1A3.37,3.37,0,0,1-16.7-7.57a3.653,3.653,0,0,1,1.919-.5,3.462,3.462,0,0,1,2.6,1.033A4.062,4.062,0,0,1-11.093-4.3l.007.417a4.715,4.715,0,0,1-.45,2.095A3.329,3.329,0,0,1-12.825-.359a3.679,3.679,0,0,1-1.937.505A3.438,3.438,0,0,1-17.446-.97a4.278,4.278,0,0,1-1.007-2.977Zm1.78.154a3.193,3.193,0,0,0,.505,1.915,1.643,1.643,0,0,0,1.406.692,1.625,1.625,0,0,0,1.4-.7,3.527,3.527,0,0,0,.5-2.058,3.152,3.152,0,0,0-.516-1.9,1.649,1.649,0,0,0-1.4-.7,1.634,1.634,0,0,0-1.384.692A3.46,3.46,0,0,0-16.674-3.882Zm8.745-4.043.051.916A2.849,2.849,0,0,1-5.57-8.071q2.476,0,2.52,2.834V0H-4.83V-5.134a1.632,1.632,0,0,0-.326-1.117,1.371,1.371,0,0,0-1.066-.363,1.715,1.715,0,0,0-1.6.974V0h-1.78V-7.925Zm6.357,3.9a4.712,4.712,0,0,1,.85-2.941,2.722,2.722,0,0,1,2.278-1.11,2.587,2.587,0,0,1,2.036.879V-11.25h1.78V0H3.761L3.673-.82A2.624,2.624,0,0,1,1.542.146,2.707,2.707,0,0,1-.71-.974,4.884,4.884,0,0,1-1.571-4.021Zm1.78.154A3.3,3.3,0,0,0,.674-1.981,1.509,1.509,0,0,0,2-1.3a1.681,1.681,0,0,0,1.6-.974V-5.662A1.655,1.655,0,0,0,2.01-6.614a1.52,1.52,0,0,0-1.333.685A3.674,3.674,0,0,0,.209-3.867ZM6.9-4.036a4.673,4.673,0,0,1,.461-2.1,3.37,3.37,0,0,1,1.3-1.436,3.653,3.653,0,0,1,1.919-.5,3.462,3.462,0,0,1,2.6,1.033A4.062,4.062,0,0,1,14.257-4.3l.007.417a4.715,4.715,0,0,1-.45,2.095A3.329,3.329,0,0,1,12.524-.359a3.679,3.679,0,0,1-1.937.505A3.438,3.438,0,0,1,7.9-.97,4.278,4.278,0,0,1,6.9-3.948Zm1.78.154a3.193,3.193,0,0,0,.505,1.915,1.643,1.643,0,0,0,1.406.692,1.625,1.625,0,0,0,1.4-.7,3.527,3.527,0,0,0,.5-2.058,3.152,3.152,0,0,0-.516-1.9,1.649,1.649,0,0,0-1.4-.7,1.634,1.634,0,0,0-1.384.692A3.46,3.46,0,0,0,8.676-3.882ZM24.21,0H22.438V-8.562l-2.615.894v-1.5l4.16-1.531h.227Z" transform="translate(10291 6982)" fill="#161615"/></g></svg>