<svg xmlns="http://www.w3.org/2000/svg" width="610" height="69.803" viewBox="0 0 610 69.803"><g transform="translate(-495 -19304.361)"><g transform="translate(2329.103 19318.137)"><g transform="translate(-1832.528 -12.201)"><rect width="606.851" height="66.654" fill="none" stroke="#ad2564" stroke-miterlimit="10" stroke-width="1"/></g><circle cx="1.575" cy="1.575" r="1.575" transform="translate(-1834.102 -13.776)" fill="#ad2564"/><circle cx="1.575" cy="1.575" r="1.575" transform="translate(-1834.102 52.879)" fill="#ad2564"/><circle cx="1.575" cy="1.575" r="1.575" transform="translate(-1834.102 19.551)" fill="#ad2564"/><circle cx="1.575" cy="1.575" r="1.575" transform="translate(-1227.252 19.551)" fill="#ad2564"/><circle cx="1.575" cy="1.575" r="1.575" transform="translate(-1227.393 -13.776)" fill="#ad2564"/><circle cx="1.575" cy="1.575" r="1.575" transform="translate(-1227.393 52.879)" fill="#ad2564"/><path d="M-1708.559,21.277h356.449l-15.04-5.828" transform="translate(-0.648 -0.151)" fill="none" stroke="#ad2564" stroke-miterlimit="10" stroke-width="1"/><g transform="translate(-1797.556 -13.776)"><circle cx="1.575" cy="1.575" r="1.575" transform="translate(0.388)" fill="#ad2564"/><circle cx="1.575" cy="1.575" r="1.575" transform="translate(0.388 66.654)" fill="#ad2564"/><g transform="translate(0 1.575)"><line y2="4.563" transform="translate(1.962)" fill="none" stroke="#ad2564" stroke-miterlimit="10" stroke-width="1"/><line x2="3.925" transform="translate(0 4.563)" fill="none" stroke="#ad2564" stroke-miterlimit="10" stroke-width="1"/></g><g transform="translate(0 63.666)"><line y1="4.563" transform="translate(1.962)" fill="none" stroke="#ad2564" stroke-miterlimit="10" stroke-width="1"/><line x1="3.925" fill="none" stroke="#ad2564" stroke-miterlimit="10" stroke-width="1"/></g></g><g transform="translate(-1531.065 -13.776)"><circle cx="1.575" cy="1.575" r="1.575" transform="translate(0.388)" fill="#ad2564"/><circle cx="1.575" cy="1.575" r="1.575" transform="translate(0.388 66.654)" fill="#ad2564"/><g transform="translate(0 1.575)"><line y2="4.563" transform="translate(1.962)" fill="none" stroke="#ad2564" stroke-miterlimit="10" stroke-width="1"/><line x2="3.925" transform="translate(0 4.563)" fill="none" stroke="#ad2564" stroke-miterlimit="10" stroke-width="1"/></g><g transform="translate(0 63.666)"><line y1="4.563" transform="translate(1.962)" fill="none" stroke="#ad2564" stroke-miterlimit="10" stroke-width="1"/><line x1="3.925" fill="none" stroke="#ad2564" stroke-miterlimit="10" stroke-width="1"/></g></g><g transform="translate(-1266.148 -13.776)"><circle cx="1.575" cy="1.575" r="1.575" transform="translate(0.388)" fill="#ad2564"/><circle cx="1.575" cy="1.575" r="1.575" transform="translate(0.388 66.654)" fill="#ad2564"/><g transform="translate(0 1.575)"><line y2="4.563" transform="translate(1.962)" fill="none" stroke="#ad2564" stroke-miterlimit="10" stroke-width="1"/><line x2="3.925" transform="translate(0 4.563)" fill="none" stroke="#ad2564" stroke-miterlimit="10" stroke-width="1"/></g><g transform="translate(0 63.666)"><line y1="4.563" transform="translate(1.962)" fill="none" stroke="#ad2564" stroke-miterlimit="10" stroke-width="1"/><line x1="3.925" fill="none" stroke="#ad2564" stroke-miterlimit="10" stroke-width="1"/></g></g><g transform="translate(-1832.528 19.164)"><line x2="4.563" transform="translate(0 1.962)" fill="none" stroke="#ad2564" stroke-miterlimit="10" stroke-width="1"/><line y1="3.925" transform="translate(4.563)" fill="none" stroke="#ad2564" stroke-miterlimit="10" stroke-width="1"/></g></g><g transform="translate(673 19272)" style="isolation:isolate"><path d="M3.329-4.491V0h-2.1V-12.086H5.852a4.679,4.679,0,0,1,3.217,1.054A3.543,3.543,0,0,1,10.26-8.243,3.425,3.425,0,0,1,9.094-5.479a4.905,4.905,0,0,1-3.266.988Zm0-1.685H5.852A2.485,2.485,0,0,0,7.562-6.7a1.937,1.937,0,0,0,.589-1.523,2.09,2.09,0,0,0-.6-1.565,2.3,2.3,0,0,0-1.644-.6H3.329ZM16.6-7.139a4.991,4.991,0,0,0-.822-.066,1.85,1.85,0,0,0-1.868,1.063V0H11.9V-8.981h1.926l.05,1A2.273,2.273,0,0,1,15.9-9.147a1.888,1.888,0,0,1,.714.116Zm5.229,7.3a4.173,4.173,0,0,1-3.109-1.208,4.381,4.381,0,0,1-1.191-3.217v-.249a5.389,5.389,0,0,1,.519-2.4,3.949,3.949,0,0,1,1.457-1.648A3.851,3.851,0,0,1,21.6-9.147a3.525,3.525,0,0,1,2.835,1.17,4.949,4.949,0,0,1,1,3.312v.813H19.565a2.7,2.7,0,0,0,.743,1.76,2.23,2.23,0,0,0,1.639.647,2.731,2.731,0,0,0,2.258-1.121l1.087,1.038a3.631,3.631,0,0,1-1.44,1.249A4.509,4.509,0,0,1,21.831.166ZM21.59-7.529a1.7,1.7,0,0,0-1.341.581A3.012,3.012,0,0,0,19.6-5.329h3.843v-.149A2.452,2.452,0,0,0,22.9-7.01,1.686,1.686,0,0,0,21.59-7.529Zm7.936-3.636v2.183h1.585v1.494H29.526v5.014a1.1,1.1,0,0,0,.2.743.943.943,0,0,0,.726.228,3.107,3.107,0,0,0,.706-.083V-.025a4.968,4.968,0,0,1-1.328.191q-2.324,0-2.324-2.565V-7.487H26.031V-8.981h1.478v-2.183ZM34.8,0H32.78V-8.981H34.8ZM32.655-11.314a1.071,1.071,0,0,1,.295-.772,1.113,1.113,0,0,1,.843-.307,1.127,1.127,0,0,1,.847.307,1.062,1.062,0,0,1,.3.772,1.038,1.038,0,0,1-.3.76,1.136,1.136,0,0,1-.847.3,1.122,1.122,0,0,1-.843-.3A1.046,1.046,0,0,1,32.655-11.314Zm6.209,2.333.058,1.038a3.229,3.229,0,0,1,2.615-1.2q2.806,0,2.855,3.212V0H42.375V-5.819a1.85,1.85,0,0,0-.369-1.266A1.554,1.554,0,0,0,40.8-7.5a1.944,1.944,0,0,0-1.818,1.1V0H36.963V-8.981ZM51.813,0a3.113,3.113,0,0,1-.232-.838,3.14,3.14,0,0,1-2.357,1,3.169,3.169,0,0,1-2.208-.772,2.47,2.47,0,0,1-.855-1.909,2.55,2.55,0,0,1,1.067-2.2,5.169,5.169,0,0,1,3.051-.768h1.237v-.589a1.573,1.573,0,0,0-.39-1.116,1.547,1.547,0,0,0-1.187-.419,1.777,1.777,0,0,0-1.129.344,1.066,1.066,0,0,0-.44.876H46.352a2.239,2.239,0,0,1,.49-1.382,3.263,3.263,0,0,1,1.332-1.009,4.68,4.68,0,0,1,1.88-.365,3.769,3.769,0,0,1,2.515.793,2.827,2.827,0,0,1,.963,2.229v4.051a4.591,4.591,0,0,0,.34,1.934V0ZM49.6-1.453a2.294,2.294,0,0,0,1.125-.291,1.941,1.941,0,0,0,.793-.78V-4.217H50.427a2.973,2.973,0,0,0-1.685.39,1.264,1.264,0,0,0-.564,1.1,1.179,1.179,0,0,0,.386.926A1.5,1.5,0,0,0,49.6-1.453Z" transform="translate(92 63.001)" fill="#111211"/></g></g></svg>