<svg xmlns="http://www.w3.org/2000/svg" width="400" height="112" viewBox="0 0 400 112"><g transform="translate(-285 -18015)"><g transform="translate(2209.292 17050.67)"><path d="M-1583.079,1046.031c-14.1,14.917-32.262,15.537-35.575,15.591h-260.362V979.606h309.544V1012.3A50.883,50.883,0,0,1-1583.079,1046.031Z" fill="#fff" stroke="#3b3b3c" stroke-miterlimit="10" stroke-width="1"/><circle cx="1.276" cy="1.276" r="1.276" transform="translate(-1880.291 978.331)" fill="#3b3b3c"/><circle cx="1.276" cy="1.276" r="1.276" transform="translate(-1570.748 978.331)" fill="#3b3b3c"/><circle cx="1.276" cy="1.276" r="1.276" transform="translate(-1570.748 1010.853)" fill="#3b3b3c"/><circle cx="1.276" cy="1.276" r="1.276" transform="translate(-1880.291 1060.134)" fill="#3b3b3c"/><circle cx="1.276" cy="1.276" r="1.276" transform="translate(-1585.299 1045.748)" fill="#3b3b3c"/><circle cx="1.276" cy="1.276" r="1.276" transform="translate(-1620.142 1060.134)" fill="#3b3b3c"/><path d="M-1815.9,1024.7h184.063l-17.386-8.169" fill="none" stroke="#3b3b3c" stroke-miterlimit="10" stroke-width="1"/></g><rect width="400" height="112" transform="translate(285 18015)" fill="none"/><g transform="translate(459 18051)" style="isolation:isolate"><path d="M7.994-2.814H3.312L2.333,0H.149L4.715-12.086H6.6L11.173,0H8.981ZM3.9-4.507H7.4L5.653-9.521ZM14.493,0H12.476V-12.75h2.017Zm6.151.166a4.173,4.173,0,0,1-3.109-1.208,4.381,4.381,0,0,1-1.191-3.217v-.249a5.389,5.389,0,0,1,.519-2.4A3.949,3.949,0,0,1,18.32-8.558a3.851,3.851,0,0,1,2.092-.589,3.525,3.525,0,0,1,2.835,1.17,4.949,4.949,0,0,1,1,3.312v.813H18.378a2.7,2.7,0,0,0,.743,1.76,2.23,2.23,0,0,0,1.639.647,2.731,2.731,0,0,0,2.258-1.121l1.087,1.038a3.631,3.631,0,0,1-1.44,1.249A4.509,4.509,0,0,1,20.644.166ZM20.4-7.529a1.7,1.7,0,0,0-1.341.581,3.012,3.012,0,0,0-.652,1.619h3.843v-.149a2.452,2.452,0,0,0-.54-1.531A1.686,1.686,0,0,0,20.4-7.529Zm7.936-3.636v2.183h1.585v1.494H28.339v5.014a1.1,1.1,0,0,0,.2.743.943.943,0,0,0,.726.228,3.107,3.107,0,0,0,.706-.083V-.025a4.968,4.968,0,0,1-1.328.191q-2.324,0-2.324-2.565V-7.487H24.844V-8.981h1.478v-2.183ZM33.61,0H31.593V-8.981H33.61ZM31.468-11.314a1.071,1.071,0,0,1,.295-.772,1.113,1.113,0,0,1,.843-.307,1.127,1.127,0,0,1,.847.307,1.062,1.062,0,0,1,.3.772,1.038,1.038,0,0,1-.3.76,1.136,1.136,0,0,1-.847.3,1.122,1.122,0,0,1-.843-.3A1.046,1.046,0,0,1,31.468-11.314ZM37.951,0H35.934V-12.75h2.017Zm4.341,0H40.275V-12.75h2.017Zm7.562,0a3.113,3.113,0,0,1-.232-.838,3.14,3.14,0,0,1-2.357,1,3.169,3.169,0,0,1-2.208-.772A2.47,2.47,0,0,1,44.2-2.515a2.55,2.55,0,0,1,1.067-2.2,5.169,5.169,0,0,1,3.051-.768h1.237v-.589a1.573,1.573,0,0,0-.39-1.116,1.547,1.547,0,0,0-1.187-.419,1.777,1.777,0,0,0-1.129.344,1.066,1.066,0,0,0-.44.876H44.393a2.239,2.239,0,0,1,.49-1.382,3.263,3.263,0,0,1,1.332-1.009,4.68,4.68,0,0,1,1.88-.365,3.769,3.769,0,0,1,2.515.793,2.827,2.827,0,0,1,.963,2.229v4.051a4.591,4.591,0,0,0,.34,1.934V0ZM47.638-1.453a2.294,2.294,0,0,0,1.125-.291,1.941,1.941,0,0,0,.793-.78V-4.217H48.468a2.973,2.973,0,0,0-1.685.39,1.264,1.264,0,0,0-.564,1.1A1.179,1.179,0,0,0,46.6-1.8,1.5,1.5,0,0,0,47.638-1.453Z" transform="translate(0 16)" fill="#111211"/></g></g></svg>