<svg xmlns="http://www.w3.org/2000/svg" width="295" height="125" viewBox="0 0 295 125"><g transform="translate(-600 -4576)"><rect width="295" height="125" transform="translate(600 4576)" fill="none"/><g transform="translate(2255.661 4453.231)"><path d="M-1547.6,204.647a.3.3,0,0,0-.411.075,20.533,20.533,0,0,1-1.427,1.836.3.3,0,0,0,.029.417.293.293,0,0,0,.194.073.293.293,0,0,0,.223-.1,21.236,21.236,0,0,0,1.468-1.889A.3.3,0,0,0-1547.6,204.647Z" fill="#313131"/><path d="M-1544.11,177.025a.3.3,0,0,0-.3.3v2.36a.3.3,0,0,0,.3.295.3.3,0,0,0,.3-.295v-2.36A.3.3,0,0,0-1544.11,177.025Z" fill="#313131"/><path d="M-1551.06,208.221a20.593,20.593,0,0,1-1.8,1.469.3.3,0,0,0-.065.414.3.3,0,0,0,.239.122.3.3,0,0,0,.174-.057,21.271,21.271,0,0,0,1.853-1.511.3.3,0,0,0,.018-.418A.3.3,0,0,0-1551.06,208.221Z" fill="#313131"/><path d="M-1554.815,210.947a20.342,20.342,0,0,1-2.085,1.025.3.3,0,0,0-.157.388.3.3,0,0,0,.273.181.3.3,0,0,0,.115-.024,21.1,21.1,0,0,0,2.145-1.055.3.3,0,0,0,.112-.4A.3.3,0,0,0-1554.815,210.947Z" fill="#313131"/><path d="M-1559.088,212.754a20.354,20.354,0,0,1-2.264.525.3.3,0,0,0-.241.342.3.3,0,0,0,.291.246.293.293,0,0,0,.051-.005,21.077,21.077,0,0,0,2.329-.54.3.3,0,0,0,.2-.368A.3.3,0,0,0-1559.088,212.754Z" fill="#313131"/><path d="M-1544.11,181.744a.3.3,0,0,0-.3.3v2.36a.3.3,0,0,0,.3.3.3.3,0,0,0,.3-.3v-2.36A.3.3,0,0,0-1544.11,181.744Z" fill="#313131"/><path d="M-1544.11,186.464a.3.3,0,0,0-.3.3v2.359a.3.3,0,0,0,.3.3.3.3,0,0,0,.3-.3V186.76A.3.3,0,0,0-1544.11,186.464Z" fill="#313131"/><path d="M-1544.289,195.894a.3.3,0,0,0-.336.249,20.209,20.209,0,0,1-.47,2.276.3.3,0,0,0,.209.362.3.3,0,0,0,.077.01.3.3,0,0,0,.286-.219,20.95,20.95,0,0,0,.484-2.342A.3.3,0,0,0-1544.289,195.894Z" fill="#313131"/><path d="M-1545.439,200.46a.3.3,0,0,0-.384.167,20.589,20.589,0,0,1-.976,2.11.3.3,0,0,0,.121.4.292.292,0,0,0,.139.035.3.3,0,0,0,.262-.156,21.228,21.228,0,0,0,1-2.172A.3.3,0,0,0-1545.439,200.46Z" fill="#313131"/><path d="M-1544.11,191.183a.3.3,0,0,0-.3.3v1.668c0,.226,0,.456-.012.682a.3.3,0,0,0,.286.305h.01a.3.3,0,0,0,.3-.286c.007-.232.011-.468.011-.7v-1.668A.3.3,0,0,0-1544.11,191.183Z" fill="#313131"/><path d="M-1572.749,211.981a20.481,20.481,0,0,1-2.087-1.025.3.3,0,0,0-.4.113.3.3,0,0,0,.113.4,21.124,21.124,0,0,0,2.147,1.054.3.3,0,0,0,.115.023.3.3,0,0,0,.273-.18A.3.3,0,0,0-1572.749,211.981Z" fill="#313131"/><path d="M-1585.04,196.166a.3.3,0,0,0-.337-.249.3.3,0,0,0-.249.336,20.932,20.932,0,0,0,.487,2.342.3.3,0,0,0,.286.219.3.3,0,0,0,.077-.01.3.3,0,0,0,.209-.363A20.155,20.155,0,0,1-1585.04,196.166Z" fill="#313131"/><path d="M-1583.837,200.648a.3.3,0,0,0-.384-.167.3.3,0,0,0-.166.384,20.988,20.988,0,0,0,1.006,2.169.3.3,0,0,0,.261.156.29.29,0,0,0,.139-.035.3.3,0,0,0,.121-.4A20.722,20.722,0,0,1-1583.837,200.648Z" fill="#313131"/><path d="M-1585.537,194.158a.3.3,0,0,0,.286-.306c-.008-.235-.012-.472-.012-.705V191.5a.3.3,0,0,0-.3-.295.3.3,0,0,0-.3.295v1.645c0,.24.005.484.013.725a.3.3,0,0,0,.3.286Z" fill="#313131"/><path d="M-1585.559,184.719a.3.3,0,0,0,.3-.3v-2.359a.3.3,0,0,0-.3-.3.3.3,0,0,0-.3.3v2.359A.3.3,0,0,0-1585.559,184.719Z" fill="#313131"/><path d="M-1585.559,189.439a.3.3,0,0,0,.3-.3v-2.36a.3.3,0,0,0-.3-.3.3.3,0,0,0-.3.3v2.36A.3.3,0,0,0-1585.559,189.439Z" fill="#313131"/><path d="M-1576.793,209.7a20.746,20.746,0,0,1-1.8-1.468.3.3,0,0,0-.418.019.3.3,0,0,0,.019.418,21.29,21.29,0,0,0,1.854,1.51.3.3,0,0,0,.174.057.3.3,0,0,0,.239-.123A.3.3,0,0,0-1576.793,209.7Z" fill="#313131"/><path d="M-1585.559,180a.3.3,0,0,0,.3-.3v-2.36a.3.3,0,0,0-.3-.3.3.3,0,0,0-.3.3v2.36A.3.3,0,0,0-1585.559,180Z" fill="#313131"/><path d="M-1568.294,213.283a20.071,20.071,0,0,1-2.264-.523.3.3,0,0,0-.367.2.3.3,0,0,0,.2.367,20.88,20.88,0,0,0,2.331.538.293.293,0,0,0,.05.005.3.3,0,0,0,.291-.246A.3.3,0,0,0-1568.294,213.283Z" fill="#313131"/><path d="M-1563.661,213.543c-.389.022-.781.028-1.174.033s-.769-.01-1.15-.032a.3.3,0,0,0-.312.279.3.3,0,0,0,.279.312c.392.022.79.033,1.183.033s.809-.012,1.208-.034a.3.3,0,0,0,.279-.312A.3.3,0,0,0-1563.661,213.543Z" fill="#313131"/><path d="M-1581.649,204.738a.3.3,0,0,0-.411-.075.3.3,0,0,0-.075.411,21.039,21.039,0,0,0,1.469,1.887.293.293,0,0,0,.223.1.293.293,0,0,0,.194-.073.3.3,0,0,0,.028-.417A20.723,20.723,0,0,1-1581.649,204.738Z" fill="#313131"/><path d="M-1539.655,154.958h-50.533V174.37h2.026v18.777a23.354,23.354,0,0,0,23.328,23.328,23.355,23.355,0,0,0,23.328-23.328V174.37h1.851Zm-3.035,38.189a22.169,22.169,0,0,1-22.145,22.145,22.17,22.17,0,0,1-22.144-22.145V174.37h1.124v.591a.3.3,0,0,0,.3.3.3.3,0,0,0,.3-.3v-.591h40.858v.591a.3.3,0,0,0,.3.3.3.3,0,0,0,.3-.3v-.591h1.124Zm1.852-19.96h-48.167V156.141h1.15l.012.6a.3.3,0,0,0,.3.29h.006a.3.3,0,0,0,.29-.3l-.011-.585h44l.012.6a.3.3,0,0,0,.3.29h.006a.3.3,0,0,0,.289-.3l-.011-.585h1.831Z" fill="#313131"/><path d="M-1587.439,162.5h.006a.3.3,0,0,0,.29-.3l-.054-2.737a.3.3,0,0,0-.3-.29.3.3,0,0,0-.29.3l.055,2.737A.3.3,0,0,0-1587.439,162.5Z" fill="#313131"/><path d="M-1587.33,167.975h.006a.3.3,0,0,0,.29-.3l-.054-2.737a.3.3,0,0,0-.3-.289.3.3,0,0,0-.29.3l.055,2.737A.3.3,0,0,0-1587.33,167.975Z" fill="#313131"/><path d="M-1586.068,171.3h-.894l-.017-.893a.3.3,0,0,0-.3-.29h-.006a.3.3,0,0,0-.29.3l.024,1.183a.3.3,0,0,0,.3.29h1.184a.3.3,0,0,0,.3-.3A.3.3,0,0,0-1586.068,171.3Z" fill="#313131"/><path d="M-1556.261,171.3h-2.484a.3.3,0,0,0-.3.3.3.3,0,0,0,.3.3h2.484a.3.3,0,0,0,.3-.3A.3.3,0,0,0-1556.261,171.3Z" fill="#313131"/><path d="M-1561.229,171.3h-2.483a.3.3,0,0,0-.3.3.3.3,0,0,0,.3.3h2.483a.3.3,0,0,0,.3-.3A.3.3,0,0,0-1561.229,171.3Z" fill="#313131"/><path d="M-1551.293,171.3h-2.484a.3.3,0,0,0-.3.3.3.3,0,0,0,.3.3h2.484a.3.3,0,0,0,.3-.3A.3.3,0,0,0-1551.293,171.3Z" fill="#313131"/><path d="M-1546.325,171.3h-2.484a.3.3,0,0,0-.3.3.3.3,0,0,0,.3.3h2.484a.3.3,0,0,0,.3-.3A.3.3,0,0,0-1546.325,171.3Z" fill="#313131"/><path d="M-1571.164,171.3h-2.484a.3.3,0,0,0-.3.3.3.3,0,0,0,.3.3h2.484a.3.3,0,0,0,.295-.3A.3.3,0,0,0-1571.164,171.3Z" fill="#313131"/><path d="M-1581.1,171.3h-2.484a.3.3,0,0,0-.3.3.3.3,0,0,0,.3.3h2.484a.3.3,0,0,0,.3-.3A.3.3,0,0,0-1581.1,171.3Z" fill="#313131"/><path d="M-1566.2,171.3h-2.484a.3.3,0,0,0-.3.3.3.3,0,0,0,.3.3h2.484a.3.3,0,0,0,.3-.3A.3.3,0,0,0-1566.2,171.3Z" fill="#313131"/><path d="M-1576.132,171.3h-2.484a.3.3,0,0,0-.3.3.3.3,0,0,0,.3.3h2.484a.3.3,0,0,0,.295-.3A.3.3,0,0,0-1576.132,171.3Z" fill="#313131"/><path d="M-1542.687,170.12a.3.3,0,0,0-.29.3l.018.881h-.882a.3.3,0,0,0-.3.3.3.3,0,0,0,.3.3h1.184a.3.3,0,0,0,.211-.089.3.3,0,0,0,.084-.213l-.023-1.183A.3.3,0,0,0-1542.687,170.12Z" fill="#313131"/><path d="M-1542.8,164.647a.3.3,0,0,0-.29.3l.055,2.737a.3.3,0,0,0,.3.29h.006a.3.3,0,0,0,.29-.3l-.054-2.737A.3.3,0,0,0-1542.8,164.647Z" fill="#313131"/><path d="M-1542.905,159.173a.3.3,0,0,0-.29.3l.055,2.737a.3.3,0,0,0,.3.289h.006a.3.3,0,0,0,.29-.3l-.054-2.737A.294.294,0,0,0-1542.905,159.173Z" fill="#313131"/><path d="M-1431.791,186.861a.3.3,0,0,0-.3.3v2.215a.3.3,0,0,0,.3.3.3.3,0,0,0,.3-.3v-2.215A.3.3,0,0,0-1431.791,186.861Z" fill="#313131"/><path d="M-1431.791,204.576a.3.3,0,0,0-.3.3v2.214a.3.3,0,0,0,.3.3.3.3,0,0,0,.3-.3v-2.214A.3.3,0,0,0-1431.791,204.576Z" fill="#313131"/><path d="M-1431.791,195.719a.3.3,0,0,0-.3.3v2.214a.3.3,0,0,0,.3.3.3.3,0,0,0,.3-.3v-2.214A.3.3,0,0,0-1431.791,195.719Z" fill="#313131"/><path d="M-1431.791,200.147a.3.3,0,0,0-.3.3v2.215a.3.3,0,0,0,.3.295.3.3,0,0,0,.3-.295v-2.215A.3.3,0,0,0-1431.791,200.147Z" fill="#313131"/><path d="M-1431.791,191.29a.3.3,0,0,0-.3.3V193.8a.3.3,0,0,0,.3.3.3.3,0,0,0,.3-.3v-2.214A.3.3,0,0,0-1431.791,191.29Z" fill="#313131"/><path d="M-1431.791,182.433a.3.3,0,0,0-.3.3v2.214a.3.3,0,0,0,.3.3.3.3,0,0,0,.3-.3v-2.214A.3.3,0,0,0-1431.791,182.433Z" fill="#313131"/><path d="M-1431.791,209.005a.3.3,0,0,0-.3.295v.888h-.888a.3.3,0,0,0-.3.3.3.3,0,0,0,.3.3h1.184a.3.3,0,0,0,.3-.3V209.3A.3.3,0,0,0-1431.791,209.005Z" fill="#313131"/><path d="M-1444.662,210.188H-1447a.3.3,0,0,0-.3.3.3.3,0,0,0,.3.3h2.338a.3.3,0,0,0,.3-.3A.3.3,0,0,0-1444.662,210.188Z" fill="#313131"/><path d="M-1439.987,210.188h-2.338a.3.3,0,0,0-.3.3.3.3,0,0,0,.3.3h2.338a.3.3,0,0,0,.3-.3A.3.3,0,0,0-1439.987,210.188Z" fill="#313131"/><path d="M-1435.312,210.188h-2.338a.3.3,0,0,0-.3.3.3.3,0,0,0,.3.3h2.338a.3.3,0,0,0,.3-.3A.3.3,0,0,0-1435.312,210.188Z" fill="#313131"/><path d="M-1449.337,210.188h-2.338a.3.3,0,0,0-.3.3.3.3,0,0,0,.3.3h2.338a.3.3,0,0,0,.3-.3A.3.3,0,0,0-1449.337,210.188Z" fill="#313131"/><path d="M-1463.363,210.188h-2.337a.3.3,0,0,0-.3.3.3.3,0,0,0,.3.3h2.337a.3.3,0,0,0,.3-.3A.3.3,0,0,0-1463.363,210.188Z" fill="#313131"/><path d="M-1458.688,210.188h-2.337a.3.3,0,0,0-.3.3.3.3,0,0,0,.3.3h2.337a.3.3,0,0,0,.3-.3A.3.3,0,0,0-1458.688,210.188Z" fill="#313131"/><path d="M-1468.038,210.188h-2.337a.3.3,0,0,0-.3.3.3.3,0,0,0,.3.3h2.337a.3.3,0,0,0,.3-.3A.3.3,0,0,0-1468.038,210.188Z" fill="#313131"/><path d="M-1454.012,210.188h-2.338a.3.3,0,0,0-.3.3.3.3,0,0,0,.3.3h2.338a.3.3,0,0,0,.295-.3A.3.3,0,0,0-1454.012,210.188Z" fill="#313131"/><path d="M-1472.713,210.188h-.887V209.3a.3.3,0,0,0-.3-.295.3.3,0,0,0-.3.295v1.184a.3.3,0,0,0,.3.3h1.183a.3.3,0,0,0,.3-.3A.3.3,0,0,0-1472.713,210.188Z" fill="#313131"/><path d="M-1473.9,189.69a.3.3,0,0,0,.3-.3v-2.212a.3.3,0,0,0-.3-.3.3.3,0,0,0-.3.3v2.212A.3.3,0,0,0-1473.9,189.69Z" fill="#313131"/><path d="M-1473.9,185.266a.3.3,0,0,0,.3-.3v-2.212a.3.3,0,0,0-.3-.3.3.3,0,0,0-.3.3v2.212A.3.3,0,0,0-1473.9,185.266Z" fill="#313131"/><path d="M-1473.9,194.113a.3.3,0,0,0,.3-.3v-2.211a.3.3,0,0,0-.3-.3.3.3,0,0,0-.3.3v2.211A.3.3,0,0,0-1473.9,194.113Z" fill="#313131"/><path d="M-1473.9,207.384a.3.3,0,0,0,.3-.295v-2.212a.3.3,0,0,0-.3-.3.3.3,0,0,0-.3.3v2.212A.3.3,0,0,0-1473.9,207.384Z" fill="#313131"/><path d="M-1473.9,202.961a.3.3,0,0,0,.3-.3v-2.212a.3.3,0,0,0-.3-.3.3.3,0,0,0-.3.3v2.212A.3.3,0,0,0-1473.9,202.961Z" fill="#313131"/><path d="M-1473.9,198.537a.3.3,0,0,0,.3-.3v-2.212a.3.3,0,0,0-.3-.3.3.3,0,0,0-.3.3v2.212A.3.3,0,0,0-1473.9,198.537Z" fill="#313131"/><path d="M-1427.577,158.475h-50.533v19.164l2.026,1.156v34.163h46.657V178.681l1.85-1.039Zm-3.033,53.3H-1474.9v-32.3l.709.4v.671a.3.3,0,0,0,.3.3.3.3,0,0,0,.3-.3v-.334l20.562,11.733,20.951-11.769v.338a.3.3,0,0,0,.3.3.3.3,0,0,0,.3-.3v-.671l.885-.5Zm1.85-34.826-24.274,13.636-23.892-13.633V159.658h1.149l.012.6a.3.3,0,0,0,.3.289h.006a.3.3,0,0,0,.29-.3l-.012-.586h44l.012.6a.3.3,0,0,0,.3.289h.006a.3.3,0,0,0,.29-.3l-.012-.586h1.831Z" fill="#313131"/><path d="M-1475.251,171.492h.006a.3.3,0,0,0,.289-.3l-.054-2.736a.3.3,0,0,0-.3-.29.294.294,0,0,0-.289.3l.054,2.737A.3.3,0,0,0-1475.251,171.492Z" fill="#313131"/><path d="M-1475.36,166.019h.006a.3.3,0,0,0,.289-.3l-.054-2.737a.3.3,0,0,0-.3-.29.3.3,0,0,0-.289.3l.054,2.737A.3.3,0,0,0-1475.36,166.019Z" fill="#313131"/><path d="M-1474,175.437l-.884-.5-.02-1.014a.3.3,0,0,0-.3-.29.3.3,0,0,0-.289.3l.023,1.183a.3.3,0,0,0,.151.252l1.032.579a.29.29,0,0,0,.144.038.3.3,0,0,0,.259-.151A.3.3,0,0,0-1474,175.437Z" fill="#313131"/><path d="M-1456.614,185.2l-2.173-1.219a.3.3,0,0,0-.4.113.3.3,0,0,0,.114.4l2.172,1.219a.294.294,0,0,0,.145.038.3.3,0,0,0,.258-.151A.3.3,0,0,0-1456.614,185.2Z" fill="#313131"/><path d="M-1460.96,182.756l-2.172-1.22a.3.3,0,0,0-.4.113.3.3,0,0,0,.113.4l2.173,1.22a.288.288,0,0,0,.144.038.3.3,0,0,0,.258-.151A.3.3,0,0,0-1460.96,182.756Z" fill="#313131"/><path d="M-1469.651,177.877l-2.173-1.22a.3.3,0,0,0-.4.113.3.3,0,0,0,.113.4l2.172,1.22a.305.305,0,0,0,.145.038.3.3,0,0,0,.258-.151A.3.3,0,0,0-1469.651,177.877Z" fill="#313131"/><path d="M-1465.305,180.316l-2.173-1.219a.3.3,0,0,0-.4.113.3.3,0,0,0,.113.4l2.173,1.219a.294.294,0,0,0,.145.038.3.3,0,0,0,.258-.151A.3.3,0,0,0-1465.305,180.316Z" fill="#313131"/><path d="M-1452.646,186.438l-.9.477-.891-.5a.3.3,0,0,0-.4.113.3.3,0,0,0,.113.4l1.032.579a.3.3,0,0,0,.145.038.293.293,0,0,0,.138-.034l1.046-.553a.3.3,0,0,0,.124-.4A.3.3,0,0,0-1452.646,186.438Z" fill="#313131"/><path d="M-1441.256,180.421l-1.9,1a.3.3,0,0,0-.123.4.3.3,0,0,0,.261.157.3.3,0,0,0,.138-.034l1.9-1a.3.3,0,0,0,.123-.4A.3.3,0,0,0-1441.256,180.421Z" fill="#313131"/><path d="M-1437.459,178.416l-1.9,1a.3.3,0,0,0-.124.4.3.3,0,0,0,.262.158.286.286,0,0,0,.138-.035l1.9-1a.3.3,0,0,0,.123-.4A.3.3,0,0,0-1437.459,178.416Z" fill="#313131"/><path d="M-1433.662,176.41l-1.9,1a.3.3,0,0,0-.124.4.3.3,0,0,0,.262.157.3.3,0,0,0,.138-.034l1.9-1a.3.3,0,0,0,.124-.4A.3.3,0,0,0-1433.662,176.41Z" fill="#313131"/><path d="M-1445.052,182.427l-1.9,1a.3.3,0,0,0-.123.4.294.294,0,0,0,.262.158.3.3,0,0,0,.138-.034l1.9-1a.3.3,0,0,0,.123-.4A.3.3,0,0,0-1445.052,182.427Z" fill="#313131"/><path d="M-1448.849,184.432l-1.9,1a.3.3,0,0,0-.123.4.3.3,0,0,0,.262.158.289.289,0,0,0,.138-.035l1.9-1a.3.3,0,0,0,.124-.4A.3.3,0,0,0-1448.849,184.432Z" fill="#313131"/><path d="M-1430.609,173.637a.3.3,0,0,0-.289.3l.019,1-.885.467a.3.3,0,0,0-.123.4.3.3,0,0,0,.262.158.288.288,0,0,0,.138-.035l1.046-.552a.3.3,0,0,0,.158-.268l-.024-1.183A.3.3,0,0,0-1430.609,173.637Z" fill="#313131"/><path d="M-1430.826,162.691a.294.294,0,0,0-.29.3l.054,2.737a.3.3,0,0,0,.3.29h.006a.3.3,0,0,0,.29-.3l-.055-2.737A.293.293,0,0,0-1430.826,162.691Z" fill="#313131"/><path d="M-1430.717,168.164a.294.294,0,0,0-.29.3l.054,2.737a.3.3,0,0,0,.3.29h.006a.3.3,0,0,0,.29-.3l-.055-2.736A.294.294,0,0,0-1430.717,168.164Z" fill="#313131"/><path d="M-1374.285,158.97h-46.065v53.493h46.657V158.97Zm-43.58,1.183h1.594l.436.488a.292.292,0,0,0,.221.1.293.293,0,0,0,.2-.075.3.3,0,0,0,.023-.418l-.084-.094h37.162l-.316.347a.3.3,0,0,0,.018.418.3.3,0,0,0,.2.078.294.294,0,0,0,.218-.1l.681-.746h1.163v.82l-20.755,23.048-20.758-23.229Zm42.1,0h.146l-.146.163Zm-43.407,51.127V161.112l21.617,24.19a.592.592,0,0,0,.44.2.591.591,0,0,0,.441-.2l21.793-24.2V211.28Z" fill="#313131"/><path d="M-1418.161,193.257a.3.3,0,0,0,.3-.295V190.7a.3.3,0,0,0-.3-.3.3.3,0,0,0-.3.3v2.264A.3.3,0,0,0-1418.161,193.257Z" fill="#313131"/><path d="M-1418.161,188.731a.3.3,0,0,0,.3-.3v-2.264a.3.3,0,0,0-.3-.3.3.3,0,0,0-.3.3v2.264A.3.3,0,0,0-1418.161,188.731Z" fill="#313131"/><path d="M-1418.161,184.2a.3.3,0,0,0,.3-.3v-2.264a.3.3,0,0,0-.3-.295.3.3,0,0,0-.3.295v2.264A.3.3,0,0,0-1418.161,184.2Z" fill="#313131"/><path d="M-1418.161,197.784a.3.3,0,0,0,.3-.3v-2.263a.3.3,0,0,0-.3-.3.3.3,0,0,0-.3.3v2.263A.3.3,0,0,0-1418.161,197.784Z" fill="#313131"/><path d="M-1418.161,179.677a.3.3,0,0,0,.3-.3v-2.263a.3.3,0,0,0-.3-.3.3.3,0,0,0-.3.3v2.263A.3.3,0,0,0-1418.161,179.677Z" fill="#313131"/><path d="M-1418.161,170.623a.3.3,0,0,0,.3-.3v-2.263a.3.3,0,0,0-.3-.3.3.3,0,0,0-.3.3v2.263A.3.3,0,0,0-1418.161,170.623Z" fill="#313131"/><path d="M-1418.161,206.838a.3.3,0,0,0,.3-.3v-2.263a.3.3,0,0,0-.3-.3.3.3,0,0,0-.3.3v2.263A.3.3,0,0,0-1418.161,206.838Z" fill="#313131"/><path d="M-1418.161,166.1a.3.3,0,0,0,.3-.3v-2.263a.3.3,0,0,0-.3-.3.3.3,0,0,0-.3.3V165.8A.3.3,0,0,0-1418.161,166.1Z" fill="#313131"/><path d="M-1418.161,175.15a.3.3,0,0,0,.3-.3v-2.263a.3.3,0,0,0-.3-.3.3.3,0,0,0-.3.3v2.263A.3.3,0,0,0-1418.161,175.15Z" fill="#313131"/><path d="M-1418.161,202.311a.3.3,0,0,0,.3-.3v-2.263a.3.3,0,0,0-.3-.3.3.3,0,0,0-.3.3v2.263A.3.3,0,0,0-1418.161,202.311Z" fill="#313131"/><path d="M-1416.978,209.693h-.887v-.887a.3.3,0,0,0-.3-.3.3.3,0,0,0-.3.3v1.183a.3.3,0,0,0,.3.3h1.183a.3.3,0,0,0,.3-.3A.3.3,0,0,0-1416.978,209.693Z" fill="#313131"/><path d="M-1412.3,209.693h-2.338a.3.3,0,0,0-.3.3.3.3,0,0,0,.3.3h2.338a.3.3,0,0,0,.3-.3A.3.3,0,0,0-1412.3,209.693Z" fill="#313131"/><path d="M-1384.252,209.693h-2.337a.3.3,0,0,0-.3.3.3.3,0,0,0,.3.3h2.337a.3.3,0,0,0,.3-.3A.3.3,0,0,0-1384.252,209.693Z" fill="#313131"/><path d="M-1407.627,209.693h-2.338a.3.3,0,0,0-.3.3.3.3,0,0,0,.3.3h2.338a.3.3,0,0,0,.3-.3A.3.3,0,0,0-1407.627,209.693Z" fill="#313131"/><path d="M-1379.577,209.693h-2.337a.3.3,0,0,0-.3.3.3.3,0,0,0,.3.3h2.337a.3.3,0,0,0,.3-.3A.3.3,0,0,0-1379.577,209.693Z" fill="#313131"/><path d="M-1388.927,209.693h-2.337a.3.3,0,0,0-.3.3.3.3,0,0,0,.3.3h2.337a.3.3,0,0,0,.3-.3A.3.3,0,0,0-1388.927,209.693Z" fill="#313131"/><path d="M-1402.952,209.693h-2.338a.3.3,0,0,0-.3.3.3.3,0,0,0,.3.3h2.338a.3.3,0,0,0,.3-.3A.3.3,0,0,0-1402.952,209.693Z" fill="#313131"/><path d="M-1393.6,209.693h-2.338a.3.3,0,0,0-.3.3.3.3,0,0,0,.3.3h2.338a.3.3,0,0,0,.3-.3A.3.3,0,0,0-1393.6,209.693Z" fill="#313131"/><path d="M-1398.277,209.693h-2.338a.3.3,0,0,0-.3.3.3.3,0,0,0,.3.3h2.338a.3.3,0,0,0,.3-.3A.3.3,0,0,0-1398.277,209.693Z" fill="#313131"/><path d="M-1376.056,208.51a.3.3,0,0,0-.3.3v.887h-.887a.3.3,0,0,0-.3.3.3.3,0,0,0,.3.3h1.183a.3.3,0,0,0,.3-.3v-1.183A.3.3,0,0,0-1376.056,208.51Z" fill="#313131"/><path d="M-1376.056,172.094a.3.3,0,0,0-.3.3v2.276a.3.3,0,0,0,.3.3.3.3,0,0,0,.3-.3v-2.276A.3.3,0,0,0-1376.056,172.094Z" fill="#313131"/><path d="M-1376.056,176.646a.3.3,0,0,0-.3.295v2.276a.3.3,0,0,0,.3.3.3.3,0,0,0,.3-.3v-2.276A.3.3,0,0,0-1376.056,176.646Z" fill="#313131"/><path d="M-1376.056,167.542a.3.3,0,0,0-.3.295v2.276a.3.3,0,0,0,.3.3.3.3,0,0,0,.3-.3v-2.276A.3.3,0,0,0-1376.056,167.542Z" fill="#313131"/><path d="M-1376.056,181.2a.3.3,0,0,0-.3.295v2.276a.3.3,0,0,0,.3.3.3.3,0,0,0,.3-.3v-2.276A.3.3,0,0,0-1376.056,181.2Z" fill="#313131"/><path d="M-1376.056,162.989a.3.3,0,0,0-.3.3v2.276a.3.3,0,0,0,.3.3.3.3,0,0,0,.3-.3v-2.276A.3.3,0,0,0-1376.056,162.989Z" fill="#313131"/><path d="M-1376.056,203.958a.3.3,0,0,0-.3.3v2.276a.3.3,0,0,0,.3.295.3.3,0,0,0,.3-.295v-2.276A.3.3,0,0,0-1376.056,203.958Z" fill="#313131"/><path d="M-1376.056,199.406a.3.3,0,0,0-.3.3v2.276a.3.3,0,0,0,.3.295.3.3,0,0,0,.3-.295V199.7A.3.3,0,0,0-1376.056,199.406Z" fill="#313131"/><path d="M-1376.056,190.3a.3.3,0,0,0-.3.295v2.277a.3.3,0,0,0,.3.3.3.3,0,0,0,.3-.3V190.6A.3.3,0,0,0-1376.056,190.3Z" fill="#313131"/><path d="M-1376.056,194.854a.3.3,0,0,0-.3.3v2.276a.3.3,0,0,0,.3.295.3.3,0,0,0,.3-.295V195.15A.3.3,0,0,0-1376.056,194.854Z" fill="#313131"/><path d="M-1376.056,185.75a.3.3,0,0,0-.3.295v2.276a.3.3,0,0,0,.3.3.3.3,0,0,0,.3-.3v-2.276A.3.3,0,0,0-1376.056,185.75Z" fill="#313131"/><path d="M-1410.562,165.659a.3.3,0,0,0-.417-.023.3.3,0,0,0-.024.417l1.611,1.8a.292.292,0,0,0,.221.1.3.3,0,0,0,.2-.075.3.3,0,0,0,.023-.418Z" fill="#313131"/><path d="M-1413.783,162.051a.3.3,0,0,0-.418-.023.3.3,0,0,0-.023.417l1.61,1.8a.3.3,0,0,0,.221.1.3.3,0,0,0,.2-.075.3.3,0,0,0,.024-.418Z" fill="#313131"/><path d="M-1407.34,169.267a.3.3,0,0,0-.418-.023.3.3,0,0,0-.023.417l1.61,1.8a.3.3,0,0,0,.221.1.3.3,0,0,0,.2-.075.3.3,0,0,0,.024-.418Z" fill="#313131"/><path d="M-1404.119,172.875a.3.3,0,0,0-.417-.023.3.3,0,0,0-.024.417l1.611,1.8a.291.291,0,0,0,.22.1.294.294,0,0,0,.2-.075.3.3,0,0,0,.024-.418Z" fill="#313131"/><path d="M-1400.9,176.483a.3.3,0,0,0-.418-.023.3.3,0,0,0-.024.417l1.611,1.8a.3.3,0,0,0,.221.1.3.3,0,0,0,.2-.075.3.3,0,0,0,.024-.418Z" fill="#313131"/><path d="M-1396.092,180.5a.3.3,0,0,0-.019-.418.3.3,0,0,0-.418.019l-.577.632-.57-.639a.3.3,0,0,0-.418-.023.3.3,0,0,0-.023.417l.788.883a.3.3,0,0,0,.219.1.3.3,0,0,0,.22-.1Z" fill="#313131"/><path d="M-1384.922,168.122a.293.293,0,0,0,.218-.1l1.627-1.782a.3.3,0,0,0-.018-.418.3.3,0,0,0-.418.019l-1.627,1.782a.3.3,0,0,0,.019.418A.3.3,0,0,0-1384.922,168.122Z" fill="#313131"/><path d="M-1388.176,171.685a.3.3,0,0,0,.219-.1l1.627-1.782a.3.3,0,0,0-.019-.418.3.3,0,0,0-.418.019l-1.627,1.782a.3.3,0,0,0,.019.418A.293.293,0,0,0-1388.176,171.685Z" fill="#313131"/><path d="M-1381.668,164.559a.294.294,0,0,0,.218-.1l1.627-1.781a.3.3,0,0,0-.019-.418.3.3,0,0,0-.417.019l-1.627,1.782a.294.294,0,0,0,.019.417A.292.292,0,0,0-1381.668,164.559Z" fill="#313131"/><path d="M-1391.43,175.248a.3.3,0,0,0,.219-.1l1.627-1.782a.3.3,0,0,0-.019-.418.3.3,0,0,0-.418.019l-1.627,1.782a.3.3,0,0,0,.019.418A.293.293,0,0,0-1391.43,175.248Z" fill="#313131"/><path d="M-1394.684,178.812a.3.3,0,0,0,.219-.1l1.627-1.781a.3.3,0,0,0-.019-.418.3.3,0,0,0-.418.019l-1.627,1.781a.3.3,0,0,0,.019.418A.3.3,0,0,0-1394.684,178.812Z" fill="#313131"/><path d="M-1610.348,156.963v-2.081h-16.242v2.081h-15.071v41.9l23.24,17.688L-1595,198.864v-41.9Zm-15.059-.9h13.876v26.161h-13.876Zm29.219,42.21-22.23,16.791-22.06-16.79v-40.13h.71v1.006a.3.3,0,0,0,.3.3.3.3,0,0,0,.3-.3v-1.006h12.586v25.263h16.242V158.146h12.685v.8a.3.3,0,0,0,.3.3.3.3,0,0,0,.3-.3v-.8h.883Z" fill="#313131"/><path d="M-1639.472,183.953a.3.3,0,0,0,.3-.295v-2.451a.3.3,0,0,0-.3-.3.3.3,0,0,0-.3.3v2.451A.3.3,0,0,0-1639.472,183.953Z" fill="#313131"/><path d="M-1639.472,193.756a.3.3,0,0,0,.3-.3v-2.451a.3.3,0,0,0-.3-.295.3.3,0,0,0-.3.295v2.451A.3.3,0,0,0-1639.472,193.756Z" fill="#313131"/><path d="M-1639.472,179.052a.3.3,0,0,0,.3-.3v-2.45a.3.3,0,0,0-.3-.3.3.3,0,0,0-.3.3v2.45A.3.3,0,0,0-1639.472,179.052Z" fill="#313131"/><path d="M-1639.472,188.855a.3.3,0,0,0,.3-.3v-2.451a.3.3,0,0,0-.3-.3.3.3,0,0,0-.3.3v2.451A.3.3,0,0,0-1639.472,188.855Z" fill="#313131"/><path d="M-1639.472,174.151a.3.3,0,0,0,.3-.3V171.4a.3.3,0,0,0-.3-.3.3.3,0,0,0-.3.3v2.45A.3.3,0,0,0-1639.472,174.151Z" fill="#313131"/><path d="M-1639.472,164.349a.3.3,0,0,0,.3-.3V161.6a.3.3,0,0,0-.3-.3.3.3,0,0,0-.3.3v2.45A.3.3,0,0,0-1639.472,164.349Z" fill="#313131"/><path d="M-1639.472,169.25a.3.3,0,0,0,.3-.3V166.5a.3.3,0,0,0-.3-.3.3.3,0,0,0-.3.3v2.45A.3.3,0,0,0-1639.472,169.25Z" fill="#313131"/><path d="M-1638.343,197.555l-.833-.611V195.91a.3.3,0,0,0-.3-.295.3.3,0,0,0-.3.295v1.184a.294.294,0,0,0,.121.238l.954.7a.294.294,0,0,0,.175.058.294.294,0,0,0,.238-.121A.3.3,0,0,0-1638.343,197.555Z" fill="#313131"/><path d="M-1620.939,210.323l-1.741-1.276a.3.3,0,0,0-.413.063.3.3,0,0,0,.063.414l1.741,1.277a.3.3,0,0,0,.175.057.294.294,0,0,0,.238-.121A.3.3,0,0,0-1620.939,210.323Z" fill="#313131"/><path d="M-1624.42,207.77l-1.74-1.277a.3.3,0,0,0-.414.064.3.3,0,0,0,.064.413l1.74,1.277a.293.293,0,0,0,.175.057.3.3,0,0,0,.239-.121A.3.3,0,0,0-1624.42,207.77Z" fill="#313131"/><path d="M-1627.9,205.216l-1.74-1.277a.3.3,0,0,0-.414.064.3.3,0,0,0,.064.413l1.74,1.277a.294.294,0,0,0,.175.058.3.3,0,0,0,.239-.121A.3.3,0,0,0-1627.9,205.216Z" fill="#313131"/><path d="M-1634.862,200.109l-1.741-1.277a.3.3,0,0,0-.413.064.3.3,0,0,0,.063.413l1.741,1.277a.29.29,0,0,0,.174.057.3.3,0,0,0,.239-.121A.3.3,0,0,0-1634.862,200.109Z" fill="#313131"/><path d="M-1631.382,202.663l-1.74-1.277a.3.3,0,0,0-.413.063.3.3,0,0,0,.063.414l1.74,1.277a.3.3,0,0,0,.175.057.3.3,0,0,0,.239-.121A.3.3,0,0,0-1631.382,202.663Z" fill="#313131"/><path d="M-1617.641,211.6l-.779.572-.779-.572a.3.3,0,0,0-.413.064.3.3,0,0,0,.063.413l.954.7a.292.292,0,0,0,.175.058.29.29,0,0,0,.175-.058l.954-.7a.3.3,0,0,0,.064-.413A.3.3,0,0,0-1617.641,211.6Z" fill="#313131"/><path d="M-1614.16,209.047l-1.74,1.276a.3.3,0,0,0-.064.414.3.3,0,0,0,.239.121.3.3,0,0,0,.175-.057l1.74-1.277a.3.3,0,0,0,.064-.414A.3.3,0,0,0-1614.16,209.047Z" fill="#313131"/><path d="M-1603.717,201.386l-1.741,1.277a.294.294,0,0,0-.063.413.294.294,0,0,0,.238.121.3.3,0,0,0,.175-.057l1.741-1.277a.3.3,0,0,0,.063-.414A.3.3,0,0,0-1603.717,201.386Z" fill="#313131"/><path d="M-1600.237,198.832l-1.74,1.277a.3.3,0,0,0-.063.413.294.294,0,0,0,.238.121.293.293,0,0,0,.175-.057l1.74-1.277a.3.3,0,0,0,.064-.413A.3.3,0,0,0-1600.237,198.832Z" fill="#313131"/><path d="M-1610.679,206.493l-1.74,1.277a.3.3,0,0,0-.064.413.3.3,0,0,0,.239.121.293.293,0,0,0,.175-.057l1.74-1.277a.3.3,0,0,0,.064-.413A.3.3,0,0,0-1610.679,206.493Z" fill="#313131"/><path d="M-1607.2,203.939l-1.741,1.277a.3.3,0,0,0-.063.414.3.3,0,0,0,.239.121.291.291,0,0,0,.174-.058l1.741-1.277a.294.294,0,0,0,.063-.413A.3.3,0,0,0-1607.2,203.939Z" fill="#313131"/><path d="M-1597.367,195.615a.3.3,0,0,0-.3.295v1.034l-.833.611a.3.3,0,0,0-.064.414.3.3,0,0,0,.239.121.294.294,0,0,0,.175-.058l.954-.7a.294.294,0,0,0,.121-.238V195.91A.3.3,0,0,0-1597.367,195.615Z" fill="#313131"/><path d="M-1597.367,166.042a.3.3,0,0,0-.3.3V168.8a.3.3,0,0,0,.3.3.3.3,0,0,0,.3-.3v-2.464A.3.3,0,0,0-1597.367,166.042Z" fill="#313131"/><path d="M-1597.367,170.971a.3.3,0,0,0-.3.3v2.464a.3.3,0,0,0,.3.3.3.3,0,0,0,.3-.3v-2.464A.3.3,0,0,0-1597.367,170.971Z" fill="#313131"/><path d="M-1597.367,161.113a.3.3,0,0,0-.3.3v2.465a.3.3,0,0,0,.3.3.3.3,0,0,0,.3-.3v-2.465A.3.3,0,0,0-1597.367,161.113Z" fill="#313131"/><path d="M-1597.367,190.686a.3.3,0,0,0-.3.3v2.464a.3.3,0,0,0,.3.3.3.3,0,0,0,.3-.3v-2.464A.3.3,0,0,0-1597.367,190.686Z" fill="#313131"/><path d="M-1597.367,175.9a.3.3,0,0,0-.3.3v2.465a.3.3,0,0,0,.3.3.3.3,0,0,0,.3-.3V176.2A.3.3,0,0,0-1597.367,175.9Z" fill="#313131"/><path d="M-1597.367,185.757a.3.3,0,0,0-.3.3v2.464a.3.3,0,0,0,.3.3.3.3,0,0,0,.3-.3v-2.464A.3.3,0,0,0-1597.367,185.757Z" fill="#313131"/><path d="M-1597.367,180.828a.3.3,0,0,0-.3.3v2.465a.3.3,0,0,0,.3.295.3.3,0,0,0,.3-.295v-2.465A.3.3,0,0,0-1597.367,180.828Z" fill="#313131"/><path d="M-1612.971,179.256a.3.3,0,0,0-.3.3v.592h-.591a.3.3,0,0,0-.3.3.3.3,0,0,0,.3.3h.887a.3.3,0,0,0,.3-.3v-.888A.3.3,0,0,0-1612.971,179.256Z" fill="#313131"/><path d="M-1619.391,180.144h-1.845a.3.3,0,0,0-.3.3.3.3,0,0,0,.3.3h1.845a.3.3,0,0,0,.3-.3A.3.3,0,0,0-1619.391,180.144Z" fill="#313131"/><path d="M-1615.7,180.144h-1.844a.3.3,0,0,0-.3.3.3.3,0,0,0,.3.3h1.844a.3.3,0,0,0,.3-.3A.3.3,0,0,0-1615.7,180.144Z" fill="#313131"/><path d="M-1623.08,180.144h-.592v-.592a.3.3,0,0,0-.3-.3.3.3,0,0,0-.295.3v.888a.3.3,0,0,0,.295.3h.888a.3.3,0,0,0,.3-.3A.3.3,0,0,0-1623.08,180.144Z" fill="#313131"/><path d="M-1623.968,162.576a.3.3,0,0,0,.3-.3v-1.919a.3.3,0,0,0-.3-.3.3.3,0,0,0-.295.3v1.919A.3.3,0,0,0-1623.968,162.576Z" fill="#313131"/><path d="M-1623.968,174.091a.3.3,0,0,0,.3-.3v-1.919a.3.3,0,0,0-.3-.3.3.3,0,0,0-.295.3v1.919A.3.3,0,0,0-1623.968,174.091Z" fill="#313131"/><path d="M-1623.968,170.252a.3.3,0,0,0,.3-.295v-1.92a.3.3,0,0,0-.3-.295.3.3,0,0,0-.295.295v1.92A.3.3,0,0,0-1623.968,170.252Z" fill="#313131"/><path d="M-1623.968,166.414a.3.3,0,0,0,.3-.3V164.2a.3.3,0,0,0-.3-.3.3.3,0,0,0-.295.3v1.919A.3.3,0,0,0-1623.968,166.414Z" fill="#313131"/><path d="M-1623.968,177.929a.3.3,0,0,0,.3-.3v-1.919a.3.3,0,0,0-.3-.3.3.3,0,0,0-.295.3v1.919A.3.3,0,0,0-1623.968,177.929Z" fill="#313131"/><path d="M-1623.08,157.258h-.888a.3.3,0,0,0-.295.3v.888a.3.3,0,0,0,.295.3.3.3,0,0,0,.3-.3v-.592h.592a.3.3,0,0,0,.3-.3A.3.3,0,0,0-1623.08,157.258Z" fill="#313131"/><path d="M-1621.236,157.85h1.845a.3.3,0,0,0,.3-.3.3.3,0,0,0-.3-.3h-1.845a.3.3,0,0,0-.3.3A.3.3,0,0,0-1621.236,157.85Z" fill="#313131"/><path d="M-1617.547,157.85h1.844a.3.3,0,0,0,.3-.3.3.3,0,0,0-.3-.3h-1.844a.3.3,0,0,0-.3.3A.3.3,0,0,0-1617.547,157.85Z" fill="#313131"/><path d="M-1612.971,157.258h-.887a.3.3,0,0,0-.3.3.3.3,0,0,0,.3.3h.591v.592a.3.3,0,0,0,.3.3.3.3,0,0,0,.3-.3v-.888A.3.3,0,0,0-1612.971,157.258Z" fill="#313131"/><path d="M-1612.971,160.065a.3.3,0,0,0-.3.3v1.919a.3.3,0,0,0,.3.3.3.3,0,0,0,.3-.3v-1.919A.3.3,0,0,0-1612.971,160.065Z" fill="#313131"/><path d="M-1612.971,175.418a.3.3,0,0,0-.3.3v1.919a.3.3,0,0,0,.3.3.3.3,0,0,0,.3-.3v-1.919A.3.3,0,0,0-1612.971,175.418Z" fill="#313131"/><path d="M-1612.971,163.9a.3.3,0,0,0-.3.3v1.919a.3.3,0,0,0,.3.3.3.3,0,0,0,.3-.3V164.2A.3.3,0,0,0-1612.971,163.9Z" fill="#313131"/><path d="M-1612.971,171.58a.3.3,0,0,0-.3.3v1.919a.3.3,0,0,0,.3.3.3.3,0,0,0,.3-.3v-1.919A.3.3,0,0,0-1612.971,171.58Z" fill="#313131"/><path d="M-1612.971,167.742a.3.3,0,0,0-.3.295v1.92a.3.3,0,0,0,.3.295.3.3,0,0,0,.3-.295v-1.92A.3.3,0,0,0-1612.971,167.742Z" fill="#313131"/><circle cx="4.062" cy="4.062" r="4.062" transform="translate(-1622.531 170.235)" fill="#313131"/><path d="M-1499.642,156.147v-2.378h-18.818v2.378h-13.9v38.189a23.355,23.355,0,0,0,23.329,23.328,23.354,23.354,0,0,0,23.327-23.328V156.147Zm-17.635-1.2h16.451v17.935a8.235,8.235,0,0,1-8.225,8.225,8.235,8.235,0,0,1-8.226-8.225Zm30.393,39.384a22.17,22.17,0,0,1-22.144,22.145,22.17,22.17,0,0,1-22.145-22.145V157.33h12.713v1.124h-.592a.3.3,0,0,0-.3.3.3.3,0,0,0,.3.3h.592v13.841a9.419,9.419,0,0,0,9.409,9.409,9.42,9.42,0,0,0,9.409-9.409V159.046h.591a.3.3,0,0,0,.3-.3.3.3,0,0,0-.3-.3h-.591V157.33h12.758Z" fill="#313131"/><path d="M-1497.138,159.046h1.912a.3.3,0,0,0,.3-.3.3.3,0,0,0-.3-.3h-1.912a.3.3,0,0,0-.3.3A.3.3,0,0,0-1497.138,159.046Z" fill="#313131"/><path d="M-1493.313,159.046h1.913a.3.3,0,0,0,.3-.3.3.3,0,0,0-.3-.3h-1.913a.3.3,0,0,0-.3.3A.3.3,0,0,0-1493.313,159.046Z" fill="#313131"/><path d="M-1489.487,159.046h.887v.887a.3.3,0,0,0,.3.3.3.3,0,0,0,.3-.3V158.75a.3.3,0,0,0-.3-.3h-1.183a.3.3,0,0,0-.3.3A.3.3,0,0,0-1489.487,159.046Z" fill="#313131"/><path d="M-1528.731,199.746a.3.3,0,0,0-.363-.207.3.3,0,0,0-.207.363,21.093,21.093,0,0,0,.761,2.256.3.3,0,0,0,.275.186.306.306,0,0,0,.11-.021.3.3,0,0,0,.164-.385A20.458,20.458,0,0,1-1528.731,199.746Z" fill="#313131"/><path d="M-1529.215,197.484a20.318,20.318,0,0,1-.225-2.3.3.3,0,0,0-.308-.284.3.3,0,0,0-.283.308,21.04,21.04,0,0,0,.231,2.369.3.3,0,0,0,.292.251.238.238,0,0,0,.046,0A.3.3,0,0,0-1529.215,197.484Z" fill="#313131"/><path d="M-1524.364,207.819a.3.3,0,0,0-.417-.027.3.3,0,0,0-.027.418,21.209,21.209,0,0,0,1.671,1.7.3.3,0,0,0,.2.076.293.293,0,0,0,.219-.1.3.3,0,0,0-.02-.418A20.728,20.728,0,0,1-1524.364,207.819Z" fill="#313131"/><path d="M-1527.007,204.03a.3.3,0,0,0-.4-.119.3.3,0,0,0-.12.4,21.271,21.271,0,0,0,1.25,2.026.3.3,0,0,0,.243.126.291.291,0,0,0,.169-.053.3.3,0,0,0,.073-.412A20.591,20.591,0,0,1-1527.007,204.03Z" fill="#313131"/><path d="M-1518.989,212.168a20.645,20.645,0,0,1-1.952-1.245.3.3,0,0,0-.413.068.3.3,0,0,0,.068.413,21.158,21.158,0,0,0,2.007,1.28.294.294,0,0,0,.145.038.3.3,0,0,0,.258-.151A.3.3,0,0,0-1518.989,212.168Z" fill="#313131"/><path d="M-1514.728,213.956a20.639,20.639,0,0,1-2.182-.772.294.294,0,0,0-.387.158.3.3,0,0,0,.158.387,20.878,20.878,0,0,0,2.246.795.3.3,0,0,0,.083.012.3.3,0,0,0,.284-.213A.3.3,0,0,0-1514.728,213.956Z" fill="#313131"/><path d="M-1529.753,188.442a.3.3,0,0,0,.3-.3V185.8a.3.3,0,0,0-.3-.3.3.3,0,0,0-.3.3v2.349A.3.3,0,0,0-1529.753,188.442Z" fill="#313131"/><path d="M-1529.753,169.649a.3.3,0,0,0,.3-.3V167a.3.3,0,0,0-.3-.3.3.3,0,0,0-.3.3v2.349A.3.3,0,0,0-1529.753,169.649Z" fill="#313131"/><path d="M-1529.753,164.95a.3.3,0,0,0,.3-.295V162.3a.3.3,0,0,0-.3-.295.3.3,0,0,0-.3.295v2.35A.3.3,0,0,0-1529.753,164.95Z" fill="#313131"/><path d="M-1529.753,174.347a.3.3,0,0,0,.3-.3V171.7a.3.3,0,0,0-.3-.3.3.3,0,0,0-.3.3v2.349A.3.3,0,0,0-1529.753,174.347Z" fill="#313131"/><path d="M-1529.753,183.744a.3.3,0,0,0,.3-.3V181.1a.3.3,0,0,0-.3-.3.3.3,0,0,0-.3.3v2.349A.3.3,0,0,0-1529.753,183.744Z" fill="#313131"/><path d="M-1529.753,179.045a.3.3,0,0,0,.3-.3V176.4a.3.3,0,0,0-.3-.3.3.3,0,0,0-.3.3v2.349A.3.3,0,0,0-1529.753,179.045Z" fill="#313131"/><path d="M-1529.753,193.14a.3.3,0,0,0,.3-.3v-2.349a.3.3,0,0,0-.3-.3.3.3,0,0,0-.3.3v2.349A.3.3,0,0,0-1529.753,193.14Z" fill="#313131"/><path d="M-1488.3,166.685a.3.3,0,0,0-.3.3v2.349a.3.3,0,0,0,.3.3.3.3,0,0,0,.3-.3v-2.349A.3.3,0,0,0-1488.3,166.685Z" fill="#313131"/><path d="M-1488.3,176.081a.3.3,0,0,0-.3.3v2.349a.3.3,0,0,0,.3.3.3.3,0,0,0,.3-.3v-2.349A.3.3,0,0,0-1488.3,176.081Z" fill="#313131"/><path d="M-1488.3,171.383a.3.3,0,0,0-.3.3v2.349a.3.3,0,0,0,.3.3.3.3,0,0,0,.3-.3v-2.349A.3.3,0,0,0-1488.3,171.383Z" fill="#313131"/><path d="M-1488.3,161.987a.3.3,0,0,0-.3.295v2.35a.3.3,0,0,0,.3.295.3.3,0,0,0,.3-.295v-2.35A.3.3,0,0,0-1488.3,161.987Z" fill="#313131"/><path d="M-1489.894,202.3a.307.307,0,0,0,.11.021.3.3,0,0,0,.275-.186,20.829,20.829,0,0,0,.759-2.257.3.3,0,0,0-.207-.364.3.3,0,0,0-.364.207,20.161,20.161,0,0,1-.737,2.194A.3.3,0,0,0-1489.894,202.3Z" fill="#313131"/><path d="M-1495.324,209.873a.291.291,0,0,0,.219.1.293.293,0,0,0,.2-.077,21.05,21.05,0,0,0,1.669-1.7.3.3,0,0,0-.027-.418.3.3,0,0,0-.417.027,20.707,20.707,0,0,1-1.623,1.65A.3.3,0,0,0-1495.324,209.873Z" fill="#313131"/><path d="M-1510.174,214.733a20.544,20.544,0,0,1-2.3-.259.3.3,0,0,0-.342.242.3.3,0,0,0,.242.342,21.3,21.3,0,0,0,2.366.266h.017a.3.3,0,0,0,.295-.279A.3.3,0,0,0-1510.174,214.733Z" fill="#313131"/><path d="M-1488.3,180.78a.3.3,0,0,0-.3.295v2.35a.3.3,0,0,0,.3.295.3.3,0,0,0,.3-.295v-2.35A.3.3,0,0,0-1488.3,180.78Z" fill="#313131"/><path d="M-1492.18,206.4a.3.3,0,0,0,.169.053.3.3,0,0,0,.243-.127,21.137,21.137,0,0,0,1.248-2.028.3.3,0,0,0-.12-.4.294.294,0,0,0-.4.12,20.671,20.671,0,0,1-1.214,1.971A.3.3,0,0,0-1492.18,206.4Z" fill="#313131"/><path d="M-1497.1,210.913a20.492,20.492,0,0,1-1.95,1.245.3.3,0,0,0-.113.4.3.3,0,0,0,.259.151.288.288,0,0,0,.144-.038,20.961,20.961,0,0,0,2.006-1.282.3.3,0,0,0,.067-.413A.3.3,0,0,0-1497.1,210.913Z" fill="#313131"/><path d="M-1505.561,214.471a20.542,20.542,0,0,1-2.3.261.3.3,0,0,0-.279.312.3.3,0,0,0,.3.279h.017a21.013,21.013,0,0,0,2.366-.269.3.3,0,0,0,.241-.342A.3.3,0,0,0-1505.561,214.471Z" fill="#313131"/><path d="M-1501.127,213.175a20.336,20.336,0,0,1-2.181.775.3.3,0,0,0-.2.367.3.3,0,0,0,.283.213.293.293,0,0,0,.083-.012,20.908,20.908,0,0,0,2.244-.8.3.3,0,0,0,.158-.388A.3.3,0,0,0-1501.127,213.175Z" fill="#313131"/><path d="M-1488.3,185.478a.3.3,0,0,0-.3.3v2.349a.3.3,0,0,0,.3.3.3.3,0,0,0,.3-.3v-2.349A.3.3,0,0,0-1488.3,185.478Z" fill="#313131"/><path d="M-1488.309,194.874a.3.3,0,0,0-.307.284,20.547,20.547,0,0,1-.222,2.3.3.3,0,0,0,.247.337.227.227,0,0,0,.045,0,.3.3,0,0,0,.292-.251,20.812,20.812,0,0,0,.229-2.369A.3.3,0,0,0-1488.309,194.874Z" fill="#313131"/><path d="M-1488.3,190.176a.3.3,0,0,0-.3.3v2.349a.3.3,0,0,0,.3.3.3.3,0,0,0,.3-.3v-2.349A.3.3,0,0,0-1488.3,190.176Z" fill="#313131"/><path d="M-1529.753,160.229a.3.3,0,0,0,.3-.3v-.887h.887a.3.3,0,0,0,.3-.3.3.3,0,0,0-.3-.3h-1.183a.3.3,0,0,0-.3.3v1.183A.3.3,0,0,0-1529.753,160.229Z" fill="#313131"/><path d="M-1522.859,159.046h1.9a.3.3,0,0,0,.3-.3.3.3,0,0,0-.3-.3h-1.9a.3.3,0,0,0-.3.3A.3.3,0,0,0-1522.859,159.046Z" fill="#313131"/><path d="M-1526.666,159.046h1.9a.3.3,0,0,0,.3-.3.3.3,0,0,0-.3-.3h-1.9a.3.3,0,0,0-.3.3A.3.3,0,0,0-1526.666,159.046Z" fill="#313131"/><path d="M-1509.029,175.661a4.062,4.062,0,0,0,4.062-4.062,4.062,4.062,0,0,0-4.062-4.062,4.062,4.062,0,0,0-4.061,4.062A4.062,4.062,0,0,0-1509.029,175.661Zm-1.045-4.379a.754.754,0,0,1-.166.02.727.727,0,0,1-.727-.727.726.726,0,0,1,.727-.726.726.726,0,0,1,.726.726.679.679,0,0,1-.006.091l.383.344.452-.374c0-.02,0-.04,0-.061a.726.726,0,0,1,.726-.726.726.726,0,0,1,.727.726.727.727,0,0,1-.727.727.7.7,0,0,1-.195-.028l-.357.295.386.347a.7.7,0,0,1,.166-.02.726.726,0,0,1,.727.727.726.726,0,0,1-.727.726.726.726,0,0,1-.726-.726.679.679,0,0,1,.006-.091l-.478-.429-.383.317a.714.714,0,0,1,.029.2.726.726,0,0,1-.726.726.726.726,0,0,1-.727-.726.726.726,0,0,1,.727-.727l.029,0,.428-.355Z" fill="#313131"/></g></g></svg>