<svg xmlns="http://www.w3.org/2000/svg" width="400" height="795.001" viewBox="0 0 400 795.001"><g transform="translate(-390 -12105)"><g transform="translate(7390.665 19778.76)"><path d="M-6680.074-7419.8" transform="translate(-46.651 -44.293)" fill="none" stroke="#7a1d47" stroke-miterlimit="10" stroke-width="1.796"/><path d="M-6944.409-7644.593" transform="translate(-0.548 -5.087)" fill="none" stroke="#7a1d47" stroke-miterlimit="10" stroke-width="1.796"/><path d="M-6663.756-7451.789s-10.089,41.194-28.164,248.427l-10.229,327.171h-186.285l-11.559-327.03-17.095-255.293-27.323-185.653" transform="translate(-0.547 -5.161)" fill="none" stroke="#7a1d47" stroke-miterlimit="10" stroke-width="1.796"/><line x2="17.655" y2="179.27" transform="translate(-6750.896 -7671.433)" fill="none" stroke="#7a1d47" stroke-miterlimit="10" stroke-width="1.796"/><line x1="194.087" y2="21.488" transform="translate(-6944.956 -7671.167)" fill="none" stroke="#7a1d47" stroke-miterlimit="10" stroke-width="1.796"/><path d="M-6818-7659.867l-3.258,73.141-18.18-70.829" transform="translate(-18.856 -2.423)" fill="none" stroke="#7a1d47" stroke-linecap="round" stroke-linejoin="round" stroke-width="1.796"/><line x2="7.278" y2="70.559" transform="translate(-6847.575 -7660.423)" fill="none" stroke="#7a1d47" stroke-miterlimit="10" stroke-width="1.796"/><path d="M-6765.1-7419.8v582.744" transform="translate(-31.821 -44.293)" fill="none" stroke="#7a1d47" stroke-linecap="round" stroke-linejoin="round" stroke-width="1.796"/><path d="M-6687.966-7453.8s6.445,27.366,68.938,35.213" transform="translate(-45.274 -38.364)" fill="none" stroke="#7a1d47" stroke-linecap="round" stroke-linejoin="round" stroke-width="1.796"/><path d="M2.937-3.962V0H1.084V-10.664h4.08A4.128,4.128,0,0,1,8-9.734,3.126,3.126,0,0,1,9.053-7.273,3.022,3.022,0,0,1,8.024-4.834a4.328,4.328,0,0,1-2.882.872Zm0-1.487H5.164a2.193,2.193,0,0,0,1.509-.465,1.709,1.709,0,0,0,.52-1.344,1.844,1.844,0,0,0-.527-1.381,2.033,2.033,0,0,0-1.45-.531H2.937ZM13.989.146A3.682,3.682,0,0,1,11.246-.919,3.866,3.866,0,0,1,10.2-3.757v-.22a4.755,4.755,0,0,1,.458-2.12,3.484,3.484,0,0,1,1.285-1.454,3.4,3.4,0,0,1,1.846-.52,3.11,3.11,0,0,1,2.5,1.033,4.367,4.367,0,0,1,.883,2.922V-3.4H11.99a2.38,2.38,0,0,0,.656,1.553,1.968,1.968,0,0,0,1.447.571,2.41,2.41,0,0,0,1.992-.989l.959.916a3.2,3.2,0,0,1-1.271,1.1A3.978,3.978,0,0,1,13.989.146Zm-.212-6.79a1.5,1.5,0,0,0-1.183.513A2.657,2.657,0,0,0,12.019-4.7H15.41v-.132a2.163,2.163,0,0,0-.476-1.351A1.487,1.487,0,0,0,13.777-6.643ZM22.7-6.3a4.4,4.4,0,0,0-.725-.059,1.633,1.633,0,0,0-1.648.938V0h-1.78V-7.925h1.7l.044.886a2.005,2.005,0,0,1,1.787-1.033,1.666,1.666,0,0,1,.63.1Zm2.776-1.626.051.916a2.849,2.849,0,0,1,2.307-1.062q2.476,0,2.52,2.834V0h-1.78V-5.134a1.632,1.632,0,0,0-.326-1.117,1.371,1.371,0,0,0-1.066-.363,1.715,1.715,0,0,0-1.6.974V0H23.8V-7.925ZM35.654.146A3.682,3.682,0,0,1,32.911-.919,3.866,3.866,0,0,1,31.86-3.757v-.22a4.755,4.755,0,0,1,.458-2.12A3.484,3.484,0,0,1,33.6-7.551a3.4,3.4,0,0,1,1.846-.52,3.11,3.11,0,0,1,2.5,1.033,4.367,4.367,0,0,1,.883,2.922V-3.4H33.655a2.38,2.38,0,0,0,.656,1.553,1.968,1.968,0,0,0,1.447.571,2.41,2.41,0,0,0,1.992-.989l.959.916a3.2,3.2,0,0,1-1.271,1.1A3.978,3.978,0,0,1,35.654.146Zm-.212-6.79a1.5,1.5,0,0,0-1.183.513A2.657,2.657,0,0,0,33.684-4.7h3.391v-.132A2.163,2.163,0,0,0,36.6-6.185,1.487,1.487,0,0,0,35.442-6.643Zm8.921.344a4.4,4.4,0,0,0-.725-.059,1.633,1.633,0,0,0-1.648.938V0H40.21V-7.925h1.7l.044.886A2.005,2.005,0,0,1,43.74-8.071a1.666,1.666,0,0,1,.63.1ZM50,0A2.747,2.747,0,0,1,49.8-.74a2.77,2.77,0,0,1-2.08.886,2.8,2.8,0,0,1-1.948-.681,2.179,2.179,0,0,1-.754-1.685,2.25,2.25,0,0,1,.941-1.945,4.561,4.561,0,0,1,2.692-.677h1.091v-.52a1.388,1.388,0,0,0-.344-.985,1.365,1.365,0,0,0-1.047-.37,1.568,1.568,0,0,0-1,.3.941.941,0,0,0-.388.773h-1.78a1.975,1.975,0,0,1,.432-1.219,2.879,2.879,0,0,1,1.176-.89,4.129,4.129,0,0,1,1.659-.322,3.325,3.325,0,0,1,2.219.7,2.494,2.494,0,0,1,.85,1.967v3.574a4.051,4.051,0,0,0,.3,1.707V0ZM48.047-1.282a2.025,2.025,0,0,0,.992-.256,1.713,1.713,0,0,0,.7-.688V-3.721h-.959a2.624,2.624,0,0,0-1.487.344,1.115,1.115,0,0,0-.5.974,1.04,1.04,0,0,0,.341.817A1.319,1.319,0,0,0,48.047-1.282Zm-40.2,13.4a4.718,4.718,0,0,1-.835,2.933,2.674,2.674,0,0,1-2.241,1.095,2.692,2.692,0,0,1-2.087-.857v3.757H.908V8.075H2.549l.073.806a2.614,2.614,0,0,1,2.131-.952,2.7,2.7,0,0,1,2.274,1.08,4.844,4.844,0,0,1,.824,3Zm-1.772-.154a3.305,3.305,0,0,0-.472-1.882,1.536,1.536,0,0,0-1.351-.7,1.638,1.638,0,0,0-1.567.9V13.8a1.653,1.653,0,0,0,1.582.923A1.534,1.534,0,0,0,5.6,14.041,3.638,3.638,0,0,0,6.079,11.964Zm2.944,0a4.673,4.673,0,0,1,.461-2.1,3.37,3.37,0,0,1,1.3-1.436,3.653,3.653,0,0,1,1.919-.5,3.462,3.462,0,0,1,2.6,1.033,4.062,4.062,0,0,1,1.08,2.739l.007.417a4.715,4.715,0,0,1-.45,2.095,3.329,3.329,0,0,1-1.289,1.428,3.679,3.679,0,0,1-1.937.505,3.438,3.438,0,0,1-2.684-1.117,4.278,4.278,0,0,1-1.007-2.977Zm1.78.154a3.193,3.193,0,0,0,.505,1.915,1.643,1.643,0,0,0,1.406.692,1.625,1.625,0,0,0,1.4-.7,3.527,3.527,0,0,0,.5-2.058,3.152,3.152,0,0,0-.516-1.9,1.74,1.74,0,0,0-2.787-.011A3.46,3.46,0,0,0,10.8,12.118Zm11.536,1.729a.807.807,0,0,0-.392-.725,4.167,4.167,0,0,0-1.3-.439,6.683,6.683,0,0,1-1.516-.483A2.023,2.023,0,0,1,17.8,10.331a2.109,2.109,0,0,1,.864-1.714,3.417,3.417,0,0,1,2.2-.688,3.555,3.555,0,0,1,2.3.7,2.231,2.231,0,0,1,.875,1.824h-1.78A1.1,1.1,0,0,0,21.87,9.6a1.46,1.46,0,0,0-1.011-.341,1.577,1.577,0,0,0-.956.271.854.854,0,0,0-.37.725.721.721,0,0,0,.344.637,4.734,4.734,0,0,0,1.392.458,6.587,6.587,0,0,1,1.644.549,2.328,2.328,0,0,1,.886.765,1.952,1.952,0,0,1,.289,1.084,2.065,2.065,0,0,1-.886,1.732,3.779,3.779,0,0,1-2.322.663,4.1,4.1,0,0,1-1.736-.352,2.857,2.857,0,0,1-1.187-.967,2.288,2.288,0,0,1-.425-1.326h1.729a1.254,1.254,0,0,0,.476.97,1.85,1.85,0,0,0,1.165.341,1.8,1.8,0,0,0,1.069-.267A.827.827,0,0,0,22.339,13.847Zm5.53-7.7V8.075h1.4V9.394h-1.4v4.424a.974.974,0,0,0,.179.656.832.832,0,0,0,.641.2,2.742,2.742,0,0,0,.623-.073v1.377a4.383,4.383,0,0,1-1.172.168q-2.051,0-2.051-2.263V9.394h-1.3V8.075h1.3V6.149Zm6.248,10a3.682,3.682,0,0,1-2.743-1.066,3.866,3.866,0,0,1-1.051-2.838v-.22A4.755,4.755,0,0,1,30.78,9.9a3.484,3.484,0,0,1,1.285-1.454,3.4,3.4,0,0,1,1.846-.52,3.11,3.11,0,0,1,2.5,1.033,4.367,4.367,0,0,1,.883,2.922V12.6H32.117a2.38,2.38,0,0,0,.656,1.553,1.968,1.968,0,0,0,1.447.571,2.41,2.41,0,0,0,1.992-.989l.959.916a3.2,3.2,0,0,1-1.271,1.1A3.978,3.978,0,0,1,34.116,16.146ZM33.9,9.357a1.5,1.5,0,0,0-1.183.513,2.657,2.657,0,0,0-.575,1.428h3.391v-.132a2.163,2.163,0,0,0-.476-1.351A1.487,1.487,0,0,0,33.9,9.357Zm8.921.344a4.4,4.4,0,0,0-.725-.059,1.633,1.633,0,0,0-1.648.938V16h-1.78V8.075h1.7l.044.886A2.005,2.005,0,0,1,42.2,7.929a1.666,1.666,0,0,1,.63.1ZM45.842,16h-1.78V8.075h1.78Zm-1.89-9.983a.945.945,0,0,1,.26-.681.982.982,0,0,1,.743-.271,1,1,0,0,1,.747.271.937.937,0,0,1,.264.681.916.916,0,0,1-.264.67,1,1,0,0,1-.747.267.99.99,0,0,1-.743-.267A.923.923,0,0,1,43.953,6.017Zm3.494,5.947a4.673,4.673,0,0,1,.461-2.1A3.37,3.37,0,0,1,49.2,8.43a3.653,3.653,0,0,1,1.919-.5,3.462,3.462,0,0,1,2.6,1.033,4.062,4.062,0,0,1,1.08,2.739l.007.417a4.715,4.715,0,0,1-.45,2.095,3.329,3.329,0,0,1-1.289,1.428,3.679,3.679,0,0,1-1.937.505,3.438,3.438,0,0,1-2.684-1.117,4.278,4.278,0,0,1-1.007-2.977Zm1.78.154a3.193,3.193,0,0,0,.505,1.915,1.643,1.643,0,0,0,1.406.692,1.625,1.625,0,0,0,1.4-.7,3.527,3.527,0,0,0,.5-2.058,3.152,3.152,0,0,0-.516-1.9,1.74,1.74,0,0,0-2.787-.011A3.46,3.46,0,0,0,49.226,12.118ZM60.469,9.7a4.4,4.4,0,0,0-.725-.059,1.633,1.633,0,0,0-1.648.938V16h-1.78V8.075h1.7l.044.886a2.005,2.005,0,0,1,1.787-1.033,1.666,1.666,0,0,1,.63.1Z" transform="translate(-6772.668 -7382.719)" fill="#161615"/><circle cx="2.592" cy="2.592" r="2.592" transform="translate(-6947.548 -7652.272)" fill="#b13182"/><circle cx="2.592" cy="2.592" r="2.592" transform="translate(-6860.887 -7661.817)" fill="#b13182"/><circle cx="2.592" cy="2.592" r="2.592" transform="translate(-6850.505 -7663.131)" fill="#b13182"/><circle cx="2.592" cy="2.592" r="2.592" transform="translate(-6839.261 -7664.409)" fill="#b13182"/><circle cx="2.592" cy="2.592" r="2.592" transform="translate(-6753.649 -7673.759)" fill="#b13182"/><circle cx="2.592" cy="2.592" r="2.592" transform="translate(-6735.833 -7495)" fill="#b13182"/><circle cx="2.592" cy="2.592" r="2.592" transform="translate(-6717.086 -7474.556)" fill="#b13182"/><circle cx="2.592" cy="2.592" r="2.592" transform="translate(-6799.516 -7466.557)" fill="#b13182"/><circle cx="2.592" cy="2.592" r="2.592" transform="translate(-6920.226 -7466.557)" fill="#b13182"/><circle cx="2.592" cy="2.592" r="2.592" transform="translate(-6903.131 -7210.975)" fill="#b13182"/><circle cx="2.592" cy="2.592" r="2.592" transform="translate(-6705.658 -6883.944)" fill="#b13182"/><circle cx="2.592" cy="2.592" r="2.592" transform="translate(-6799.516 -6883.944)" fill="#b13182"/><circle cx="2.592" cy="2.592" r="2.592" transform="translate(-6891.993 -6883.944)" fill="#b13182"/><circle cx="2.592" cy="2.592" r="2.592" transform="translate(-6695.234 -7210.975)" fill="#b13182"/><circle cx="2.592" cy="2.592" r="2.592" transform="translate(-6667.176 -7459.542)" fill="#b13182"/><circle cx="2.592" cy="2.592" r="2.592" transform="translate(-6947.548 -7652.271)" fill="#b13182"/></g><path d="M8322.709,496.08l83.867-7.787" transform="translate(-7812 11697)" fill="none" stroke="#8f2b58" stroke-width="2"/><circle cx="2.592" cy="2.592" r="2.592" transform="translate(591.984 12182.701)" fill="#b13182"/><circle cx="2.592" cy="2.592" r="2.592" transform="translate(547.775 12187.018)" fill="#b13182"/><circle cx="2.592" cy="2.592" r="2.592" transform="translate(508.117 12190.488)" fill="#b13182"/><rect width="400" height="795" transform="translate(390 12105)" fill="none"/></g></svg>