<svg xmlns="http://www.w3.org/2000/svg" width="294.153" height="371.984" viewBox="0 0 294.153 371.984"><g transform="translate(-390.761 -16056.309)"><g transform="translate(390.761 16056.309)"><path d="M-921.41,2594.693l270.387,13.046,6.545,121.13h-38.209s-44.225-1.591-49.178,48.293V2910.9s3.229,43.517-48.912,49.753H-929.371l-3.582-48.558,3.185-195.825Z" transform="translate(935.966 -2591.679)" fill="#fff" stroke="#626364" stroke-miterlimit="10" stroke-width="2"/><line x1="57.436" y2="119.516" transform="translate(6.198 5.07)" fill="none" stroke="#626364" stroke-miterlimit="10" stroke-width="2"/><line y2="172.304" transform="translate(203.775 13.179)" fill="none" stroke="#626364" stroke-miterlimit="10" stroke-width="2"/><circle cx="3.014" cy="3.014" r="3.014" transform="translate(11.41 0)" fill="#626364"/><circle cx="3.014" cy="3.014" r="3.014" transform="translate(60.621 2.056)" fill="#626364"/><circle cx="3.014" cy="3.014" r="3.014" transform="translate(140.218 6.169)" fill="#626364"/><circle cx="3.014" cy="3.014" r="3.014" transform="translate(200.761 9)" fill="#626364"/><circle cx="3.014" cy="3.014" r="3.014" transform="translate(200.761 183.637)" fill="#626364"/><circle cx="3.014" cy="3.014" r="3.014" transform="translate(200.761 317.371)" fill="#626364"/><circle cx="3.014" cy="3.014" r="3.014" transform="translate(152.114 365.956)" fill="#626364"/><circle cx="3.014" cy="3.014" r="3.014" transform="translate(4.051 365.956)" fill="#626364"/><circle cx="3.014" cy="3.014" r="3.014" transform="translate(0 316.768)" fill="#626364"/><circle cx="3.014" cy="3.014" r="3.014" transform="translate(0 299.122)" fill="#626364"/><circle cx="3.014" cy="3.014" r="3.014" transform="translate(0.442 259.055)" fill="#626364"/><circle cx="3.014" cy="3.014" r="3.014" transform="translate(3.014 122.048)" fill="#626364"/><circle cx="3.014" cy="3.014" r="3.014" transform="translate(75.984 59.692)" fill="#626364"/><circle cx="3.014" cy="3.014" r="3.014" transform="translate(75.984 319.781)" fill="#626364"/><circle cx="3.014" cy="3.014" r="3.014" transform="translate(176.52 358.88)" fill="#626364"/><circle cx="3.014" cy="3.014" r="3.014" transform="translate(215.223 148.479)" fill="#626364"/><circle cx="3.014" cy="3.014" r="3.014" transform="translate(288.126 134.415)" fill="#626364"/><circle cx="3.014" cy="3.014" r="3.014" transform="translate(249.054 134.415)" fill="#626364"/><circle cx="3.014" cy="3.014" r="3.014" transform="translate(281.493 13.179)" fill="#626364"/><line y1="260.09" transform="translate(78.997 62.705)" fill="none" stroke="#626364" stroke-miterlimit="10" stroke-width="2.216"/></g><path d="M-17.237-3.917h-3.72V0h-1.606V-9.242h5.872v1.295h-4.266V-5.2h3.72Zm1.244.419a4.05,4.05,0,0,1,.4-1.819A2.921,2.921,0,0,1-14.469-6.56,3.166,3.166,0,0,1-12.806-7a3,3,0,0,1,2.257.9,3.52,3.52,0,0,1,.936,2.374l.006.362A4.086,4.086,0,0,1-10-1.549,2.886,2.886,0,0,1-11.115-.311a3.189,3.189,0,0,1-1.679.438A2.979,2.979,0,0,1-15.12-.841a3.707,3.707,0,0,1-.873-2.58Zm1.542.133a2.767,2.767,0,0,0,.438,1.66,1.424,1.424,0,0,0,1.219.6,1.408,1.408,0,0,0,1.216-.609A3.057,3.057,0,0,0-11.143-3.5a2.732,2.732,0,0,0-.448-1.65,1.429,1.429,0,0,0-1.216-.609,1.416,1.416,0,0,0-1.2.6A3,3,0,0,0-14.45-3.364Zm7.579-3.5.044.793a2.469,2.469,0,0,1,2-.92q2.146,0,2.184,2.457V0H-4.186V-4.45a1.414,1.414,0,0,0-.282-.968,1.188,1.188,0,0,0-.924-.314,1.486,1.486,0,0,0-1.39.844V0H-8.325V-6.868Zm5.51,3.383A4.083,4.083,0,0,1-.625-6.033,2.359,2.359,0,0,1,1.349-7a2.242,2.242,0,0,1,1.765.762V-9.75H4.656V0H3.26L3.183-.711A2.274,2.274,0,0,1,1.336.127,2.346,2.346,0,0,1-.616-.844,4.233,4.233,0,0,1-1.362-3.485Zm1.542.133a2.859,2.859,0,0,0,.4,1.635A1.308,1.308,0,0,0,1.73-1.13a1.457,1.457,0,0,0,1.384-.844V-4.907a1.435,1.435,0,0,0-1.371-.825,1.318,1.318,0,0,0-1.155.594A3.184,3.184,0,0,0,.181-3.352Zm5.8-.146a4.05,4.05,0,0,1,.4-1.819A2.921,2.921,0,0,1,7.5-6.56,3.166,3.166,0,0,1,9.163-7a3,3,0,0,1,2.257.9,3.52,3.52,0,0,1,.936,2.374l.006.362a4.086,4.086,0,0,1-.39,1.815A2.886,2.886,0,0,1,10.854-.311,3.189,3.189,0,0,1,9.176.127,2.979,2.979,0,0,1,6.849-.841a3.707,3.707,0,0,1-.873-2.58Zm1.542.133A2.767,2.767,0,0,0,7.957-1.7a1.424,1.424,0,0,0,1.219.6,1.408,1.408,0,0,0,1.216-.609A3.057,3.057,0,0,0,10.826-3.5a2.732,2.732,0,0,0-.448-1.65,1.429,1.429,0,0,0-1.216-.609,1.416,1.416,0,0,0-1.2.6A3,3,0,0,0,7.519-3.364ZM23.02,0H16.805V-1.06l3.079-3.358a7.666,7.666,0,0,0,.949-1.241,2.011,2.011,0,0,0,.282-1,1.519,1.519,0,0,0-.371-1.066,1.288,1.288,0,0,0-1-.406,1.485,1.485,0,0,0-1.162.457,1.8,1.8,0,0,0-.413,1.25H16.628a3.023,3.023,0,0,1,.384-1.52,2.644,2.644,0,0,1,1.1-1.051,3.5,3.5,0,0,1,1.647-.375,3.126,3.126,0,0,1,2.123.676,2.347,2.347,0,0,1,.778,1.869,3.172,3.172,0,0,1-.39,1.45A8.248,8.248,0,0,1,20.989-3.65l-2.26,2.418H23.02Z" transform="translate(525.442 16262.257)" fill="#161615"/></g></svg>