<svg xmlns="http://www.w3.org/2000/svg" width="400" height="456" viewBox="0 0 400 456"><g transform="translate(-390 -17252)"><rect width="400" height="456" transform="translate(390 17252)" fill="#fff"/><g transform="translate(-1529.307 16373.266)"><path d="M2130.1,963.54S2117.8,975.446,2121,990.359c2.281,10.619,12.034,14.411,16.731,15.37,9.675,1.974,11.162,10.03,11.162,10.03s3.449-4.267,3.468-16.1c.018-11.009-13.335-10.75-17.658-19.881A46.179,46.179,0,0,1,2130.1,963.54Z" transform="translate(-18)" fill="#582f29"/><path d="M2185.718,941.048s-1.658,14,0,23.222-5.132,16.788-14.874,17.428-12.388-3.3-19.521.72-5.265,8.509-5.265,8.509a33.744,33.744,0,0,1-2.447-28.712C2149.443,945.815,2185.718,941.048,2185.718,941.048Z" transform="translate(-18)" fill="#4f2b25"/><g transform="translate(-18)"><path d="M2212.781,1058.627c6.684,19.029,5.124,43.63,6.586,58.584.2,2.075-6.683,6.909-8.553-1.006-6.412-27.139-13.407-49.087-13.435-54.917C2197.351,1055.319,2208.753,1047.162,2212.781,1058.627Z" fill="#f9b99c"/></g><path d="M2215.913,1134.41s-2.751-4.432-3.612-4.764a1.373,1.373,0,0,0-1.828,1.608,11.907,11.907,0,0,0,2.6,4.78C2214.038,1136.889,2216.536,1135.774,2215.913,1134.41Z" transform="translate(-18)" fill="#f2a079"/><path d="M2218.451,1133.122s-2.751-4.434-3.612-4.766a1.374,1.374,0,0,0-1.829,1.608,11.873,11.873,0,0,0,2.6,4.78C2216.576,1135.6,2219.074,1134.486,2218.451,1133.122Z" transform="translate(-18)" fill="#f2a079"/><g transform="translate(-18)"><path d="M2211.315,1114.681c-3.7,5.816-.679,8-3.106,20.138-.288,1.44,2.4-.011,2.626-.643,1.016-2.84,2.814-8.461,2.742-9.252S2212.825,1112.313,2211.315,1114.681Z" fill="#f9b99c"/></g><path d="M2213.865,1129.57s-1.494,5-1.173,5.865,2.072,1.583,2.877.536,1.393-4.061,1.393-5.349S2214.471,1128.2,2213.865,1129.57Z" transform="translate(-18)" fill="#f9b99c"/><path d="M2216.489,1129.692s-1.494,5-1.173,5.865a1.819,1.819,0,0,0,2.9.414c.805-1.049,1.374-3.94,1.374-5.23S2217.095,1128.321,2216.489,1129.692Z" transform="translate(-18)" fill="#f9b99c"/><path d="M2219.188,1129.57s-1.493,5-1.173,5.865a1.719,1.719,0,0,0,2.8.358,11.6,11.6,0,0,0,1.47-5.171C2222.285,1129.332,2219.795,1128.2,2219.188,1129.57Z" transform="translate(-18)" fill="#f9b99c"/><path d="M2221.347,1129.208s-.8,5.361-.475,6.227,1.61.656,2.415-.391,1.157-3.5,1.157-4.785S2221.953,1127.836,2221.347,1129.208Z" transform="translate(-18)" fill="#f9b99c"/><g transform="translate(-18)"><path d="M2152.63,1287.3s-2.23,12.521-4.945,18.444c-2.086,4.55-2.178,7.533.053,8.766,5.654,3.124,10.33,3.957,12.229,3.5,3.163-.768,2.145-5.722,1.965-8.194-.31-4.278.089-6.741-.107-8.686a79.089,79.089,0,0,1-.134-13.394C2161.649,1283.3,2152.833,1282.064,2152.63,1287.3Z" fill="#f9b99c"/></g><g transform="translate(-18)"><path d="M2178.963,1287.473s2.07,12.548,4.709,18.505c2.028,4.577,2.082,7.561-.165,8.765-5.693,3.051-10.379,3.824-12.272,3.339-3.153-.808-2.072-5.748-1.861-8.219.366-4.273,0-6.74.219-8.683a79.08,79.08,0,0,0,.3-13.392C2170,1283.357,2178.828,1282.231,2178.963,1287.473Z" fill="#f9b99c"/></g><g transform="translate(-18)"><path d="M2160.081,1212.964c-.1,5.639,2.074,73.377,1.61,74.771s-7.81,3.417-8.891.081c-12.692-39.134-16.709-52.624-13.933-75.866C2141.065,1193.547,2160.412,1195.179,2160.081,1212.964Z" fill="#f9b99c"/></g><g transform="translate(-18)"><path d="M2167.616,1213.5c.4,5.624,1.745,73.385,2.281,74.751s7.976,2.966,8.883-.427c10.637-39.8,13.947-53.5,9.965-76.549C2185.594,1193.024,2166.36,1195.757,2167.616,1213.5Z" fill="#f9b99c"/></g><g transform="translate(-18)"><path d="M2199.92,1096.872c.144.408,6.117,19.1,1.621,43.987-9.151,50.663-12.519,64.286-12.654,69.13-.343,12.385-14.412,20.817-18.81,8.834-3.135-8.542-4.534-21.907-5.5-52.072-.81-25.348-1.863-41.613-1.909-44.6C2162.431,1106.673,2195.189,1083.487,2199.92,1096.872Z" fill="#f9b99c"/></g><g transform="translate(-18)"><path d="M2123.819,1097.292c-.126.414-5.31,19.337.227,44.016,11.269,50.235,15.206,63.7,15.543,68.538.864,12.36,15.274,20.2,19.165,8.037,2.774-8.665,3.61-22.078,3.307-52.257-.255-25.359.115-41.654.036-44.64C2161.686,1105.511,2127.984,1083.72,2123.819,1097.292Z" fill="#f9b99c"/></g><g transform="translate(-18)"><path d="M2139.563,1057.274c-3.985,11.235-12.815,18.82-15.506,37.349-.927,6.38-2.2,14.393,3.9,20.2,2.14,2.038,3.647,8.365,32.9,8.552,16.636.106,24.177-1.776,31.922-9.944,1.418-1.5,8.254-9.714,6.171-19.771-3.547-17.125-13.06-29.688-15.044-35.965C2179.094,1042.47,2145.42,1040.76,2139.563,1057.274Z" fill="#f9b99c"/></g><g transform="translate(-18)"><path d="M2201.661,996.627c8.179,29.139,10.786,60.048,11.006,62.573s-7.838,8.7-14.673,4.141c-1.922-1.283-7.06-39.377-8.069-43.6C2184.575,997.341,2198.791,986.4,2201.661,996.627Z" fill="#f9b99c"/></g><g transform="translate(-18)"><path d="M2152.872,980.96c-8.147,1.493-23.143,7.522-29.837,12.272-.32.228,1.835,22.283,7.1,36.988,7.076,19.767,6.525,31.317,8.687,34.02,10.731,13.421,41.974,13.833,46.369-3.46,3.134-12.331,6.646-30.016,6.646-30.016l7.25-37.705c-6.33-4.12-16.818-9.621-27.23-12.073A51.789,51.789,0,0,0,2152.872,980.96Z" fill="#f9b99c"/></g><path d="M2129.443,1076.89a86.223,86.223,0,0,0,33,6.691,89.509,89.509,0,0,0,31.252-6.28s5.238,11.558,6.708,20.514c0,0-34.549,7.459-37.69,25.569l-1.048-.008s-4.485-20.119-38.591-25.081C2123.072,1098.3,2124.7,1084.835,2129.443,1076.89Z" transform="translate(-18)" fill="#38323e"/><g transform="translate(-18)"><path d="M2106.772,1058.187c-7.675,18.651-7.407,43.3-9.653,58.158-.311,2.061,6.311,7.25,8.594-.556,7.828-26.766,15.966-48.316,16.3-54.137C2122.353,1055.693,2111.4,1046.949,2106.772,1058.187Z" fill="#f9b99c"/></g><g transform="translate(-18)"><path d="M2098.834,1132.5c.748,1.782.419,6.709,1.568,9.345,1.755,4.031,1.866,6.731.578,6.245-.843-.316-1.878-2.672-3.339-6.447s-2.252-7.912-1.877-9.415S2098,1130.505,2098.834,1132.5Z" fill="#f2a079"/><path d="M2103.166,1127.716s-1.35,8.152-1.011,9.5a59.269,59.269,0,0,1,1.523,7.027c-.008,1.13-.761,1.912-1.786.691s-3.838-8.156-3.293-12.388.994-5.543,2.72-5.875S2103.25,1127.186,2103.166,1127.716Z" fill="#f2a079"/><path d="M2104.4,1123.753s-1.35,8.148-1.01,9.5a59.9,59.9,0,0,1,1.522,7.027c-.008,1.13-.761,1.911-1.786.691a17.6,17.6,0,0,1-2.673-10.613c.547-4.232.374-7.318,2.1-7.65S2104.489,1123.22,2104.4,1123.753Z" fill="#f2a079"/><path d="M2104.575,1113.862a6.937,6.937,0,0,1,1.014,5.016c-.282,3.2-5.371,7.323-6.531,12.713-1.025,4.762-4.886,4.133-4.675-1.018a89.292,89.292,0,0,1,2.542-15.606C2098.04,1111.025,2103.355,1111.351,2104.575,1113.862Z" fill="#f9b99c"/><path d="M2098.814,1131.351a60.563,60.563,0,0,0-.417,10.9c.34,2.854.6,5.515-.3,5.432s-1.742-2-2.48-5.984-1.438-8.54-.966-10.99C2094.946,1129.184,2099.072,1129.2,2098.814,1131.351Z" fill="#f9b99c"/><path d="M2105.1,1114.86c.886,1.461,1.851,7.638.47,15.272-.589,3.246.329,6.784-.679,6.635-2.139-.316-2.3-3.008-2.291-5.189s-.147-3.182-1.527-6.772S2102.284,1110.229,2105.1,1114.86Z" fill="#f9b99c"/></g><path d="M2190.846,1009.922c-1.911-8-.611-21.951-.611-21.951l-2.046-.957s-.654,14.76-3.344,19.086-12.259,10.851-17.749,14.739c-4.388,3.108-5.585,10.709-5.889,13.635a4.139,4.139,0,0,1-2.092-.092c-.279-2.986-1.4-10.494-5.707-13.63-5.439-3.958-14.924-10.6-17.559-14.965s-1.431-18.645-1.431-18.645l-2.057.931s-.548,13.485-2.56,21.459-3.307,13.149-1.947,19.6c1.953,9.269,7.757,12.66,17.119,12.58a19.225,19.225,0,0,0,14.232-6.074l0-.067a5.2,5.2,0,0,0,1.91.082,19.224,19.224,0,0,0,14.151,6.253c9.36.2,15.207-3.117,17.279-12.36C2193.984,1023.113,2192.756,1017.921,2190.846,1009.922Z" transform="translate(-18)" fill="#38323e"/><g transform="translate(-18)"><path d="M2136.8,1062.077s-10.494,16.616-13.824,28.931-3.356,32.99-1.483,40.449,81.525,4.181,83.28-2.323-2.969-47.472-17.844-67.057C2186.931,1062.077,2159.028,1069.378,2136.8,1062.077Z" fill="#ecd1c6"/><path d="M2137.288,1205.741c-.009.456-.711,21.326.127,31.2s11.05,41.851,11.05,41.851,8.513,2.679,14.219,0c0,0-.32-64.012-.948-75.517s-6.574-10.878-13.438-10.878S2137.455,1196.664,2137.288,1205.741Z" fill="#ecd1c6"/><path d="M2191.3,1205.526c.031.454,1.729,21.267,1.365,31.167s-9.038,42.331-9.038,42.331-8.375,3.083-14.2.68c0,0-3.119-62.728-3.042-74.25s6.425-12.406,13.282-12.734S2190.7,1196.466,2191.3,1205.526Z" fill="#ecd1c6"/><path d="M2203.887,1112.026c-3.676-21.524-37.419-4.919-39.886,3.091s-.379,82.162,4.588,98.415,21.766,9.985,22.168-3.743c.185-6.3,6.728-29.778,11.323-55.093S2203.887,1112.026,2203.887,1112.026Z" fill="#ecd1c6"/><path d="M2160.233,1114.131c-2.848-7.882-37.346-22.856-39.989-1.181,0,0-1.956,17.468,3.844,42.535s13.458,48.207,13.943,54.489c1.058,13.694,18.137,19.151,22.322,2.679S2163.08,1122.013,2160.233,1114.131Z" fill="#ecd1c6"/><path d="M2162.12,1067.738c-2.683,0-2.688,4.169,0,4.169S2164.807,1067.738,2162.12,1067.738Z" fill="#f7ede5"/><path d="M2173.324,1069.822s10.974-.913,16.263-3.86l2.2,3.86s-12.627,4.6-15.236,4.026S2173.324,1069.822,2173.324,1069.822Z" fill="#e2c1b5"/><path d="M2148.4,1069.822s-9.491-.913-14.065-3.86l-1.9,3.86s10.921,4.6,13.177,4.026S2148.4,1069.822,2148.4,1069.822Z" fill="#e2c1b5"/></g><path d="M2125.607,991.2c-2.924,1.527-4.778,2.677-6.812,9.721s-11.549,51.645-11.957,54.208,12.382,7.292,16.662,4.38c0,0,7.107-25.736,9.645-32.748s7.866-24.649,3.666-29.618S2126.48,990.744,2125.607,991.2Z" transform="translate(-18)" fill="#efd6c8"/><path d="M2198.681,991.615c2.785,1.767,4.536,3.068,5.974,10.256s8.735,51.472,8.926,54.06-14.494,7.189-18.515,3.93c0,0-4.93-26.24-6.872-33.44s-5.776-25.221-1.176-29.821S2197.848,991.088,2198.681,991.615Z" transform="translate(-18)" fill="#efd6c8"/><path d="M2140.42,983.372s5.261,31.134,16.545,33.2c22.375,4.089,21.343-34.635,21.343-34.635s7.764,3.354,11.981,5.08a55.748,55.748,0,0,1,9.054,5.138s-9.418,8.033-9.418,27.586c0,7.318,3.583,15.056,1.857,20.541-2.51,7.973.747,21.057,0,24.129s-11.947,4.879-16,4.559-10.508-2.6-18.847.855-26.455-2.227-26.071-4.848.118-18.116-.006-22.462-1.929-3.85.442-13.639c4.221-17.433-7.21-37.258-7.21-37.258Z" transform="translate(-18)" fill="#f7e5db"/><path d="M2138.793,984.859s.408,24.936,15.1,37.972,23-12.908,24.666-23.26a87.623,87.623,0,0,0,1.393-16.116s2.208,24.423-8.6,41.037-25.443,1.59-28.83-10.026C2136.8,994.842,2138.793,984.859,2138.793,984.859Z" transform="translate(-18)" fill="#efd6c8"/><path d="M2178.308,1015.77s-4.122,21.431-13.132,26.147-18.211-6.594-22.429-23.655c0,0,3.664,26.16,18.989,27.314S2178.308,1015.77,2178.308,1015.77Z" transform="translate(-18)" fill="#efd6c8"/><g transform="translate(-18)"><path d="M2169.059,1310.768s-1.8,4.833.927,8.5,9.974,2.646,12.82.254,2.943-6.511,2.511-9.045c0,0,.048,3.462-5.124,5.593s-9.018,2.018-10.14-.2A11.881,11.881,0,0,1,2169.059,1310.768Z" fill="#cc9b92"/><path d="M2168.865,1312.543s.869-1.372,6.021-2.27a33.294,33.294,0,0,1,10.431.206,8.467,8.467,0,0,0-.821-4.184s-9.083-1.923-15.1.986A40.691,40.691,0,0,0,2168.865,1312.543Z" fill="#cc9b92"/><path d="M2169.441,1283.5l.244,3.878a18.821,18.821,0,0,0,9.861.492l.681-4.156S2170.974,1284.078,2169.441,1283.5Z" fill="#cc9b92"/></g><g transform="translate(-18)"><path d="M2162.249,1310.768s1.8,4.833-.926,8.5-9.975,2.646-12.821.254-2.942-6.511-2.511-9.045c0,0-.048,3.462,5.125,5.593s9.017,2.018,10.139-.2A11.883,11.883,0,0,0,2162.249,1310.768Z" fill="#cc9b92"/><path d="M2162.443,1312.543s-.869-1.372-6.021-2.27a33.3,33.3,0,0,0-10.431.206,8.469,8.469,0,0,1,.821-4.184s9.083-1.923,15.1.986A40.691,40.691,0,0,1,2162.443,1312.543Z" fill="#cc9b92"/><path d="M2161.867,1283.5l-.244,3.878a18.822,18.822,0,0,1-9.861.492l-.68-4.156S2160.335,1284.078,2161.867,1283.5Z" fill="#cc9b92"/></g><g transform="translate(-18)"><path d="M2155.049,934.965a27.9,27.9,0,0,0-9.089,18.378c-.251,4.229,3.684,12.688,6.472,18.264s-3.47,5.277.26,18.169c1.889,6.54-13.374,15.953-13.374,15.953s5.67-11.425,1.54-16.238-13.387-18.737-10.215-35.845S2153.1,940.234,2155.049,934.965Z" fill="#4f2b25"/><path d="M2151.323,968.691v13.727c0,1.194,9.874,15.714,20.2-.665l.278-14.03Z" fill="#f2a079"/><path d="M2177.03,944.433s4.835-2.17,5.96-1.317.49,11.826-.486,13.4-6.787,2.251-6.787,2.251A52.7,52.7,0,0,0,2177.03,944.433Z" fill="#f2a079"/><path d="M2143.407,944.433s-4.835-2.17-5.96-1.317-.5,11.826.486,13.4,6.787,2.251,6.787,2.251A52.7,52.7,0,0,1,2143.407,944.433Z" fill="#f2a079"/><path d="M2177.7,925c-.585,2.414-15.1-10.665-35.773-.387-.639.32-1.479,20.276-1.381,22.654s2.213,14.013,3.526,15.919c1.125,1.629,12.61,12.069,13.322,12.372s5.529.422,6.442-.184,12.546-10.871,13.459-13.654c.4-1.228,2.493-13.614,2.421-17.722C2179.622,938.746,2177.7,925,2177.7,925Z" fill="#f9b99c"/><path d="M2174.029,948.556a4.433,4.433,0,0,0-6.314-.009l-1.692-1.739a6.77,6.77,0,0,1,9.681-.008Z" fill="#3f2921"/><path d="M2153,948.556a4.433,4.433,0,0,0-6.314-.009l-1.7-1.739a6.776,6.776,0,0,1,9.686-.008Z" fill="#3f2921"/><path d="M2164.4,938.657l.677,2.6a37.385,37.385,0,0,1,12.219.192l-2.912-2.562S2172.209,937.335,2164.4,938.657Z" fill="#3e221c"/><path d="M2144.468,939.169l-2.6,2.532a39.035,39.035,0,0,1,12.448-.388l.422-2.609C2146.63,937.51,2144.468,939.169,2144.468,939.169Z" fill="#3e221c"/><path d="M2155.591,963.166a10.735,10.735,0,0,0,9.264-.277l.98,1.948a8.409,8.409,0,0,1-10.977.349Z" fill="#cc373d"/><path d="M2160.127,951.672c-.993.081-3.875,3.965-3.9,5.184s3.214,3.453,3.713,3.385,3.884-2.5,3.9-3.108S2160.681,951.625,2160.127,951.672Z" fill="#f2a079"/><rect width="3.257" height="2.767" transform="translate(2148.203 946.65)" fill="#3f2921"/><rect width="3.261" height="2.767" transform="translate(2169.233 946.65)" fill="#3f2921"/><path d="M2150.8,922.491s-3.722-1.347-6.079,5.478,2.255,27.681-1.3,36.527-8.075,4.642-4.869,15.8c0,0-18.212-7.244-18.007-23.639.089-7.107,6.923-21.377,10.67-29.066s9.243-22.74,26.619-22.062C2157.833,905.524,2150.8,918.646,2150.8,922.491Z" fill="#4f2b25"/><path d="M2150.8,922.491s5.116-3.462,8.578,1.155,7.558,14.755,14.8,20.3c9.69,7.427,4.613,14.721,4.037,19.6,0,0,7.367-8.551,7.495-23.562.055-6.518,0-16.341-6.058-24.415a26.215,26.215,0,0,0-22.39-10C2151.11,906.249,2150.8,922.491,2150.8,922.491Z" fill="#582f29"/><path d="M2150.8,922.491s-1.074-3.364-4.741.341-3.052,13.229-2.651,21.6-1.394,13.463-5.112,21.555a12.293,12.293,0,0,0,1.667,13.6s-11.024-5.013-8.2-17.372,6.271-15.624,7.426-26.487S2147.286,913.965,2150.8,922.491Z" fill="#582f29"/></g><g transform="translate(-18)"><path d="M2170.657,957.054c-4.857.082-7.656-3.7-8.636-6.8l-.018-.079a7.848,7.848,0,0,1,0-2.692c.088-.583,1.007-1.907,6.32-4.067,4.861-1.976,10.058-1.617,10.679-.779.5.68-.312,2.434-.354,3.013l0,.049c-.148,2.041-.833,7.077-3.993,9.757A6.135,6.135,0,0,1,2170.657,957.054Zm-7.835-8.581a7.033,7.033,0,0,0,.611,2.864,8.127,8.127,0,0,0,4.737,4.746c1.763.558,4.676.408,6.18-1.357a12.262,12.262,0,0,0,2.969-7.062,3.43,3.43,0,0,0-2.848-3.647,12.2,12.2,0,0,0-5.259.355c-5.15,1.409-6.185,3.067-6.268,3.242l.006.057-.053.116A2.1,2.1,0,0,0,2162.822,948.473Zm.112-.835Z" fill="#361912"/><path d="M2145.591,955.457c-3.159-2.68-3.845-7.716-3.993-9.757l0-.049c-.042-.579-1.258-2.333-.754-3.013.62-.838,6.218-1.2,11.079.779,5.313,2.16,6.232,3.484,6.32,4.067a7.823,7.823,0,0,1,0,2.692l-.018.079c-.98,3.1-3.779,6.881-8.636,6.8A6.134,6.134,0,0,1,2145.591,955.457Zm11.758-7.67-.054-.116.006-.057c-.083-.175-1.118-1.833-6.268-3.242a12.2,12.2,0,0,0-5.259-.355,3.429,3.429,0,0,0-2.848,3.647,12.262,12.262,0,0,0,2.969,7.062c1.5,1.765,4.417,1.915,6.18,1.357a8.128,8.128,0,0,0,4.737-4.746,7.037,7.037,0,0,0,.611-2.864A2.139,2.139,0,0,0,2157.349,947.787Zm-.038-.149Z" fill="#361912"/><path d="M2157.5,946.429a3.711,3.711,0,0,0,5.23,0l-.645,3.292-.207-.834a3.053,3.053,0,0,0-3.613.216Z" fill="#361912"/></g><path d="M2211,1119.842s2.83,9.862,3.05,10.267-1.252,4.2-1.4,4.8,7.919.784,9.455.576,2.36-3.825,2.407-5.155-3.318-10.663-4.076-12.592C2218.669,1113.247,2209.492,1108.623,2211,1119.842Z" transform="translate(-18)" fill="#f9b99c"/><path d="M2.468-3.9V0H1.155V-9.953H4.826a3.688,3.688,0,0,1,2.56.834,2.827,2.827,0,0,1,.926,2.208,2.79,2.79,0,0,1-.906,2.232A3.853,3.853,0,0,1,4.813-3.9Zm0-1.073H4.826a2.361,2.361,0,0,0,1.613-.5A1.811,1.811,0,0,0,7-6.9a1.871,1.871,0,0,0-.561-1.422A2.212,2.212,0,0,0,4.9-8.873H2.468ZM14.355-.731a2.686,2.686,0,0,1-2.167.868,2.3,2.3,0,0,1-1.8-.687,2.974,2.974,0,0,1-.625-2.034V-7.4h1.265v4.778q0,1.682,1.367,1.682a1.893,1.893,0,0,0,1.928-1.08V-7.4h1.265V0h-1.2ZM18.7-7.4l.041.93a2.7,2.7,0,0,1,2.215-1.066q2.345,0,2.365,2.646V0H22.06V-4.895a1.7,1.7,0,0,0-.366-1.183,1.466,1.466,0,0,0-1.118-.383,1.825,1.825,0,0,0-1.08.328,2.228,2.228,0,0,0-.725.861V0H17.507V-7.4Zm8.244-1.791V-7.4h1.381v.978H26.947v4.587a1.024,1.024,0,0,0,.185.667.777.777,0,0,0,.629.222,3.062,3.062,0,0,0,.6-.082V0a3.666,3.666,0,0,1-.971.137,1.575,1.575,0,0,1-1.278-.513,2.2,2.2,0,0,1-.431-1.456V-6.419H24.336V-7.4h1.347V-9.187Zm2.386,5.421a4.369,4.369,0,0,1,.427-1.955,3.187,3.187,0,0,1,1.189-1.34,3.238,3.238,0,0,1,1.74-.472,3.119,3.119,0,0,1,2.444,1.046,4.024,4.024,0,0,1,.933,2.782v.089a4.407,4.407,0,0,1-.414,1.938A3.14,3.14,0,0,1,34.47-.342,3.275,3.275,0,0,1,32.7.137,3.111,3.111,0,0,1,30.266-.909a4,4,0,0,1-.933-2.769Zm1.271.15a3.164,3.164,0,0,0,.571,1.976A1.827,1.827,0,0,0,32.7-.9a1.816,1.816,0,0,0,1.531-.755A3.46,3.46,0,0,0,34.8-3.767a3.159,3.159,0,0,0-.578-1.972,1.836,1.836,0,0,0-1.535-.755,1.816,1.816,0,0,0-1.511.745A3.434,3.434,0,0,0,30.6-3.616ZM45.685,0a2.657,2.657,0,0,1-.178-.779A2.822,2.822,0,0,1,43.4.137a2.611,2.611,0,0,1-1.794-.619,2,2,0,0,1-.7-1.569,2.091,2.091,0,0,1,.878-1.794,4.142,4.142,0,0,1,2.471-.639h1.23v-.581a1.42,1.42,0,0,0-.4-1.056,1.593,1.593,0,0,0-1.169-.393,1.844,1.844,0,0,0-1.135.342,1.007,1.007,0,0,0-.458.827H41.057a1.745,1.745,0,0,1,.393-1.07,2.683,2.683,0,0,1,1.066-.817,3.588,3.588,0,0,1,1.48-.3,2.924,2.924,0,0,1,2,.639,2.306,2.306,0,0,1,.752,1.76v3.4a4.162,4.162,0,0,0,.26,1.62V0Zm-2.1-.964a2.223,2.223,0,0,0,1.128-.308,1.861,1.861,0,0,0,.772-.8V-3.589H44.5q-2.324,0-2.324,1.36a1.151,1.151,0,0,0,.4.93A1.524,1.524,0,0,0,43.586-.964ZM51.7-.9a1.822,1.822,0,0,0,1.183-.41,1.443,1.443,0,0,0,.561-1.025h1.2a2.293,2.293,0,0,1-.437,1.21,2.881,2.881,0,0,1-1.077.916A3.107,3.107,0,0,1,51.7.137,3.047,3.047,0,0,1,49.3-.872a4.016,4.016,0,0,1-.892-2.758v-.212a4.453,4.453,0,0,1,.4-1.921A3.02,3.02,0,0,1,49.94-7.068a3.233,3.233,0,0,1,1.753-.465,2.966,2.966,0,0,1,2.068.745,2.663,2.663,0,0,1,.878,1.935h-1.2A1.743,1.743,0,0,0,52.9-6.033a1.691,1.691,0,0,0-1.207-.461A1.77,1.77,0,0,0,50.2-5.8a3.259,3.259,0,0,0-.53,2.006v.239A3.194,3.194,0,0,0,50.2-1.586,1.779,1.779,0,0,0,51.7-.9Zm7.937-5.366a3.79,3.79,0,0,0-.622-.048,1.667,1.667,0,0,0-1.688,1.06V0H56.062V-7.4h1.23l.021.854a1.969,1.969,0,0,1,1.764-.991,1.292,1.292,0,0,1,.561.1Zm.69,2.5a4.369,4.369,0,0,1,.427-1.955,3.187,3.187,0,0,1,1.189-1.34,3.238,3.238,0,0,1,1.74-.472,3.119,3.119,0,0,1,2.444,1.046,4.024,4.024,0,0,1,.933,2.782v.089a4.407,4.407,0,0,1-.414,1.938A3.14,3.14,0,0,1,65.464-.342,3.275,3.275,0,0,1,63.7.137,3.111,3.111,0,0,1,61.26-.909a4,4,0,0,1-.933-2.769Zm1.271.15a3.164,3.164,0,0,0,.571,1.976A1.827,1.827,0,0,0,63.7-.9a1.816,1.816,0,0,0,1.531-.755A3.46,3.46,0,0,0,65.8-3.767a3.159,3.159,0,0,0-.578-1.972,1.836,1.836,0,0,0-1.535-.755,1.816,1.816,0,0,0-1.511.745A3.434,3.434,0,0,0,61.6-3.616ZM69.836-7.4l.034.82a2.732,2.732,0,0,1,2.194-.957,2.115,2.115,0,0,1,2.112,1.189,2.8,2.8,0,0,1,.96-.861,2.837,2.837,0,0,1,1.4-.328q2.434,0,2.475,2.577V0H77.745V-4.881a1.7,1.7,0,0,0-.362-1.186,1.6,1.6,0,0,0-1.217-.393A1.677,1.677,0,0,0,75-6.04a1.706,1.706,0,0,0-.54,1.131V0H73.186V-4.847A1.411,1.411,0,0,0,71.606-6.46,1.692,1.692,0,0,0,69.9-5.4V0H68.64V-7.4ZM82.291,0H81.026V-7.4h1.265ZM80.924-9.358a.755.755,0,0,1,.188-.52.706.706,0,0,1,.557-.212.717.717,0,0,1,.561.212.747.747,0,0,1,.191.52.722.722,0,0,1-.191.513.73.73,0,0,1-.561.205.718.718,0,0,1-.557-.205A.73.73,0,0,1,80.924-9.358Zm3.056,5.592a4.369,4.369,0,0,1,.427-1.955A3.187,3.187,0,0,1,85.6-7.062a3.238,3.238,0,0,1,1.74-.472A3.119,3.119,0,0,1,89.78-6.487a4.024,4.024,0,0,1,.933,2.782v.089A4.407,4.407,0,0,1,90.3-1.678,3.14,3.14,0,0,1,89.117-.342,3.275,3.275,0,0,1,87.35.137,3.111,3.111,0,0,1,84.913-.909a4,4,0,0,1-.933-2.769Zm1.271.15a3.164,3.164,0,0,0,.571,1.976A1.827,1.827,0,0,0,87.35-.9a1.816,1.816,0,0,0,1.531-.755,3.46,3.46,0,0,0,.567-2.116,3.159,3.159,0,0,0-.578-1.972,1.836,1.836,0,0,0-1.535-.755,1.816,1.816,0,0,0-1.511.745A3.434,3.434,0,0,0,85.251-3.616Z" transform="translate(1984.945 979.559)" fill="#161615"/><path d="M1.155,0V-9.953H4.409a3.777,3.777,0,0,1,2.437.67A2.414,2.414,0,0,1,7.663-7.3a2.022,2.022,0,0,1-.4,1.234,2.57,2.57,0,0,1-1.08.831,2.308,2.308,0,0,1,1.275.858A2.462,2.462,0,0,1,7.93-2.871,2.662,2.662,0,0,1,7.062-.766,3.59,3.59,0,0,1,4.607,0ZM2.468-4.655v3.582H4.635a2.087,2.087,0,0,0,1.446-.475,1.669,1.669,0,0,0,.53-1.309q0-1.8-1.955-1.8Zm0-1.053H4.45a2.081,2.081,0,0,0,1.377-.431,1.442,1.442,0,0,0,.516-1.169A1.418,1.418,0,0,0,5.865-8.5a2.354,2.354,0,0,0-1.456-.373H2.468ZM11.047,0H9.782V-7.4h1.265ZM9.68-9.358a.755.755,0,0,1,.188-.52.706.706,0,0,1,.557-.212.717.717,0,0,1,.561.212.747.747,0,0,1,.191.52.722.722,0,0,1-.191.513.73.73,0,0,1-.561.205.718.718,0,0,1-.557-.205A.73.73,0,0,1,9.68-9.358ZM16.037-.9a1.822,1.822,0,0,0,1.183-.41,1.443,1.443,0,0,0,.561-1.025h1.2a2.293,2.293,0,0,1-.437,1.21,2.881,2.881,0,0,1-1.077.916,3.107,3.107,0,0,1-1.425.342,3.047,3.047,0,0,1-2.4-1.008,4.016,4.016,0,0,1-.892-2.758v-.212a4.453,4.453,0,0,1,.4-1.921,3.02,3.02,0,0,1,1.138-1.306,3.233,3.233,0,0,1,1.753-.465,2.966,2.966,0,0,1,2.068.745,2.663,2.663,0,0,1,.878,1.935h-1.2a1.743,1.743,0,0,0-.543-1.179,1.691,1.691,0,0,0-1.207-.461,1.77,1.77,0,0,0-1.494.694,3.259,3.259,0,0,0-.53,2.006v.239a3.194,3.194,0,0,0,.526,1.969A1.779,1.779,0,0,0,16.037-.9ZM23.468.137a3.232,3.232,0,0,1-2.447-.988,3.666,3.666,0,0,1-.943-2.642v-.232a4.438,4.438,0,0,1,.42-1.965,3.28,3.28,0,0,1,1.176-1.354,2.956,2.956,0,0,1,1.637-.489,2.77,2.77,0,0,1,2.242.95,4.114,4.114,0,0,1,.8,2.721v.526H21.342a2.629,2.629,0,0,0,.639,1.767A2.009,2.009,0,0,0,23.536-.9a2.2,2.2,0,0,0,1.135-.273,2.851,2.851,0,0,0,.813-.725l.772.6A3.106,3.106,0,0,1,23.468.137Zm-.157-6.631a1.687,1.687,0,0,0-1.285.557,2.708,2.708,0,0,0-.643,1.562h3.705v-.1a2.409,2.409,0,0,0-.52-1.494A1.588,1.588,0,0,0,23.311-6.494ZM34.063-3.616A4.429,4.429,0,0,1,33.291-.9,2.476,2.476,0,0,1,31.2.137,2.713,2.713,0,0,1,29.08-.718V2.844H27.815V-7.4h1.155l.062.82a2.605,2.605,0,0,1,2.146-.957,2.522,2.522,0,0,1,2.109,1,4.477,4.477,0,0,1,.776,2.8ZM32.8-3.76a3.268,3.268,0,0,0-.533-1.976A1.718,1.718,0,0,0,30.8-6.46,1.859,1.859,0,0,0,29.08-5.441v3.534A1.863,1.863,0,0,0,30.816-.9a1.71,1.71,0,0,0,1.446-.721A3.567,3.567,0,0,0,32.8-3.76Zm7.178,1.8a.931.931,0,0,0-.386-.8,3.718,3.718,0,0,0-1.347-.489,6.367,6.367,0,0,1-1.524-.492,2.169,2.169,0,0,1-.834-.684,1.635,1.635,0,0,1-.27-.943A1.919,1.919,0,0,1,36.384-6.9a3,3,0,0,1,1.965-.629,3.091,3.091,0,0,1,2.041.649,2.063,2.063,0,0,1,.783,1.661H39.9a1.142,1.142,0,0,0-.441-.9,1.652,1.652,0,0,0-1.111-.376,1.729,1.729,0,0,0-1.08.3.947.947,0,0,0-.39.786.767.767,0,0,0,.362.69,4.458,4.458,0,0,0,1.309.444,6.821,6.821,0,0,1,1.535.506,2.239,2.239,0,0,1,.872.708,1.74,1.74,0,0,1,.284,1.008,1.893,1.893,0,0,1-.793,1.589,3.326,3.326,0,0,1-2.058.6,3.725,3.725,0,0,1-1.572-.314,2.557,2.557,0,0,1-1.07-.878,2.117,2.117,0,0,1-.386-1.22h1.265a1.309,1.309,0,0,0,.509,1.008A1.976,1.976,0,0,0,38.391-.9a2.039,2.039,0,0,0,1.152-.291A.893.893,0,0,0,39.977-1.962Z" transform="translate(1969.027 1082.813)" fill="#161615"/><path d="M2.468-3.9V0H1.155V-9.953H4.826a3.688,3.688,0,0,1,2.56.834,2.827,2.827,0,0,1,.926,2.208,2.79,2.79,0,0,1-.906,2.232A3.853,3.853,0,0,1,4.813-3.9Zm0-1.073H4.826a2.361,2.361,0,0,0,1.613-.5A1.811,1.811,0,0,0,7-6.9a1.871,1.871,0,0,0-.561-1.422A2.212,2.212,0,0,0,4.9-8.873H2.468ZM12.858.137a3.232,3.232,0,0,1-2.447-.988,3.666,3.666,0,0,1-.943-2.642v-.232a4.438,4.438,0,0,1,.42-1.965,3.28,3.28,0,0,1,1.176-1.354A2.956,2.956,0,0,1,12.7-7.533a2.77,2.77,0,0,1,2.242.95,4.114,4.114,0,0,1,.8,2.721v.526H10.732a2.629,2.629,0,0,0,.639,1.767A2.009,2.009,0,0,0,12.927-.9a2.2,2.2,0,0,0,1.135-.273,2.851,2.851,0,0,0,.813-.725l.772.6A3.106,3.106,0,0,1,12.858.137ZM12.7-6.494a1.687,1.687,0,0,0-1.285.557,2.708,2.708,0,0,0-.643,1.562h3.705v-.1a2.409,2.409,0,0,0-.52-1.494A1.588,1.588,0,0,0,12.7-6.494ZM18.4-1.032h4.327V0H16.851V-.93l4.081-5.421h-4.02V-7.4h5.605v.9ZM23.81-3.767a4.369,4.369,0,0,1,.427-1.955,3.187,3.187,0,0,1,1.189-1.34,3.238,3.238,0,0,1,1.74-.472A3.119,3.119,0,0,1,29.61-6.487a4.024,4.024,0,0,1,.933,2.782v.089a4.407,4.407,0,0,1-.414,1.938A3.14,3.14,0,0,1,28.947-.342,3.275,3.275,0,0,1,27.18.137,3.111,3.111,0,0,1,24.743-.909a4,4,0,0,1-.933-2.769Zm1.271.15a3.164,3.164,0,0,0,.571,1.976A1.827,1.827,0,0,0,27.18-.9a1.816,1.816,0,0,0,1.531-.755,3.46,3.46,0,0,0,.567-2.116A3.159,3.159,0,0,0,28.7-5.739a1.836,1.836,0,0,0-1.535-.755,1.816,1.816,0,0,0-1.511.745A3.434,3.434,0,0,0,25.081-3.616ZM27.74-10.5h1.531L27.439-8.49H26.421Zm5.585,3.1.041.93a2.7,2.7,0,0,1,2.215-1.066q2.345,0,2.365,2.646V0H36.682V-4.895a1.7,1.7,0,0,0-.366-1.183A1.466,1.466,0,0,0,35.2-6.46a1.825,1.825,0,0,0-1.08.328,2.228,2.228,0,0,0-.725.861V0H32.129V-7.4Z" transform="translate(2224.743 1037.376)" fill="#161615"/><path d="M2.14-1.073H7.834V0H.588V-.984L6.043-8.873H.677v-1.08H7.615v.964Zm6.72-2.693a4.369,4.369,0,0,1,.427-1.955,3.187,3.187,0,0,1,1.189-1.34,3.238,3.238,0,0,1,1.74-.472A3.119,3.119,0,0,1,14.66-6.487a4.024,4.024,0,0,1,.933,2.782v.089a4.407,4.407,0,0,1-.414,1.938A3.14,3.14,0,0,1,14-.342a3.275,3.275,0,0,1-1.767.479A3.111,3.111,0,0,1,9.792-.909a4,4,0,0,1-.933-2.769Zm1.271.15A3.164,3.164,0,0,0,10.7-1.641,1.827,1.827,0,0,0,12.229-.9a1.816,1.816,0,0,0,1.531-.755,3.46,3.46,0,0,0,.567-2.116,3.159,3.159,0,0,0-.578-1.972,1.836,1.836,0,0,0-1.535-.755,1.816,1.816,0,0,0-1.511.745A3.434,3.434,0,0,0,10.131-3.616ZM18.375-7.4l.041.93a2.7,2.7,0,0,1,2.215-1.066q2.345,0,2.365,2.646V0H21.731V-4.895a1.7,1.7,0,0,0-.366-1.183,1.466,1.466,0,0,0-1.118-.383,1.825,1.825,0,0,0-1.08.328,2.228,2.228,0,0,0-.725.861V0H17.179V-7.4ZM29.47,0a2.657,2.657,0,0,1-.178-.779,2.822,2.822,0,0,1-2.105.916,2.611,2.611,0,0,1-1.794-.619,2,2,0,0,1-.7-1.569,2.091,2.091,0,0,1,.878-1.794,4.142,4.142,0,0,1,2.471-.639h1.23v-.581a1.42,1.42,0,0,0-.4-1.056,1.593,1.593,0,0,0-1.169-.393,1.844,1.844,0,0,0-1.135.342,1.007,1.007,0,0,0-.458.827H24.842a1.745,1.745,0,0,1,.393-1.07A2.683,2.683,0,0,1,26.3-7.232a3.588,3.588,0,0,1,1.48-.3,2.924,2.924,0,0,1,2,.639,2.306,2.306,0,0,1,.752,1.76v3.4a4.162,4.162,0,0,0,.26,1.62V0Zm-2.1-.964A2.223,2.223,0,0,0,28.5-1.271a1.861,1.861,0,0,0,.772-.8V-3.589H28.28q-2.324,0-2.324,1.36a1.151,1.151,0,0,0,.4.93A1.524,1.524,0,0,0,27.371-.964ZM42.232-3.616A4.429,4.429,0,0,1,41.46-.9,2.476,2.476,0,0,1,39.368.137a2.713,2.713,0,0,1-2.119-.854V2.844H35.984V-7.4H37.14l.062.82a2.605,2.605,0,0,1,2.146-.957,2.522,2.522,0,0,1,2.109,1,4.477,4.477,0,0,1,.776,2.8ZM40.968-3.76a3.268,3.268,0,0,0-.533-1.976,1.718,1.718,0,0,0-1.463-.725,1.859,1.859,0,0,0-1.723,1.019v3.534A1.863,1.863,0,0,0,38.985-.9a1.71,1.71,0,0,0,1.446-.721A3.567,3.567,0,0,0,40.968-3.76Zm5.94,3.9a3.232,3.232,0,0,1-2.447-.988,3.666,3.666,0,0,1-.943-2.642v-.232a4.438,4.438,0,0,1,.42-1.965,3.28,3.28,0,0,1,1.176-1.354,2.956,2.956,0,0,1,1.637-.489,2.77,2.77,0,0,1,2.242.95,4.114,4.114,0,0,1,.8,2.721v.526H44.782a2.629,2.629,0,0,0,.639,1.767A2.009,2.009,0,0,0,46.977-.9a2.2,2.2,0,0,0,1.135-.273,2.851,2.851,0,0,0,.813-.725l.772.6A3.106,3.106,0,0,1,46.908.137Zm-.157-6.631a1.687,1.687,0,0,0-1.285.557,2.708,2.708,0,0,0-.643,1.562h3.705v-.1a2.409,2.409,0,0,0-.52-1.494A1.588,1.588,0,0,0,46.751-6.494Zm8.08.232a3.79,3.79,0,0,0-.622-.048,1.667,1.667,0,0,0-1.688,1.06V0H51.256V-7.4h1.23l.021.854a1.969,1.969,0,0,1,1.764-.991,1.292,1.292,0,0,1,.561.1ZM57.367,0H56.1V-7.4h1.265ZM56-9.358a.755.755,0,0,1,.188-.52.706.706,0,0,1,.557-.212.717.717,0,0,1,.561.212.747.747,0,0,1,.191.52.722.722,0,0,1-.191.513.73.73,0,0,1-.561.205.718.718,0,0,1-.557-.205A.73.73,0,0,1,56-9.358ZM60.587-7.4l.041.93a2.7,2.7,0,0,1,2.215-1.066q2.345,0,2.365,2.646V0H63.943V-4.895a1.7,1.7,0,0,0-.366-1.183A1.466,1.466,0,0,0,62.46-6.46a1.825,1.825,0,0,0-1.08.328,2.228,2.228,0,0,0-.725.861V0H59.391V-7.4Zm9.6,7.533a3.232,3.232,0,0,1-2.447-.988,3.666,3.666,0,0,1-.943-2.642v-.232a4.438,4.438,0,0,1,.42-1.965A3.28,3.28,0,0,1,68.39-7.044a2.956,2.956,0,0,1,1.637-.489,2.77,2.77,0,0,1,2.242.95,4.114,4.114,0,0,1,.8,2.721v.526H68.059A2.629,2.629,0,0,0,68.7-1.569,2.009,2.009,0,0,0,70.253-.9a2.2,2.2,0,0,0,1.135-.273,2.851,2.851,0,0,0,.813-.725l.772.6A3.106,3.106,0,0,1,70.185.137Zm-.157-6.631a1.687,1.687,0,0,0-1.285.557A2.708,2.708,0,0,0,68.1-4.375H71.8v-.1a2.409,2.409,0,0,0-.52-1.494A1.588,1.588,0,0,0,70.027-6.494ZM79.1,0a2.657,2.657,0,0,1-.178-.779,2.822,2.822,0,0,1-2.105.916,2.611,2.611,0,0,1-1.794-.619,2,2,0,0,1-.7-1.569A2.091,2.091,0,0,1,75.2-3.845a4.141,4.141,0,0,1,2.471-.639H78.9v-.581a1.42,1.42,0,0,0-.4-1.056,1.593,1.593,0,0,0-1.169-.393,1.844,1.844,0,0,0-1.135.342,1.007,1.007,0,0,0-.458.827H74.471a1.745,1.745,0,0,1,.393-1.07,2.683,2.683,0,0,1,1.066-.817,3.588,3.588,0,0,1,1.48-.3,2.924,2.924,0,0,1,2,.639,2.306,2.306,0,0,1,.752,1.76v3.4a4.162,4.162,0,0,0,.26,1.62V0ZM77-.964a2.223,2.223,0,0,0,1.128-.308,1.861,1.861,0,0,0,.772-.8V-3.589h-.991q-2.324,0-2.324,1.36a1.151,1.151,0,0,0,.4.93A1.524,1.524,0,0,0,77-.964ZM83.521,0H82.257V-10.5h1.265Z" transform="translate(2222 1102.591)" fill="#161615"/><path d="M2.851-9.953,6.1-1.832,9.358-9.953h1.7V0H9.748V-3.876L9.871-8.06,6.6,0h-1L2.338-8.039l.13,4.163V0H1.155V-9.953ZM17.746,0a2.657,2.657,0,0,1-.178-.779,2.822,2.822,0,0,1-2.105.916,2.611,2.611,0,0,1-1.794-.619,2,2,0,0,1-.7-1.569,2.091,2.091,0,0,1,.878-1.794,4.142,4.142,0,0,1,2.471-.639h1.23v-.581a1.42,1.42,0,0,0-.4-1.056,1.593,1.593,0,0,0-1.169-.393,1.844,1.844,0,0,0-1.135.342,1.007,1.007,0,0,0-.458.827H13.118a1.745,1.745,0,0,1,.393-1.07,2.683,2.683,0,0,1,1.066-.817,3.588,3.588,0,0,1,1.48-.3,2.924,2.924,0,0,1,2,.639,2.306,2.306,0,0,1,.752,1.76v3.4a4.162,4.162,0,0,0,.26,1.62V0Zm-2.1-.964a2.223,2.223,0,0,0,1.128-.308,1.861,1.861,0,0,0,.772-.8V-3.589h-.991q-2.324,0-2.324,1.36a1.151,1.151,0,0,0,.4.93A1.524,1.524,0,0,0,15.647-.964ZM22.169,0H20.9V-10.5h1.265Zm5.093.137a3.232,3.232,0,0,1-2.447-.988,3.666,3.666,0,0,1-.943-2.642v-.232a4.438,4.438,0,0,1,.42-1.965,3.28,3.28,0,0,1,1.176-1.354A2.956,2.956,0,0,1,27.1-7.533a2.77,2.77,0,0,1,2.242.95,4.114,4.114,0,0,1,.8,2.721v.526H25.136a2.629,2.629,0,0,0,.639,1.767A2.009,2.009,0,0,0,27.33-.9a2.2,2.2,0,0,0,1.135-.273,2.851,2.851,0,0,0,.813-.725l.772.6A3.106,3.106,0,0,1,27.262.137ZM27.1-6.494a1.687,1.687,0,0,0-1.285.557,2.708,2.708,0,0,0-.643,1.562h3.705v-.1a2.409,2.409,0,0,0-.52-1.494A1.588,1.588,0,0,0,27.1-6.494Zm4.17,2.728A4.369,4.369,0,0,1,31.7-5.722a3.187,3.187,0,0,1,1.189-1.34,3.238,3.238,0,0,1,1.74-.472,3.119,3.119,0,0,1,2.444,1.046,4.024,4.024,0,0,1,.933,2.782v.089a4.407,4.407,0,0,1-.414,1.938A3.14,3.14,0,0,1,36.412-.342a3.275,3.275,0,0,1-1.767.479A3.111,3.111,0,0,1,32.208-.909a4,4,0,0,1-.933-2.769Zm1.271.15a3.164,3.164,0,0,0,.571,1.976A1.827,1.827,0,0,0,34.645-.9a1.816,1.816,0,0,0,1.531-.755,3.46,3.46,0,0,0,.567-2.116,3.159,3.159,0,0,0-.578-1.972,1.836,1.836,0,0,0-1.535-.755,1.816,1.816,0,0,0-1.511.745A3.434,3.434,0,0,0,32.546-3.616ZM40.968,0H39.7V-10.5h1.265Zm1.688-3.767a4.369,4.369,0,0,1,.427-1.955,3.187,3.187,0,0,1,1.189-1.34,3.238,3.238,0,0,1,1.74-.472,3.119,3.119,0,0,1,2.444,1.046,4.024,4.024,0,0,1,.933,2.782v.089a4.407,4.407,0,0,1-.414,1.938A3.14,3.14,0,0,1,47.793-.342a3.275,3.275,0,0,1-1.767.479A3.111,3.111,0,0,1,43.589-.909a4,4,0,0,1-.933-2.769Zm1.271.15A3.164,3.164,0,0,0,44.5-1.641,1.827,1.827,0,0,0,46.026-.9a1.816,1.816,0,0,0,1.531-.755,3.46,3.46,0,0,0,.567-2.116,3.159,3.159,0,0,0-.578-1.972,1.836,1.836,0,0,0-1.535-.755,1.816,1.816,0,0,0-1.511.745A3.434,3.434,0,0,0,43.928-3.616ZM55.815,0H54.551V-7.4h1.265ZM54.448-9.358a.755.755,0,0,1,.188-.52.706.706,0,0,1,.557-.212.717.717,0,0,1,.561.212.747.747,0,0,1,.191.52.722.722,0,0,1-.191.513.73.73,0,0,1-.561.205.718.718,0,0,1-.557-.205A.73.73,0,0,1,54.448-9.358ZM59.035-7.4l.041.93a2.7,2.7,0,0,1,2.215-1.066q2.345,0,2.365,2.646V0H62.392V-4.895a1.7,1.7,0,0,0-.366-1.183,1.466,1.466,0,0,0-1.118-.383,1.825,1.825,0,0,0-1.08.328,2.228,2.228,0,0,0-.725.861V0H57.839V-7.4Zm8.244-1.791V-7.4H68.66v.978H67.279v4.587a1.024,1.024,0,0,0,.185.667.777.777,0,0,0,.629.222,3.062,3.062,0,0,0,.6-.082V0a3.666,3.666,0,0,1-.971.137,1.575,1.575,0,0,1-1.278-.513,2.2,2.2,0,0,1-.431-1.456V-6.419H64.668V-7.4h1.347V-9.187ZM73.206.137a3.232,3.232,0,0,1-2.447-.988,3.666,3.666,0,0,1-.943-2.642v-.232a4.438,4.438,0,0,1,.42-1.965,3.28,3.28,0,0,1,1.176-1.354,2.956,2.956,0,0,1,1.637-.489,2.77,2.77,0,0,1,2.242.95,4.114,4.114,0,0,1,.8,2.721v.526H71.08a2.629,2.629,0,0,0,.639,1.767A2.009,2.009,0,0,0,73.274-.9a2.2,2.2,0,0,0,1.135-.273,2.851,2.851,0,0,0,.813-.725l.772.6A3.106,3.106,0,0,1,73.206.137Zm-.157-6.631a1.687,1.687,0,0,0-1.285.557,2.708,2.708,0,0,0-.643,1.562h3.705v-.1a2.409,2.409,0,0,0-.52-1.494A1.588,1.588,0,0,0,73.049-6.494Zm8.08.232a3.79,3.79,0,0,0-.622-.048,1.667,1.667,0,0,0-1.688,1.06V0H77.554V-7.4h1.23l.021.854a1.969,1.969,0,0,1,1.764-.991,1.292,1.292,0,0,1,.561.1ZM83.665,0H82.4V-7.4h1.265ZM82.3-9.358a.755.755,0,0,1,.188-.52.706.706,0,0,1,.557-.212.717.717,0,0,1,.561.212.747.747,0,0,1,.191.52.722.722,0,0,1-.191.513.73.73,0,0,1-.561.205.718.718,0,0,1-.557-.205A.73.73,0,0,1,82.3-9.358Zm3.056,5.592a4.369,4.369,0,0,1,.427-1.955,3.187,3.187,0,0,1,1.189-1.34,3.238,3.238,0,0,1,1.74-.472,3.119,3.119,0,0,1,2.444,1.046,4.024,4.024,0,0,1,.933,2.782v.089a4.407,4.407,0,0,1-.414,1.938A3.14,3.14,0,0,1,90.491-.342a3.275,3.275,0,0,1-1.767.479A3.111,3.111,0,0,1,86.287-.909a4,4,0,0,1-.933-2.769Zm1.271.15A3.164,3.164,0,0,0,87.2-1.641,1.827,1.827,0,0,0,88.724-.9a1.816,1.816,0,0,0,1.531-.755,3.46,3.46,0,0,0,.567-2.116,3.159,3.159,0,0,0-.578-1.972,1.836,1.836,0,0,0-1.535-.755,1.816,1.816,0,0,0-1.511.745A3.434,3.434,0,0,0,86.625-3.616ZM97.248-6.262a3.79,3.79,0,0,0-.622-.048,1.667,1.667,0,0,0-1.688,1.06V0H93.673V-7.4H94.9l.021.854a1.969,1.969,0,0,1,1.764-.991,1.292,1.292,0,0,1,.561.1Z" transform="translate(2192.439 1270.275)" fill="#161615"/><path d="M2.851-9.953,6.1-1.832,9.358-9.953h1.7V0H9.748V-3.876L9.871-8.06,6.6,0h-1L2.338-8.039l.13,4.163V0H1.155V-9.953ZM17.746,0a2.657,2.657,0,0,1-.178-.779,2.822,2.822,0,0,1-2.105.916,2.611,2.611,0,0,1-1.794-.619,2,2,0,0,1-.7-1.569,2.091,2.091,0,0,1,.878-1.794,4.142,4.142,0,0,1,2.471-.639h1.23v-.581a1.42,1.42,0,0,0-.4-1.056,1.593,1.593,0,0,0-1.169-.393,1.844,1.844,0,0,0-1.135.342,1.007,1.007,0,0,0-.458.827H13.118a1.745,1.745,0,0,1,.393-1.07,2.683,2.683,0,0,1,1.066-.817,3.588,3.588,0,0,1,1.48-.3,2.924,2.924,0,0,1,2,.639,2.306,2.306,0,0,1,.752,1.76v3.4a4.162,4.162,0,0,0,.26,1.62V0Zm-2.1-.964a2.223,2.223,0,0,0,1.128-.308,1.861,1.861,0,0,0,.772-.8V-3.589h-.991q-2.324,0-2.324,1.36a1.151,1.151,0,0,0,.4.93A1.524,1.524,0,0,0,15.647-.964ZM22.169,0H20.9V-10.5h1.265Zm5.093.137a3.232,3.232,0,0,1-2.447-.988,3.666,3.666,0,0,1-.943-2.642v-.232a4.438,4.438,0,0,1,.42-1.965,3.28,3.28,0,0,1,1.176-1.354A2.956,2.956,0,0,1,27.1-7.533a2.77,2.77,0,0,1,2.242.95,4.114,4.114,0,0,1,.8,2.721v.526H25.136a2.629,2.629,0,0,0,.639,1.767A2.009,2.009,0,0,0,27.33-.9a2.2,2.2,0,0,0,1.135-.273,2.851,2.851,0,0,0,.813-.725l.772.6A3.106,3.106,0,0,1,27.262.137ZM27.1-6.494a1.687,1.687,0,0,0-1.285.557,2.708,2.708,0,0,0-.643,1.562h3.705v-.1a2.409,2.409,0,0,0-.52-1.494A1.588,1.588,0,0,0,27.1-6.494Zm4.17,2.728A4.369,4.369,0,0,1,31.7-5.722a3.187,3.187,0,0,1,1.189-1.34,3.238,3.238,0,0,1,1.74-.472,3.119,3.119,0,0,1,2.444,1.046,4.024,4.024,0,0,1,.933,2.782v.089a4.407,4.407,0,0,1-.414,1.938A3.14,3.14,0,0,1,36.412-.342a3.275,3.275,0,0,1-1.767.479A3.111,3.111,0,0,1,32.208-.909a4,4,0,0,1-.933-2.769Zm1.271.15a3.164,3.164,0,0,0,.571,1.976A1.827,1.827,0,0,0,34.645-.9a1.816,1.816,0,0,0,1.531-.755,3.46,3.46,0,0,0,.567-2.116,3.159,3.159,0,0,0-.578-1.972,1.836,1.836,0,0,0-1.535-.755,1.816,1.816,0,0,0-1.511.745A3.434,3.434,0,0,0,32.546-3.616ZM40.968,0H39.7V-10.5h1.265Zm1.688-3.767a4.369,4.369,0,0,1,.427-1.955,3.187,3.187,0,0,1,1.189-1.34,3.238,3.238,0,0,1,1.74-.472,3.119,3.119,0,0,1,2.444,1.046,4.024,4.024,0,0,1,.933,2.782v.089a4.407,4.407,0,0,1-.414,1.938A3.14,3.14,0,0,1,47.793-.342a3.275,3.275,0,0,1-1.767.479A3.111,3.111,0,0,1,43.589-.909a4,4,0,0,1-.933-2.769Zm1.271.15A3.164,3.164,0,0,0,44.5-1.641,1.827,1.827,0,0,0,46.026-.9a1.816,1.816,0,0,0,1.531-.755,3.46,3.46,0,0,0,.567-2.116,3.159,3.159,0,0,0-.578-1.972,1.836,1.836,0,0,0-1.535-.755,1.816,1.816,0,0,0-1.511.745A3.434,3.434,0,0,0,43.928-3.616ZM57.511.137a3.232,3.232,0,0,1-2.447-.988,3.666,3.666,0,0,1-.943-2.642v-.232a4.438,4.438,0,0,1,.42-1.965,3.28,3.28,0,0,1,1.176-1.354,2.956,2.956,0,0,1,1.637-.489,2.77,2.77,0,0,1,2.242.95,4.114,4.114,0,0,1,.8,2.721v.526H55.385a2.629,2.629,0,0,0,.639,1.767A2.009,2.009,0,0,0,57.579-.9a2.2,2.2,0,0,0,1.135-.273,2.851,2.851,0,0,0,.813-.725l.772.6A3.106,3.106,0,0,1,57.511.137Zm-.157-6.631a1.687,1.687,0,0,0-1.285.557,2.708,2.708,0,0,0-.643,1.562h3.705v-.1a2.409,2.409,0,0,0-.52-1.494A1.588,1.588,0,0,0,57.354-6.494ZM64.34-4.7,65.98-7.4h1.477l-2.42,3.657L67.532,0H66.069L64.36-2.769,62.651,0h-1.47l2.5-3.739L61.257-7.4H62.72Zm6.173-4.491V-7.4h1.381v.978H70.513v4.587a1.024,1.024,0,0,0,.185.667.777.777,0,0,0,.629.222,3.062,3.062,0,0,0,.6-.082V0a3.666,3.666,0,0,1-.971.137,1.575,1.575,0,0,1-1.278-.513,2.2,2.2,0,0,1-.431-1.456V-6.419H67.9V-7.4h1.347V-9.187ZM76.439.137a3.232,3.232,0,0,1-2.447-.988,3.666,3.666,0,0,1-.943-2.642v-.232a4.438,4.438,0,0,1,.42-1.965,3.28,3.28,0,0,1,1.176-1.354,2.956,2.956,0,0,1,1.637-.489,2.77,2.77,0,0,1,2.242.95,4.114,4.114,0,0,1,.8,2.721v.526H74.313a2.629,2.629,0,0,0,.639,1.767A2.009,2.009,0,0,0,76.508-.9a2.2,2.2,0,0,0,1.135-.273,2.851,2.851,0,0,0,.813-.725l.772.6A3.106,3.106,0,0,1,76.439.137Zm-.157-6.631A1.687,1.687,0,0,0,75-5.937a2.708,2.708,0,0,0-.643,1.562H78.06v-.1a2.409,2.409,0,0,0-.52-1.494A1.588,1.588,0,0,0,76.282-6.494Zm8.08.232a3.79,3.79,0,0,0-.622-.048,1.667,1.667,0,0,0-1.688,1.06V0H80.787V-7.4h1.23l.021.854A1.969,1.969,0,0,1,83.8-7.533a1.292,1.292,0,0,1,.561.1ZM86.9,0H85.634V-7.4H86.9ZM85.531-9.358a.755.755,0,0,1,.188-.52.706.706,0,0,1,.557-.212.717.717,0,0,1,.561.212.747.747,0,0,1,.191.52.722.722,0,0,1-.191.513.73.73,0,0,1-.561.205.718.718,0,0,1-.557-.205A.73.73,0,0,1,85.531-9.358Zm3.056,5.592a4.369,4.369,0,0,1,.427-1.955A3.187,3.187,0,0,1,90.2-7.062a3.238,3.238,0,0,1,1.74-.472,3.119,3.119,0,0,1,2.444,1.046,4.024,4.024,0,0,1,.933,2.782v.089a4.407,4.407,0,0,1-.414,1.938A3.14,3.14,0,0,1,93.724-.342a3.275,3.275,0,0,1-1.767.479A3.111,3.111,0,0,1,89.52-.909a4,4,0,0,1-.933-2.769Zm1.271.15a3.164,3.164,0,0,0,.571,1.976A1.827,1.827,0,0,0,91.957-.9a1.816,1.816,0,0,0,1.531-.755,3.46,3.46,0,0,0,.567-2.116,3.159,3.159,0,0,0-.578-1.972,1.836,1.836,0,0,0-1.535-.755,1.816,1.816,0,0,0-1.511.745A3.434,3.434,0,0,0,89.858-3.616Zm10.623-2.646a3.79,3.79,0,0,0-.622-.048,1.667,1.667,0,0,0-1.688,1.06V0H96.906V-7.4h1.23l.021.854a1.969,1.969,0,0,1,1.764-.991,1.292,1.292,0,0,1,.561.1Z" transform="translate(1960.971 1283.504)" fill="#161615"/><path d="M8.477-3.158A3.662,3.662,0,0,1,7.311-.721,3.82,3.82,0,0,1,4.7.137,3.507,3.507,0,0,1,1.876-1.128,5.088,5.088,0,0,1,.813-4.512v-.957a5.671,5.671,0,0,1,.5-2.44,3.7,3.7,0,0,1,1.4-1.617,3.911,3.911,0,0,1,2.105-.564A3.6,3.6,0,0,1,7.362-9.2,3.706,3.706,0,0,1,8.477-6.754H7.157a2.847,2.847,0,0,0-.742-1.723,2.248,2.248,0,0,0-1.6-.533,2.349,2.349,0,0,0-1.972.93,4.265,4.265,0,0,0-.714,2.646v.964A4.384,4.384,0,0,0,2.81-1.894,2.187,2.187,0,0,0,4.7-.937a2.526,2.526,0,0,0,1.678-.5,2.75,2.75,0,0,0,.776-1.726ZM13.139.137a3.232,3.232,0,0,1-2.447-.988,3.666,3.666,0,0,1-.943-2.642v-.232a4.438,4.438,0,0,1,.42-1.965,3.28,3.28,0,0,1,1.176-1.354,2.956,2.956,0,0,1,1.637-.489,2.77,2.77,0,0,1,2.242.95,4.114,4.114,0,0,1,.8,2.721v.526H11.013a2.629,2.629,0,0,0,.639,1.767A2.009,2.009,0,0,0,13.207-.9a2.2,2.2,0,0,0,1.135-.273,2.851,2.851,0,0,0,.813-.725l.772.6A3.106,3.106,0,0,1,13.139.137Zm-.157-6.631a1.687,1.687,0,0,0-1.285.557,2.708,2.708,0,0,0-.643,1.562h3.705v-.1a2.409,2.409,0,0,0-.52-1.494A1.588,1.588,0,0,0,12.981-6.494Zm5.7-.9.041.93a2.7,2.7,0,0,1,2.215-1.066q2.345,0,2.365,2.646V0H22.039V-4.895a1.7,1.7,0,0,0-.366-1.183,1.466,1.466,0,0,0-1.118-.383,1.825,1.825,0,0,0-1.08.328,2.228,2.228,0,0,0-.725.861V0H17.486V-7.4Zm8.244-1.791V-7.4h1.381v.978H26.927v4.587a1.024,1.024,0,0,0,.185.667.777.777,0,0,0,.629.222,3.062,3.062,0,0,0,.6-.082V0a3.666,3.666,0,0,1-.971.137,1.575,1.575,0,0,1-1.278-.513,2.2,2.2,0,0,1-.431-1.456V-6.419H24.315V-7.4h1.347V-9.187Zm6.433,2.926a3.79,3.79,0,0,0-.622-.048,1.667,1.667,0,0,0-1.688,1.06V0H29.784V-7.4h1.23l.021.854A1.969,1.969,0,0,1,32.8-7.533a1.292,1.292,0,0,1,.561.1Zm.69,2.5a4.369,4.369,0,0,1,.427-1.955,3.187,3.187,0,0,1,1.189-1.34,3.238,3.238,0,0,1,1.74-.472A3.119,3.119,0,0,1,39.85-6.487a4.024,4.024,0,0,1,.933,2.782v.089a4.407,4.407,0,0,1-.414,1.938A3.14,3.14,0,0,1,39.187-.342,3.275,3.275,0,0,1,37.42.137,3.111,3.111,0,0,1,34.983-.909a4,4,0,0,1-.933-2.769Zm1.271.15a3.164,3.164,0,0,0,.571,1.976A1.827,1.827,0,0,0,37.42-.9a1.816,1.816,0,0,0,1.531-.755,3.46,3.46,0,0,0,.567-2.116,3.159,3.159,0,0,0-.578-1.972,1.836,1.836,0,0,0-1.535-.755,1.816,1.816,0,0,0-1.511.745A3.434,3.434,0,0,0,35.321-3.616ZM45.527-3.76A4.333,4.333,0,0,1,46.334-6.5a2.551,2.551,0,0,1,2.112-1.036,2.565,2.565,0,0,1,2.058.889V-10.5h1.265V0H50.606l-.062-.793a2.575,2.575,0,0,1-2.112.93,2.526,2.526,0,0,1-2.1-1.053,4.382,4.382,0,0,1-.81-2.748Zm1.265.144a3.281,3.281,0,0,0,.52,1.969,1.68,1.68,0,0,0,1.436.711A1.845,1.845,0,0,0,50.5-2.017v-3.4A1.859,1.859,0,0,0,48.761-6.46a1.687,1.687,0,0,0-1.449.718A3.612,3.612,0,0,0,46.792-3.616ZM56.8.137a3.232,3.232,0,0,1-2.447-.988,3.666,3.666,0,0,1-.943-2.642v-.232a4.438,4.438,0,0,1,.42-1.965,3.28,3.28,0,0,1,1.176-1.354,2.956,2.956,0,0,1,1.637-.489,2.77,2.77,0,0,1,2.242.95,4.114,4.114,0,0,1,.8,2.721v.526H54.674a2.629,2.629,0,0,0,.639,1.767A2.009,2.009,0,0,0,56.868-.9,2.2,2.2,0,0,0,58-1.169a2.851,2.851,0,0,0,.813-.725l.772.6A3.106,3.106,0,0,1,56.8.137Zm-.157-6.631a1.687,1.687,0,0,0-1.285.557,2.708,2.708,0,0,0-.643,1.562H58.42v-.1a2.409,2.409,0,0,0-.52-1.494A1.588,1.588,0,0,0,56.643-6.494ZM62.521,0H61.257V-10.5h1.265ZM74.259-3.616A4.429,4.429,0,0,1,73.486-.9,2.476,2.476,0,0,1,71.395.137a2.713,2.713,0,0,1-2.119-.854V2.844H68.011V-7.4h1.155l.062.82a2.605,2.605,0,0,1,2.146-.957,2.522,2.522,0,0,1,2.109,1,4.477,4.477,0,0,1,.776,2.8ZM72.994-3.76a3.268,3.268,0,0,0-.533-1.976A1.718,1.718,0,0,0,71-6.46a1.859,1.859,0,0,0-1.723,1.019v3.534A1.863,1.863,0,0,0,71.012-.9a1.71,1.71,0,0,0,1.446-.721A3.567,3.567,0,0,0,72.994-3.76ZM80.432-.731a2.686,2.686,0,0,1-2.167.868,2.3,2.3,0,0,1-1.8-.687,2.974,2.974,0,0,1-.625-2.034V-7.4H77.1v4.778q0,1.682,1.367,1.682A1.893,1.893,0,0,0,80.4-2.017V-7.4h1.265V0h-1.2ZM84.779-7.4l.041.93a2.7,2.7,0,0,1,2.215-1.066q2.345,0,2.365,2.646V0H88.136V-4.895a1.7,1.7,0,0,0-.366-1.183,1.466,1.466,0,0,0-1.118-.383,1.825,1.825,0,0,0-1.08.328,2.228,2.228,0,0,0-.725.861V0H83.583V-7.4Zm4.184-2.885a1.7,1.7,0,0,1-.42,1.2,1.365,1.365,0,0,1-1.049.458,1.54,1.54,0,0,1-.485-.068,2.619,2.619,0,0,1-.537-.28,2.324,2.324,0,0,0-.479-.256,1.171,1.171,0,0,0-.338-.044.627.627,0,0,0-.479.215.781.781,0,0,0-.2.55l-.848-.048a1.784,1.784,0,0,1,.414-1.21,1.326,1.326,0,0,1,1.049-.479,1.275,1.275,0,0,1,.431.068,3.139,3.139,0,0,1,.52.267,3.057,3.057,0,0,0,.5.26,1.154,1.154,0,0,0,.386.062.612.612,0,0,0,.489-.232.815.815,0,0,0,.195-.54Zm2.01,6.515A4.369,4.369,0,0,1,91.4-5.722a3.187,3.187,0,0,1,1.189-1.34,3.238,3.238,0,0,1,1.74-.472,3.119,3.119,0,0,1,2.444,1.046,4.024,4.024,0,0,1,.933,2.782v.089a4.407,4.407,0,0,1-.414,1.938A3.14,3.14,0,0,1,96.11-.342a3.275,3.275,0,0,1-1.767.479A3.111,3.111,0,0,1,91.906-.909a4,4,0,0,1-.933-2.769Zm1.271.15a3.164,3.164,0,0,0,.571,1.976A1.827,1.827,0,0,0,94.343-.9a1.816,1.816,0,0,0,1.531-.755,3.46,3.46,0,0,0,.567-2.116,3.159,3.159,0,0,0-.578-1.972,1.836,1.836,0,0,0-1.535-.755,1.816,1.816,0,0,0-1.511.745A3.434,3.434,0,0,0,92.244-3.616Zm10.179-.15a4.369,4.369,0,0,1,.427-1.955,3.187,3.187,0,0,1,1.189-1.34,3.238,3.238,0,0,1,1.74-.472,3.119,3.119,0,0,1,2.444,1.046,4.024,4.024,0,0,1,.933,2.782v.089a4.407,4.407,0,0,1-.414,1.938A3.14,3.14,0,0,1,107.56-.342a3.275,3.275,0,0,1-1.767.479,3.111,3.111,0,0,1-2.437-1.046,4,4,0,0,1-.933-2.769Zm1.271.15a3.164,3.164,0,0,0,.571,1.976,1.827,1.827,0,0,0,1.528.745,1.816,1.816,0,0,0,1.531-.755,3.46,3.46,0,0,0,.567-2.116,3.159,3.159,0,0,0-.578-1.972,1.836,1.836,0,0,0-1.535-.755,1.816,1.816,0,0,0-1.511.745A3.434,3.434,0,0,0,103.694-3.616ZM2.146,9.4l.034.82a2.732,2.732,0,0,1,2.194-.957,2.115,2.115,0,0,1,2.112,1.189,2.8,2.8,0,0,1,.96-.861,2.837,2.837,0,0,1,1.4-.328q2.434,0,2.475,2.577V16.8H10.056V11.919a1.7,1.7,0,0,0-.362-1.186,1.6,1.6,0,0,0-1.217-.393,1.677,1.677,0,0,0-1.169.42,1.706,1.706,0,0,0-.54,1.131V16.8H5.5V11.953A1.411,1.411,0,0,0,3.917,10.34a1.692,1.692,0,0,0-1.7,1.06v5.4H.95V9.4Zm15.647,7.4a2.657,2.657,0,0,1-.178-.779,2.822,2.822,0,0,1-2.105.916,2.611,2.611,0,0,1-1.794-.619,2,2,0,0,1-.7-1.569,2.091,2.091,0,0,1,.878-1.794,4.142,4.142,0,0,1,2.471-.639H17.6v-.581a1.42,1.42,0,0,0-.4-1.056,1.593,1.593,0,0,0-1.169-.393,1.844,1.844,0,0,0-1.135.342,1.007,1.007,0,0,0-.458.827H13.166a1.745,1.745,0,0,1,.393-1.07,2.683,2.683,0,0,1,1.066-.817,3.588,3.588,0,0,1,1.48-.3,2.924,2.924,0,0,1,2,.639,2.306,2.306,0,0,1,.752,1.76v3.4a4.162,4.162,0,0,0,.26,1.62V16.8Zm-2.1-.964a2.223,2.223,0,0,0,1.128-.308,1.861,1.861,0,0,0,.772-.8V13.211H16.6q-2.324,0-2.324,1.36a1.151,1.151,0,0,0,.4.93A1.524,1.524,0,0,0,15.7,15.836ZM22.039,9.4l.041.93a2.7,2.7,0,0,1,2.215-1.066q2.345,0,2.365,2.646V16.8H25.4V11.905a1.7,1.7,0,0,0-.366-1.183,1.466,1.466,0,0,0-1.118-.383,1.825,1.825,0,0,0-1.08.328,2.228,2.228,0,0,0-.725.861V16.8H20.843V9.4Zm11.095,6.665a2.686,2.686,0,0,1-2.167.868,2.3,2.3,0,0,1-1.8-.687,2.974,2.974,0,0,1-.625-2.034V9.4H29.8v4.778q0,1.682,1.367,1.682a1.893,1.893,0,0,0,1.928-1.08V9.4h1.265v7.4h-1.2Zm9.413-2.885a4.4,4.4,0,0,1-.779,2.724,2.49,2.49,0,0,1-2.092,1.029,2.578,2.578,0,0,1-2.167-.991l-.062.854H36.285V6.3H37.55v3.917a2.564,2.564,0,0,1,2.112-.95,2.505,2.505,0,0,1,2.116,1.019,4.53,4.53,0,0,1,.769,2.789Zm-1.265-.144a3.417,3.417,0,0,0-.5-2,1.652,1.652,0,0,0-1.436-.7,1.857,1.857,0,0,0-1.8,1.162v3.2a1.909,1.909,0,0,0,1.812,1.162,1.643,1.643,0,0,0,1.415-.7A3.634,3.634,0,0,0,41.282,13.04Zm6.433-2.5a3.79,3.79,0,0,0-.622-.048A1.667,1.667,0,0,0,45.4,11.55V16.8H44.14V9.4h1.23l.021.854a1.969,1.969,0,0,1,1.764-.991,1.292,1.292,0,0,1,.561.1ZM50.251,16.8H48.986V9.4h1.265ZM48.884,7.442a.755.755,0,0,1,.188-.52.706.706,0,0,1,.557-.212.717.717,0,0,1,.561.212.747.747,0,0,1,.191.52.722.722,0,0,1-.191.513.73.73,0,0,1-.561.205.718.718,0,0,1-.557-.205A.73.73,0,0,1,48.884,7.442Zm3.056,5.592a4.369,4.369,0,0,1,.427-1.955,3.187,3.187,0,0,1,1.189-1.34,3.238,3.238,0,0,1,1.74-.472,3.119,3.119,0,0,1,2.444,1.046,4.024,4.024,0,0,1,.933,2.782v.089a4.407,4.407,0,0,1-.414,1.938,3.14,3.14,0,0,1-1.183,1.336,3.275,3.275,0,0,1-1.767.479,3.111,3.111,0,0,1-2.437-1.046,4,4,0,0,1-.933-2.769Zm1.271.15a3.164,3.164,0,0,0,.571,1.976,1.934,1.934,0,0,0,3.059-.01,3.46,3.46,0,0,0,.567-2.116,3.159,3.159,0,0,0-.578-1.972,1.836,1.836,0,0,0-1.535-.755,1.816,1.816,0,0,0-1.511.745A3.435,3.435,0,0,0,53.211,13.184Zm13.583,3.753a3.232,3.232,0,0,1-2.447-.988,3.666,3.666,0,0,1-.943-2.642v-.232a4.438,4.438,0,0,1,.42-1.965A3.28,3.28,0,0,1,65,9.756a2.956,2.956,0,0,1,1.637-.489,2.77,2.77,0,0,1,2.242.95,4.114,4.114,0,0,1,.8,2.721v.526H64.668a2.629,2.629,0,0,0,.639,1.767,2.009,2.009,0,0,0,1.555.673A2.2,2.2,0,0,0,68,15.631a2.851,2.851,0,0,0,.813-.725l.772.6A3.106,3.106,0,0,1,66.794,16.937Zm-.157-6.631a1.687,1.687,0,0,0-1.285.557,2.708,2.708,0,0,0-.643,1.562h3.705v-.1a2.409,2.409,0,0,0-.52-1.494A1.588,1.588,0,0,0,66.637,10.306Zm6.986,1.8,1.641-2.7H76.74l-2.42,3.657,2.5,3.739H75.353l-1.709-2.769L71.935,16.8h-1.47l2.5-3.739L70.54,9.4H72ZM79.8,7.613V9.4h1.381v.978H79.8v4.587a1.024,1.024,0,0,0,.185.667.777.777,0,0,0,.629.222,3.062,3.062,0,0,0,.6-.082V16.8a3.666,3.666,0,0,1-.971.137,1.575,1.575,0,0,1-1.278-.513,2.2,2.2,0,0,1-.431-1.456V10.381H77.185V9.4h1.347V7.613Zm5.927,9.324a3.232,3.232,0,0,1-2.447-.988,3.666,3.666,0,0,1-.943-2.642v-.232a4.438,4.438,0,0,1,.42-1.965,3.28,3.28,0,0,1,1.176-1.354,2.956,2.956,0,0,1,1.637-.489,2.77,2.77,0,0,1,2.242.95,4.114,4.114,0,0,1,.8,2.721v.526H83.6a2.629,2.629,0,0,0,.639,1.767,2.009,2.009,0,0,0,1.555.673,2.2,2.2,0,0,0,1.135-.273,2.851,2.851,0,0,0,.813-.725l.772.6A3.106,3.106,0,0,1,85.723,16.937Zm-.157-6.631a1.687,1.687,0,0,0-1.285.557,2.708,2.708,0,0,0-.643,1.562h3.705v-.1a2.409,2.409,0,0,0-.52-1.494A1.588,1.588,0,0,0,85.565,10.306Zm8.08.232a3.79,3.79,0,0,0-.622-.048,1.667,1.667,0,0,0-1.688,1.06V16.8H90.07V9.4H91.3l.021.854a1.969,1.969,0,0,1,1.764-.991,1.292,1.292,0,0,1,.561.1ZM96,9.4l.041.93A2.7,2.7,0,0,1,98.26,9.267q2.345,0,2.365,2.646V16.8H99.36V11.905a1.7,1.7,0,0,0-.366-1.183,1.466,1.466,0,0,0-1.118-.383,1.825,1.825,0,0,0-1.08.328,2.228,2.228,0,0,0-.725.861V16.8H94.808V9.4ZM107.1,16.8a2.657,2.657,0,0,1-.178-.779,2.822,2.822,0,0,1-2.105.916,2.611,2.611,0,0,1-1.794-.619,2,2,0,0,1-.7-1.569,2.091,2.091,0,0,1,.878-1.794,4.141,4.141,0,0,1,2.471-.639h1.23v-.581a1.42,1.42,0,0,0-.4-1.056,1.593,1.593,0,0,0-1.169-.393,1.844,1.844,0,0,0-1.135.342,1.007,1.007,0,0,0-.458.827h-1.271a1.745,1.745,0,0,1,.393-1.07,2.683,2.683,0,0,1,1.066-.817,3.588,3.588,0,0,1,1.48-.3,2.924,2.924,0,0,1,2,.639,2.306,2.306,0,0,1,.752,1.76v3.4a4.162,4.162,0,0,0,.26,1.62V16.8Zm-2.1-.964a2.223,2.223,0,0,0,1.128-.308,1.861,1.861,0,0,0,.772-.8V13.211h-.991q-2.324,0-2.324,1.36a1.151,1.151,0,0,0,.4.93A1.524,1.524,0,0,0,105,15.836Zm6.521.964h-1.265V6.3h1.265Z" transform="translate(2198.012 960.242)" fill="#161615"/><path d="M-59.131-.9a1.822,1.822,0,0,0,1.183-.41,1.443,1.443,0,0,0,.561-1.025h1.2a2.293,2.293,0,0,1-.437,1.21,2.881,2.881,0,0,1-1.077.916,3.107,3.107,0,0,1-1.425.342,3.047,3.047,0,0,1-2.4-1.008,4.016,4.016,0,0,1-.892-2.758v-.212a4.453,4.453,0,0,1,.4-1.921,3.02,3.02,0,0,1,1.138-1.306,3.233,3.233,0,0,1,1.753-.465,2.966,2.966,0,0,1,2.068.745,2.663,2.663,0,0,1,.878,1.935h-1.2a1.743,1.743,0,0,0-.543-1.179,1.691,1.691,0,0,0-1.207-.461,1.77,1.77,0,0,0-1.494.694,3.259,3.259,0,0,0-.53,2.006v.239a3.194,3.194,0,0,0,.526,1.969A1.779,1.779,0,0,0-59.131-.9ZM-53.4,0H-54.66V-7.4H-53.4Zm-1.367-9.358a.755.755,0,0,1,.188-.52.706.706,0,0,1,.557-.212.717.717,0,0,1,.561.212.747.747,0,0,1,.191.52.722.722,0,0,1-.191.513.73.73,0,0,1-.561.205.718.718,0,0,1-.557-.205A.73.73,0,0,1-54.763-9.358ZM-50.176-7.4l.041.93A2.7,2.7,0,0,1-47.92-7.533q2.345,0,2.365,2.646V0h-1.265V-4.895a1.7,1.7,0,0,0-.366-1.183A1.466,1.466,0,0,0-48.3-6.46a1.825,1.825,0,0,0-1.08.328,2.228,2.228,0,0,0-.725.861V0h-1.265V-7.4Zm8.244-1.791V-7.4h1.381v.978h-1.381v4.587a1.024,1.024,0,0,0,.185.667.777.777,0,0,0,.629.222,3.062,3.062,0,0,0,.6-.082V0a3.666,3.666,0,0,1-.971.137,1.575,1.575,0,0,1-1.278-.513A2.2,2.2,0,0,1-43.2-1.832V-6.419h-1.347V-7.4H-43.2V-9.187Zm7.424,8.456a2.686,2.686,0,0,1-2.167.868,2.3,2.3,0,0,1-1.8-.687A2.974,2.974,0,0,1-39.1-2.584V-7.4h1.265v4.778q0,1.682,1.367,1.682a1.893,1.893,0,0,0,1.928-1.08V-7.4h1.265V0h-1.2Zm6.727-5.53A3.79,3.79,0,0,0-28.4-6.31a1.667,1.667,0,0,0-1.688,1.06V0h-1.265V-7.4h1.23l.021.854a1.969,1.969,0,0,1,1.764-.991,1.292,1.292,0,0,1,.561.1ZM-22.326,0A2.657,2.657,0,0,1-22.5-.779a2.822,2.822,0,0,1-2.105.916A2.611,2.611,0,0,1-26.4-.482a2,2,0,0,1-.7-1.569,2.091,2.091,0,0,1,.878-1.794,4.142,4.142,0,0,1,2.471-.639h1.23v-.581a1.42,1.42,0,0,0-.4-1.056,1.593,1.593,0,0,0-1.169-.393,1.844,1.844,0,0,0-1.135.342,1.007,1.007,0,0,0-.458.827h-1.271a1.745,1.745,0,0,1,.393-1.07,2.683,2.683,0,0,1,1.066-.817,3.588,3.588,0,0,1,1.48-.3,2.924,2.924,0,0,1,2,.639,2.306,2.306,0,0,1,.752,1.76v3.4A4.162,4.162,0,0,0-21-.109V0Zm-2.1-.964A2.223,2.223,0,0,0-23.3-1.271a1.861,1.861,0,0,0,.772-.8V-3.589h-.991q-2.324,0-2.324,1.36a1.151,1.151,0,0,0,.4.93A1.524,1.524,0,0,0-24.425-.964Zm11.58.068a1.822,1.822,0,0,0,1.183-.41A1.443,1.443,0,0,0-11.1-2.331h1.2a2.293,2.293,0,0,1-.437,1.21,2.881,2.881,0,0,1-1.077.916,3.107,3.107,0,0,1-1.425.342,3.047,3.047,0,0,1-2.4-1.008A4.016,4.016,0,0,1-16.14-3.63v-.212a4.453,4.453,0,0,1,.4-1.921A3.02,3.02,0,0,1-14.6-7.068a3.233,3.233,0,0,1,1.753-.465,2.966,2.966,0,0,1,2.068.745,2.663,2.663,0,0,1,.878,1.935h-1.2a1.743,1.743,0,0,0-.543-1.179,1.691,1.691,0,0,0-1.207-.461,1.77,1.77,0,0,0-1.494.694,3.259,3.259,0,0,0-.53,2.006v.239a3.194,3.194,0,0,0,.526,1.969A1.779,1.779,0,0,0-12.845-.9ZM-5.414.137A3.232,3.232,0,0,1-7.861-.851,3.666,3.666,0,0,1-8.8-3.493v-.232a4.438,4.438,0,0,1,.42-1.965A3.28,3.28,0,0,1-7.208-7.044a2.956,2.956,0,0,1,1.637-.489,2.77,2.77,0,0,1,2.242.95,4.114,4.114,0,0,1,.8,2.721v.526H-7.54A2.629,2.629,0,0,0-6.9-1.569,2.009,2.009,0,0,0-5.346-.9a2.2,2.2,0,0,0,1.135-.273A2.851,2.851,0,0,0-3.4-1.894l.772.6A3.106,3.106,0,0,1-5.414.137Zm-.157-6.631a1.687,1.687,0,0,0-1.285.557A2.708,2.708,0,0,0-7.5-4.375h3.705v-.1a2.409,2.409,0,0,0-.52-1.494A1.588,1.588,0,0,0-5.571-6.494Zm5.7-.9.041.93A2.7,2.7,0,0,1,2.386-7.533q2.345,0,2.365,2.646V0H3.486V-4.895a1.7,1.7,0,0,0-.366-1.183A1.466,1.466,0,0,0,2-6.46a1.825,1.825,0,0,0-1.08.328A2.228,2.228,0,0,0,.2-5.271V0H-1.066V-7.4ZM8.374-9.187V-7.4H9.755v.978H8.374v4.587a1.024,1.024,0,0,0,.185.667.777.777,0,0,0,.629.222,3.062,3.062,0,0,0,.6-.082V0a3.666,3.666,0,0,1-.971.137A1.575,1.575,0,0,1,7.54-.376a2.2,2.2,0,0,1-.431-1.456V-6.419H5.763V-7.4H7.109V-9.187Zm6.433,2.926a3.79,3.79,0,0,0-.622-.048A1.667,1.667,0,0,0,12.5-5.25V0H11.231V-7.4h1.23l.021.854a1.969,1.969,0,0,1,1.764-.991,1.292,1.292,0,0,1,.561.1Zm.69,2.5a4.369,4.369,0,0,1,.427-1.955,3.187,3.187,0,0,1,1.189-1.34,3.238,3.238,0,0,1,1.74-.472A3.119,3.119,0,0,1,21.3-6.487a4.024,4.024,0,0,1,.933,2.782v.089a4.407,4.407,0,0,1-.414,1.938A3.14,3.14,0,0,1,20.634-.342a3.275,3.275,0,0,1-1.767.479A3.111,3.111,0,0,1,16.43-.909,4,4,0,0,1,15.5-3.678Zm1.271.15a3.164,3.164,0,0,0,.571,1.976A1.827,1.827,0,0,0,18.867-.9,1.816,1.816,0,0,0,20.4-1.651a3.46,3.46,0,0,0,.567-2.116,3.159,3.159,0,0,0-.578-1.972,1.836,1.836,0,0,0-1.535-.755,1.816,1.816,0,0,0-1.511.745A3.434,3.434,0,0,0,16.769-3.616ZM27.9,0V-6.419H26.735V-7.4H27.9v-.759a2.519,2.519,0,0,1,.636-1.839,2.4,2.4,0,0,1,1.8-.649,3.319,3.319,0,0,1,.868.116L31.138-9.5a3.632,3.632,0,0,0-.684-.062,1.236,1.236,0,0,0-.95.359,1.453,1.453,0,0,0-.335,1.029V-7.4h1.579v.978H29.169V0Zm7.813-6.262A3.79,3.79,0,0,0,35.1-6.31a1.667,1.667,0,0,0-1.688,1.06V0H32.143V-7.4h1.23l.021.854a1.969,1.969,0,0,1,1.764-.991,1.292,1.292,0,0,1,.561.1Zm4.231,6.4A3.232,3.232,0,0,1,37.5-.851a3.666,3.666,0,0,1-.943-2.642v-.232a4.438,4.438,0,0,1,.42-1.965,3.28,3.28,0,0,1,1.176-1.354,2.956,2.956,0,0,1,1.637-.489,2.77,2.77,0,0,1,2.242.95,4.114,4.114,0,0,1,.8,2.721v.526H37.823a2.629,2.629,0,0,0,.639,1.767A2.009,2.009,0,0,0,40.018-.9a2.2,2.2,0,0,0,1.135-.273,2.851,2.851,0,0,0,.813-.725l.772.6A3.106,3.106,0,0,1,39.949.137Zm-.157-6.631a1.687,1.687,0,0,0-1.285.557,2.708,2.708,0,0,0-.643,1.562h3.705v-.1a2.409,2.409,0,0,0-.52-1.494A1.588,1.588,0,0,0,39.792-6.494Zm5.7-.9.041.93a2.7,2.7,0,0,1,2.215-1.066q2.345,0,2.365,2.646V0H48.85V-4.895a1.7,1.7,0,0,0-.366-1.183,1.466,1.466,0,0,0-1.118-.383,1.825,1.825,0,0,0-1.08.328,2.228,2.228,0,0,0-.725.861V0H44.3V-7.4Zm8.244-1.791V-7.4h1.381v.978H53.737v4.587a1.024,1.024,0,0,0,.185.667.777.777,0,0,0,.629.222,3.062,3.062,0,0,0,.6-.082V0a3.666,3.666,0,0,1-.971.137A1.575,1.575,0,0,1,52.9-.376a2.2,2.2,0,0,1-.431-1.456V-6.419H51.126V-7.4h1.347V-9.187ZM59.664.137a3.232,3.232,0,0,1-2.447-.988,3.666,3.666,0,0,1-.943-2.642v-.232a4.438,4.438,0,0,1,.42-1.965A3.28,3.28,0,0,1,57.87-7.044a2.956,2.956,0,0,1,1.637-.489,2.77,2.77,0,0,1,2.242.95,4.114,4.114,0,0,1,.8,2.721v.526H57.538a2.629,2.629,0,0,0,.639,1.767A2.009,2.009,0,0,0,59.732-.9a2.2,2.2,0,0,0,1.135-.273,2.851,2.851,0,0,0,.813-.725l.772.6A3.106,3.106,0,0,1,59.664.137Zm-.157-6.631a1.687,1.687,0,0,0-1.285.557,2.708,2.708,0,0,0-.643,1.562h3.705v-.1a2.409,2.409,0,0,0-.52-1.494A1.588,1.588,0,0,0,59.507-6.494ZM-48.915,12.76A10.569,10.569,0,0,1-48.5,9.793a8.618,8.618,0,0,1,1.234-2.584,5.249,5.249,0,0,1,1.7-1.641l.26.834A5.444,5.444,0,0,0-46.942,8.74a10.135,10.135,0,0,0-.7,3.521l-.007.581a10.188,10.188,0,0,0,.964,4.58,5.47,5.47,0,0,0,1.381,1.818l-.26.772a5.418,5.418,0,0,1-1.736-1.7A9.5,9.5,0,0,1-48.915,12.76Zm6.022,3.008h4.327V16.8h-5.872v-.93l4.081-5.421h-4.02V9.4h5.605v.9Zm5.3-2.734a4.369,4.369,0,0,1,.427-1.955,3.187,3.187,0,0,1,1.189-1.34,3.238,3.238,0,0,1,1.74-.472,3.119,3.119,0,0,1,2.444,1.046,4.024,4.024,0,0,1,.933,2.782v.089a4.407,4.407,0,0,1-.414,1.938,3.14,3.14,0,0,1-1.183,1.336,3.275,3.275,0,0,1-1.767.479,3.111,3.111,0,0,1-2.437-1.046,4,4,0,0,1-.933-2.769Zm1.271.15a3.164,3.164,0,0,0,.571,1.976,1.827,1.827,0,0,0,1.528.745,1.816,1.816,0,0,0,1.531-.755,3.46,3.46,0,0,0,.567-2.116,3.159,3.159,0,0,0-.578-1.972,1.836,1.836,0,0,0-1.535-.755,1.816,1.816,0,0,0-1.511.745A3.435,3.435,0,0,0-36.316,13.184Zm8.244-3.78.041.93a2.7,2.7,0,0,1,2.215-1.066q2.345,0,2.365,2.646V16.8h-1.265V11.905a1.7,1.7,0,0,0-.366-1.183A1.466,1.466,0,0,0-26.2,10.34a1.825,1.825,0,0,0-1.08.328,2.228,2.228,0,0,0-.725.861V16.8h-1.265V9.4Zm11.095,7.4a2.657,2.657,0,0,1-.178-.779,2.822,2.822,0,0,1-2.105.916,2.611,2.611,0,0,1-1.794-.619,2,2,0,0,1-.7-1.569,2.091,2.091,0,0,1,.878-1.794,4.142,4.142,0,0,1,2.471-.639h1.23v-.581a1.42,1.42,0,0,0-.4-1.056,1.593,1.593,0,0,0-1.169-.393,1.844,1.844,0,0,0-1.135.342,1.007,1.007,0,0,0-.458.827H-21.6a1.745,1.745,0,0,1,.393-1.07,2.683,2.683,0,0,1,1.066-.817,3.588,3.588,0,0,1,1.48-.3,2.924,2.924,0,0,1,2,.639,2.306,2.306,0,0,1,.752,1.76v3.4a4.162,4.162,0,0,0,.26,1.62V16.8Zm-2.1-.964a2.223,2.223,0,0,0,1.128-.308,1.861,1.861,0,0,0,.772-.8V13.211h-.991q-2.324,0-2.324,1.36a1.151,1.151,0,0,0,.4.93A1.524,1.524,0,0,0-19.076,15.836Zm13.18.232a2.686,2.686,0,0,1-2.167.868,2.3,2.3,0,0,1-1.8-.687,2.974,2.974,0,0,1-.625-2.034V9.4h1.265v4.778q0,1.682,1.367,1.682a1.893,1.893,0,0,0,1.928-1.08V9.4h1.265v7.4h-1.2ZM-1.555,9.4l.034.82A2.732,2.732,0,0,1,.673,9.267a2.115,2.115,0,0,1,2.112,1.189,2.8,2.8,0,0,1,.96-.861,2.837,2.837,0,0,1,1.4-.328q2.434,0,2.475,2.577V16.8H6.354V11.919a1.7,1.7,0,0,0-.362-1.186,1.6,1.6,0,0,0-1.217-.393,1.677,1.677,0,0,0-1.169.42,1.706,1.706,0,0,0-.54,1.131V16.8H1.794V11.953A1.411,1.411,0,0,0,.215,10.34a1.692,1.692,0,0,0-1.7,1.06v5.4H-2.751V9.4Zm17.343,3.78a4.4,4.4,0,0,1-.779,2.724,2.49,2.49,0,0,1-2.092,1.029,2.578,2.578,0,0,1-2.167-.991l-.062.854H9.526V6.3h1.265v3.917a2.564,2.564,0,0,1,2.112-.95,2.505,2.505,0,0,1,2.116,1.019,4.53,4.53,0,0,1,.769,2.789Zm-1.265-.144a3.417,3.417,0,0,0-.5-2,1.652,1.652,0,0,0-1.436-.7,1.857,1.857,0,0,0-1.8,1.162v3.2A1.909,1.909,0,0,0,12.6,15.863a1.643,1.643,0,0,0,1.415-.7A3.634,3.634,0,0,0,14.523,13.04Zm4.231,3.76H17.49V9.4h1.265ZM17.387,7.442a.755.755,0,0,1,.188-.52.706.706,0,0,1,.557-.212.717.717,0,0,1,.561.212.747.747,0,0,1,.191.52.722.722,0,0,1-.191.513.73.73,0,0,1-.561.205.718.718,0,0,1-.557-.205A.73.73,0,0,1,17.387,7.442ZM22.152,16.8H20.887V6.3h1.265Zm3.4,0H24.285V9.4h1.265ZM24.182,7.442a.755.755,0,0,1,.188-.52.706.706,0,0,1,.557-.212.717.717,0,0,1,.561.212.747.747,0,0,1,.191.52.722.722,0,0,1-.191.513.73.73,0,0,1-.561.205.718.718,0,0,1-.557-.205A.73.73,0,0,1,24.182,7.442ZM30.54,15.9a1.822,1.822,0,0,0,1.183-.41,1.443,1.443,0,0,0,.561-1.025h1.2a2.293,2.293,0,0,1-.437,1.21,2.881,2.881,0,0,1-1.077.916,3.107,3.107,0,0,1-1.425.342,3.047,3.047,0,0,1-2.4-1.008,4.016,4.016,0,0,1-.892-2.758v-.212a4.453,4.453,0,0,1,.4-1.921,3.02,3.02,0,0,1,1.138-1.306,3.233,3.233,0,0,1,1.753-.465,2.966,2.966,0,0,1,2.068.745,2.663,2.663,0,0,1,.878,1.935h-1.2a1.743,1.743,0,0,0-.543-1.179,1.691,1.691,0,0,0-1.207-.461A1.77,1.77,0,0,0,29.039,11a3.259,3.259,0,0,0-.53,2.006v.239a3.194,3.194,0,0,0,.526,1.969A1.779,1.779,0,0,0,30.54,15.9Zm8.928.9a2.657,2.657,0,0,1-.178-.779,2.822,2.822,0,0,1-2.105.916,2.611,2.611,0,0,1-1.794-.619,2,2,0,0,1-.7-1.569,2.091,2.091,0,0,1,.878-1.794,4.142,4.142,0,0,1,2.471-.639h1.23v-.581a1.42,1.42,0,0,0-.4-1.056,1.593,1.593,0,0,0-1.169-.393,1.844,1.844,0,0,0-1.135.342,1.007,1.007,0,0,0-.458.827H34.839a1.745,1.745,0,0,1,.393-1.07A2.683,2.683,0,0,1,36.3,9.568a3.588,3.588,0,0,1,1.48-.3,2.924,2.924,0,0,1,2,.639,2.306,2.306,0,0,1,.752,1.76v3.4a4.162,4.162,0,0,0,.26,1.62V16.8Zm-2.1-.964a2.223,2.223,0,0,0,1.128-.308,1.861,1.861,0,0,0,.772-.8V13.211h-.991q-2.324,0-2.324,1.36a1.151,1.151,0,0,0,.4.93A1.524,1.524,0,0,0,37.369,15.836Zm6.521.964H42.625V6.3H43.89Zm4.942-3.972a10.574,10.574,0,0,1-.4,2.922,8.641,8.641,0,0,1-1.224,2.581,5.361,5.361,0,0,1-1.726,1.682l-.267-.772a5.5,5.5,0,0,0,1.692-2.505,10.839,10.839,0,0,0,.653-3.77v-.219a11.254,11.254,0,0,0-.3-2.669,9.009,9.009,0,0,0-.837-2.211,5.108,5.108,0,0,0-1.207-1.524l.267-.772A5.34,5.34,0,0,1,47.2,7.237a8.66,8.66,0,0,1,1.224,2.577A10.818,10.818,0,0,1,48.833,12.828Z" transform="translate(1988.307 1129.559)" fill="#161615"/><path d="M-55.617-3.9V0H-56.93V-9.953h3.671a3.688,3.688,0,0,1,2.56.834,2.827,2.827,0,0,1,.926,2.208,2.79,2.79,0,0,1-.906,2.232,3.853,3.853,0,0,1-2.594.783Zm0-1.073h2.358a2.361,2.361,0,0,0,1.613-.5A1.811,1.811,0,0,0-51.085-6.9a1.87,1.87,0,0,0-.561-1.422,2.212,2.212,0,0,0-1.538-.554h-2.434Zm8.7,4.97h-1.265V-10.5h1.265Zm3.4,0h-1.265V-7.4h1.265Zm-1.367-9.358a.755.755,0,0,1,.188-.52.706.706,0,0,1,.557-.212.717.717,0,0,1,.561.212.747.747,0,0,1,.191.52.722.722,0,0,1-.191.513.73.73,0,0,1-.561.205.718.718,0,0,1-.557-.205A.73.73,0,0,1-44.892-9.358Zm6.46,9.5a3.232,3.232,0,0,1-2.447-.988,3.666,3.666,0,0,1-.943-2.642v-.232a4.438,4.438,0,0,1,.42-1.965,3.28,3.28,0,0,1,1.176-1.354,2.956,2.956,0,0,1,1.637-.489,2.77,2.77,0,0,1,2.242.95,4.114,4.114,0,0,1,.8,2.721v.526h-5.011a2.629,2.629,0,0,0,.639,1.767A2.009,2.009,0,0,0-38.363-.9a2.2,2.2,0,0,0,1.135-.273,2.851,2.851,0,0,0,.813-.725l.772.6A3.106,3.106,0,0,1-38.432.137Zm-.157-6.631a1.687,1.687,0,0,0-1.285.557,2.708,2.708,0,0,0-.643,1.562h3.705v-.1a2.409,2.409,0,0,0-.52-1.494A1.588,1.588,0,0,0-38.589-6.494Zm4.2,2.734a4.347,4.347,0,0,1,.8-2.751,2.558,2.558,0,0,1,2.119-1.022,2.544,2.544,0,0,1,2.112.957l.062-.82h1.155V-.178a3.009,3.009,0,0,1-.851,2.263,3.141,3.141,0,0,1-2.287.827A3.8,3.8,0,0,1-32.84,2.57a2.7,2.7,0,0,1-1.169-.937l.656-.759a2.473,2.473,0,0,0,1.989,1,1.938,1.938,0,0,0,1.439-.52A1.986,1.986,0,0,0-29.408-.1V-.738a2.6,2.6,0,0,1-2.071.875,2.526,2.526,0,0,1-2.1-1.046A4.571,4.571,0,0,1-34.385-3.76Zm1.271.144A3.316,3.316,0,0,0-32.6-1.651a1.666,1.666,0,0,0,1.436.714,1.852,1.852,0,0,0,1.757-1.087V-5.4a1.874,1.874,0,0,0-1.743-1.06,1.681,1.681,0,0,0-1.442.718A3.612,3.612,0,0,0-33.113-3.616Zm11.45,2.885A2.686,2.686,0,0,1-23.83.137a2.3,2.3,0,0,1-1.8-.687,2.974,2.974,0,0,1-.625-2.034V-7.4h1.265v4.778q0,1.682,1.367,1.682A1.893,1.893,0,0,0-21.7-2.017V-7.4h1.265V0h-1.2Zm6.221.868A3.232,3.232,0,0,1-17.89-.851a3.666,3.666,0,0,1-.943-2.642v-.232a4.438,4.438,0,0,1,.42-1.965,3.28,3.28,0,0,1,1.176-1.354A2.956,2.956,0,0,1-15.6-7.533a2.77,2.77,0,0,1,2.242.95,4.114,4.114,0,0,1,.8,2.721v.526h-5.011a2.629,2.629,0,0,0,.639,1.767A2.009,2.009,0,0,0-15.374-.9a2.2,2.2,0,0,0,1.135-.273,2.851,2.851,0,0,0,.813-.725l.772.6A3.106,3.106,0,0,1-15.442.137ZM-15.6-6.494a1.687,1.687,0,0,0-1.285.557,2.708,2.708,0,0,0-.643,1.562h3.705v-.1a2.409,2.409,0,0,0-.52-1.494A1.588,1.588,0,0,0-15.6-6.494Zm8.812,4.532a.931.931,0,0,0-.386-.8,3.718,3.718,0,0,0-1.347-.489,6.367,6.367,0,0,1-1.524-.492,2.169,2.169,0,0,1-.834-.684,1.635,1.635,0,0,1-.27-.943A1.919,1.919,0,0,1-10.38-6.9a3,3,0,0,1,1.965-.629,3.091,3.091,0,0,1,2.041.649,2.063,2.063,0,0,1,.783,1.661H-6.863a1.142,1.142,0,0,0-.441-.9,1.652,1.652,0,0,0-1.111-.376,1.729,1.729,0,0,0-1.08.3.947.947,0,0,0-.39.786.767.767,0,0,0,.362.69,4.458,4.458,0,0,0,1.309.444,6.821,6.821,0,0,1,1.535.506,2.239,2.239,0,0,1,.872.708,1.74,1.74,0,0,1,.284,1.008A1.893,1.893,0,0,1-6.316-.461a3.326,3.326,0,0,1-2.058.6A3.725,3.725,0,0,1-9.946-.178a2.557,2.557,0,0,1-1.07-.878,2.117,2.117,0,0,1-.386-1.22h1.265a1.309,1.309,0,0,0,.509,1.008A1.976,1.976,0,0,0-8.374-.9a2.039,2.039,0,0,0,1.152-.291A.893.893,0,0,0-6.788-1.962ZM4.156,0a2.657,2.657,0,0,1-.178-.779A2.822,2.822,0,0,1,1.873.137,2.611,2.611,0,0,1,.079-.482a2,2,0,0,1-.7-1.569A2.091,2.091,0,0,1,.256-3.845a4.142,4.142,0,0,1,2.471-.639h1.23v-.581a1.42,1.42,0,0,0-.4-1.056,1.593,1.593,0,0,0-1.169-.393,1.844,1.844,0,0,0-1.135.342A1.007,1.007,0,0,0,.8-5.346H-.472a1.745,1.745,0,0,1,.393-1.07A2.683,2.683,0,0,1,.988-7.232a3.588,3.588,0,0,1,1.48-.3,2.924,2.924,0,0,1,2,.639,2.306,2.306,0,0,1,.752,1.76v3.4a4.162,4.162,0,0,0,.26,1.62V0Zm-2.1-.964a2.223,2.223,0,0,0,1.128-.308,1.861,1.861,0,0,0,.772-.8V-3.589H2.967q-2.324,0-2.324,1.36a1.151,1.151,0,0,0,.4.93A1.524,1.524,0,0,0,2.058-.964Zm9.714.232A2.686,2.686,0,0,1,9.6.137,2.3,2.3,0,0,1,7.8-.55a2.974,2.974,0,0,1-.625-2.034V-7.4H8.442v4.778q0,1.682,1.367,1.682a1.893,1.893,0,0,0,1.928-1.08V-7.4H13V0H11.8ZM17.4-4.7l1.641-2.7h1.477L18.1-3.739,20.6,0H19.134L17.425-2.769,15.716,0h-1.47l2.5-3.739L14.321-7.4h1.463ZM23.235,0H21.971V-7.4h1.265ZM21.868-9.358a.755.755,0,0,1,.188-.52.706.706,0,0,1,.557-.212.717.717,0,0,1,.561.212.747.747,0,0,1,.191.52.722.722,0,0,1-.191.513.73.73,0,0,1-.561.205.718.718,0,0,1-.557-.205A.73.73,0,0,1,21.868-9.358ZM26.633,0H25.368V-10.5h1.265Zm3.4,0H28.766V-7.4H30.03ZM28.663-9.358a.755.755,0,0,1,.188-.52.706.706,0,0,1,.557-.212.717.717,0,0,1,.561.212.747.747,0,0,1,.191.52.722.722,0,0,1-.191.513.73.73,0,0,1-.561.205.718.718,0,0,1-.557-.205A.73.73,0,0,1,28.663-9.358ZM36.62,0a2.657,2.657,0,0,1-.178-.779,2.822,2.822,0,0,1-2.105.916,2.611,2.611,0,0,1-1.794-.619,2,2,0,0,1-.7-1.569,2.091,2.091,0,0,1,.878-1.794,4.142,4.142,0,0,1,2.471-.639h1.23v-.581a1.42,1.42,0,0,0-.4-1.056,1.593,1.593,0,0,0-1.169-.393,1.844,1.844,0,0,0-1.135.342,1.007,1.007,0,0,0-.458.827H31.992a1.745,1.745,0,0,1,.393-1.07,2.683,2.683,0,0,1,1.066-.817,3.588,3.588,0,0,1,1.48-.3,2.924,2.924,0,0,1,2,.639,2.306,2.306,0,0,1,.752,1.76v3.4a4.162,4.162,0,0,0,.26,1.62V0Zm-2.1-.964a2.223,2.223,0,0,0,1.128-.308,1.861,1.861,0,0,0,.772-.8V-3.589h-.991q-2.324,0-2.324,1.36a1.151,1.151,0,0,0,.4.93A1.524,1.524,0,0,0,34.521-.964Zm8.723-5.3a3.79,3.79,0,0,0-.622-.048,1.667,1.667,0,0,0-1.688,1.06V0H39.669V-7.4H40.9l.021.854a1.969,1.969,0,0,1,1.764-.991,1.292,1.292,0,0,1,.561.1Zm4.231,6.4a3.232,3.232,0,0,1-2.447-.988,3.666,3.666,0,0,1-.943-2.642v-.232a4.438,4.438,0,0,1,.42-1.965,3.28,3.28,0,0,1,1.176-1.354,2.956,2.956,0,0,1,1.637-.489,2.77,2.77,0,0,1,2.242.95,4.114,4.114,0,0,1,.8,2.721v.526H45.35a2.629,2.629,0,0,0,.639,1.767A2.009,2.009,0,0,0,47.544-.9a2.2,2.2,0,0,0,1.135-.273,2.851,2.851,0,0,0,.813-.725l.772.6A3.106,3.106,0,0,1,47.476.137Zm-.157-6.631a1.687,1.687,0,0,0-1.285.557,2.708,2.708,0,0,0-.643,1.562H49.1v-.1a2.409,2.409,0,0,0-.52-1.494A1.588,1.588,0,0,0,47.318-6.494ZM56.13-1.962a.931.931,0,0,0-.386-.8A3.718,3.718,0,0,0,54.4-3.247a6.367,6.367,0,0,1-1.524-.492,2.169,2.169,0,0,1-.834-.684,1.635,1.635,0,0,1-.27-.943A1.919,1.919,0,0,1,52.538-6.9,3,3,0,0,1,54.5-7.533a3.091,3.091,0,0,1,2.041.649,2.063,2.063,0,0,1,.783,1.661H56.055a1.142,1.142,0,0,0-.441-.9A1.652,1.652,0,0,0,54.5-6.494a1.729,1.729,0,0,0-1.08.3.947.947,0,0,0-.39.786.767.767,0,0,0,.362.69,4.458,4.458,0,0,0,1.309.444,6.821,6.821,0,0,1,1.535.506,2.239,2.239,0,0,1,.872.708,1.74,1.74,0,0,1,.284,1.008A1.893,1.893,0,0,1,56.6-.461a3.326,3.326,0,0,1-2.058.6,3.725,3.725,0,0,1-1.572-.314,2.557,2.557,0,0,1-1.07-.878,2.117,2.117,0,0,1-.386-1.22H52.78a1.309,1.309,0,0,0,.509,1.008A1.976,1.976,0,0,0,54.544-.9,2.039,2.039,0,0,0,55.7-1.186.893.893,0,0,0,56.13-1.962ZM-30.54,10.24A4.333,4.333,0,0,1-29.733,7.5a2.551,2.551,0,0,1,2.112-1.036,2.565,2.565,0,0,1,2.058.889V3.5H-24.3V14H-25.46l-.062-.793a2.575,2.575,0,0,1-2.112.93,2.526,2.526,0,0,1-2.1-1.053,4.382,4.382,0,0,1-.81-2.748Zm1.265.144a3.281,3.281,0,0,0,.52,1.969,1.68,1.68,0,0,0,1.436.711,1.845,1.845,0,0,0,1.757-1.08v-3.4A1.859,1.859,0,0,0-27.306,7.54a1.687,1.687,0,0,0-1.449.718A3.612,3.612,0,0,0-29.275,10.384Zm10.008,3.753a3.232,3.232,0,0,1-2.447-.988,3.666,3.666,0,0,1-.943-2.642v-.232a4.438,4.438,0,0,1,.42-1.965,3.28,3.28,0,0,1,1.176-1.354,2.956,2.956,0,0,1,1.637-.489,2.77,2.77,0,0,1,2.242.95,4.114,4.114,0,0,1,.8,2.721v.526h-5.011a2.629,2.629,0,0,0,.639,1.767A2.009,2.009,0,0,0-19.2,13.1a2.2,2.2,0,0,0,1.135-.273,2.851,2.851,0,0,0,.813-.725l.772.6A3.106,3.106,0,0,1-19.267,14.137Zm-.157-6.631a1.687,1.687,0,0,0-1.285.557,2.708,2.708,0,0,0-.643,1.562h3.705v-.1a2.409,2.409,0,0,0-.52-1.494A1.588,1.588,0,0,0-19.424,7.506ZM-13.545,14H-14.81V3.5h1.265Zm6.59,0a2.657,2.657,0,0,1-.178-.779,2.822,2.822,0,0,1-2.105.916,2.611,2.611,0,0,1-1.794-.619,2,2,0,0,1-.7-1.569,2.091,2.091,0,0,1,.878-1.794,4.142,4.142,0,0,1,2.471-.639h1.23V8.935a1.42,1.42,0,0,0-.4-1.056,1.593,1.593,0,0,0-1.169-.393,1.844,1.844,0,0,0-1.135.342,1.007,1.007,0,0,0-.458.827h-1.271a1.745,1.745,0,0,1,.393-1.07,2.683,2.683,0,0,1,1.066-.817,3.588,3.588,0,0,1,1.48-.3,2.924,2.924,0,0,1,2,.639,2.306,2.306,0,0,1,.752,1.76v3.4a4.162,4.162,0,0,0,.26,1.62V14Zm-2.1-.964a2.223,2.223,0,0,0,1.128-.308,1.861,1.861,0,0,0,.772-.8V10.411h-.991q-2.324,0-2.324,1.36a1.151,1.151,0,0,0,.4.93A1.524,1.524,0,0,0-9.054,13.036ZM-2.71,6.6l.041.93A2.7,2.7,0,0,1-.455,6.467q2.345,0,2.365,2.646V14H.646V9.105A1.7,1.7,0,0,0,.28,7.923,1.466,1.466,0,0,0-.837,7.54a1.825,1.825,0,0,0-1.08.328,2.228,2.228,0,0,0-.725.861V14H-3.907V6.6ZM5.534,4.813V6.6H6.915v.978H5.534v4.587a1.024,1.024,0,0,0,.185.667.777.777,0,0,0,.629.222,3.062,3.062,0,0,0,.6-.082V14a3.666,3.666,0,0,1-.971.137A1.575,1.575,0,0,1,4.7,13.624a2.2,2.2,0,0,1-.431-1.456V7.581H2.922V6.6H4.269V4.813Zm5.927,9.324a3.232,3.232,0,0,1-2.447-.988,3.666,3.666,0,0,1-.943-2.642v-.232a4.438,4.438,0,0,1,.42-1.965A3.28,3.28,0,0,1,9.666,6.956,2.956,2.956,0,0,1,11.3,6.467a2.77,2.77,0,0,1,2.242.95,4.114,4.114,0,0,1,.8,2.721v.526H9.334a2.629,2.629,0,0,0,.639,1.767,2.009,2.009,0,0,0,1.555.673,2.2,2.2,0,0,0,1.135-.273,2.851,2.851,0,0,0,.813-.725l.772.6A3.106,3.106,0,0,1,11.46,14.137ZM11.3,7.506a1.687,1.687,0,0,0-1.285.557,2.708,2.708,0,0,0-.643,1.562h3.705v-.1a2.409,2.409,0,0,0-.52-1.494A1.588,1.588,0,0,0,11.3,7.506Zm8.08.232a3.79,3.79,0,0,0-.622-.048,1.667,1.667,0,0,0-1.688,1.06V14H15.808V6.6h1.23l.021.854a1.969,1.969,0,0,1,1.764-.991,1.292,1.292,0,0,1,.561.1Zm.69,2.5A4.369,4.369,0,0,1,20.5,8.278a3.187,3.187,0,0,1,1.189-1.34,3.238,3.238,0,0,1,1.74-.472,3.119,3.119,0,0,1,2.444,1.046,4.024,4.024,0,0,1,.933,2.782v.089a4.407,4.407,0,0,1-.414,1.938,3.14,3.14,0,0,1-1.183,1.336,3.275,3.275,0,0,1-1.767.479,3.111,3.111,0,0,1-2.437-1.046,4,4,0,0,1-.933-2.769Zm1.271.15a3.164,3.164,0,0,0,.571,1.976,1.934,1.934,0,0,0,3.059-.01,3.46,3.46,0,0,0,.567-2.116,3.159,3.159,0,0,0-.578-1.972,1.836,1.836,0,0,0-1.535-.755,1.816,1.816,0,0,0-1.511.745A3.435,3.435,0,0,0,21.345,10.384ZM32.7,12.038a.931.931,0,0,0-.386-.8,3.718,3.718,0,0,0-1.347-.489,6.367,6.367,0,0,1-1.524-.492,2.169,2.169,0,0,1-.834-.684,1.635,1.635,0,0,1-.27-.943A1.919,1.919,0,0,1,29.107,7.1a3,3,0,0,1,1.965-.629,3.091,3.091,0,0,1,2.041.649A2.063,2.063,0,0,1,33.9,8.777H32.625a1.142,1.142,0,0,0-.441-.9,1.652,1.652,0,0,0-1.111-.376,1.729,1.729,0,0,0-1.08.3.947.947,0,0,0-.39.786.767.767,0,0,0,.362.69,4.458,4.458,0,0,0,1.309.444,6.821,6.821,0,0,1,1.535.506,2.239,2.239,0,0,1,.872.708,1.74,1.74,0,0,1,.284,1.008,1.893,1.893,0,0,1-.793,1.589,3.326,3.326,0,0,1-2.058.6,3.725,3.725,0,0,1-1.572-.314,2.557,2.557,0,0,1-1.07-.878,2.117,2.117,0,0,1-.386-1.22H29.35a1.309,1.309,0,0,0,.509,1.008,1.976,1.976,0,0,0,1.254.373,2.039,2.039,0,0,0,1.152-.291A.893.893,0,0,0,32.7,12.038Z" transform="translate(2002.155 1028.873)" fill="#161615"/><circle cx="2.594" cy="2.594" r="2.594" transform="translate(2100.175 991.868)" fill="#ad2564"/><circle cx="2.594" cy="2.594" r="2.594" transform="translate(2139.753 987.056)" fill="#ad2564"/><circle cx="2.594" cy="2.594" r="2.594" transform="translate(2160.982 1034.783)" fill="#ad2564"/><circle cx="2.594" cy="2.594" r="2.594" transform="translate(2142.368 1124.902)" fill="#ad2564"/><circle cx="2.594" cy="2.594" r="2.594" transform="translate(2148.002 1283.983)" fill="#ad2564"/><circle cx="2.594" cy="2.594" r="2.594" transform="translate(2110.704 1019.573)" fill="#ad2564"/><circle cx="2.594" cy="2.594" r="2.594" transform="translate(2098.326 1043.013)" fill="#ad2564"/><circle cx="2.594" cy="2.594" r="2.594" transform="translate(2141.143 1067.336)" fill="#ad2564"/><path d="M2153.062,1286.1a2.594,2.594,0,1,0-5.187,0,2.568,2.568,0,0,0,.2,1.009,2.594,2.594,0,0,0,4.983-1.009Z" transform="translate(-18)" fill="#ad2564"/><line x1="24.099" y1="17.406" transform="translate(2078.669 977.055)" fill="none" stroke="#ad2564" stroke-miterlimit="10" stroke-width="2"/><line x1="50.502" y2="10.207" transform="translate(2062.795 1022.166)" fill="none" stroke="#ad2564" stroke-miterlimit="10" stroke-width="2"/><line x1="91.807" y2="66.561" transform="translate(2051.929 1069.93)" fill="none" stroke="#ad2564" stroke-miterlimit="10" stroke-width="2"/><line x1="65.836" y1="3.94" transform="translate(2066.008 1282.157)" fill="none" stroke="#ad2564" stroke-miterlimit="10" stroke-width="2"/><line x1="80.466" y2="35.668" transform="translate(2019.709 1045.607)" fill="none" stroke="#ad2564" stroke-miterlimit="10" stroke-width="2"/><line x2="57.865" y2="0.139" transform="translate(2163.576 1037.377)" fill="none" stroke="#ad2564" stroke-miterlimit="10" stroke-width="2"/><line y1="25.78" x2="72.51" transform="translate(2144.962 1101.716)" fill="none" stroke="#ad2564" stroke-miterlimit="10" stroke-width="2"/><line y1="22.572" x2="54.458" transform="translate(2142.346 967.078)" fill="none" stroke="#ad2564" stroke-miterlimit="10" stroke-width="2"/><line y1="13.49" x2="39.591" transform="translate(2150.596 1273.087)" fill="none" stroke="#ad2564" stroke-miterlimit="10" stroke-width="2"/></g></g></svg>