<svg xmlns="http://www.w3.org/2000/svg" width="1030" height="269" viewBox="0 0 1030 269"><g transform="translate(-285 -5290)"><rect width="1030" height="269" transform="translate(285 5290)" fill="#f6e7da"/><rect width="953" height="231" transform="matrix(1, -0.017, 0.017, 1, 315.057, 5317.334)" fill="#fff"/><g transform="translate(1.542 12)"><g transform="translate(1465.088 3243.013)"><path d="M-449.992,2214.818s-37.338.558-43.469,38.454l-495.439-12.26s-12.395-159.885,18.392-155.487c3.9.557,322.675,57.4,338.28,54.057s32.88-16.718,32.88-16.718l46.813,11.7s-1.672,27.775,32.88,34.787,50.715,0,50.715,0Z" transform="translate(0 2.676)" fill="#e8e8e8"/><line y2="105.329" transform="translate(-673.468 2142.144)" fill="none"/><path d="M-982.193,2232.619s-8.359-107,13.375-139.186" transform="translate(3.603 7.471)" fill="#e8e8e8"/><path d="M-499.223,2194.615l-18.669,8.918c-.5.236-4.459-1.585-5.14-1.806-29.772-9.649-63.642-16.834-93.538-3.531a28.724,28.724,0,0,0-8.748,5.739,16.593,16.593,0,0,0-5.115,10.937c-.2,6.446,4.811,15.658,11.945,16.138a8.352,8.352,0,0,0,6.519-2.541c1.109-1.165,4.59-10.8,1.564-11.283,6.632,1.049,16.466,4.173,19.1,11.115,1.612,4.25-.211,9.07-2.859,12.763a31.2,31.2,0,0,1-26.982,12.494c-9.413-.622-22.046-5.344-26.873-14.079-5.852-10.59-17.834-56.846,37.616-65.762S-499.223,2194.615-499.223,2194.615Z" transform="translate(160.413 40.777)" fill="#e8e8e8"/><path d="M-880.585,2102.37l146.868,113.747V2126.24ZM-753.9,2179.2l-66.737-53.918,66.737,12.957Z" transform="translate(52.567 11.712)" fill="#e8e8e8"/><path d="M-623.755,2138.522c-17.834-4.459-10.867,14.769-12.539,21.456s-16.162,27.725-54.895,3.971-103.379-84.221-103.379-84.221-8.917-1.115-10.589-1.951-3.645,4.478,0,8.638c0,0,87.5,101.708,131.244,110.067s61.86-9.752,63.533-27.029C-610.38,2169.452-605.922,2142.981-623.755,2138.522Zm2.39,17.811a3.483,3.483,0,0,1-3.483-3.482,3.483,3.483,0,0,1,3.483-3.483,3.482,3.482,0,0,1,3.483,3.483A3.482,3.482,0,0,1-621.365,2156.333Z" transform="translate(80.383 -1)" fill="#e8e8e8"/><line x2="163.428" y2="6.27" transform="translate(-896.248 2225.042)" fill="none"/><line x2="134.132" y2="3.135" transform="translate(-658.801 2234.085)" fill="none"/></g><g transform="translate(-487.488 5346.183)"><path d="M880.781,83.96l-3.293,81.955L954.164,169l.064-1.589Zm11.112,28.3L929.7,156.074,890.2,154.487Z" transform="translate(0 -3.997)" fill="#e8e8e8"/><path d="M881.005,78.374l-3.293,81.955,76.676,3.081Zm11.133,27.774,37.809,43.811L890.42,148.9Z" transform="translate(-0.16)" fill="#e8e8e8"/><rect width="2.677" height="0.795" transform="translate(883.869 160.583) rotate(-87.7)" fill="#e8e8e8"/><rect width="2.677" height="0.795" transform="translate(891.418 160.886) rotate(-87.7)" fill="#e8e8e8"/><rect width="2.677" height="0.795" transform="matrix(0.04, -0.999, 0.999, 0.04, 898.967, 161.189)" fill="#e8e8e8"/><rect width="2.677" height="0.795" transform="matrix(0.04, -0.999, 0.999, 0.04, 906.516, 161.493)" fill="#e8e8e8"/><rect width="2.677" height="0.795" transform="translate(914.065 161.796) rotate(-87.7)" fill="#e8e8e8"/><rect width="2.677" height="0.795" transform="translate(921.614 162.099) rotate(-87.7)" fill="#e8e8e8"/><rect width="2.677" height="0.795" transform="matrix(0.04, -0.999, 0.999, 0.04, 929.162, 162.403)" fill="#e8e8e8"/><rect width="2.677" height="0.795" transform="translate(936.711 162.706) rotate(-87.7)" fill="#e8e8e8"/><rect width="2.677" height="0.795" transform="translate(944.26 163.009) rotate(-87.7)" fill="#e8e8e8"/></g><g transform="translate(758.506 4877.732)"><path d="M386.943,495.239s-.3-4.584,2.958-10.729c0,0-1.042-36.682-7.885-45.221,0,0-2.5-4.408-1.4,5.092l3.735,58.146Z" transform="translate(-82.669)" fill="#e8e8e8"/><g transform="translate(281.256 491.996)"><path d="M340.529,667.734c-.024-1.71.342-4.376-.574-5.871-1.458-2.381-4.257-2.188-6.083-.235-1.068,1.143-1.52,2.629-2.551,3.829a16.171,16.171,0,0,1-3.3,2.778c-1.794,1.209-3.606,2.387-5.392,3.62a11.38,11.38,0,1,0,16.442,10.192c0-.117,0-.234-.006-.35A90.738,90.738,0,0,0,340.529,667.734Zm-12.835,22.173a7.86,7.86,0,1,1,7.86-7.86A7.869,7.869,0,0,1,327.694,689.906Z" transform="translate(-315.687 -659.156)" fill="#e8e8e8"/><path d="M337.988,663.827c-.024-1.71.342-4.376-.574-5.871-1.458-2.381-4.257-2.188-6.083-.235-1.068,1.143-1.52,2.629-2.552,3.829a16.168,16.168,0,0,1-3.3,2.778c-1.794,1.209-3.606,2.387-5.392,3.62a11.38,11.38,0,1,0,16.442,10.192c0-.117,0-.234-.006-.35A90.734,90.734,0,0,0,337.988,663.827ZM325.153,686a7.86,7.86,0,1,1,7.86-7.86A7.869,7.869,0,0,1,325.153,686Z" transform="translate(-313.772 -656.212)" fill="#e8e8e8"/></g><g transform="translate(270.617 452.189)"><path d="M466.442,625.856a11.392,11.392,0,0,0-11.929-1.111c-2.065.682-4.1,1.418-6.153,2.121a16.164,16.164,0,0,1-4.2.953c-1.58.1-3.037-.438-4.593-.275-2.659.278-4.5,2.394-3.482,4.993.64,1.633,2.987,2.949,4.337,4a90.722,90.722,0,0,0,12.03,7.265c.087.07.173.142.263.21a11.381,11.381,0,0,0,13.731-18.155Zm-.6,13.818a7.86,7.86,0,1,1-1.527-11.01A7.869,7.869,0,0,1,465.846,639.674Z" transform="translate(-395.076 -591.801)" fill="#e8e8e8"/><path d="M312.54,534.013s-3.474-3.006-10.341-4.113c0,0-28.628-22.958-31.311-33.567,0,0-2.006-4.655,4.908,1.952l44.123,38.053Z" transform="translate(-270.617 -494.74)" fill="#e8e8e8"/><path d="M490.621,639.378a11.381,11.381,0,1,1,15.943-2.212A11.394,11.394,0,0,1,490.621,639.378Zm2.124-2.809a7.86,7.86,0,1,0-1.527-11.01A7.869,7.869,0,0,0,492.745,636.57Z" transform="translate(-432.985 -588.31)" fill="#e8e8e8"/><path d="M456.074,621.706c-2.605.812-5.148,1.743-7.713,2.623a16.162,16.162,0,0,1-4.2.953c-1.58.1-3.037-.438-4.593-.275-2.659.278-4.5,2.394-3.482,4.994.64,1.633,2.987,2.949,4.337,4,2.751,2.142,13.958,9.093,17.567,9.256.315-1.557-7.156-6.686-7.511-8.223a12.181,12.181,0,0,1,.161-5.139c.577-2.695,2.034-7.281,5.246-7.623Z" transform="translate(-395.076 -590.406)" fill="#e8e8e8"/></g><circle cx="2.225" cy="2.225" r="2.225" transform="translate(301.442 481.938)" fill="#e8e8e8"/><circle cx="2.225" cy="2.225" r="2.225" transform="translate(301.316 481.595)" fill="#e8e8e8"/><rect width="0.377" height="45.704" transform="translate(270.995 452.764) rotate(-49.297)" fill="#e8e8e8"/></g><g transform="translate(2390.184 5203.174) rotate(120)"><g transform="translate(732.662 943.317)"><path d="M832.922,997.77l1.085-10.726-92.371-43.727-2.864.767-6.11,18.588,99.5,37.127.759-2.03Z" transform="translate(-732.662 -943.317)" fill="#e8e8e8"/><path d="M740.33,961.151l97.953,36.619,5.74-17.463L747,943.317Z" transform="translate(-738.023 -943.317)" fill="#e8e8e8"/><rect width="3.649" height="1.084" transform="matrix(0.35, -0.937, 0.937, 0.35, 10.377, 20.851)" fill="#e8e8e8"/><rect width="3.649" height="1.084" transform="matrix(0.35, -0.937, 0.937, 0.35, 20.021, 24.456)" fill="#e8e8e8"/><rect width="3.649" height="1.084" transform="translate(29.664 28.061) rotate(-69.504)" fill="#e8e8e8"/><rect width="3.649" height="1.084" transform="matrix(0.35, -0.937, 0.937, 0.35, 39.308, 31.667)" fill="#e8e8e8"/><rect width="3.649" height="1.084" transform="translate(48.952 35.272) rotate(-69.502)" fill="#e8e8e8"/><rect width="3.649" height="1.084" transform="matrix(0.35, -0.937, 0.937, 0.35, 58.596, 38.877)" fill="#e8e8e8"/><rect width="3.649" height="1.084" transform="translate(68.239 42.482) rotate(-69.502)" fill="#e8e8e8"/><rect width="3.649" height="1.084" transform="translate(77.883 46.087) rotate(-69.504)" fill="#e8e8e8"/><rect width="3.648" height="1.084" transform="translate(87.527 49.692) rotate(-69.502)" fill="#e8e8e8"/></g><circle cx="2.629" cy="2.629" r="2.629" transform="translate(742.035 951.897)" fill="#e8e8e8"/></g><g transform="translate(1530.693 3263.324)"><line y1="3.515" x2="0.387" transform="translate(-866.693 2104.676)" fill="none"/><line y1="3.515" x2="0.387" transform="translate(-855.128 2106.353)" fill="none"/><line y1="3.515" x2="0.387" transform="translate(-844.592 2108.294)" fill="none"/><line y1="3.515" x2="0.387" transform="translate(-833.473 2110.052)" fill="none"/><line y1="3.515" x2="0.387" transform="translate(-821.2 2112.209)" fill="none"/></g><g transform="translate(1629.41 3296.534)"><line x1="1.54" y1="2.488" transform="translate(-626.23 2173.466)" fill="none"/><line x1="1.54" y1="2.488" transform="translate(-636.068 2177.043)" fill="none"/><line x1="1.699" y1="2.382" transform="translate(-644.1 2182.319)" fill="none"/><line x1="1.986" y1="2.148" transform="translate(-650.077 2189.171)" fill="none"/></g></g><g transform="translate(2 -7)"><g transform="translate(1465.088 3249.013)"><path d="M-449.992,2214.818s-37.338.558-43.469,38.454l-495.439-12.26s-12.395-159.885,18.392-155.487c3.9.557,322.675,57.4,338.28,54.057s32.88-16.718,32.88-16.718l46.813,11.7s-1.672,27.775,32.88,34.787,50.715,0,50.715,0Z" transform="translate(0 3.676)" fill="#d6ebfb" stroke="#161615" stroke-miterlimit="10" stroke-width="1"/><line y2="105.329" transform="translate(-673.468 2142.144)" fill="none" stroke="#161615" stroke-miterlimit="10" stroke-width="1" stroke-dasharray="2"/><path d="M-982.193,2232.619s-8.359-107,13.375-139.186" transform="translate(3.603 7.471)" fill="none" stroke="#161615" stroke-miterlimit="10" stroke-width="1" stroke-dasharray="2"/><path d="M-499.223,2194.615l-18.669,8.918c-.5.236-4.459-1.585-5.14-1.806-29.772-9.649-63.642-16.834-93.538-3.531a28.724,28.724,0,0,0-8.748,5.739,16.593,16.593,0,0,0-5.115,10.937c-.2,6.446,4.811,15.658,11.945,16.138a8.352,8.352,0,0,0,6.519-2.541c1.109-1.165,4.59-10.8,1.564-11.283,6.632,1.049,16.466,4.173,19.1,11.115,1.612,4.25-.211,9.07-2.859,12.763a31.2,31.2,0,0,1-26.982,12.494c-9.413-.622-22.046-5.344-26.873-14.079-5.852-10.59-17.834-56.846,37.616-65.762S-499.223,2194.615-499.223,2194.615Z" transform="translate(160.413 44.777)" fill="#f5cc40"/><path d="M-880.585,2102.37l146.868,113.747V2126.24ZM-753.9,2179.2l-66.737-53.918,66.737,12.957Z" transform="translate(52.567 11.712)" fill="#f5cc40"/><path d="M-623.755,2138.522c-17.834-4.459-10.867,14.769-12.539,21.456s-16.162,27.725-54.895,3.971-103.379-84.221-103.379-84.221-8.917-1.115-10.589-1.951-3.645,4.478,0,8.638c0,0,87.5,101.708,131.244,110.067s61.86-9.752,63.533-27.029C-610.38,2169.452-605.922,2142.981-623.755,2138.522Zm2.39,17.811a3.483,3.483,0,0,1-3.483-3.482,3.483,3.483,0,0,1,3.483-3.483,3.482,3.482,0,0,1,3.483,3.483A3.482,3.482,0,0,1-621.365,2156.333Z" transform="translate(80.383 -1)" fill="#f5cc40"/><line x2="163.428" y2="6.27" transform="translate(-896.248 2225.042)" fill="none" stroke="#161615" stroke-miterlimit="10" stroke-width="1"/><line x2="134.132" y2="3.135" transform="translate(-658.801 2234.085)" fill="none" stroke="#161615" stroke-miterlimit="10" stroke-width="1"/></g><g transform="translate(-487.488 5358.183)"><path d="M880.781,83.96l-3.293,81.955L954.164,169l.064-1.589Zm11.112,28.3L929.7,156.074,890.2,154.487Z" transform="translate(0 -3.997)" fill="#f68f1e"/><path d="M881.005,78.374l-3.293,81.955,76.676,3.081Zm11.133,27.774,37.809,43.811L890.42,148.9Z" transform="translate(-0.16)" fill="#ffc80d"/><rect width="2.677" height="0.795" transform="translate(883.869 160.583) rotate(-87.7)" fill="#2d2d2d"/><rect width="2.677" height="0.795" transform="translate(891.418 160.886) rotate(-87.7)" fill="#2d2d2d"/><rect width="2.677" height="0.795" transform="matrix(0.04, -0.999, 0.999, 0.04, 898.967, 161.189)" fill="#2d2d2d"/><rect width="2.677" height="0.795" transform="matrix(0.04, -0.999, 0.999, 0.04, 906.516, 161.493)" fill="#2d2d2d"/><rect width="2.677" height="0.795" transform="translate(914.065 161.796) rotate(-87.7)" fill="#2d2d2d"/><rect width="2.677" height="0.795" transform="translate(921.614 162.099) rotate(-87.7)" fill="#2d2d2d"/><rect width="2.677" height="0.795" transform="matrix(0.04, -0.999, 0.999, 0.04, 929.162, 162.403)" fill="#2d2d2d"/><rect width="2.677" height="0.795" transform="translate(936.711 162.706) rotate(-87.7)" fill="#2d2d2d"/><rect width="2.677" height="0.795" transform="translate(944.26 163.009) rotate(-87.7)" fill="#2d2d2d"/></g><g transform="translate(758.506 4877.732)"><path d="M386.943,495.239s-.3-4.584,2.958-10.729c0,0-1.042-36.682-7.885-45.221,0,0-2.5-4.408-1.4,5.092l3.735,58.146Z" transform="translate(-82.669)" fill="#959595"/><g transform="translate(281.256 491.996)"><path d="M340.529,667.734c-.024-1.71.342-4.376-.574-5.871-1.458-2.381-4.257-2.188-6.083-.235-1.068,1.143-1.52,2.629-2.551,3.829a16.171,16.171,0,0,1-3.3,2.778c-1.794,1.209-3.606,2.387-5.392,3.62a11.38,11.38,0,1,0,16.442,10.192c0-.117,0-.234-.006-.35A90.738,90.738,0,0,0,340.529,667.734Zm-12.835,22.173a7.86,7.86,0,1,1,7.86-7.86A7.869,7.869,0,0,1,327.694,689.906Z" transform="translate(-315.687 -659.156)" fill="#db3640"/><path d="M337.988,663.827c-.024-1.71.342-4.376-.574-5.871-1.458-2.381-4.257-2.188-6.083-.235-1.068,1.143-1.52,2.629-2.552,3.829a16.168,16.168,0,0,1-3.3,2.778c-1.794,1.209-3.606,2.387-5.392,3.62a11.38,11.38,0,1,0,16.442,10.192c0-.117,0-.234-.006-.35A90.734,90.734,0,0,0,337.988,663.827ZM325.153,686a7.86,7.86,0,1,1,7.86-7.86A7.869,7.869,0,0,1,325.153,686Z" transform="translate(-313.772 -656.212)" fill="#f05f61"/></g><g transform="translate(270.617 452.189)"><path d="M466.442,625.856a11.392,11.392,0,0,0-11.929-1.111c-2.065.682-4.1,1.418-6.153,2.121a16.164,16.164,0,0,1-4.2.953c-1.58.1-3.037-.438-4.593-.275-2.659.278-4.5,2.394-3.482,4.993.64,1.633,2.987,2.949,4.337,4a90.722,90.722,0,0,0,12.03,7.265c.087.07.173.142.263.21a11.381,11.381,0,0,0,13.731-18.155Zm-.6,13.818a7.86,7.86,0,1,1-1.527-11.01A7.869,7.869,0,0,1,465.846,639.674Z" transform="translate(-395.076 -591.801)" fill="#db3640"/><path d="M312.54,534.013s-3.474-3.006-10.341-4.113c0,0-28.628-22.958-31.311-33.567,0,0-2.006-4.655,4.908,1.952l44.123,38.053Z" transform="translate(-270.617 -494.74)" fill="#b9b9ba"/><path d="M490.621,639.378a11.381,11.381,0,1,1,15.943-2.212A11.394,11.394,0,0,1,490.621,639.378Zm2.124-2.809a7.86,7.86,0,1,0-1.527-11.01A7.869,7.869,0,0,0,492.745,636.57Z" transform="translate(-432.985 -588.31)" fill="#f05f61"/><path d="M456.074,621.706c-2.605.812-5.148,1.743-7.713,2.623a16.162,16.162,0,0,1-4.2.953c-1.58.1-3.037-.438-4.593-.275-2.659.278-4.5,2.394-3.482,4.994.64,1.633,2.987,2.949,4.337,4,2.751,2.142,13.958,9.093,17.567,9.256.315-1.557-7.156-6.686-7.511-8.223a12.181,12.181,0,0,1,.161-5.139c.577-2.695,2.034-7.281,5.246-7.623Z" transform="translate(-395.076 -590.406)" fill="#f05f61"/></g><circle cx="2.225" cy="2.225" r="2.225" transform="translate(301.442 481.938)" fill="#db3640"/><circle cx="2.225" cy="2.225" r="2.225" transform="translate(301.316 481.595)" fill="#f05f61"/><rect width="0.377" height="45.704" transform="translate(270.995 452.764) rotate(-49.297)" fill="silver"/></g><g transform="translate(2390.184 5215.174) rotate(120)"><g transform="translate(732.662 943.317)"><path d="M832.922,997.77l1.085-10.726-92.371-43.727-2.864.767-6.11,18.588,99.5,37.127.759-2.03Z" transform="translate(-732.662 -943.317)" fill="#cfb352"/><path d="M740.33,961.151l97.953,36.619,5.74-17.463L747,943.317Z" transform="translate(-738.023 -943.317)" fill="#f5cc40"/><rect width="3.649" height="1.084" transform="matrix(0.35, -0.937, 0.937, 0.35, 10.377, 20.851)" fill="#2d2d2d"/><rect width="3.649" height="1.084" transform="matrix(0.35, -0.937, 0.937, 0.35, 20.021, 24.456)" fill="#2d2d2d"/><rect width="3.649" height="1.084" transform="translate(29.664 28.061) rotate(-69.504)" fill="#2d2d2d"/><rect width="3.649" height="1.084" transform="matrix(0.35, -0.937, 0.937, 0.35, 39.308, 31.667)" fill="#2d2d2d"/><rect width="3.649" height="1.084" transform="translate(48.952 35.272) rotate(-69.502)" fill="#2d2d2d"/><rect width="3.649" height="1.084" transform="matrix(0.35, -0.937, 0.937, 0.35, 58.596, 38.877)" fill="#2d2d2d"/><rect width="3.649" height="1.084" transform="translate(68.239 42.482) rotate(-69.502)" fill="#2d2d2d"/><rect width="3.649" height="1.084" transform="translate(77.883 46.087) rotate(-69.504)" fill="#2d2d2d"/><rect width="3.648" height="1.084" transform="translate(87.527 49.692) rotate(-69.502)" fill="#2d2d2d"/></g><circle cx="2.629" cy="2.629" r="2.629" transform="translate(742.035 951.897)" fill="#fff"/></g><g transform="translate(1530.693 3263.324)"><line y1="3.515" x2="0.387" transform="translate(-866.693 2104.676)" fill="none" stroke="#161615" stroke-miterlimit="10" stroke-width="1"/><line y1="3.515" x2="0.387" transform="translate(-855.128 2106.353)" fill="none" stroke="#161615" stroke-miterlimit="10" stroke-width="1"/><line y1="3.515" x2="0.387" transform="translate(-844.592 2108.294)" fill="none" stroke="#161615" stroke-miterlimit="10" stroke-width="1"/><line y1="3.515" x2="0.387" transform="translate(-833.473 2110.052)" fill="none" stroke="#161615" stroke-miterlimit="10" stroke-width="1"/><line y1="3.515" x2="0.387" transform="translate(-821.2 2112.209)" fill="none" stroke="#161615" stroke-miterlimit="10" stroke-width="1"/></g><g transform="translate(1629.41 3296.534)"><line x1="1.54" y1="2.488" transform="translate(-626.23 2173.466)" fill="none" stroke="#161615" stroke-miterlimit="10" stroke-width="1"/><line x1="1.54" y1="2.488" transform="translate(-636.068 2177.043)" fill="none" stroke="#161615" stroke-miterlimit="10" stroke-width="1"/><line x1="1.699" y1="2.382" transform="translate(-644.1 2182.319)" fill="none" stroke="#161615" stroke-miterlimit="10" stroke-width="1"/><line x1="1.986" y1="2.148" transform="translate(-650.077 2189.171)" fill="none" stroke="#161615" stroke-miterlimit="10" stroke-width="1"/></g></g></g></svg>