<svg xmlns="http://www.w3.org/2000/svg" width="610" height="237" viewBox="0 0 610 237"><g transform="translate(-495 -27284)"><rect width="610" height="237" transform="translate(495 27284)" fill="#d6ebfb"/><g transform="translate(3728.285 32778.992)"><path d="M-3130.341-5482.489l-9.508,12.447s-30.426,10.2-34.056,15.04-7.492,35.727-8.644,78.83-4.38,27.2-6.224,67.767c0,0-1.152,27.66,0,28.121s13.83.691,16.366,0,8.528-54.859,8.067-59.238,6.224-39.185,6.454-43.565.922-5.532.922-5.532,1.153-3,2.305,5.763.231,43.795-3.227,59.008-5.532,38.954-5.532,38.954l.692,3.918s65.231,19.083,102.572,1.128l1.844-3.663-1.383-19.593s-7.607-37.11-8.068-45.638-2.074-38.263.922-39.185,3,.461,3,1.152,3.918,34.345,3.918,39.185,6.454,64.77,8.99,65.692,12.908,3.919,16.826-.691,0-40.568,0-40.568-5.532-36.649-4.61-43.1-2.074-76.756-9.22-85.976-36.073-18.775-36.073-18.775l-8.989-12Z" fill="#fff" stroke="#4c4c4c" stroke-miterlimit="10" stroke-width="1.22"/><path d="M-3129.909-5480.069s13.225,24.2,14.522,25.5-3.8,3.285-4.063,3.112-12.533,6.223-14.262,5.186-5.446-15.127-5.446-17.979v-4.408" fill="none" stroke="#4c4c4c" stroke-miterlimit="10" stroke-width="1.22"/><path d="M-3093.432-5480.933s-8.644,22.733-14.608,26.19c0,0-2.766-.346,6.742,4.322s12.187,5.445,14.608-.432,2.333-19.016,2.333-19.016" fill="none" stroke="#4c4c4c" stroke-miterlimit="10" stroke-width="1.22"/><line x2="26.046" transform="translate(-3123.887 -5472.29)" fill="none" stroke="#4c4c4c" stroke-miterlimit="10" stroke-width="1.22"/><path d="M-3115.177-5453.1h7.569v38.119h-8.3Z" fill="none" stroke="#4c4c4c" stroke-miterlimit="10" stroke-width="1.22"/><path d="M-3051.049-5452.006s-9.566,14.983-9.336,24.779.577,27.314-1.383,30.887" fill="none" stroke="#4c4c4c" stroke-miterlimit="10" stroke-width="1.22"/><path d="M-3171.831-5452.006s7.088,13.081,8.644,21.725-1.037,31.809,4.322,36.649" fill="none" stroke="#4c4c4c" stroke-miterlimit="10" stroke-width="1.22"/><path d="M-3159.991-5284.583s63.118,18.52,98.457,1.323" fill="none" stroke="#4c4c4c" stroke-miterlimit="10" stroke-width="1.22"/><path d="M-2951.361-5479.606s-7.653,11.622-7.37,12.472-39.543,16.158-40.252,18.425-19.134,55.418-19.134,55.418,17.292,12.047,32.457,10.063l2.551-2.693s2.126,31.464.85,46.488-2.48,45.071-2.48,45.071,11.126,3.968,13.536,15.874,60.236,10.2,63.354,8.787,13.89-5.386,17.575-14.456,8.5-9.5,8.5-9.5-3.4-52.3-2.977-55.275.851-40.536.851-40.536l3.259,7.654s31.252-4.465,32.741-11.764c0,0-14.032-40.677-14.457-44.362s-3.26-8.5-6.236-11.622-38.481-18.354-38.481-18.354-7.653-11.481-9.07-11.693S-2951.361-5479.606-2951.361-5479.606Z" fill="#fff" stroke="#4c4c4c" stroke-miterlimit="10" stroke-width="1.22"/><path d="M-2950.983-5477.528s.283,11.339,8.787,15.119l-1.606,16.346s-15.212-12.756-14.362-20.693" fill="none" stroke="#4c4c4c" stroke-miterlimit="10" stroke-width="1.22"/><path d="M-2915.455-5477.528s.189,12.756-10.016,15.733c0,0,2.173,14.5,3.59,15.26s13.607-14.363,13.7-19.276" fill="none" stroke="#4c4c4c" stroke-miterlimit="10" stroke-width="1.22"/><path d="M-2948.054-5469.213h29.953" fill="none" stroke="#4c4c4c" stroke-miterlimit="10" stroke-width="1.22"/><path d="M-2926.227-5461.276s-5.575,1.512-5.764,3.4-1.323,9.354-3.023,10.961-1.416,177.984-1.416,177.984" fill="none" stroke="#4c4c4c" stroke-miterlimit="10" stroke-width="1.22"/><path d="M-2925.093-5450.22s-1.89,8.409-2.079,12.377,0,168.914,0,168.914" fill="none" stroke="#4c4c4c" stroke-miterlimit="10" stroke-width="1.22"/><line x2="37.039" y2="14.74" transform="translate(-2907.14 -5460.803)" fill="none" stroke="#4c4c4c" stroke-miterlimit="10" stroke-width="1.22"/><path d="M-2867.739-5447.669s-6.425,28.346-8.882,31.748-7.842,14.551-7.653,16.346.37,10.774.37,10.774" fill="none" stroke="#4c4c4c" stroke-miterlimit="10" stroke-width="1.22"/><path d="M-2998.416-5447.575s8.787,30.52,9.921,33.544,5.292,11.622,5.764,14.456,0,13.229,0,13.229l-.18,3.6" fill="none" stroke="#4c4c4c" stroke-miterlimit="10" stroke-width="1.22"/><line x1="39.357" y2="17.201" transform="translate(-2997.556 -5461.795)" fill="none" stroke="#4c4c4c" stroke-miterlimit="10" stroke-width="1.22"/><path d="M-2942.2-5462.409s5.079,2.787,6.5,5.622,2.623,5.1,2.623,5.1" fill="none" stroke="#4c4c4c" stroke-miterlimit="10" stroke-width="1.22"/><path d="M-2943-5454.18s4.045,3.912,5.037,7.243a38.158,38.158,0,0,0,1.842,5.1" fill="none" stroke="#4c4c4c" stroke-miterlimit="10" stroke-width="1.22"/><path d="M-2917.534-5419.7h27.024v23.811l-13.89,7.089-13.7-7.278Z" fill="none" stroke="#4c4c4c" stroke-miterlimit="10" stroke-width="1.22"/><line x2="24.094" transform="translate(-2915.715 -5413.984)" fill="none" stroke="#4c4c4c" stroke-miterlimit="10" stroke-width="1.22"/><path d="M-2767.818-5483.575l-2.409,9.638-32.457,16.583s-26.079,33.732-25.653,37.275.425,32.882.85,35.575,1.276,23.528,2.976,27.071,6.095,8.362,8.221,10.205,19.417,14.74,19.417,14.74L-2799-5295.78s15.166,13.182,23.953,16.016,60.283.662,65.2,0,18.142-10.677,18.142-12.378v-22.677s3.212-10.961,3.023-12.094a18.912,18.912,0,0,1,.008-3.4l21.158-35.339-1.134-57.07s-17.764-30.993-25.89-36.662-32.244-13.559-32.244-13.559l-4.89-11.338Z" fill="#fff" stroke="#4c4c4c" stroke-miterlimit="10" stroke-width="1.22"/><path d="M-2765.975-5482.158l13.748,9.142-7.866,13.819-10.063-13.89" fill="none" stroke="#4c4c4c" stroke-miterlimit="10" stroke-width="1.22"/><path d="M-2732.03-5483.787l-14.1,9.637s5.741,14.1,6.237,14.953,12.826-13.464,12.826-13.464" fill="none" stroke="#4c4c4c" stroke-miterlimit="10" stroke-width="1.22"/><path d="M-2746.912-5473.441h-3.969c-.354,0-1.346,6.236-1.346,6.236v188.861" fill="none" stroke="#4c4c4c" stroke-miterlimit="10" stroke-width="1.22"/><path d="M-2796.022-5398.346c.189,1.039,0,24.661,0,24.661l-9.355-8.693Z" fill="#d6ebfb" stroke="#4c4c4c" stroke-miterlimit="10" stroke-width="1.22"/><path d="M-2695.818-5395.842l5.386,8.646-7.37,13.677Z" fill="#d6ebfb" stroke="#4c4c4c" stroke-miterlimit="10" stroke-width="1.22"/><line x2="32.882" y2="14.513" transform="translate(-2729.266 -5468.693)" fill="none" stroke="#4c4c4c" stroke-miterlimit="10" stroke-width="1.22"/><path d="M-2694.117-5458.346a44.754,44.754,0,0,0-7.086,25.228c.425,14.74,2.675,17.149,3.534,25.937s1.851,11.338,1.851,11.338" fill="none" stroke="#4c4c4c" stroke-miterlimit="10" stroke-width="1.22"/><line x1="18.331" y2="29.102" transform="translate(-2686.983 -5422.725)" fill="none" stroke="#4c4c4c" stroke-miterlimit="10" stroke-width="1.22"/><path d="M-2699.077-5370.378s-11.339,20.221-11.717,24.378l-.378,4.157-6.992,13.8,16.943,12.472,4.222.567,4.347-13.228,3.976-2.079" fill="none" stroke="#4c4c4c" stroke-miterlimit="10" stroke-width="1.22"/><path d="M-2710.511-5340.425l10.867,6.9s-3.307,4.914-4.347,6.331-2.834,2.173-6.047,2.835" fill="none" stroke="#4c4c4c" stroke-miterlimit="10" stroke-width="1.22"/><line x2="6.236" y2="2.929" transform="translate(-2699.644 -5331.449)" fill="none" stroke="#4c4c4c" stroke-miterlimit="10" stroke-width="1.22"/><path d="M-2699.644-5335.512c.944-.378,14.645-21.732,14.645-21.732" fill="none" stroke="#4c4c4c" stroke-miterlimit="10" stroke-width="1.22"/><line y1="16.157" x2="8.031" transform="translate(-2707.676 -5355.638)" fill="none" stroke="#4c4c4c" stroke-miterlimit="10" stroke-width="1.22"/><path d="M-2828.342-5415.969c.223,1,15.028,24.8,18.855,28.489" fill="none" stroke="#4c4c4c" stroke-miterlimit="10" stroke-width="1.22"/><path d="M-2793.046-5370.378c1.134.9,15.874,16.913,16.441,17.339s10.063,9.637,10.063,9.637l-15.165,21.4-14.231-9.449" fill="none" stroke="#4c4c4c" stroke-miterlimit="10" stroke-width="1.22"/><path d="M-2792.9-5331.449c.567.1,16.3-21.59,16.3-21.59" fill="none" stroke="#4c4c4c" stroke-miterlimit="10" stroke-width="1.22"/><path d="M-2781.24-5349.5l-23.145-19.417s-6.661-1.985-6.519.992,3.26,6.661,3.26,6.661l21.968,16.441" fill="none" stroke="#4c4c4c" stroke-miterlimit="10" stroke-width="1.22"/><path d="M-2795.938-5367.213c.766.426,14.7,14.174,14.7,14.174" fill="none" stroke="#4c4c4c" stroke-miterlimit="10" stroke-width="1.22"/><path d="M-2685-5355.638l-.614-1.552s5.622-11.487-1.087-8.275l-17.2,28.158" fill="none" stroke="#4c4c4c" stroke-miterlimit="10" stroke-width="1.22"/><path d="M-2802.684-5457.354a44.969,44.969,0,0,1,2.182,4.367,83.586,83.586,0,0,1,4.564,53.176" fill="none" stroke="#4c4c4c" stroke-miterlimit="10" stroke-width="1.22"/><line x1="31.976" y2="15.706" transform="translate(-2800.502 -5468.693)" fill="none" stroke="#4c4c4c" stroke-miterlimit="10" stroke-width="1.22"/></g></g></svg>