<svg xmlns="http://www.w3.org/2000/svg" width="295" height="252" viewBox="0 0 295 252"><g transform="translate(-285 -18191)"><rect width="295" height="252" transform="translate(285 18191)" fill="#fff"/><g transform="translate(272.937 18154.457)"><path d="M64.134,57.024a218.334,218.334,0,0,0,36.85,3.826,223.559,223.559,0,0,0,39.544-2.976l4.252,53.717,3.118,62.5.992,94.819H113.74l-2.268-52.724-4.96-64.063-5.669-49.748L95.031,144.9,92.622,203.15l-1.984,67.322H55.063l2.693-101.055L62.15,76.583Z" fill="#d6ebfb" stroke="#393939" stroke-linecap="round" stroke-linejoin="round" stroke-width="1"/><path d="M179.611,57.024a359.79,359.79,0,0,1,39.483-1.512c20.835.425,36.911,2.362,36.911,2.362l4.252,53.717,3.118,62.5.992,94.819H229.218l-2.268-52.724-4.961-64.063-5.669-49.748-5.811,42.52L208.1,203.15l-1.985,67.322H170.54l2.693-101.055,4.394-92.834Z" fill="#d6ebfb" stroke="#393939" stroke-linecap="round" stroke-linejoin="round" stroke-width="1"/><line y2="40.157" transform="translate(99.661 61.276)" fill="none" stroke="#393939" stroke-linecap="round" stroke-linejoin="round" stroke-width="1"/><path d="M94.181,102.756s6.662-2.032,12.236,0" fill="#d6ebfb" stroke="#393939" stroke-linecap="round" stroke-linejoin="round" stroke-width="1"/><path d="M63.661,66.85s62.208,4.953,77.545-.4" fill="#d6ebfb" stroke="#393939" stroke-linecap="round" stroke-linejoin="round" stroke-width="1"/><path d="M106.417,69.4V86.031s-.189,6.756-6.756,5.1" fill="#d6ebfb" stroke="#393939" stroke-linecap="round" stroke-linejoin="round" stroke-width="1"/><line x2="10.941" y2="35.073" transform="translate(133.167 68.036)" fill="none" stroke="#393939" stroke-linecap="round" stroke-linejoin="round" stroke-width="1"/><line x1="11.564" y2="34.614" transform="translate(60.932 67.691)" fill="none" stroke="#393939" stroke-linecap="round" stroke-linejoin="round" stroke-width="1"/><path d="M88.417,59.669l-.236,11.055H84.26l.472-11.055Z" fill="#d6ebfb" stroke="#393939" stroke-linecap="round" stroke-linejoin="round" stroke-width="1"/><path d="M70.175,57.5l-.236,11.055H66.018L66.49,57.5Z" fill="#d6ebfb" stroke="#393939" stroke-linecap="round" stroke-linejoin="round" stroke-width="1"/><path d="M116.238,59.669l.236,11.055H120.4l-.472-11.055Z" fill="#d6ebfb" stroke="#393939" stroke-linecap="round" stroke-linejoin="round" stroke-width="1"/><path d="M135.246,57.881l.236,11.055H139.4l-.472-11.055Z" fill="#d6ebfb" stroke="#393939" stroke-linecap="round" stroke-linejoin="round" stroke-width="1"/><line x2="34.37" transform="translate(114.024 265.512)" fill="none" stroke="#393939" stroke-linecap="round" stroke-linejoin="round" stroke-width="1"/><line x2="34.37" transform="translate(55.913 266.598)" fill="none" stroke="#393939" stroke-linecap="round" stroke-linejoin="round" stroke-width="1"/><path d="M187.724,55.7l.567,11.339-3.449.331-.637-11.245Z" fill="#d6ebfb" stroke="#393939" stroke-linecap="round" stroke-linejoin="round" stroke-width="1"/><path d="M248.032,55.7l-.567,11.339,3.449.331.637-11.245Z" fill="#d6ebfb" stroke="#393939" stroke-linecap="round" stroke-linejoin="round" stroke-width="1"/><rect width="4.181" height="11.126" transform="translate(218.409 54.543)" fill="#d6ebfb" stroke="#393939" stroke-linecap="round" stroke-linejoin="round" stroke-width="1"/><path d="M178.682,66.182s34.478-5.392,77.981,0" fill="#d6ebfb" stroke="#393939" stroke-linecap="round" stroke-linejoin="round" stroke-width="1"/><path d="M220.5,66.182s2.374,31.188-3.484,35.44" fill="#d6ebfb" stroke="#393939" stroke-linecap="round" stroke-linejoin="round" stroke-width="1"/><path d="M225.992,73.087H253.3v6.8L239.646,83.48l-13.654-3.5Z" fill="#d6ebfb" stroke="#393939" stroke-linecap="round" stroke-linejoin="round" stroke-width="1"/><path d="M184.205,73.087h27.307v6.8L197.859,83.48l-13.654-3.5Z" fill="#d6ebfb" stroke="#393939" stroke-linecap="round" stroke-linejoin="round" stroke-width="1"/><line x2="34.441" transform="translate(171.425 265.157)" fill="none" stroke="#393939" stroke-linecap="round" stroke-linejoin="round" stroke-width="1"/><line x2="34.441" transform="translate(229.926 265.157)" fill="none" stroke="#393939" stroke-linecap="round" stroke-linejoin="round" stroke-width="1"/></g></g></svg>