<svg xmlns="http://www.w3.org/2000/svg" width="45.992" height="53.773" viewBox="0 0 45.992 53.773"><g transform="translate(0)"><path d="M4.251-.047,26.983-.053c1.477,1.5,10.351,10.46,13.454,13.6V49.4a4.278,4.278,0,0,1-4.251,4.3H4.251A4.278,4.278,0,0,1,0,49.4V4.257A4.278,4.278,0,0,1,4.251-.047Z" transform="translate(5.555 0.068)" fill="#fff"/><path d="M1496.692,662.327h-22.658a4.432,4.432,0,0,0-4.4,4.454v44.844a4.432,4.432,0,0,0,4.4,4.454h31.638a4.432,4.432,0,0,0,4.4-4.454V675.873Zm10.907,49.3a1.942,1.942,0,0,1-1.928,1.952h-31.638a1.942,1.942,0,0,1-1.928-1.952V666.781a1.942,1.942,0,0,1,1.928-1.952h21.634l.012.012V676.9h11.911l.008.008Z" transform="translate(-1464.117 -662.327)" fill="#d4504f" opacity="0.9"/><g transform="translate(0 19.787)"><path d="M-629.9,256.506c4.034.146,8.069.263,12.1.457a15.186,15.186,0,0,1,2.968.543,4.471,4.471,0,0,1,3.528,3.569,40.908,40.908,0,0,1,.751,5.9,56.806,56.806,0,0,1-.385,11.5c-.017.111-.03.223-.053.332-.681,3.219-2.054,4.561-5.462,5a57.137,57.137,0,0,1-6.872.476c-5.524.033-11.049-.025-16.573-.122a29.085,29.085,0,0,1-4.417-.519,5.014,5.014,0,0,1-4.443-4.409,44.725,44.725,0,0,1-.577-5.34,58.588,58.588,0,0,1,.4-11.417c.017-.111.03-.223.053-.332.681-3.219,2.059-4.613,5.463-4.985,3-.328,6.037-.385,9.059-.512,1.484-.062,2.973-.011,4.459-.011Zm-3.931,18.979,10.366-5.391-10.366-5.45Z" transform="translate(649.438 -256.506)" fill="#d32322"/><path d="M-557.065,315.52V304.679l10.366,5.45Z" transform="translate(572.669 -296.542)" fill="#fff"/></g></g></svg>