<svg xmlns="http://www.w3.org/2000/svg" width="714.753" height="976.22" viewBox="0 0 714.753 976.22">
  <g id="Grupo_67648" data-name="Grupo 67648" transform="translate(7136.018 4173.755)">
    <g id="Rectángulo_6027" data-name="Rectángulo 6027">
      <rect id="Rectángulo_6099" data-name="Rectángulo 6099" width="714.753" height="976.22" transform="translate(-7136.018 -4173.755)" fill="#fff"/>
    </g>
    <path id="Trazado_109336" data-name="Trazado 109336" d="M-6802.084-3599.615l-12.389,396.29h-225.639l-14-396.12-20.706-309.225" fill="none" stroke="#7a1d47" stroke-miterlimit="10" stroke-width="1.796"/>
    <path id="Trazado_109337" data-name="Trazado 109337" d="M-7107.914-4133.545l-7.553-.424h271.887v224.79h41.326v8.656h34.283" fill="none" stroke="#7a1d47" stroke-miterlimit="10" stroke-width="1.796"/>
    <line id="Línea_503" data-name="Línea 503" x2="24.732" y2="251.139" transform="translate(-6872.856 -4160.318)" fill="none" stroke="#7a1d47" stroke-miterlimit="10" stroke-width="1.796"/>
    <line id="Línea_504" data-name="Línea 504" x1="226.696" transform="translate(-7074.819 -3909.179)" fill="none" stroke="#7a1d47" stroke-miterlimit="10" stroke-width="1.796"/>
    <line id="Línea_505" data-name="Línea 505" x1="235.09" y2="26.027" transform="translate(-7107.914 -4159.997)" fill="none" stroke="#7a1d47" stroke-miterlimit="10" stroke-width="1.796"/>
    <path id="Trazado_109338" data-name="Trazado 109338" d="M-7023.628-3203.326l-12.538-397.435-15.911-308.418c2.036-107.431,23.93-224.791,23.93-224.791l175.912,7.977,8.655,174.172s-1.288,14.966,15.14,33.164l-18.7,18.2" fill="none" stroke="#7a1d47" stroke-linecap="round" stroke-linejoin="round" stroke-width="1.796"/>
    <path id="Trazado_109339" data-name="Trazado 109339" d="M-7054.114-3599.446l17.947-1.315H-6819.4l17.311,1.146" fill="none" stroke="#7a1d47" stroke-linecap="round" stroke-linejoin="round" stroke-width="1.796"/>
    <path id="Trazado_109340" data-name="Trazado 109340" d="M-6928.608-3909.179v705.854" fill="none" stroke="#7a1d47" stroke-linecap="round" stroke-linejoin="round" stroke-width="1.796"/>
    <path id="Trazado_109341" data-name="Trazado 109341" d="M-6833.057-3203.326l13.662-397.435s3.225-264.334,17.481-299.7h-126.694" fill="none" stroke="#7a1d47" stroke-linecap="round" stroke-linejoin="round" stroke-width="1.796"/>
    <path id="Trazado_109342" data-name="Trazado 109342" d="M-6767.971-3900.524" fill="none" stroke="#7a1d47" stroke-linecap="round" stroke-linejoin="round" stroke-width="1.796"/>
    <text id="Cintura" transform="translate(-6953.217 -4108.258)" fill="#161615" font-size="16" font-family="Roboto-Medium, Roboto" font-weight="500"><tspan x="0" y="0">Cintura</tspan></text>
    <text id="Tiro" transform="translate(-6835.922 -4034.749)" fill="#161615" font-size="16" font-family="Roboto-Medium, Roboto" font-weight="500"><tspan x="0" y="0">Tiro</tspan></text>
    <text id="L._Base" data-name="L. Base" transform="translate(-6955.914 -3921.851)" fill="#161615" font-size="16" font-family="Roboto-Medium, Roboto" font-weight="500"><tspan x="0" y="0">L. Base</tspan></text>
    <text id="L._Rodilla" data-name="L. Rodilla" transform="translate(-7007.792 -3607.792)" fill="#161615" font-size="16" font-family="Roboto-Medium, Roboto" font-weight="500"><tspan x="0" y="0">L. Rodilla</tspan></text>
    <text id="Entrepierna" transform="translate(-6797.281 -3383.105)" fill="#161615" font-size="16" font-family="Roboto-Medium, Roboto" font-weight="500"><tspan x="0" y="0">Entrepierna</tspan></text>
    <text id="Entrepierna-2" data-name="Entrepierna" transform="translate(-6452.076 -3350.399) rotate(-90)" fill="#161615" font-size="16" font-family="Roboto-Medium, Roboto" font-weight="500"><tspan x="0" y="0">Entrepierna</tspan></text>
    <text id="Costado" transform="translate(-7114.348 -3381.986)" fill="#161615" font-size="16" font-family="Roboto-Medium, Roboto" font-weight="500"><tspan x="0" y="0">Costado</tspan></text>
    <text id="Costado-2" data-name="Costado" transform="translate(-6717.31 -3405.834) rotate(-90)" fill="#161615" font-size="16" font-family="Roboto-Medium, Roboto" font-weight="500"><tspan x="0" y="0">Costado</tspan></text>
    <text id="Pos" transform="translate(-6848.479 -3663.6)" fill="#161615" font-size="16" font-family="Roboto-Medium, Roboto" font-weight="500"><tspan x="0" y="0">Pos</tspan></text>
    <circle id="Elipse_5836" data-name="Elipse 5836" cx="3.14" cy="3.14" r="3.14" transform="translate(-7118.225 -4137.109)" fill="#b13182"/>
    <circle id="Elipse_5837" data-name="Elipse 5837" cx="3.14" cy="3.14" r="3.14" transform="translate(-7111.054 -4137.109)" fill="#b13182"/>
    <circle id="Elipse_5838" data-name="Elipse 5838" cx="3.14" cy="3.14" r="3.14" transform="translate(-7031.149 -4137.109)" fill="#b13182"/>
    <circle id="Elipse_5839" data-name="Elipse 5839" cx="3.14" cy="3.14" r="3.14" transform="translate(-6876.192 -4163.137)" fill="#b13182"/>
    <circle id="Elipse_5840" data-name="Elipse 5840" cx="3.14" cy="3.14" r="3.14" transform="translate(-6873.392 -4137.109)" fill="#b13182"/>
    <circle id="Elipse_5841" data-name="Elipse 5841" cx="3.14" cy="3.14" r="3.14" transform="translate(-6854.611 -3946.613)" fill="#b13182"/>
    <circle id="Elipse_5842" data-name="Elipse 5842" cx="3.14" cy="3.14" r="3.14" transform="translate(-6851.62 -3912.161)" fill="#b13182"/>
    <circle id="Elipse_5843" data-name="Elipse 5843" cx="3.14" cy="3.14" r="3.14" transform="translate(-6931.748 -3912.161)" fill="#b13182"/>
    <circle id="Elipse_5844" data-name="Elipse 5844" cx="3.14" cy="3.14" r="3.14" transform="translate(-7055.217 -3912.161)" fill="#b13182"/>
    <circle id="Elipse_5845" data-name="Elipse 5845" cx="3.14" cy="3.14" r="3.14" transform="translate(-7077.959 -3912.161)" fill="#b13182"/>
    <circle id="Elipse_5846" data-name="Elipse 5846" cx="3.14" cy="3.14" r="3.14" transform="translate(-7057.253 -3602.585)" fill="#b13182"/>
    <circle id="Elipse_5847" data-name="Elipse 5847" cx="3.14" cy="3.14" r="3.14" transform="translate(-7039.391 -3603.901)" fill="#b13182"/>
    <circle id="Elipse_5848" data-name="Elipse 5848" cx="3.14" cy="3.14" r="3.14" transform="translate(-6822.645 -3603.901)" fill="#b13182"/>
    <circle id="Elipse_5849" data-name="Elipse 5849" cx="3.14" cy="3.14" r="3.14" transform="translate(-6818.063 -3206.466)" fill="#b13182"/>
    <circle id="Elipse_5850" data-name="Elipse 5850" cx="3.14" cy="3.14" r="3.14" transform="translate(-6836.265 -3206.466)" fill="#b13182"/>
    <circle id="Elipse_5851" data-name="Elipse 5851" cx="3.14" cy="3.14" r="3.14" transform="translate(-6931.748 -3206.466)" fill="#b13182"/>
    <circle id="Elipse_5852" data-name="Elipse 5852" cx="3.14" cy="3.14" r="3.14" transform="translate(-7026.705 -3206.466)" fill="#b13182"/>
    <circle id="Elipse_5853" data-name="Elipse 5853" cx="3.14" cy="3.14" r="3.14" transform="translate(-7043.761 -3206.466)" fill="#b13182"/>
    <circle id="Elipse_5855" data-name="Elipse 5855" cx="3.14" cy="3.14" r="3.14" transform="translate(-6931.748 -3903.6)" fill="#b13182"/>
    <circle id="Elipse_5856" data-name="Elipse 5856" cx="3.14" cy="3.14" r="3.14" transform="translate(-6805.69 -3903.664)" fill="#b13182"/>
    <circle id="Elipse_5858" data-name="Elipse 5858" cx="3.14" cy="3.14" r="3.14" transform="translate(-6846.74 -3912.161)" fill="#b13182"/>
    <circle id="Elipse_5859" data-name="Elipse 5859" cx="3.14" cy="3.14" r="3.14" transform="translate(-6846.979 -4137.109)" fill="#b13182"/>
    <circle id="Elipse_5860" data-name="Elipse 5860" cx="3.14" cy="3.14" r="3.14" transform="translate(-6855.699 -4128.899)" fill="#b13182"/>
    <path id="Trazado_109343" data-name="Trazado 109343" d="M-6465.28-3599.615l-12.389,396.29h-225.639l-14-396.12-20.706-309.225-33.146-226.213" fill="none" stroke="#7a1d47" stroke-miterlimit="10" stroke-width="1.796"/>
    <path id="Trazado_109344" data-name="Trazado 109344" d="M-6771.11-4133.545l-7.553-.424h271.887v224.79h41.326v8.656h34.283" fill="none" stroke="#7a1d47" stroke-miterlimit="10" stroke-width="1.796"/>
    <line id="Línea_506" data-name="Línea 506" x2="24.732" y2="251.139" transform="translate(-6536.052 -4160.318)" fill="none" stroke="#7a1d47" stroke-miterlimit="10" stroke-width="1.796"/>
    <line id="Línea_507" data-name="Línea 507" x1="226.696" transform="translate(-6738.016 -3909.179)" fill="none" stroke="#7a1d47" stroke-miterlimit="10" stroke-width="1.796"/>
    <line id="Línea_508" data-name="Línea 508" x1="235.09" y2="26.027" transform="translate(-6771.11 -4159.997)" fill="none" stroke="#7a1d47" stroke-miterlimit="10" stroke-width="1.796"/>
    <path id="Trazado_109345" data-name="Trazado 109345" d="M-6686.825-3203.326l-12.538-397.435-15.911-308.418c2.037-107.431,23.931-224.791,23.931-224.791l175.911,7.977,8.656,174.172s-1.288,14.966,15.14,33.164l-18.7,18.2" fill="none" stroke="#7a1d47" stroke-linecap="round" stroke-linejoin="round" stroke-width="1.796"/>
    <path id="Trazado_109346" data-name="Trazado 109346" d="M-6717.31-3599.446l17.947-1.315h216.771l17.311,1.146" fill="none" stroke="#7a1d47" stroke-linecap="round" stroke-linejoin="round" stroke-width="1.796"/>
    <path id="Trazado_109347" data-name="Trazado 109347" d="M-6591.8-3909.179v705.854" fill="none" stroke="#7a1d47" stroke-linecap="round" stroke-linejoin="round" stroke-width="1.796"/>
    <path id="Trazado_109348" data-name="Trazado 109348" d="M-6496.254-3203.326l13.663-397.435s3.224-264.334,17.48-299.7H-6591.8" fill="none" stroke="#7a1d47" stroke-linecap="round" stroke-linejoin="round" stroke-width="1.796"/>
    <path id="Trazado_109349" data-name="Trazado 109349" d="M-6514.668-3943.177s7.807,33.149,83.5,42.653" fill="none" stroke="#7a1d47" stroke-linecap="round" stroke-linejoin="round" stroke-width="1.796"/>
    <text id="Cintura-2" data-name="Cintura" transform="translate(-6616.413 -4108.258)" fill="#161615" font-size="16" font-family="Roboto-Medium, Roboto" font-weight="500"><tspan x="0" y="0">Cintura</tspan></text>
    <text id="Tiro-2" data-name="Tiro" transform="translate(-6499.118 -4034.749)" fill="#161615" font-size="16" font-family="Roboto-Medium, Roboto" font-weight="500"><tspan x="0" y="0">Tiro</tspan></text>
    <text id="L._Base-2" data-name="L. Base" transform="translate(-6619.11 -3921.851)" fill="#161615" font-size="16" font-family="Roboto-Medium, Roboto" font-weight="500"><tspan x="0" y="0">L. Base</tspan></text>
    <text id="L._Rodilla-2" data-name="L. Rodilla" transform="translate(-6670.988 -3607.792)" fill="#161615" font-size="16" font-family="Roboto-Medium, Roboto" font-weight="500"><tspan x="0" y="0">L. Rodilla</tspan></text>
    <text id="Pos-2" data-name="Pos" transform="translate(-6511.676 -3663.6)" fill="#161615" font-size="16" font-family="Roboto-Medium, Roboto" font-weight="500"><tspan x="0" y="0">Pos</tspan></text>
    <circle id="Elipse_5861" data-name="Elipse 5861" cx="3.14" cy="3.14" r="3.14" transform="translate(-6781.421 -4137.109)" fill="#b13182"/>
    <circle id="Elipse_5862" data-name="Elipse 5862" cx="3.14" cy="3.14" r="3.14" transform="translate(-6774.25 -4137.109)" fill="#b13182"/>
    <circle id="Elipse_5863" data-name="Elipse 5863" cx="3.14" cy="3.14" r="3.14" transform="translate(-6694.345 -4137.109)" fill="#b13182"/>
    <circle id="Elipse_5864" data-name="Elipse 5864" cx="3.14" cy="3.14" r="3.14" transform="translate(-6536.588 -4137.109)" fill="#b13182"/>
    <circle id="Elipse_5865" data-name="Elipse 5865" cx="3.14" cy="3.14" r="3.14" transform="translate(-6517.808 -3946.613)" fill="#b13182"/>
    <circle id="Elipse_5866" data-name="Elipse 5866" cx="3.14" cy="3.14" r="3.14" transform="translate(-6495.101 -3921.85)" fill="#b13182"/>
    <circle id="Elipse_5867" data-name="Elipse 5867" cx="3.14" cy="3.14" r="3.14" transform="translate(-6514.816 -3912.161)" fill="#b13182"/>
    <circle id="Elipse_5868" data-name="Elipse 5868" cx="3.14" cy="3.14" r="3.14" transform="translate(-6594.944 -3912.161)" fill="#b13182"/>
    <circle id="Elipse_5869" data-name="Elipse 5869" cx="3.14" cy="3.14" r="3.14" transform="translate(-6718.414 -3912.161)" fill="#b13182"/>
    <circle id="Elipse_5870" data-name="Elipse 5870" cx="3.14" cy="3.14" r="3.14" transform="translate(-6741.155 -3912.161)" fill="#b13182"/>
    <circle id="Elipse_5871" data-name="Elipse 5871" cx="3.14" cy="3.14" r="3.14" transform="translate(-6720.45 -3602.585)" fill="#b13182"/>
    <circle id="Elipse_5872" data-name="Elipse 5872" cx="3.14" cy="3.14" r="3.14" transform="translate(-6702.587 -3603.901)" fill="#b13182"/>
    <circle id="Elipse_5873" data-name="Elipse 5873" cx="3.14" cy="3.14" r="3.14" transform="translate(-6485.841 -3603.901)" fill="#b13182"/>
    <circle id="Elipse_5874" data-name="Elipse 5874" cx="3.14" cy="3.14" r="3.14" transform="translate(-6481.259 -3206.466)" fill="#b13182"/>
    <circle id="Elipse_5875" data-name="Elipse 5875" cx="3.14" cy="3.14" r="3.14" transform="translate(-6499.461 -3206.466)" fill="#b13182"/>
    <circle id="Elipse_5876" data-name="Elipse 5876" cx="3.14" cy="3.14" r="3.14" transform="translate(-6594.944 -3206.466)" fill="#b13182"/>
    <circle id="Elipse_5877" data-name="Elipse 5877" cx="3.14" cy="3.14" r="3.14" transform="translate(-6689.901 -3206.466)" fill="#b13182"/>
    <circle id="Elipse_5878" data-name="Elipse 5878" cx="3.14" cy="3.14" r="3.14" transform="translate(-6706.958 -3206.466)" fill="#b13182"/>
    <circle id="Elipse_5880" data-name="Elipse 5880" cx="3.14" cy="3.14" r="3.14" transform="translate(-6594.944 -3903.6)" fill="#b13182"/>
    <circle id="Elipse_5881" data-name="Elipse 5881" cx="3.14" cy="3.14" r="3.14" transform="translate(-6513.416 -3903.664)" fill="#b13182"/>
    <circle id="Elipse_5882" data-name="Elipse 5882" cx="3.14" cy="3.14" r="3.14" transform="translate(-6468.887 -3903.664)" fill="#b13182"/>
    <circle id="Elipse_5883" data-name="Elipse 5883" cx="3.14" cy="3.14" r="3.14" transform="translate(-6468.887 -3912.319)" fill="#b13182"/>
    <circle id="Elipse_5885" data-name="Elipse 5885" cx="3.14" cy="3.14" r="3.14" transform="translate(-6509.937 -3912.161)" fill="#b13182"/>
    <circle id="Elipse_5886" data-name="Elipse 5886" cx="3.14" cy="3.14" r="3.14" transform="translate(-6509.958 -3955.017)" fill="#b13182"/>
    <circle id="Elipse_5887" data-name="Elipse 5887" cx="3.14" cy="3.14" r="3.14" transform="translate(-6510.176 -4137.109)" fill="#b13182"/>
    <circle id="Elipse_5888" data-name="Elipse 5888" cx="3.14" cy="3.14" r="3.14" transform="translate(-6518.895 -4128.899)" fill="#b13182"/>
    <path id="Trazado_109351" data-name="Trazado 109351" d="M-6843.622-3951.877s3.553,41.84,41.368,42.7" fill="none" stroke="#7a1d47" stroke-linecap="round" stroke-linejoin="round" stroke-width="1.796"/>
    <circle id="Elipse_5889" data-name="Elipse 5889" cx="3.14" cy="3.14" r="3.14" transform="translate(-6831.905 -3921.85)" fill="#b13182"/>
    <circle id="Elipse_5890" data-name="Elipse 5890" cx="3.14" cy="3.14" r="3.14" transform="translate(-6850.219 -3903.664)" fill="#b13182"/>
    <circle id="Elipse_5891" data-name="Elipse 5891" cx="3.14" cy="3.14" r="3.14" transform="translate(-6805.69 -3912.319)" fill="#b13182"/>
    <circle id="Elipse_5892" data-name="Elipse 5892" cx="3.14" cy="3.14" r="3.14" transform="translate(-6846.762 -3955.017)" fill="#b13182"/>
    <path id="Trazado_109429" data-name="Trazado 109429" d="M6486.993,10319.413s3.9-124.792,33.255-300.563" transform="translate(-13289.018 -13918.922)" fill="none" stroke="#7a1d47" stroke-width="2"/>
    <circle id="Elipse_5857" data-name="Elipse 5857" cx="3.14" cy="3.14" r="3.14" transform="translate(-6771.45 -3903.664)" fill="#b13182"/>
    <circle id="Elipse_5854" data-name="Elipse 5854" cx="3.14" cy="3.14" r="3.14" transform="translate(-6805.436 -3602.585)" fill="#b13182"/>
    <path id="Trazado_109430" data-name="Trazado 109430" d="M6486.993,10319.413s3.9-124.792,33.255-300.563" transform="translate(-12952.104 -13919.31)" fill="none" stroke="#7a1d47" stroke-width="2"/>
    <path id="Trazado_109428" data-name="Trazado 109428" d="M3.14,0A3.14,3.14,0,1,1,0,3.14,3.14,3.14,0,0,1,3.14,0Z" transform="translate(-6468.632 -3602.585)" fill="#b13182"/>
    <circle id="Elipse_5884" data-name="Elipse 5884" cx="3.14" cy="3.14" r="3.14" transform="translate(-6434.646 -3903.664)" fill="#b13182"/>
  </g>
</svg>
