<svg xmlns="http://www.w3.org/2000/svg" xmlns:xlink="http://www.w3.org/1999/xlink" width="295" height="207" viewBox="0 0 295 207"><defs><linearGradient id="a" x1="0.5" y1="1.241" x2="0.5" y2="-0.35" gradientUnits="objectBoundingBox"><stop offset="0" stop-color="#eaebec"/><stop offset="0.072" stop-color="#eff0f1"/><stop offset="0.286" stop-color="#fbfbfb"/><stop offset="0.509" stop-color="#fff"/><stop offset="0.712" stop-color="#fcfcfc"/><stop offset="0.855" stop-color="#f2f3f3"/><stop offset="0.979" stop-color="#e3e4e5"/><stop offset="1" stop-color="#e0e1e2"/></linearGradient><linearGradient id="b" x1="0.5" y1="0.195" x2="0.5" y2="0.999" gradientUnits="objectBoundingBox"><stop offset="0" stop-color="#fff"/><stop offset="0.288" stop-color="#efeff0"/><stop offset="0.636" stop-color="#e3e4e5"/><stop offset="1" stop-color="#e0e1e2"/></linearGradient><linearGradient id="c" y1="0.5" x2="1" y2="0.5" gradientUnits="objectBoundingBox"><stop offset="0" stop-color="#eaebec"/><stop offset="0.072" stop-color="#eff0f1"/><stop offset="0.286" stop-color="#fbfbfb"/><stop offset="0.509" stop-color="#fff"/></linearGradient><linearGradient id="d" x1="0" y1="0.5" x2="1" y2="0.5" xlink:href="#c"/><linearGradient id="f" x1="0" y1="0.5" x2="1" y2="0.5" xlink:href="#c"/></defs><g transform="translate(-390 -2943)"><g transform="translate(439.271 2949.334)"><g transform="translate(3.73 17.424)"><g transform="translate(0 8.941)"><g transform="translate(1.153 147.181)"><path d="M6.919,219.761,5.677,232.1s12.8,5.012,22.642,3.461L30.134,223.4Z" transform="translate(-5.295 -219.378)" fill="#bf3976"/><path d="M24.141,236.135h0c-8.933,0-18.608-3.747-18.7-3.784a.383.383,0,0,1-.241-.395l1.242-12.336a.382.382,0,0,1,.44-.34l23.215,3.643a.382.382,0,0,1,.318.433l-1.815,12.155a.384.384,0,0,1-.319.321A26.685,26.685,0,0,1,24.141,236.135ZM5.984,231.74c1.618.6,10.2,3.631,18.157,3.631h0a26.342,26.342,0,0,0,3.739-.251l1.718-11.5L7.156,220.1Z" transform="translate(-5.193 -219.275)" fill="#bf3976"/><g transform="translate(1.415 0.554)" opacity="0.4" style="mix-blend-mode:multiply;isolation:isolate"><path d="M8.3,219.979,6.988,232.521c.218.076.465.161.742.255L9.052,220.1Z" transform="translate(-6.988 -219.979)" fill="#b6b8ba"/><path d="M10.612,220.347l-1.388,12.84c.236.075.485.152.745.232l1.4-12.954Z" transform="translate(-7.462 -220.057)" fill="#b6b8ba"/><path d="M12.928,220.713,11.463,233.8q.363.1.747.21l1.473-13.179Z" transform="translate(-7.937 -220.135)" fill="#b6b8ba"/><path d="M15.243,221.079l-1.536,13.283c.244.063.494.127.748.19L16,221.2Z" transform="translate(-8.413 -220.212)" fill="#b6b8ba"/><path d="M17.56,221.445l-1.6,13.43c.247.056.5.113.749.168l1.61-13.479Z" transform="translate(-8.89 -220.29)" fill="#b6b8ba"/><path d="M19.876,221.811,18.21,235.335c.247.05.5.1.752.146l1.669-13.551Z" transform="translate(-9.368 -220.368)" fill="#b6b8ba"/><path d="M22.192,222.178,20.47,235.741c.251.042.5.082.756.121L22.948,222.3Z" transform="translate(-9.847 -220.445)" fill="#b6b8ba"/><path d="M24.511,222.543,22.74,236.086c.252.033.5.065.758.094l1.769-13.517Z" transform="translate(-10.329 -220.523)" fill="#b6b8ba"/><path d="M26.831,222.91l-1.81,13.454c.254.023.507.045.761.064l1.8-13.4Z" transform="translate(-10.813 -220.601)" fill="#b6b8ba"/><path d="M29.154,223.275l-1.841,13.29c.257.011.512.02.767.027l1.827-13.2Z" transform="translate(-11.299 -220.678)" fill="#b6b8ba"/><path d="M31.478,223.64l-1.855,13.036c.259,0,.518-.009.775-.019l1.836-12.9Z" transform="translate(-11.789 -220.755)" fill="#b6b8ba"/><path d="M33.806,224.005l-1.851,12.673c.262-.019.524-.045.783-.072l1.822-12.481Z" transform="translate(-12.283 -220.833)" fill="#b6b8ba"/></g></g><path d="M50.878,35.246A101.6,101.6,0,0,0,40.2,39.605a32.351,32.351,0,0,0-8.646,8.7C21.7,63.229,12.214,105,8.393,131.634s-4.078,42.024-4.078,42.024-.886,7.556,2.773,8.694c0,0,11.24,4.531,20.158,4.077,0,0,3.449.581,5.986-6.286,5.084-13.766,15.8-55.111,26.623-98.589l2.383-48.593A79.33,79.33,0,0,0,50.878,35.246Z" transform="translate(-3.834 -32.579)" fill="#bf3976"/><path d="M25.85,186.739h0c-8.647,0-18.9-4.094-19.008-4.136-3.887-1.208-3.047-8.771-3.01-9.092,0-.116.3-15.682,4.08-42.034a443.51,443.51,0,0,1,9.329-46.1c3.218-12.329,8.24-28.824,13.891-37.389a32.751,32.751,0,0,1,8.747-8.8A100.461,100.461,0,0,1,50.656,34.78a57.52,57.52,0,0,1,8.9-1.891c.838-.132,1.675-.265,2.51-.407a.375.375,0,0,1,.318.091.381.381,0,0,1,.128.3L60.132,81.47c-13.647,54.836-22.36,87.1-26.646,98.7-2.5,6.776-5.935,6.587-6.36,6.536Q26.495,186.739,25.85,186.739ZM61.727,33.314c-.682.113-1.366.221-2.05.329a56.967,56.967,0,0,0-8.784,1.863A100.964,100.964,0,0,0,40.254,39.85a32,32,0,0,0-8.486,8.562c-5.517,8.36-16.668,38.335-23.1,83.172-3.773,26.3-4.072,41.823-4.074,41.977-.011.111-.809,7.292,2.5,8.323.13.051,10.255,4.091,18.751,4.091h0c.429,0,.853-.009,1.272-.032a.36.36,0,0,1,.083,0,1.058,1.058,0,0,0,.14.007c.749,0,3.351-.436,5.424-6.048,4.276-11.578,12.981-43.814,26.61-98.548Z" transform="translate(-3.73 -32.476)" fill="#bf3976"/></g><path d="M50.878,35.246A101.591,101.591,0,0,0,40.2,39.6a32.87,32.87,0,0,0-7.808,7.5.923.923,0,0,1,.874.158C34.507,48.6,41.919,80.314,45.4,90.639S27.054,62.17,29.825,70.2s9.585,29.042,6.082,62.479-8.776,49.576-11.671,49.678-8-10.89-8.992-14.33-.9,7.261.582,11.273c1.313,3.55-8.1-.238-10.887-16.9-.557,7.325-.624,11.26-.624,11.26s-.886,7.556,2.773,8.694c0,0,11.24,4.531,20.158,4.077,0,0,3.449.581,5.986-6.286,5.084-13.766,15.8-55.111,26.623-98.589l2.383-48.593A79.33,79.33,0,0,0,50.878,35.246Z" transform="translate(-3.834 -23.638)" fill="#a7a9ab" opacity="0.7" style="mix-blend-mode:multiply;isolation:isolate"/><g transform="translate(131.214 8.913)"><g transform="translate(32.413 147.21)"><path d="M235.1,219.761l1.242,12.335s-12.8,5.012-22.642,3.461L211.888,223.4Z" transform="translate(-211.506 -219.379)" fill="#bf3976"/><path d="M217.675,236.135a26.7,26.7,0,0,1-4.136-.3.381.381,0,0,1-.318-.321l-1.815-12.155a.382.382,0,0,1,.318-.433l23.215-3.643a.4.4,0,0,1,.293.075.387.387,0,0,1,.147.265l1.242,12.336a.383.383,0,0,1-.24.395C236.284,232.388,226.608,236.135,217.675,236.135Zm-3.74-1.016a26.365,26.365,0,0,0,3.74.251c7.959,0,16.537-3.031,18.157-3.63L234.66,220.1l-22.442,3.521Z" transform="translate(-211.403 -219.276)" fill="#bf3976"/><g transform="translate(1.527 0.554)" opacity="0.4" style="mix-blend-mode:multiply;isolation:isolate"><path d="M239.752,219.979l1.308,12.542c-.217.076-.463.161-.741.255L239,220.1Z" transform="translate(-218.782 -219.979)" fill="#b6b8ba"/><path d="M237.415,220.347l1.387,12.84c-.234.075-.483.152-.743.232l-1.4-12.954Z" transform="translate(-218.286 -220.057)" fill="#b6b8ba"/><path d="M235.079,220.713l1.463,13.087c-.24.069-.489.139-.745.21l-1.475-13.179Z" transform="translate(-217.791 -220.135)" fill="#b6b8ba"/><path d="M232.745,221.079l1.536,13.283c-.244.063-.494.127-.748.19L231.988,221.2Z" transform="translate(-217.296 -220.212)" fill="#b6b8ba"/><path d="M230.41,221.445l1.6,13.43c-.246.056-.5.113-.749.168l-1.61-13.479Z" transform="translate(-216.801 -220.29)" fill="#b6b8ba"/><path d="M228.076,221.811l1.667,13.524c-.249.05-.5.1-.752.146l-1.67-13.551Z" transform="translate(-216.306 -220.368)" fill="#b6b8ba"/><path d="M225.745,222.178l1.721,13.563c-.25.042-.5.082-.754.121L224.988,222.3Z" transform="translate(-215.811 -220.445)" fill="#b6b8ba"/><path d="M223.413,222.543l1.771,13.543c-.252.033-.5.065-.76.094l-1.769-13.517Z" transform="translate(-215.317 -220.523)" fill="#b6b8ba"/><path d="M221.082,222.91l1.811,13.454c-.254.023-.507.045-.763.064l-1.8-13.4Z" transform="translate(-214.823 -220.601)" fill="#b6b8ba"/><path d="M218.753,223.275l1.841,13.29c-.256.011-.511.02-.769.027L218,223.393Z" transform="translate(-214.329 -220.678)" fill="#b6b8ba"/><path d="M216.425,223.64l1.853,13.036c-.258,0-.516-.009-.774-.019l-1.835-12.9Z" transform="translate(-213.835 -220.755)" fill="#b6b8ba"/><path d="M214.1,224.005l1.851,12.673c-.263-.019-.522-.045-.782-.072l-1.824-12.481Z" transform="translate(-213.341 -220.833)" fill="#b6b8ba"/></g></g><path d="M228.672,173.65s-.258-15.391-4.078-42.024-13.312-68.4-23.161-83.329A34.47,34.47,0,0,0,188.4,36.95c-1.533-.612-3.1-1.133-4.646-1.6-4.239-1.3-8.721-1.35-13-2.42l2.384,48.621c10.827,43.478,21.537,84.822,26.621,98.589,2.536,6.867,5.988,6.286,5.988,6.286,8.915.455,20.157-4.077,20.157-4.077C229.559,181.206,228.672,173.65,228.672,173.65Z" transform="translate(-170.367 -32.543)" fill="#bf3976"/><path d="M206.933,186.731h0q-.646,0-1.277-.031a1.883,1.883,0,0,1-.221.011c-.872,0-3.9-.472-6.142-6.548-4.282-11.6-12.995-43.858-26.634-98.629l-2.394-48.694a.382.382,0,0,1,.139-.314.377.377,0,0,1,.336-.076,56.252,56.252,0,0,0,5.822,1.025,46.661,46.661,0,0,1,7.2,1.4c1.83.559,3.316,1.073,4.676,1.615A34.714,34.714,0,0,1,201.65,47.983c5.652,8.565,10.673,25.059,13.891,37.389a443.786,443.786,0,0,1,9.329,46.1c3.781,26.352,4.078,41.918,4.081,42.072.035.284.876,7.847-3.041,9.065C225.838,182.637,215.578,186.731,206.933,186.731Zm-1.291-.8h.017c8.743.449,19.889-4.006,20-4.049,3.343-1.041,2.544-8.222,2.535-8.294,0-.192-.3-15.716-4.077-42.015-6.434-44.84-17.583-74.812-23.1-83.172a33.941,33.941,0,0,0-12.894-11.219c-1.3-.518-2.771-1.024-4.581-1.578a45.946,45.946,0,0,0-7.082-1.373c-1.778-.25-3.613-.507-5.4-.921l2.358,48.111c13.621,54.67,22.325,86.906,26.6,98.475,2.071,5.612,4.676,6.048,5.424,6.048a1.217,1.217,0,0,0,.145-.007A.4.4,0,0,1,205.642,185.935Z" transform="translate(-170.264 -32.44)" fill="#bf3976"/></g><path d="M228.672,173.65s-.066-3.935-.625-11.26c-2.785,16.659-12.2,20.446-10.887,16.9,1.485-4.012,1.573-14.712.584-11.273s-6.1,14.432-8.994,14.33-8.168-16.24-11.671-49.678,3.312-54.454,6.083-62.479-19.051,30.769-15.572,20.444,10.89-42.035,12.131-43.372a.924.924,0,0,1,.874-.158,35.124,35.124,0,0,0-12.212-10.158c-1.529-.609-3.093-1.128-4.631-1.6-4.239-1.3-8.721-1.35-13-2.42l2.384,48.621c10.827,43.478,21.537,84.822,26.621,98.589,2.536,6.867,5.988,6.286,5.988,6.286,8.915.455,20.157-4.077,20.157-4.077C229.559,181.206,228.672,173.65,228.672,173.65Z" transform="translate(-39.153 -23.63)" fill="#a7a9ab" opacity="0.7" style="mix-blend-mode:multiply;isolation:isolate"/><g transform="translate(33.106 0)"><g transform="translate(11.706 158.332)"><path d="M110.256,226.527l-49.168-3.962v6.624s24.555,8.182,49.168,6.808c24.611,1.373,49.166-6.808,49.166-6.808v-6.624Z" transform="translate(-60.707 -222.183)" fill="#bf3976"/><path d="M115.858,236.432c-1.945,0-3.872-.052-5.727-.156-1.813.1-3.739.156-5.684.156-22.366,0-43.374-6.914-43.583-6.983a.381.381,0,0,1-.261-.362v-6.624a.382.382,0,0,1,.123-.281.387.387,0,0,1,.289-.1l49.167,3.962,49.106-3.962a.382.382,0,0,1,.413.381v6.624a.381.381,0,0,1-.261.362C159.231,229.518,138.226,236.432,115.858,236.432Zm-5.727-.919c1.883.1,3.8.155,5.727.155,20.9,0,40.6-6.068,43.079-6.86v-5.931l-48.754,3.929-48.815-3.929v5.931c2.484.793,22.189,6.86,43.08,6.86C106.378,235.668,108.291,235.615,110.132,235.513Z" transform="translate(-60.604 -222.08)" fill="#bf3976"/></g><g transform="translate(13.403 158.831)" opacity="0.4"><path d="M62.972,222.722l-.214,6.913c.225.069.479.145.758.228l.22-7.079Z" transform="translate(-62.758 -222.716)" fill="#b6b8ba"/><path d="M64.659,222.858l-.217,7.2.758.218.223-7.358Z" transform="translate(-63.115 -222.745)" fill="#b6b8ba"/><path d="M66.346,222.993l-.22,7.473.758.21.225-7.621Z" transform="translate(-63.472 -222.773)" fill="#b6b8ba"/><path d="M68.032,223.13l-.219,7.729c.241.065.5.134.76.2l.224-7.87Z" transform="translate(-63.83 -222.802)" fill="#b6b8ba"/><path d="M69.72,223.266,69.5,231.24l.76.195.224-8.107Z" transform="translate(-64.188 -222.831)" fill="#b6b8ba"/><path d="M71.408,223.4l-.219,8.207.76.188.222-8.333Z" transform="translate(-64.546 -222.86)" fill="#b6b8ba"/><path d="M73.1,223.538l-.218,8.426c.248.061.505.121.76.182l.221-8.546Z" transform="translate(-64.904 -222.889)" fill="#b6b8ba"/><path d="M74.785,223.673l-.217,8.637.761.174.218-8.75Z" transform="translate(-65.263 -222.917)" fill="#b6b8ba"/><path d="M76.474,223.809l-.214,8.835c.249.056.507.111.761.168l.215-8.94Z" transform="translate(-65.622 -222.946)" fill="#b6b8ba"/><path d="M78.163,223.946l-.209,9.02q.376.082.761.162l.212-9.121Z" transform="translate(-65.981 -222.975)" fill="#b6b8ba"/><path d="M79.854,224.081l-.206,9.2c.254.054.5.106.761.159l.207-9.293Z" transform="translate(-66.34 -223.004)" fill="#b6b8ba"/><path d="M81.543,224.218l-.2,9.36.761.15.2-9.449Z" transform="translate(-66.7 -223.033)" fill="#b6b8ba"/><path d="M83.234,224.354l-.2,9.516c.251.048.507.095.761.142l.2-9.6Z" transform="translate(-67.059 -223.062)" fill="#b6b8ba"/><path d="M84.926,224.49l-.19,9.657c.251.046.506.092.761.137l.191-9.733Z" transform="translate(-67.419 -223.091)" fill="#b6b8ba"/><path d="M86.618,224.626l-.184,9.788c.254.044.5.09.761.133l.185-9.86Z" transform="translate(-67.779 -223.12)" fill="#b6b8ba"/><path d="M88.308,224.762l-.177,9.909.763.124.178-9.972Z" transform="translate(-68.139 -223.148)" fill="#b6b8ba"/><path d="M90,224.9l-.171,10.018c.252.039.509.077.763.116l.172-10.073Z" transform="translate(-68.5 -223.177)" fill="#b6b8ba"/><path d="M91.692,225.035l-.162,10.114c.254.038.5.077.763.114l.165-10.166Z" transform="translate(-68.86 -223.206)" fill="#b6b8ba"/><path d="M93.386,225.171l-.156,10.2c.251.036.507.069.762.1l.158-10.242Z" transform="translate(-69.221 -223.235)" fill="#b6b8ba"/><path d="M95.078,225.308l-.147,10.274c.252.033.509.064.763.1l.149-10.309Z" transform="translate(-69.582 -223.264)" fill="#b6b8ba"/><path d="M96.772,225.444l-.14,10.333c.254.031.506.063.763.093l.14-10.366Z" transform="translate(-69.942 -223.293)" fill="#b6b8ba"/><path d="M98.467,225.58l-.132,10.385.763.081.133-10.4Z" transform="translate(-70.304 -223.322)" fill="#b6b8ba"/><path d="M100.161,225.716l-.124,10.421c.253.026.509.052.763.076l.123-10.436Z" transform="translate(-70.665 -223.351)" fill="#b6b8ba"/><path d="M101.854,225.852l-.114,10.443c.255.024.509.048.764.07l.113-10.451Z" transform="translate(-71.026 -223.38)" fill="#b6b8ba"/><path d="M103.549,225.989l-.1,10.457c.252.02.509.038.763.057l.106-10.452Z" transform="translate(-71.387 -223.409)" fill="#b6b8ba"/><path d="M105.243,226.125l-.1,10.451c.255.019.507.04.764.058l.1-10.446Z" transform="translate(-71.749 -223.437)" fill="#b6b8ba"/><path d="M106.94,226.262l-.087,10.433c.254.017.509.031.763.045l.088-10.417Z" transform="translate(-72.11 -223.467)" fill="#b6b8ba"/><path d="M108.634,226.4l-.078,10.4c.255.014.509.025.764.037l.078-10.38Z" transform="translate(-72.471 -223.495)" fill="#b6b8ba"/><path d="M110.33,226.535l-.069,10.356c.255.011.509.022.764.031l.069-10.326Z" transform="translate(-72.833 -223.524)" fill="#b6b8ba"/><path d="M112.026,226.671l-.058,10.3c.254.007.509.009.763.016l.06-10.255Z" transform="translate(-73.195 -223.553)" fill="#b6b8ba"/><path d="M113.723,226.808l-.05,10.221c.255,0,.509.013.764.016l.05-10.175Z" transform="translate(-73.557 -223.582)" fill="#b6b8ba"/><path d="M115.419,226.944l-.041,10.132c.254,0,.509,0,.764,0l.04-10.07Z" transform="translate(-73.918 -223.611)" fill="#b6b8ba"/><path d="M117.115,227.08l-.029,10.025c.253,0,.508,0,.763-.007l.03-9.955Z" transform="translate(-74.28 -223.64)" fill="#b6b8ba"/><path d="M118.811,227.217l-.02,9.9c.253,0,.509-.009.763-.017l.021-9.82Z" transform="translate(-74.642 -223.669)" fill="#b6b8ba"/><path d="M120.51,227.353l-.012,9.762c.253-.008.509-.022.763-.032l.012-9.668Z" transform="translate(-75.004 -223.698)" fill="#b6b8ba"/><path d="M122.207,227.49l-.006,9.6c.255-.012.511-.02.763-.034l.006-9.5Z" transform="translate(-75.365 -223.727)" fill="#b6b8ba"/><path d="M123.9,227.543l0,9.511c.255.013.509.023.763.034l0-9.606Z" transform="translate(-75.726 -223.725)" fill="#b6b8ba"/><path d="M125.6,227.407l.013,9.677c.254.01.51.023.763.031l-.012-9.769Z" transform="translate(-76.086 -223.696)" fill="#b6b8ba"/><path d="M127.291,227.27l.022,9.828c.256.006.509.011.765.016l-.023-9.906Z" transform="translate(-76.445 -223.667)" fill="#b6b8ba"/><path d="M128.987,227.134l.029,9.964c.256,0,.509,0,.765,0l-.032-10.03Z" transform="translate(-76.805 -223.638)" fill="#b6b8ba"/><path d="M130.681,227l.038,10.076c.256,0,.511,0,.765,0l-.039-10.138Z" transform="translate(-77.164 -223.609)" fill="#b6b8ba"/><path d="M132.374,226.861l.049,10.18c.256,0,.509-.01.765-.016l-.05-10.225Z" transform="translate(-77.523 -223.581)" fill="#b6b8ba"/><path d="M134.068,226.724l.058,10.26c.255-.006.511-.008.764-.016l-.058-10.306Z" transform="translate(-77.882 -223.552)" fill="#b6b8ba"/><path d="M135.76,226.588l.069,10.329c.255-.009.511-.02.764-.03l-.069-10.36Z" transform="translate(-78.241 -223.523)" fill="#b6b8ba"/><path d="M137.454,226.451l.077,10.383.764-.038-.078-10.407Z" transform="translate(-78.6 -223.494)" fill="#b6b8ba"/><path d="M139.147,226.315l.087,10.419c.255-.014.511-.028.764-.044l-.087-10.436Z" transform="translate(-78.959 -223.465)" fill="#b6b8ba"/><path d="M140.839,226.178l.1,10.447c.255-.017.509-.039.763-.058l-.1-10.451Z" transform="translate(-79.318 -223.436)" fill="#b6b8ba"/><path d="M142.533,226.042l.1,10.453c.255-.02.512-.036.764-.058l-.106-10.457Z" transform="translate(-79.678 -223.407)" fill="#b6b8ba"/><path d="M144.224,225.906l.115,10.45c.255-.022.509-.046.763-.07l-.113-10.441Z" transform="translate(-80.036 -223.378)" fill="#b6b8ba"/><path d="M145.916,225.77l.124,10.434.763-.077-.122-10.419Z" transform="translate(-80.395 -223.349)" fill="#b6b8ba"/><path d="M147.607,225.633l.132,10.4c.255-.028.511-.054.764-.082l-.132-10.382Z" transform="translate(-80.754 -223.32)" fill="#b6b8ba"/><path d="M149.3,225.5l.14,10.362c.257-.03.509-.061.763-.093l-.14-10.33Z" transform="translate(-81.113 -223.291)" fill="#b6b8ba"/><path d="M150.989,225.36l.15,10.307c.255-.032.511-.064.763-.1l-.148-10.271Z" transform="translate(-81.471 -223.262)" fill="#b6b8ba"/><path d="M152.681,225.224l.157,10.238c.255-.035.511-.069.763-.1l-.155-10.2Z" transform="translate(-81.83 -223.233)" fill="#b6b8ba"/><path d="M154.373,225.088l.164,10.161c.257-.037.508-.076.763-.114l-.164-10.108Z" transform="translate(-82.189 -223.205)" fill="#b6b8ba"/><path d="M156.063,224.952l.172,10.068L157,234.9l-.172-10.013Z" transform="translate(-82.547 -223.176)" fill="#b6b8ba"/><path d="M157.753,224.816l.179,9.965.761-.124-.176-9.9Z" transform="translate(-82.906 -223.147)" fill="#b6b8ba"/><path d="M159.443,224.679l.185,9.853.763-.133-.185-9.781Z" transform="translate(-83.264 -223.118)" fill="#b6b8ba"/><path d="M161.133,224.543l.191,9.726.763-.138-.19-9.65Z" transform="translate(-83.622 -223.089)" fill="#b6b8ba"/><path d="M162.823,224.407l.2,9.588c.253-.047.512-.094.761-.142l-.2-9.508Z" transform="translate(-83.981 -223.06)" fill="#b6b8ba"/><path d="M164.511,224.271l.2,9.441.761-.15-.2-9.352Z" transform="translate(-84.339 -223.031)" fill="#b6b8ba"/><path d="M166.2,224.135l.207,9.283c.259-.053.507-.106.761-.159l-.2-9.185Z" transform="translate(-84.697 -223.002)" fill="#b6b8ba"/><path d="M167.889,224l.212,9.111.761-.163-.21-9.01Z" transform="translate(-85.055 -222.974)" fill="#b6b8ba"/><path d="M169.579,223.863l.214,8.929c.255-.056.512-.112.761-.168l-.214-8.823Z" transform="translate(-85.414 -222.945)" fill="#b6b8ba"/><path d="M171.267,223.727l.217,8.737c.254-.058.514-.116.761-.174l-.217-8.624Z" transform="translate(-85.772 -222.916)" fill="#b6b8ba"/><path d="M172.955,223.59l.221,8.535c.255-.06.514-.121.76-.18l-.217-8.416Z" transform="translate(-86.13 -222.887)" fill="#b6b8ba"/><path d="M174.643,223.455l.222,8.32c.256-.064.514-.127.76-.189l-.219-8.193Z" transform="translate(-86.488 -222.858)" fill="#b6b8ba"/><path d="M176.331,223.319l.224,8.093.76-.195-.221-7.96Z" transform="translate(-86.846 -222.829)" fill="#b6b8ba"/><path d="M178.019,223.183l.224,7.855c.256-.068.516-.136.758-.2l-.219-7.716Z" transform="translate(-87.204 -222.8)" fill="#b6b8ba"/><path d="M179.706,223.047l.223,7.6.758-.21-.217-7.457Z" transform="translate(-87.562 -222.772)" fill="#b6b8ba"/><path d="M181.391,222.911l.222,7.342c.27-.076.519-.148.759-.218l-.217-7.185Z" transform="translate(-87.919 -222.743)" fill="#b6b8ba"/><path d="M183.079,222.775l.219,7.063c.28-.083.535-.159.759-.228l-.215-6.9Z" transform="translate(-88.277 -222.714)" fill="#b6b8ba"/></g><path d="M169.281,39.418c-4.668-5.032-12.775-7.26-13.956-7.564,0-.011,0-.038,0-.038-7.139-2.788-36.558-10.2-36.558-10.2H96.9s-29.418,7.414-36.558,10.2c0,0-9.063,2.167-14.106,7.6L57.884,95.479c-1.042,31.895-1.88,67.545-1.2,85.868,0,0,17.332,7.23,51.151,6.5,33.818.73,51.151-6.5,51.151-6.5.68-18.442-.173-54.432-1.225-86.483Z" transform="translate(-45.85 -21.231)" fill="#fff"/><path d="M112.492,188.177h-.006c-1.572,0-3.175-.017-4.767-.051-1.577.034-3.181.051-4.75.051-30.41,0-46.382-6.516-46.539-6.581a.381.381,0,0,1-.235-.338c-.563-15.286-.158-44.169,1.2-85.849L45.755,39.393a.385.385,0,0,1,.094-.338c5.065-5.457,13.923-7.623,14.3-7.713,7.03-2.75,36.259-10.128,36.553-10.2a.339.339,0,0,1,.093-.013h21.869a.341.341,0,0,1,.094.013c.295.074,29.524,7.452,36.6,10.218a.362.362,0,0,1,.106.062c1.844.488,9.447,2.734,13.993,7.636a.386.386,0,0,1,.095.337l-11.515,55.4c1.379,42,1.79,71.087,1.224,86.464a.382.382,0,0,1-.236.338C158.869,181.661,142.9,188.177,112.492,188.177Zm-4.772-.815c1.6.034,3.2.051,4.767.052,28.291,0,43.985-5.652,46.02-6.434.553-15.43.137-44.429-1.235-86.207a.35.35,0,0,1,.009-.091l11.484-55.25c-4.654-4.893-12.724-7.076-13.637-7.31a.383.383,0,0,1-.178-.1c-7.127-2.736-35.018-9.794-36.334-10.125H96.84c-1.323.334-29.562,7.48-36.466,10.177-.139.036-8.9,2.181-13.831,7.362L58.156,95.3a.432.432,0,0,1,.007.09c-1.354,41.461-1.763,70.255-1.213,85.592,2.035.782,17.731,6.434,46.019,6.434C104.532,187.414,106.131,187.4,107.719,187.362Z" transform="translate(-45.747 -21.128)" fill="#dadbdc"/><g transform="translate(11.706 114.768)"><path d="M78.383,169.823s-6.979,27.6-17.3,40.421V200.9s9.78-17.005,12.442-33.628Z" transform="translate(-60.707 -166.893)" fill="#bf3976"/><path d="M60.985,210.524a.369.369,0,0,1-.126-.021.381.381,0,0,1-.255-.361V200.8a.388.388,0,0,1,.05-.191c.1-.169,9.775-17.138,12.4-33.5a.381.381,0,0,1,.555-.277l4.853,2.547a.382.382,0,0,1,.193.432c-.07.277-7.117,27.829-17.367,40.569A.385.385,0,0,1,60.985,210.524Zm.383-9.623v8.129c9.22-12.219,15.7-36.193,16.467-39.113l-4.116-2.16C71.062,183.475,62.128,199.554,61.368,200.9Z" transform="translate(-60.604 -166.79)" fill="#bf3976"/></g><g transform="translate(93.859 114.768)"><path d="M165.355,169.823s6.979,27.6,17.3,40.421V200.9s-9.78-17.005-12.442-33.628Z" transform="translate(-164.974 -166.892)" fill="#bf3976"/><path d="M182.548,210.524a.382.382,0,0,1-.3-.142c-10.25-12.74-17.3-40.291-17.367-40.569a.381.381,0,0,1,.192-.432l4.853-2.547a.378.378,0,0,1,.348,0,.385.385,0,0,1,.207.281c2.621,16.365,12.3,33.329,12.4,33.5a.387.387,0,0,1,.05.191v9.341a.382.382,0,0,1-.254.361A.376.376,0,0,1,182.548,210.524ZM165.7,169.917c.766,2.919,7.247,26.9,16.467,39.113V200.9c-.76-1.347-9.693-17.425-12.351-33.144Z" transform="translate(-164.871 -166.789)" fill="#bf3976"/></g><path d="M169.281,39.418c-4.668-5.032-12.775-7.26-13.956-7.564,0-.011,0-.038,0-.038-7.139-2.788-36.558-10.2-36.558-10.2H96.9s-29.418,7.414-36.558,10.2c0,0-9.063,2.167-14.106,7.6L57.884,95.479c-1.042,31.895-1.88,67.545-1.2,85.868,0,0,17.332,7.23,51.151,6.5,33.818.73,51.151-6.5,51.151-6.5.68-18.442-.173-54.432-1.225-86.483Zm-19.213,96.963c-3.213,39.551-38.612,54.073-63.673,42.1S61.186,95.875,61.186,95.875,49.34,46.389,48.384,42.222s10.7-7.106,10.7-7.106l5.541-.843s19.68,25.3,44.328,24.153,41.271-24.153,41.271-24.153C159.263,35,165.7,41.23,165.7,41.23l-12.228,53.5S153.28,96.831,150.068,136.382Z" transform="translate(-45.85 -21.231)" fill="#c3c5c6" opacity="0.5" style="mix-blend-mode:multiply;isolation:isolate"/></g></g><g transform="translate(56.511 3.666)"><path d="M154.925,26.39s-5.849-11.464-9.035-14.916c-2.283-2.474-19.531-6.486-25.5-7.005,0,0-.9-.1-2.426-.194-.953-.069-1.527-.1-1.527-.1l0,.028c-.983-.037-2.127-.058-3.373-.051s-2.391.014-3.375.051l0-.028s-.573.032-1.527.1c-1.525.091-2.425.194-2.425.194C99.77,4.988,82.522,9,80.239,11.474,77.053,14.926,71.2,26.39,71.2,26.39s10.865,19.1,41.45,25.385a1.141,1.141,0,0,0,.823,0C144.06,45.487,154.925,26.39,154.925,26.39Z" transform="translate(-70.822 -3.769)" fill="#bf3976"/><path d="M112.912,52.122h0a1.273,1.273,0,0,1-.481-.084C82.062,45.777,70.878,26.669,70.769,26.477a.381.381,0,0,1-.008-.362c.24-.47,5.91-11.551,9.095-15C82.318,8.443,100.08,4.467,105.6,3.986c.027,0,.917-.1,2.436-.195.953-.069,1.529-.1,1.529-.1a.378.378,0,0,1,.151.022c.892-.032,1.823-.047,2.77-.047h.954c.95,0,1.885.016,2.78.047a.34.34,0,0,1,.141-.022s.575.032,1.533.1c1.514.09,2.4.191,2.442.2,5.508.48,23.27,4.456,25.732,7.126,3.185,3.451,8.855,14.532,9.1,15a.384.384,0,0,1-.009.362c-.11.192-11.3,19.32-41.7,25.57A2.062,2.062,0,0,1,112.912,52.122Zm-.173-.783a.74.74,0,0,0,.173.019h0a1.374,1.374,0,0,0,.36-.054c28.536-5.868,39.921-23.1,41.113-25.031-.775-1.5-5.987-11.509-8.879-14.642-2.191-2.374-19.285-6.363-25.248-6.883-.02,0-.92-.1-2.416-.193-.685-.049-1.173-.08-1.394-.092a.3.3,0,0,1-.128.02c-.925-.034-1.895-.052-2.882-.052l-.475,0-.479,0c-.988,0-1.958.018-2.884.052a.307.307,0,0,1-.136-.02c-.225.013-.708.043-1.381.091-1.5.089-2.4.192-2.409.193-5.973.521-23.068,4.51-25.258,6.884-2.892,3.134-8.1,13.141-8.879,14.642C72.732,28.2,84.135,45.44,112.627,51.3a.376.376,0,0,1,.112.042Z" transform="translate(-70.719 -3.666)" fill="#bf3976"/><path d="M152.522,21.88c-2.147,4.5-6.045,8.234-9.842,11.28a63.272,63.272,0,0,1-7.572,5.5c-1.983,1.155-4.255,2.38-6.626,2.151a.426.426,0,0,1-.406-.532,12.221,12.221,0,0,1,3.016-4.366,47.067,47.067,0,0,0,4.311-5.34c.781-1.105,1.551-2.217,2.3-3.342a25.422,25.422,0,0,1-4.614,4.542c-.377.27-.733-.234-.574-.576,1.767-3.813,4.547-6.9,5.929-10.939.7-2.036,1.208-4.122,1.859-6.17a16.015,16.015,0,0,0,.986-4.854,115.684,115.684,0,0,0-20.895-4.767s-.9-.1-2.426-.194c-.953-.069-1.527-.1-1.527-.1l0,.028c-.983-.037-2.127-.058-3.373-.051s-2.391.014-3.375.051l0-.028s-.573.032-1.527.1c-1.525.091-2.425.194-2.425.194a111.884,111.884,0,0,0-22.367,5.31c-1.564,2.444.6,6.639,1.667,8.942a38.925,38.925,0,0,0,4.237,7.442,69.777,69.777,0,0,1,4.8,6.374.424.424,0,0,1-.574.576c-5.535-2.894-9.061-8.107-12.323-13.3a48.949,48.949,0,0,0,6.161,10.493,48.54,48.54,0,0,0,5.757,6.852,59.132,59.132,0,0,1,5.117,4.846c.253.295.02.847-.409.7-5.335-1.8-9.706-5.224-14.431-8.163a61.4,61.4,0,0,1-6.937-4.794c-1.634-1.366-3.132-2.889-4.776-4.239-.288.552-.455.879-.455.879s10.865,19.1,41.45,25.385a1.141,1.141,0,0,0,.823,0c30.583-6.288,41.449-25.385,41.449-25.385S153.922,24.425,152.522,21.88Z" transform="translate(-70.822 -3.769)" fill="#a7a9ab" opacity="0.7" style="mix-blend-mode:multiply;isolation:isolate"/><g transform="translate(12.586 0.881)"><path d="M143.057,11.215c-3.045-2.732-17.507-4.88-25.256-5.858a34.449,34.449,0,0,0-4.906,0c-7.748.978-22.211,3.126-25.255,5.858-4.077,3.657,19.987,34.32,27.376,39.013.115.072.225.14.332.2.106-.06.218-.128.332-.2C123.069,45.534,147.131,14.871,143.057,11.215Z" transform="translate(-86.796 -4.887)" fill="url(#a)"/><path d="M115.244,50.706a.38.38,0,0,1-.188-.05c-.112-.062-.228-.133-.348-.21-6.709-4.262-27.379-30.175-28-37.675a2.235,2.235,0,0,1,.574-1.945c3.089-2.773,17.279-4.92,25.462-5.953.528-.066,1.639-.09,2.5-.09s1.974.024,2.5.09c8.183,1.033,22.372,3.181,25.462,5.953a2.233,2.233,0,0,1,.574,1.945c-.622,7.5-21.293,33.414-28,37.674-.117.076-.236.147-.348.21A.38.38,0,0,1,115.244,50.706Zm0-45.158c-1.072,0-1.993.032-2.405.084C99.065,7.371,89.935,9.472,87.791,11.4a1.548,1.548,0,0,0-.321,1.313c.262,3.171,4.686,10.7,11.545,19.663,6.32,8.254,12.941,15.421,16.1,17.429l.126.079c.041-.025.084-.051.124-.078,3.163-2.008,9.785-9.176,16.106-17.43,6.858-8.958,11.283-16.493,11.545-19.663A1.543,1.543,0,0,0,142.7,11.4c-2.144-1.924-11.273-4.025-25.047-5.764C117.239,5.581,116.317,5.548,115.245,5.548Z" transform="translate(-86.693 -4.784)" fill="#dadbdc"/></g><g transform="translate(12.585 0.881)"><path d="M118.435,21.006a163.9,163.9,0,0,1,17.239,1.584c.991.165,1.978.351,2.963.548,3.714-5.819,5.881-10.612,4.42-11.924-3.045-2.732-17.507-4.88-25.256-5.858a34.449,34.449,0,0,0-4.906,0c-7.748.978-22.211,3.126-25.255,5.858-1.376,1.235.463,5.555,3.78,10.91C100.317,20.508,109.347,20.47,118.435,21.006Z" transform="translate(-86.795 -4.887)" fill="#4c4e50"/><path d="M138.533,23.418a.352.352,0,0,1-.076-.008c-.981-.2-1.963-.381-2.951-.545a153.422,153.422,0,0,0-16.136-1.518l-1.062-.062c-3.516-.207-6.674-.308-9.656-.308A95.97,95.97,0,0,0,91.385,22.4a.379.379,0,0,1-.394-.175c-3.944-6.369-5.158-10.1-3.709-11.4,3.089-2.773,17.279-4.92,25.462-5.953.528-.066,1.639-.09,2.5-.09s1.974.024,2.5.09c8.183,1.033,22.372,3.181,25.462,5.953,1.507,1.352.043,5.529-4.352,12.414A.382.382,0,0,1,138.533,23.418Zm-29.881-3.206c3,0,6.17.1,9.7.31l1.061.062a154.023,154.023,0,0,1,16.218,1.527c.908.151,1.815.32,2.719.5,5.666-8.932,4.762-10.841,4.345-11.214-2.144-1.924-11.273-4.025-25.047-5.764-.412-.052-1.334-.084-2.405-.084s-1.993.032-2.405.084C99.064,7.371,89.935,9.472,87.791,11.4c-.5.448-1.125,2.338,3.713,10.2A97.092,97.092,0,0,1,108.653,20.212Z" transform="translate(-86.692 -4.784)" fill="#404143"/></g><path d="M143.059,12.807l-.038-.03a19.178,19.178,0,0,1-3.627,5.63,9.317,9.317,0,0,1-5.419,3.122c-3.8.483-7.792-.257-11.61-.372-8.513-.257-16.984.2-25.49.125-2.457-.023-5.45-.278-6.934-2.553-.834-1.277-1.467-2.682-2.264-3.987-.167-.275-.327-.548-.481-.823-.429,6.6,20.934,33.526,27.821,37.9.115.072.225.14.332.2.106-.06.218-.128.332-.2C123.072,47.127,147.133,16.464,143.059,12.807ZM125.236,32.014a26.133,26.133,0,0,1-18.563.7c-3.345-1.238-9.1-2.95-9.883-7a.432.432,0,0,1,.294-.517c5.067-1.863,10.508-1.447,15.808-1.619a71.861,71.861,0,0,1,7.88.116c3.7-.14,7.381.046,10.773,1.571C135.609,27.088,126.507,31.5,125.236,32.014Z" transform="translate(-74.212 -5.598)" fill="url(#b)" style="mix-blend-mode:multiply;isolation:isolate"/><g transform="translate(2.444 14.312)"><path d="M83.156,21.83s9.478,21.222,27.475,30.8C110.631,52.631,92.232,40.41,83.156,21.83Z" transform="translate(-75.8 -21.83)" fill="#a7a9ab" opacity="0.5" style="mix-blend-mode:multiply;isolation:isolate"/><path d="M73.82,33.463a80.851,80.851,0,0,0,34.831,22.544A113.467,113.467,0,0,1,73.82,33.463Z" transform="translate(-73.82 -24.297)" fill="#a7a9ab" opacity="0.5" style="mix-blend-mode:multiply;isolation:isolate"/></g><g transform="translate(44.652 14.312)"><path d="M154.866,21.83s-9.478,21.222-27.476,30.8C127.39,52.631,145.79,40.41,154.866,21.83Z" transform="translate(-127.39 -21.83)" fill="#a7a9ab" opacity="0.5" style="mix-blend-mode:multiply;isolation:isolate"/><path d="M162.222,33.463A80.851,80.851,0,0,1,127.39,56.007,113.466,113.466,0,0,0,162.222,33.463Z" transform="translate(-127.39 -24.297)" fill="#a7a9ab" opacity="0.5" style="mix-blend-mode:multiply;isolation:isolate"/></g><g transform="translate(25.42 41.807)"><g transform="translate(4.307)"><path d="M113.71,59.6a2.389,2.389,0,1,1-2.389-2.388A2.388,2.388,0,0,1,113.71,59.6Z" transform="translate(-108.551 -56.83)" fill="url(#c)"/><path d="M111.218,62.268a2.77,2.77,0,1,1,2.771-2.77A2.773,2.773,0,0,1,111.218,62.268Zm0-4.776a2.006,2.006,0,1,0,2.007,2.006A2.009,2.009,0,0,0,111.218,57.491Z" transform="translate(-108.448 -56.727)" fill="#dadbdc"/></g><g transform="translate(0.861 60.345)"><path d="M104.559,133.8l.319,5.732h1.146l-.382-5.732Z" transform="translate(-104.177 -133.419)" fill="url(#d)"/><path d="M105.922,139.812h-1.146a.381.381,0,0,1-.381-.361l-.319-5.731a.381.381,0,0,1,.381-.4h1.083a.382.382,0,0,1,.381.357l.382,5.732a.382.382,0,0,1-.381.407Zm-.785-.763h.376l-.33-4.968h-.322Z" transform="translate(-104.074 -133.316)" fill="#dadbdc"/></g><g transform="translate(0 1.992)"><path d="M109.915,59.747a2.117,2.117,0,0,0-1.285,1.284c-.936,5.06-5.077,28.771-5.116,52.376,0,0-.3,4.829.847,5.466a1.469,1.469,0,0,0,1.788,0s.288-38.547,4.964-57.4C111.113,61.473,111.568,59.61,109.915,59.747Z" transform="translate(-103.087 -59.358)" fill="url(#d)"/><path d="M105.229,119.436h0a2.382,2.382,0,0,1-1.159-.332c-1.259-.7-1.116-4.634-1.042-5.823.039-23.748,4.273-47.835,5.121-52.421a.393.393,0,0,1,.024-.08,2.472,2.472,0,0,1,1.532-1.5,1.8,1.8,0,0,1,.273-.022,1.376,1.376,0,0,1,1.146.5,2.2,2.2,0,0,1,.255,1.709c-4.611,18.593-4.95,56.927-4.953,57.312a.387.387,0,0,1-.113.269A1.576,1.576,0,0,1,105.229,119.436Zm3.664-58.4c-.864,4.68-5.062,28.631-5.1,52.265-.137,2.23.072,4.81.65,5.132a1.439,1.439,0,0,0,1.222.134c.032-3.009.512-39.3,4.973-57.292a1.462,1.462,0,0,0-.115-1.056c-.044-.056-.212-.236-.679-.2A1.781,1.781,0,0,0,108.893,61.04Z" transform="translate(-102.982 -59.255)" fill="#dadbdc"/></g></g><g transform="translate(46.658 41.807)"><path d="M130.421,59.6a2.388,2.388,0,1,0,2.388-2.388A2.389,2.389,0,0,0,130.421,59.6Z" transform="translate(-130.039 -56.83)" fill="url(#f)"/><path d="M132.706,62.268a2.77,2.77,0,1,1,2.77-2.77A2.773,2.773,0,0,1,132.706,62.268Zm0-4.776a2.006,2.006,0,1,0,2.006,2.006A2.008,2.008,0,0,0,132.706,57.491Z" transform="translate(-129.936 -56.727)" fill="#dadbdc"/><g transform="translate(6.759 60.345)"><path d="M140.464,133.8l-.318,5.732H139l.382-5.732Z" transform="translate(-138.617 -133.419)" fill="url(#d)"/><path d="M140.043,139.812H138.9a.382.382,0,0,1-.381-.407l.382-5.732a.383.383,0,0,1,.381-.357h1.083a.383.383,0,0,1,.381.4l-.318,5.731A.382.382,0,0,1,140.043,139.812Zm-.737-.763h.377l.275-4.968h-.321Z" transform="translate(-138.514 -133.316)" fill="#dadbdc"/></g><g transform="translate(1.382 1.991)"><path d="M133.431,59.747a2.113,2.113,0,0,1,1.285,1.284c.937,5.06,5.078,28.771,5.117,52.376,0,0,.3,4.829-.848,5.466a1.47,1.47,0,0,1-1.789,0s-.288-38.547-4.963-57.4C132.234,61.473,131.778,59.61,133.431,59.747Z" transform="translate(-131.793 -59.357)" fill="url(#d)"/><path d="M137.909,119.436a1.576,1.576,0,0,1-1.084-.394.384.384,0,0,1-.113-.269c0-.384-.341-38.719-4.952-57.311a2.2,2.2,0,0,1,.255-1.71,1.426,1.426,0,0,1,1.346-.489,2.455,2.455,0,0,1,1.6,1.517.348.348,0,0,1,.024.079c.849,4.581,5.085,28.639,5.124,52.445.073,1.167.215,5.1-1.044,5.8A2.386,2.386,0,0,1,137.909,119.436Zm-.435-.865a1.433,1.433,0,0,0,1.222-.134c.578-.321.788-2.9.652-5.109-.039-23.691-4.239-47.614-5.1-52.288a1.753,1.753,0,0,0-1.023-1.028c.026.009-.02.006-.063.007a.611.611,0,0,0-.544.2,1.47,1.47,0,0,0-.114,1.058C136.963,79.267,137.442,115.562,137.474,118.571Z" transform="translate(-131.689 -59.254)" fill="#dadbdc"/></g></g><path d="M94.877,26.106a136,136,0,0,1,43.034.764S113.22,25.214,94.877,26.106Z" transform="translate(-75.842 -8.143)" fill="#dadbdc"/></g></g><rect width="295" height="207" transform="translate(390 2943)" fill="none"/></g></svg>