<svg xmlns="http://www.w3.org/2000/svg" width="610" height="714" viewBox="0 0 610 714"><g transform="translate(-6849 -5998)"><rect width="610" height="714" transform="translate(6849 5998)" fill="#fff"/><g transform="translate(6123.9 6812.131)"><path d="M902.419-499.646v244.162l5.365-11.321" transform="translate(-3.703 -10.994)" fill="none" stroke="#636262" stroke-miterlimit="10" stroke-width="2"/><circle cx="3.008" cy="3.008" r="3.008" transform="translate(818.895 -773.405)" fill="#636262"/><circle cx="3.008" cy="3.008" r="3.008" transform="translate(908.717 -771.496)" fill="#636262"/><circle cx="3.008" cy="3.008" r="3.008" transform="translate(921.402 -771.496)" fill="#636262"/><circle cx="3.008" cy="3.008" r="3.008" transform="translate(932.656 -770.405)" fill="#636262"/><circle cx="3.008" cy="3.008" r="3.008" transform="translate(961.573 -769.177)" fill="#636262"/><circle cx="3.008" cy="3.008" r="3.008" transform="translate(1020.108 -774.178)" fill="#636262"/><circle cx="3.008" cy="3.008" r="3.008" transform="translate(1091.243 -782.294)" fill="#636262"/><circle cx="3.008" cy="3.008" r="3.008" transform="translate(1100.109 -783.181)" fill="#636262"/><circle cx="3.008" cy="3.008" r="3.008" transform="translate(1106.565 -724.346)" fill="#636262"/><circle cx="3.008" cy="3.008" r="3.008" transform="translate(1142.583 -728.529)" fill="#636262"/><circle cx="3.008" cy="3.008" r="3.008" transform="translate(1070.835 -720.345)" fill="#636262"/><circle cx="3.008" cy="3.008" r="3.008" transform="translate(1109.111 -783.795)" fill="#636262"/><circle cx="3.008" cy="3.008" r="3.008" transform="translate(1180.382 -792.047)" fill="#636262"/><circle cx="3.008" cy="3.008" r="3.008" transform="translate(1194.159 -644.844)" fill="#636262"/><circle cx="3.008" cy="3.008" r="3.008" transform="translate(1040.66 -620.701)" fill="#636262"/><circle cx="3.008" cy="3.008" r="3.008" transform="translate(1063.757 -410.383)" fill="#636262"/><circle cx="3.008" cy="3.008" r="3.008" transform="translate(1038.585 -139.947)" fill="#636262"/><circle cx="3.008" cy="3.008" r="3.008" transform="translate(1244.181 -139.068)" fill="#636262"/><circle cx="3.008" cy="3.008" r="3.008" transform="translate(1097.752 -130.293)" fill="#636262"/><circle cx="3.008" cy="3.008" r="3.008" transform="translate(1139.688 -128.232)" fill="#636262"/><circle cx="3.008" cy="3.008" r="3.008" transform="translate(1185.054 -129.852)" fill="#636262"/><circle cx="3.008" cy="3.008" r="3.008" transform="translate(1225.441 -410.383)" fill="#636262"/><circle cx="3.008" cy="3.008" r="3.008" transform="translate(1210.937 -626.976)" fill="#636262"/><circle cx="3.008" cy="3.008" r="3.008" transform="translate(1250.289 -615.177)" fill="#636262"/><circle cx="3.008" cy="3.008" r="3.008" transform="translate(963.142 -649.527)" fill="#636262"/><circle cx="3.008" cy="3.008" r="3.008" transform="translate(990.281 -619.791)" fill="#636262"/><circle cx="3.008" cy="3.008" r="3.008" transform="translate(804.773 -619.791)" fill="#636262"/><circle cx="3.008" cy="3.008" r="3.008" transform="translate(960.454 -409.42)" fill="#636262"/><circle cx="3.008" cy="3.008" r="3.008" transform="translate(830.78 -409.42)" fill="#636262"/><circle cx="3.008" cy="3.008" r="3.008" transform="translate(987.057 -140.173)" fill="#636262"/><circle cx="3.008" cy="3.008" r="3.008" transform="translate(803.936 -140.222)" fill="#636262"/><circle cx="3.008" cy="3.008" r="3.008" transform="translate(848.105 -133.257)" fill="#636262"/><circle cx="3.008" cy="3.008" r="3.008" transform="translate(894.373 -130.438)" fill="#636262"/><circle cx="3.008" cy="3.008" r="3.008" transform="translate(941.864 -132.416)" fill="#636262"/><text transform="translate(872.974 -531.888) rotate(90)" font-size="15" font-family="Roboto-Regular, Roboto"><tspan x="0" y="0">Pernera del</tspan></text><text transform="translate(1163.039 -535.202) rotate(90)" font-size="15" font-family="Roboto-Regular, Roboto"><tspan x="0" y="0">Pernera pos1</tspan></text><line y1="8.184" x2="72.491" transform="translate(1073.843 -725.521)" fill="none" stroke="#636262" stroke-miterlimit="10" stroke-width="2"/><path d="M1105.592-778.261l14.861,57.3-5.995-58.744" transform="translate(-11.342 -0.464)" fill="none" stroke="#636262" stroke-miterlimit="10" stroke-width="2"/><line x1="2.546" y2="59.358" transform="translate(1109.573 -780.787)" fill="none" stroke="#636262" stroke-miterlimit="10" stroke-width="2"/><path d="M1151.963-648.8v386.295l6.229-11.867" transform="translate(-13.085 -5.386)" fill="none" stroke="#636262" stroke-miterlimit="10" stroke-width="2"/><path d="M993.407-615.7c-25.826-3.638-28.008-29.463-28.008-29.463v-120.4l-53.834-1.818-89.845-2.183S807.9-623.335,807.9-617.879c0,5.213,23.912,194.748,26.038,211.589l.41.237-.078.177-.312-.255c-.025.685-.038,1.049-.038,1.049L807.062-136.368c105.776,22.455,183.569-.025,183.569-.025s-21.01-196.329-27.051-269.423C969.4-478.929,993.407-615.7,993.407-615.7Z" transform="translate(-0.118 -0.846)" fill="none" stroke="#636262" stroke-miterlimit="10" stroke-width="2"/><path d="M1237.012-407.5c.021-190.394,26.189-204.57,26.189-204.57-54.743-7.093-57.29-30.69-57.29-30.69l-13.822-146.453-160.41,17.824,20.733,154.713,22.91,209.35.9.427q-.053.345-.084.712l-.775-.526-24.92,269.929s54.717,17.806,145.971,9.423l.1.619,11.975-1.862c14.911-1.7,30.705-4.086,47.329-7.359l-18.807-271.3-.006-.043-.452.291c0-.092,0-.184,0-.277Z" transform="translate(-8.563 -0.107)" fill="none" stroke="#636262" stroke-miterlimit="10" stroke-width="2"/></g></g></svg>