<svg xmlns="http://www.w3.org/2000/svg" width="505" height="331" viewBox="0 0 505 331"><g transform="translate(-285 -2662)"><g transform="translate(-207.042 925.387)"><path d="M936.578,1862.509H917.66v-1.419h18.919Zm-37.838,0H879.82v-1.419h18.92Zm-37.838,0h-18.92v-1.419H860.9Zm-37.84,0h-18.92v-1.419h18.92Zm-37.838,0H766.3v-1.419h18.92Zm-37.84,0H728.465v-1.419h18.919Zm-37.838,0h-18.92v-1.419h18.92Zm-37.84,0H652.787v-1.419h18.919Zm-37.838,0h-18.92v-1.419h18.92Zm-37.838,0h-18.92v-1.419h18.92Z" transform="translate(8.841 32.805)" fill="red"/><path d="M592.849,2013.14c-11.9,0-22-.463-28.725-1.616l-.589-.1V1794.966l.669-.039c.292-.016,29.178-2.139,37.513-42.538l.149-.723,96.22,23.722-.238.727c-.239.726-23.512,72.91-2.495,101.9,5.772,7.963,14.467,12,25.841,12h.709v115.2l-.64.063C720.28,2005.377,641.522,2013.14,592.849,2013.14Zm-27.9-2.917c33.527,5.393,145.979-5.363,155.531-6.292v-112.5c-11.508-.166-20.347-4.4-26.28-12.58-20.538-28.335-.52-94.321,2.06-102.45l-93.309-23c-8.022,37.378-33.528,42.3-38,42.876Z" transform="translate(5.252 3.878)"/><rect width="1.419" height="148.065" transform="translate(647.262 1815.965)"/><path d="M869.327,2008.474H702.567V1894.33l.659-.048c7.7-.559,14.175-4.108,19.235-10.55,24.355-31,9.8-119.6,9.648-120.487l-.111-.664,95.315-21.126.277.288c11.991,12.472,40.744,12.776,41.032,12.779l.706,0Zm-165.34-1.419H867.908V1755.928c-4.612-.109-29.458-1.244-41.061-12.915l-93.229,20.663c1.435,8.875,13.847,90.525-10.041,120.932-5.174,6.586-11.762,10.294-19.59,11.034Z" transform="translate(42.007 1.178)"/><rect width="1.419" height="152.013" transform="translate(827.245 1805.107)"/><g transform="translate(933.482 1766.522)"><path d="M857.985,1956.8a9.693,9.693,0,0,1,.728,4.042c0,4.315-2.726,7.539-7.743,7.539a7.6,7.6,0,0,1-8.016-7.993,8.776,8.776,0,0,1,.657-3.633l1.635.5a7.018,7.018,0,0,0-.636,3.066c0,3.587,2.295,5.972,6.292,5.972,3.746,0,6.131-2.157,6.131-5.859a7.947,7.947,0,0,0-.636-3.247Z" transform="translate(-842.364 -1708.428)" fill="red"/><path d="M852.456,1955.791a3.5,3.5,0,0,0,3.792-3.746,7.143,7.143,0,0,0-.568-3.043l1.431-.363a8.959,8.959,0,0,1,.7,3.678c0,3.362-2.249,5.405-5.54,5.405-3.315,0-5.927-1.976-5.927-5.177,0-3.587,3.156-4.519,5.177-4.519a4.84,4.84,0,0,1,.931.068Zm-1.43-5.835c-1.272-.023-3.248.522-3.248,2.748,0,2.043,1.862,2.907,3.248,3.065Z" transform="translate(-841.466 -1710.736)" fill="red"/><path d="M849.572,1948.025c-1.158,0-2.066.023-2.974.091v-1.771l1.794-.114v-.044a4.071,4.071,0,0,1-2.044-3.634c0-1.522.908-3.883,4.678-3.883h6.562v2h-6.336c-1.77,0-3.27.659-3.27,2.544a2.883,2.883,0,0,0,2.043,2.679,2.97,2.97,0,0,0,.932.137h6.63v2Z" transform="translate(-841.466 -1713.209)" fill="red"/><path d="M844.463,1934.869H847.1v-2.86h1.521v2.86h5.9c1.362,0,2.133-.386,2.133-1.5a3.737,3.737,0,0,0-.135-1.158l1.521-.09a5.432,5.432,0,0,1,.273,1.77,2.849,2.849,0,0,1-.841,2.157,4.287,4.287,0,0,1-2.884.772h-5.971v1.7H847.1v-1.7h-2.022Z" transform="translate(-841.965 -1714.97)" fill="red"/><path d="M850.026,1931.367c-1.293,0-2.406.023-3.428.091v-1.749l2.157-.091v-.068a3.325,3.325,0,0,1-2.407-3.066,4.3,4.3,0,0,1,.044-.545h1.886a5.442,5.442,0,0,0-.046.682,2.8,2.8,0,0,0,2.543,2.68,6.372,6.372,0,0,0,.932.067h5.88v2Z" transform="translate(-841.466 -1716.574)" fill="red"/><path d="M857.837,1922.146c0,2.952-2.178,5.267-5.653,5.267-3.679,0-5.836-2.429-5.836-5.449,0-3.156,2.293-5.29,5.631-5.29,4.088,0,5.858,2.837,5.858,5.449Zm-1.5-.091c0-1.908-1.794-3.338-4.292-3.338-1.862,0-4.2.93-4.2,3.292,0,2.339,2.18,3.361,4.27,3.361,2.406,0,4.224-1.363,4.224-3.292Z" transform="translate(-841.466 -1719.023)" fill="red"/><path d="M852.456,1911.6a3.5,3.5,0,0,0,3.792-3.746,7.139,7.139,0,0,0-.568-3.043l1.431-.363a8.954,8.954,0,0,1,.7,3.678c0,3.361-2.249,5.4-5.54,5.4-3.315,0-5.927-1.975-5.927-5.176,0-3.588,3.156-4.519,5.177-4.519a4.743,4.743,0,0,1,.931.068Zm-1.43-5.836c-1.272-.022-3.248.522-3.248,2.749,0,2.043,1.862,2.905,3.248,3.065Z" transform="translate(-841.466 -1722.418)" fill="red"/><path d="M855.545,1903.5a5.651,5.651,0,0,0,.771-2.656c0-1.431-.7-2.113-1.635-2.113-.953,0-1.453.568-2,2.022-.727,2-1.817,2.93-3.112,2.93-1.77,0-3.224-1.454-3.224-3.793a5.116,5.116,0,0,1,.68-2.679l1.431.477a4.506,4.506,0,0,0-.636,2.248c0,1.181.682,1.817,1.5,1.817.908,0,1.316-.636,1.884-2.066.7-1.885,1.659-2.884,3.294-2.884,1.952,0,3.315,1.521,3.315,4.087a6.272,6.272,0,0,1-.772,3.089Z" transform="translate(-841.466 -1724.278)" fill="red"/><path d="M850.185,1896.947c-1.409,0-2.543.023-3.587.091v-1.794l1.884-.114v-.044a4.244,4.244,0,0,1-2.134-3.884c0-2.679,2.248-4.677,5.586-4.677,3.951,0,5.9,2.43,5.9,5a3.83,3.83,0,0,1-1.725,3.384v.045h5.972v2Zm2.93-2a3.2,3.2,0,0,0,.817-.091,3.056,3.056,0,0,0,2.339-2.974c0-2.113-1.725-3.339-4.246-3.339-2.2,0-4.088,1.135-4.088,3.248a3.187,3.187,0,0,0,2.476,3.042,4.756,4.756,0,0,0,.794.114Z" transform="translate(-841.466 -1726.994)" fill="red"/><path d="M854.954,1878.461a18.581,18.581,0,0,0,2.634-.159v1.794l-1.386.181v.068a4.06,4.06,0,0,1,1.635,3.361,3.131,3.131,0,0,1-3.156,3.361c-2.656,0-4.11-2.362-4.087-6.607h-.228a2.257,2.257,0,0,0-2.544,2.5,5.3,5.3,0,0,0,.818,2.884l-1.34.454a7.112,7.112,0,0,1-.953-3.633c0-3.384,2.293-4.2,4.5-4.2Zm-2.975,1.952c-.046,2.18.34,4.656,2.474,4.656a1.751,1.751,0,0,0,1.908-1.863,2.774,2.774,0,0,0-1.84-2.7,2.04,2.04,0,0,0-.636-.091Z" transform="translate(-841.466 -1729.167)" fill="red"/><path d="M842.487,1876.314v-2h16.122v2Z" transform="translate(-842.487 -1730.221)" fill="red"/><path d="M842.487,1864.171H855.77c.976,0,2.089-.023,2.838-.091v1.794l-1.908.091v.046a4.028,4.028,0,0,1,2.157,3.723c0,2.656-2.247,4.722-5.586,4.722-3.678.024-5.9-2.27-5.9-4.927a3.653,3.653,0,0,1,1.657-3.315v-.045h-6.539Zm9.605,2a3.71,3.71,0,0,0-.864.091,2.942,2.942,0,0,0-2.292,2.884c0,2.067,1.816,3.292,4.222,3.292,2.249,0,4.089-1.113,4.089-3.247a3.026,3.026,0,0,0-2.407-2.929,3.177,3.177,0,0,0-.841-.091Z" transform="translate(-842.487 -1732.927)" fill="red"/><path d="M854.954,1855.441a18.581,18.581,0,0,0,2.634-.159v1.794l-1.386.181v.068a4.06,4.06,0,0,1,1.635,3.361,3.131,3.131,0,0,1-3.156,3.361c-2.656,0-4.11-2.362-4.087-6.607h-.228a2.257,2.257,0,0,0-2.544,2.5,5.3,5.3,0,0,0,.818,2.884l-1.34.454a7.112,7.112,0,0,1-.953-3.633c0-3.384,2.293-4.2,4.5-4.2Zm-2.975,1.952c-.046,2.18.34,4.656,2.474,4.656a1.751,1.751,0,0,0,1.908-1.863,2.774,2.774,0,0,0-1.84-2.7,2.04,2.04,0,0,0-.636-.091Z" transform="translate(-841.466 -1735.253)" fill="red"/><path d="M842.774,1845.658a15.044,15.044,0,0,0,9.31,2.839,15.377,15.377,0,0,0,9.2-2.839v1.544a14.67,14.67,0,0,1-9.219,2.975,15.04,15.04,0,0,1-9.288-2.975Z" transform="translate(-842.411 -1737.797)" fill="red"/><path d="M852.456,1844.7a3.5,3.5,0,0,0,3.792-3.748,7.133,7.133,0,0,0-.568-3.042l1.431-.364a8.965,8.965,0,0,1,.7,3.679c0,3.361-2.249,5.4-5.54,5.4-3.315,0-5.927-1.976-5.927-5.177,0-3.587,3.156-4.518,5.177-4.518a4.858,4.858,0,0,1,.931.067Zm-1.43-5.836c-1.272-.023-3.248.522-3.248,2.748,0,2.043,1.862,2.906,3.248,3.066Z" transform="translate(-841.466 -1740.104)" fill="red"/><path d="M845.591,1834.289a1.187,1.187,0,0,1-1.226,1.2,1.2,1.2,0,0,1-1.249-1.248,1.238,1.238,0,1,1,2.476.023Zm16.076,3.906a3.188,3.188,0,0,0-.84-2.18c-.615-.546-1.5-.772-4.133-.772h-9.241v-2h10.012c2.135,0,3.521.34,4.52,1.316a5.072,5.072,0,0,1,1.248,3.406Z" transform="translate(-842.321 -1741.139)" fill="red"/><path d="M852.456,1831.337a3.5,3.5,0,0,0,3.792-3.746,7.144,7.144,0,0,0-.568-3.043l1.431-.363a8.959,8.959,0,0,1,.7,3.678c0,3.361-2.249,5.405-5.54,5.405-3.315,0-5.927-1.976-5.927-5.177,0-3.588,3.156-4.519,5.177-4.519a4.864,4.864,0,0,1,.931.068Zm-1.43-5.835c-1.272-.024-3.248.522-3.248,2.747,0,2.043,1.862,2.907,3.248,3.065Z" transform="translate(-841.466 -1743.636)" fill="red"/><path d="M846.546,1818.926l6.154-2.157c1.02-.364,1.929-.659,2.839-.886v-.068c-.909-.249-1.818-.568-2.839-.931l-6.154-2.134v-2.089l10.99,4.314v1.907l-10.99,4.179Z" transform="translate(-841.414 -1747.049)" fill="red"/><path d="M852.456,1810.077a3.5,3.5,0,0,0,3.792-3.746,7.139,7.139,0,0,0-.568-3.043l1.431-.363a8.953,8.953,0,0,1,.7,3.678c0,3.361-2.249,5.4-5.54,5.4-3.315,0-5.927-1.975-5.927-5.176,0-3.588,3.156-4.519,5.177-4.519a4.84,4.84,0,0,1,.931.068Zm-1.43-5.836c-1.272-.023-3.248.522-3.248,2.749,0,2.043,1.862,2.905,3.248,3.065Z" transform="translate(-841.466 -1749.256)" fill="red"/><path d="M850.026,1801.49c-1.293,0-2.406.023-3.428.091v-1.749l2.157-.09v-.07a3.323,3.323,0,0,1-2.407-3.065,4.286,4.286,0,0,1,.044-.545h1.886a5.408,5.408,0,0,0-.046.681,2.8,2.8,0,0,0,2.543,2.679,6.2,6.2,0,0,0,.932.068h5.88v2Z" transform="translate(-841.466 -1750.908)" fill="red"/><path d="M844.463,1792.747H847.1v-2.861h1.521v2.861h5.9c1.362,0,2.133-.386,2.133-1.5a3.732,3.732,0,0,0-.135-1.158l1.521-.091a5.438,5.438,0,0,1,.273,1.771,2.852,2.852,0,0,1-.841,2.157,4.294,4.294,0,0,1-2.884.771h-5.971v1.7H847.1v-1.7h-2.022Z" transform="translate(-841.965 -1752.541)" fill="red"/><path d="M845.591,1787.621a1.188,1.188,0,0,1-1.226,1.2,1.238,1.238,0,1,1,1.226-1.226Zm12.852.953h-10.99v-2h10.99Z" transform="translate(-842.321 -1753.476)" fill="red"/><path d="M857.18,1777.72a7.735,7.735,0,0,1,.636,3.157,5.222,5.222,0,0,1-5.61,5.472,5.6,5.6,0,0,1-5.858-5.9,6.3,6.3,0,0,1,.59-2.77l1.521.454a4.9,4.9,0,0,0-.522,2.316c0,2.52,1.884,3.883,4.155,3.883a3.768,3.768,0,0,0,4.11-3.814,5.727,5.727,0,0,0-.522-2.453Z" transform="translate(-841.466 -1755.768)" fill="red"/><path d="M854.954,1769.772a18.4,18.4,0,0,0,2.634-.159v1.794l-1.386.182v.067a4.062,4.062,0,0,1,1.635,3.362,3.131,3.131,0,0,1-3.156,3.361c-2.656,0-4.11-2.362-4.087-6.609h-.228a2.259,2.259,0,0,0-2.544,2.5,5.3,5.3,0,0,0,.818,2.884l-1.34.454a7.116,7.116,0,0,1-.953-3.634c0-3.382,2.293-4.2,4.5-4.2Zm-2.975,1.954c-.046,2.18.34,4.654,2.474,4.654a1.75,1.75,0,0,0,1.908-1.861,2.776,2.776,0,0,0-1.84-2.7,2.082,2.082,0,0,0-.636-.09Z" transform="translate(-841.466 -1757.9)" fill="red"/><path d="M842.487,1767.626v-2h16.122v2Z" transform="translate(-842.487 -1758.953)" fill="red"/><path d="M861.28,1764.866a15.446,15.446,0,0,0-9.264-2.837,15.273,15.273,0,0,0-9.242,2.837v-1.544a14.65,14.65,0,0,1,9.242-2.974,15.025,15.025,0,0,1,9.264,2.974Z" transform="translate(-842.411 -1760.349)" fill="red"/></g><g transform="translate(529.666 1780.429)"><path d="M559.362,1954.455a9.7,9.7,0,0,1,.728,4.041c0,4.315-2.726,7.539-7.743,7.539a7.6,7.6,0,0,1-8.016-7.992,8.776,8.776,0,0,1,.658-3.634l1.635.5a7.017,7.017,0,0,0-.636,3.066c0,3.587,2.295,5.972,6.291,5.972,3.746,0,6.13-2.157,6.13-5.859a7.949,7.949,0,0,0-.635-3.247Z" transform="translate(-543.49 -1722.954)" fill="red"/><path d="M553.833,1953.45a3.5,3.5,0,0,0,3.792-3.748,7.143,7.143,0,0,0-.568-3.043l1.431-.363a8.965,8.965,0,0,1,.7,3.679c0,3.361-2.249,5.4-5.54,5.4-3.315,0-5.927-1.976-5.927-5.178,0-3.587,3.156-4.519,5.178-4.519a4.861,4.861,0,0,1,.931.068Zm-1.431-5.836c-1.271-.023-3.247.522-3.247,2.748,0,2.043,1.862,2.907,3.247,3.065Z" transform="translate(-542.593 -1725.261)" fill="red"/><path d="M550.949,1945.683c-1.158,0-2.066.023-2.974.091V1944l1.793-.114v-.044a4.07,4.07,0,0,1-2.043-3.634c0-1.521.908-3.883,4.677-3.883h6.563v2h-6.336c-1.77,0-3.27.659-3.27,2.542a2.883,2.883,0,0,0,2.043,2.679,2.97,2.97,0,0,0,.932.136h6.63v2Z" transform="translate(-542.593 -1727.734)" fill="red"/><path d="M545.84,1932.528h2.634v-2.861h1.521v2.861h5.9c1.362,0,2.133-.387,2.133-1.5a3.737,3.737,0,0,0-.135-1.159l1.521-.09a5.431,5.431,0,0,1,.273,1.771,2.852,2.852,0,0,1-.841,2.157,4.292,4.292,0,0,1-2.884.771h-5.972v1.7h-1.521v-1.7h-2.022Z" transform="translate(-543.091 -1729.495)" fill="red"/><path d="M551.4,1929.025c-1.293,0-2.406.023-3.428.091v-1.749l2.157-.091v-.068a3.325,3.325,0,0,1-2.407-3.065,4.249,4.249,0,0,1,.044-.545h1.886a5.38,5.38,0,0,0-.047.681,2.8,2.8,0,0,0,2.544,2.679,6.373,6.373,0,0,0,.932.067h5.88v2Z" transform="translate(-542.593 -1731.1)" fill="red"/><path d="M559.214,1919.8c0,2.952-2.178,5.269-5.654,5.269-3.678,0-5.835-2.43-5.835-5.451,0-3.156,2.294-5.29,5.632-5.29,4.088,0,5.858,2.838,5.858,5.449Zm-1.5-.091c0-1.908-1.794-3.338-4.292-3.338-1.862,0-4.2.93-4.2,3.292,0,2.339,2.18,3.361,4.27,3.361,2.406,0,4.224-1.362,4.224-3.292Z" transform="translate(-542.593 -1733.549)" fill="red"/><path d="M560.038,1909.572h-9.469v1.521h-1.521v-1.521h-.523a5.193,5.193,0,0,1-3.837-1.295,3.807,3.807,0,0,1-1.022-2.656,4.537,4.537,0,0,1,.319-1.7l1.542.25a3.122,3.122,0,0,0-.249,1.295c0,1.68,1.5,2.134,3.18,2.134h.59v-2.658h1.521v2.635h9.469Z" transform="translate(-543.666 -1736.302)" fill="red"/><path d="M551.4,1904.425c-1.293,0-2.406.023-3.428.091v-1.749l2.157-.09v-.069a3.324,3.324,0,0,1-2.407-3.065,4.252,4.252,0,0,1,.044-.545h1.886a5.4,5.4,0,0,0-.047.681,2.8,2.8,0,0,0,2.544,2.679,6.174,6.174,0,0,0,.932.068h5.88v2Z" transform="translate(-542.593 -1737.603)" fill="red"/><path d="M553.833,1898.324a3.5,3.5,0,0,0,3.792-3.746,7.139,7.139,0,0,0-.568-3.043l1.431-.363a8.954,8.954,0,0,1,.7,3.678c0,3.361-2.249,5.4-5.54,5.4-3.315,0-5.927-1.975-5.927-5.176,0-3.588,3.156-4.519,5.178-4.519a4.841,4.841,0,0,1,.931.068Zm-1.431-5.836c-1.271-.023-3.247.522-3.247,2.749,0,2.043,1.862,2.907,3.247,3.065Z" transform="translate(-542.593 -1739.834)" fill="red"/><path d="M550.949,1890.558c-1.158,0-2.066.023-2.974.091v-1.771l1.793-.114v-.045a4.07,4.07,0,0,1-2.043-3.632c0-1.522.908-3.883,4.677-3.883h6.563v2h-6.336c-1.77,0-3.27.659-3.27,2.543a2.886,2.886,0,0,0,2.043,2.68,2.971,2.971,0,0,0,.932.135h6.63v2Z" transform="translate(-542.593 -1742.307)" fill="red"/><path d="M545.84,1877.4h2.634v-2.861h1.521v2.861h5.9c1.362,0,2.133-.385,2.133-1.5a3.728,3.728,0,0,0-.135-1.158l1.521-.091a5.432,5.432,0,0,1,.273,1.771,2.851,2.851,0,0,1-.841,2.157,4.3,4.3,0,0,1-2.884.772h-5.972v1.7h-1.521v-1.7h-2.022Z" transform="translate(-543.091 -1744.068)" fill="red"/><path d="M553.833,1873.6a3.5,3.5,0,0,0,3.792-3.746,7.138,7.138,0,0,0-.568-3.043l1.431-.363a8.951,8.951,0,0,1,.7,3.678c0,3.361-2.249,5.4-5.54,5.4-3.315,0-5.927-1.975-5.927-5.176,0-3.588,3.156-4.519,5.178-4.519a4.766,4.766,0,0,1,.931.068Zm-1.431-5.836c-1.271-.023-3.247.522-3.247,2.749,0,2.043,1.862,2.906,3.247,3.065Z" transform="translate(-542.593 -1746.371)" fill="red"/><path d="M544.151,1856.658a15.044,15.044,0,0,0,9.309,2.837,15.387,15.387,0,0,0,9.2-2.837v1.544a14.678,14.678,0,0,1-9.218,2.974,15.046,15.046,0,0,1-9.288-2.974Z" transform="translate(-543.538 -1748.796)" fill="red"/><path d="M553.833,1855.7a3.5,3.5,0,0,0,3.792-3.746,7.139,7.139,0,0,0-.568-3.043l1.431-.363a8.957,8.957,0,0,1,.7,3.678c0,3.361-2.249,5.405-5.54,5.405-3.315,0-5.927-1.976-5.927-5.177,0-3.588,3.156-4.519,5.178-4.519a4.841,4.841,0,0,1,.931.068Zm-1.431-5.836c-1.271-.023-3.247.523-3.247,2.749,0,2.043,1.862,2.907,3.247,3.065Z" transform="translate(-542.593 -1751.103)" fill="red"/><path d="M546.968,1845.288a1.188,1.188,0,0,1-1.226,1.2,1.205,1.205,0,0,1-1.249-1.249,1.238,1.238,0,0,1,2.476.023Zm16.076,3.906a3.19,3.19,0,0,0-.84-2.18c-.614-.545-1.5-.772-4.133-.772H548.83v-2h10.012c2.135,0,3.521.34,4.52,1.318a5.07,5.07,0,0,1,1.248,3.406Z" transform="translate(-543.448 -1752.138)" fill="red"/><path d="M553.833,1842.337a3.5,3.5,0,0,0,3.792-3.747,7.133,7.133,0,0,0-.568-3.042l1.431-.363a8.954,8.954,0,0,1,.7,3.678c0,3.361-2.249,5.4-5.54,5.4-3.315,0-5.927-1.975-5.927-5.177,0-3.587,3.156-4.518,5.178-4.518a4.961,4.961,0,0,1,.931.067ZM552.4,1836.5c-1.271-.023-3.247.522-3.247,2.748,0,2.044,1.862,2.907,3.247,3.066Z" transform="translate(-542.593 -1754.635)" fill="red"/><path d="M547.923,1829.925l6.154-2.157c1.02-.363,1.929-.657,2.839-.885v-.068c-.909-.25-1.818-.568-2.839-.932l-6.154-2.134v-2.089l10.99,4.314v1.908l-10.99,4.178Z" transform="translate(-542.541 -1758.048)" fill="red"/><path d="M553.833,1821.077a3.5,3.5,0,0,0,3.792-3.748,7.142,7.142,0,0,0-.568-3.043l1.431-.363a8.962,8.962,0,0,1,.7,3.678c0,3.362-2.249,5.405-5.54,5.405-3.315,0-5.927-1.976-5.927-5.177,0-3.587,3.156-4.519,5.178-4.519a4.864,4.864,0,0,1,.931.068Zm-1.431-5.836c-1.271-.023-3.247.522-3.247,2.747,0,2.043,1.862,2.907,3.247,3.065Z" transform="translate(-542.593 -1760.255)" fill="red"/><path d="M551.4,1812.489c-1.293,0-2.406.023-3.428.091v-1.749l2.157-.09v-.07a3.323,3.323,0,0,1-2.407-3.065,4.274,4.274,0,0,1,.044-.545h1.886a5.4,5.4,0,0,0-.047.681,2.8,2.8,0,0,0,2.544,2.679,6.205,6.205,0,0,0,.932.068h5.88v2Z" transform="translate(-542.593 -1761.907)" fill="red"/><path d="M545.84,1803.746h2.634v-2.86h1.521v2.86h5.9c1.362,0,2.133-.385,2.133-1.5a3.733,3.733,0,0,0-.135-1.158l1.521-.091a5.438,5.438,0,0,1,.273,1.771,2.849,2.849,0,0,1-.841,2.157,4.287,4.287,0,0,1-2.884.772h-5.972v1.7h-1.521v-1.7h-2.022Z" transform="translate(-543.091 -1763.539)" fill="red"/><path d="M546.968,1798.62a1.189,1.189,0,0,1-1.226,1.2,1.238,1.238,0,1,1,1.226-1.228Zm12.852.955H548.83v-2h10.99Z" transform="translate(-543.448 -1764.474)" fill="red"/><path d="M558.557,1788.721a7.734,7.734,0,0,1,.636,3.156,5.223,5.223,0,0,1-5.61,5.473,5.6,5.6,0,0,1-5.858-5.9,6.3,6.3,0,0,1,.591-2.77l1.521.454a4.9,4.9,0,0,0-.522,2.316c0,2.521,1.884,3.883,4.155,3.883a3.768,3.768,0,0,0,4.11-3.815,5.74,5.74,0,0,0-.522-2.453Z" transform="translate(-542.593 -1766.767)" fill="red"/><path d="M556.331,1780.772a18.441,18.441,0,0,0,2.634-.159v1.794l-1.386.181v.068a4.059,4.059,0,0,1,1.635,3.361,3.131,3.131,0,0,1-3.156,3.361c-2.656,0-4.11-2.362-4.086-6.608h-.228a2.257,2.257,0,0,0-2.544,2.5,5.3,5.3,0,0,0,.818,2.884l-1.34.454a7.111,7.111,0,0,1-.953-3.632c0-3.384,2.294-4.2,4.5-4.2Zm-2.975,1.952c-.046,2.18.34,4.655,2.474,4.655a1.751,1.751,0,0,0,1.908-1.862,2.774,2.774,0,0,0-1.84-2.7,2.04,2.04,0,0,0-.636-.091Z" transform="translate(-542.593 -1768.899)" fill="red"/><path d="M543.864,1778.626v-2h16.122v2Z" transform="translate(-543.614 -1769.952)" fill="red"/><path d="M562.657,1775.867a15.446,15.446,0,0,0-9.264-2.839,15.273,15.273,0,0,0-9.242,2.839v-1.544a14.643,14.643,0,0,1,9.242-2.975,15.017,15.017,0,0,1,9.264,2.975Z" transform="translate(-543.538 -1771.348)" fill="red"/></g><g transform="translate(623.74 1872.351)"><path d="M610.265,1852.468l-1.429,4.33H607l4.676-13.765h2.145l4.7,13.765h-1.9l-1.47-4.33Zm4.513-1.389-1.369-3.961c-.285-.9-.489-1.716-.694-2.512h-.061c-.184.8-.408,1.653-.673,2.491l-1.349,3.982Z" transform="translate(-606.998 -1842.297)" fill="red"/><path d="M618.849,1842.386h1.8v14.5h-1.8Z" transform="translate(-605.373 -1842.386)" fill="red"/><path d="M625.386,1844.362v2.369h2.573v1.368h-2.573v5.31c0,1.225.348,1.92,1.347,1.92a3.346,3.346,0,0,0,1.042-.123l.082,1.368a4.887,4.887,0,0,1-1.593.246,2.563,2.563,0,0,1-1.94-.755,3.863,3.863,0,0,1-.695-2.594V1848.1H622.1v-1.368h1.532v-1.817Z" transform="translate(-604.928 -1842.115)" fill="red"/><path d="M637.308,1853.613c0,1.041.021,1.94.082,2.716H635.8l-.1-1.613h-.041a3.692,3.692,0,0,1-3.267,1.838c-1.552,0-3.411-.878-3.411-4.329v-5.78h1.8v5.453c0,1.878.592,3.166,2.206,3.166a2.584,2.584,0,0,0,2.369-1.655,2.456,2.456,0,0,0,.163-.919v-6.045h1.8Z" transform="translate(-603.985 -1841.829)" fill="red"/><path d="M638.934,1849.556c0-1.164-.02-2.165-.082-3.084h1.573l.082,1.94h.061a2.989,2.989,0,0,1,2.756-2.165,3.433,3.433,0,0,1,.49.042v1.694a5.125,5.125,0,0,0-.613-.041,2.519,2.519,0,0,0-2.41,2.288,5.554,5.554,0,0,0-.06.837v5.29h-1.8Z" transform="translate(-602.631 -1841.857)" fill="red"/><path d="M651.764,1853.987a16.741,16.741,0,0,0,.142,2.37h-1.612l-.165-1.246h-.06a3.655,3.655,0,0,1-3.024,1.47,2.816,2.816,0,0,1-3.021-2.838c0-2.389,2.123-3.7,5.943-3.677v-.2a2.031,2.031,0,0,0-2.247-2.288,4.758,4.758,0,0,0-2.593.734l-.409-1.2a6.406,6.406,0,0,1,3.267-.859c3.044,0,3.78,2.063,3.78,4.045Zm-1.757-2.674c-1.96-.042-4.187.306-4.187,2.225a1.575,1.575,0,0,0,1.675,1.716,2.5,2.5,0,0,0,2.431-1.655,1.869,1.869,0,0,0,.081-.572Z" transform="translate(-601.921 -1841.857)" fill="red"/><path d="M665.789,1842.386v11.947c0,.879.02,1.88.082,2.554h-1.612l-.082-1.716h-.042a3.622,3.622,0,0,1-3.349,1.94c-2.389,0-4.247-2.022-4.247-5.024-.022-3.308,2.042-5.31,4.431-5.31a3.289,3.289,0,0,1,2.981,1.491h.04v-5.881Zm-1.8,8.639a3.319,3.319,0,0,0-.081-.776,2.646,2.646,0,0,0-2.594-2.063c-1.858,0-2.961,1.634-2.961,3.8,0,2.022,1,3.676,2.92,3.676a2.72,2.72,0,0,0,2.635-2.165,2.845,2.845,0,0,0,.081-.755Z" transform="translate(-600.205 -1842.386)" fill="red"/><path d="M668.4,1851.74a3.146,3.146,0,0,0,3.369,3.411,6.436,6.436,0,0,0,2.737-.51l.326,1.287a8.056,8.056,0,0,1-3.308.632,4.61,4.61,0,0,1-4.86-4.983c0-2.982,1.776-5.331,4.655-5.331,3.227,0,4.065,2.839,4.065,4.656a4.348,4.348,0,0,1-.062.837Zm5.248-1.286c.022-1.144-.47-2.92-2.471-2.92-1.838,0-2.613,1.675-2.756,2.92Z" transform="translate(-598.817 -1841.857)" fill="red"/><path d="M679.934,1854.518a5.082,5.082,0,0,0,2.39.695c1.286,0,1.9-.633,1.9-1.47,0-.859-.51-1.308-1.818-1.8-1.8-.654-2.634-1.633-2.634-2.8,0-1.593,1.307-2.9,3.41-2.9a4.591,4.591,0,0,1,2.409.613l-.429,1.287a4.043,4.043,0,0,0-2.022-.572c-1.062,0-1.634.613-1.634,1.348,0,.817.572,1.185,1.858,1.7,1.7.633,2.594,1.491,2.594,2.961,0,1.757-1.368,2.982-3.675,2.982a5.622,5.622,0,0,1-2.777-.695Z" transform="translate(-597.057 -1841.857)" fill="red"/><path d="M688.094,1845.241a1.069,1.069,0,0,1-1.084-1.1,1.113,1.113,0,1,1,1.1,1.1Zm-.857,11.559v-9.885h1.8v9.885Z" transform="translate(-596.028 -1842.3)" fill="red"/><path d="M691.246,1854.518a5.079,5.079,0,0,0,2.39.695c1.285,0,1.9-.633,1.9-1.47,0-.859-.511-1.308-1.817-1.8-1.8-.654-2.635-1.633-2.635-2.8,0-1.593,1.308-2.9,3.41-2.9a4.6,4.6,0,0,1,2.411.613l-.429,1.287a4.043,4.043,0,0,0-2.023-.572c-1.061,0-1.633.613-1.633,1.348,0,.817.572,1.185,1.858,1.7,1.7.633,2.594,1.491,2.594,2.961,0,1.757-1.368,2.982-3.676,2.982a5.622,5.622,0,0,1-2.777-.695Z" transform="translate(-595.506 -1841.857)" fill="red"/><path d="M705.578,1853.987a16.732,16.732,0,0,0,.142,2.37h-1.613l-.164-1.246h-.061a3.654,3.654,0,0,1-3.022,1.47,2.815,2.815,0,0,1-3.021-2.838c0-2.389,2.123-3.7,5.941-3.677v-.2a2.03,2.03,0,0,0-2.246-2.288,4.762,4.762,0,0,0-2.594.734l-.408-1.2a6.4,6.4,0,0,1,3.267-.859c3.044,0,3.779,2.063,3.779,4.045Zm-1.757-2.674c-1.959-.042-4.186.306-4.186,2.225a1.574,1.574,0,0,0,1.674,1.716,2.5,2.5,0,0,0,2.431-1.655,1.837,1.837,0,0,0,.081-.572Z" transform="translate(-594.543 -1841.857)" fill="red"/><path d="M714.884,1842.674a13.528,13.528,0,0,0-2.553,8.373,13.826,13.826,0,0,0,2.553,8.271H713.5a13.206,13.206,0,0,1-2.676-8.292,13.528,13.528,0,0,1,2.676-8.352Z" transform="translate(-592.763 -1842.346)" fill="red"/><path d="M717.188,1851.74a3.146,3.146,0,0,0,3.37,3.411,6.434,6.434,0,0,0,2.736-.51l.326,1.287a8.055,8.055,0,0,1-3.308.632,4.61,4.61,0,0,1-4.86-4.983c0-2.982,1.776-5.331,4.656-5.331,3.226,0,4.064,2.839,4.064,4.656a4.348,4.348,0,0,1-.062.837Zm5.248-1.286c.022-1.144-.47-2.92-2.47-2.92-1.839,0-2.614,1.675-2.757,2.92Z" transform="translate(-592.128 -1841.857)" fill="red"/><path d="M722.94,1859.7a2.875,2.875,0,0,0,1.962-.756c.489-.551.694-1.347.694-3.716v-8.312h1.8v9.006c0,1.921-.306,3.166-1.184,4.064a4.558,4.558,0,0,1-3.063,1.124Zm3.513-14.458a1.069,1.069,0,0,1-1.081-1.1,1.082,1.082,0,0,1,1.122-1.124,1.113,1.113,0,0,1-.019,2.226Z" transform="translate(-591.101 -1842.3)" fill="red"/><path d="M730.548,1851.74a3.145,3.145,0,0,0,3.369,3.411,6.444,6.444,0,0,0,2.737-.51l.326,1.287a8.065,8.065,0,0,1-3.308.632,4.611,4.611,0,0,1-4.861-4.983c0-2.982,1.777-5.331,4.656-5.331,3.227,0,4.064,2.839,4.064,4.656a4.26,4.26,0,0,1-.063.837Zm5.248-1.286c.021-1.144-.47-2.92-2.471-2.92-1.838,0-2.614,1.675-2.758,2.92Z" transform="translate(-590.296 -1841.857)" fill="red"/><path d="M742.244,1842.386h1.8v6.168h.041a3.2,3.2,0,0,1,1.286-1.266,3.5,3.5,0,0,1,1.837-.512c1.328,0,3.451.818,3.451,4.228v5.882h-1.8v-5.7c0-1.593-.591-2.921-2.288-2.921a2.6,2.6,0,0,0-2.409,1.8,2.169,2.169,0,0,0-.122.857v5.964h-1.8Z" transform="translate(-588.455 -1842.386)" fill="red"/><path d="M756.318,1856.581c-2.654,0-4.737-1.961-4.737-5.085,0-3.308,2.185-5.249,4.9-5.249,2.838,0,4.759,2.063,4.759,5.066,0,3.675-2.553,5.268-4.9,5.268Zm.082-1.348c1.716,0,3-1.614,3-3.86,0-1.674-.838-3.777-2.961-3.777-2.1,0-3.022,1.96-3.022,3.839,0,2.165,1.225,3.8,2.961,3.8Z" transform="translate(-587.175 -1841.857)" fill="red"/><path d="M762.078,1849.556c0-1.164-.022-2.165-.082-3.084h1.573l.082,1.94h.061a2.988,2.988,0,0,1,2.756-2.165,3.462,3.462,0,0,1,.49.042v1.694a5.126,5.126,0,0,0-.613-.041,2.519,2.519,0,0,0-2.409,2.288,5.551,5.551,0,0,0-.061.837v5.29h-1.8Z" transform="translate(-585.747 -1841.857)" fill="red"/><path d="M768.9,1845.241a1.069,1.069,0,0,1-1.083-1.1,1.113,1.113,0,1,1,1.1,1.1Zm-.857,11.559v-9.885h1.8v9.885Z" transform="translate(-584.949 -1842.3)" fill="red"/><path d="M771.224,1855.288l4.474-5.821c.448-.552.837-1.021,1.307-1.552v-.04h-5.371v-1.43h7.536v1.124l-4.432,5.758c-.408.531-.816,1.042-1.266,1.533v.04h5.78v1.43h-8.027Z" transform="translate(-584.481 -1841.829)" fill="red"/><path d="M783.881,1856.581c-2.654,0-4.737-1.961-4.737-5.085,0-3.308,2.186-5.249,4.9-5.249,2.838,0,4.758,2.063,4.758,5.066,0,3.675-2.553,5.268-4.9,5.268Zm.082-1.348c1.716,0,3-1.614,3-3.86,0-1.674-.837-3.777-2.96-3.777-2.1,0-3.023,1.96-3.023,3.839,0,2.165,1.226,3.8,2.962,3.8Z" transform="translate(-583.396 -1841.857)" fill="red"/><path d="M789.641,1849.148c0-1.042-.022-1.859-.083-2.676h1.593l.1,1.614h.041a3.661,3.661,0,0,1,3.268-1.839c1.368,0,3.491.817,3.491,4.207v5.9h-1.8v-5.7c0-1.593-.592-2.94-2.288-2.94a2.593,2.593,0,0,0-2.41,1.838,2.7,2.7,0,0,0-.122.837v5.964h-1.8Z" transform="translate(-581.968 -1841.857)" fill="red"/><path d="M801.824,1844.362v2.369H804.4v1.368h-2.573v5.31c0,1.225.348,1.92,1.349,1.92a3.346,3.346,0,0,0,1.042-.123l.081,1.368a4.879,4.879,0,0,1-1.592.246,2.563,2.563,0,0,1-1.94-.755,3.856,3.856,0,0,1-.7-2.594V1848.1h-1.531v-1.368h1.531v-1.817Z" transform="translate(-580.737 -1842.115)" fill="red"/><path d="M812.525,1853.987a16.925,16.925,0,0,0,.142,2.37h-1.612l-.164-1.246h-.061a3.654,3.654,0,0,1-3.022,1.47,2.815,2.815,0,0,1-3.021-2.838c0-2.389,2.123-3.7,5.941-3.677v-.2a2.03,2.03,0,0,0-2.246-2.288,4.758,4.758,0,0,0-2.593.734l-.409-1.2a6.4,6.4,0,0,1,3.267-.859c3.044,0,3.779,2.063,3.779,4.045Zm-1.756-2.674c-1.96-.042-4.187.306-4.187,2.225a1.575,1.575,0,0,0,1.675,1.716,2.5,2.5,0,0,0,2.43-1.655,1.837,1.837,0,0,0,.082-.572Z" transform="translate(-579.88 -1841.857)" fill="red"/><path d="M814.123,1842.386h1.8v14.5h-1.8Z" transform="translate(-578.6 -1842.386)" fill="red"/><path d="M817.409,1859.318a13.893,13.893,0,0,0,2.553-8.333,13.732,13.732,0,0,0-2.553-8.311H818.8a13.172,13.172,0,0,1,2.676,8.311,13.514,13.514,0,0,1-2.676,8.333Z" transform="translate(-578.149 -1842.346)" fill="red"/></g><g transform="translate(591.101 1913.049)"><path d="M581.183,1876.239H588.4v1.45h-5.465v4.45h5.047v1.431h-5.047v6.06h-1.749Z" transform="translate(-581.183 -1876.239)"/><path d="M588.413,1882.271c0-1.133-.019-2.106-.08-3h1.531l.078,1.889H590a2.908,2.908,0,0,1,2.683-2.106,3.473,3.473,0,0,1,.477.039v1.65a4.878,4.878,0,0,0-.6-.041,2.453,2.453,0,0,0-2.344,2.227,5.487,5.487,0,0,0-.059.814v5.146h-1.749Z" transform="translate(-579.293 -1875.495)"/><path d="M594.517,1884.4a3.06,3.06,0,0,0,3.278,3.318,6.253,6.253,0,0,0,2.663-.5l.317,1.252a7.808,7.808,0,0,1-3.219.617,4.486,4.486,0,0,1-4.729-4.849c0-2.9,1.728-5.186,4.53-5.186,3.139,0,3.955,2.761,3.955,4.53a4.212,4.212,0,0,1-.061.816Zm5.107-1.253c.019-1.113-.459-2.841-2.406-2.841a2.881,2.881,0,0,0-2.682,2.841Z" transform="translate(-578.105 -1875.495)"/><path d="M601.267,1881.874c0-1.014-.02-1.809-.081-2.6h1.551l.1,1.57h.039a3.565,3.565,0,0,1,3.18-1.788c1.331,0,3.4.8,3.4,4.093v5.743H607.7v-5.543c0-1.55-.575-2.863-2.224-2.863a2.522,2.522,0,0,0-2.345,1.789,2.592,2.592,0,0,0-.12.814v5.8h-1.747Z" transform="translate(-575.895 -1875.495)"/><path d="M612.243,1877.4v2.3h2.5v1.333h-2.5v5.166c0,1.192.336,1.867,1.311,1.867a3.26,3.26,0,0,0,1.014-.119l.078,1.332a4.761,4.761,0,0,1-1.549.239,2.5,2.5,0,0,1-1.888-.736,3.757,3.757,0,0,1-.677-2.524v-5.226h-1.489v-1.333h1.489v-1.767Z" transform="translate(-573.818 -1875.932)"/><path d="M616.154,1884.4a3.061,3.061,0,0,0,3.278,3.318,6.26,6.26,0,0,0,2.664-.5l.317,1.252a7.813,7.813,0,0,1-3.219.617,4.487,4.487,0,0,1-4.73-4.849c0-2.9,1.73-5.186,4.531-5.186,3.139,0,3.954,2.761,3.954,4.53a4.336,4.336,0,0,1-.059.816Zm5.107-1.253c.02-1.113-.458-2.841-2.4-2.841a2.88,2.88,0,0,0-2.682,2.841Z" transform="translate(-572.385 -1875.495)"/></g><g transform="translate(679.167 2042.663)"><path d="M637.58,2002.068h-5.323v4.956h5.955v1.488h-7.749v-13.746h7.443v1.489h-5.649v4.345h5.323Z" transform="translate(-630.463 -1994.032)" fill="#8f2b58"/><path d="M638.858,2011.406a2.864,2.864,0,0,0,1.958-.755c.489-.55.692-1.345.692-3.711v-8.3h1.8v8.994c0,1.918-.306,3.162-1.183,4.059a4.557,4.557,0,0,1-3.059,1.121Zm3.509-14.44a1.066,1.066,0,0,1-1.081-1.1,1.082,1.082,0,0,1,1.122-1.122,1.111,1.111,0,0,1-.021,2.222Z" transform="translate(-631.292 -1994.03)" fill="#8f2b58"/><path d="M647.991,2004.3a3.141,3.141,0,0,0,3.366,3.406,6.441,6.441,0,0,0,2.733-.509l.325,1.284a8.035,8.035,0,0,1-3.3.633,4.6,4.6,0,0,1-4.853-4.976c0-2.979,1.774-5.324,4.651-5.324,3.222,0,4.058,2.835,4.058,4.65a4.3,4.3,0,0,1-.062.837Zm5.242-1.284c.02-1.143-.47-2.917-2.468-2.917-1.836,0-2.61,1.673-2.753,2.917Z" transform="translate(-632.023 -1994.432)" fill="#8f2b58"/><path d="M671.63,1993.952v11.931c0,.877.022,1.876.082,2.549H670.1l-.081-1.712h-.041a3.617,3.617,0,0,1-3.345,1.937c-2.386,0-4.241-2.019-4.241-5.016-.021-3.3,2.039-5.3,4.425-5.3a3.282,3.282,0,0,1,2.978,1.489h.041v-5.873Zm-1.794,8.627a3.328,3.328,0,0,0-.081-.775,2.643,2.643,0,0,0-2.59-2.059c-1.856,0-2.957,1.631-2.957,3.793,0,2.019,1,3.671,2.915,3.671a2.717,2.717,0,0,0,2.632-2.162,2.845,2.845,0,0,0,.081-.754Z" transform="translate(-633.616 -1993.952)" fill="#8f2b58"/><path d="M676.889,2004.3a3.141,3.141,0,0,0,3.364,3.406,6.436,6.436,0,0,0,2.733-.509l.326,1.284a8.035,8.035,0,0,1-3.3.633,4.6,4.6,0,0,1-4.853-4.976c0-2.979,1.774-5.324,4.65-5.324,3.222,0,4.058,2.835,4.058,4.65a4.313,4.313,0,0,1-.061.837Zm5.241-1.284c.021-1.143-.469-2.917-2.467-2.917-1.836,0-2.611,1.673-2.754,2.917Z" transform="translate(-634.876 -1994.432)" fill="#8f2b58"/><path d="M693.023,2004.3a3.14,3.14,0,0,0,3.365,3.406,6.435,6.435,0,0,0,2.733-.509l.325,1.284a8.032,8.032,0,0,1-3.3.633,4.6,4.6,0,0,1-4.852-4.976c0-2.979,1.773-5.324,4.65-5.324,3.222,0,4.058,2.835,4.058,4.65a4.3,4.3,0,0,1-.062.837Zm5.241-1.284c.02-1.143-.469-2.917-2.467-2.917-1.836,0-2.611,1.673-2.754,2.917Z" transform="translate(-636.469 -1994.432)" fill="#8f2b58"/><path d="M703.1,2007.077a5.073,5.073,0,0,0,2.388.693c1.283,0,1.9-.632,1.9-1.468,0-.856-.51-1.305-1.816-1.794-1.794-.653-2.631-1.632-2.631-2.794,0-1.592,1.306-2.9,3.407-2.9a4.579,4.579,0,0,1,2.406.612l-.429,1.285a4.041,4.041,0,0,0-2.019-.571c-1.06,0-1.631.612-1.631,1.346,0,.816.571,1.182,1.856,1.693,1.693.632,2.59,1.488,2.59,2.957,0,1.754-1.366,2.978-3.671,2.978a5.619,5.619,0,0,1-2.773-.694Z" transform="translate(-637.593 -1994.432)" fill="#8f2b58"/><path d="M719.338,2008.545a6.937,6.937,0,0,1-2.834.571,4.689,4.689,0,0,1-4.915-5.037,5.031,5.031,0,0,1,5.3-5.262,5.637,5.637,0,0,1,2.488.531l-.407,1.366a4.4,4.4,0,0,0-2.081-.469,3.426,3.426,0,0,0-3.487,3.732,3.384,3.384,0,0,0,3.427,3.692,5.136,5.136,0,0,0,2.2-.469Z" transform="translate(-638.473 -1994.432)" fill="#8f2b58"/><path d="M729.387,2006.546a16.57,16.57,0,0,0,.142,2.366h-1.611l-.163-1.244h-.061a3.648,3.648,0,0,1-3.018,1.468,2.812,2.812,0,0,1-3.018-2.834c0-2.387,2.121-3.691,5.935-3.671v-.2a2.027,2.027,0,0,0-2.243-2.285,4.752,4.752,0,0,0-2.59.735l-.408-1.2a6.4,6.4,0,0,1,3.263-.856c3.039,0,3.773,2.06,3.773,4.039Zm-1.754-2.671c-1.958-.041-4.181.306-4.181,2.223a1.572,1.572,0,0,0,1.673,1.712,2.493,2.493,0,0,0,2.427-1.651,1.87,1.87,0,0,0,.081-.572Z" transform="translate(-639.468 -1994.432)" fill="#8f2b58"/><path d="M733.426,1993.952h1.8v14.479h-1.8Z" transform="translate(-640.63 -1993.952)" fill="#8f2b58"/><path d="M745.635,2006.546a16.56,16.56,0,0,0,.142,2.366h-1.61l-.163-1.244h-.061a3.648,3.648,0,0,1-3.018,1.468,2.812,2.812,0,0,1-3.018-2.834c0-2.387,2.121-3.691,5.935-3.671v-.2a2.027,2.027,0,0,0-2.243-2.285,4.752,4.752,0,0,0-2.59.735l-.408-1.2a6.4,6.4,0,0,1,3.264-.856c3.039,0,3.773,2.06,3.773,4.039Zm-1.754-2.671c-1.958-.041-4.181.306-4.181,2.223a1.572,1.572,0,0,0,1.673,1.712,2.493,2.493,0,0,0,2.427-1.651,1.868,1.868,0,0,0,.081-.572Z" transform="translate(-641.072 -1994.432)" fill="#8f2b58"/><path d="M758.12,1993.952v11.931c0,.877.021,1.876.081,2.549H756.59l-.082-1.712h-.041a3.618,3.618,0,0,1-3.345,1.937c-2.387,0-4.241-2.019-4.241-5.016-.022-3.3,2.039-5.3,4.425-5.3a3.281,3.281,0,0,1,2.977,1.489h.041v-5.873Zm-1.8,8.627a3.332,3.332,0,0,0-.081-.775,2.642,2.642,0,0,0-2.59-2.059c-1.856,0-2.957,1.631-2.957,3.793,0,2.019,1,3.671,2.917,3.671a2.717,2.717,0,0,0,2.631-2.162,2.848,2.848,0,0,0,.081-.754Z" transform="translate(-642.156 -1993.952)" fill="#8f2b58"/><path d="M766.376,2009.136c-2.651,0-4.731-1.958-4.731-5.078,0-3.3,2.182-5.242,4.895-5.242,2.834,0,4.751,2.06,4.751,5.058,0,3.671-2.55,5.262-4.894,5.262Zm.082-1.345c1.713,0,3-1.612,3-3.855,0-1.673-.836-3.773-2.957-3.773-2.1,0-3.018,1.958-3.018,3.834,0,2.162,1.224,3.794,2.958,3.794Z" transform="translate(-643.416 -1994.432)" fill="#8f2b58"/></g><g transform="translate(840.509 1912.333)"><path d="M785.379,1883.352h-5.186v4.829H786v1.45h-7.552v-13.392H785.7v1.45h-5.5v4.232h5.186Z" transform="translate(-778.444 -1875.523)"/><path d="M786.042,1887.1a4.946,4.946,0,0,0,2.325.675c1.252,0,1.847-.616,1.847-1.43,0-.834-.5-1.272-1.769-1.75-1.749-.636-2.563-1.588-2.563-2.721,0-1.552,1.272-2.822,3.319-2.822a4.468,4.468,0,0,1,2.344.6l-.417,1.253a3.933,3.933,0,0,0-1.967-.558c-1.033,0-1.589.6-1.589,1.313,0,.794.556,1.152,1.807,1.649,1.65.616,2.524,1.45,2.524,2.881,0,1.709-1.33,2.9-3.577,2.9a5.483,5.483,0,0,1-2.7-.677Z" transform="translate(-776.546 -1874.78)"/><path d="M792.383,1882.41c0-1.233-.02-2.225-.081-3.141h1.572l.1,1.65h.041a3.709,3.709,0,0,1,3.4-1.867c2.345,0,4.094,1.967,4.094,4.888,0,3.458-2.127,5.166-4.372,5.166a3.35,3.35,0,0,1-2.961-1.51h-.039v5.226h-1.749Zm1.749,2.563a2.833,2.833,0,0,0,.078.716,2.678,2.678,0,0,0,2.6,2.047c1.847,0,2.921-1.511,2.921-3.716,0-1.928-.994-3.577-2.842-3.577a2.787,2.787,0,0,0-2.661,2.166,4.123,4.123,0,0,0-.1.7Z" transform="translate(-774.781 -1874.78)"/><path d="M808.242,1886.583a16.251,16.251,0,0,0,.138,2.3H806.81l-.159-1.211h-.059a3.552,3.552,0,0,1-2.941,1.43,2.74,2.74,0,0,1-2.941-2.761c0-2.325,2.066-3.6,5.783-3.577v-.2a1.976,1.976,0,0,0-2.187-2.225,4.644,4.644,0,0,0-2.524.716l-.4-1.172a6.225,6.225,0,0,1,3.179-.834c2.961,0,3.678,2.007,3.678,3.933Zm-1.709-2.6c-1.908-.04-4.074.3-4.074,2.165a1.533,1.533,0,0,0,1.63,1.67,2.429,2.429,0,0,0,2.364-1.61,1.808,1.808,0,0,0,.08-.557Z" transform="translate(-772.558 -1874.78)"/><path d="M808.881,1875.673h1.747v14.108h-1.747Z" transform="translate(-770.398 -1875.673)"/><path d="M821.041,1875.673V1887.3c0,.855.019,1.828.078,2.483H819.55l-.078-1.669h-.042a3.523,3.523,0,0,1-3.258,1.888c-2.325,0-4.132-1.968-4.132-4.888-.021-3.219,1.986-5.166,4.311-5.166a3.2,3.2,0,0,1,2.9,1.45h.039v-5.723Zm-1.749,8.406a3.259,3.259,0,0,0-.08-.755,2.576,2.576,0,0,0-2.525-2.008c-1.807,0-2.88,1.589-2.88,3.7,0,1.969.975,3.578,2.841,3.578a2.647,2.647,0,0,0,2.564-2.106,2.8,2.8,0,0,0,.08-.736Z" transform="translate(-769.563 -1875.673)"/><path d="M828.386,1886.583a16.06,16.06,0,0,0,.139,2.3h-1.57l-.159-1.211h-.058a3.556,3.556,0,0,1-2.942,1.43,2.74,2.74,0,0,1-2.941-2.761c0-2.325,2.067-3.6,5.783-3.577v-.2a1.975,1.975,0,0,0-2.186-2.225,4.641,4.641,0,0,0-2.524.716l-.4-1.172a6.23,6.23,0,0,1,3.18-.834c2.961,0,3.677,2.007,3.677,3.933Zm-1.708-2.6c-1.908-.04-4.074.3-4.074,2.165a1.532,1.532,0,0,0,1.629,1.67,2.428,2.428,0,0,0,2.364-1.61,1.772,1.772,0,0,0,.081-.557Z" transform="translate(-767.233 -1874.78)"/></g><path d="M834.757,2044.973h-1.419v-5.265h1.419Zm0-24.183h-1.419v-18.92h1.419Zm0-37.84h-1.419v-18.918h1.419Zm0-37.838h-1.419v-18.92h1.419Zm0-37.84h-1.419v-18.919h1.419Zm0-37.838h-1.419v-18.92h1.419Zm0-37.838h-1.419v-18.92h1.419Zm0-37.84h-1.419v-18.92h1.419Zm0-37.838h-1.419V1737h1.419Z" transform="translate(76.577 0)" fill="red"/><path d="M564.954,2044.973h-1.419v-5.265h1.419Zm0-24.183h-1.419v-18.92h1.419Zm0-37.84h-1.419v-18.918h1.419Zm0-37.838h-1.419v-18.92h1.419Zm0-37.84h-1.419v-18.919h1.419Zm0-37.838h-1.419v-18.92h1.419Zm0-37.838h-1.419v-18.92h1.419Zm0-37.84h-1.419v-18.92h1.419Zm0-37.838h-1.419V1737h1.419Z" transform="translate(5.252 0)" fill="red"/></g><rect width="505" height="331" transform="translate(285 2662)" fill="none"/></g></svg>