<svg xmlns="http://www.w3.org/2000/svg" width="610" height="714" viewBox="0 0 610 714"><g transform="translate(-6849 -4928)"><rect width="610" height="714" transform="translate(6849 4928)" fill="#fff"/><g transform="translate(6854.067 5888.667)"><g transform="translate(291.048 -936.049)"><circle cx="2.994" cy="2.994" r="2.994" transform="translate(0 17.785)" fill="#636262"/><circle cx="2.994" cy="2.994" r="2.994" transform="translate(70.801 9.707)" fill="#636262"/><circle cx="2.994" cy="2.994" r="2.994" transform="translate(79.626 8.825)" fill="#636262"/><circle cx="2.994" cy="2.994" r="2.994" transform="translate(86.052 67.384)" fill="#636262"/><circle cx="2.994" cy="2.994" r="2.994" transform="translate(121.901 63.221)" fill="#636262"/><circle cx="2.994" cy="2.994" r="2.994" transform="translate(50.489 71.367)" fill="#636262"/><circle cx="2.994" cy="2.994" r="2.994" transform="translate(88.586 8.214)" fill="#636262"/><circle cx="2.994" cy="2.994" r="2.994" transform="translate(159.523)" fill="#636262"/><circle cx="2.994" cy="2.994" r="2.994" transform="translate(173.235 146.513)" fill="#636262"/><circle cx="2.994" cy="2.994" r="2.994" transform="translate(20.455 170.543)" fill="#636262"/><circle cx="2.994" cy="2.994" r="2.994" transform="translate(43.445 379.875)" fill="#636262"/><circle cx="2.994" cy="2.994" r="2.994" transform="translate(18.39 649.044)" fill="#636262"/><circle cx="2.994" cy="2.994" r="2.994" transform="translate(223.022 649.919)" fill="#636262"/><circle cx="2.994" cy="2.994" r="2.994" transform="translate(77.279 658.653)" fill="#636262"/><circle cx="2.994" cy="2.994" r="2.994" transform="translate(164.173 659.091)" fill="#636262"/><circle cx="2.994" cy="2.994" r="2.994" transform="translate(204.37 379.875)" fill="#636262"/><circle cx="2.994" cy="2.994" r="2.994" transform="translate(121.758 416.607)" fill="#636262"/><circle cx="2.994" cy="2.994" r="2.994" transform="translate(114.336 429.007)" fill="#636262"/><circle cx="2.994" cy="2.994" r="2.994" transform="translate(127.6 428.266)" fill="#636262"/><circle cx="2.994" cy="2.994" r="2.994" transform="translate(189.934 164.298)" fill="#636262"/><circle cx="2.994" cy="2.994" r="2.994" transform="translate(229.102 176.042)" fill="#636262"/><text transform="translate(142.195 255.641) rotate(90)" font-size="15" font-family="Roboto-Regular, Roboto"><tspan x="0" y="0">Pernera pos1</tspan></text><text transform="translate(155.303 519.619) rotate(83.645)" font-size="13" font-family="Roboto-Regular, Roboto"><tspan x="0" y="0">Pernera pos</tspan></text><line y1="8.146" x2="72.151" transform="translate(53.483 66.215)" fill="none" stroke="#636262" stroke-miterlimit="10" stroke-width="2"/><path d="M377.677-922.27l14.791,57.028L386.5-923.711" transform="translate(-303.882 935.529)" fill="none" stroke="#636262" stroke-miterlimit="10" stroke-width="2"/><line x1="2.534" y2="59.08" transform="translate(89.046 11.208)" fill="none" stroke="#636262" stroke-miterlimit="10" stroke-width="2"/><path d="M424.047-792.8v384.484l6.2-11.811" transform="translate(-305.834 930.017)" fill="none" stroke="#636262" stroke-miterlimit="10" stroke-width="2"/><path d="M349.118-536.349l77.974,36.732,82.952-36.732" transform="translate(-302.679 919.218)" fill="none" stroke="#636262" stroke-miterlimit="10" stroke-width="2"/><path d="M418.85-488.045l-.489-.017-70.293-47.71-24.8,268.663,58.6,9.562,37.92-229.865Z" transform="translate(-301.591 919.193)" fill="none" stroke="#636262" stroke-miterlimit="10" stroke-width="2"/><path d="M438.95-488.293l-1.99.575,1.085.311L473.435-257.14l59.027-9.178L513.743-536.351l-.007-.042Z" transform="translate(-306.378 919.22)" fill="none" stroke="#636262" stroke-linecap="round" stroke-linejoin="round" stroke-width="2"/><path d="M347.2-553.118l77.878,36.79,1.3-.53,81.754-36.433c.021-189.5,26.066-203.61,26.066-203.61-54.486-7.06-57.02-30.547-57.02-30.547L463.422-933.214,303.764-915.475,324.4-761.487Z" transform="translate(-300.769 935.929)" fill="none" stroke="#636262" stroke-miterlimit="10" stroke-width="2"/></g><path d="M171.378-842.591v243.018l5.34-11.268" transform="translate(-4.147 -3.935)" fill="none" stroke="#636262" stroke-miterlimit="10" stroke-width="2"/><path d="M103.913-547.584l64.443,37.456,64.624-36.747" transform="translate(-1.306 -16.358)" fill="none" stroke="#636262" stroke-miterlimit="10" stroke-width="2"/><circle cx="2.994" cy="2.994" r="2.994" transform="translate(87.784 -928.256)" fill="#636262"/><circle cx="2.994" cy="2.994" r="2.994" transform="translate(177.184 -926.356)" fill="#636262"/><circle cx="2.994" cy="2.994" r="2.994" transform="translate(189.811 -926.356)" fill="#636262"/><circle cx="2.994" cy="2.994" r="2.994" transform="translate(201.011 -925.27)" fill="#636262"/><circle cx="2.994" cy="2.994" r="2.994" transform="translate(229.793 -924.048)" fill="#636262"/><circle cx="2.994" cy="2.994" r="2.994" transform="translate(231.354 -804.959)" fill="#636262"/><circle cx="2.994" cy="2.994" r="2.994" transform="translate(258.367 -775.362)" fill="#636262"/><circle cx="2.994" cy="2.994" r="2.994" transform="translate(73.727 -775.362)" fill="#636262"/><circle cx="2.994" cy="2.994" r="2.994" transform="translate(228.68 -565.977)" fill="#636262"/><circle cx="2.994" cy="2.994" r="2.994" transform="translate(99.613 -565.977)" fill="#636262"/><circle cx="2.994" cy="2.994" r="2.994" transform="translate(156.634 -519.546)" fill="#636262"/><circle cx="2.994" cy="2.994" r="2.994" transform="translate(171.297 -519.546)" fill="#636262"/><circle cx="2.994" cy="2.994" r="2.994" transform="translate(255.157 -297.993)" fill="#636262"/><circle cx="2.994" cy="2.994" r="2.994" transform="translate(72.895 -298.041)" fill="#636262"/><text transform="translate(183.541 -770.279) rotate(90)" font-size="15" font-family="Roboto-Regular, Roboto"><tspan x="0" y="0">Pernera del1</tspan></text><path d="M167.218-526.012l64.623-36.735v-.011c5.792-72.769,29.687-208.9,29.687-208.9-25.7-3.62-27.878-29.325-27.878-29.325V-920.813l-53.582-1.81L90.647-924.8S76.89-779.257,76.89-773.826c0,5.189,23.8,193.835,25.916,210.6Z" transform="translate(-0.168 -0.474)" fill="none" stroke="#636262" stroke-miterlimit="10" stroke-width="2"/><path d="M178.255-500.178,214.6-270.789l48.435-7.911S242.123-474.109,236.111-546.86c-.012-.129-.021-.264-.032-.395Z" transform="translate(-4.437 -16.372)" fill="none" stroke="#636262" stroke-miterlimit="10" stroke-width="2"/><path d="M160.359-500.115l-57.57-47.054c-.025.681-.038,1.044-.038,1.044L76.021-278.671l45.9,7.482Z" transform="translate(-0.132 -16.375)" fill="none" stroke="#636262" stroke-miterlimit="10" stroke-width="2"/></g></g></svg>