<svg xmlns="http://www.w3.org/2000/svg" width="62.627" height="56.129" viewBox="0 0 62.627 56.129"><g transform="translate(0 0)"><path d="M436.97,1922.316H388.635a7.135,7.135,0,0,1-6.179-10.7l24.168-41.859a7.062,7.062,0,0,1,6.178-3.567h0a7.062,7.062,0,0,1,6.178,3.567l24.168,41.859a7.135,7.135,0,0,1-6.178,10.7ZM409.827,1871.6l-24.168,41.86a3.435,3.435,0,0,0,2.975,5.153H436.97a3.435,3.435,0,0,0,2.974-5.153l-24.168-41.86a3.436,3.436,0,0,0-5.95,0Z" transform="translate(-381.488 -1866.187)" fill="#fff"/><g transform="translate(26.859 15.151)"><path d="M410.283,1879.91h0a4.468,4.468,0,0,1,4.436,5l-1.963,16.411a2.5,2.5,0,0,1-2.486,2.207h0a2.505,2.505,0,0,1-2.486-2.21l-1.937-16.415A4.467,4.467,0,0,1,410.283,1879.91Z" transform="translate(-405.816 -1879.91)" fill="#fff"/><path d="M407.667,1909.1a3.619,3.619,0,1,1,2.532,1.032A3.442,3.442,0,0,1,407.667,1909.1Z" transform="translate(-405.73 -1877.507)" fill="#fff"/></g></g></svg>