<svg xmlns="http://www.w3.org/2000/svg" width="400" height="244.074" viewBox="0 0 400 244.074"><g transform="translate(-915 -11912.485)"><rect width="400" height="243" transform="translate(915 11913)" fill="none"/><g transform="translate(893.449 11455.37)"><path d="M118.227,457.946l-.632,8.97-7.58,23.624-8.464,206.048,31.457,4.043,21.35-168.275L175.329,700.63l31.2-2.527-6.948-202.195-8.338-27.477-1.011-10.8-36.194,1.116Z" transform="translate(0 0)" fill="#9fb0b7" stroke="#565656" stroke-miterlimit="10" stroke-width="1"/><line x2="0.251" y2="74.123" transform="translate(154.042 458.746)" fill="#9fb0b7" stroke="#565656" stroke-miterlimit="10" stroke-width="1"/><path d="M135.983,458.126l-.463,13.223h2.7l.841-12.966" transform="translate(-3.691 -0.054)" fill="#9fb0b7" stroke="#565656" stroke-miterlimit="10" stroke-width="1"/><path d="M181.841,458.222l.791,13.5h3.348l-.632-13.5" transform="translate(-8.724 -0.064)" fill="#9fb0b7" stroke="#565656" stroke-miterlimit="10" stroke-width="1"/><line x2="3.453" y2="51.459" transform="translate(175.75 472.306)" fill="#9fb0b7" stroke="#565656" stroke-miterlimit="10" stroke-width="1"/><line x1="3.958" y2="52.112" transform="translate(128.755 471.653)" fill="#9fb0b7" stroke="#565656" stroke-miterlimit="10" stroke-width="1"/><path d="M125.29,458.882v9.264l-14.543,29.047" transform="translate(-0.999 -0.136)" fill="#9fb0b7" stroke="#565656" stroke-miterlimit="10" stroke-width="1"/><path d="M194.433,458.222v9.684l14.823,29.867" transform="translate(-10.092 -0.064)" fill="#9fb0b7" stroke="#565656" stroke-miterlimit="10" stroke-width="1"/><path d="M119.976,468.992s23.54.842,36.068.926,36.7-.926,36.7-.926" transform="translate(-2.002 -1.235)" fill="#9fb0b7" stroke="#565656" stroke-miterlimit="10" stroke-width="1"/><path d="M270.161,457.946l-.632,8.97-7.58,23.624-8.464,206.048,31.457,4.043,21.35-168.275L327.263,700.63l31.2-2.527-6.948-202.195-8.338-27.477-1.011-10.8-36.194,1.116Z" transform="translate(-16.509 0)" fill="#9fb0b7" stroke="#565656" stroke-miterlimit="10" stroke-width="1"/><line x2="0.251" y2="74.123" transform="translate(289.467 458.746)" fill="#9fb0b7" stroke="#565656" stroke-miterlimit="10" stroke-width="1"/><path d="M287.917,458.126l-.463,13.223h2.7l.841-12.966" transform="translate(-20.199 -0.054)" fill="#9fb0b7" stroke="#565656" stroke-miterlimit="10" stroke-width="1"/><path d="M333.775,458.222l.791,13.5h3.348l-.632-13.5" transform="translate(-25.233 -0.064)" fill="#9fb0b7" stroke="#565656" stroke-miterlimit="10" stroke-width="1"/><path d="M271.91,468.992s23.539.842,36.068.926,36.7-.926,36.7-.926" transform="translate(-18.511 -1.235)" fill="#9fb0b7" stroke="#565656" stroke-miterlimit="10" stroke-width="1"/><path d="M152.946,460.205v40.426s-1.137,9.685,6.674,10.612" transform="translate(-5.578 -0.28)" fill="#9fb0b7" stroke="#565656" stroke-miterlimit="10" stroke-width="1"/><line x1="7.891" y1="105.636" transform="translate(184.846 593.584)" fill="#9fb0b7" stroke="#565656" stroke-miterlimit="10" stroke-width="1"/><line y1="108.216" x2="7.801" transform="translate(115.9 590.216)" fill="#9fb0b7" stroke="#565656" stroke-miterlimit="10" stroke-width="1"/><path d="M324.449,485.427V487.7l24.677-1.6v-2.274Z" transform="translate(-24.219 -2.846)" fill="#9fb0b7" stroke="#565656" stroke-miterlimit="10" stroke-width="1"/><line x2="1.116" y2="10.156" transform="translate(311.01 471.653)" fill="#9fb0b7" stroke="#565656" stroke-miterlimit="10" stroke-width="1"/><path d="M296.506,485.09V487.7l-24.6-1.305.677-2.569Z" transform="translate(-18.511 -2.846)" fill="#9fb0b7" stroke="#565656" stroke-miterlimit="10" stroke-width="1"/></g></g></svg>