<svg xmlns="http://www.w3.org/2000/svg" width="610" height="785" viewBox="0 0 610 785"><g transform="translate(-705 -13491)"><rect width="610" height="785" transform="translate(705 13491)" fill="#fff"/><path d="M-23.3-3.962V0h-1.853V-10.664h4.08a4.128,4.128,0,0,1,2.838.93,3.126,3.126,0,0,1,1.051,2.461,3.022,3.022,0,0,1-1.029,2.439,4.328,4.328,0,0,1-2.882.872Zm0-1.487h2.227a2.193,2.193,0,0,0,1.509-.465,1.709,1.709,0,0,0,.52-1.344,1.844,1.844,0,0,0-.527-1.381,2.033,2.033,0,0,0-1.45-.531H-23.3Zm11.052,5.6A3.682,3.682,0,0,1-14.989-.919,3.866,3.866,0,0,1-16.04-3.757v-.22a4.755,4.755,0,0,1,.458-2.12A3.484,3.484,0,0,1-14.3-7.551a3.4,3.4,0,0,1,1.846-.52,3.11,3.11,0,0,1,2.5,1.033,4.367,4.367,0,0,1,.883,2.922V-3.4h-5.178a2.38,2.38,0,0,0,.656,1.553,1.968,1.968,0,0,0,1.447.571,2.41,2.41,0,0,0,1.992-.989l.959.916a3.2,3.2,0,0,1-1.271,1.1A3.978,3.978,0,0,1-12.246.146Zm-.212-6.79a1.5,1.5,0,0,0-1.183.513A2.657,2.657,0,0,0-14.216-4.7h3.391v-.132A2.163,2.163,0,0,0-11.3-6.185,1.487,1.487,0,0,0-12.458-6.643Zm8.921.344a4.4,4.4,0,0,0-.725-.059,1.633,1.633,0,0,0-1.648.938V0H-7.69V-7.925h1.7l.044.886A2.005,2.005,0,0,1-4.16-8.071a1.666,1.666,0,0,1,.63.1ZM-.762-7.925l.051.916A2.849,2.849,0,0,1,1.6-8.071q2.476,0,2.52,2.834V0H2.336V-5.134A1.632,1.632,0,0,0,2.01-6.251,1.371,1.371,0,0,0,.945-6.614a1.715,1.715,0,0,0-1.6.974V0h-1.78V-7.925ZM9.419.146A3.682,3.682,0,0,1,6.676-.919,3.866,3.866,0,0,1,5.625-3.757v-.22A4.755,4.755,0,0,1,6.083-6.1,3.484,3.484,0,0,1,7.368-7.551a3.4,3.4,0,0,1,1.846-.52,3.11,3.11,0,0,1,2.5,1.033A4.367,4.367,0,0,1,12.6-4.116V-3.4H7.419a2.38,2.38,0,0,0,.656,1.553,1.968,1.968,0,0,0,1.447.571,2.41,2.41,0,0,0,1.992-.989l.959.916A3.2,3.2,0,0,1,11.2-.245,3.978,3.978,0,0,1,9.419.146Zm-.212-6.79a1.5,1.5,0,0,0-1.183.513A2.657,2.657,0,0,0,7.449-4.7H10.84v-.132a2.163,2.163,0,0,0-.476-1.351A1.487,1.487,0,0,0,9.207-6.643Zm8.921.344a4.4,4.4,0,0,0-.725-.059,1.633,1.633,0,0,0-1.648.938V0h-1.78V-7.925h1.7l.044.886A2.005,2.005,0,0,1,17.5-8.071a1.666,1.666,0,0,1,.63.1ZM23.767,0a2.747,2.747,0,0,1-.205-.74,2.77,2.77,0,0,1-2.08.886,2.8,2.8,0,0,1-1.948-.681,2.179,2.179,0,0,1-.754-1.685,2.25,2.25,0,0,1,.941-1.945,4.561,4.561,0,0,1,2.692-.677H23.5v-.52a1.388,1.388,0,0,0-.344-.985,1.365,1.365,0,0,0-1.047-.37,1.568,1.568,0,0,0-1,.3.941.941,0,0,0-.388.773h-1.78a1.975,1.975,0,0,1,.432-1.219,2.879,2.879,0,0,1,1.176-.89,4.129,4.129,0,0,1,1.659-.322,3.325,3.325,0,0,1,2.219.7,2.494,2.494,0,0,1,.85,1.967v3.574a4.051,4.051,0,0,0,.3,1.707V0ZM21.812-1.282a2.025,2.025,0,0,0,.992-.256,1.713,1.713,0,0,0,.7-.688V-3.721h-.959a2.624,2.624,0,0,0-1.487.344,1.115,1.115,0,0,0-.5.974,1.04,1.04,0,0,0,.341.817A1.319,1.319,0,0,0,21.812-1.282ZM-30.927,11.979a4.712,4.712,0,0,1,.85-2.941A2.722,2.722,0,0,1-27.8,7.929a2.587,2.587,0,0,1,2.036.879V4.75h1.78V16h-1.611l-.088-.82a2.624,2.624,0,0,1-2.131.967,2.707,2.707,0,0,1-2.252-1.121A4.884,4.884,0,0,1-30.927,11.979Zm1.78.154a3.3,3.3,0,0,0,.465,1.886,1.509,1.509,0,0,0,1.322.677,1.681,1.681,0,0,0,1.6-.974V10.338a1.655,1.655,0,0,0-1.582-.952,1.52,1.52,0,0,0-1.333.685A3.674,3.674,0,0,0-29.147,12.133Zm10.51,4.014a3.682,3.682,0,0,1-2.743-1.066,3.866,3.866,0,0,1-1.051-2.838v-.22a4.755,4.755,0,0,1,.458-2.12,3.484,3.484,0,0,1,1.285-1.454,3.4,3.4,0,0,1,1.846-.52,3.11,3.11,0,0,1,2.5,1.033,4.367,4.367,0,0,1,.883,2.922V12.6h-5.178a2.38,2.38,0,0,0,.656,1.553,1.968,1.968,0,0,0,1.447.571,2.41,2.41,0,0,0,1.992-.989l.959.916a3.2,3.2,0,0,1-1.271,1.1A3.978,3.978,0,0,1-18.636,16.146Zm-.212-6.79a1.5,1.5,0,0,0-1.183.513,2.657,2.657,0,0,0-.575,1.428h3.391v-.132a2.163,2.163,0,0,0-.476-1.351A1.487,1.487,0,0,0-18.849,9.357ZM-12.184,16h-1.78V4.75h1.78Zm6.672,0a2.747,2.747,0,0,1-.205-.74,2.77,2.77,0,0,1-2.08.886,2.8,2.8,0,0,1-1.948-.681,2.179,2.179,0,0,1-.754-1.685,2.25,2.25,0,0,1,.941-1.945,4.561,4.561,0,0,1,2.692-.677h1.091v-.52a1.388,1.388,0,0,0-.344-.985,1.365,1.365,0,0,0-1.047-.37,1.568,1.568,0,0,0-1,.3.941.941,0,0,0-.388.773h-1.78A1.975,1.975,0,0,1-9.9,9.141a2.879,2.879,0,0,1,1.176-.89,4.129,4.129,0,0,1,1.659-.322,3.325,3.325,0,0,1,2.219.7A2.494,2.494,0,0,1-4,10.595v3.574a4.051,4.051,0,0,0,.3,1.707V16Zm-1.956-1.282a2.025,2.025,0,0,0,.992-.256,1.713,1.713,0,0,0,.7-.688V12.279h-.959a2.624,2.624,0,0,0-1.487.344,1.115,1.115,0,0,0-.5.974,1.04,1.04,0,0,0,.341.817A1.319,1.319,0,0,0-7.467,14.718ZM-.48,8.075l.051.916A2.849,2.849,0,0,1,1.879,7.929q2.476,0,2.52,2.834V16H2.618V10.866a1.632,1.632,0,0,0-.326-1.117,1.371,1.371,0,0,0-1.066-.363,1.715,1.715,0,0,0-1.6.974V16h-1.78V8.075ZM8.441,6.149V8.075h1.4V9.394h-1.4v4.424a.974.974,0,0,0,.179.656.832.832,0,0,0,.641.2,2.742,2.742,0,0,0,.623-.073v1.377a4.383,4.383,0,0,1-1.172.168q-2.051,0-2.051-2.263V9.394h-1.3V8.075h1.3V6.149Zm6.248,10a3.682,3.682,0,0,1-2.743-1.066,3.866,3.866,0,0,1-1.051-2.838v-.22a4.755,4.755,0,0,1,.458-2.12,3.484,3.484,0,0,1,1.285-1.454,3.4,3.4,0,0,1,1.846-.52,3.11,3.11,0,0,1,2.5,1.033,4.367,4.367,0,0,1,.883,2.922V12.6H12.689a2.38,2.38,0,0,0,.656,1.553,1.968,1.968,0,0,0,1.447.571,2.41,2.41,0,0,0,1.992-.989l.959.916a3.2,3.2,0,0,1-1.271,1.1A3.978,3.978,0,0,1,14.689,16.146Zm-.212-6.79a1.5,1.5,0,0,0-1.183.513,2.657,2.657,0,0,0-.575,1.428H16.11v-.132a2.163,2.163,0,0,0-.476-1.351A1.487,1.487,0,0,0,14.476,9.357ZM23.4,9.7a4.4,4.4,0,0,0-.725-.059,1.633,1.633,0,0,0-1.648.938V16h-1.78V8.075h1.7l.044.886a2.005,2.005,0,0,1,1.787-1.033,1.666,1.666,0,0,1,.63.1Zm5.64,6.3a2.747,2.747,0,0,1-.205-.74,2.994,2.994,0,0,1-4.028.205,2.179,2.179,0,0,1-.754-1.685,2.25,2.25,0,0,1,.941-1.945,4.561,4.561,0,0,1,2.692-.677h1.091v-.52a1.388,1.388,0,0,0-.344-.985,1.365,1.365,0,0,0-1.047-.37,1.568,1.568,0,0,0-1,.3A.941.941,0,0,0,26,10.36h-1.78a1.975,1.975,0,0,1,.432-1.219,2.879,2.879,0,0,1,1.176-.89,4.129,4.129,0,0,1,1.659-.322,3.325,3.325,0,0,1,2.219.7,2.494,2.494,0,0,1,.85,1.967v3.574a4.051,4.051,0,0,0,.3,1.707V16Zm-1.956-1.282a2.025,2.025,0,0,0,.992-.256,1.713,1.713,0,0,0,.7-.688V12.279h-.959a2.624,2.624,0,0,0-1.487.344,1.115,1.115,0,0,0-.5.974,1.04,1.04,0,0,0,.341.817A1.319,1.319,0,0,0,27.081,14.718Z" transform="translate(837 13769.041)" fill="#161615"/><path d="M-23.3-3.962V0h-1.853V-10.664h4.08a4.128,4.128,0,0,1,2.838.93,3.126,3.126,0,0,1,1.051,2.461,3.022,3.022,0,0,1-1.029,2.439,4.328,4.328,0,0,1-2.882.872Zm0-1.487h2.227a2.193,2.193,0,0,0,1.509-.465,1.709,1.709,0,0,0,.52-1.344,1.844,1.844,0,0,0-.527-1.381,2.033,2.033,0,0,0-1.45-.531H-23.3Zm11.052,5.6A3.682,3.682,0,0,1-14.989-.919,3.866,3.866,0,0,1-16.04-3.757v-.22a4.755,4.755,0,0,1,.458-2.12A3.484,3.484,0,0,1-14.3-7.551a3.4,3.4,0,0,1,1.846-.52,3.11,3.11,0,0,1,2.5,1.033,4.367,4.367,0,0,1,.883,2.922V-3.4h-5.178a2.38,2.38,0,0,0,.656,1.553,1.968,1.968,0,0,0,1.447.571,2.41,2.41,0,0,0,1.992-.989l.959.916a3.2,3.2,0,0,1-1.271,1.1A3.978,3.978,0,0,1-12.246.146Zm-.212-6.79a1.5,1.5,0,0,0-1.183.513A2.657,2.657,0,0,0-14.216-4.7h3.391v-.132A2.163,2.163,0,0,0-11.3-6.185,1.487,1.487,0,0,0-12.458-6.643Zm8.921.344a4.4,4.4,0,0,0-.725-.059,1.633,1.633,0,0,0-1.648.938V0H-7.69V-7.925h1.7l.044.886A2.005,2.005,0,0,1-4.16-8.071a1.666,1.666,0,0,1,.63.1ZM-.762-7.925l.051.916A2.849,2.849,0,0,1,1.6-8.071q2.476,0,2.52,2.834V0H2.336V-5.134A1.632,1.632,0,0,0,2.01-6.251,1.371,1.371,0,0,0,.945-6.614a1.715,1.715,0,0,0-1.6.974V0h-1.78V-7.925ZM9.419.146A3.682,3.682,0,0,1,6.676-.919,3.866,3.866,0,0,1,5.625-3.757v-.22A4.755,4.755,0,0,1,6.083-6.1,3.484,3.484,0,0,1,7.368-7.551a3.4,3.4,0,0,1,1.846-.52,3.11,3.11,0,0,1,2.5,1.033A4.367,4.367,0,0,1,12.6-4.116V-3.4H7.419a2.38,2.38,0,0,0,.656,1.553,1.968,1.968,0,0,0,1.447.571,2.41,2.41,0,0,0,1.992-.989l.959.916A3.2,3.2,0,0,1,11.2-.245,3.978,3.978,0,0,1,9.419.146Zm-.212-6.79a1.5,1.5,0,0,0-1.183.513A2.657,2.657,0,0,0,7.449-4.7H10.84v-.132a2.163,2.163,0,0,0-.476-1.351A1.487,1.487,0,0,0,9.207-6.643Zm8.921.344a4.4,4.4,0,0,0-.725-.059,1.633,1.633,0,0,0-1.648.938V0h-1.78V-7.925h1.7l.044.886A2.005,2.005,0,0,1,17.5-8.071a1.666,1.666,0,0,1,.63.1ZM23.767,0a2.747,2.747,0,0,1-.205-.74,2.77,2.77,0,0,1-2.08.886,2.8,2.8,0,0,1-1.948-.681,2.179,2.179,0,0,1-.754-1.685,2.25,2.25,0,0,1,.941-1.945,4.561,4.561,0,0,1,2.692-.677H23.5v-.52a1.388,1.388,0,0,0-.344-.985,1.365,1.365,0,0,0-1.047-.37,1.568,1.568,0,0,0-1,.3.941.941,0,0,0-.388.773h-1.78a1.975,1.975,0,0,1,.432-1.219,2.879,2.879,0,0,1,1.176-.89,4.129,4.129,0,0,1,1.659-.322,3.325,3.325,0,0,1,2.219.7,2.494,2.494,0,0,1,.85,1.967v3.574a4.051,4.051,0,0,0,.3,1.707V0ZM21.812-1.282a2.025,2.025,0,0,0,.992-.256,1.713,1.713,0,0,0,.7-.688V-3.721h-.959a2.624,2.624,0,0,0-1.487.344,1.115,1.115,0,0,0-.5.974,1.04,1.04,0,0,0,.341.817A1.319,1.319,0,0,0,21.812-1.282ZM-30.927,11.979a4.712,4.712,0,0,1,.85-2.941A2.722,2.722,0,0,1-27.8,7.929a2.587,2.587,0,0,1,2.036.879V4.75h1.78V16h-1.611l-.088-.82a2.624,2.624,0,0,1-2.131.967,2.707,2.707,0,0,1-2.252-1.121A4.884,4.884,0,0,1-30.927,11.979Zm1.78.154a3.3,3.3,0,0,0,.465,1.886,1.509,1.509,0,0,0,1.322.677,1.681,1.681,0,0,0,1.6-.974V10.338a1.655,1.655,0,0,0-1.582-.952,1.52,1.52,0,0,0-1.333.685A3.674,3.674,0,0,0-29.147,12.133Zm10.51,4.014a3.682,3.682,0,0,1-2.743-1.066,3.866,3.866,0,0,1-1.051-2.838v-.22a4.755,4.755,0,0,1,.458-2.12,3.484,3.484,0,0,1,1.285-1.454,3.4,3.4,0,0,1,1.846-.52,3.11,3.11,0,0,1,2.5,1.033,4.367,4.367,0,0,1,.883,2.922V12.6h-5.178a2.38,2.38,0,0,0,.656,1.553,1.968,1.968,0,0,0,1.447.571,2.41,2.41,0,0,0,1.992-.989l.959.916a3.2,3.2,0,0,1-1.271,1.1A3.978,3.978,0,0,1-18.636,16.146Zm-.212-6.79a1.5,1.5,0,0,0-1.183.513,2.657,2.657,0,0,0-.575,1.428h3.391v-.132a2.163,2.163,0,0,0-.476-1.351A1.487,1.487,0,0,0-18.849,9.357ZM-12.184,16h-1.78V4.75h1.78Zm6.672,0a2.747,2.747,0,0,1-.205-.74,2.77,2.77,0,0,1-2.08.886,2.8,2.8,0,0,1-1.948-.681,2.179,2.179,0,0,1-.754-1.685,2.25,2.25,0,0,1,.941-1.945,4.561,4.561,0,0,1,2.692-.677h1.091v-.52a1.388,1.388,0,0,0-.344-.985,1.365,1.365,0,0,0-1.047-.37,1.568,1.568,0,0,0-1,.3.941.941,0,0,0-.388.773h-1.78A1.975,1.975,0,0,1-9.9,9.141a2.879,2.879,0,0,1,1.176-.89,4.129,4.129,0,0,1,1.659-.322,3.325,3.325,0,0,1,2.219.7A2.494,2.494,0,0,1-4,10.595v3.574a4.051,4.051,0,0,0,.3,1.707V16Zm-1.956-1.282a2.025,2.025,0,0,0,.992-.256,1.713,1.713,0,0,0,.7-.688V12.279h-.959a2.624,2.624,0,0,0-1.487.344,1.115,1.115,0,0,0-.5.974,1.04,1.04,0,0,0,.341.817A1.319,1.319,0,0,0-7.467,14.718ZM-.48,8.075l.051.916A2.849,2.849,0,0,1,1.879,7.929q2.476,0,2.52,2.834V16H2.618V10.866a1.632,1.632,0,0,0-.326-1.117,1.371,1.371,0,0,0-1.066-.363,1.715,1.715,0,0,0-1.6.974V16h-1.78V8.075ZM8.441,6.149V8.075h1.4V9.394h-1.4v4.424a.974.974,0,0,0,.179.656.832.832,0,0,0,.641.2,2.742,2.742,0,0,0,.623-.073v1.377a4.383,4.383,0,0,1-1.172.168q-2.051,0-2.051-2.263V9.394h-1.3V8.075h1.3V6.149Zm6.248,10a3.682,3.682,0,0,1-2.743-1.066,3.866,3.866,0,0,1-1.051-2.838v-.22a4.755,4.755,0,0,1,.458-2.12,3.484,3.484,0,0,1,1.285-1.454,3.4,3.4,0,0,1,1.846-.52,3.11,3.11,0,0,1,2.5,1.033,4.367,4.367,0,0,1,.883,2.922V12.6H12.689a2.38,2.38,0,0,0,.656,1.553,1.968,1.968,0,0,0,1.447.571,2.41,2.41,0,0,0,1.992-.989l.959.916a3.2,3.2,0,0,1-1.271,1.1A3.978,3.978,0,0,1,14.689,16.146Zm-.212-6.79a1.5,1.5,0,0,0-1.183.513,2.657,2.657,0,0,0-.575,1.428H16.11v-.132a2.163,2.163,0,0,0-.476-1.351A1.487,1.487,0,0,0,14.476,9.357ZM23.4,9.7a4.4,4.4,0,0,0-.725-.059,1.633,1.633,0,0,0-1.648.938V16h-1.78V8.075h1.7l.044.886a2.005,2.005,0,0,1,1.787-1.033,1.666,1.666,0,0,1,.63.1Zm5.64,6.3a2.747,2.747,0,0,1-.205-.74,2.994,2.994,0,0,1-4.028.205,2.179,2.179,0,0,1-.754-1.685,2.25,2.25,0,0,1,.941-1.945,4.561,4.561,0,0,1,2.692-.677h1.091v-.52a1.388,1.388,0,0,0-.344-.985,1.365,1.365,0,0,0-1.047-.37,1.568,1.568,0,0,0-1,.3A.941.941,0,0,0,26,10.36h-1.78a1.975,1.975,0,0,1,.432-1.219,2.879,2.879,0,0,1,1.176-.89,4.129,4.129,0,0,1,1.659-.322,3.325,3.325,0,0,1,2.219.7,2.494,2.494,0,0,1,.85,1.967v3.574a4.051,4.051,0,0,0,.3,1.707V16Zm-1.956-1.282a2.025,2.025,0,0,0,.992-.256,1.713,1.713,0,0,0,.7-.688V12.279h-.959a2.624,2.624,0,0,0-1.487.344,1.115,1.115,0,0,0-.5.974,1.04,1.04,0,0,0,.341.817A1.319,1.319,0,0,0,27.081,14.718Z" transform="translate(1098 13769.041)" fill="#161615"/><g transform="translate(683.63 13459.135)"><path d="M106.378,52.772l153.071,7.086,5.386,140.6s4.535,30.33,33.165,32.6c0,0-10.016,52.63-12.284,155.811l-10.2,406.3H123.575l-10.961-406.3S99.386,233.528,99.386,232.394V121.654Z" fill="none" stroke="#2186ca" stroke-miterlimit="10" stroke-width="2"/><circle cx="3.22" cy="3.22" r="3.22" transform="translate(103.126 49.865)" fill="#2186ca"/><circle cx="3.22" cy="3.22" r="3.22" transform="translate(132.229 50.857)" fill="#2186ca"/><circle cx="3.22" cy="3.22" r="3.22" transform="translate(96.37 118.7)" fill="#2186ca"/><circle cx="3.22" cy="3.22" r="3.22" transform="translate(96.37 228.117)" fill="#2186ca"/><circle cx="3.22" cy="3.22" r="3.22" transform="translate(195.213 228.117)" fill="#2186ca"/><circle cx="3.22" cy="3.22" r="3.22" transform="translate(109.126 385.804)" fill="#2186ca"/><circle cx="3.22" cy="3.22" r="3.22" transform="translate(120.087 791.946)" fill="#2186ca"/><circle cx="3.22" cy="3.22" r="3.22" transform="translate(195.575 791.946)" fill="#2186ca"/><circle cx="3.22" cy="3.22" r="3.22" transform="translate(271.827 791.946)" fill="#2186ca"/><circle cx="3.22" cy="3.22" r="3.22" transform="translate(282.323 385.804)" fill="#2186ca"/><circle cx="3.22" cy="3.22" r="3.22" transform="translate(255.638 56.952)" fill="#2186ca"/><circle cx="3.22" cy="3.22" r="3.22" transform="translate(261.591 196.481)" fill="#2186ca"/><circle cx="3.22" cy="3.22" r="3.22" transform="translate(294.78 229.741)" fill="#2186ca"/><line y2="562.205" transform="translate(198.795 232.961)" fill="none" stroke="#2186ca" stroke-miterlimit="10" stroke-width="2"/><line x1="35.008" y2="67.465" transform="translate(99.59 55.465)" fill="none" stroke="#2186ca" stroke-miterlimit="10" stroke-width="2"/><circle cx="3.22" cy="3.22" r="3.22" transform="translate(387.528 50.857)" fill="#2186ca"/><circle cx="3.22" cy="3.22" r="3.22" transform="translate(351.67 118.7)" fill="#2186ca"/><circle cx="3.22" cy="3.22" r="3.22" transform="translate(351.67 228.117)" fill="#2186ca"/><circle cx="3.22" cy="3.22" r="3.22" transform="translate(450.513 228.117)" fill="#2186ca"/><circle cx="3.22" cy="3.22" r="3.22" transform="translate(364.426 385.804)" fill="#2186ca"/><circle cx="3.22" cy="3.22" r="3.22" transform="translate(375.386 791.946)" fill="#2186ca"/><circle cx="3.22" cy="3.22" r="3.22" transform="translate(450.875 791.946)" fill="#2186ca"/><circle cx="3.22" cy="3.22" r="3.22" transform="translate(527.127 791.946)" fill="#2186ca"/><circle cx="3.22" cy="3.22" r="3.22" transform="translate(537.623 385.804)" fill="#2186ca"/><circle cx="3.22" cy="3.22" r="3.22" transform="translate(510.938 56.952)" fill="#2186ca"/><circle cx="3.22" cy="3.22" r="3.22" transform="translate(516.891 196.481)" fill="#2186ca"/><circle cx="3.22" cy="3.22" r="3.22" transform="translate(550.08 229.741)" fill="#2186ca"/><line y2="562.205" transform="translate(454.094 232.961)" fill="none" stroke="#2186ca" stroke-miterlimit="10" stroke-width="2"/><path d="M520.134,200.457l-5.386-140.6L390.667,54.114l-.77,1.351L388.116,58.9l-33.227,64.032-.2-.069V232.394c0,1.134,13.228,156.472,13.228,156.472l10.961,406.3H530.811l10.205-406.3C543.283,285.685,553.3,233.055,553.3,233.055,524.669,230.787,520.134,200.457,520.134,200.457Z" fill="none" stroke="#2186ca" stroke-miterlimit="10" stroke-width="2"/></g></g></svg>