<svg xmlns="http://www.w3.org/2000/svg" xmlns:xlink="http://www.w3.org/1999/xlink" width="610" height="479.817" viewBox="0 0 610 479.817"><defs><clipPath id="a"><circle cx="239.18" cy="239.18" r="239.18" fill="none"/></clipPath></defs><g transform="translate(-648.543 -3377.784)"><g transform="translate(648.543 3377.784)"><g transform="translate(130.912 0.728)"><g clip-path="url(#a)"><g transform="translate(-139.996 111.626)"><g transform="translate(266.904 11.191)"><path d="M830.727,3474.807l.6-3.312-5.616-1.017.191-1.06,6.793-6.738,1.765.319-1.361,7.512,1.692.307-.228,1.264-1.693-.306-.6,3.31Zm.828-4.575.731-4.034q.172-.949.4-1.886l-.057-.01c-.5.638-.891,1.106-1.327,1.6l-3.7,3.573,0,.038Z" transform="translate(-825.711 -3462.681)" fill="#497a53"/><path d="M840.938,3465.378a6.181,6.181,0,0,0-1.244-.129,4.92,4.92,0,0,0-4.978,3.514l.038.008a3.746,3.746,0,0,1,6.131,3.685,4.119,4.119,0,0,1-4.809,3.546c-2.567-.467-3.894-2.781-3.325-5.924a7.637,7.637,0,0,1,3.034-5.076,6.671,6.671,0,0,1,4.19-1.085,8.046,8.046,0,0,1,1.206.124Zm-4.6,9.363c1.394.253,2.554-.745,2.868-2.476a2.5,2.5,0,0,0-1.989-3.222,2.725,2.725,0,0,0-2.631,1.061,1.536,1.536,0,0,0-.3.675c-.343,1.994.319,3.65,2.029,3.958Z" transform="translate(-822.566 -3462.125)" fill="#497a53"/></g><g transform="translate(260.07 39.093)"><path d="M826.033,3493.981l.6-3.311-5.617-1.017.192-1.06,6.793-6.739,1.765.32-1.362,7.512,1.694.307-.23,1.263-1.693-.307-.6,3.311Zm.828-4.574.731-4.036q.172-.947.4-1.886l-.055-.009c-.5.637-.891,1.1-1.327,1.6l-3.7,3.573-.006.038Z" transform="translate(-821.015 -3481.855)" fill="#497a53"/><path d="M832.583,3495.168l.6-3.31-5.616-1.018.192-1.058,6.792-6.741,1.767.321-1.362,7.512,1.693.305-.228,1.265-1.693-.307-.6,3.309Zm.829-4.574.731-4.034q.172-.95.4-1.887l-.055-.01c-.5.64-.891,1.106-1.329,1.6l-3.7,3.574-.007.036Z" transform="translate(-818.032 -3481.315)" fill="#497a53"/></g><g transform="translate(250.355 67.945)"><path d="M819.355,3513.809l.6-3.312-5.616-1.017.191-1.061,6.793-6.738,1.765.32-1.361,7.512,1.692.307-.229,1.262-1.694-.306-.6,3.311Zm.828-4.576.731-4.033q.172-.951.4-1.888l-.057-.009c-.5.636-.891,1.106-1.327,1.6l-3.7,3.573-.006.038Z" transform="translate(-814.339 -3501.681)" fill="#cb4a95"/><path d="M820.862,3514.231l.182-1,1.509-1.016c3.618-2.378,5.315-3.683,5.645-5.505a2.178,2.178,0,0,0-1.952-2.794,4.188,4.188,0,0,0-2.752.56l-.313-1.247a5.457,5.457,0,0,1,3.645-.608,3.451,3.451,0,0,1,3.044,4.181c-.4,2.231-2.35,3.743-5.342,5.735l-1.109.719-.007.041,5.412.979-.246,1.356Z" transform="translate(-811.37 -3501.294)" fill="#cb4a95"/></g><g transform="translate(240.673 94.708)"><path d="M812.7,3532.2l.6-3.311-5.617-1.017.192-1.06,6.793-6.739,1.765.32-1.362,7.512,1.692.307-.229,1.263-1.692-.307-.6,3.311Zm.829-4.574.731-4.035q.172-.948.4-1.886l-.055-.01c-.5.639-.891,1.106-1.327,1.6l-3.7,3.572-.006.037Z" transform="translate(-807.686 -3520.072)" fill="#71519e"/><path d="M817.793,3533.5c-2.362-.429-3.578-2.935-2.891-6.94.739-4.072,2.906-5.963,5.36-5.52,2.528.459,3.587,2.993,2.89,6.842-.744,4.11-2.7,6.1-5.339,5.62Zm.322-1.25c1.656.3,2.809-1.508,3.367-4.594.54-2.975.148-5.06-1.562-5.371-1.487-.27-2.8,1.452-3.347,4.482-.605,3.136.017,5.208,1.524,5.482Z" transform="translate(-804.488 -3519.66)" fill="#71519e"/></g><g transform="translate(233.475 124.74)"><path d="M803.414,3550.66a5.7,5.7,0,0,0,2.541,1.226c2.084.377,2.991-.82,3.158-1.846.288-1.7-1.106-2.7-2.686-2.983l-.91-.165.221-1.228.909.165c1.192.217,2.807-.125,3.068-1.556.175-.968-.282-1.933-1.79-2.208a4.51,4.51,0,0,0-2.561.362l-.23-1.27a5.951,5.951,0,0,1,3.347-.354c2.381.431,3.2,2.04,2.938,3.508a3.08,3.08,0,0,1-2.752,2.459l-.007.036a3.165,3.165,0,0,1,2.138,3.576c-.351,1.934-2.18,3.35-5.061,2.829a6.245,6.245,0,0,1-3-1.389Z" transform="translate(-802.74 -3540.709)"/><path d="M815.423,3542.047c2.343.425,3.27,2.091,2.993,3.617a3.124,3.124,0,0,1-2.521,2.462l-.01.055a3.423,3.423,0,0,1,1.871,3.564c-.385,2.121-2.44,3.19-4.745,2.772-2.529-.46-3.785-2.224-3.465-3.989a3.54,3.54,0,0,1,2.969-2.824l.01-.056a3.032,3.032,0,0,1-1.441-3.065c.346-1.915,2.2-2.924,4.321-2.54Zm-2.16,11.285a2.221,2.221,0,0,0,2.807-1.718c.263-1.449-.626-2.361-2.181-3.123a2.688,2.688,0,0,0-2.628,2.116,2.261,2.261,0,0,0,1.984,2.722Zm1.854-10.131a1.952,1.952,0,0,0-2.451,1.554c-.237,1.2.575,2.024,1.9,2.648a2.419,2.419,0,0,0,2.238-1.859,1.9,1.9,0,0,0-1.669-2.339Z" transform="translate(-799.664 -3540.138)"/></g><g transform="translate(226.831 154.542)"><path d="M798.848,3571.137a5.719,5.719,0,0,0,2.541,1.228c2.084.377,2.99-.821,3.158-1.848.29-1.7-1.1-2.7-2.685-2.982l-.91-.166.221-1.227.91.165c1.19.215,2.807-.125,3.066-1.556.176-.968-.282-1.934-1.788-2.207a4.53,4.53,0,0,0-2.563.36l-.229-1.269a5.954,5.954,0,0,1,3.347-.354c2.381.431,3.2,2.039,2.937,3.509a3.077,3.077,0,0,1-2.75,2.458l-.007.038a3.166,3.166,0,0,1,2.138,3.576c-.352,1.934-2.18,3.35-5.063,2.828a6.239,6.239,0,0,1-3-1.389Z" transform="translate(-798.174 -3561.188)" fill="#6cac40"/><path d="M810.858,3562.526c2.343.425,3.27,2.09,2.992,3.615a3.126,3.126,0,0,1-2.519,2.464l-.01.055a3.419,3.419,0,0,1,1.87,3.564c-.386,2.12-2.44,3.188-4.745,2.771-2.529-.459-3.784-2.223-3.465-3.989a3.542,3.542,0,0,1,2.97-2.822l.009-.056a3.036,3.036,0,0,1-1.441-3.066c.346-1.914,2.2-2.924,4.322-2.538Zm-2.161,11.285a2.223,2.223,0,0,0,2.809-1.72c.263-1.45-.627-2.361-2.181-3.122a2.689,2.689,0,0,0-2.63,2.116,2.264,2.264,0,0,0,1.985,2.723Zm1.855-10.131a1.952,1.952,0,0,0-2.451,1.553c-.237,1.2.575,2.025,1.9,2.649a2.424,2.424,0,0,0,2.238-1.861,1.9,1.9,0,0,0-1.671-2.337Z" transform="translate(-795.098 -3560.618)" fill="#6cac40"/></g><g transform="translate(220.505 182.99)"><path d="M794.5,3590.686a5.721,5.721,0,0,0,2.541,1.229c2.082.377,2.989-.822,3.158-1.849.288-1.7-1.106-2.7-2.686-2.981l-.909-.166.221-1.229.91.166c1.192.216,2.807-.125,3.068-1.557.175-.968-.284-1.933-1.79-2.207a4.514,4.514,0,0,0-2.561.361l-.23-1.269a5.943,5.943,0,0,1,3.347-.354c2.381.43,3.2,2.039,2.938,3.508a3.08,3.08,0,0,1-2.752,2.458l-.007.038a3.167,3.167,0,0,1,2.138,3.576c-.351,1.934-2.18,3.349-5.063,2.827a6.234,6.234,0,0,1-2.995-1.388Z" transform="translate(-793.827 -3580.737)" fill="#ed6e23"/><path d="M806.51,3582.075c2.343.425,3.27,2.09,2.993,3.615a3.123,3.123,0,0,1-2.52,2.462l-.01.057a3.42,3.42,0,0,1,1.87,3.563c-.384,2.121-2.439,3.189-4.744,2.771-2.531-.458-3.785-2.222-3.465-3.989a3.539,3.539,0,0,1,2.969-2.823l.01-.057a3.033,3.033,0,0,1-1.442-3.064c.348-1.915,2.2-2.924,4.322-2.538Zm-2.16,11.285a2.223,2.223,0,0,0,2.807-1.72c.263-1.45-.626-2.36-2.181-3.123a2.689,2.689,0,0,0-2.628,2.117,2.262,2.262,0,0,0,1.983,2.723Zm1.854-10.131a1.951,1.951,0,0,0-2.45,1.552c-.237,1.205.575,2.026,1.9,2.649a2.42,2.42,0,0,0,2.238-1.86,1.9,1.9,0,0,0-1.669-2.337Z" transform="translate(-790.751 -3580.166)" fill="#ed6e23"/></g><path d="M997.375,3840.039c-13.6-61.525,50.833-299.882,54.944-314.961L756.152,3456.41l.33-1.419L1054.122,3524l-.2.73c-.691,2.513-69.024,252.119-55.125,314.99Z" transform="translate(-590.473 -3454.991)" fill="#497a53"/><path d="M977.632,3861.611c-13.6-61.54,51.473-303.676,55.591-318.878l-296.168-68.668.33-1.419,297.638,69.012-.2.729c-.7,2.554-69.671,256.037-55.772,318.91Z" transform="translate(-599.166 -3446.954)" fill="#1caed0"/><path d="M956.59,3868.95c-13.595-61.5,53.41-295.094,57.748-310.094L718.183,3490.19l.33-1.419,297.651,69.014-.217.739c-.719,2.463-71.833,247.243-57.936,310.111Z" transform="translate(-607.757 -3439.613)" fill="#cb4a95"/><path d="M934.177,3887.166c-13.595-61.5,57.062-296.5,61.643-311.621l-296.145-68.662.33-1.417,297.661,69.014-.227.745c-.76,2.479-75.738,248.764-61.841,311.625Z" transform="translate(-616.182 -3432.013)" fill="#71519e"/><path d="M916.609,3895.99c-13.6-61.5,53.611-279.187,60.5-301.218l-297.817-72.4.687-2.827,300.839,73.129-.467,1.483c-.75,2.378-74.754,238.529-60.9,301.2Z" transform="translate(-625.463 -3425.602)"/><path d="M894.79,3910.339c-13.585-61.453,59.7-285.005,64.586-299.789l-298.559-72.576.343-1.414,300.1,72.949-.25.751c-.789,2.362-78.689,236.911-64.794,299.763Z" transform="translate(-633.872 -3417.858)" fill="#6cac40"/><path d="M871.211,3919.828c-13.576-61.412,64.314-278.466,69.63-293.156L642.3,3554.1l.345-1.416,300.119,72.955-.279.766c-.84,2.295-83.745,230.265-69.852,293.106Z" transform="translate(-642.301 -3410.517)" fill="#ed6e23"/><g transform="translate(298.555 65.593)"><g transform="translate(0 2.468)"><path d="M1013.1,3651.4H847.461V3501.761H1013.1Zm-164.188-1.455h162.732V3503.216H848.916Z" transform="translate(-847.461 -3501.761)" fill="red"/><g transform="translate(27.522 0.727)"><rect width="1.455" height="148.18" fill="red"/><rect width="1.455" height="148.18" transform="translate(26.693)" fill="red"/><rect width="1.455" height="148.18" transform="translate(53.387)" fill="red"/><rect width="1.455" height="148.18" transform="translate(81.535)" fill="red"/><rect width="1.455" height="148.18" transform="translate(108.228)" fill="red"/></g><g transform="translate(0.682 25.308)"><rect width="164.233" height="1.455" fill="red"/><rect width="164.233" height="1.455" transform="translate(0 24.675)" fill="red"/><rect width="164.233" height="1.455" transform="translate(0 49.351)" fill="red"/><rect width="164.233" height="1.455" transform="translate(0 74.026)" fill="red"/><rect width="164.233" height="1.455" transform="translate(0 98.703)" fill="red"/></g></g><circle cx="3.954" cy="3.954" r="3.954" transform="translate(24.296 122.714)" fill="red"/><circle cx="3.954" cy="3.954" r="3.954" transform="translate(50.989 98.576)" fill="red"/><circle cx="3.954" cy="3.954" r="3.954" transform="translate(77.682 73.9)" fill="red"/><circle cx="3.954" cy="3.954" r="3.954" transform="translate(105.103 49.731)" fill="red"/><circle cx="3.954" cy="3.954" r="3.954" transform="translate(132.524 24.549)" fill="red"/><circle cx="3.954" cy="3.954" r="3.954" transform="translate(160.237)" fill="red"/></g></g></g></g><path d="M977.911,3857.6C845.626,3857.6,738,3749.978,738,3617.692s107.623-239.908,239.908-239.908,239.908,107.623,239.908,239.908S1110.2,3857.6,977.911,3857.6Zm0-478.362c-131.484,0-238.452,106.97-238.452,238.453s106.968,238.454,238.452,238.454,238.452-106.969,238.452-238.454S1109.4,3379.239,977.911,3379.239Z" transform="translate(-607.818 -3377.784)"/><g transform="translate(0 284.432)"><path d="M669.174,3740.559a110.1,110.1,0,0,1-16.827-.948l-.345-.058v-126.8l.391-.023c.172-.01,17.093-1.253,21.975-24.919l.089-.423,56.365,13.9-.14.426c-.14.425-13.772,42.711-1.461,59.695,3.382,4.665,8.475,7.031,15.137,7.031h.416v67.483l-.374.038C743.824,3736.011,697.688,3740.559,669.174,3740.559Zm-16.341-1.709c19.64,3.159,85.515-3.142,91.112-3.686v-65.9c-6.742-.1-11.92-2.576-15.4-7.371-12.031-16.6-.3-55.252,1.208-60.015L675.095,3588.4c-4.7,21.9-19.641,24.778-22.262,25.117Z" transform="translate(-646.968 -3566.799)"/><rect width="0.831" height="86.737" transform="translate(51.005 55.983)"/><g transform="translate(18.106 112.855)"><path d="M660.985,3650.79h4.225v.85h-3.2v2.606h2.957v.839h-2.957v3.549h-1.023Z" transform="translate(-660.985 -3650.79)"/><path d="M664.671,3654.108c0-.664-.012-1.234-.048-1.758h.9l.045,1.106h.035a1.7,1.7,0,0,1,1.572-1.234,2.052,2.052,0,0,1,.279.023v.966a2.877,2.877,0,0,0-.349-.023,1.438,1.438,0,0,0-1.374,1.3,3.156,3.156,0,0,0-.035.476v3.015h-1.023Z" transform="translate(-659.329 -3650.138)"/><path d="M667.9,3655.354a1.793,1.793,0,0,0,1.921,1.943,3.663,3.663,0,0,0,1.56-.291l.186.733a4.587,4.587,0,0,1-1.886.361,2.628,2.628,0,0,1-2.771-2.841,2.743,2.743,0,0,1,2.654-3.037,2.377,2.377,0,0,1,2.317,2.653,2.522,2.522,0,0,1-.035.479Zm2.992-.733a1.456,1.456,0,0,0-1.409-1.665,1.688,1.688,0,0,0-1.572,1.665Z" transform="translate(-658.287 -3650.138)"/><path d="M671.213,3653.875c0-.594-.012-1.06-.048-1.525h.909l.057.919h.023a2.091,2.091,0,0,1,1.863-1.048c.781,0,1.991.466,1.991,2.4v3.363h-1.024v-3.247c0-.908-.336-1.676-1.3-1.676a1.5,1.5,0,0,0-1.444,1.523v3.4h-1.024Z" transform="translate(-656.351 -3650.138)"/><path d="M677.038,3651.382v1.351H678.5v.78h-1.467v3.025c0,.7.2,1.094.768,1.094a1.919,1.919,0,0,0,.594-.07l.047.78a2.808,2.808,0,0,1-.908.14,1.462,1.462,0,0,1-1.106-.431,2.209,2.209,0,0,1-.394-1.479v-3.061h-.873v-.78h.873V3651.7Z" transform="translate(-654.53 -3650.52)"/><path d="M678.914,3655.354a1.793,1.793,0,0,0,1.921,1.943,3.663,3.663,0,0,0,1.56-.291l.186.733a4.587,4.587,0,0,1-1.886.361,2.628,2.628,0,0,1-2.771-2.841,2.743,2.743,0,0,1,2.654-3.037,2.377,2.377,0,0,1,2.317,2.653,2.5,2.5,0,0,1-.036.479Zm2.992-.733a1.456,1.456,0,0,0-1.409-1.665,1.688,1.688,0,0,0-1.572,1.665Z" transform="translate(-653.274 -3650.138)"/></g><g transform="translate(4.609 30.964)"><rect width="0.741" height="18.475" transform="translate(0.886 0.847)" fill="red"/><path d="M654.222,3596.839l-1.256-1.256-1.256,1.256v-1.066l1.256-1.256,1.256,1.256Z" transform="translate(-651.71 -3594.517)" fill="red"/></g><g transform="translate(26.645 7.521)"><rect width="0.741" height="18.475" transform="translate(0.885 0.847)" fill="red"/><path d="M669.364,3580.729l-1.256-1.256-1.256,1.256v-1.066l1.256-1.256,1.256,1.256Z" transform="translate(-666.853 -3578.407)" fill="red"/></g><g transform="translate(79.715 22.334)"><rect width="0.741" height="18.475" transform="translate(0.885 0.847)" fill="red"/><path d="M705.833,3590.908l-1.256-1.256-1.256,1.256v-1.066l1.256-1.256,1.256,1.256Z" transform="translate(-703.321 -3588.586)" fill="red"/></g><g transform="translate(95.945 164.099)"><rect width="0.741" height="18.475" transform="translate(0.885)" fill="red"/><g transform="translate(0 17)"><path d="M714.474,3697.687l1.256,1.256,1.256-1.256v1.065l-1.256,1.256-1.256-1.256Z" transform="translate(-714.474 -3697.687)" fill="red"/></g></g><g transform="translate(39.155 163.273)"><rect width="0.741" height="18.475" transform="translate(0.885)" fill="red"/><g transform="translate(0 17)"><path d="M675.45,3697.118l1.256,1.256,1.256-1.256v1.066l-1.256,1.256-1.256-1.256Z" transform="translate(-675.45 -3697.118)" fill="red"/></g></g><g transform="translate(4.609 163.273)"><rect width="0.741" height="18.475" transform="translate(0.886)" fill="red"/><g transform="translate(0 17)"><path d="M651.71,3697.118l1.256,1.256,1.256-1.256v1.066l-1.256,1.256-1.256-1.256Z" transform="translate(-651.71 -3697.118)" fill="red"/></g></g><g transform="translate(20.944 20.345)"><rect width="18.475" height="0.741" transform="translate(0 0.886)" fill="red"/><g transform="translate(17)"><path d="M674.617,3589.731l1.256-1.256-1.256-1.256h1.066l1.256,1.256-1.256,1.256Z" transform="translate(-674.617 -3587.22)" fill="red"/></g></g><g transform="translate(72.518 33.09)"><rect width="18.475" height="0.741" transform="translate(0 0.886)" fill="red"/><g transform="translate(17)"><path d="M710.058,3598.489l1.256-1.256-1.256-1.256h1.066l1.256,1.256-1.256,1.256Z" transform="translate(-710.058 -3595.978)" fill="red"/></g></g><g transform="translate(68.396 66.066)"><rect width="18.475" height="0.741" transform="translate(0 0.885)" fill="red"/><g transform="translate(17)"><path d="M707.225,3621.149l1.256-1.255-1.256-1.256h1.066l1.256,1.256-1.256,1.255Z" transform="translate(-707.225 -3618.638)" fill="red"/></g></g><g transform="translate(88.893 100.62)"><rect width="18.475" height="0.741" transform="translate(0 0.886)" fill="red"/><g transform="translate(17)"><path d="M721.31,3644.894l1.256-1.256-1.256-1.255h1.066l1.256,1.255-1.256,1.256Z" transform="translate(-721.31 -3642.383)" fill="red"/></g></g><g transform="translate(88.893 168.149)"><rect width="18.475" height="0.741" transform="translate(0 0.885)" fill="red"/><g transform="translate(17)"><path d="M721.31,3691.3l1.256-1.255-1.256-1.256h1.066l1.256,1.256-1.256,1.255Z" transform="translate(-721.31 -3688.787)" fill="red"/></g></g><g transform="translate(34.905 171.678)"><rect width="18.475" height="0.741" transform="translate(0 0.885)" fill="red"/><g transform="translate(17)"><path d="M684.211,3693.723l1.256-1.256-1.256-1.255h1.066l1.256,1.255-1.256,1.256Z" transform="translate(-684.211 -3691.212)" fill="red"/></g></g><g transform="translate(2.157 22.799)"><path d="M651.495,3593.479c-.864,0-1.457-.811-1.47-2.273,0-1.49.646-2.3,1.544-2.3.926,0,1.463.831,1.463,2.24,0,1.5-.565,2.334-1.53,2.334Zm.033-.463c.607,0,.9-.716.9-1.843,0-1.089-.271-1.8-.9-1.8-.544,0-.9.7-.9,1.8-.013,1.148.34,1.843.892,1.843Z" transform="translate(-650.025 -3588.906)" fill="red"/><path d="M652.894,3592.317a.4.4,0,0,1-.4-.429.406.406,0,0,1,.409-.429.4.4,0,0,1,.4.429.4.4,0,0,1-.409.429Z" transform="translate(-648.899 -3587.744)" fill="red"/><path d="M655.348,3593.38v-1.21h-2.055v-.389l1.973-2.823h.648v2.749h.619v.463h-.619v1.21Zm0-1.673v-1.476c0-.231.007-.463.02-.694h-.02c-.135.259-.245.448-.367.652l-1.083,1.5v.013Z" transform="translate(-648.537 -3588.882)" fill="red"/></g><g transform="translate(23.799)"><path d="M666.365,3577.812c-.863,0-1.455-.81-1.468-2.271,0-1.491.646-2.3,1.544-2.3.925,0,1.463.831,1.463,2.238,0,1.5-.565,2.334-1.531,2.334Zm.035-.463c.605,0,.9-.714.9-1.844,0-1.088-.272-1.8-.9-1.8-.544,0-.9.694-.9,1.8-.015,1.149.339,1.844.891,1.844Z" transform="translate(-664.897 -3573.239)" fill="red"/><path d="M667.764,3576.649a.4.4,0,0,1-.394-.428.406.406,0,0,1,.409-.429.4.4,0,0,1,.4.429.4.4,0,0,1-.407.428Z" transform="translate(-663.771 -3572.077)" fill="red"/><path d="M669.8,3573.239a1.146,1.146,0,0,1,1.294,1.088,1.125,1.125,0,0,1-.735,1.035v.02a1.233,1.233,0,0,1,.891,1.144,1.357,1.357,0,0,1-1.5,1.285c-.925,0-1.483-.544-1.483-1.19a1.275,1.275,0,0,1,.87-1.19v-.021a1.093,1.093,0,0,1-.707-.994,1.239,1.239,0,0,1,1.366-1.177Zm-.041,4.137a.8.8,0,0,0,.885-.791c0-.529-.374-.794-.974-.965a.967.967,0,0,0-.794.918.813.813,0,0,0,.877.837Zm.007-3.708a.7.7,0,0,0-.768.707c-.007.442.333.681.843.816a.872.872,0,0,0,.674-.8.685.685,0,0,0-.742-.72Z" transform="translate(-663.362 -3573.239)" fill="red"/><path d="M672.619,3577.713V3576.5h-2.056v-.389l1.973-2.823h.648v2.749h.619v.463h-.619v1.211Zm0-1.674v-1.477c0-.231.006-.463.019-.694h-.019c-.137.259-.246.45-.368.653l-1.083,1.5v.015Z" transform="translate(-662.318 -3573.215)" fill="red"/></g><g transform="translate(96.061 31.945)"><path d="M716.022,3599.763c-.863,0-1.455-.809-1.468-2.271,0-1.49.646-2.3,1.544-2.3.926,0,1.463.831,1.463,2.24,0,1.5-.565,2.333-1.531,2.333Zm.035-.461c.605,0,.9-.715.9-1.844,0-1.089-.272-1.8-.9-1.8-.544,0-.9.694-.9,1.8-.013,1.148.34,1.844.891,1.844Z" transform="translate(-714.554 -3595.191)" fill="red"/><path d="M717.423,3598.6a.4.4,0,0,1-.4-.428.406.406,0,0,1,.409-.429.4.4,0,0,1,.4.429.4.4,0,0,1-.407.428Z" transform="translate(-713.428 -3594.029)" fill="red"/><path d="M719.463,3595.191a1.145,1.145,0,0,1,1.292,1.088,1.124,1.124,0,0,1-.735,1.035v.021a1.232,1.232,0,0,1,.891,1.144,1.357,1.357,0,0,1-1.5,1.285c-.926,0-1.483-.544-1.483-1.19a1.274,1.274,0,0,1,.87-1.19v-.021a1.093,1.093,0,0,1-.707-.993,1.24,1.24,0,0,1,1.368-1.179Zm-.042,4.137a.8.8,0,0,0,.885-.789c0-.531-.374-.8-.972-.966a.966.966,0,0,0-.8.918.814.814,0,0,0,.877.836Zm.007-3.708a.7.7,0,0,0-.768.707c-.007.442.333.681.843.816a.87.87,0,0,0,.674-.8.685.685,0,0,0-.741-.721Z" transform="translate(-713.019 -3595.191)" fill="red"/><path d="M722.276,3599.665v-1.21h-2.055v-.387l1.973-2.825h.646v2.749h.618v.463h-.618v1.21Zm0-1.673v-1.477c0-.231.006-.462.02-.694h-.02c-.137.259-.246.45-.368.654l-1.081,1.5v.015Z" transform="translate(-711.974 -3595.167)" fill="red"/></g><g transform="translate(90.91 65.308)"><path d="M712.482,3622.689c-.863,0-1.455-.809-1.468-2.271,0-1.49.645-2.3,1.544-2.3.924,0,1.463.831,1.463,2.238,0,1.5-.565,2.334-1.531,2.334Zm.034-.463c.607,0,.9-.714.9-1.844,0-1.088-.272-1.8-.9-1.8-.543,0-.9.694-.9,1.8-.015,1.15.339,1.844.891,1.844Z" transform="translate(-711.014 -3618.117)" fill="red"/><path d="M713.881,3621.527a.4.4,0,0,1-.394-.429.406.406,0,0,1,.409-.428.4.4,0,0,1,.4.428.4.4,0,0,1-.407.429Z" transform="translate(-709.888 -3616.955)" fill="red"/><path d="M715.922,3618.117a1.144,1.144,0,0,1,1.292,1.088,1.123,1.123,0,0,1-.735,1.035v.021a1.232,1.232,0,0,1,.892,1.142,1.359,1.359,0,0,1-1.5,1.287c-.926,0-1.483-.544-1.483-1.19a1.276,1.276,0,0,1,.87-1.192v-.019a1.092,1.092,0,0,1-.707-.994,1.238,1.238,0,0,1,1.366-1.177Zm-.041,4.136a.8.8,0,0,0,.885-.789c0-.53-.374-.8-.974-.965a.966.966,0,0,0-.795.917.812.812,0,0,0,.876.837Zm.007-3.707a.7.7,0,0,0-.768.707c-.007.442.333.68.843.816a.871.871,0,0,0,.674-.8.685.685,0,0,0-.742-.72Z" transform="translate(-709.479 -3618.117)" fill="red"/><path d="M718.735,3622.591v-1.212H716.68v-.387l1.973-2.823h.648v2.747h.618v.463H719.3v1.212Zm0-1.675v-1.475c0-.231.007-.463.02-.694h-.02c-.135.259-.244.448-.367.653l-1.083,1.5v.013Z" transform="translate(-708.435 -3618.093)" fill="red"/></g><g transform="translate(111.434 99.212)"><path d="M726.016,3642.023H726l-.768.415-.115-.456.966-.517h.509v4.422h-.578Z" transform="translate(-725.118 -3641.392)" fill="red"/><path d="M727.669,3644.824a.4.4,0,0,1-.4-.428.407.407,0,0,1,.409-.429.429.429,0,0,1-.007.857Z" transform="translate(-724.137 -3640.253)" fill="red"/><path d="M728.208,3645.912v-.367l.47-.456c1.129-1.075,1.647-1.647,1.647-2.313a.785.785,0,0,0-.872-.864,1.5,1.5,0,0,0-.939.374l-.191-.422a1.96,1.96,0,0,1,1.251-.448,1.242,1.242,0,0,1,1.348,1.285c0,.816-.592,1.476-1.525,2.375l-.346.326v.013h1.98v.5Z" transform="translate(-723.711 -3641.415)" fill="red"/><path d="M733.155,3641.909a2.221,2.221,0,0,0-.45.035,1.769,1.769,0,0,0-1.538,1.564h.015a1.348,1.348,0,0,1,2.408.911,1.482,1.482,0,0,1-1.477,1.564c-.939,0-1.557-.733-1.557-1.883a2.75,2.75,0,0,1,.748-1.994,2.389,2.389,0,0,1,1.414-.653,2.807,2.807,0,0,1,.437-.034Zm-1.027,3.613c.509,0,.857-.429.857-1.062a.9.9,0,0,0-.912-1.014.981.981,0,0,0-.863.544.558.558,0,0,0-.063.259c.007.728.348,1.273.974,1.273Z" transform="translate(-722.642 -3641.413)" fill="red"/></g><g transform="translate(113.656 161.814)"><path d="M727.543,3685.042h-.015l-.768.417-.115-.456.966-.518h.509v4.422h-.578Z" transform="translate(-726.645 -3684.411)" fill="red"/><path d="M729.2,3687.843a.4.4,0,0,1-.4-.428.407.407,0,0,1,.409-.429.429.429,0,0,1-.007.857Z" transform="translate(-725.664 -3683.272)" fill="red"/><path d="M729.735,3688.93v-.367l.47-.456c1.129-1.075,1.646-1.647,1.646-2.314a.784.784,0,0,0-.87-.864,1.5,1.5,0,0,0-.939.374l-.191-.422a1.96,1.96,0,0,1,1.251-.448,1.24,1.24,0,0,1,1.346,1.285c0,.816-.591,1.478-1.524,2.375l-.346.328v.013h1.981v.5Z" transform="translate(-725.238 -3684.434)" fill="red"/><path d="M734.68,3684.928a2.348,2.348,0,0,0-.448.034,1.771,1.771,0,0,0-1.538,1.566h.015a1.349,1.349,0,0,1,2.408.911A1.482,1.482,0,0,1,733.64,3689c-.939,0-1.557-.733-1.557-1.883a2.751,2.751,0,0,1,.748-1.994,2.411,2.411,0,0,1,1.414-.653,2.851,2.851,0,0,1,.435-.033Zm-1.026,3.614c.509,0,.857-.43.857-1.062a.9.9,0,0,0-.912-1.013.983.983,0,0,0-.864.542.572.572,0,0,0-.061.259c.007.728.348,1.273.974,1.273Z" transform="translate(-724.169 -3684.432)" fill="red"/></g><g transform="translate(91.457 184.935)"><path d="M712.858,3704.895c-.863,0-1.455-.81-1.468-2.272,0-1.49.646-2.3,1.544-2.3.926,0,1.463.831,1.463,2.238,0,1.5-.565,2.334-1.531,2.334Zm.035-.463c.605,0,.9-.715.9-1.844,0-1.088-.272-1.8-.9-1.8-.544,0-.9.694-.9,1.8-.015,1.15.339,1.844.891,1.844Z" transform="translate(-711.39 -3700.322)" fill="red"/><path d="M714.257,3703.732a.4.4,0,0,1-.394-.43.406.406,0,0,1,.409-.428.4.4,0,0,1,.4.428.4.4,0,0,1-.408.43Z" transform="translate(-710.264 -3699.16)" fill="red"/><path d="M717.346,3700.816a2.221,2.221,0,0,0-.45.035,1.771,1.771,0,0,0-1.538,1.564h.015a1.349,1.349,0,0,1,2.408.912,1.482,1.482,0,0,1-1.477,1.565c-.939,0-1.557-.735-1.557-1.885a2.752,2.752,0,0,1,.748-1.994,2.406,2.406,0,0,1,1.414-.653,2.807,2.807,0,0,1,.437-.034Zm-1.027,3.613c.509,0,.857-.429.857-1.062a.9.9,0,0,0-.912-1.013.983.983,0,0,0-.863.544.55.55,0,0,0-.062.259c.007.728.348,1.272.974,1.272Z" transform="translate(-709.862 -3700.32)" fill="red"/><path d="M719.744,3700.816a2.208,2.208,0,0,0-.448.035,1.771,1.771,0,0,0-1.538,1.564h.015a1.349,1.349,0,0,1,2.408.912,1.483,1.483,0,0,1-1.477,1.565c-.939,0-1.557-.735-1.557-1.885a2.752,2.752,0,0,1,.748-1.994,2.406,2.406,0,0,1,1.415-.653,2.8,2.8,0,0,1,.435-.034Zm-1.026,3.613c.509,0,.857-.429.857-1.062a.9.9,0,0,0-.912-1.013.986.986,0,0,0-.864.544.569.569,0,0,0-.061.259c.007.728.348,1.272.974,1.272Z" transform="translate(-708.77 -3700.32)" fill="red"/></g><g transform="translate(34.779 185.579)"><path d="M673.912,3705.337c-.863,0-1.457-.811-1.47-2.273,0-1.49.648-2.3,1.545-2.3.924,0,1.462.83,1.462,2.238,0,1.5-.566,2.334-1.531,2.334Zm.033-.463c.607,0,.9-.715.9-1.844,0-1.089-.271-1.8-.9-1.8-.544,0-.9.694-.9,1.8-.015,1.149.339,1.844.891,1.844Z" transform="translate(-672.442 -3700.765)" fill="red"/><path d="M675.31,3704.175a.4.4,0,0,1-.394-.429.406.406,0,0,1,.409-.428.4.4,0,0,1,.4.428.4.4,0,0,1-.407.429Z" transform="translate(-671.316 -3699.603)" fill="red"/><path d="M678.4,3701.259a2.308,2.308,0,0,0-.451.035,1.771,1.771,0,0,0-1.537,1.564h.015a1.349,1.349,0,0,1,2.408.911,1.483,1.483,0,0,1-1.477,1.566c-.939,0-1.559-.735-1.559-1.885a2.75,2.75,0,0,1,.749-1.994,2.406,2.406,0,0,1,1.414-.653,2.8,2.8,0,0,1,.437-.034Zm-1.027,3.613c.509,0,.856-.43.856-1.062a.9.9,0,0,0-.911-1.013.983.983,0,0,0-.863.544.546.546,0,0,0-.063.259c.007.728.346,1.272.974,1.272Z" transform="translate(-670.914 -3700.762)" fill="red"/><path d="M680.8,3701.259a2.294,2.294,0,0,0-.45.035,1.774,1.774,0,0,0-1.538,1.564h.015a1.35,1.35,0,0,1,2.41.911,1.483,1.483,0,0,1-1.477,1.566c-.94,0-1.558-.735-1.558-1.885a2.75,2.75,0,0,1,.749-1.994,2.4,2.4,0,0,1,1.414-.653,2.789,2.789,0,0,1,.435-.034Zm-1.026,3.613c.508,0,.856-.43.856-1.062a.9.9,0,0,0-.911-1.013.985.985,0,0,0-.865.544.547.547,0,0,0-.061.259c.007.728.346,1.272.974,1.272Z" transform="translate(-669.822 -3700.762)" fill="red"/></g><g transform="translate(54.472 173.6)"><path d="M687.443,3697.105c-.863,0-1.455-.811-1.468-2.273,0-1.49.646-2.3,1.544-2.3.925,0,1.462.83,1.462,2.238,0,1.5-.565,2.334-1.531,2.334Zm.035-.463c.605,0,.9-.715.9-1.844,0-1.088-.272-1.8-.9-1.8-.544,0-.9.694-.9,1.8-.015,1.149.339,1.844.891,1.844Z" transform="translate(-685.975 -3692.533)" fill="red"/><path d="M688.842,3695.943a.4.4,0,0,1-.394-.43.406.406,0,0,1,.409-.428.4.4,0,0,1,.4.428.4.4,0,0,1-.408.43Z" transform="translate(-684.849 -3691.371)" fill="red"/><path d="M691.3,3697.006V3695.8h-2.055v-.387l1.973-2.823h.646v2.748h.619v.463h-.619v1.211Zm0-1.674v-1.476c0-.231.006-.462.02-.694h-.02c-.137.259-.246.449-.368.652l-1.081,1.5v.013Z" transform="translate(-684.487 -3692.509)" fill="red"/><path d="M691.782,3697.03v-.367l.469-.456c1.131-1.075,1.647-1.646,1.647-2.314a.784.784,0,0,0-.872-.864,1.508,1.508,0,0,0-.939.374l-.191-.422a1.972,1.972,0,0,1,1.251-.449,1.243,1.243,0,0,1,1.348,1.287c0,.816-.592,1.476-1.524,2.374l-.346.327v.013h1.979v.5Z" transform="translate(-683.331 -3692.533)" fill="red"/></g><g transform="translate(0 186.61)"><path d="M650.013,3706.044c-.864,0-1.457-.808-1.47-2.271,0-1.49.646-2.3,1.544-2.3.925,0,1.463.831,1.463,2.238,0,1.5-.565,2.333-1.529,2.333Zm.034-.461c.605,0,.9-.715.9-1.844,0-1.088-.272-1.8-.9-1.8-.544,0-.9.694-.9,1.8-.013,1.149.341,1.844.891,1.844Z" transform="translate(-648.543 -3701.473)" fill="red"/><path d="M651.412,3704.882a.4.4,0,0,1-.4-.428.406.406,0,0,1,.409-.428.4.4,0,0,1,.4.428.4.4,0,0,1-.409.428Z" transform="translate(-647.417 -3700.311)" fill="red"/><path d="M654.5,3701.967a2.294,2.294,0,0,0-.45.035,1.771,1.771,0,0,0-1.537,1.566h.013a1.348,1.348,0,0,1,2.408.911,1.481,1.481,0,0,1-1.476,1.563c-.939,0-1.559-.733-1.559-1.883a2.752,2.752,0,0,1,.748-1.994,2.406,2.406,0,0,1,1.416-.653,2.775,2.775,0,0,1,.435-.034Zm-1.027,3.613c.511,0,.857-.429.857-1.061a.9.9,0,0,0-.912-1.015.983.983,0,0,0-.863.544.563.563,0,0,0-.061.257c.007.728.346,1.273.972,1.273Z" transform="translate(-647.015 -3701.47)" fill="red"/><path d="M656.9,3701.967a2.294,2.294,0,0,0-.45.035,1.771,1.771,0,0,0-1.538,1.566h.015a1.348,1.348,0,0,1,2.408.911,1.482,1.482,0,0,1-1.477,1.563c-.939,0-1.557-.733-1.557-1.883a2.752,2.752,0,0,1,.748-1.994,2.406,2.406,0,0,1,1.414-.653,2.806,2.806,0,0,1,.437-.034Zm-1.027,3.613c.509,0,.857-.429.857-1.061a.9.9,0,0,0-.912-1.015.983.983,0,0,0-.863.544.545.545,0,0,0-.062.257c.007.728.348,1.273.974,1.273Z" transform="translate(-645.923 -3701.47)" fill="red"/></g><g transform="translate(76.998 16.09)"><path d="M702.922,3588.867c-.863,0-1.457-.809-1.468-2.271,0-1.49.646-2.3,1.544-2.3.924,0,1.463.83,1.463,2.238,0,1.5-.565,2.333-1.531,2.333Zm.033-.461c.607,0,.9-.715.9-1.844,0-1.088-.272-1.8-.9-1.8-.543,0-.9.694-.9,1.8-.015,1.15.341,1.844.891,1.844Z" transform="translate(-701.454 -3584.295)" fill="red"/><path d="M704.321,3587.7a.4.4,0,0,1-.394-.428.406.406,0,0,1,.409-.428.4.4,0,0,1,.4.428.4.4,0,0,1-.407.428Z" transform="translate(-700.328 -3583.134)" fill="red"/><path d="M707.708,3584.347v.4l-1.925,4.027h-.613l1.912-3.913v-.013h-2.164v-.5Z" transform="translate(-699.877 -3584.273)" fill="red"/><path d="M709.809,3584.79a2.308,2.308,0,0,0-.451.035,1.769,1.769,0,0,0-1.537,1.565h.015a1.348,1.348,0,0,1,2.408.911,1.482,1.482,0,0,1-1.477,1.564c-.939,0-1.559-.733-1.559-1.883a2.751,2.751,0,0,1,.75-1.994,2.391,2.391,0,0,1,1.414-.653,2.8,2.8,0,0,1,.437-.033Zm-1.027,3.614c.509,0,.856-.43.856-1.063a.9.9,0,0,0-.911-1.014.983.983,0,0,0-.863.544.558.558,0,0,0-.062.259c.007.728.346,1.273.973,1.273Z" transform="translate(-698.834 -3584.293)" fill="red"/></g><g transform="translate(42.773 19.637)"><path d="M679.406,3591.305c-.864,0-1.457-.811-1.47-2.273,0-1.49.646-2.3,1.544-2.3.926,0,1.463.83,1.463,2.238,0,1.5-.565,2.334-1.531,2.334Zm.033-.463c.605,0,.9-.714.9-1.844,0-1.088-.272-1.8-.9-1.8-.544,0-.9.694-.9,1.8-.013,1.15.34,1.844.891,1.844Z" transform="translate(-677.936 -3586.733)" fill="red"/><path d="M680.8,3590.143a.4.4,0,0,1-.4-.429.406.406,0,0,1,.409-.428.4.4,0,0,1,.4.428.4.4,0,0,1-.407.429Z" transform="translate(-676.81 -3585.571)" fill="red"/><path d="M681.344,3591.229v-.367l.47-.456c1.129-1.075,1.647-1.647,1.647-2.314a.785.785,0,0,0-.872-.864,1.5,1.5,0,0,0-.939.374l-.191-.422a1.961,1.961,0,0,1,1.251-.448,1.243,1.243,0,0,1,1.348,1.286c0,.816-.592,1.476-1.525,2.374l-.346.328v.013h1.981v.5Z" transform="translate(-676.385 -3586.733)" fill="red"/><path d="M686.389,3587.288H684.7l-.17,1.136a2.473,2.473,0,0,1,.361-.027,1.857,1.857,0,0,1,.952.238,1.256,1.256,0,0,1,.633,1.137,1.534,1.534,0,0,1-1.646,1.511,2.2,2.2,0,0,1-1.1-.272l.15-.456a1.989,1.989,0,0,0,.953.244.971.971,0,0,0,1.041-.966c0-.564-.389-.973-1.266-.973a3.672,3.672,0,0,0-.618.048l.285-2.123h2.116Z" transform="translate(-675.299 -3586.71)" fill="red"/></g></g><g transform="translate(362.112 82.011)"><path d="M941.235,3442.2h-5.494v5.115h6.147v1.537h-8v-14.188h7.685v1.538h-5.833v4.484h5.494Z" transform="translate(-880.757 -3433.903)"/><path d="M939.258,3451.845a2.952,2.952,0,0,0,2.021-.779c.505-.569.714-1.39.714-3.831v-8.567h1.854v9.283c0,1.978-.316,3.262-1.221,4.189a4.711,4.711,0,0,1-3.158,1.157Zm3.621-14.9a1.1,1.1,0,0,1-1.116-1.138,1.117,1.117,0,0,1,1.158-1.157,1.148,1.148,0,0,1-.022,2.3Z" transform="translate(-878.313 -3433.909)"/><path d="M945.777,3442.912a3.243,3.243,0,0,0,3.474,3.516,6.647,6.647,0,0,0,2.822-.525l.336,1.326a8.305,8.305,0,0,1-3.411.653c-3.114,0-5.009-2.083-5.009-5.137,0-3.073,1.832-5.494,4.8-5.494,3.325,0,4.19,2.927,4.19,4.8a4.472,4.472,0,0,1-.064.862Zm5.411-1.326c.022-1.177-.484-3.009-2.548-3.009-1.895,0-2.694,1.727-2.841,3.009Z" transform="translate(-876.159 -3432.724)"/><path d="M951.77,3440.24c0-1.074-.042-1.917-.084-2.758h1.621l.084,1.642h.063a3.524,3.524,0,0,1,3.222-1.873,3.005,3.005,0,0,1,2.862,2.042h.042a4.046,4.046,0,0,1,1.157-1.328,3.431,3.431,0,0,1,2.232-.714c1.368,0,3.369.883,3.369,4.42v6h-1.812V3441.9c0-1.978-.736-3.136-2.21-3.136a2.436,2.436,0,0,0-2.211,1.662,3.341,3.341,0,0,0-.147.927v6.315h-1.81v-6.125c0-1.621-.716-2.779-2.126-2.779a2.765,2.765,0,0,0-2.442,2.757v6.147h-1.81Z" transform="translate(-872.655 -3432.724)"/><path d="M963.837,3440.808c0-1.3-.02-2.357-.083-3.325h1.662l.1,1.747h.044a3.928,3.928,0,0,1,3.6-1.978c2.484,0,4.337,2.083,4.337,5.178,0,3.663-2.253,5.473-4.631,5.473a3.552,3.552,0,0,1-3.137-1.6h-.041v5.536h-1.854Zm1.854,2.715a3.01,3.01,0,0,0,.083.758,2.833,2.833,0,0,0,2.758,2.168c1.957,0,3.1-1.6,3.1-3.937,0-2.042-1.054-3.788-3.011-3.788a2.955,2.955,0,0,0-2.82,2.293,4.425,4.425,0,0,0-.1.738Z" transform="translate(-867.162 -3432.724)"/><path d="M972.044,3434.14H973.9v14.947h-1.853Z" transform="translate(-863.388 -3434.14)"/><path d="M979.835,3447.9c-2.736,0-4.882-2.02-4.882-5.24,0-3.411,2.253-5.411,5.051-5.411,2.926,0,4.906,2.126,4.906,5.22,0,3.79-2.631,5.431-5.052,5.431Zm.086-1.39c1.768,0,3.094-1.662,3.094-3.977,0-1.728-.863-3.9-3.053-3.9-2.167,0-3.114,2.021-3.114,3.958,0,2.231,1.263,3.915,3.052,3.915Z" transform="translate(-862.064 -3432.724)"/><path d="M897.378,3452.248a18.8,18.8,0,0,1,3.514-.3,5.824,5.824,0,0,1,3.979,1.181,3.811,3.811,0,0,1,1.263,2.947,4.112,4.112,0,0,1-1.115,3.031,5.888,5.888,0,0,1-4.338,1.557,6.276,6.276,0,0,1-1.474-.126v5.7h-1.829Zm1.829,6.8a6.157,6.157,0,0,0,1.516.149c2.21,0,3.558-1.076,3.558-3.011,0-1.875-1.326-2.78-3.347-2.78a7.672,7.672,0,0,0-1.727.148Z" transform="translate(-897.378 -3426.031)"/><path d="M913.36,3462.162c0,1.073.02,2,.084,2.8H911.8l-.1-1.662h-.041a3.81,3.81,0,0,1-3.369,1.894c-1.6,0-3.516-.905-3.516-4.462v-5.958h1.853v5.622c0,1.936.611,3.263,2.273,3.263a2.666,2.666,0,0,0,2.442-1.706,2.551,2.551,0,0,0,.169-.947v-6.231h1.853Z" transform="translate(-894.012 -3424.747)"/><path d="M912.813,3457.6c0-1.073-.02-1.917-.084-2.758h1.641l.1,1.664h.044a3.772,3.772,0,0,1,3.367-1.9c1.411,0,3.6.841,3.6,4.337v6.083h-1.853v-5.873c0-1.642-.611-3.031-2.357-3.031a2.675,2.675,0,0,0-2.484,1.895,2.756,2.756,0,0,0-.127.865v6.145h-1.853Z" transform="translate(-890.39 -3424.819)"/><path d="M923.353,3453.095v2.442h2.653v1.41h-2.653v5.473c0,1.263.358,1.979,1.39,1.979a3.454,3.454,0,0,0,1.074-.126l.084,1.41a5.051,5.051,0,0,1-1.643.253,2.637,2.637,0,0,1-2-.778,3.983,3.983,0,0,1-.716-2.673v-5.538h-1.578v-1.41h1.578v-1.874Z" transform="translate(-887.096 -3425.511)"/><path d="M929.838,3465.265c-2.736,0-4.882-2.021-4.882-5.241,0-3.411,2.253-5.411,5.051-5.411,2.926,0,4.906,2.126,4.906,5.22,0,3.791-2.631,5.432-5.053,5.432Zm.086-1.39c1.768,0,3.094-1.662,3.094-3.977,0-1.727-.863-3.9-3.053-3.9-2.167,0-3.116,2.021-3.116,3.958,0,2.231,1.265,3.915,3.053,3.915Z" transform="translate(-884.824 -3424.819)"/><path d="M936.472,3451.5h1.854v6.357h.041a3.329,3.329,0,0,1,1.327-1.305,3.6,3.6,0,0,1,1.895-.526c1.368,0,3.557.841,3.557,4.357v6.063h-1.851v-5.873c0-1.642-.611-3.01-2.357-3.01a2.681,2.681,0,0,0-2.484,1.853,2.224,2.224,0,0,0-.127.885v6.145h-1.854Z" transform="translate(-879.581 -3426.235)"/><path d="M948.879,3465.265c-2.736,0-4.882-2.021-4.882-5.241,0-3.411,2.253-5.411,5.051-5.411,2.927,0,4.906,2.126,4.906,5.22,0,3.791-2.631,5.432-5.052,5.432Zm.086-1.39c1.768,0,3.094-1.662,3.094-3.977,0-1.727-.863-3.9-3.053-3.9-2.167,0-3.114,2.021-3.114,3.958,0,2.231,1.263,3.915,3.052,3.915Z" transform="translate(-876.156 -3424.819)"/><path d="M952.473,3457.6c0-1.073-.041-1.917-.084-2.758h1.623l.083,1.642h.063a3.524,3.524,0,0,1,3.222-1.873,3.005,3.005,0,0,1,2.862,2.042h.042a4.04,4.04,0,0,1,1.157-1.327,3.428,3.428,0,0,1,2.232-.715c1.368,0,3.369.885,3.369,4.419v6h-1.81v-5.768c0-1.978-.738-3.136-2.212-3.136a2.435,2.435,0,0,0-2.211,1.664,3.329,3.329,0,0,0-.147.925v6.315h-1.81v-6.125c0-1.621-.715-2.779-2.126-2.779a2.553,2.553,0,0,0-2.293,1.854,2.524,2.524,0,0,0-.149.905v6.145h-1.81Z" transform="translate(-872.335 -3424.819)"/><path d="M964.54,3451.5h1.854v6.378h.041a3.781,3.781,0,0,1,3.474-1.853c2.526,0,4.294,2.1,4.294,5.18,0,3.661-2.315,5.472-4.588,5.472a3.648,3.648,0,0,1-3.41-1.916h-.042l-.106,1.684h-1.6c.063-.694.083-1.726.083-2.631Zm1.854,10.862a3.489,3.489,0,0,0,.063.673,2.877,2.877,0,0,0,2.778,2.168c1.959,0,3.1-1.579,3.1-3.916,0-2.063-1.054-3.81-3.031-3.81a2.936,2.936,0,0,0-2.8,2.274,2.862,2.862,0,0,0-.1.778Z" transform="translate(-866.842 -3426.235)"/><path d="M972.773,3458.023c0-1.2-.022-2.23-.084-3.178h1.621l.084,2h.063a3.082,3.082,0,0,1,2.842-2.231,4.175,4.175,0,0,1,.506.041v1.749a5.2,5.2,0,0,0-.633-.043,2.6,2.6,0,0,0-2.484,2.357,5.945,5.945,0,0,0-.062.864v5.451h-1.853Z" transform="translate(-863.094 -3424.819)"/><path d="M981.71,3465.265c-2.736,0-4.882-2.021-4.882-5.241,0-3.411,2.253-5.411,5.051-5.411,2.927,0,4.906,2.126,4.906,5.22,0,3.791-2.631,5.432-5.052,5.432Zm.086-1.39c1.768,0,3.094-1.662,3.094-3.977,0-1.727-.863-3.9-3.053-3.9-2.167,0-3.114,2.021-3.114,3.958,0,2.231,1.263,3.915,3.052,3.915Z" transform="translate(-861.21 -3424.819)"/><path d="M989.636,3454.773l1.452,2.189c.378.569.7,1.074,1.03,1.663h.064c.338-.61.674-1.135,1.032-1.684l1.41-2.168h2.021l-3.474,4.926,3.557,5.262h-2.1l-1.493-2.295c-.4-.588-.738-1.157-1.1-1.768h-.042c-.336.611-.694,1.159-1.074,1.768l-1.474,2.295H987.4l3.621-5.2-3.452-4.988Z" transform="translate(-856.395 -3424.747)"/><path d="M998.076,3463.14a5.235,5.235,0,0,0,2.464.715c1.326,0,1.956-.654,1.956-1.515,0-.885-.525-1.348-1.873-1.854-1.853-.674-2.715-1.683-2.715-2.883,0-1.642,1.348-2.989,3.516-2.989a4.731,4.731,0,0,1,2.484.632l-.442,1.326a4.173,4.173,0,0,0-2.084-.588c-1.094,0-1.685.63-1.685,1.388,0,.842.591,1.221,1.917,1.748,1.746.652,2.673,1.535,2.673,3.052,0,1.811-1.41,3.073-3.789,3.073a5.8,5.8,0,0,1-2.863-.716Z" transform="translate(-851.738 -3424.819)"/><path d="M1004.8,3454.3a1.1,1.1,0,0,1-1.116-1.136,1.147,1.147,0,1,1,1.138,1.136Zm-.885,11.914V3456.03h1.854v10.188Z" transform="translate(-848.986 -3426.005)"/><path d="M1007.191,3463.14a5.235,5.235,0,0,0,2.464.715c1.326,0,1.956-.654,1.956-1.515,0-.885-.525-1.348-1.873-1.854-1.852-.674-2.715-1.683-2.715-2.883,0-1.642,1.348-2.989,3.516-2.989a4.731,4.731,0,0,1,2.484.632l-.441,1.326a4.185,4.185,0,0,0-2.085-.588c-1.094,0-1.684.63-1.684,1.388,0,.842.589,1.221,1.915,1.748,1.746.652,2.673,1.535,2.673,3.052,0,1.811-1.41,3.073-3.789,3.073a5.785,5.785,0,0,1-2.861-.716Z" transform="translate(-847.589 -3424.819)"/><path d="M1020.383,3462.593a17.134,17.134,0,0,0,.148,2.44h-1.663l-.169-1.285h-.063a3.761,3.761,0,0,1-3.114,1.517,2.9,2.9,0,0,1-3.117-2.925c0-2.464,2.19-3.81,6.127-3.79v-.209a2.092,2.092,0,0,0-2.315-2.357,4.91,4.91,0,0,0-2.675.756l-.421-1.241a6.6,6.6,0,0,1,3.369-.885c3.136,0,3.893,2.126,3.893,4.168Zm-1.81-2.759c-2.02-.04-4.315.317-4.315,2.3a1.623,1.623,0,0,0,1.727,1.768,2.57,2.57,0,0,0,2.5-1.705,1.867,1.867,0,0,0,.083-.588Z" transform="translate(-845.014 -3424.819)"/></g><rect width="58.976" height="1.091" transform="matrix(0.935, -0.354, 0.354, 0.935, 82.805, 318.914)"/></g><g transform="translate(858.451 3651.207)"><rect width="340.499" height="1.455" transform="translate(0 5.189)" fill="red"/><g transform="translate(336.295)"><path d="M1038.36,3571.589l-14.478-5.916,3.435,5.916-3.435,5.915Z" transform="translate(-1023.881 -3565.673)" fill="red"/></g></g><g transform="translate(985.752 3388.063)"><rect width="1.455" height="340.498" transform="translate(5.189 10.275)" fill="red"/><path d="M886.181,3384.847l-5.916,14.479,5.916-3.436,5.915,3.436Z" transform="translate(-880.265 -3384.847)" fill="red"/></g><path d="M885.761,3412.528l-5.127-7.547,1.205-.819,3.985,5.868,4.449-5.9,1.162.875Z" transform="translate(105.654 11.995)" fill="red"/><g transform="translate(1214.15 3651.255)"><path d="M1040.251,3565.707l.838,1.983c.245.605.472,1.188.7,1.768h.035c.227-.653.435-1.235.664-1.841l.75-1.911h2.88l-2.81,5.639,2.845,6.2h-3l-.854-2.131a18.875,18.875,0,0,1-.664-1.814h-.052c-.21.653-.437,1.234-.646,1.814l-.8,2.131h-2.913l2.9-6.051-2.829-5.784Z" transform="translate(-1037.215 -3565.707)" fill="red"/></g></g></svg>