<svg xmlns="http://www.w3.org/2000/svg" width="820" height="377" viewBox="0 0 820 377"><g transform="translate(-390 -24077)"><rect width="820" height="377" transform="translate(390 24077)" fill="#fff"/><g transform="translate(-1525.155 22548.768)"><path d="M2063.462,1558.252h566.693v258.926L2390.61,1888.5s-31.785-99.23-120.16-91.478-179.854,34.111-179.854,34.111l-70.44-174.427s35.555-10.078,40.982-40.312A227.709,227.709,0,0,0,2063.462,1558.252Z" fill="#d6ebfb" stroke="#1c1c1c" stroke-miterlimit="10" stroke-width="2"/><path d="M-2.215,0a2.657,2.657,0,0,1-.178-.779A2.822,2.822,0,0,1-4.5.137,2.611,2.611,0,0,1-6.292-.482a2,2,0,0,1-.7-1.569,2.091,2.091,0,0,1,.878-1.794,4.142,4.142,0,0,1,2.471-.639h1.23v-.581a1.42,1.42,0,0,0-.4-1.056,1.593,1.593,0,0,0-1.169-.393,1.844,1.844,0,0,0-1.135.342,1.007,1.007,0,0,0-.458.827H-6.843a1.745,1.745,0,0,1,.393-1.07,2.683,2.683,0,0,1,1.066-.817,3.588,3.588,0,0,1,1.48-.3,2.924,2.924,0,0,1,2,.639,2.306,2.306,0,0,1,.752,1.76v3.4a4.162,4.162,0,0,0,.26,1.62V0Zm-2.1-.964a2.223,2.223,0,0,0,1.128-.308,1.861,1.861,0,0,0,.772-.8V-3.589H-3.4q-2.324,0-2.324,1.36a1.151,1.151,0,0,0,.4.93A1.524,1.524,0,0,0-4.313-.964ZM4.86,0H3.589V-8.429l-2.55.937V-8.641L4.662-10h.2Z" transform="translate(2085.108 1581.675)" fill="#161615"/><path d="M-2.215,0a2.657,2.657,0,0,1-.178-.779A2.822,2.822,0,0,1-4.5.137,2.611,2.611,0,0,1-6.292-.482a2,2,0,0,1-.7-1.569,2.091,2.091,0,0,1,.878-1.794,4.142,4.142,0,0,1,2.471-.639h1.23v-.581a1.42,1.42,0,0,0-.4-1.056,1.593,1.593,0,0,0-1.169-.393,1.844,1.844,0,0,0-1.135.342,1.007,1.007,0,0,0-.458.827H-6.843a1.745,1.745,0,0,1,.393-1.07,2.683,2.683,0,0,1,1.066-.817,3.588,3.588,0,0,1,1.48-.3,2.924,2.924,0,0,1,2,.639,2.306,2.306,0,0,1,.752,1.76v3.4a4.162,4.162,0,0,0,.26,1.62V0Zm-2.1-.964a2.223,2.223,0,0,0,1.128-.308,1.861,1.861,0,0,0,.772-.8V-3.589H-3.4q-2.324,0-2.324,1.36a1.151,1.151,0,0,0,.4.93A1.524,1.524,0,0,0-4.313-.964ZM7.226,0H.7V-.909L4.149-4.737A8.185,8.185,0,0,0,5.206-6.149,2.356,2.356,0,0,0,5.5-7.273a1.786,1.786,0,0,0-.472-1.278,1.649,1.649,0,0,0-1.258-.5A1.953,1.953,0,0,0,2.3-8.514a2.05,2.05,0,0,0-.523,1.494H.513A2.936,2.936,0,0,1,1.4-9.242a3.282,3.282,0,0,1,2.369-.848,3.153,3.153,0,0,1,2.194.728,2.483,2.483,0,0,1,.807,1.938q0,1.47-1.873,3.5L2.229-1.032h5Z" transform="translate(2044.071 1669.512)" fill="#161615"/><path d="M-2.215,0a2.657,2.657,0,0,1-.178-.779A2.822,2.822,0,0,1-4.5.137,2.611,2.611,0,0,1-6.292-.482a2,2,0,0,1-.7-1.569,2.091,2.091,0,0,1,.878-1.794,4.142,4.142,0,0,1,2.471-.639h1.23v-.581a1.42,1.42,0,0,0-.4-1.056,1.593,1.593,0,0,0-1.169-.393,1.844,1.844,0,0,0-1.135.342,1.007,1.007,0,0,0-.458.827H-6.843a1.745,1.745,0,0,1,.393-1.07,2.683,2.683,0,0,1,1.066-.817,3.588,3.588,0,0,1,1.48-.3,2.924,2.924,0,0,1,2,.639,2.306,2.306,0,0,1,.752,1.76v3.4a4.162,4.162,0,0,0,.26,1.62V0Zm-2.1-.964a2.223,2.223,0,0,0,1.128-.308,1.861,1.861,0,0,0,.772-.8V-3.589H-3.4q-2.324,0-2.324,1.36a1.151,1.151,0,0,0,.4.93A1.524,1.524,0,0,0-4.313-.964Zm5.6-4.026.506-4.963h5.1v1.169H2.864l-.3,2.714A3.212,3.212,0,0,1,4.225-6.5a2.746,2.746,0,0,1,2.16.9,3.523,3.523,0,0,1,.8,2.43A3.4,3.4,0,0,1,6.354-.749,3.027,3.027,0,0,1,4.033.137,3.146,3.146,0,0,1,1.88-.595,2.919,2.919,0,0,1,.93-2.618h1.2A2.009,2.009,0,0,0,2.734-1.33a1.892,1.892,0,0,0,1.3.434,1.706,1.706,0,0,0,1.384-.6,2.515,2.515,0,0,0,.5-1.661,2.308,2.308,0,0,0-.543-1.6,1.849,1.849,0,0,0-1.446-.6A2.085,2.085,0,0,0,2.632-5L2.3-4.73Z" transform="translate(2104.942 1811.057)" fill="#161615"/><path d="M-.639-3.616A4.4,4.4,0,0,1-1.418-.892,2.49,2.49,0,0,1-3.51.137,2.578,2.578,0,0,1-5.677-.854L-5.739,0H-6.9V-10.5h1.265v3.917a2.564,2.564,0,0,1,2.112-.95A2.505,2.505,0,0,1-1.408-6.515,4.53,4.53,0,0,1-.639-3.726ZM-1.9-3.76a3.417,3.417,0,0,0-.5-2,1.652,1.652,0,0,0-1.436-.7A1.857,1.857,0,0,0-5.636-5.3v3.2A1.909,1.909,0,0,0-3.825-.937a1.643,1.643,0,0,0,1.415-.7A3.634,3.634,0,0,0-1.9-3.76ZM4.98,0H3.708V-8.429l-2.55.937V-8.641L4.782-10h.2Z" transform="translate(2611.038 1808.058)" fill="#161615"/><path d="M3.292-3.616A4.4,4.4,0,0,1,2.512-.892,2.49,2.49,0,0,1,.42.137,2.578,2.578,0,0,1-1.747-.854L-1.808,0H-2.97V-10.5h1.265v3.917a2.564,2.564,0,0,1,2.112-.95A2.505,2.505,0,0,1,2.522-6.515a4.53,4.53,0,0,1,.769,2.789ZM2.027-3.76a3.417,3.417,0,0,0-.5-2,1.652,1.652,0,0,0-1.436-.7A1.857,1.857,0,0,0-1.706-5.3v3.2A1.909,1.909,0,0,0,.106-.937a1.643,1.643,0,0,0,1.415-.7A3.634,3.634,0,0,0,2.027-3.76Z" transform="translate(2615.038 1579.355)" fill="#161615"/><path d="M-32.354-4.6h-4.313v3.527h5.011V0H-37.98V-9.953h6.255v1.08h-4.942v3.2h4.313Zm3.329-2.8.041.93A2.7,2.7,0,0,1-26.77-7.533q2.345,0,2.365,2.646V0h-1.265V-4.895a1.7,1.7,0,0,0-.366-1.183,1.466,1.466,0,0,0-1.118-.383,1.825,1.825,0,0,0-1.08.328,2.228,2.228,0,0,0-.725.861V0h-1.265V-7.4Zm8.244-1.791V-7.4H-19.4v.978h-1.381v4.587a1.024,1.024,0,0,0,.185.667.777.777,0,0,0,.629.222,3.062,3.062,0,0,0,.6-.082V0a3.666,3.666,0,0,1-.971.137,1.575,1.575,0,0,1-1.278-.513,2.2,2.2,0,0,1-.431-1.456V-6.419h-1.347V-7.4h1.347V-9.187ZM-14.854.137A3.232,3.232,0,0,1-17.3-.851a3.666,3.666,0,0,1-.943-2.642v-.232a4.438,4.438,0,0,1,.42-1.965,3.28,3.28,0,0,1,1.176-1.354,2.956,2.956,0,0,1,1.637-.489,2.77,2.77,0,0,1,2.242.95,4.114,4.114,0,0,1,.8,2.721v.526H-16.98a2.629,2.629,0,0,0,.639,1.767A2.009,2.009,0,0,0-14.786-.9a2.2,2.2,0,0,0,1.135-.273,2.851,2.851,0,0,0,.813-.725l.772.6A3.106,3.106,0,0,1-14.854.137Zm-.157-6.631a1.687,1.687,0,0,0-1.285.557,2.708,2.708,0,0,0-.643,1.562h3.705v-.1a2.409,2.409,0,0,0-.52-1.494A1.588,1.588,0,0,0-15.012-6.494Zm8.08.232a3.79,3.79,0,0,0-.622-.048A1.667,1.667,0,0,0-9.242-5.25V0h-1.265V-7.4h1.23l.021.854a1.969,1.969,0,0,1,1.764-.991,1.292,1.292,0,0,1,.561.1Zm.69,2.5a4.369,4.369,0,0,1,.427-1.955,3.187,3.187,0,0,1,1.189-1.34,3.238,3.238,0,0,1,1.74-.472A3.119,3.119,0,0,1-.441-6.487,4.024,4.024,0,0,1,.492-3.705v.089A4.407,4.407,0,0,1,.079-1.678,3.14,3.14,0,0,1-1.1-.342,3.275,3.275,0,0,1-2.871.137,3.111,3.111,0,0,1-5.308-.909a4,4,0,0,1-.933-2.769Zm1.271.15A3.164,3.164,0,0,0-4.4-1.641,1.827,1.827,0,0,0-2.871-.9,1.816,1.816,0,0,0-1.34-1.651,3.46,3.46,0,0,0-.772-3.767,3.159,3.159,0,0,0-1.35-5.739a1.836,1.836,0,0,0-1.535-.755A1.816,1.816,0,0,0-4.4-5.749,3.434,3.434,0,0,0-4.97-3.616ZM5.236-3.76A4.333,4.333,0,0,1,6.043-6.5,2.551,2.551,0,0,1,8.155-7.533a2.565,2.565,0,0,1,2.058.889V-10.5h1.265V0H10.315l-.062-.793a2.575,2.575,0,0,1-2.112.93,2.526,2.526,0,0,1-2.1-1.053,4.382,4.382,0,0,1-.81-2.748ZM6.5-3.616a3.281,3.281,0,0,0,.52,1.969,1.68,1.68,0,0,0,1.436.711,1.845,1.845,0,0,0,1.757-1.08v-3.4A1.859,1.859,0,0,0,8.47-6.46a1.687,1.687,0,0,0-1.449.718A3.612,3.612,0,0,0,6.5-3.616Zm6.6-.15a4.369,4.369,0,0,1,.427-1.955,3.187,3.187,0,0,1,1.189-1.34,3.238,3.238,0,0,1,1.74-.472A3.119,3.119,0,0,1,18.9-6.487a4.024,4.024,0,0,1,.933,2.782v.089a4.407,4.407,0,0,1-.414,1.938A3.14,3.14,0,0,1,18.242-.342a3.275,3.275,0,0,1-1.767.479A3.111,3.111,0,0,1,14.038-.909,4,4,0,0,1,13.1-3.678Zm1.271.15a3.164,3.164,0,0,0,.571,1.976A1.827,1.827,0,0,0,16.475-.9a1.816,1.816,0,0,0,1.531-.755,3.46,3.46,0,0,0,.567-2.116A3.159,3.159,0,0,0,18-5.739a1.836,1.836,0,0,0-1.535-.755,1.816,1.816,0,0,0-1.511.745A3.434,3.434,0,0,0,14.376-3.616Zm13.31,0a4.4,4.4,0,0,1-.779,2.724A2.49,2.49,0,0,1,24.814.137a2.578,2.578,0,0,1-2.167-.991L22.586,0H21.424V-10.5h1.265v3.917a2.564,2.564,0,0,1,2.112-.95,2.505,2.505,0,0,1,2.116,1.019,4.53,4.53,0,0,1,.769,2.789ZM26.421-3.76a3.417,3.417,0,0,0-.5-2,1.652,1.652,0,0,0-1.436-.7,1.857,1.857,0,0,0-1.8,1.162v3.2A1.909,1.909,0,0,0,24.5-.937a1.643,1.643,0,0,0,1.415-.7A3.634,3.634,0,0,0,26.421-3.76ZM30.652,0H29.388V-10.5h1.265Zm5.093.137A3.232,3.232,0,0,1,33.3-.851a3.666,3.666,0,0,1-.943-2.642v-.232a4.438,4.438,0,0,1,.42-1.965,3.28,3.28,0,0,1,1.176-1.354,2.956,2.956,0,0,1,1.637-.489,2.77,2.77,0,0,1,2.242.95,4.114,4.114,0,0,1,.8,2.721v.526H33.619a2.629,2.629,0,0,0,.639,1.767A2.009,2.009,0,0,0,35.813-.9a2.2,2.2,0,0,0,1.135-.273,2.851,2.851,0,0,0,.813-.725l.772.6A3.106,3.106,0,0,1,35.745.137Zm-.157-6.631a1.687,1.687,0,0,0-1.285.557,2.708,2.708,0,0,0-.643,1.562h3.705v-.1a2.409,2.409,0,0,0-.52-1.494A1.588,1.588,0,0,0,35.588-6.494Z" transform="translate(2405.437 1593.114)" fill="#161615"/><path d="M-26.2,0h-1.319V-4.6h-5.018V0h-1.312V-9.953h1.313v4.279h5.018V-9.953H-26.2Zm3.507,0h-1.265V-7.4h1.265Zm-1.367-9.358a.755.755,0,0,1,.188-.52.706.706,0,0,1,.557-.212.717.717,0,0,1,.561.212.747.747,0,0,1,.191.52.722.722,0,0,1-.191.513.73.73,0,0,1-.561.205.718.718,0,0,1-.557-.205A.73.73,0,0,1-24.059-9.358ZM-19.294,0h-1.265V-10.5h1.265Zm1.688-3.767a4.369,4.369,0,0,1,.427-1.955,3.187,3.187,0,0,1,1.189-1.34,3.238,3.238,0,0,1,1.74-.472,3.119,3.119,0,0,1,2.444,1.046,4.024,4.024,0,0,1,.933,2.782v.089a4.407,4.407,0,0,1-.414,1.938A3.14,3.14,0,0,1-12.469-.342a3.275,3.275,0,0,1-1.767.479A3.111,3.111,0,0,1-16.673-.909a4,4,0,0,1-.933-2.769Zm1.271.15a3.164,3.164,0,0,0,.571,1.976A1.827,1.827,0,0,0-14.236-.9,1.816,1.816,0,0,0-12.7-1.651a3.46,3.46,0,0,0,.567-2.116,3.159,3.159,0,0,0-.578-1.972,1.836,1.836,0,0,0-1.535-.755,1.816,1.816,0,0,0-1.511.745A3.434,3.434,0,0,0-16.334-3.616ZM-6.128-3.76A4.333,4.333,0,0,1-5.322-6.5,2.551,2.551,0,0,1-3.209-7.533a2.565,2.565,0,0,1,2.058.889V-10.5H.113V0H-1.049l-.062-.793a2.575,2.575,0,0,1-2.112.93,2.526,2.526,0,0,1-2.1-1.053,4.382,4.382,0,0,1-.81-2.748Zm1.265.144a3.281,3.281,0,0,0,.52,1.969,1.68,1.68,0,0,0,1.436.711,1.845,1.845,0,0,0,1.757-1.08v-3.4A1.859,1.859,0,0,0-2.9-6.46a1.687,1.687,0,0,0-1.449.718A3.612,3.612,0,0,0-4.864-3.616ZM5.144.137A3.232,3.232,0,0,1,2.7-.851a3.666,3.666,0,0,1-.943-2.642v-.232a4.438,4.438,0,0,1,.42-1.965A3.28,3.28,0,0,1,3.35-7.044a2.956,2.956,0,0,1,1.637-.489,2.77,2.77,0,0,1,2.242.95,4.114,4.114,0,0,1,.8,2.721v.526H3.018a2.629,2.629,0,0,0,.639,1.767A2.009,2.009,0,0,0,5.212-.9a2.2,2.2,0,0,0,1.135-.273,2.851,2.851,0,0,0,.813-.725l.772.6A3.106,3.106,0,0,1,5.144.137ZM4.987-6.494A1.687,1.687,0,0,0,3.7-5.937a2.708,2.708,0,0,0-.643,1.562H6.764v-.1a2.409,2.409,0,0,0-.52-1.494A1.588,1.588,0,0,0,4.987-6.494Zm9.687-2.693V-7.4h1.381v.978H14.673v4.587a1.024,1.024,0,0,0,.185.667.777.777,0,0,0,.629.222,3.062,3.062,0,0,0,.6-.082V0a3.666,3.666,0,0,1-.971.137,1.575,1.575,0,0,1-1.278-.513,2.2,2.2,0,0,1-.431-1.456V-6.419H12.062V-7.4h1.347V-9.187ZM20.6.137a3.232,3.232,0,0,1-2.447-.988,3.666,3.666,0,0,1-.943-2.642v-.232a4.438,4.438,0,0,1,.42-1.965,3.28,3.28,0,0,1,1.176-1.354,2.956,2.956,0,0,1,1.637-.489,2.77,2.77,0,0,1,2.242.95,4.114,4.114,0,0,1,.8,2.721v.526H18.474a2.629,2.629,0,0,0,.639,1.767A2.009,2.009,0,0,0,20.668-.9,2.2,2.2,0,0,0,21.8-1.169a2.851,2.851,0,0,0,.813-.725l.772.6A3.106,3.106,0,0,1,20.6.137Zm-.157-6.631a1.687,1.687,0,0,0-1.285.557,2.708,2.708,0,0,0-.643,1.562H22.22v-.1a2.409,2.409,0,0,0-.52-1.494A1.588,1.588,0,0,0,20.443-6.494ZM26.322,0H25.057V-10.5h1.265Zm6.59,0a2.657,2.657,0,0,1-.178-.779,2.822,2.822,0,0,1-2.105.916,2.611,2.611,0,0,1-1.794-.619,2,2,0,0,1-.7-1.569,2.091,2.091,0,0,1,.878-1.794,4.142,4.142,0,0,1,2.471-.639h1.23v-.581a1.42,1.42,0,0,0-.4-1.056,1.593,1.593,0,0,0-1.169-.393,1.844,1.844,0,0,0-1.135.342,1.007,1.007,0,0,0-.458.827H28.284a1.745,1.745,0,0,1,.393-1.07,2.683,2.683,0,0,1,1.066-.817,3.588,3.588,0,0,1,1.48-.3,2.924,2.924,0,0,1,2,.639,2.306,2.306,0,0,1,.752,1.76v3.4a4.162,4.162,0,0,0,.26,1.62V0Zm-2.1-.964a2.223,2.223,0,0,0,1.128-.308,1.861,1.861,0,0,0,.772-.8V-3.589h-.991q-2.324,0-2.324,1.36a1.151,1.151,0,0,0,.4.93A1.524,1.524,0,0,0,30.813-.964Z" transform="translate(2405.083 1637.221)" fill="#161615"/><path d="M8.032-8.873h-3.2V0H3.527V-8.873H.335v-1.08h7.7Zm7.1,5.161H11.8V-4.744h3.336Zm6.439.369h1.381v1.032H21.574V0H20.3V-2.311H15.771v-.745l4.457-6.9h1.347Zm-4.368,0h3.1V-8.224l-.15.273ZM30.618,0H24.1V-.909l3.445-3.828A8.185,8.185,0,0,0,28.6-6.149a2.356,2.356,0,0,0,.291-1.125,1.786,1.786,0,0,0-.472-1.278,1.649,1.649,0,0,0-1.258-.5,1.953,1.953,0,0,0-1.466.537,2.05,2.05,0,0,0-.523,1.494H23.905a2.936,2.936,0,0,1,.885-2.222,3.282,3.282,0,0,1,2.369-.848,3.153,3.153,0,0,1,2.194.728,2.483,2.483,0,0,1,.807,1.938q0,1.47-1.873,3.5L25.621-1.032h5ZM3.438,10.3,5.079,7.6H6.556l-2.42,3.657L6.631,15H5.168L3.459,12.231,1.75,15H.28l2.5-3.739L.355,7.6H1.818ZM14.287,15H7.766v-.909l3.445-3.828a8.185,8.185,0,0,0,1.056-1.412,2.356,2.356,0,0,0,.291-1.125,1.786,1.786,0,0,0-.472-1.278,1.649,1.649,0,0,0-1.258-.5,1.953,1.953,0,0,0-1.466.537,2.05,2.05,0,0,0-.523,1.494H7.574a2.936,2.936,0,0,1,.885-2.222,3.282,3.282,0,0,1,2.369-.848,3.153,3.153,0,0,1,2.194.728,2.483,2.483,0,0,1,.807,1.938q0,1.47-1.873,3.5L9.29,13.968h5ZM1.155,30V20.047h2.81a4.523,4.523,0,0,1,2.3.574A3.884,3.884,0,0,1,7.8,22.255a5.318,5.318,0,0,1,.55,2.434v.636a5.336,5.336,0,0,1-.543,2.468,3.823,3.823,0,0,1-1.552,1.627A4.811,4.811,0,0,1,3.91,30Zm1.313-8.873v7.8H3.849a3.006,3.006,0,0,0,2.362-.943A3.9,3.9,0,0,0,7.055,25.3v-.581a3.957,3.957,0,0,0-.8-2.635A2.835,2.835,0,0,0,4,21.127Zm15.189,5.715a3.662,3.662,0,0,1-1.166,2.437,3.82,3.82,0,0,1-2.608.858,3.507,3.507,0,0,1-2.827-1.265,5.088,5.088,0,0,1-1.063-3.384v-.957a5.671,5.671,0,0,1,.5-2.44,3.7,3.7,0,0,1,1.4-1.617A3.911,3.911,0,0,1,14,19.91a3.6,3.6,0,0,1,2.543.885,3.706,3.706,0,0,1,1.114,2.451H16.338a2.847,2.847,0,0,0-.742-1.723A2.248,2.248,0,0,0,14,20.99a2.349,2.349,0,0,0-1.972.93,4.265,4.265,0,0,0-.714,2.646v.964a4.384,4.384,0,0,0,.677,2.577,2.187,2.187,0,0,0,1.894.957,2.526,2.526,0,0,0,1.678-.5,2.75,2.75,0,0,0,.776-1.726Zm7.69-.554H22.012V25.256h3.336Zm10.808-.533a5.784,5.784,0,0,1-.759,3.3,2.7,2.7,0,0,1-2.372,1.08,2.718,2.718,0,0,1-2.358-1.056,5.49,5.49,0,0,1-.793-3.155V24.237a5.655,5.655,0,0,1,.759-3.261,2.719,2.719,0,0,1,2.379-1.066,2.744,2.744,0,0,1,2.365,1.029,5.458,5.458,0,0,1,.779,3.175Zm-1.265-1.729a4.634,4.634,0,0,0-.451-2.341,1.553,1.553,0,0,0-1.429-.735,1.532,1.532,0,0,0-1.415.731,4.525,4.525,0,0,0-.458,2.249v2.023a4.708,4.708,0,0,0,.468,2.382,1.55,1.55,0,0,0,1.418.769,1.529,1.529,0,0,0,1.391-.725,4.538,4.538,0,0,0,.475-2.283Zm9.126,1.729a5.784,5.784,0,0,1-.759,3.3,3.153,3.153,0,0,1-4.73.024,5.49,5.49,0,0,1-.793-3.155V24.237a5.655,5.655,0,0,1,.759-3.261,2.719,2.719,0,0,1,2.379-1.066,2.744,2.744,0,0,1,2.365,1.029,5.458,5.458,0,0,1,.779,3.175Zm-1.265-1.729a4.634,4.634,0,0,0-.451-2.341,1.553,1.553,0,0,0-1.429-.735,1.532,1.532,0,0,0-1.415.731A4.525,4.525,0,0,0,39,23.93v2.023a4.708,4.708,0,0,0,.468,2.382,1.55,1.55,0,0,0,1.418.769,1.529,1.529,0,0,0,1.391-.725,4.538,4.538,0,0,0,.475-2.283ZM49.793,30H48.521V21.571l-2.55.937V21.359L49.595,20h.2ZM2.666,39.408h.95a2.088,2.088,0,0,0,1.408-.472A1.576,1.576,0,0,0,5.537,37.7a1.544,1.544,0,0,0-1.743-1.75,1.813,1.813,0,0,0-1.309.468A1.639,1.639,0,0,0,2,37.658H.731A2.539,2.539,0,0,1,1.6,35.693a3.15,3.15,0,0,1,2.2-.783A3.113,3.113,0,0,1,6,35.655a2.692,2.692,0,0,1,.8,2.071,2.185,2.185,0,0,1-.42,1.258,2.538,2.538,0,0,1-1.145.909,2.446,2.446,0,0,1,1.268.861,2.392,2.392,0,0,1,.448,1.47,2.715,2.715,0,0,1-.875,2.126,3.277,3.277,0,0,1-2.276.786,3.363,3.363,0,0,1-2.28-.759,2.517,2.517,0,0,1-.878-2H1.914a1.627,1.627,0,0,0,.513,1.258A1.95,1.95,0,0,0,3.8,44.1a1.914,1.914,0,0,0,1.4-.479,1.844,1.844,0,0,0,.485-1.374,1.673,1.673,0,0,0-.533-1.333,2.323,2.323,0,0,0-1.538-.479h-.95Zm11.129,1.7V45H12.482V35.047h3.671a3.688,3.688,0,0,1,2.56.834,2.827,2.827,0,0,1,.926,2.208,2.79,2.79,0,0,1-.906,2.232,3.853,3.853,0,0,1-2.594.783Zm0-1.073h2.358a2.361,2.361,0,0,0,1.613-.5,1.811,1.811,0,0,0,.561-1.432,1.871,1.871,0,0,0-.561-1.422,2.212,2.212,0,0,0-1.538-.554H13.795ZM22.49,45H21.226V37.6H22.49Zm-1.367-9.358a.755.755,0,0,1,.188-.52.706.706,0,0,1,.557-.212.717.717,0,0,1,.561.212.747.747,0,0,1,.191.52.722.722,0,0,1-.191.513.73.73,0,0,1-.561.205.718.718,0,0,1-.557-.205A.73.73,0,0,1,21.123,35.642Zm6.46,9.5a3.232,3.232,0,0,1-2.447-.988,3.666,3.666,0,0,1-.943-2.642v-.232a4.438,4.438,0,0,1,.42-1.965,3.28,3.28,0,0,1,1.176-1.354,2.956,2.956,0,0,1,1.637-.489,2.77,2.77,0,0,1,2.242.95,4.114,4.114,0,0,1,.8,2.721v.526H25.457a2.629,2.629,0,0,0,.639,1.767,2.009,2.009,0,0,0,1.555.673,2.2,2.2,0,0,0,1.135-.273,2.851,2.851,0,0,0,.813-.725l.772.6A3.106,3.106,0,0,1,27.583,45.137Zm-.157-6.631a1.687,1.687,0,0,0-1.285.557,2.708,2.708,0,0,0-.643,1.562H29.2v-.1a2.409,2.409,0,0,0-.52-1.494A1.588,1.588,0,0,0,27.426,38.506Zm5.694,5.462h4.327V45H31.575v-.93l4.081-5.421h-4.02V37.6h5.605v.9ZM43.436,45a2.657,2.657,0,0,1-.178-.779,2.822,2.822,0,0,1-2.105.916,2.611,2.611,0,0,1-1.794-.619,2,2,0,0,1-.7-1.569,2.091,2.091,0,0,1,.878-1.794,4.142,4.142,0,0,1,2.471-.639h1.23v-.581a1.42,1.42,0,0,0-.4-1.056,1.593,1.593,0,0,0-1.169-.393,1.844,1.844,0,0,0-1.135.342,1.007,1.007,0,0,0-.458.827H38.808a1.745,1.745,0,0,1,.393-1.07,2.683,2.683,0,0,1,1.066-.817,3.588,3.588,0,0,1,1.48-.3,2.924,2.924,0,0,1,2,.639,2.306,2.306,0,0,1,.752,1.76v3.4a4.162,4.162,0,0,0,.26,1.62V45Zm-2.1-.964a2.223,2.223,0,0,0,1.128-.308,1.861,1.861,0,0,0,.772-.8V41.411h-.991q-2.324,0-2.324,1.36a1.151,1.151,0,0,0,.4.93A1.524,1.524,0,0,0,41.337,44.036Zm9.454-1a.931.931,0,0,0-.386-.8,3.718,3.718,0,0,0-1.347-.489,6.367,6.367,0,0,1-1.524-.492,2.169,2.169,0,0,1-.834-.684,1.635,1.635,0,0,1-.27-.943A1.919,1.919,0,0,1,47.2,38.1a3,3,0,0,1,1.965-.629,3.091,3.091,0,0,1,2.041.649,2.063,2.063,0,0,1,.783,1.661H50.716a1.142,1.142,0,0,0-.441-.9,1.652,1.652,0,0,0-1.111-.376,1.729,1.729,0,0,0-1.08.3.947.947,0,0,0-.39.786.767.767,0,0,0,.362.69,4.458,4.458,0,0,0,1.309.444,6.821,6.821,0,0,1,1.535.506,2.239,2.239,0,0,1,.872.708,1.74,1.74,0,0,1,.284,1.008,1.893,1.893,0,0,1-.793,1.589,3.326,3.326,0,0,1-2.058.6,3.725,3.725,0,0,1-1.572-.314,2.557,2.557,0,0,1-1.07-.878,2.117,2.117,0,0,1-.386-1.22h1.265a1.309,1.309,0,0,0,.509,1.008,1.976,1.976,0,0,0,1.254.373,2.039,2.039,0,0,0,1.152-.291A.893.893,0,0,0,50.791,43.038ZM4.983,60H3.712V51.571l-2.55.937V51.359L4.785,50h.2Zm8.552-4.375a3.094,3.094,0,0,1-.947.759,2.569,2.569,0,0,1-1.207.287,2.652,2.652,0,0,1-1.5-.424,2.755,2.755,0,0,1-.988-1.193,4.067,4.067,0,0,1-.349-1.7,4.143,4.143,0,0,1,.379-1.8A2.787,2.787,0,0,1,10,50.334a3.07,3.07,0,0,1,1.627-.424,2.78,2.78,0,0,1,2.328,1.1,4.815,4.815,0,0,1,.851,3.011v.369a6.434,6.434,0,0,1-1.148,4.242,4.412,4.412,0,0,1-3.466,1.371H9.946V58.94h.267a3.478,3.478,0,0,0,2.406-.817A3.509,3.509,0,0,0,13.535,55.625Zm-1.948,0a1.953,1.953,0,0,0,1.172-.39,2.3,2.3,0,0,0,.783-.964v-.506A3.48,3.48,0,0,0,13,51.742a1.651,1.651,0,0,0-2.707-.14,2.637,2.637,0,0,0-.506,1.685,2.744,2.744,0,0,0,.489,1.678A1.548,1.548,0,0,0,11.587,55.625Zm7.725.663H15.976V55.256h3.336Zm5.947-.663a3.094,3.094,0,0,1-.947.759,2.569,2.569,0,0,1-1.207.287,2.652,2.652,0,0,1-1.5-.424,2.755,2.755,0,0,1-.988-1.193,4.067,4.067,0,0,1-.349-1.7,4.143,4.143,0,0,1,.379-1.8,2.787,2.787,0,0,1,1.077-1.224,3.07,3.07,0,0,1,1.627-.424,2.78,2.78,0,0,1,2.328,1.1,4.815,4.815,0,0,1,.851,3.011v.369a6.434,6.434,0,0,1-1.148,4.242,4.412,4.412,0,0,1-3.466,1.371H21.67V58.94h.267a3.478,3.478,0,0,0,2.406-.817A3.509,3.509,0,0,0,25.259,55.625Zm-1.948,0a1.953,1.953,0,0,0,1.172-.39,2.3,2.3,0,0,0,.783-.964v-.506a3.48,3.48,0,0,0-.54-2.023,1.651,1.651,0,0,0-2.707-.14,2.637,2.637,0,0,0-.506,1.685A2.744,2.744,0,0,0,22,54.965,1.548,1.548,0,0,0,23.311,55.625Zm7.725.663H27.7V55.256h3.336Zm5.947-.663a3.094,3.094,0,0,1-.947.759,2.569,2.569,0,0,1-1.207.287,2.652,2.652,0,0,1-1.5-.424,2.755,2.755,0,0,1-.988-1.193,4.067,4.067,0,0,1-.349-1.7,4.143,4.143,0,0,1,.379-1.8,2.787,2.787,0,0,1,1.077-1.224,3.07,3.07,0,0,1,1.627-.424,2.78,2.78,0,0,1,2.328,1.1,4.815,4.815,0,0,1,.851,3.011v.369a6.434,6.434,0,0,1-1.148,4.242,4.412,4.412,0,0,1-3.466,1.371h-.246V58.94h.267a3.478,3.478,0,0,0,2.406-.817A3.509,3.509,0,0,0,36.982,55.625Zm-1.948,0a1.953,1.953,0,0,0,1.172-.39,2.3,2.3,0,0,0,.783-.964v-.506a3.48,3.48,0,0,0-.54-2.023,1.651,1.651,0,0,0-2.707-.14,2.637,2.637,0,0,0-.506,1.685,2.744,2.744,0,0,0,.489,1.678A1.548,1.548,0,0,0,35.034,55.625Zm10.3,1.032h1.381v1.032H45.336V60H44.064V57.689H39.532v-.745l4.457-6.9h1.347Zm-4.368,0h3.1V51.776l-.15.273ZM2.851,80.047,6.1,88.168l3.254-8.121h1.7V90H9.748V86.124l.123-4.184L6.6,90h-1L2.338,81.961l.13,4.163V90H1.155V80.047Zm10.356,9.29a.792.792,0,0,1,.195-.547.742.742,0,0,1,.584-.219.765.765,0,0,1,.591.219.776.776,0,0,1,.2.547.734.734,0,0,1-.2.526.778.778,0,0,1-.591.212.7.7,0,0,1-.779-.738ZM17.063,90V80.047h3.254a3.777,3.777,0,0,1,2.437.67A2.414,2.414,0,0,1,23.57,82.7a2.022,2.022,0,0,1-.4,1.234,2.57,2.57,0,0,1-1.08.831,2.308,2.308,0,0,1,1.275.858,2.462,2.462,0,0,1,.468,1.507,2.662,2.662,0,0,1-.868,2.105A3.59,3.59,0,0,1,20.515,90Zm1.313-4.655v3.582h2.167a2.087,2.087,0,0,0,1.446-.475,1.669,1.669,0,0,0,.53-1.309q0-1.8-1.955-1.8Zm0-1.053h1.982a2.081,2.081,0,0,0,1.377-.431,1.442,1.442,0,0,0,.516-1.169,1.418,1.418,0,0,0-.479-1.193,2.354,2.354,0,0,0-1.456-.373H18.375Zm7.232,5.045a.792.792,0,0,1,.195-.547.742.742,0,0,1,.584-.219.765.765,0,0,1,.591.219.776.776,0,0,1,.2.547.734.734,0,0,1-.2.526.778.778,0,0,1-.591.212.7.7,0,0,1-.779-.738Zm7.15-1.08,2.844-8.21h1.436L33.346,90H32.184L28.5,80.047h1.429Zm3.9,1.08a.792.792,0,0,1,.195-.547.742.742,0,0,1,.584-.219.765.765,0,0,1,.591.219.776.776,0,0,1,.2.547.734.734,0,0,1-.2.526.778.778,0,0,1-.591.212.7.7,0,0,1-.779-.738Z" transform="translate(2384.155 1695.012)" fill="#161615"/><path d="M-74.652-3.507V0H-76.7V-9.953h3.883a4.492,4.492,0,0,1,1.972.41,3.022,3.022,0,0,1,1.309,1.166,3.25,3.25,0,0,1,.458,1.719,2.858,2.858,0,0,1-1,2.307,4.171,4.171,0,0,1-2.772.844Zm0-1.661h1.832a1.8,1.8,0,0,0,1.241-.383,1.392,1.392,0,0,0,.427-1.094,1.642,1.642,0,0,0-.431-1.183,1.609,1.609,0,0,0-1.189-.465h-1.88ZM-63.27-2.051h-3.6L-67.549,0H-69.73l3.705-9.953h1.9L-60.4,0H-62.58Zm-3.042-1.661h2.488l-1.251-3.726ZM-52.8-8.292h-3.049V0H-57.9V-8.292H-60.9V-9.953H-52.8Zm4.854,4.648h-1.634V0h-2.051V-9.953h3.7a4.181,4.181,0,0,1,2.721.786,2.713,2.713,0,0,1,.957,2.222,3.062,3.062,0,0,1-.441,1.7A3.007,3.007,0,0,1-46.03-4.163L-43.876-.1V0h-2.2ZM-49.578-5.3h1.654a1.694,1.694,0,0,0,1.2-.393A1.4,1.4,0,0,0-46.3-6.781a1.5,1.5,0,0,0-.4-1.107,1.662,1.662,0,0,0-1.227-.4h-1.647Zm15.06.554a6.008,6.008,0,0,1-.52,2.577A3.913,3.913,0,0,1-36.524-.465a4.113,4.113,0,0,1-2.218.6,4.141,4.141,0,0,1-2.208-.595,3.951,3.951,0,0,1-1.5-1.7,5.837,5.837,0,0,1-.54-2.54v-.492a5.977,5.977,0,0,1,.53-2.587,3.945,3.945,0,0,1,1.5-1.716,4.118,4.118,0,0,1,2.211-.6,4.118,4.118,0,0,1,2.211.6,3.945,3.945,0,0,1,1.5,1.716,5.96,5.96,0,0,1,.53,2.581ZM-36.6-5.2a4.188,4.188,0,0,0-.561-2.379,1.827,1.827,0,0,0-1.6-.813,1.827,1.827,0,0,0-1.593.8,4.141,4.141,0,0,0-.567,2.355v.485a4.241,4.241,0,0,0,.561,2.365,1.822,1.822,0,0,0,1.613.841,1.806,1.806,0,0,0,1.586-.81A4.216,4.216,0,0,0-36.6-4.717Zm-1.764-7.417h2.153L-38.1-10.5h-1.606ZM-24.934,0h-2.051l-3.992-6.549V0h-2.051V-9.953h2.051l4,6.563V-9.953h2.044Zm5.277,0V-9.953h3.486a4.578,4.578,0,0,1,2.748.694,2.373,2.373,0,0,1,.937,2.034,2.249,2.249,0,0,1-.376,1.289,2.172,2.172,0,0,1-1.046.817,2.1,2.1,0,0,1,1.207.772,2.284,2.284,0,0,1,.441,1.422,2.627,2.627,0,0,1-.916,2.174A4.124,4.124,0,0,1-15.788,0Zm2.051-4.334v2.687h1.757a1.7,1.7,0,0,0,1.131-.345,1.184,1.184,0,0,0,.407-.954,1.25,1.25,0,0,0-1.415-1.388Zm0-1.449h1.518q1.552-.027,1.552-1.237a1.143,1.143,0,0,0-.393-.974,2.067,2.067,0,0,0-1.241-.3h-1.436ZM-5.1-2.051H-8.7L-9.382,0h-2.181l3.705-9.953h1.9L-2.232,0H-4.413ZM-8.145-3.712h2.488L-6.908-7.437Zm12,1.1a1.052,1.052,0,0,0-.41-.892A5.38,5.38,0,0,0,1.972-4.16,10.467,10.467,0,0,1,.284-4.84a2.759,2.759,0,0,1-1.7-2.468A2.4,2.4,0,0,1-.957-8.747,2.965,2.965,0,0,1,.349-9.734a4.914,4.914,0,0,1,1.911-.355,4.473,4.473,0,0,1,1.9.386,3.026,3.026,0,0,1,1.3,1.09,2.853,2.853,0,0,1,.461,1.6H3.866a1.342,1.342,0,0,0-.431-1.063,1.77,1.77,0,0,0-1.21-.379,1.891,1.891,0,0,0-1.169.318A1,1,0,0,0,.639-7.3a.96.96,0,0,0,.489.813,5.522,5.522,0,0,0,1.439.615,6.217,6.217,0,0,1,2.55,1.306,2.6,2.6,0,0,1,.8,1.941A2.4,2.4,0,0,1,4.939-.6,4.279,4.279,0,0,1,2.307.137,5.082,5.082,0,0,1,.215-.284,3.31,3.31,0,0,1-1.224-1.436a2.95,2.95,0,0,1-.5-1.7H.338q0,1.647,1.969,1.647a1.915,1.915,0,0,0,1.142-.3A.967.967,0,0,0,3.859-2.611Zm9.434-1.7H9.355v2.666h4.621V0H7.3V-9.953h6.658v1.661H9.355V-5.92h3.938Zm11.361,0H20.716v2.666h4.621V0H18.666V-9.953h6.658v1.661H20.716V-5.92h3.938Zm7.048,1.7a1.052,1.052,0,0,0-.41-.892,5.38,5.38,0,0,0-1.477-.656,10.467,10.467,0,0,1-1.688-.68,2.759,2.759,0,0,1-1.7-2.468,2.4,2.4,0,0,1,.455-1.439,2.965,2.965,0,0,1,1.306-.988A4.914,4.914,0,0,1,30.1-10.09,4.473,4.473,0,0,1,32-9.7a3.026,3.026,0,0,1,1.3,1.09,2.853,2.853,0,0,1,.461,1.6H31.708a1.342,1.342,0,0,0-.431-1.063,1.77,1.77,0,0,0-1.21-.379,1.891,1.891,0,0,0-1.169.318,1,1,0,0,0-.417.837.96.96,0,0,0,.489.813,5.522,5.522,0,0,0,1.439.615,6.217,6.217,0,0,1,2.55,1.306,2.6,2.6,0,0,1,.8,1.941A2.4,2.4,0,0,1,32.782-.6,4.279,4.279,0,0,1,30.15.137a5.082,5.082,0,0,1-2.092-.42,3.31,3.31,0,0,1-1.439-1.152,2.95,2.95,0,0,1-.5-1.7h2.058q0,1.647,1.969,1.647a1.915,1.915,0,0,0,1.142-.3A.967.967,0,0,0,31.7-2.611Zm5.5-.9V0H35.147V-9.953H39.03A4.492,4.492,0,0,1,41-9.543a3.022,3.022,0,0,1,1.309,1.166,3.25,3.25,0,0,1,.458,1.719,2.858,2.858,0,0,1-1,2.307A4.171,4.171,0,0,1,39-3.507Zm0-1.661H39.03a1.8,1.8,0,0,0,1.241-.383A1.392,1.392,0,0,0,40.7-6.645a1.642,1.642,0,0,0-.431-1.183,1.609,1.609,0,0,0-1.189-.465H37.2ZM48.58-2.051h-3.6L44.3,0H42.12l3.705-9.953h1.9L51.451,0H49.27ZM45.538-3.712h2.488L46.775-7.437Zm8.894,2.064h4.354V0H52.38V-9.953h2.051ZM59.961,0V-9.953h3.063a4.651,4.651,0,0,1,2.348.591A4.123,4.123,0,0,1,66.989-7.68,5.187,5.187,0,0,1,67.57-5.2v.458A5.2,5.2,0,0,1,67-2.276,4.088,4.088,0,0,1,65.389-.6a4.686,4.686,0,0,1-2.345.6Zm2.051-8.292v6.645H63a2.227,2.227,0,0,0,1.839-.786,3.552,3.552,0,0,0,.649-2.249v-.526a3.609,3.609,0,0,0-.629-2.3,2.219,2.219,0,0,0-1.839-.783ZM74.679-2.051h-3.6L70.4,0H68.219l3.705-9.953h1.9L77.55,0H75.37ZM71.637-3.712h2.488L72.875-7.437Z" transform="translate(2158.587 1686.511)" fill="#161615"/><g transform="translate(2260.629 1602.479)"><rect width="303.036" height="1.823" transform="translate(1.977 6.543)" fill="#161615"/><path d="M2291.963,1621.679l1.244-1.335-6.585-6.12,6.585-6.121-1.244-1.335-8.018,7.457Z" transform="translate(-2283.945 -1606.767)" fill="#161615"/><g transform="translate(297.728)"><path d="M2611.784,1621.679l-1.244-1.335,6.585-6.12-6.585-6.121,1.244-1.335,8.019,7.457Z" transform="translate(-2610.541 -1606.767)" fill="#161615"/></g></g></g></g></svg>