<svg xmlns="http://www.w3.org/2000/svg" width="400.502" height="439.484" viewBox="0 0 400.502 439.484"><g transform="translate(855.142 5685.401)"><rect width="400.502" height="439.485" transform="translate(-855.142 -5685.401)" fill="#fff"/><path d="M-485.05-5296.579l-170.238,31.458-170.238-31.458v-361.756H-485.05Z" transform="translate(-1.72 -1.572)" fill="none" stroke="#7a1c47" stroke-miterlimit="10" stroke-width="2"/><path d="M-505.588-5314.975l-148.35,27.414-148.35-27.414v-294.511h296.7Z" transform="translate(-3.07 -4.409)" fill="none" stroke="#7a1c47" stroke-miterlimit="10" stroke-width="2"/><path d="M1.155,0V-9.953H4.409a3.777,3.777,0,0,1,2.437.67A2.414,2.414,0,0,1,7.663-7.3a2.022,2.022,0,0,1-.4,1.234,2.57,2.57,0,0,1-1.08.831,2.308,2.308,0,0,1,1.275.858A2.462,2.462,0,0,1,7.93-2.871,2.662,2.662,0,0,1,7.062-.766,3.59,3.59,0,0,1,4.607,0ZM2.468-4.655v3.582H4.635a2.087,2.087,0,0,0,1.446-.475,1.669,1.669,0,0,0,.53-1.309q0-1.8-1.955-1.8Zm0-1.053H4.45a2.081,2.081,0,0,0,1.377-.431,1.442,1.442,0,0,0,.516-1.169A1.418,1.418,0,0,0,5.865-8.5a2.354,2.354,0,0,0-1.456-.373H2.468Zm6.87,1.941a4.369,4.369,0,0,1,.427-1.955,3.187,3.187,0,0,1,1.189-1.34,3.238,3.238,0,0,1,1.74-.472,3.119,3.119,0,0,1,2.444,1.046,4.024,4.024,0,0,1,.933,2.782v.089a4.407,4.407,0,0,1-.414,1.938A3.14,3.14,0,0,1,14.475-.342a3.275,3.275,0,0,1-1.767.479A3.111,3.111,0,0,1,10.271-.909a4,4,0,0,1-.933-2.769Zm1.271.15a3.164,3.164,0,0,0,.571,1.976A1.827,1.827,0,0,0,12.708-.9a1.816,1.816,0,0,0,1.531-.755,3.46,3.46,0,0,0,.567-2.116,3.159,3.159,0,0,0-.578-1.972,1.836,1.836,0,0,0-1.535-.755,1.816,1.816,0,0,0-1.511.745A3.434,3.434,0,0,0,10.609-3.616ZM19.031,0H17.767V-10.5h1.265Zm6.33-1.962a.931.931,0,0,0-.386-.8,3.718,3.718,0,0,0-1.347-.489A6.367,6.367,0,0,1,22.1-3.739a2.169,2.169,0,0,1-.834-.684A1.635,1.635,0,0,1,21-5.366,1.919,1.919,0,0,1,21.769-6.9a3,3,0,0,1,1.965-.629,3.091,3.091,0,0,1,2.041.649,2.063,2.063,0,0,1,.783,1.661H25.286a1.142,1.142,0,0,0-.441-.9,1.652,1.652,0,0,0-1.111-.376,1.729,1.729,0,0,0-1.08.3.947.947,0,0,0-.39.786.767.767,0,0,0,.362.69,4.458,4.458,0,0,0,1.309.444,6.821,6.821,0,0,1,1.535.506,2.239,2.239,0,0,1,.872.708,1.74,1.74,0,0,1,.284,1.008,1.893,1.893,0,0,1-.793,1.589,3.326,3.326,0,0,1-2.058.6A3.725,3.725,0,0,1,22.2-.178a2.557,2.557,0,0,1-1.07-.878,2.117,2.117,0,0,1-.386-1.22h1.265a1.309,1.309,0,0,0,.509,1.008A1.976,1.976,0,0,0,23.775-.9a2.039,2.039,0,0,0,1.152-.291A.893.893,0,0,0,25.361-1.962ZM29.647,0H28.383V-7.4h1.265ZM28.28-9.358a.755.755,0,0,1,.188-.52.706.706,0,0,1,.557-.212.717.717,0,0,1,.561.212.747.747,0,0,1,.191.52.722.722,0,0,1-.191.513.73.73,0,0,1-.561.205.718.718,0,0,1-.557-.205A.73.73,0,0,1,28.28-9.358ZM33.045,0H31.78V-10.5h1.265Zm3.4,0H35.178V-10.5h1.265Zm1.688-3.767a4.369,4.369,0,0,1,.427-1.955,3.187,3.187,0,0,1,1.189-1.34,3.238,3.238,0,0,1,1.74-.472,3.119,3.119,0,0,1,2.444,1.046,4.024,4.024,0,0,1,.933,2.782v.089a4.407,4.407,0,0,1-.414,1.938A3.14,3.14,0,0,1,43.268-.342,3.275,3.275,0,0,1,41.5.137,3.111,3.111,0,0,1,39.064-.909a4,4,0,0,1-.933-2.769Zm1.271.15a3.164,3.164,0,0,0,.571,1.976A1.827,1.827,0,0,0,41.5-.9a1.816,1.816,0,0,0,1.531-.755A3.46,3.46,0,0,0,43.6-3.767a3.159,3.159,0,0,0-.578-1.972,1.836,1.836,0,0,0-1.535-.755,1.816,1.816,0,0,0-1.511.745A3.434,3.434,0,0,0,39.4-3.616Z" transform="translate(-636.304 -5468.738)" fill="#161615"/><path d="M-810.266-5603.39v-6.5h-14.086" transform="translate(-1.788 -4.008)" fill="none" stroke="#282727" stroke-miterlimit="10" stroke-width="1.87"/><path d="M-480.3-5616.384v6.5h14.086" transform="translate(-21.77 -4.008)" fill="none" stroke="#282727" stroke-miterlimit="10" stroke-width="1.87"/><path d="M-644.792-5518.452v176.143l8.348-19.225" transform="translate(-12.217 -9.696)" fill="none" stroke="#7a1c47" stroke-miterlimit="10" stroke-width="2"/><circle cx="2.56" cy="2.56" r="2.56" transform="translate(-829.807 -5662.467)" fill="#7a1c47"/><circle cx="2.56" cy="2.56" r="2.56" transform="translate(-807.919 -5616.456)" fill="#7a1c47"/><circle cx="2.56" cy="2.56" r="2.56" transform="translate(-511.218 -5616.456)" fill="#7a1c47"/><circle cx="2.56" cy="2.56" r="2.56" transform="translate(-489.33 -5662.467)" fill="#7a1c47"/><circle cx="2.56" cy="2.56" r="2.56" transform="translate(-489.33 -5300.913)" fill="#7a1c47"/><circle cx="2.56" cy="2.56" r="2.56" transform="translate(-659.569 -5269.253)" fill="#7a1c47"/><circle cx="2.56" cy="2.56" r="2.56" transform="translate(-659.569 -5294.531)" fill="#7a1c47"/><circle cx="2.56" cy="2.56" r="2.56" transform="translate(-829.807 -5300.827)" fill="#7a1c47"/><circle cx="2.56" cy="2.56" r="2.56" transform="translate(-807.919 -5321.787)" fill="#7a1c47"/><circle cx="2.56" cy="2.56" r="2.56" transform="translate(-511.218 -5321.787)" fill="#7a1c47"/></g></svg>