<svg xmlns="http://www.w3.org/2000/svg" width="190" height="132" viewBox="0 0 190 132"><g transform="translate(-1125 -21769)"><rect width="190" height="132" transform="translate(1125 21769)" fill="#f6f6f6"/><path d="M55.946,11.685a3.522,3.522,0,0,1-1.186,2.529,4.165,4.165,0,0,1-2.82.923,3.745,3.745,0,0,1-3.011-1.289,5.284,5.284,0,0,1-1.1-3.538V9.7a5.966,5.966,0,0,1,.506-2.529,3.791,3.791,0,0,1,1.446-1.678,4.518,4.518,0,0,1,4.959.338A3.785,3.785,0,0,1,55.96,8.424H53.909a2.079,2.079,0,0,0-.537-1.4,1.987,1.987,0,0,0-1.4-.434,1.742,1.742,0,0,0-1.535.735,4.118,4.118,0,0,0-.523,2.28v.752a4.408,4.408,0,0,0,.489,2.358,1.71,1.71,0,0,0,1.542.745,2.025,2.025,0,0,0,1.418-.434,1.961,1.961,0,0,0,.537-1.343Zm5.646,2.563a2.477,2.477,0,0,1-2.023.889,2.337,2.337,0,0,1-1.815-.684,2.918,2.918,0,0,1-.639-2V7.6h1.976v4.778q0,1.155,1.053,1.155a1.427,1.427,0,0,0,1.381-.7V7.6h1.982V15H61.647Zm6.809.889a3.631,3.631,0,0,1-2.649-1,3.548,3.548,0,0,1-1.022-2.659v-.191A4.468,4.468,0,0,1,65.161,9.3a3.161,3.161,0,0,1,1.22-1.354,3.425,3.425,0,0,1,1.8-.475,3.07,3.07,0,0,1,2.389.957,3.889,3.889,0,0,1,.872,2.714v.807h-4.71a1.835,1.835,0,0,0,.578,1.162,1.746,1.746,0,0,0,1.22.438,2.132,2.132,0,0,0,1.784-.827l.971,1.087a2.966,2.966,0,0,1-1.2.981A3.947,3.947,0,0,1,68.4,15.137Zm-.226-6.07a1.237,1.237,0,0,0-.954.4,2.048,2.048,0,0,0-.468,1.135H69.5V10.44a1.46,1.46,0,0,0-.355-1.015A1.277,1.277,0,0,0,68.176,9.066ZM74.649,15H72.667V4.5h1.982Zm3.712,0H76.379V4.5h1.982Zm1.319-3.767A4.387,4.387,0,0,1,80.1,9.271a3.1,3.1,0,0,1,1.22-1.333,3.56,3.56,0,0,1,1.849-.472,3.368,3.368,0,0,1,2.444.916,3.676,3.676,0,0,1,1.056,2.488l.014.506a3.866,3.866,0,0,1-.95,2.731,3.683,3.683,0,0,1-5.1,0,3.934,3.934,0,0,1-.954-2.789Zm1.976.144a2.757,2.757,0,0,0,.4,1.61,1.426,1.426,0,0,0,2.256.007,3.017,3.017,0,0,0,.4-1.76,2.73,2.73,0,0,0-.4-1.6,1.312,1.312,0,0,0-1.135-.567,1.29,1.29,0,0,0-1.121.564A3.068,3.068,0,0,0,81.656,11.377ZM95.547,9.456a5.367,5.367,0,0,0-.711-.055,1.447,1.447,0,0,0-1.47.759V15H91.391V7.6h1.866l.055.882a1.831,1.831,0,0,1,1.647-1.019,2.07,2.07,0,0,1,.615.089ZM99.9,15.137a3.631,3.631,0,0,1-2.649-1,3.548,3.548,0,0,1-1.022-2.659v-.191A4.468,4.468,0,0,1,96.661,9.3a3.161,3.161,0,0,1,1.22-1.354,3.425,3.425,0,0,1,1.8-.475,3.07,3.07,0,0,1,2.389.957,3.889,3.889,0,0,1,.872,2.714v.807h-4.71a1.835,1.835,0,0,0,.578,1.162,1.746,1.746,0,0,0,1.22.438,2.132,2.132,0,0,0,1.784-.827l.971,1.087a2.966,2.966,0,0,1-1.2.981A3.947,3.947,0,0,1,99.9,15.137Zm-.226-6.07a1.237,1.237,0,0,0-.954.4,2.048,2.048,0,0,0-.468,1.135H101V10.44a1.46,1.46,0,0,0-.355-1.015A1.277,1.277,0,0,0,99.676,9.066Zm4.081,2.181a4.457,4.457,0,0,1,.776-2.755,2.517,2.517,0,0,1,2.123-1.025,2.265,2.265,0,0,1,1.784.807V4.5h1.982V15h-1.784l-.1-.786a2.325,2.325,0,0,1-1.9.923,2.511,2.511,0,0,1-2.1-1.029A4.6,4.6,0,0,1,103.757,11.247Zm1.976.144a2.912,2.912,0,0,0,.362,1.593,1.181,1.181,0,0,0,1.053.554,1.322,1.322,0,0,0,1.292-.772V9.846a1.3,1.3,0,0,0-1.278-.772Q105.732,9.073,105.732,11.391Zm5.913-.157a4.387,4.387,0,0,1,.424-1.962,3.1,3.1,0,0,1,1.22-1.333,3.56,3.56,0,0,1,1.849-.472,3.368,3.368,0,0,1,2.444.916,3.676,3.676,0,0,1,1.056,2.488l.014.506a3.866,3.866,0,0,1-.95,2.731,3.683,3.683,0,0,1-5.1,0,3.934,3.934,0,0,1-.954-2.789Zm1.976.144a2.757,2.757,0,0,0,.4,1.61,1.426,1.426,0,0,0,2.256.007,3.017,3.017,0,0,0,.4-1.76,2.73,2.73,0,0,0-.4-1.6,1.312,1.312,0,0,0-1.135-.567,1.29,1.29,0,0,0-1.121.564A3.068,3.068,0,0,0,113.621,11.377ZM121.688,7.6l.062.854a2.582,2.582,0,0,1,2.126-.991,2.146,2.146,0,0,1,1.75.69,3.221,3.221,0,0,1,.588,2.064V15h-1.976V10.27a1.282,1.282,0,0,0-.273-.913,1.224,1.224,0,0,0-.909-.284,1.359,1.359,0,0,0-1.251.711V15h-1.976V7.6Zm5.715,3.644a4.457,4.457,0,0,1,.776-2.755A2.517,2.517,0,0,1,130.3,7.467a2.265,2.265,0,0,1,1.784.807V4.5h1.982V15h-1.784l-.1-.786a2.325,2.325,0,0,1-1.9.923,2.511,2.511,0,0,1-2.1-1.029A4.6,4.6,0,0,1,127.4,11.247Zm1.976.144a2.912,2.912,0,0,0,.362,1.593,1.181,1.181,0,0,0,1.053.554,1.322,1.322,0,0,0,1.292-.772V9.846a1.3,1.3,0,0,0-1.278-.772Q129.378,9.073,129.378,11.391Zm5.913-.157a4.387,4.387,0,0,1,.424-1.962,3.1,3.1,0,0,1,1.22-1.333,3.56,3.56,0,0,1,1.849-.472,3.368,3.368,0,0,1,2.444.916,3.676,3.676,0,0,1,1.056,2.488l.014.506a3.866,3.866,0,0,1-.95,2.731,3.683,3.683,0,0,1-5.1,0,3.934,3.934,0,0,1-.954-2.789Zm1.976.144a2.757,2.757,0,0,0,.4,1.61,1.426,1.426,0,0,0,2.256.007,3.017,3.017,0,0,0,.4-1.76,2.73,2.73,0,0,0-.4-1.6,1.312,1.312,0,0,0-1.135-.567,1.29,1.29,0,0,0-1.121.564A3.068,3.068,0,0,0,137.267,11.377Z" transform="translate(1125 21778)" fill="#339be8"/><g transform="translate(4502.875 26436.24)"><path d="M-3274.206-4580.179s-15.224,1-18.468,0-51.162-18.469-44.673-34.691,54.156-17.22,78.614-13.726,32.444,9.983,30.448,15.973S-3236.771-4591.909-3274.206-4580.179Z" fill="none" stroke="#272727" stroke-linecap="round" stroke-linejoin="round" stroke-width="2"/><path d="M-3275.08-4579.736s44.549,29.006,57.776,29.006,9.234-4.992,5.49-17.969-16.928-48.413-16.928-48.413" fill="none" stroke="#272727" stroke-linecap="round" stroke-linejoin="round" stroke-width="2"/><path d="M-3289.977-4579.736s-44.548,29.006-57.776,29.006-9.234-4.992-5.49-17.969,16.928-48.413,16.928-48.413" fill="none" stroke="#272727" stroke-linecap="round" stroke-linejoin="round" stroke-width="2"/><path d="M-3320.631-4592.955s-2.428-6.878,19.659-9.873,49.181-.229,52.222,4.937,1.119,6.351,1.119,6.351" fill="none" stroke="#272727" stroke-linecap="round" stroke-linejoin="round" stroke-width="2"/></g></g></svg>