<svg xmlns="http://www.w3.org/2000/svg" width="610" height="399" viewBox="0 0 610 399"><g transform="translate(-10159 -6283)"><g transform="translate(9559 -16035)"><rect width="610" height="399" transform="translate(600 22318)" fill="none"/><g transform="translate(39.228 20917.668)"><path d="M590.459,1430.55l210.93,8.913,8.871,192.423s4.094,41.878,46.57,45.206L844.719,1770.4H589.179l-8.188-94.334v-12.795l1.28-33.009,2.815-106.19Z" transform="translate(-0.313 -0.313)" fill="#fff" stroke="#2186ca" stroke-miterlimit="10" stroke-width="2"/><circle cx="2.906" cy="2.906" r="2.906" transform="translate(587.239 1427.331)" fill="#2186ca"/><circle cx="2.906" cy="2.906" r="2.906" transform="translate(581.768 1521.452)" fill="#2186ca"/><circle cx="2.906" cy="2.906" r="2.906" transform="translate(579.188 1627.664)" fill="#2186ca"/><circle cx="2.906" cy="2.906" r="2.906" transform="translate(577.772 1659.713)" fill="#2186ca"/><circle cx="2.906" cy="2.906" r="2.906" transform="translate(577.772 1673.018)" fill="#2186ca"/><circle cx="2.906" cy="2.906" r="2.906" transform="translate(585.896 1767.182)" fill="#2186ca"/><circle cx="2.906" cy="2.906" r="2.906" transform="translate(580.679 1710.193)" fill="#2186ca"/><circle cx="2.906" cy="2.906" r="2.906" transform="translate(715.691 1767.182)" fill="#2186ca"/><circle cx="2.906" cy="2.906" r="2.906" transform="translate(841.073 1767.182)" fill="#2186ca"/><circle cx="2.906" cy="2.906" r="2.906" transform="translate(853.184 1674.213)" fill="#2186ca"/><circle cx="2.906" cy="2.906" r="2.906" transform="translate(806.699 1628.453)" fill="#2186ca"/><circle cx="2.906" cy="2.906" r="2.906" transform="translate(715.691 1673.189)" fill="#2186ca"/><circle cx="2.906" cy="2.906" r="2.906" transform="translate(735.565 1710.193)" fill="#2186ca"/><circle cx="2.906" cy="2.906" r="2.906" transform="translate(625.067 1428.816)" fill="#2186ca"/><circle cx="2.906" cy="2.906" r="2.906" transform="translate(687.374 1431.723)" fill="#2186ca"/><circle cx="2.906" cy="2.906" r="2.906" transform="translate(735.565 1433.684)" fill="#2186ca"/><circle cx="2.906" cy="2.906" r="2.906" transform="translate(797.761 1436.233)" fill="#2186ca"/><line y2="93.993" transform="translate(718.598 1676.095)" fill="none" stroke="#2186ca" stroke-miterlimit="10" stroke-width="2"/><path d="M584.212,1714.1H739.1V1437.589" transform="translate(-0.627 -0.998)" fill="none" stroke="#2186ca" stroke-miterlimit="10" stroke-width="2"/><path d="M915.947,1430.55l210.93,8.913,8.871,192.423s4.095,41.878,46.571,45.206l-12.112,93.311H914.668l-8.188-94.334v-12.795l1.279-33.009,2.815-106.19Z" transform="translate(-31.987 -0.313)" fill="#fff" stroke="#2186ca" stroke-miterlimit="10" stroke-width="2"/><circle cx="2.906" cy="2.906" r="2.906" transform="translate(881.054 1427.331)" fill="#2186ca"/><circle cx="2.906" cy="2.906" r="2.906" transform="translate(875.583 1521.452)" fill="#2186ca"/><circle cx="2.906" cy="2.906" r="2.906" transform="translate(873.002 1627.664)" fill="#2186ca"/><circle cx="2.906" cy="2.906" r="2.906" transform="translate(871.587 1659.713)" fill="#2186ca"/><circle cx="2.906" cy="2.906" r="2.906" transform="translate(871.587 1673.018)" fill="#2186ca"/><circle cx="2.906" cy="2.906" r="2.906" transform="translate(879.711 1767.182)" fill="#2186ca"/><circle cx="2.906" cy="2.906" r="2.906" transform="translate(874.493 1710.193)" fill="#2186ca"/><circle cx="2.906" cy="2.906" r="2.906" transform="translate(1009.506 1767.182)" fill="#2186ca"/><circle cx="2.906" cy="2.906" r="2.906" transform="translate(1134.887 1767.182)" fill="#2186ca"/><circle cx="2.906" cy="2.906" r="2.906" transform="translate(1146.999 1674.213)" fill="#2186ca"/><circle cx="2.906" cy="2.906" r="2.906" transform="translate(1100.514 1628.453)" fill="#2186ca"/><circle cx="2.906" cy="2.906" r="2.906" transform="translate(1009.506 1673.189)" fill="#2186ca"/><circle cx="2.906" cy="2.906" r="2.906" transform="translate(990.123 1710.193)" fill="#2186ca"/><circle cx="2.906" cy="2.906" r="2.906" transform="translate(1029.38 1673.189)" fill="#2186ca"/><circle cx="2.906" cy="2.906" r="2.906" transform="translate(918.882 1428.816)" fill="#2186ca"/><circle cx="2.906" cy="2.906" r="2.906" transform="translate(981.189 1431.723)" fill="#2186ca"/><circle cx="2.906" cy="2.906" r="2.906" transform="translate(1029.38 1433.684)" fill="#2186ca"/><circle cx="2.906" cy="2.906" r="2.906" transform="translate(1091.576 1436.233)" fill="#2186ca"/><line y2="93.993" transform="translate(1012.412 1676.095)" fill="none" stroke="#2186ca" stroke-miterlimit="10" stroke-width="2"/><path d="M1064.586,1437.589v239.505s.625,34.516-39.256,37H909.7" transform="translate(-32.3 -0.998)" fill="none" stroke="#2186ca" stroke-miterlimit="10" stroke-width="2"/></g></g><path d="M-19.889-4.519h-4.292V0h-1.853V-10.664h6.775V-9.17h-4.922V-6h4.292Zm1.436.483a4.673,4.673,0,0,1,.461-2.1A3.37,3.37,0,0,1-16.7-7.57a3.653,3.653,0,0,1,1.919-.5,3.462,3.462,0,0,1,2.6,1.033A4.062,4.062,0,0,1-11.093-4.3l.007.417a4.715,4.715,0,0,1-.45,2.095A3.329,3.329,0,0,1-12.825-.359a3.679,3.679,0,0,1-1.937.505A3.438,3.438,0,0,1-17.446-.97a4.278,4.278,0,0,1-1.007-2.977Zm1.78.154a3.193,3.193,0,0,0,.505,1.915,1.643,1.643,0,0,0,1.406.692,1.625,1.625,0,0,0,1.4-.7,3.527,3.527,0,0,0,.5-2.058,3.152,3.152,0,0,0-.516-1.9,1.649,1.649,0,0,0-1.4-.7,1.634,1.634,0,0,0-1.384.692A3.46,3.46,0,0,0-16.674-3.882Zm8.745-4.043.051.916A2.849,2.849,0,0,1-5.57-8.071q2.476,0,2.52,2.834V0H-4.83V-5.134a1.632,1.632,0,0,0-.326-1.117,1.371,1.371,0,0,0-1.066-.363,1.715,1.715,0,0,0-1.6.974V0h-1.78V-7.925Zm6.357,3.9a4.712,4.712,0,0,1,.85-2.941,2.722,2.722,0,0,1,2.278-1.11,2.587,2.587,0,0,1,2.036.879V-11.25h1.78V0H3.761L3.673-.82A2.624,2.624,0,0,1,1.542.146,2.707,2.707,0,0,1-.71-.974,4.884,4.884,0,0,1-1.571-4.021Zm1.78.154A3.3,3.3,0,0,0,.674-1.981,1.509,1.509,0,0,0,2-1.3a1.681,1.681,0,0,0,1.6-.974V-5.662A1.655,1.655,0,0,0,2.01-6.614a1.52,1.52,0,0,0-1.333.685A3.674,3.674,0,0,0,.209-3.867ZM6.9-4.036a4.673,4.673,0,0,1,.461-2.1,3.37,3.37,0,0,1,1.3-1.436,3.653,3.653,0,0,1,1.919-.5,3.462,3.462,0,0,1,2.6,1.033A4.062,4.062,0,0,1,14.257-4.3l.007.417a4.715,4.715,0,0,1-.45,2.095A3.329,3.329,0,0,1,12.524-.359a3.679,3.679,0,0,1-1.937.505A3.438,3.438,0,0,1,7.9-.97,4.278,4.278,0,0,1,6.9-3.948Zm1.78.154a3.193,3.193,0,0,0,.505,1.915,1.643,1.643,0,0,0,1.406.692,1.625,1.625,0,0,0,1.4-.7,3.527,3.527,0,0,0,.5-2.058,3.152,3.152,0,0,0-.516-1.9,1.649,1.649,0,0,0-1.4-.7,1.634,1.634,0,0,0-1.384.692A3.46,3.46,0,0,0,8.676-3.882ZM24.21,0H22.438V-8.562l-2.615.894v-1.5l4.16-1.531h.227Z" transform="translate(10582 6487.5)" fill="#161615"/><path d="M-19.889-4.519h-4.292V0h-1.853V-10.664h6.775V-9.17h-4.922V-6h4.292Zm1.436.483a4.673,4.673,0,0,1,.461-2.1A3.37,3.37,0,0,1-16.7-7.57a3.653,3.653,0,0,1,1.919-.5,3.462,3.462,0,0,1,2.6,1.033A4.062,4.062,0,0,1-11.093-4.3l.007.417a4.715,4.715,0,0,1-.45,2.095A3.329,3.329,0,0,1-12.825-.359a3.679,3.679,0,0,1-1.937.505A3.438,3.438,0,0,1-17.446-.97a4.278,4.278,0,0,1-1.007-2.977Zm1.78.154a3.193,3.193,0,0,0,.505,1.915,1.643,1.643,0,0,0,1.406.692,1.625,1.625,0,0,0,1.4-.7,3.527,3.527,0,0,0,.5-2.058,3.152,3.152,0,0,0-.516-1.9,1.649,1.649,0,0,0-1.4-.7,1.634,1.634,0,0,0-1.384.692A3.46,3.46,0,0,0-16.674-3.882Zm8.745-4.043.051.916A2.849,2.849,0,0,1-5.57-8.071q2.476,0,2.52,2.834V0H-4.83V-5.134a1.632,1.632,0,0,0-.326-1.117,1.371,1.371,0,0,0-1.066-.363,1.715,1.715,0,0,0-1.6.974V0h-1.78V-7.925Zm6.357,3.9a4.712,4.712,0,0,1,.85-2.941,2.722,2.722,0,0,1,2.278-1.11,2.587,2.587,0,0,1,2.036.879V-11.25h1.78V0H3.761L3.673-.82A2.624,2.624,0,0,1,1.542.146,2.707,2.707,0,0,1-.71-.974,4.884,4.884,0,0,1-1.571-4.021Zm1.78.154A3.3,3.3,0,0,0,.674-1.981,1.509,1.509,0,0,0,2-1.3a1.681,1.681,0,0,0,1.6-.974V-5.662A1.655,1.655,0,0,0,2.01-6.614a1.52,1.52,0,0,0-1.333.685A3.674,3.674,0,0,0,.209-3.867ZM6.9-4.036a4.673,4.673,0,0,1,.461-2.1,3.37,3.37,0,0,1,1.3-1.436,3.653,3.653,0,0,1,1.919-.5,3.462,3.462,0,0,1,2.6,1.033A4.062,4.062,0,0,1,14.257-4.3l.007.417a4.715,4.715,0,0,1-.45,2.095A3.329,3.329,0,0,1,12.524-.359a3.679,3.679,0,0,1-1.937.505A3.438,3.438,0,0,1,7.9-.97,4.278,4.278,0,0,1,6.9-3.948Zm1.78.154a3.193,3.193,0,0,0,.505,1.915,1.643,1.643,0,0,0,1.406.692,1.625,1.625,0,0,0,1.4-.7,3.527,3.527,0,0,0,.5-2.058,3.152,3.152,0,0,0-.516-1.9,1.649,1.649,0,0,0-1.4-.7,1.634,1.634,0,0,0-1.384.692A3.46,3.46,0,0,0,8.676-3.882ZM24.21,0H22.438V-8.562l-2.615.894v-1.5l4.16-1.531h.227Z" transform="translate(10291 6487.5)" fill="#161615"/></g></svg>