<svg xmlns="http://www.w3.org/2000/svg" xmlns:xlink="http://www.w3.org/1999/xlink" width="505" height="245" viewBox="0 0 505 245"><defs><clipPath id="a"><rect width="505" height="245" transform="translate(810 26817)" fill="#fff"/></clipPath></defs><g transform="translate(-810 -26817)" clip-path="url(#a)"><g transform="translate(580.039 30714.307)"><g transform="translate(451.617 -3992.421)"><rect width="5.327" height="2.664" transform="matrix(0.698, -0.716, 0.716, 0.698, 163.268, 3.814)" fill="#4c4c4c"/><path d="M493.046-3669.617h-2.664v-10.527h2.664Zm0-21.056h-2.664V-3701.2h2.664Zm0-21.056h-2.664v-10.528h2.664Zm0-21.056h-2.664v-10.527h2.664Zm0-21.056h-2.664v-10.527h2.664Zm0-21.056h-2.664v-10.528h2.664Zm0-21.056h-2.664v-10.528h2.664Zm0-21.056h-2.664v-10.528h2.664Zm5.96-17.548-1.908-1.859,7.35-7.538,1.907,1.86Zm14.7-15.075-1.907-1.86,7.349-7.538,1.908,1.86Zm14.7-15.076-1.907-1.86,7.349-7.538,1.907,1.86Zm14.7-15.076-1.908-1.86,7.351-7.538,1.907,1.86Zm14.7-15.076-1.907-1.86,7.35-7.537,1.908,1.859Zm14.7-15.076-1.907-1.86,7.35-7.537,1.907,1.859Zm14.7-15.076-1.908-1.86,7.35-7.537,1.907,1.859Zm14.7-15.076-1.907-1.859,7.349-7.538,1.908,1.859Zm14.7-15.076-1.907-1.86,7.349-7.537,1.907,1.859Zm14.7-15.076-1.908-1.86,7.35-7.537,1.907,1.859Z" transform="translate(-480.82 3990.988)" fill="#4c4c4c"/><rect width="2.664" height="5.327" transform="translate(9.562 331.898)" fill="#4c4c4c"/><g transform="translate(0 326.583)"><path d="M479.612-3622.774l1.951-1.817,8.94,9.62,8.943-9.62,1.951,1.817L490.5-3611.06Z" transform="translate(-479.612 3624.591)" fill="#4c4c4c"/></g></g><path d="M606.274-3808.742l-23.909,23.909H441.425L466.593-3810" transform="translate(-23.713 -20.456)" fill="none" stroke="#7a1c47" stroke-miterlimit="10" stroke-width="2"/><path d="M520.329-3783.322,497.3-3760.294H417.393s-21.141-3.649-19.631-24.539S417.141-3810,417.141-3810H603.131s53.859,12.584,46.308,78.523-45.8,65.94-45.8,65.94H418.148s-17.114-1.51-16.862-22.148,16.862-25.168,16.862-25.168h81.041l71.854-71.854" transform="translate(-18.808 -20.456)" fill="none" stroke="#7a1c47" stroke-miterlimit="10" stroke-width="2"/><path d="M523.92-3801.609,479-3756.685H229.961l222.378-222.378" transform="translate(0 -1.498)" fill="none" stroke="#7a1c47" stroke-miterlimit="10" stroke-width="2"/><line x1="146.98" y2="146.98" transform="translate(383.987 -3968.879)" fill="none" stroke="#7a1c47" stroke-miterlimit="10" stroke-width="2"/><line x1="146.98" y2="146.98" transform="translate(607.981 -3843.04)" fill="none" stroke="#7a1c47" stroke-miterlimit="10" stroke-width="2"/><line x1="31.313" y2="31.313" transform="translate(388.455 -3758.183)" fill="none" stroke="#7a1c47" stroke-miterlimit="10" stroke-width="2"/></g></g></svg>