<svg xmlns="http://www.w3.org/2000/svg" width="400" height="399" viewBox="0 0 400 399"><g transform="translate(-10739 -5787)"><g transform="translate(9929 -9527)"><g transform="translate(278.26 14425.066)"><path d="M589.677,900.189l233.669,9.874,9.827,213.165s4.536,46.394,51.591,50.079l-13.418,103.37H588.26l-9.071-104.5V1158l1.417-36.567,3.118-117.638Z" fill="#fff" stroke="#2186ca" stroke-miterlimit="10" stroke-width="2"/><circle cx="3.22" cy="3.22" r="3.22" transform="translate(586.457 896.969)" fill="#2186ca"/><circle cx="3.22" cy="3.22" r="3.22" transform="translate(580.396 1001.237)" fill="#2186ca"/><circle cx="3.22" cy="3.22" r="3.22" transform="translate(577.538 1118.898)" fill="#2186ca"/><circle cx="3.22" cy="3.22" r="3.22" transform="translate(575.969 1154.402)" fill="#2186ca"/><circle cx="3.22" cy="3.22" r="3.22" transform="translate(575.969 1169.143)" fill="#2186ca"/><circle cx="3.22" cy="3.22" r="3.22" transform="translate(584.969 1273.458)" fill="#2186ca"/><circle cx="3.22" cy="3.22" r="3.22" transform="translate(579.19 1210.325)" fill="#2186ca"/><circle cx="3.22" cy="3.22" r="3.22" transform="translate(728.757 1273.458)" fill="#2186ca"/><circle cx="3.22" cy="3.22" r="3.22" transform="translate(867.654 1273.458)" fill="#2186ca"/><circle cx="3.22" cy="3.22" r="3.22" transform="translate(881.072 1170.465)" fill="#2186ca"/><circle cx="3.22" cy="3.22" r="3.22" transform="translate(829.576 1119.772)" fill="#2186ca"/><circle cx="3.22" cy="3.22" r="3.22" transform="translate(728.757 1169.332)" fill="#2186ca"/><circle cx="3.22" cy="3.22" r="3.22" transform="translate(750.772 1210.325)" fill="#2186ca"/><circle cx="3.22" cy="3.22" r="3.22" transform="translate(628.363 898.615)" fill="#2186ca"/><circle cx="3.22" cy="3.22" r="3.22" transform="translate(697.387 901.835)" fill="#2186ca"/><circle cx="3.22" cy="3.22" r="3.22" transform="translate(819.674 906.831)" fill="#2186ca"/><line y2="104.126" transform="translate(731.976 1172.551)" fill="none" stroke="#2186ca" stroke-miterlimit="10" stroke-width="2"/><line x1="171.583" transform="translate(582.409 1213.544)" fill="none" stroke="#2186ca" stroke-miterlimit="10" stroke-width="2"/></g><rect width="400" height="399" transform="translate(810 15314)" fill="none"/><path d="M-19.889-4.519h-4.292V0h-1.853V-10.664h6.775V-9.17h-4.922V-6h4.292Zm1.436.483a4.673,4.673,0,0,1,.461-2.1A3.37,3.37,0,0,1-16.7-7.57a3.653,3.653,0,0,1,1.919-.5,3.462,3.462,0,0,1,2.6,1.033A4.062,4.062,0,0,1-11.093-4.3l.007.417a4.715,4.715,0,0,1-.45,2.095A3.329,3.329,0,0,1-12.825-.359a3.679,3.679,0,0,1-1.937.505A3.438,3.438,0,0,1-17.446-.97a4.278,4.278,0,0,1-1.007-2.977Zm1.78.154a3.193,3.193,0,0,0,.505,1.915,1.643,1.643,0,0,0,1.406.692,1.625,1.625,0,0,0,1.4-.7,3.527,3.527,0,0,0,.5-2.058,3.152,3.152,0,0,0-.516-1.9,1.649,1.649,0,0,0-1.4-.7,1.634,1.634,0,0,0-1.384.692A3.46,3.46,0,0,0-16.674-3.882Zm8.745-4.043.051.916A2.849,2.849,0,0,1-5.57-8.071q2.476,0,2.52,2.834V0H-4.83V-5.134a1.632,1.632,0,0,0-.326-1.117,1.371,1.371,0,0,0-1.066-.363,1.715,1.715,0,0,0-1.6.974V0h-1.78V-7.925Zm6.357,3.9a4.712,4.712,0,0,1,.85-2.941,2.722,2.722,0,0,1,2.278-1.11,2.587,2.587,0,0,1,2.036.879V-11.25h1.78V0H3.761L3.673-.82A2.624,2.624,0,0,1,1.542.146,2.707,2.707,0,0,1-.71-.974,4.884,4.884,0,0,1-1.571-4.021Zm1.78.154A3.3,3.3,0,0,0,.674-1.981,1.509,1.509,0,0,0,2-1.3a1.681,1.681,0,0,0,1.6-.974V-5.662A1.655,1.655,0,0,0,2.01-6.614a1.52,1.52,0,0,0-1.333.685A3.674,3.674,0,0,0,.209-3.867ZM6.9-4.036a4.673,4.673,0,0,1,.461-2.1,3.37,3.37,0,0,1,1.3-1.436,3.653,3.653,0,0,1,1.919-.5,3.462,3.462,0,0,1,2.6,1.033A4.062,4.062,0,0,1,14.257-4.3l.007.417a4.715,4.715,0,0,1-.45,2.095A3.329,3.329,0,0,1,12.524-.359a3.679,3.679,0,0,1-1.937.505A3.438,3.438,0,0,1,7.9-.97,4.278,4.278,0,0,1,6.9-3.948Zm1.78.154a3.193,3.193,0,0,0,.505,1.915,1.643,1.643,0,0,0,1.406.692,1.625,1.625,0,0,0,1.4-.7,3.527,3.527,0,0,0,.5-2.058,3.152,3.152,0,0,0-.516-1.9,1.649,1.649,0,0,0-1.4-.7,1.634,1.634,0,0,0-1.384.692A3.46,3.46,0,0,0,8.676-3.882ZM24.21,0H22.438V-8.562l-2.615.894v-1.5l4.16-1.531h.227Z" transform="translate(1010 15562.5)" fill="#161615"/></g></g></svg>