<svg xmlns="http://www.w3.org/2000/svg" width="820" height="221.396" viewBox="0 0 820 221.396">
  <g id="Grupo_67670" data-name="Grupo 67670" transform="translate(-390 -9294.045)">
    <path id="Trazado_109670" data-name="Trazado 109670" d="M347.395,17V5.625h3.211a5.169,5.169,0,0,1,2.625.656,4.438,4.438,0,0,1,1.762,1.867,6.078,6.078,0,0,1,.629,2.781v.727a6.1,6.1,0,0,1-.621,2.82,4.369,4.369,0,0,1-1.773,1.859,5.5,5.5,0,0,1-2.684.664Zm1.5-10.141v8.914h1.578a3.435,3.435,0,0,0,2.7-1.078,4.452,4.452,0,0,0,.965-3.07v-.664a4.522,4.522,0,0,0-.91-3.012,3.24,3.24,0,0,0-2.582-1.09Zm12.273,10.3a3.693,3.693,0,0,1-2.8-1.129,4.19,4.19,0,0,1-1.078-3.02v-.266a5.073,5.073,0,0,1,.48-2.246,3.748,3.748,0,0,1,1.344-1.547,3.379,3.379,0,0,1,1.871-.559,3.166,3.166,0,0,1,2.563,1.086,4.7,4.7,0,0,1,.914,3.109v.6h-5.727a3,3,0,0,0,.73,2.02,2.3,2.3,0,0,0,1.777.77,2.517,2.517,0,0,0,1.3-.312,3.259,3.259,0,0,0,.93-.828l.883.688A3.55,3.55,0,0,1,361.168,17.156Zm-.18-7.578a1.928,1.928,0,0,0-1.469.637A3.1,3.1,0,0,0,358.785,12h4.234v-.109a2.753,2.753,0,0,0-.594-1.707A1.815,1.815,0,0,0,360.988,9.578ZM367.707,17h-1.445V5h1.445Z" transform="translate(443 9368)" fill="#12263f"/>
    <g id="Grupo_67494" data-name="Grupo 67494" transform="translate(-3531.18 14309.37) rotate(90)">
      <path id="Trazado_109075" data-name="Trazado 109075" d="M-4729.248-4713.026" transform="translate(-182.582 -25.406)" fill="none" stroke="#7a1d47" stroke-miterlimit="10" stroke-width="2"/>
      <rect id="Rectángulo_6037" data-name="Rectángulo 6037" width="192.732" height="814.504" transform="translate(-5012.577 -4738.432)" fill="none" stroke="#7a1d47" stroke-linecap="round" stroke-linejoin="round" stroke-width="2.292"/>
      <path id="Trazado_109076" data-name="Trazado 109076" d="M-4857.044-4119.309" transform="translate(-155.235 -152.455)" fill="none" stroke="#7a1d47" stroke-miterlimit="10" stroke-width="2"/>
      <path id="Trazado_109077" data-name="Trazado 109077" d="M-4592.855-3676.774" transform="translate(-211.769 -247.153)" fill="none" stroke="#7a1d47" stroke-miterlimit="10" stroke-width="2"/>
      <path id="Trazado_109078" data-name="Trazado 109078" d="M-4625.265-4509.215" transform="translate(-204.833 -69.019)" fill="none" stroke="#7a1d47" stroke-miterlimit="10" stroke-width="2"/>
      <path id="Trazado_109079" data-name="Trazado 109079" d="M-4830.777-4713.026" transform="translate(-160.856 -25.406)" fill="none" stroke="#7a1d47" stroke-miterlimit="10" stroke-width="2"/>
      <path id="Trazado_109080" data-name="Trazado 109080" d="M-4630.324-4462.727" transform="translate(-203.751 -78.967)" fill="none" stroke="#7a1d47" stroke-miterlimit="10" stroke-width="2"/>
      <path id="Trazado_109081" data-name="Trazado 109081" d="M-4612.219-4510.207" transform="translate(-207.625 -68.807)" fill="none" stroke="#7a1d47" stroke-linecap="round" stroke-linejoin="round" stroke-width="2"/>
      <path id="Trazado_109082" data-name="Trazado 109082" d="M-4634.052-4500.582" transform="translate(-202.953 -70.866)" fill="none" stroke="#7a1d47" stroke-linecap="round" stroke-linejoin="round" stroke-width="2"/>
      <circle id="Elipse_5499" data-name="Elipse 5499" cx="2.748" cy="2.748" r="2.748" transform="translate(-5015.325 -4741.18)" fill="#b13182"/>
      <circle id="Elipse_5500" data-name="Elipse 5500" cx="2.748" cy="2.748" r="2.748" transform="translate(-5015.325 -3926.676)" fill="#b13182"/>
      <path id="Trazado_109083" data-name="Trazado 109083" d="M-4579.632-4463.16" transform="translate(-214.599 -78.874)" fill="none" stroke="#7a1d47" stroke-linecap="round" stroke-linejoin="round" stroke-width="2"/>
      <path id="Trazado_109084" data-name="Trazado 109084" d="M-4579.249-4462.727" transform="translate(-214.68 -78.967)" fill="none" stroke="#7a1d47" stroke-linecap="round" stroke-linejoin="round" stroke-width="2"/>
      <line id="Línea_445" data-name="Línea 445" x2="0.173" transform="translate(-4819.844 -3923.927)" fill="none" stroke="#7a1d47" stroke-linecap="round" stroke-linejoin="round" stroke-width="2"/>
      <circle id="Elipse_5501" data-name="Elipse 5501" cx="2.748" cy="2.748" r="2.748" transform="translate(-4822.592 -3926.676)" fill="#b13182"/>
      <circle id="Elipse_5502" data-name="Elipse 5502" cx="2.748" cy="2.748" r="2.748" transform="translate(-4822.385 -4741.18)" fill="#b13182"/>
    </g>
  </g>
</svg>
