<svg xmlns="http://www.w3.org/2000/svg" xmlns:xlink="http://www.w3.org/1999/xlink" width="820" height="300.701" viewBox="0 0 820 300.701"><defs><linearGradient id="a" x1="0.5" x2="0.5" y2="1" gradientUnits="objectBoundingBox"><stop offset="0" stop-color="#f2d6e3"/><stop offset="1" stop-color="#fff"/></linearGradient></defs><g transform="translate(603.394 490.291)"><path d="M0,0H820V300.7H0Z" transform="translate(-603.394 -490.291)" fill="url(#a)"/><path d="M-493.211-344.659l-27.619,76.692s31.727,6.619,41.542,23.053,10.5,19.63,10.5,19.63l317.726-6.391s4.108-44.966-5.25-60.03c0,0-84,10.956-88.79,9.586l-3.424,4.033-3.119-3.12s-88.181.571-95.028-5.706c0,0,68.4-36.672,89.55-40.476a6.905,6.905,0,0,0,.951-.609c.628-.457,1.883-4.223,1.883-4.223l3.31,2.454s81.352-14.817,86.222-17.861c0,0,2.891-.76,2.282-4.565s-37.091-86.849-37.091-86.849-88.447,36.634-90.958,37.319-102.713,20.086-102.713,20.086-1.6,46.791-38.574,45.878S-493.211-344.659-493.211-344.659Z" fill="#fff" stroke="#7a1c47" stroke-miterlimit="10" stroke-width="1"/><text transform="translate(-375.497 -416.483)" fill="#7a1c47" font-size="16" font-family="Roboto-Bold, Roboto" font-weight="700"><tspan x="0" y="0">Desahogos</tspan></text><text transform="translate(37.345 -286.334)" fill="#7a1c47" font-size="16" font-family="Roboto-Bold, Roboto" font-weight="700"><tspan x="0" y="0">Desahogos</tspan></text><text transform="translate(-212.316 -374.655)" fill="#161615" font-size="9.663" font-family="Roboto-Regular, Roboto"><tspan x="0" y="0">Cadera</tspan></text><text transform="translate(-302.915 -347.057)" fill="#161615" font-size="9.663" font-family="Roboto-Regular, Roboto"><tspan x="0" y="0">Cintura</tspan></text><text transform="translate(-396.803 -337.067)" fill="#161615" font-size="9.663" font-family="Roboto-Regular, Roboto"><tspan x="0" y="0">Busto</tspan></text><line x2="27.999" y2="54.78" transform="translate(-282.536 -387.647)" fill="none" stroke="#7a1c47" stroke-miterlimit="10" stroke-width="1"/><path d="M0,0H135.714V76.913H0Z" transform="translate(-565.076 -455.623)" fill="#fff" stroke="#a00011" stroke-width="0.935" stroke-dasharray="11.218"/><text transform="translate(-556.354 -447.323)" fill="#161615" font-size="12" font-family="Roboto-Regular, Roboto"><tspan x="6.563" y="13">Patrón delantero de </tspan><tspan x="10.091" y="27.4">blusa traslados de </tspan><tspan x="14.687" y="41.8">pinzas a la pinza </tspan><tspan x="15.54" y="56.2">vertical del talle.</tspan></text><path d="M0,0H135.714V62.454H0Z" transform="translate(49.488 -398.571)" fill="#fff" stroke="#a00011" stroke-width="0.842" stroke-dasharray="10.108"/><text transform="translate(58.21 -390.271)" fill="#161615" font-size="12" font-family="Roboto-Regular, Roboto"><tspan x="9.197" y="13" xml:space="preserve">Patrón  espalda de </tspan><tspan x="3.657" y="27.4">blusa con corte en el </tspan><tspan x="41.977" y="41.8">centro</tspan></text><path d="M-77.427-452.783s22.373-2.467,27.658-9.689L.085-444.856s-13.564,65.533,22.373,75.046v74.43s8.632,76.014,5.638,82.356H-29.51l-1.762-.88-1.585.88H-76.194s4.052-66.414,6.342-78.921Z" fill="#fff" stroke="#7a1c47" stroke-miterlimit="10" stroke-width="1"/><line x2="74.094" transform="translate(-75.035 -401.998)" fill="none" stroke="#7a1c47" stroke-miterlimit="10" stroke-width="1"/><path d="M-25.987-367.344l3.238,74.694L-31.272-213.9l-2.819-79.626Z" fill="none" stroke="#7a1c47" stroke-miterlimit="10" stroke-width="1"/><path d="M-72.743-353.323h45.216" fill="none" stroke="#7a1c47" stroke-miterlimit="10" stroke-width="1"/><path d="M-25.387-353.323H19.829" fill="none" stroke="#7a1c47" stroke-miterlimit="10" stroke-width="1"/><path d="M18.671-352.282" fill="none" stroke="#7a1c47" stroke-miterlimit="10" stroke-width="1"/><path d="M22.458-295.381V-369.81c-.906-.24-1.773-.525-2.618-.834l-.011.008-6.091,77.369L23.78-213.024H28.1C31.09-219.366,22.458-295.381,22.458-295.381Z" fill="#d6ebfb" stroke="#7a1c47" stroke-miterlimit="10" stroke-width="1"/><line x1="4.756" y2="102.352" transform="translate(-31.272 -346.204)" fill="none" stroke="#7a1c47" stroke-miterlimit="10" stroke-width="1"/><line x2="35.057" transform="translate(-69.147 -293.531)" fill="none" stroke="#7a1c47" stroke-miterlimit="10" stroke-width="1"/><line x2="35.057" transform="translate(-23.003 -293.531)" fill="none" stroke="#7a1c47" stroke-miterlimit="10" stroke-width="1"/><path d="M-393.238-381.636s-.062,1.8-.438,4.677h0L-289.612-389.4s4.908.343,6.049,1.028.723-3.843,3.766-5.212,83.443-38.128,83.445-38.128c-1.994-4.553-3.215-7.332-3.215-7.332s-88.447,36.634-90.958,37.319S-393.238-381.636-393.238-381.636Z" fill="#d6ebfb" stroke="#7a1c47" stroke-miterlimit="10" stroke-width="1"/><line x2="0.95" y2="48.352" transform="translate(-248.527 -278.086)" fill="none" stroke="#7a1c47" stroke-miterlimit="10" stroke-width="1"/></g></svg>