<svg xmlns="http://www.w3.org/2000/svg" width="401.5" height="249.878" viewBox="0 0 401.5 249.878"><g transform="translate(-719.25 -3678.625)"><g transform="translate(720 3679)"><g transform="translate(499.11 -5.076)" fill="#bf3976" stroke-linecap="round" stroke-linejoin="round"><path d="M -414.1596069335938 254.2055511474609 L -414.1856384277344 254.2039642333984 C -424.3332824707031 253.5787353515625 -435.11669921875 252.5489959716797 -446.2364501953125 251.1433410644531 C -455.1314086914062 250.0189361572266 -464.2604675292969 248.6528167724609 -473.3699951171875 247.0829620361328 C -488.8815307617188 244.4098205566406 -499.0938110351562 242.0402069091797 -499.1951293945312 242.0165863037109 L -499.4898986816406 241.9478759765625 L -499.4849548339844 241.6452941894531 C -499.4697265625 240.7105865478516 -497.9640808105469 148.1538238525391 -497.9640808105469 146.3516998291016 C -497.9640808105469 144.5640258789062 -499.4681396484375 128.5846099853516 -499.4833679199219 128.4234008789062 L -499.4957885742188 128.291259765625 L -499.4223327636719 128.1806945800781 C -492.2943115234375 117.4535217285156 -487.2634582519531 105.8716125488281 -484.4695129394531 93.75667572021484 C -482.2342834472656 84.06458282470703 -481.4173278808594 74.01078796386719 -482.0412292480469 63.87449645996094 C -482.5963745117188 54.85575866699219 -484.213134765625 47.4411735534668 -485.4716491699219 42.80923080444336 C -486.8333435058594 37.79752349853516 -488.0758666992188 34.88743591308594 -488.0882568359375 34.858642578125 L -488.2466735839844 34.49028778076172 L -487.8685607910156 34.35684967041016 L -449.9115295410156 20.96049499511719 L -449.8976135253906 20.9555835723877 L -449.8833618164062 20.95178985595703 L -439.2259826660156 18.10967254638672 L -439.1737365722656 18.09572982788086 L -439.1196594238281 18.09711265563965 L -376.2969360351562 19.72120094299316 L -376.2259216308594 19.72305488586426 L -376.1604614257812 19.75076103210449 L -337.7973937988281 35.98920059204102 L -337.4268493652344 36.14602661132812 L -337.6093444824219 36.50461196899414 C -337.6232604980469 36.53208541870117 -339.0306701660156 39.3597297668457 -340.1982727050781 45.90129089355469 C -340.8841857910156 49.74402618408203 -341.3542785644531 54.09717178344727 -341.595458984375 58.83979034423828 C -341.8970336914062 64.76840972900391 -341.8397521972656 71.32569885253906 -341.4252014160156 78.32955169677734 C -341.0093994140625 85.34822845458984 -340.0269470214844 92.46699523925781 -338.5052490234375 99.48808288574219 C -337.2878112792969 105.1052017211914 -335.7244873046875 110.6725234985352 -333.8586730957031 116.0354080200195 C -330.6839294433594 125.160758972168 -327.698974609375 130.5888519287109 -327.6692199707031 130.6426086425781 L -327.6222229003906 130.7274017333984 L -327.6222229003906 130.8243255615234 L -327.6222229003906 242.2614898681641 L -327.6222229003906 242.4932556152344 L -327.8295288085938 242.5969085693359 C -330.5032043457031 243.9337310791016 -336.7120361328125 245.3747863769531 -346.2835693359375 246.8800811767578 C -353.916259765625 248.0804290771484 -363.7052307128906 249.3279113769531 -375.3785705566406 250.5878448486328 C -395.2493591308594 252.7325592041016 -413.9470520019531 254.1890869140625 -414.1336059570312 254.2035522460938 L -414.1596069335938 254.2055511474609 Z" stroke="none"/><path d="M -439.1293640136719 18.47200012207031 L -449.7867431640625 21.31411743164062 L -487.7437744140625 34.71043395996094 C -487.7437744140625 34.71043395996094 -467.7501831054688 81.19381713867188 -499.1100463867188 128.3882293701172 C -499.1100463867188 128.3882293701172 -497.5890808105469 144.5256958007812 -497.5890808105469 146.3516998291016 C -497.5890808105469 148.1777038574219 -499.1100463867188 241.6513824462891 -499.1100463867188 241.6513824462891 C -499.1100463867188 241.6513824462891 -458.6159973144531 251.0906677246094 -414.16259765625 253.8296661376953 C -414.16259765625 253.8296661376953 -339.567626953125 248.0466156005859 -327.9972534179688 242.2614898681641 L -327.9972534179688 130.8243255615234 C -327.9972534179688 130.8243255615234 -339.9714660644531 109.2066955566406 -341.799560546875 78.35169982910156 C -343.6256103515625 47.49885559082031 -337.943603515625 36.33451843261719 -337.943603515625 36.33451843261719 L -376.306640625 20.09605407714844 L -439.1293640136719 18.47200012207031 M -439.1295471191406 17.72200012207031 C -439.1230163574219 17.72200012207031 -439.1165161132812 17.72209167480469 -439.1099853515625 17.72225952148438 L -376.2872619628906 19.3463134765625 C -376.1933898925781 19.34872436523438 -376.1007995605469 19.36875915527344 -376.0142822265625 19.40538024902344 L -337.6512451171875 35.64384460449219 C -337.4596252441406 35.72496032714844 -337.3103332519531 35.88201904296875 -337.239013671875 36.07749938964844 C -337.1676940917969 36.27296447753906 -337.1807861328125 36.4892578125 -337.2751770019531 36.67469787597656 C -337.2884826660156 36.70111083984375 -338.6834411621094 39.51725769042969 -339.8401184082031 46.02885437011719 C -340.5196838378906 49.85467529296875 -340.985107421875 54.1881103515625 -341.2235107421875 58.9088134765625 C -341.5215148925781 64.81037902832031 -341.4634094238281 71.33699035644531 -341.0508728027344 78.307373046875 C -340.6361694335938 85.30685424804688 -339.6563720703125 92.40634155273438 -338.1387329101562 99.40864562988281 C -336.9245300292969 105.0110015869141 -335.3653564453125 110.5635833740234 -333.5045471191406 115.9122009277344 C -330.3402099609375 125.0075225830078 -327.3708190917969 130.4074401855469 -327.3411865234375 130.4609069824219 C -327.2796020507812 130.5721435546875 -327.2472534179688 130.6971740722656 -327.2472534179688 130.8243255615234 L -327.2472534179688 242.2614898681641 C -327.2472534179688 242.5455780029297 -327.4077758789062 242.8052673339844 -327.661865234375 242.9323120117188 C -332.5404052734375 245.37158203125 -348.5810852050781 248.0726928710938 -375.3383178710938 250.9606781005859 C -395.2146911621094 253.1059722900391 -413.9180297851562 254.5629577636719 -414.1046142578125 254.5774383544922 C -414.1392517089844 254.5801086425781 -414.1740417480469 254.5803833007812 -414.2087097167969 254.5782623291016 C -424.3642883300781 253.9525299072266 -435.1557922363281 252.9220275878906 -446.2834777832031 251.515380859375 C -455.1839904785156 250.3902587890625 -464.3186645507812 249.0233154296875 -473.4337158203125 247.4524993896484 C -488.9559020996094 244.7775268554688 -499.1788635253906 242.4054412841797 -499.2803039550781 242.3817901611328 C -499.624267578125 242.3016052246094 -499.8656921386719 241.9923248291016 -499.8599548339844 241.6391754150391 C -499.8447265625 240.7044982910156 -498.3390808105469 148.1507873535156 -498.3390808105469 146.3516998291016 C -498.3390808105469 144.5814971923828 -499.8415222167969 128.6196441650391 -499.8567199707031 128.4586181640625 C -499.8728637695312 128.2875823974609 -499.8297729492188 128.1162261962891 -499.7347106933594 127.97314453125 C -492.6392517089844 117.2949676513672 -487.6291809082031 105.7673187255859 -484.8437194824219 93.71040344238281 C -482.614501953125 84.06132507324219 -481.7962951660156 74.05120849609375 -482.4118347167969 63.95814514160156 C -482.9599304199219 54.97029113769531 -484.5672912597656 47.57861328125 -485.8191833496094 42.96043395996094 C -487.1765441894531 37.95307922363281 -488.42041015625 35.03546142578125 -488.4328308105469 35.00657653808594 C -488.5147399902344 34.81587219238281 -488.5139770507812 34.59967041015625 -488.4306640625 34.40956115722656 C -488.347412109375 34.21946716308594 -488.1890869140625 34.072265625 -487.9933776855469 34.00320434570312 L -450.0363464355469 20.60687255859375 C -450.0177917480469 20.60032653808594 -449.9989929199219 20.59449768066406 -449.9800109863281 20.58943176269531 L -439.3226318359375 17.747314453125 C -439.2596130371094 17.73052978515625 -439.1947021484375 17.72200012207031 -439.1295471191406 17.72200012207031 Z" stroke="none" fill="#323333"/></g><rect width="9.743" height="62.721" transform="translate(19.181 138.231)" fill="none" stroke="#323333" stroke-linecap="round" stroke-linejoin="round" stroke-width="0.75"/><rect width="9.743" height="62.721" transform="translate(143.102 138.231)" fill="none" stroke="#323333" stroke-linecap="round" stroke-linejoin="round" stroke-width="0.75"/><path d="M-346.885,88.5c-.438-3.255-.782-6.638-.99-10.15-1.826-30.853,3.856-42.017,3.856-42.017L-382.382,20.1-445.2,18.472l-10.657,2.842-37.957,13.4s10.03,23.375,4.7,53.792Z" transform="translate(505.185 -5.076)" fill="#fff"/><path d="M-482.749,26.5s16.339,59.27-13.905,96.619" transform="translate(501.93 4.146)" fill="none" stroke="#323333" stroke-linecap="round" stroke-linejoin="round" stroke-width="0.75"/><path d="M-425.83,27.165s-11.774,46.281,10.554,93.169" transform="translate(579.69 4.905)" fill="none" stroke="#323333" stroke-linecap="round" stroke-linejoin="round" stroke-width="0.75"/><g transform="translate(621.449 -5.076)" fill="#bf3976" stroke-linecap="round" stroke-linejoin="round"><path d="M -307.6115417480469 254.2055511474609 L -307.6375732421875 254.2039642333984 C -317.78515625 253.5787353515625 -328.5686645507812 252.5489959716797 -339.6886291503906 251.1433410644531 C -348.5837707519531 250.0189361572266 -357.7130737304688 248.6528167724609 -366.8229064941406 247.0829620361328 C -382.3349914550781 244.4098205566406 -392.5478210449219 242.0402069091797 -392.6491394042969 242.0165863037109 L -392.9439086914062 241.9478759765625 L -392.93896484375 241.645263671875 C -392.9237365722656 240.7105560302734 -391.4159545898438 148.1537933349609 -391.4159545898438 146.3516998291016 C -391.4159545898438 144.5640258789062 -392.9221496582031 128.5846710205078 -392.9373779296875 128.4234619140625 L -392.9498596191406 128.291259765625 L -392.8763427734375 128.1806793212891 C -385.7478637695312 117.4535217285156 -380.7165832519531 105.8716125488281 -377.9222717285156 93.75664520263672 C -375.6867980957031 84.06458282470703 -374.8695983886719 74.01075744628906 -375.4933471679688 63.87446594238281 C -376.04833984375 54.85575866699219 -377.6650085449219 47.4411735534668 -378.9234924316406 42.80923080444336 C -380.2851867675781 37.7974967956543 -381.5276794433594 34.88743591308594 -381.5401000976562 34.858642578125 L -381.698486328125 34.49028778076172 L -381.3203735351562 34.35684967041016 L -343.3633728027344 20.96049499511719 L -343.3494567871094 20.9555835723877 L -343.335205078125 20.95178985595703 L -332.6778564453125 18.10967254638672 L -332.6256103515625 18.09572982788086 L -332.571533203125 18.09711265563965 L -269.7487487792969 19.72120094299316 L -269.6777038574219 19.72305488586426 L -269.6122741699219 19.75076103210449 L -231.2492065429688 35.98920059204102 L -230.8786163330078 36.14605331420898 L -231.0612030029297 36.50467300415039 C -231.0751190185547 36.53214263916016 -232.4830627441406 39.35979080200195 -233.6509094238281 45.90131759643555 C -234.3369445800781 49.74405288696289 -234.8070526123047 54.09717178344727 -235.0482025146484 58.83979034423828 C -235.3496551513672 64.76840972900391 -235.2920532226562 71.32569885253906 -234.8770599365234 78.32952117919922 C -234.4619750976562 85.34387969970703 -233.4807891845703 92.45825958251953 -231.9608001708984 99.47505187988281 C -230.7445068359375 105.0899047851562 -229.1824188232422 110.6552276611328 -227.3179168701172 116.0164337158203 C -224.1425628662109 125.1469955444336 -221.1508483886719 130.5887298583984 -221.1210327148438 130.6426086425781 L -221.0740966796875 130.7273712158203 L -221.0740661621094 130.8243255615234 L -221.0740661621094 242.2614898681641 L -221.0740661621094 242.4932556152344 L -221.2813568115234 242.5969085693359 C -223.9550018310547 243.9337310791016 -230.1638488769531 245.3747863769531 -239.7353820800781 246.8800811767578 C -247.3680877685547 248.0804290771484 -257.1571044921875 249.3279113769531 -268.8304138183594 250.5878448486328 C -288.7012329101562 252.7325592041016 -307.3989868164062 254.1890869140625 -307.5855407714844 254.2035522460938 L -307.6115417480469 254.2055511474609 Z" stroke="none"/><path d="M -332.5812377929688 18.47200012207031 L -343.2385864257812 21.31411743164062 L -381.1955871582031 34.71043395996094 C -381.1955871582031 34.71043395996094 -361.2020263671875 81.19381713867188 -392.5640258789062 128.3882293701172 C -392.5640258789062 128.3882293701172 -391.0409545898438 144.5256958007812 -391.0409545898438 146.3516998291016 C -391.0409545898438 148.1777038574219 -392.5640258789062 241.6513824462891 -392.5640258789062 241.6513824462891 C -392.5640258789062 241.6513824462891 -352.0678100585938 251.0906677246094 -307.614501953125 253.8296661376953 C -307.614501953125 253.8296661376953 -233.0194091796875 248.0466156005859 -221.4490661621094 242.2614898681641 L -221.4490661621094 130.8243255615234 C -221.4490661621094 130.8243255615234 -233.4254455566406 109.2066955566406 -235.2514038085938 78.35169982910156 C -237.07958984375 47.49885559082031 -231.3953857421875 36.33451843261719 -231.3953857421875 36.33451843261719 L -269.7584533691406 20.09605407714844 L -332.5812377929688 18.47200012207031 M -332.5814514160156 17.72200012207031 C -332.5749206542969 17.72200012207031 -332.5683898925781 17.72209167480469 -332.5618591308594 17.72225952148438 L -269.7390747070312 19.3463134765625 C -269.6451721191406 19.34872436523438 -269.5525817871094 19.36875915527344 -269.4660949707031 19.40538024902344 L -231.10302734375 35.64384460449219 C -230.9114074707031 35.72496032714844 -230.7620849609375 35.88204956054688 -230.6907958984375 36.07756042480469 C -230.6194763183594 36.27305603027344 -230.6326293945312 36.4893798828125 -230.7270202636719 36.67481994628906 C -230.7403259277344 36.70120239257812 -232.1358337402344 39.51734924316406 -233.292724609375 46.02890014648438 C -233.9724731445312 49.85470581054688 -234.4379577636719 54.18814086914062 -234.6762390136719 58.9088134765625 C -234.97412109375 64.81037902832031 -234.915771484375 71.33695983886719 -234.5027465820312 78.30734252929688 C -234.0889892578125 85.29817199707031 -233.1114196777344 92.38890075683594 -231.5971069335938 99.38264465332031 C -230.3850708007812 104.9804382324219 -228.828369140625 110.529052734375 -226.9703369140625 115.8743133544922 C -223.8050842285156 124.9800872802734 -220.8226928710938 130.4072265625 -220.7929382324219 130.4609985351562 C -220.7314147949219 130.5721435546875 -220.6990661621094 130.697265625 -220.6990661621094 130.8243255615234 L -220.6990661621094 242.2614898681641 C -220.6990661621094 242.5455780029297 -220.8595581054688 242.8052673339844 -221.1136474609375 242.9323120117188 C -225.9922180175781 245.37158203125 -242.0328979492188 248.0726928710938 -268.7901916503906 250.9606781005859 C -288.6665649414062 253.1059722900391 -307.3699340820312 254.5629577636719 -307.5565185546875 254.5774383544922 C -307.5912170410156 254.5801086425781 -307.6259765625 254.5803833007812 -307.6606140136719 254.5782623291016 C -317.8161926269531 253.9525299072266 -328.6077880859375 252.9220275878906 -339.7356567382812 251.515380859375 C -348.6363525390625 250.3902587890625 -357.7712707519531 249.0233154296875 -366.8865966796875 247.4524993896484 C -382.4093627929688 244.7775268554688 -392.6328125 242.4054412841797 -392.7343139648438 242.3817901611328 C -393.0782470703125 242.3016052246094 -393.3196716308594 241.9923248291016 -393.31396484375 241.6391754150391 C -393.2987060546875 240.7044982910156 -391.7909545898438 148.1507873535156 -391.7909545898438 146.3516998291016 C -391.7909545898438 144.5815277099609 -393.2955017089844 128.6197357177734 -393.3107299804688 128.4586944580078 C -393.3268432617188 128.2876434326172 -393.2837524414062 128.1162261962891 -393.1886596679688 127.97314453125 C -386.0852355957031 117.2836761474609 -381.0718383789062 105.7432250976562 -378.2876586914062 93.67237854003906 C -376.060302734375 84.01547241210938 -375.24609375 73.99775695800781 -375.8676452636719 63.89749145507812 C -376.4206848144531 54.910400390625 -378.031494140625 47.5225830078125 -379.285400390625 42.90753173828125 C -380.6401977539062 37.92105102539062 -381.8722534179688 35.03535461425781 -381.8845825195312 35.00679016113281 C -381.9665832519531 34.81605529785156 -381.9659118652344 34.599853515625 -381.8826293945312 34.40963745117188 C -381.7993469238281 34.21946716308594 -381.6409912109375 34.07229614257812 -381.4451904296875 34.00320434570312 L -343.4882202148438 20.60687255859375 C -343.4696350097656 20.60032653808594 -343.4508666992188 20.59449768066406 -343.4318542480469 20.58943176269531 L -332.7745056152344 17.747314453125 C -332.7114868164062 17.73052978515625 -332.6465759277344 17.72200012207031 -332.5814514160156 17.72200012207031 Z" stroke="none" fill="#323333"/></g><path d="M-240.337,88.5c-.438-3.255-.784-6.638-.99-10.15-1.828-30.853,3.856-42.017,3.856-42.017L-275.835,20.1l-62.823-1.624-10.657,2.842-37.957,13.4s10.03,23.375,4.7,53.792Z" transform="translate(627.525 -5.076)" fill="#fff"/><path d="M-376.2,26.5s16.342,59.27-13.9,96.619" transform="translate(624.27 4.146)" fill="none" stroke="#323333" stroke-linecap="round" stroke-linejoin="round" stroke-width="0.75"/><path d="M-319.284,27.165s-11.772,46.281,10.556,93.169" transform="translate(702.03 4.905)" fill="none" stroke="#323333" stroke-linecap="round" stroke-linejoin="round" stroke-width="0.75"/><path d="M-458.646,32.48l9.134,8.525-3.6,2.943-5.531-5.734Z" transform="translate(545.572 11.009)" fill="none" stroke="#323333" stroke-linecap="round" stroke-linejoin="round" stroke-width="0.75"/><path d="M-496.937,118.63s46.685,21.923,159.341,0" transform="translate(501.605 109.928)" fill="none" stroke="#323333" stroke-linecap="round" stroke-linejoin="round" stroke-width="0.75"/><g transform="translate(530.346 -11.64)" fill="#bf3976" stroke-linecap="round" stroke-linejoin="round"><path d="M -420.5242614746094 30.13066291809082 L -420.7359619140625 30.13066291809082 L -468.6904296875 30.13066291809082 L -468.9526672363281 30.13066291809082 L -469.0426330566406 29.88436317443848 L -471.9352416992188 21.96805381774902 L -471.9556884765625 21.91216278076172 L -471.9577941894531 21.85270309448242 L -472.2812805175781 12.76925277709961 L -472.2951049804688 12.38090324401855 L -471.9065246582031 12.38090324401855 L -415.6961059570312 12.38090324401855 L -415.3341064453125 12.38090324401855 L -415.3213195800781 12.74267292022705 L -415.0328979492188 20.9127025604248 L -415.0289611816406 21.02418327331543 L -415.0865783691406 21.11968231201172 L -420.4148864746094 29.94941329956055 L -420.5242614746094 30.13066291809082 Z" stroke="none"/><path d="M -471.9065246582031 12.75590324401855 L -471.5830383300781 21.83935356140137 L -468.6904296875 29.75566291809082 L -420.7359619140625 29.75566291809082 L -415.4076538085938 20.92593383789062 L -415.6961059570312 12.75590324401855 L -471.9065246582031 12.75590324401855 M -471.9065246582031 12.00590324401855 L -415.6961059570312 12.00590324401855 C -415.2922058105469 12.00590324401855 -414.9608154296875 12.32577323913574 -414.9465637207031 12.72944259643555 L -414.6581115722656 20.89947319030762 C -414.6529846191406 21.04495239257812 -414.6903076171875 21.18879318237305 -414.7655029296875 21.31343269348145 L -420.0938110351562 30.14316177368164 C -420.2295837402344 30.36814308166504 -420.4732055664062 30.50566291809082 -420.7359619140625 30.50566291809082 L -468.6904296875 30.50566291809082 C -469.00537109375 30.50566291809082 -469.2867736816406 30.30889320373535 -469.3948974609375 30.01306343078613 L -472.2875061035156 22.09675216674805 C -472.3145446777344 22.02270317077637 -472.3297729492188 21.94484329223633 -472.3325500488281 21.86604309082031 L -472.6560363769531 12.7825927734375 C -472.6632995605469 12.57918357849121 -472.5875549316406 12.38156318664551 -472.4461975097656 12.23509216308594 C -472.3048706054688 12.08863258361816 -472.1100769042969 12.00590324401855 -471.9065246582031 12.00590324401855 Z" stroke="none" fill="#323333"/></g><g transform="translate(525.745 -11.639)" fill="#bf3976" stroke-linecap="round" stroke-linejoin="round"><path d="M -440.9677734375 53.32343292236328 C -440.9688415527344 53.32343292236328 -440.9699401855469 53.32343292236328 -440.9710083007812 53.32343292236328 C -446.1102294921875 53.32330322265625 -451.165771484375 52.02256393432617 -455.9971923828125 49.45737457275391 C -459.8529968261719 47.41018295288086 -463.5743713378906 44.55775451660156 -467.0579528808594 40.97931289672852 C -472.981201171875 34.89479446411133 -476.2139587402344 28.72173500061035 -476.2459411621094 28.66008377075195 L -476.3396301269531 28.47937393188477 L -476.2391357421875 28.30234336853027 L -467.3089904785156 12.57087421417236 L -466.9455871582031 11.9306640625 L -466.6413879394531 12.60105419158936 C -463.1655578613281 20.26137351989746 -454.0207214355469 28.78581428527832 -447.9694213867188 34.42661285400391 C -445.4090576171875 36.81329345703125 -443.3866882324219 38.69844436645508 -442.5291137695312 39.83152389526367 C -441.3053588867188 41.44841384887695 -440.56298828125 44.15852355957031 -440.3226318359375 47.88655471801758 C -440.1454467773438 50.63435363769531 -440.3214416503906 52.95320510864258 -440.3232421875 52.97630310058594 L -440.3499450683594 53.31909561157227 L -440.6937255859375 53.32218551635742 C -440.7855224609375 53.32301330566406 -440.8763427734375 53.32343292236328 -440.9677734375 53.32343292236328 Z" stroke="none"/><path d="M -466.9828796386719 12.75599670410156 L -475.9130249023438 28.48746871948242 C -475.9130249023438 28.48746871948242 -463.2303161621094 52.94843292236328 -440.9709777832031 52.94843292236328 C -440.8795776367188 52.94843292236328 -440.7888488769531 52.94802474975586 -440.6971130371094 52.94719696044922 C -440.6971130371094 52.94719696044922 -439.9860534667969 43.81292724609375 -442.828125 40.05783081054688 C -445.6702270507812 36.30272674560547 -462.0097045898438 23.71625900268555 -466.9828796386719 12.75599670410156 M -466.9830017089844 12.00598907470703 C -466.9716796875 12.00598907470703 -466.9603881835938 12.00624465942383 -466.9490356445312 12.00675964355469 C -466.6672668457031 12.01949691772461 -466.4164428710938 12.18924713134766 -466.2998962402344 12.44609832763672 C -462.8550109863281 20.03817749023438 -453.7431945800781 28.53185653686523 -447.7137145996094 34.15229797363281 C -445.1400756835938 36.55134582519531 -443.1072692871094 38.44625854492188 -442.2301025390625 39.60520935058594 C -439.25048828125 43.54204559326172 -439.91943359375 52.620849609375 -439.9493713378906 53.00540924072266 C -439.9795837402344 53.39326858520508 -440.3013000488281 53.69364929199219 -440.6903381347656 53.69716644287109 C -440.7843322753906 53.69801712036133 -440.8773193359375 53.69842910766602 -440.9710083007812 53.69842910766602 C -446.1721801757812 53.69842910766602 -451.2868957519531 52.38304901123047 -456.1730346679688 49.78882598876953 C -460.0632629394531 47.723388671875 -463.8158874511719 44.84751892089844 -467.32666015625 41.24110794067383 C -473.28857421875 35.11680603027344 -476.4472961425781 29.08640670776367 -476.578857421875 28.83268737792969 C -476.6957092285156 28.60727691650391 -476.6906127929688 28.33802795410156 -476.5652770996094 28.11721801757812 L -467.6351318359375 12.38574981689453 C -467.5014953613281 12.15035247802734 -467.251953125 12.00598907470703 -466.9830017089844 12.00598907470703 Z" stroke="none" fill="#323333"/></g><g transform="translate(546.298 -11.639)" fill="#bf3976" stroke-linecap="round" stroke-linejoin="round"><path d="M -457.6611328125 53.32343292236328 C -457.753662109375 53.32343292236328 -457.8455200195312 53.32302474975586 -457.9383850097656 53.32218551635742 L -458.2822570800781 53.31909561157227 L -458.3088684082031 52.97622299194336 C -458.3106689453125 52.953125 -458.4861145019531 50.63428497314453 -458.3087158203125 47.88651275634766 C -458.0679931640625 44.15854263305664 -457.3258972167969 41.44849395751953 -456.10302734375 39.83162307739258 C -455.2453918457031 38.69844436645508 -453.2230224609375 36.81327438354492 -450.6626281738281 34.42657470703125 C -444.6113586425781 28.7857837677002 -435.4666137695312 20.2613639831543 -431.9907836914062 12.60105419158936 L -431.6866455078125 11.93075466156006 L -431.3231811523438 12.57084465026855 L -422.390869140625 28.30231475830078 L -422.2903442382812 28.4793643951416 L -422.3840942382812 28.66010475158691 C -422.4160461425781 28.72175407409668 -425.6493530273438 34.89495468139648 -431.5731201171875 40.97954559326172 C -435.0570373535156 44.55802536010742 -438.7786560058594 47.41046524047852 -442.6346130371094 49.45762252807617 C -447.4662780761719 52.02279281616211 -452.5219116210938 53.32343292236328 -457.6611328125 53.32343292236328 Z" stroke="none"/><path d="M -431.6492919921875 12.75599670410156 C -436.6224365234375 23.71625900268555 -452.9618835449219 36.30272674560547 -455.803955078125 40.05783081054688 C -458.6439514160156 43.81292724609375 -457.9349975585938 52.94719696044922 -457.9349975585938 52.94719696044922 C -457.8432922363281 52.94802474975586 -457.7525329589844 52.94843292236328 -457.6611328125 52.94843292236328 C -435.4018249511719 52.94843292236328 -422.7169799804688 28.48746871948242 -422.7169799804688 28.48746871948242 L -431.6492919921875 12.75599670410156 M -431.649169921875 12.00599670410156 C -431.3802490234375 12.00599670410156 -431.1307373046875 12.15031433105469 -430.9971008300781 12.38567733764648 L -422.0647888183594 28.11714935302734 C -421.9393920898438 28.33798980712891 -421.9342651367188 28.6072883605957 -422.0511779785156 28.83273696899414 C -422.1827392578125 29.08644866943359 -425.3420104980469 35.11683654785156 -431.304443359375 41.24112701416016 C -434.8155212402344 44.84752655029297 -438.5683898925781 47.72339630126953 -442.4587707519531 49.78883743286133 C -447.3451538085938 52.38304901123047 -452.4599609375 53.69842910766602 -457.6611328125 53.69842910766602 C -457.7547912597656 53.69842910766602 -457.8477783203125 53.69801712036133 -457.9418029785156 53.69716644287109 C -458.3308715820312 53.69364929199219 -458.6526489257812 53.39316940307617 -458.6827392578125 53.0052375793457 C -458.7126159667969 52.62068939208984 -459.3794860839844 43.54211807250977 -456.4021301269531 39.60541534423828 C -455.5248107910156 38.44624710083008 -453.4920043945312 36.55133056640625 -450.9183349609375 34.15226745605469 C -444.8888854980469 28.53182983398438 -435.7771301269531 20.03816986083984 -432.332275390625 12.44609832763672 C -432.2157287597656 12.18925857543945 -431.9649658203125 12.0195198059082 -431.6831970214844 12.00676727294922 C -431.6718139648438 12.00625228881836 -431.6604614257812 12.00599670410156 -431.649169921875 12.00599670410156 Z" stroke="none" fill="#323333"/></g><line y2="201.832" transform="translate(85.556 42.626)" fill="none" stroke="#323333" stroke-linecap="round" stroke-linejoin="round" stroke-width="0.75"/><path d="M-359.813,12.236l-9.743,16.239h73.683l-9.134-16.239Z" transform="translate(647.868 -12.236)" fill="#bf3976" stroke="#323333" stroke-linecap="round" stroke-linejoin="round" stroke-width="0.75"/></g></g></svg>