<svg xmlns="http://www.w3.org/2000/svg" width="505" height="332.204" viewBox="0 0 505 332.204"><g transform="translate(-810 -2662)"><g transform="translate(3286.741 1885.675) rotate(90)"><path d="M834.911,2050.087H895.9s23.457,25.412,16.029,97.347l-7.82,91.482-4.691,138.007-.391,11.337H829.437V2255.727s-1.563-91.482-16.029-123.93c0,0,18.766-1.565,21.112-30.495Z" transform="translate(3.703 4.889)" fill="#fff" stroke="#000" stroke-miterlimit="10" stroke-width="1"/><path d="M1049.491,2040.7l65.289,8.6-4.3,59.034-3.909,45.349-7.037,64.9-3.128,55.124-3.127,115.722h-77.409V2253.373s-4.3-91.873-19.156-118.849c0,0,31.667,10.947,43.4-60.988Z" transform="translate(-47.606 3.725)" fill="#fff" stroke="#000" stroke-miterlimit="10" stroke-width="1"/><line y2="411.822" transform="translate(1006.968 2010.65)" fill="none" stroke="red" stroke-miterlimit="10" stroke-width="0.75" stroke-dasharray="12"/><line y2="411.822" transform="translate(866.372 2010.65)" fill="none" stroke="red" stroke-miterlimit="10" stroke-width="0.75" stroke-dasharray="12"/><line x2="286.936" transform="translate(796.481 2136.685)" fill="none" stroke="#bf3976" stroke-miterlimit="10" stroke-width="0.75" stroke-dasharray="12"/><path d="M1076.133,2046.241l-5.424,19.5-1.537-21.685,7.235.917Z" transform="translate(-38.623 4.141)" fill="none" stroke="#000" stroke-linejoin="round" stroke-width="1"/><text transform="translate(852.679 2389.238) rotate(-90)" fill="red" font-size="17" font-family="MyriadPro-Regular, Myriad Pro"><tspan x="0" y="0" xml:space="preserve"> L. Aplome (eje vertical)</tspan></text><text transform="translate(992.688 2389.238) rotate(-90)" fill="red" font-size="17" font-family="MyriadPro-Regular, Myriad Pro"><tspan x="0" y="0" xml:space="preserve"> L. Aplome (eje vertical)</tspan></text><text transform="translate(880.857 2203.888) rotate(90)" font-size="6" font-family="MyriadPro-Regular, Myriad Pro"><tspan x="0" y="0">Delantero</tspan></text><text transform="translate(1017.055 2207.113) rotate(90)" font-size="6" font-family="MyriadPro-Regular, Myriad Pro"><tspan x="0" y="0">Trasero</tspan></text><text transform="translate(800.335 2334.449) rotate(-90)" fill="#bf3976" font-size="17" font-family="Roboto-Regular, Roboto"><tspan x="0" y="0">Línea tiro (eje horizontal)</tspan></text></g><g transform="translate(1000 2975.421)"><path d="M637.58,2002.068h-5.323v4.956h5.955v1.488h-7.749v-13.746h7.443v1.489h-5.649v4.345h5.323Z" transform="translate(-630.463 -1994.032)" fill="#8f2b58"/><path d="M638.858,2011.406a2.864,2.864,0,0,0,1.958-.755c.489-.55.692-1.345.692-3.711v-8.3h1.8v8.994c0,1.918-.306,3.162-1.183,4.059a4.557,4.557,0,0,1-3.059,1.121Zm3.509-14.44a1.066,1.066,0,0,1-1.081-1.1,1.082,1.082,0,0,1,1.122-1.122,1.111,1.111,0,0,1-.021,2.222Z" transform="translate(-631.292 -1994.03)" fill="#8f2b58"/><path d="M647.991,2004.3a3.141,3.141,0,0,0,3.366,3.406,6.441,6.441,0,0,0,2.733-.509l.325,1.284a8.035,8.035,0,0,1-3.3.633,4.6,4.6,0,0,1-4.853-4.976c0-2.979,1.774-5.324,4.651-5.324,3.222,0,4.058,2.835,4.058,4.65a4.3,4.3,0,0,1-.062.837Zm5.242-1.284c.02-1.143-.47-2.917-2.468-2.917-1.836,0-2.61,1.673-2.753,2.917Z" transform="translate(-632.023 -1994.432)" fill="#8f2b58"/><path d="M671.63,1993.952v11.931c0,.877.022,1.876.082,2.549H670.1l-.081-1.712h-.041a3.617,3.617,0,0,1-3.345,1.937c-2.386,0-4.241-2.019-4.241-5.016-.021-3.3,2.039-5.3,4.425-5.3a3.282,3.282,0,0,1,2.978,1.489h.041v-5.873Zm-1.794,8.627a3.328,3.328,0,0,0-.081-.775,2.643,2.643,0,0,0-2.59-2.059c-1.856,0-2.957,1.631-2.957,3.793,0,2.019,1,3.671,2.915,3.671a2.717,2.717,0,0,0,2.632-2.162,2.845,2.845,0,0,0,.081-.754Z" transform="translate(-633.616 -1993.952)" fill="#8f2b58"/><path d="M676.889,2004.3a3.141,3.141,0,0,0,3.364,3.406,6.436,6.436,0,0,0,2.733-.509l.326,1.284a8.035,8.035,0,0,1-3.3.633,4.6,4.6,0,0,1-4.853-4.976c0-2.979,1.774-5.324,4.65-5.324,3.222,0,4.058,2.835,4.058,4.65a4.313,4.313,0,0,1-.061.837Zm5.241-1.284c.021-1.143-.469-2.917-2.467-2.917-1.836,0-2.611,1.673-2.754,2.917Z" transform="translate(-634.876 -1994.432)" fill="#8f2b58"/><path d="M693.023,2004.3a3.14,3.14,0,0,0,3.365,3.406,6.435,6.435,0,0,0,2.733-.509l.325,1.284a8.032,8.032,0,0,1-3.3.633,4.6,4.6,0,0,1-4.852-4.976c0-2.979,1.773-5.324,4.65-5.324,3.222,0,4.058,2.835,4.058,4.65a4.3,4.3,0,0,1-.062.837Zm5.241-1.284c.02-1.143-.469-2.917-2.467-2.917-1.836,0-2.611,1.673-2.754,2.917Z" transform="translate(-636.469 -1994.432)" fill="#8f2b58"/><path d="M703.1,2007.077a5.073,5.073,0,0,0,2.388.693c1.283,0,1.9-.632,1.9-1.468,0-.856-.51-1.305-1.816-1.794-1.794-.653-2.631-1.632-2.631-2.794,0-1.592,1.306-2.9,3.407-2.9a4.579,4.579,0,0,1,2.406.612l-.429,1.285a4.041,4.041,0,0,0-2.019-.571c-1.06,0-1.631.612-1.631,1.346,0,.816.571,1.182,1.856,1.693,1.693.632,2.59,1.488,2.59,2.957,0,1.754-1.366,2.978-3.671,2.978a5.619,5.619,0,0,1-2.773-.694Z" transform="translate(-637.593 -1994.432)" fill="#8f2b58"/><path d="M719.338,2008.545a6.937,6.937,0,0,1-2.834.571,4.689,4.689,0,0,1-4.915-5.037,5.031,5.031,0,0,1,5.3-5.262,5.637,5.637,0,0,1,2.488.531l-.407,1.366a4.4,4.4,0,0,0-2.081-.469,3.426,3.426,0,0,0-3.487,3.732,3.384,3.384,0,0,0,3.427,3.692,5.136,5.136,0,0,0,2.2-.469Z" transform="translate(-638.473 -1994.432)" fill="#8f2b58"/><path d="M729.387,2006.546a16.57,16.57,0,0,0,.142,2.366h-1.611l-.163-1.244h-.061a3.648,3.648,0,0,1-3.018,1.468,2.812,2.812,0,0,1-3.018-2.834c0-2.387,2.121-3.691,5.935-3.671v-.2a2.027,2.027,0,0,0-2.243-2.285,4.752,4.752,0,0,0-2.59.735l-.408-1.2a6.4,6.4,0,0,1,3.263-.856c3.039,0,3.773,2.06,3.773,4.039Zm-1.754-2.671c-1.958-.041-4.181.306-4.181,2.223a1.572,1.572,0,0,0,1.673,1.712,2.493,2.493,0,0,0,2.427-1.651,1.87,1.87,0,0,0,.081-.572Z" transform="translate(-639.468 -1994.432)" fill="#8f2b58"/><path d="M733.426,1993.952h1.8v14.479h-1.8Z" transform="translate(-640.63 -1993.952)" fill="#8f2b58"/><path d="M745.635,2006.546a16.56,16.56,0,0,0,.142,2.366h-1.61l-.163-1.244h-.061a3.648,3.648,0,0,1-3.018,1.468,2.812,2.812,0,0,1-3.018-2.834c0-2.387,2.121-3.691,5.935-3.671v-.2a2.027,2.027,0,0,0-2.243-2.285,4.752,4.752,0,0,0-2.59.735l-.408-1.2a6.4,6.4,0,0,1,3.264-.856c3.039,0,3.773,2.06,3.773,4.039Zm-1.754-2.671c-1.958-.041-4.181.306-4.181,2.223a1.572,1.572,0,0,0,1.673,1.712,2.493,2.493,0,0,0,2.427-1.651,1.868,1.868,0,0,0,.081-.572Z" transform="translate(-641.072 -1994.432)" fill="#8f2b58"/><path d="M758.12,1993.952v11.931c0,.877.021,1.876.081,2.549H756.59l-.082-1.712h-.041a3.618,3.618,0,0,1-3.345,1.937c-2.387,0-4.241-2.019-4.241-5.016-.022-3.3,2.039-5.3,4.425-5.3a3.281,3.281,0,0,1,2.977,1.489h.041v-5.873Zm-1.8,8.627a3.332,3.332,0,0,0-.081-.775,2.642,2.642,0,0,0-2.59-2.059c-1.856,0-2.957,1.631-2.957,3.793,0,2.019,1,3.671,2.917,3.671a2.717,2.717,0,0,0,2.631-2.162,2.848,2.848,0,0,0,.081-.754Z" transform="translate(-642.156 -1993.952)" fill="#8f2b58"/><path d="M766.376,2009.136c-2.651,0-4.731-1.958-4.731-5.078,0-3.3,2.182-5.242,4.895-5.242,2.834,0,4.751,2.06,4.751,5.058,0,3.671-2.55,5.262-4.894,5.262Zm.082-1.345c1.713,0,3-1.612,3-3.855,0-1.673-.836-3.773-2.957-3.773-2.1,0-3.018,1.958-3.018,3.834,0,2.162,1.224,3.794,2.958,3.794Z" transform="translate(-643.416 -1994.432)" fill="#8f2b58"/></g><rect width="505" height="332" transform="translate(810 2662)" fill="none"/></g></svg>