<svg xmlns="http://www.w3.org/2000/svg" width="295" height="727" viewBox="0 0 295 727"><g transform="translate(-1020 -14440)"><rect width="295" height="727" transform="translate(1020 14440)" fill="#fff"/><g transform="translate(28.847 15363.931)"><path d="M1196.853-908.079l-75.454,4.347s4.759,28.758-30.757,28.758c-1.017,0-2.061-.024-3.145-.072-38.944-1.739-46.42-1.739-46.42-1.739l-4.172,45.377-4.173,79.452,19.472,234.88,9.214,304.423h131.175l9.91-301.728s23.557-208.888,41.639-242.964a36.813,36.813,0,0,1-3.777.166c-9.114,0-31.734-2.536-33.949-27.462-2.782-31.293-9.562-123.438-9.562-123.438Z" transform="translate(-0.11 -0.099)" fill="#f1f9ff" stroke="#454545" stroke-miterlimit="10" stroke-width="1"/><path d="M1199.725-783.314c-2.3-25.864-7.379-93.961-9.037-116.325l-61.279,3.53a31.437,31.437,0,0,1-7.049,17.326c-6.665,7.859-17.121,11.844-31.077,11.844-1.128,0-2.3-.027-3.473-.079-21.263-.949-33.064-1.378-39.392-1.572l-3.53,38.388-4.138,78.81,19.43,234.383.017.192.006.193,9,297.285h.031v7.36h116.881v-7.36l9.675-294.609.009-.293.033-.291c.059-.523,6-52.983,14.068-108.931,9.034-62.608,17.121-104.87,24.112-126.071C1214.077-751.815,1201.435-764.08,1199.725-783.314Z" transform="translate(-0.751 -0.774)" fill="none" stroke="#454545" stroke-miterlimit="10" stroke-width="1" stroke-dasharray="3"/><circle cx="2.263" cy="2.263" r="2.263" transform="translate(1038.574 -879.005)" fill="#454545"/><circle cx="1.263" cy="1.263" r="1.263" transform="translate(1127.328 -898.096)" fill="#454545"/><circle cx="1.263" cy="1.263" r="1.263" transform="translate(1165.924 -900.291)" fill="#454545"/><circle cx="1.263" cy="1.263" r="1.263" transform="translate(1188.645 -901.554)" fill="#454545"/><circle cx="2.263" cy="2.263" r="2.263" transform="translate(1194.382 -910.313)" fill="#454545"/><circle cx="1.674" cy="1.674" r="1.674" transform="translate(1165.513 -908.178)" fill="#454545"/><circle cx="2.263" cy="2.263" r="2.263" transform="translate(1118.896 -906.007)" fill="#454545"/><circle cx="1.263" cy="1.263" r="1.263" transform="translate(1046.205 -870.551)" fill="#454545"/><circle cx="1.263" cy="1.263" r="1.263" transform="translate(1197.631 -785.644)" fill="#454545"/><circle cx="2.263" cy="2.263" r="2.263" transform="translate(1204.02 -786.644)" fill="#454545"/><circle cx="1.263" cy="1.263" r="1.263" transform="translate(1231.996 -751.508)" fill="#454545"/><circle cx="2.263" cy="2.263" r="2.263" transform="translate(1241.606 -759.745)" fill="#454545"/><circle cx="2.263" cy="2.263" r="2.263" transform="translate(1200 -516.808)" fill="#454545"/><circle cx="1.263" cy="1.263" r="1.263" transform="translate(1193.785 -515.808)" fill="#454545"/><circle cx="1.263" cy="1.263" r="1.263" transform="translate(1058.294 -515.808)" fill="#454545"/><circle cx="2.263" cy="2.263" r="2.263" transform="translate(1049.818 -516.808)" fill="#454545"/><circle cx="2.263" cy="2.263" r="2.263" transform="translate(1189.992 -215.015)" fill="#454545"/><circle cx="2.263" cy="2.263" r="2.263" transform="translate(1183.016 -215.015)" fill="#454545"/><circle cx="2.263" cy="2.263" r="2.263" transform="translate(1122.585 -215.015)" fill="#454545"/><circle cx="2.263" cy="2.263" r="2.263" transform="translate(1066.174 -215.015)" fill="#454545"/><circle cx="2.263" cy="2.263" r="2.263" transform="translate(1058.937 -215.015)" fill="#454545"/><circle cx="2.263" cy="2.263" r="2.263" transform="translate(1030.359 -754.426)" fill="#454545"/><circle cx="1.263" cy="1.263" r="1.263" transform="translate(1038.735 -753.426)" fill="#454545"/><circle cx="2.012" cy="2.012" r="2.012" transform="translate(1034.62 -833.231)" fill="#454545"/><circle cx="1.263" cy="1.263" r="1.263" transform="translate(1042.769 -831.732)" fill="#454545"/><path d="M1143.283-748.016v409.758l8.867-16.495" transform="translate(-8.955 -12.905)" fill="none" stroke="#454545" stroke-miterlimit="10" stroke-width="1"/><path d="M-18.545-3.34V0H-19.67V-8.531h3.146a3.161,3.161,0,0,1,2.194.715,2.423,2.423,0,0,1,.794,1.893,2.391,2.391,0,0,1-.776,1.913,3.3,3.3,0,0,1-2.224.671Zm0-.92h2.021a2.023,2.023,0,0,0,1.383-.425,1.552,1.552,0,0,0,.48-1.228,1.6,1.6,0,0,0-.48-1.219,1.9,1.9,0,0,0-1.318-.475h-2.086ZM-9.639.117a2.77,2.77,0,0,1-2.1-.847,3.142,3.142,0,0,1-.809-2.265v-.2a3.8,3.8,0,0,1,.36-1.685,2.811,2.811,0,0,1,1.008-1.16,2.534,2.534,0,0,1,1.4-.419,2.374,2.374,0,0,1,1.922.814,3.526,3.526,0,0,1,.686,2.332v.451h-4.295a2.254,2.254,0,0,0,.548,1.515A1.722,1.722,0,0,0-9.58-.768,1.888,1.888,0,0,0-8.607-1a2.444,2.444,0,0,0,.7-.621l.662.516A2.662,2.662,0,0,1-9.639.117Zm-.135-5.684a1.446,1.446,0,0,0-1.1.478,2.321,2.321,0,0,0-.551,1.339H-8.25v-.082A2.065,2.065,0,0,0-8.7-5.112,1.361,1.361,0,0,0-9.773-5.566Zm6.926.2a3.248,3.248,0,0,0-.533-.041A1.428,1.428,0,0,0-4.828-4.5V0H-5.912V-6.34h1.055l.018.732a1.688,1.688,0,0,1,1.512-.85,1.107,1.107,0,0,1,.48.082ZM-.826-6.34l.035.8a2.31,2.31,0,0,1,1.9-.914q2.01,0,2.027,2.268V0H2.051V-4.2a1.459,1.459,0,0,0-.313-1.014,1.256,1.256,0,0,0-.958-.328,1.564,1.564,0,0,0-.926.281,1.91,1.91,0,0,0-.621.738V0H-1.852V-6.34ZM7.4.117A2.77,2.77,0,0,1,5.3-.729a3.142,3.142,0,0,1-.809-2.265v-.2a3.8,3.8,0,0,1,.36-1.685,2.811,2.811,0,0,1,1.008-1.16,2.534,2.534,0,0,1,1.4-.419,2.374,2.374,0,0,1,1.922.814,3.526,3.526,0,0,1,.686,2.332v.451H5.578a2.254,2.254,0,0,0,.548,1.515,1.722,1.722,0,0,0,1.333.577A1.888,1.888,0,0,0,8.432-1a2.444,2.444,0,0,0,.7-.621l.662.516A2.662,2.662,0,0,1,7.4.117ZM7.266-5.566a1.446,1.446,0,0,0-1.1.478A2.321,2.321,0,0,0,5.613-3.75H8.789v-.082a2.065,2.065,0,0,0-.445-1.28A1.361,1.361,0,0,0,7.266-5.566Zm6.926.2a3.248,3.248,0,0,0-.533-.041,1.428,1.428,0,0,0-1.447.908V0H11.127V-6.34h1.055l.018.732a1.688,1.688,0,0,1,1.512-.85,1.107,1.107,0,0,1,.48.082ZM18.867,0a2.277,2.277,0,0,1-.152-.668,2.419,2.419,0,0,1-1.8.785,2.238,2.238,0,0,1-1.538-.53,1.716,1.716,0,0,1-.6-1.345A1.792,1.792,0,0,1,15.524-3.3a3.55,3.55,0,0,1,2.118-.548H18.7v-.5a1.217,1.217,0,0,0-.34-.905,1.366,1.366,0,0,0-1-.337,1.581,1.581,0,0,0-.973.293.863.863,0,0,0-.393.709H14.9a1.5,1.5,0,0,1,.337-.917,2.3,2.3,0,0,1,.914-.7,3.075,3.075,0,0,1,1.269-.258,2.506,2.506,0,0,1,1.717.548A1.976,1.976,0,0,1,19.781-4.4v2.918A3.567,3.567,0,0,0,20-.094V0Zm-1.8-.826a1.905,1.905,0,0,0,.967-.264,1.6,1.6,0,0,0,.662-.686v-1.3h-.85q-1.992,0-1.992,1.166a.987.987,0,0,0,.34.8A1.306,1.306,0,0,0,17.068-.826Zm-41.42,9.6a3.714,3.714,0,0,1,.691-2.347,2.186,2.186,0,0,1,1.811-.888,2.2,2.2,0,0,1,1.764.762V3H-19v9h-1l-.053-.68a2.208,2.208,0,0,1-1.811.8,2.165,2.165,0,0,1-1.8-.9,3.756,3.756,0,0,1-.694-2.355Zm1.084.123a2.812,2.812,0,0,0,.445,1.688,1.44,1.44,0,0,0,1.23.609,1.581,1.581,0,0,0,1.506-.926V7.359a1.593,1.593,0,0,0-1.494-.9,1.446,1.446,0,0,0-1.242.615A3.1,3.1,0,0,0-23.268,8.9Zm8.578,3.217a2.77,2.77,0,0,1-2.1-.847A3.142,3.142,0,0,1-17.6,9.006v-.2a3.8,3.8,0,0,1,.36-1.685,2.811,2.811,0,0,1,1.008-1.16,2.534,2.534,0,0,1,1.4-.419,2.374,2.374,0,0,1,1.922.814,3.526,3.526,0,0,1,.686,2.332v.451h-4.295a2.254,2.254,0,0,0,.548,1.515,1.722,1.722,0,0,0,1.333.577A1.888,1.888,0,0,0-13.658,11a2.444,2.444,0,0,0,.7-.621l.662.516A2.662,2.662,0,0,1-14.689,12.117Zm-.135-5.684a1.446,1.446,0,0,0-1.1.478,2.321,2.321,0,0,0-.551,1.339H-13.3V8.168a2.065,2.065,0,0,0-.445-1.28A1.361,1.361,0,0,0-14.824,6.434ZM-9.785,12h-1.084V3h1.084Zm5.648,0a2.277,2.277,0,0,1-.152-.668,2.419,2.419,0,0,1-1.8.785,2.238,2.238,0,0,1-1.538-.53,1.716,1.716,0,0,1-.6-1.345A1.792,1.792,0,0,1-7.479,8.7a3.55,3.55,0,0,1,2.118-.548h1.055v-.5a1.217,1.217,0,0,0-.34-.905,1.366,1.366,0,0,0-1-.337,1.581,1.581,0,0,0-.973.293.863.863,0,0,0-.393.709H-8.1A1.5,1.5,0,0,1-7.767,6.5a2.3,2.3,0,0,1,.914-.7,3.075,3.075,0,0,1,1.269-.258,2.506,2.506,0,0,1,1.717.548A1.976,1.976,0,0,1-3.223,7.6v2.918A3.567,3.567,0,0,0-3,11.906V12Zm-1.8-.826a1.905,1.905,0,0,0,.967-.264,1.6,1.6,0,0,0,.662-.686v-1.3h-.85q-1.992,0-1.992,1.166a.987.987,0,0,0,.34.8A1.306,1.306,0,0,0-5.936,11.174ZM-.5,5.66l.035.8a2.31,2.31,0,0,1,1.9-.914q2.01,0,2.027,2.268V12H2.379V7.8a1.459,1.459,0,0,0-.313-1.014,1.256,1.256,0,0,0-.958-.328,1.564,1.564,0,0,0-.926.281,1.91,1.91,0,0,0-.621.738V12H-1.523V5.66ZM6.568,4.125V5.66H7.752V6.5H6.568V10.43A.878.878,0,0,0,6.727,11a.666.666,0,0,0,.539.19,2.624,2.624,0,0,0,.516-.07V12a3.143,3.143,0,0,1-.832.117,1.35,1.35,0,0,1-1.1-.439,1.888,1.888,0,0,1-.369-1.248V6.5H4.33V5.66H5.484V4.125Zm5.08,7.992a2.77,2.77,0,0,1-2.1-.847,3.142,3.142,0,0,1-.809-2.265v-.2A3.8,3.8,0,0,1,9.1,7.122a2.811,2.811,0,0,1,1.008-1.16,2.534,2.534,0,0,1,1.4-.419,2.374,2.374,0,0,1,1.922.814,3.526,3.526,0,0,1,.686,2.332v.451H9.826a2.254,2.254,0,0,0,.548,1.515,1.722,1.722,0,0,0,1.333.577A1.888,1.888,0,0,0,12.68,11a2.444,2.444,0,0,0,.7-.621l.662.516A2.662,2.662,0,0,1,11.648,12.117Zm-.135-5.684a1.446,1.446,0,0,0-1.1.478A2.321,2.321,0,0,0,9.861,8.25h3.176V8.168a2.065,2.065,0,0,0-.445-1.28A1.361,1.361,0,0,0,11.514,6.434Zm6.926.2a3.248,3.248,0,0,0-.533-.041,1.428,1.428,0,0,0-1.447.908V12H15.375V5.66H16.43l.018.732a1.688,1.688,0,0,1,1.512-.85,1.107,1.107,0,0,1,.48.082ZM23.115,12a2.277,2.277,0,0,1-.152-.668,2.419,2.419,0,0,1-1.8.785,2.238,2.238,0,0,1-1.538-.53,1.716,1.716,0,0,1-.6-1.345A1.792,1.792,0,0,1,19.772,8.7a3.55,3.55,0,0,1,2.118-.548h1.055v-.5a1.217,1.217,0,0,0-.34-.905,1.366,1.366,0,0,0-1-.337,1.581,1.581,0,0,0-.973.293.863.863,0,0,0-.393.709h-1.09a1.5,1.5,0,0,1,.337-.917,2.3,2.3,0,0,1,.914-.7,3.075,3.075,0,0,1,1.269-.258,2.506,2.506,0,0,1,1.717.548A1.976,1.976,0,0,1,24.029,7.6v2.918a3.567,3.567,0,0,0,.223,1.389V12Zm-1.8-.826a1.905,1.905,0,0,0,.967-.264,1.6,1.6,0,0,0,.662-.686v-1.3H22.1q-1.992,0-1.992,1.166a.987.987,0,0,0,.34.8A1.306,1.306,0,0,0,21.316,11.174Z" transform="translate(1097.025 -561.965)" fill="#161615"/></g></g></svg>