<svg xmlns="http://www.w3.org/2000/svg" width="820" height="635" viewBox="0 0 820 635"><g transform="translate(-390 -12977)"><path d="M9.945-3.789A4.025,4.025,0,0,1,8.59-.9,4.76,4.76,0,0,1,5.367.156,4.28,4.28,0,0,1,1.926-1.316,6.038,6.038,0,0,1,.672-5.359v-.7A6.819,6.819,0,0,1,1.25-8.945,4.332,4.332,0,0,1,2.9-10.863a4.629,4.629,0,0,1,2.5-.668A4.637,4.637,0,0,1,8.57-10.477,4.326,4.326,0,0,1,9.961-7.516H7.617A2.376,2.376,0,0,0,7-9.113a2.271,2.271,0,0,0-1.605-.5,1.991,1.991,0,0,0-1.754.84,4.707,4.707,0,0,0-.6,2.605V-5.3a5.038,5.038,0,0,0,.559,2.7,1.954,1.954,0,0,0,1.762.852,2.314,2.314,0,0,0,1.621-.5A2.241,2.241,0,0,0,7.6-3.789ZM10.984-4.3a5.013,5.013,0,0,1,.484-2.242A3.546,3.546,0,0,1,12.863-8.07a4.069,4.069,0,0,1,2.113-.539A3.849,3.849,0,0,1,17.77-7.562a4.2,4.2,0,0,1,1.207,2.844l.016.578A4.418,4.418,0,0,1,17.906-1.02,3.775,3.775,0,0,1,14.992.156a3.793,3.793,0,0,1-2.918-1.172A4.5,4.5,0,0,1,10.984-4.2Zm2.258.164A3.151,3.151,0,0,0,13.7-2.3a1.5,1.5,0,0,0,1.3.637,1.5,1.5,0,0,0,1.281-.629A3.448,3.448,0,0,0,16.734-4.3a3.12,3.12,0,0,0-.461-1.828,1.5,1.5,0,0,0-1.3-.648,1.475,1.475,0,0,0-1.281.645A3.506,3.506,0,0,0,13.242-4.141Zm11.719,1.8a.727.727,0,0,0-.41-.652,4.659,4.659,0,0,0-1.316-.426q-3.016-.633-3.016-2.562a2.323,2.323,0,0,1,.934-1.879,3.766,3.766,0,0,1,2.441-.754,4.053,4.053,0,0,1,2.574.758,2.388,2.388,0,0,1,.965,1.969H24.875a1.092,1.092,0,0,0-.312-.8A1.322,1.322,0,0,0,23.586-7a1.351,1.351,0,0,0-.883.258.814.814,0,0,0-.312.656.7.7,0,0,0,.355.605,3.657,3.657,0,0,0,1.2.4,9.8,9.8,0,0,1,1.422.379A2.336,2.336,0,0,1,27.156-2.43a2.2,2.2,0,0,1-.992,1.871A4.28,4.28,0,0,1,23.6.156a4.47,4.47,0,0,1-1.887-.379,3.166,3.166,0,0,1-1.293-1.039,2.414,2.414,0,0,1-.469-1.426h2.141a1.179,1.179,0,0,0,.445.922,1.766,1.766,0,0,0,1.109.32,1.635,1.635,0,0,0,.98-.246A.766.766,0,0,0,24.961-2.336Zm6.352-8.2v2.078h1.445V-6.8H31.313v4.219a1.007,1.007,0,0,0,.18.672.9.9,0,0,0,.688.2,3.6,3.6,0,0,0,.664-.055V-.047a4.648,4.648,0,0,1-1.367.2,2.156,2.156,0,0,1-2.422-2.4V-6.8H27.82V-8.453h1.234v-2.078ZM38.914,0a2.507,2.507,0,0,1-.227-.758,2.732,2.732,0,0,1-2.133.914A3,3,0,0,1,34.5-.562a2.312,2.312,0,0,1-.816-1.812,2.389,2.389,0,0,1,1-2.062,4.915,4.915,0,0,1,2.879-.727h1.039v-.484a1.393,1.393,0,0,0-.3-.937,1.183,1.183,0,0,0-.949-.352,1.345,1.345,0,0,0-.895.273.929.929,0,0,0-.324.75H33.867a2.268,2.268,0,0,1,.453-1.359,3,3,0,0,1,1.281-.98,4.669,4.669,0,0,1,1.859-.355,3.689,3.689,0,0,1,2.48.785,2.747,2.747,0,0,1,.918,2.207v3.664A4.041,4.041,0,0,0,41.2-.133V0ZM37.047-1.57a1.945,1.945,0,0,0,.922-.223,1.462,1.462,0,0,0,.625-.6V-3.844H37.75q-1.7,0-1.8,1.172l-.008.133a.9.9,0,0,0,.3.7A1.153,1.153,0,0,0,37.047-1.57Zm5.2-2.719a5.094,5.094,0,0,1,.887-3.148,2.877,2.877,0,0,1,2.426-1.172,2.589,2.589,0,0,1,2.039.922V-12h2.266V0H47.82l-.109-.9A2.657,2.657,0,0,1,45.539.156,2.869,2.869,0,0,1,43.145-1.02,5.258,5.258,0,0,1,42.242-4.289Zm2.258.164a3.328,3.328,0,0,0,.414,1.82,1.349,1.349,0,0,0,1.2.633,1.511,1.511,0,0,0,1.477-.883V-5.891a1.489,1.489,0,0,0-1.461-.883Q44.5-6.773,44.5-4.125Zm6.758-.18a5.013,5.013,0,0,1,.484-2.242A3.546,3.546,0,0,1,53.137-8.07a4.069,4.069,0,0,1,2.113-.539,3.849,3.849,0,0,1,2.793,1.047A4.2,4.2,0,0,1,59.25-4.719l.016.578A4.418,4.418,0,0,1,58.18-1.02,3.775,3.775,0,0,1,55.266.156a3.793,3.793,0,0,1-2.918-1.172A4.5,4.5,0,0,1,51.258-4.2Zm2.258.164a3.151,3.151,0,0,0,.453,1.84,1.5,1.5,0,0,0,1.3.637,1.5,1.5,0,0,0,1.281-.629A3.448,3.448,0,0,0,57.008-4.3a3.12,3.12,0,0,0-.461-1.828,1.5,1.5,0,0,0-1.3-.648,1.475,1.475,0,0,0-1.281.645A3.506,3.506,0,0,0,53.516-4.141Z" transform="translate(763 13033)" fill="#12263f"/><path d="M2.82-4.453V0H1.32V-11.375h4.2a4.215,4.215,0,0,1,2.926.953A3.231,3.231,0,0,1,9.5-7.9,3.189,3.189,0,0,1,8.465-5.348,4.4,4.4,0,0,1,5.5-4.453Zm0-1.227h2.7a2.7,2.7,0,0,0,1.844-.566A2.069,2.069,0,0,0,8-7.883a2.138,2.138,0,0,0-.641-1.625A2.528,2.528,0,0,0,5.6-10.141H2.82ZM15.273-7.156a4.331,4.331,0,0,0-.711-.055A1.9,1.9,0,0,0,12.633-6V0H11.188V-8.453h1.406l.023.977a2.251,2.251,0,0,1,2.016-1.133,1.477,1.477,0,0,1,.641.109ZM20.109.156a3.693,3.693,0,0,1-2.8-1.129,4.19,4.19,0,0,1-1.078-3.02v-.266a5.073,5.073,0,0,1,.48-2.246,3.748,3.748,0,0,1,1.344-1.547,3.378,3.378,0,0,1,1.871-.559,3.166,3.166,0,0,1,2.563,1.086,4.7,4.7,0,0,1,.914,3.109v.6H17.68a3,3,0,0,0,.73,2.02,2.3,2.3,0,0,0,1.777.77,2.517,2.517,0,0,0,1.3-.312,3.259,3.259,0,0,0,.93-.828l.883.688A3.55,3.55,0,0,1,20.109.156Zm-.18-7.578a1.928,1.928,0,0,0-1.469.637A3.1,3.1,0,0,0,17.727-5h4.234v-.109a2.753,2.753,0,0,0-.594-1.707A1.815,1.815,0,0,0,19.93-7.422ZM27.039-10.5v2.047h1.578v1.117H27.039v5.242a1.171,1.171,0,0,0,.211.762.888.888,0,0,0,.719.254,3.5,3.5,0,0,0,.688-.094V0a4.19,4.19,0,0,1-1.109.156A1.8,1.8,0,0,1,26.086-.43a2.517,2.517,0,0,1-.492-1.664V-7.336H24.055V-8.453h1.539V-10.5Zm6.875,6.2a4.952,4.952,0,0,1,.922-3.129A2.915,2.915,0,0,1,37.25-8.609,2.932,2.932,0,0,1,39.6-7.594V-12h1.445V0H39.719l-.07-.906A2.943,2.943,0,0,1,37.234.156a2.887,2.887,0,0,1-2.395-1.2,5.008,5.008,0,0,1-.926-3.141Zm1.445.164a3.749,3.749,0,0,0,.594,2.25,1.92,1.92,0,0,0,1.641.813A2.108,2.108,0,0,0,39.6-2.3V-6.187a2.125,2.125,0,0,0-1.992-1.2,1.929,1.929,0,0,0-1.656.82A4.128,4.128,0,0,0,35.359-4.133ZM46.8.156A3.693,3.693,0,0,1,44-.973a4.19,4.19,0,0,1-1.078-3.02v-.266A5.073,5.073,0,0,1,43.4-6.5a3.748,3.748,0,0,1,1.344-1.547,3.378,3.378,0,0,1,1.871-.559A3.166,3.166,0,0,1,49.18-7.523a4.7,4.7,0,0,1,.914,3.109v.6H44.367a3,3,0,0,0,.73,2.02,2.3,2.3,0,0,0,1.777.77,2.517,2.517,0,0,0,1.3-.312,3.259,3.259,0,0,0,.93-.828l.883.688A3.55,3.55,0,0,1,46.8.156Zm-.18-7.578a1.928,1.928,0,0,0-1.469.637A3.1,3.1,0,0,0,44.414-5h4.234v-.109a2.753,2.753,0,0,0-.594-1.707A1.815,1.815,0,0,0,46.617-7.422ZM53.336,0H51.891V-12h1.445Z" transform="translate(549 13095)" fill="#12263f"/><path d="M2.82-4.453V0H1.32V-11.375h4.2a4.215,4.215,0,0,1,2.926.953A3.231,3.231,0,0,1,9.5-7.9,3.189,3.189,0,0,1,8.465-5.348,4.4,4.4,0,0,1,5.5-4.453Zm0-1.227h2.7a2.7,2.7,0,0,0,1.844-.566A2.069,2.069,0,0,0,8-7.883a2.138,2.138,0,0,0-.641-1.625A2.528,2.528,0,0,0,5.6-10.141H2.82ZM15.273-7.156a4.331,4.331,0,0,0-.711-.055A1.9,1.9,0,0,0,12.633-6V0H11.188V-8.453h1.406l.023.977a2.251,2.251,0,0,1,2.016-1.133,1.477,1.477,0,0,1,.641.109ZM20.109.156a3.693,3.693,0,0,1-2.8-1.129,4.19,4.19,0,0,1-1.078-3.02v-.266a5.073,5.073,0,0,1,.48-2.246,3.748,3.748,0,0,1,1.344-1.547,3.378,3.378,0,0,1,1.871-.559,3.166,3.166,0,0,1,2.563,1.086,4.7,4.7,0,0,1,.914,3.109v.6H17.68a3,3,0,0,0,.73,2.02,2.3,2.3,0,0,0,1.777.77,2.517,2.517,0,0,0,1.3-.312,3.259,3.259,0,0,0,.93-.828l.883.688A3.55,3.55,0,0,1,20.109.156Zm-.18-7.578a1.928,1.928,0,0,0-1.469.637A3.1,3.1,0,0,0,17.727-5h4.234v-.109a2.753,2.753,0,0,0-.594-1.707A1.815,1.815,0,0,0,19.93-7.422ZM27.039-10.5v2.047h1.578v1.117H27.039v5.242a1.171,1.171,0,0,0,.211.762.888.888,0,0,0,.719.254,3.5,3.5,0,0,0,.688-.094V0a4.19,4.19,0,0,1-1.109.156A1.8,1.8,0,0,1,26.086-.43a2.517,2.517,0,0,1-.492-1.664V-7.336H24.055V-8.453h1.539V-10.5ZM40.773-2.969H36.008L34.938,0H33.391l4.344-11.375h1.313L43.4,0H41.859ZM36.461-4.2h3.867l-1.937-5.32Zm9.609-4.25.047,1.063a3.08,3.08,0,0,1,2.531-1.219q2.68,0,2.7,3.023V0H49.906V-5.594a1.946,1.946,0,0,0-.418-1.352,1.675,1.675,0,0,0-1.277-.437,2.086,2.086,0,0,0-1.234.375,2.546,2.546,0,0,0-.828.984V0H44.7V-8.453ZM58.75,0a3.036,3.036,0,0,1-.2-.891A3.225,3.225,0,0,1,56.141.156,2.984,2.984,0,0,1,54.09-.551a2.287,2.287,0,0,1-.8-1.793,2.39,2.39,0,0,1,1-2.051,4.733,4.733,0,0,1,2.824-.73h1.406v-.664A1.623,1.623,0,0,0,58.07-7a1.821,1.821,0,0,0-1.336-.449,2.107,2.107,0,0,0-1.3.391,1.151,1.151,0,0,0-.523.945H53.461a2,2,0,0,1,.449-1.223,3.066,3.066,0,0,1,1.219-.934,4.1,4.1,0,0,1,1.691-.344,3.342,3.342,0,0,1,2.289.73,2.635,2.635,0,0,1,.859,2.012v3.891a4.757,4.757,0,0,0,.3,1.852V0Zm-2.4-1.1a2.54,2.54,0,0,0,1.289-.352,2.127,2.127,0,0,0,.883-.914V-4.1H57.391q-2.656,0-2.656,1.555a1.316,1.316,0,0,0,.453,1.063A1.742,1.742,0,0,0,56.352-1.1ZM64.2-10.5v2.047h1.578v1.117H64.2v5.242a1.171,1.171,0,0,0,.211.762.888.888,0,0,0,.719.254,3.5,3.5,0,0,0,.688-.094V0A4.19,4.19,0,0,1,64.7.156,1.8,1.8,0,0,1,63.242-.43a2.517,2.517,0,0,1-.492-1.664V-7.336H61.211V-8.453H62.75V-10.5Zm3.3,9.742a.905.905,0,0,1,.223-.625.848.848,0,0,1,.668-.25.874.874,0,0,1,.676.25.887.887,0,0,1,.23.625.839.839,0,0,1-.23.6.89.89,0,0,1-.676.242.863.863,0,0,1-.668-.242A.855.855,0,0,1,67.492-.758Z" transform="translate(603 13347)" fill="#12263f"/><path d="M2.82-4.453V0H1.32V-11.375h4.2a4.215,4.215,0,0,1,2.926.953A3.231,3.231,0,0,1,9.5-7.9,3.189,3.189,0,0,1,8.465-5.348,4.4,4.4,0,0,1,5.5-4.453Zm0-1.227h2.7a2.7,2.7,0,0,0,1.844-.566A2.069,2.069,0,0,0,8-7.883a2.138,2.138,0,0,0-.641-1.625A2.528,2.528,0,0,0,5.6-10.141H2.82ZM15.273-7.156a4.331,4.331,0,0,0-.711-.055A1.9,1.9,0,0,0,12.633-6V0H11.188V-8.453h1.406l.023.977a2.251,2.251,0,0,1,2.016-1.133,1.477,1.477,0,0,1,.641.109ZM20.109.156a3.693,3.693,0,0,1-2.8-1.129,4.19,4.19,0,0,1-1.078-3.02v-.266a5.073,5.073,0,0,1,.48-2.246,3.748,3.748,0,0,1,1.344-1.547,3.378,3.378,0,0,1,1.871-.559,3.166,3.166,0,0,1,2.563,1.086,4.7,4.7,0,0,1,.914,3.109v.6H17.68a3,3,0,0,0,.73,2.02,2.3,2.3,0,0,0,1.777.77,2.517,2.517,0,0,0,1.3-.312,3.259,3.259,0,0,0,.93-.828l.883.688A3.55,3.55,0,0,1,20.109.156Zm-.18-7.578a1.928,1.928,0,0,0-1.469.637A3.1,3.1,0,0,0,17.727-5h4.234v-.109a2.753,2.753,0,0,0-.594-1.707A1.815,1.815,0,0,0,19.93-7.422ZM27.039-10.5v2.047h1.578v1.117H27.039v5.242a1.171,1.171,0,0,0,.211.762.888.888,0,0,0,.719.254,3.5,3.5,0,0,0,.688-.094V0a4.19,4.19,0,0,1-1.109.156A1.8,1.8,0,0,1,26.086-.43a2.517,2.517,0,0,1-.492-1.664V-7.336H24.055V-8.453h1.539V-10.5ZM40.773-2.969H36.008L34.938,0H33.391l4.344-11.375h1.313L43.4,0H41.859ZM36.461-4.2h3.867l-1.937-5.32Zm9.609-4.25.047,1.063a3.08,3.08,0,0,1,2.531-1.219q2.68,0,2.7,3.023V0H49.906V-5.594a1.946,1.946,0,0,0-.418-1.352,1.675,1.675,0,0,0-1.277-.437,2.086,2.086,0,0,0-1.234.375,2.546,2.546,0,0,0-.828.984V0H44.7V-8.453ZM58.75,0a3.036,3.036,0,0,1-.2-.891A3.225,3.225,0,0,1,56.141.156,2.984,2.984,0,0,1,54.09-.551a2.287,2.287,0,0,1-.8-1.793,2.39,2.39,0,0,1,1-2.051,4.733,4.733,0,0,1,2.824-.73h1.406v-.664A1.623,1.623,0,0,0,58.07-7a1.821,1.821,0,0,0-1.336-.449,2.107,2.107,0,0,0-1.3.391,1.151,1.151,0,0,0-.523.945H53.461a2,2,0,0,1,.449-1.223,3.066,3.066,0,0,1,1.219-.934,4.1,4.1,0,0,1,1.691-.344,3.342,3.342,0,0,1,2.289.73,2.635,2.635,0,0,1,.859,2.012v3.891a4.757,4.757,0,0,0,.3,1.852V0Zm-2.4-1.1a2.54,2.54,0,0,0,1.289-.352,2.127,2.127,0,0,0,.883-.914V-4.1H57.391q-2.656,0-2.656,1.555a1.316,1.316,0,0,0,.453,1.063A1.742,1.742,0,0,0,56.352-1.1ZM64.2-10.5v2.047h1.578v1.117H64.2v5.242a1.171,1.171,0,0,0,.211.762.888.888,0,0,0,.719.254,3.5,3.5,0,0,0,.688-.094V0A4.19,4.19,0,0,1,64.7.156,1.8,1.8,0,0,1,63.242-.43a2.517,2.517,0,0,1-.492-1.664V-7.336H61.211V-8.453H62.75V-10.5Zm3.3,9.742a.905.905,0,0,1,.223-.625.848.848,0,0,1,.668-.25.874.874,0,0,1,.676.25.887.887,0,0,1,.23.625.839.839,0,0,1-.23.6.89.89,0,0,1-.676.242.863.863,0,0,1-.668-.242A.855.855,0,0,1,67.492-.758Z" transform="translate(699 13534)" fill="#12263f"/><path d="M2.82-4.453V0H1.32V-11.375h4.2a4.215,4.215,0,0,1,2.926.953A3.231,3.231,0,0,1,9.5-7.9,3.189,3.189,0,0,1,8.465-5.348,4.4,4.4,0,0,1,5.5-4.453Zm0-1.227h2.7a2.7,2.7,0,0,0,1.844-.566A2.069,2.069,0,0,0,8-7.883a2.138,2.138,0,0,0-.641-1.625A2.528,2.528,0,0,0,5.6-10.141H2.82ZM15.273-7.156a4.331,4.331,0,0,0-.711-.055A1.9,1.9,0,0,0,12.633-6V0H11.188V-8.453h1.406l.023.977a2.251,2.251,0,0,1,2.016-1.133,1.477,1.477,0,0,1,.641.109ZM20.109.156a3.693,3.693,0,0,1-2.8-1.129,4.19,4.19,0,0,1-1.078-3.02v-.266a5.073,5.073,0,0,1,.48-2.246,3.748,3.748,0,0,1,1.344-1.547,3.378,3.378,0,0,1,1.871-.559,3.166,3.166,0,0,1,2.563,1.086,4.7,4.7,0,0,1,.914,3.109v.6H17.68a3,3,0,0,0,.73,2.02,2.3,2.3,0,0,0,1.777.77,2.517,2.517,0,0,0,1.3-.312,3.259,3.259,0,0,0,.93-.828l.883.688A3.55,3.55,0,0,1,20.109.156Zm-.18-7.578a1.928,1.928,0,0,0-1.469.637A3.1,3.1,0,0,0,17.727-5h4.234v-.109a2.753,2.753,0,0,0-.594-1.707A1.815,1.815,0,0,0,19.93-7.422ZM27.039-10.5v2.047h1.578v1.117H27.039v5.242a1.171,1.171,0,0,0,.211.762.888.888,0,0,0,.719.254,3.5,3.5,0,0,0,.688-.094V0a4.19,4.19,0,0,1-1.109.156A1.8,1.8,0,0,1,26.086-.43a2.517,2.517,0,0,1-.492-1.664V-7.336H24.055V-8.453h1.539V-10.5ZM31.875,0H30.43V-8.453h1.445ZM30.313-10.7a.863.863,0,0,1,.215-.594.807.807,0,0,1,.637-.242.819.819,0,0,1,.641.242.854.854,0,0,1,.219.594.826.826,0,0,1-.219.586.834.834,0,0,1-.641.234.821.821,0,0,1-.637-.234A.834.834,0,0,1,30.313-10.7Zm5.242,2.242L35.6-7.391a3.08,3.08,0,0,1,2.531-1.219q2.68,0,2.7,3.023V0H39.391V-5.594a1.946,1.946,0,0,0-.418-1.352A1.675,1.675,0,0,0,37.7-7.383a2.086,2.086,0,0,0-1.234.375,2.546,2.546,0,0,0-.828.984V0H34.188V-8.453ZM48.234,0a3.036,3.036,0,0,1-.2-.891A3.225,3.225,0,0,1,45.625.156a2.984,2.984,0,0,1-2.051-.707,2.287,2.287,0,0,1-.8-1.793,2.39,2.39,0,0,1,1-2.051,4.733,4.733,0,0,1,2.824-.73h1.406v-.664A1.623,1.623,0,0,0,47.555-7a1.821,1.821,0,0,0-1.336-.449,2.107,2.107,0,0,0-1.3.391,1.151,1.151,0,0,0-.523.945H42.945a2,2,0,0,1,.449-1.223,3.066,3.066,0,0,1,1.219-.934A4.1,4.1,0,0,1,46.3-8.609a3.342,3.342,0,0,1,2.289.73,2.635,2.635,0,0,1,.859,2.012v3.891a4.757,4.757,0,0,0,.3,1.852V0Zm-2.4-1.1a2.54,2.54,0,0,0,1.289-.352,2.127,2.127,0,0,0,.883-.914V-4.1H46.875q-2.656,0-2.656,1.555a1.316,1.316,0,0,0,.453,1.063A1.742,1.742,0,0,0,45.836-1.1ZM62.82-4.133a5.062,5.062,0,0,1-.883,3.109A2.829,2.829,0,0,1,59.547.156,3.1,3.1,0,0,1,57.125-.82V3.25H55.68v-11.7H57l.07.938a2.977,2.977,0,0,1,2.453-1.094,2.882,2.882,0,0,1,2.41,1.148,5.117,5.117,0,0,1,.887,3.2ZM61.375-4.3a3.735,3.735,0,0,0-.609-2.258,1.963,1.963,0,0,0-1.672-.828,2.125,2.125,0,0,0-1.969,1.164V-2.18a2.129,2.129,0,0,0,1.984,1.156,1.954,1.954,0,0,0,1.652-.824A4.077,4.077,0,0,0,61.375-4.3Zm2.9-.008a4.993,4.993,0,0,1,.488-2.234A3.643,3.643,0,0,1,66.121-8.07a3.7,3.7,0,0,1,1.988-.539,3.565,3.565,0,0,1,2.793,1.2,4.6,4.6,0,0,1,1.066,3.18v.1A5.036,5.036,0,0,1,71.5-1.918,3.589,3.589,0,0,1,70.145-.391a3.743,3.743,0,0,1-2.02.547,3.556,3.556,0,0,1-2.785-1.2A4.575,4.575,0,0,1,64.273-4.2Zm1.453.172a3.616,3.616,0,0,0,.652,2.258,2.088,2.088,0,0,0,1.746.852,2.075,2.075,0,0,0,1.75-.863A3.955,3.955,0,0,0,70.523-4.3a3.61,3.61,0,0,0-.66-2.254,2.1,2.1,0,0,0-1.754-.863,2.075,2.075,0,0,0-1.727.852A3.925,3.925,0,0,0,65.727-4.133ZM78.7-2.242a1.064,1.064,0,0,0-.441-.91,4.249,4.249,0,0,0-1.539-.559,7.277,7.277,0,0,1-1.742-.562,2.479,2.479,0,0,1-.953-.781,1.869,1.869,0,0,1-.309-1.078A2.193,2.193,0,0,1,74.6-7.891a3.432,3.432,0,0,1,2.246-.719,3.532,3.532,0,0,1,2.332.742,2.357,2.357,0,0,1,.895,1.9H78.617a1.3,1.3,0,0,0-.5-1.023,1.888,1.888,0,0,0-1.27-.43,1.976,1.976,0,0,0-1.234.344,1.082,1.082,0,0,0-.445.9.877.877,0,0,0,.414.789,5.1,5.1,0,0,0,1.5.508,7.8,7.8,0,0,1,1.754.578,2.558,2.558,0,0,1,1,.809,1.988,1.988,0,0,1,.324,1.152,2.163,2.163,0,0,1-.906,1.816,3.8,3.8,0,0,1-2.352.684,4.257,4.257,0,0,1-1.8-.359,2.922,2.922,0,0,1-1.223-1A2.42,2.42,0,0,1,73.43-2.6h1.445a1.5,1.5,0,0,0,.582,1.152,2.258,2.258,0,0,0,1.434.426,2.331,2.331,0,0,0,1.316-.332A1.02,1.02,0,0,0,78.7-2.242Z" transform="translate(957 13095)" fill="#12263f"/><g transform="translate(-995.997 12672.786)"><path d="M1404.257,367.917l-4.911,68.752s199.781,20.76,357.151-4.018l-10.715-67.635S1576.359,391.578,1404.257,367.917Z" transform="translate(2.419 9.43)" fill="none" stroke="#454545" stroke-miterlimit="10" stroke-width="1"/><circle cx="2.096" cy="2.096" r="2.096" transform="translate(1404.413 375.394)" fill="#454545"/><circle cx="2.096" cy="2.096" r="2.096" transform="translate(1745.85 372.35)" fill="#454545"/><circle cx="2.096" cy="2.096" r="2.096" transform="translate(1830.478 374.446)" fill="#454545"/><circle cx="2.096" cy="2.096" r="2.096" transform="translate(1811.731 441.721)" fill="#454545"/><circle cx="2.096" cy="2.096" r="2.096" transform="translate(1947.351 464.811)" fill="#454545"/><circle cx="2.096" cy="2.096" r="2.096" transform="translate(2076.078 439.145)" fill="#454545"/><circle cx="2.096" cy="2.096" r="2.096" transform="translate(2187.22 370.296)" fill="#454545"/><circle cx="2.096" cy="2.096" r="2.096" transform="translate(2150.863 312.97)" fill="#454545"/><circle cx="2.096" cy="2.096" r="2.096" transform="translate(2051.453 376.065)" fill="#454545"/><circle cx="2.096" cy="2.096" r="2.096" transform="translate(1947.351 394.473)" fill="#454545"/><circle cx="2.096" cy="2.096" r="2.096" transform="translate(1399.669 443.755)" fill="#454545"/><circle cx="2.096" cy="2.096" r="2.096" transform="translate(1468.225 449.112)" fill="#454545"/><circle cx="2.096" cy="2.096" r="2.096" transform="translate(1756.819 439.626)" fill="#454545"/><path d="M2087.489,314.559s36.608,59.2,36.608,57.5-89.623,83.794-208.933,93.839c-65.292,5.5-166.967-22.372-166.967-22.372l18.75-67.275s97.77,33.73,183.151,14C2021.954,373.653,2087.489,314.559,2087.489,314.559Z" transform="translate(65.63 0.288)" fill="none" stroke="#454545" stroke-miterlimit="10" stroke-width="1"/><g transform="translate(1385.997 466.296)"><circle cx="2.096" cy="2.096" r="2.096" transform="translate(17.439 110.612)" fill="#454545"/><circle cx="2.096" cy="2.096" r="2.096" transform="translate(0 188.191)" fill="#454545"/><circle cx="2.096" cy="2.096" r="2.096" transform="translate(79.486 206.272)" fill="#454545"/><circle cx="2.096" cy="2.096" r="2.096" transform="translate(414.349 249.327)" fill="#454545"/><circle cx="2.096" cy="2.096" r="2.096" transform="translate(573.951 235.488)" fill="#454545"/><circle cx="2.096" cy="2.096" r="2.096" transform="translate(710.912 165.753)" fill="#454545"/><circle cx="2.096" cy="2.096" r="2.096" transform="translate(663.223 102.972)" fill="#454545"/><circle cx="2.096" cy="2.096" r="2.096" transform="translate(757.401)" fill="#454545"/><circle cx="2.096" cy="2.096" r="2.096" transform="translate(815.473 54.828)" fill="#454545"/><circle cx="2.096" cy="2.096" r="2.096" transform="translate(552.271 156.065)" fill="#454545"/><circle cx="2.096" cy="2.096" r="2.096" transform="translate(414.349 169.961)" fill="#454545"/><path d="M2145.32,444.37l58.26,54.912s-96.765,146.99-241.411,180.473-389.74-.67-452.687-18.081-121.71-28.8-121.71-28.8l17.579-77.848s232.034,63.115,396.1,59.767S2043.2,586,2145.32,444.37Z" transform="translate(-1385.676 -442.487)" fill="none" stroke="#454545" stroke-miterlimit="10" stroke-width="1"/><path d="M1734.566,602.354v46.764l4.717-7.255" transform="translate(-1322.837 -413.86)" fill="none" stroke="#454545" stroke-miterlimit="10" stroke-width="1"/></g><g transform="translate(1388.093 676.797)"><path d="M2152.364,622.535l50.895,46.542s-69.051,125.108-214.179,162.28c-163.842,41.964-474.563-33.037-511.394-41.742s-88.14-24.107-88.14-24.107l18.5-68.639s247.084,75.112,436.838,75.112C2034.17,771.98,2081.047,715.283,2152.364,622.535Z" transform="translate(-1387.45 -620.704)" fill="none" stroke="#454545" stroke-miterlimit="10" stroke-width="1"/><circle cx="2.096" cy="2.096" r="2.096" transform="translate(18.217 74.262)" fill="#454545"/><circle cx="2.096" cy="2.096" r="2.096" transform="translate(103.869 97.031)" fill="#454545"/><circle cx="2.096" cy="2.096" r="2.096" transform="translate(87.574 166.675)" fill="#454545"/><circle cx="2.096" cy="2.096" r="2.096" transform="translate(157.729 182.297)" fill="#454545"/><circle cx="2.096" cy="2.096" r="2.096" transform="translate(457.133 221.225)" fill="#454545"/><circle cx="2.096" cy="2.096" r="2.096" transform="translate(600.539 208.222)" fill="#454545"/><circle cx="2.096" cy="2.096" r="2.096" transform="translate(580.951 137.294)" fill="#454545"/><circle cx="2.096" cy="2.096" r="2.096" transform="translate(722.999 146.949)" fill="#454545"/><circle cx="2.096" cy="2.096" r="2.096" transform="translate(679.899 90.958)" fill="#454545"/><circle cx="2.096" cy="2.096" r="2.096" transform="translate(813.712 46.357)" fill="#454545"/><circle cx="2.096" cy="2.096" r="2.096" transform="translate(762.751)" fill="#454545"/><circle cx="2.096" cy="2.096" r="2.096" transform="translate(457.133 149.46)" fill="#454545"/><circle cx="2.096" cy="2.096" r="2.096" transform="translate(0 142.757)" fill="#454545"/><line x1="16.295" y2="69.644" transform="translate(89.67 99.127)" fill="none" stroke="#454545" stroke-miterlimit="10" stroke-width="1" stroke-dasharray="2"/><path d="M1773.709,761.575v41.686l2.344-5.525" transform="translate(-1317.84 -595.511)" fill="none" stroke="#454545" stroke-miterlimit="10" stroke-width="1"/></g></g><rect width="820" height="635" transform="translate(390 12977)" fill="none"/></g></svg>