<svg xmlns="http://www.w3.org/2000/svg" width="609" height="238.65" viewBox="0 0 609 238.65"><g transform="translate(-1821.031 5630.126)"><path d="M1821.031-5391.476v-238.65h609v238.65" fill="#fff"/><path d="M1881.146-5510.061" fill="none" stroke="#7a1c47" stroke-linecap="round" stroke-linejoin="round" stroke-width="1.926"/><path d="M2006.3-5515.128h304.163l-28.15-13.252" fill="none" stroke="#7a1c47" stroke-miterlimit="10" stroke-width="1.863"/><circle cx="2.718" cy="2.718" r="2.718" transform="translate(2413.138 -5577.633)" fill="#7a1c47"/><circle cx="2.718" cy="2.718" r="2.718" transform="translate(2141.603 -5577.633)" fill="#7a1c47"/><circle cx="2.718" cy="2.718" r="2.718" transform="translate(1904.524 -5608.341)" fill="#7a1c47"/><circle cx="2.718" cy="2.718" r="2.718" transform="translate(1833.875 -5511.662)" fill="#7a1c47"/><circle cx="2.718" cy="2.718" r="2.718" transform="translate(2086.583 -5458.059)" fill="#7a1c47"/><circle cx="1.691" cy="1.691" r="1.691" transform="translate(2078.379 -5580.718)" fill="#7a1c47"/><circle cx="1.691" cy="1.691" r="1.691" transform="translate(1892.938 -5605.624)" fill="#7a1c47"/><circle cx="1.691" cy="1.691" r="1.691" transform="translate(1833.714 -5523.979)" fill="#7a1c47"/><circle cx="2.718" cy="2.718" r="2.718" transform="translate(2413.138 -5458.059)" fill="#7a1c47"/><path d="M1.32,0V-11.375H5.039a4.317,4.317,0,0,1,2.785.766,2.759,2.759,0,0,1,.934,2.266A2.31,2.31,0,0,1,8.3-6.934a2.937,2.937,0,0,1-1.234.949A2.638,2.638,0,0,1,8.527-5a2.814,2.814,0,0,1,.535,1.723A3.042,3.042,0,0,1,8.07-.875,4.1,4.1,0,0,1,5.266,0Zm1.5-5.32v4.094H5.3A2.385,2.385,0,0,0,6.949-1.77a1.907,1.907,0,0,0,.605-1.5q0-2.055-2.234-2.055Zm0-1.2H5.086A2.378,2.378,0,0,0,6.66-7.016a1.649,1.649,0,0,0,.59-1.336A1.621,1.621,0,0,0,6.7-9.715a2.69,2.69,0,0,0-1.664-.426H2.82ZM16.273,0a3.036,3.036,0,0,1-.2-.891A3.225,3.225,0,0,1,13.664.156a2.984,2.984,0,0,1-2.051-.707,2.287,2.287,0,0,1-.8-1.793,2.39,2.39,0,0,1,1-2.051,4.733,4.733,0,0,1,2.824-.73h1.406v-.664A1.623,1.623,0,0,0,15.594-7a1.821,1.821,0,0,0-1.336-.449,2.107,2.107,0,0,0-1.3.391,1.151,1.151,0,0,0-.523.945H10.984a2,2,0,0,1,.449-1.223,3.066,3.066,0,0,1,1.219-.934,4.1,4.1,0,0,1,1.691-.344,3.342,3.342,0,0,1,2.289.73,2.635,2.635,0,0,1,.859,2.012v3.891a4.757,4.757,0,0,0,.3,1.852V0Zm-2.4-1.1a2.54,2.54,0,0,0,1.289-.352,2.127,2.127,0,0,0,.883-.914V-4.1H14.914q-2.656,0-2.656,1.555a1.316,1.316,0,0,0,.453,1.063A1.742,1.742,0,0,0,13.875-1.1Zm7.25-7.352.047,1.063A3.08,3.08,0,0,1,23.7-8.609q2.68,0,2.7,3.023V0H24.961V-5.594a1.946,1.946,0,0,0-.418-1.352,1.675,1.675,0,0,0-1.277-.437,2.086,2.086,0,0,0-1.234.375,2.546,2.546,0,0,0-.828.984V0H19.758V-8.453ZM28.234-4.3a4.952,4.952,0,0,1,.922-3.129A2.915,2.915,0,0,1,31.57-8.609a2.932,2.932,0,0,1,2.352,1.016V-12h1.445V0H34.039l-.07-.906A2.943,2.943,0,0,1,31.555.156a2.887,2.887,0,0,1-2.395-1.2,5.008,5.008,0,0,1-.926-3.141Zm1.445.164a3.749,3.749,0,0,0,.594,2.25,1.92,1.92,0,0,0,1.641.813A2.108,2.108,0,0,0,33.922-2.3V-6.187a2.125,2.125,0,0,0-1.992-1.2,1.929,1.929,0,0,0-1.656.82A4.128,4.128,0,0,0,29.68-4.133ZM42.828,0a3.036,3.036,0,0,1-.2-.891A3.225,3.225,0,0,1,40.219.156a2.984,2.984,0,0,1-2.051-.707,2.287,2.287,0,0,1-.8-1.793,2.39,2.39,0,0,1,1-2.051,4.733,4.733,0,0,1,2.824-.73H42.6v-.664A1.623,1.623,0,0,0,42.148-7a1.821,1.821,0,0,0-1.336-.449,2.107,2.107,0,0,0-1.3.391,1.151,1.151,0,0,0-.523.945H37.539a2,2,0,0,1,.449-1.223,3.066,3.066,0,0,1,1.219-.934A4.1,4.1,0,0,1,40.9-8.609a3.342,3.342,0,0,1,2.289.73,2.635,2.635,0,0,1,.859,2.012v3.891a4.757,4.757,0,0,0,.3,1.852V0Zm-2.4-1.1a2.54,2.54,0,0,0,1.289-.352,2.127,2.127,0,0,0,.883-.914V-4.1H41.469q-2.656,0-2.656,1.555a1.316,1.316,0,0,0,.453,1.063A1.742,1.742,0,0,0,40.43-1.1Z" transform="translate(2135.768 -5498.489)" fill="#161615"/><path d="M-13.977-3.609A4.185,4.185,0,0,1-15.309-.824a4.365,4.365,0,0,1-2.98.98,4.008,4.008,0,0,1-3.23-1.445,5.815,5.815,0,0,1-1.215-3.867V-6.25a6.481,6.481,0,0,1,.566-2.789,4.231,4.231,0,0,1,1.605-1.848,4.47,4.47,0,0,1,2.406-.645A4.11,4.11,0,0,1-15.25-10.52a4.235,4.235,0,0,1,1.273,2.8h-1.508a3.254,3.254,0,0,0-.848-1.969,2.569,2.569,0,0,0-1.824-.609A2.685,2.685,0,0,0-20.41-9.234a4.875,4.875,0,0,0-.816,3.023v1.1a5.011,5.011,0,0,0,.773,2.945A2.5,2.5,0,0,0-18.289-1.07a2.886,2.886,0,0,0,1.918-.566,3.143,3.143,0,0,0,.887-1.973ZM-8.648.156a3.693,3.693,0,0,1-2.8-1.129,4.19,4.19,0,0,1-1.078-3.02v-.266a5.073,5.073,0,0,1,.48-2.246A3.748,3.748,0,0,1-10.7-8.051a3.378,3.378,0,0,1,1.871-.559A3.166,3.166,0,0,1-6.266-7.523a4.7,4.7,0,0,1,.914,3.109v.6h-5.727a3,3,0,0,0,.73,2.02,2.3,2.3,0,0,0,1.777.77,2.517,2.517,0,0,0,1.3-.312,3.259,3.259,0,0,0,.93-.828l.883.688A3.55,3.55,0,0,1-8.648.156Zm-.18-7.578a1.928,1.928,0,0,0-1.469.637A3.1,3.1,0,0,0-11.031-5H-6.8v-.109a2.753,2.753,0,0,0-.594-1.707A1.815,1.815,0,0,0-8.828-7.422Zm6.516-1.031.047,1.063A3.08,3.08,0,0,1,.266-8.609q2.68,0,2.7,3.023V0H1.523V-5.594a1.946,1.946,0,0,0-.418-1.352A1.675,1.675,0,0,0-.172-7.383a2.086,2.086,0,0,0-1.234.375,2.546,2.546,0,0,0-.828.984V0H-3.68V-8.453ZM7.109-10.5v2.047H8.688v1.117H7.109v5.242a1.171,1.171,0,0,0,.211.762.888.888,0,0,0,.719.254,3.5,3.5,0,0,0,.688-.094V0A4.19,4.19,0,0,1,7.617.156,1.8,1.8,0,0,1,6.156-.43a2.517,2.517,0,0,1-.492-1.664V-7.336H4.125V-8.453H5.664V-10.5Zm7.352,3.344a4.331,4.331,0,0,0-.711-.055A1.9,1.9,0,0,0,11.82-6V0H10.375V-8.453h1.406l.023.977A2.251,2.251,0,0,1,13.82-8.609a1.477,1.477,0,0,1,.641.109ZM15.25-4.3a4.993,4.993,0,0,1,.488-2.234A3.643,3.643,0,0,1,17.1-8.07a3.7,3.7,0,0,1,1.988-.539,3.565,3.565,0,0,1,2.793,1.2,4.6,4.6,0,0,1,1.066,3.18v.1a5.036,5.036,0,0,1-.473,2.215A3.589,3.589,0,0,1,21.121-.391,3.743,3.743,0,0,1,19.1.156a3.556,3.556,0,0,1-2.785-1.2A4.575,4.575,0,0,1,15.25-4.2Zm1.453.172a3.616,3.616,0,0,0,.652,2.258,2.088,2.088,0,0,0,1.746.852,2.075,2.075,0,0,0,1.75-.863A3.955,3.955,0,0,0,21.5-4.3a3.61,3.61,0,0,0-.66-2.254,2.1,2.1,0,0,0-1.754-.863,2.075,2.075,0,0,0-1.727.852A3.925,3.925,0,0,0,16.7-4.133ZM-11.836,16a3.036,3.036,0,0,1-.2-.891,3.225,3.225,0,0,1-2.406,1.047,2.984,2.984,0,0,1-2.051-.707,2.287,2.287,0,0,1-.8-1.793,2.39,2.39,0,0,1,1-2.051,4.733,4.733,0,0,1,2.824-.73h1.406v-.664A1.623,1.623,0,0,0-12.516,9a1.821,1.821,0,0,0-1.336-.449,2.107,2.107,0,0,0-1.3.391,1.151,1.151,0,0,0-.523.945h-1.453a2,2,0,0,1,.449-1.223,3.066,3.066,0,0,1,1.219-.934,4.1,4.1,0,0,1,1.691-.344,3.342,3.342,0,0,1,2.289.73,2.635,2.635,0,0,1,.859,2.012v3.891a4.757,4.757,0,0,0,.3,1.852V16Zm-2.4-1.1a2.54,2.54,0,0,0,1.289-.352,2.127,2.127,0,0,0,.883-.914V11.9H-13.2q-2.656,0-2.656,1.555a1.316,1.316,0,0,0,.453,1.063A1.742,1.742,0,0,0-14.234,14.9Zm7.844-9.4V7.547h1.578V8.664H-6.391v5.242a1.171,1.171,0,0,0,.211.762.888.888,0,0,0,.719.254,3.5,3.5,0,0,0,.688-.094V16a4.19,4.19,0,0,1-1.109.156,1.8,1.8,0,0,1-1.461-.586,2.517,2.517,0,0,1-.492-1.664V8.664H-9.375V7.547h1.539V5.5ZM.961,8.844A4.331,4.331,0,0,0,.25,8.789,1.9,1.9,0,0,0-1.68,10v6H-3.125V7.547h1.406l.023.977A2.251,2.251,0,0,1,.32,7.391,1.477,1.477,0,0,1,.961,7.5ZM7.508,16a3.036,3.036,0,0,1-.2-.891A3.225,3.225,0,0,1,4.9,16.156a2.984,2.984,0,0,1-2.051-.707,2.287,2.287,0,0,1-.8-1.793,2.39,2.39,0,0,1,1-2.051,4.733,4.733,0,0,1,2.824-.73H7.281v-.664A1.623,1.623,0,0,0,6.828,9a1.821,1.821,0,0,0-1.336-.449,2.107,2.107,0,0,0-1.3.391,1.151,1.151,0,0,0-.523.945H2.219a2,2,0,0,1,.449-1.223,3.066,3.066,0,0,1,1.219-.934,4.1,4.1,0,0,1,1.691-.344,3.342,3.342,0,0,1,2.289.73,2.635,2.635,0,0,1,.859,2.012v3.891a4.757,4.757,0,0,0,.3,1.852V16Zm-2.4-1.1A2.54,2.54,0,0,0,6.4,14.547a2.127,2.127,0,0,0,.883-.914V11.9H6.148q-2.656,0-2.656,1.555a1.316,1.316,0,0,0,.453,1.063A1.742,1.742,0,0,0,5.109,14.9ZM6.445,4H8.2L6.1,6.3H4.938Zm9.469,9.758a1.064,1.064,0,0,0-.441-.91,4.249,4.249,0,0,0-1.539-.559,7.277,7.277,0,0,1-1.742-.562,2.479,2.479,0,0,1-.953-.781,1.869,1.869,0,0,1-.309-1.078,2.193,2.193,0,0,1,.879-1.758,3.432,3.432,0,0,1,2.246-.719,3.532,3.532,0,0,1,2.332.742,2.357,2.357,0,0,1,.895,1.9H15.828a1.3,1.3,0,0,0-.5-1.023,1.888,1.888,0,0,0-1.27-.43,1.976,1.976,0,0,0-1.234.344,1.082,1.082,0,0,0-.445.9.877.877,0,0,0,.414.789,5.1,5.1,0,0,0,1.5.508,7.8,7.8,0,0,1,1.754.578,2.558,2.558,0,0,1,1,.809,1.988,1.988,0,0,1,.324,1.152,2.163,2.163,0,0,1-.906,1.816,3.8,3.8,0,0,1-2.352.684,4.257,4.257,0,0,1-1.8-.359,2.922,2.922,0,0,1-1.223-1,2.42,2.42,0,0,1-.441-1.395h1.445a1.5,1.5,0,0,0,.582,1.152,2.258,2.258,0,0,0,1.434.426,2.331,2.331,0,0,0,1.316-.332A1.02,1.02,0,0,0,15.914,13.758Z" transform="translate(2386.691 -5518.452)" fill="#161615"/><path d="M2144.321-5574.915c-97.7-4.279-179.5-18.341-209.935-26.429s-39.757-2.589-39.757-2.589c-69.369,27.3-58.036,94.989-58.036,94.989s18.562,9.3,54.136,22.183l.508.183q1.624.588,3.295,1.184l.406.145q5.868,2.093,12.3,4.29v0q13.9,4.742,30.434,9.851c40.83,12.537,89.084,15.306,120,15.593v.173h358.175v-119.575Z" fill="none" stroke="#7a1c47" stroke-miterlimit="10" stroke-width="1.863"/></g></svg>