<svg xmlns="http://www.w3.org/2000/svg" xmlns:xlink="http://www.w3.org/1999/xlink" width="505" height="245" viewBox="0 0 505 245"><defs><clipPath id="a"><rect width="505" height="245" transform="translate(810 26376)" fill="#fff"/></clipPath></defs><g transform="translate(-810 -26376)" clip-path="url(#a)"><g transform="translate(99 -49.634)"><g transform="translate(711 26412)"><path d="M-239.457-3925.087" transform="translate(550.924 4267.933)" fill="none"/><path d="M-119.986-4346.882l-110.374,109.24H-461.693l18.9-20.79" transform="translate(624.986 4408.5)" fill="none" stroke="#7a1c47" stroke-miterlimit="10" stroke-width="2"/><path d="M-393.321-4206.09l-38.177,38.178s11.151-14.743-1.89-20.034h-49.139s-21.735-6.047-18.711-38.177,21.545-31.185,21.545-31.185h226.482s17.513,4.158,17.513,24.947-7.938,24.57-7.938,24.57" transform="translate(638.261 4378.65)" fill="none" stroke="#7a1c47" stroke-miterlimit="10" stroke-width="2"/><path d="M-434.95-4255.323l-25.326,27.026h223.331l13.345-13.513" transform="translate(624.514 4377.987)" fill="none" stroke="#7a1c47" stroke-miterlimit="10" stroke-width="2"/><path d="M-368.46-4426.253c.252-.5-117.447,117.7-117.447,117.7" transform="translate(633.056 4434.952)" fill="none" stroke="#7a1c47" stroke-miterlimit="10" stroke-width="2"/><path d="M-515.719-4420.583l-190.887,198.258h206.763" transform="translate(706.606 4433.062)" fill="none" stroke="#7a1c47" stroke-miterlimit="10" stroke-width="2"/><g transform="translate(365.277 0)"><rect width="4.001" height="2" transform="matrix(0.698, -0.716, 0.716, 0.698, 122.606, 2.864)" fill="#4c4c4c"/><path d="M-145.981-4193.705h-2v-7.906h2Zm0-15.812h-2v-7.906h2Zm0-15.812h-2v-7.906h2Zm0-15.812h-2v-7.905h2Zm0-15.812h-2v-7.906h2Zm0-15.812h-2v-7.906h2Zm0-15.812h-2v-7.905h2Zm0-15.812h-2v-7.906h2Zm4.476-13.177-1.432-1.4,5.519-5.66,1.432,1.4Zm11.038-11.321-1.432-1.4,5.519-5.66,1.432,1.4Zm11.039-11.321-1.432-1.4,5.519-5.66,1.432,1.4Zm11.039-11.321-1.432-1.4,5.519-5.66,1.433,1.4Zm11.038-11.321-1.432-1.4,5.519-5.66,1.433,1.4Zm11.039-11.322-1.432-1.4,5.519-5.659,1.432,1.4Zm11.038-11.321-1.432-1.4,5.519-5.66,1.432,1.4Zm11.039-11.322-1.432-1.4,5.519-5.66,1.432,1.4Zm11.038-11.321-1.432-1.4,5.519-5.66,1.432,1.4Zm11.038-11.321-1.432-1.4,5.519-5.661,1.433,1.4Z" transform="translate(155.161 4435.038)" fill="#4c4c4c"/><rect width="2" height="4" transform="translate(7.18 249.238)" fill="#4c4c4c"/><g transform="translate(0 245.247)"><path d="M-158.75-4070.1l1.465-1.365,6.714,7.225,6.716-7.225,1.465,1.365-8.181,8.8Z" transform="translate(158.75 4071.469)" fill="#4c4c4c"/></g></g><g transform="translate(178.926 0)"><rect width="4.001" height="2" transform="matrix(0.698, -0.716, 0.716, 0.698, 122.606, 2.864)" fill="#4c4c4c"/><path d="M-425.476-4193.705h-2v-7.906h2Zm0-15.812h-2v-7.906h2Zm0-15.812h-2v-7.905h2Zm0-15.812h-2v-7.905h2Zm0-15.812h-2v-7.906h2Zm0-15.812h-2v-7.905h2Zm0-15.812h-2v-7.905h2Zm0-15.812h-2v-7.906h2Zm4.475-13.177-1.432-1.4,5.519-5.66,1.432,1.4Zm11.039-11.321-1.433-1.4,5.519-5.661,1.433,1.4Zm11.039-11.321-1.433-1.4,5.519-5.661,1.433,1.4Zm11.038-11.321-1.433-1.4,5.519-5.661,1.433,1.4Zm11.038-11.321-1.432-1.4,5.519-5.661,1.432,1.4Zm11.039-11.321-1.432-1.4,5.519-5.66,1.432,1.4Zm11.038-11.321-1.432-1.4,5.519-5.661,1.432,1.4Zm11.039-11.321-1.433-1.4,5.519-5.661,1.433,1.4Zm11.039-11.322-1.433-1.4,5.519-5.661,1.433,1.4Zm11.037-11.321-1.432-1.4,5.519-5.661,1.433,1.4Z" transform="translate(434.657 4435.038)" fill="#4c4c4c"/><rect width="2" height="4" transform="translate(7.181 249.238)" fill="#4c4c4c"/><g transform="translate(0 245.247)"><path d="M-438.246-4070.1l1.465-1.365,6.714,7.225,6.716-7.225,1.465,1.365-8.181,8.8Z" transform="translate(438.246 4071.469)" fill="#4c4c4c"/></g></g></g></g></g></svg>