<svg xmlns="http://www.w3.org/2000/svg" width="610" height="714" viewBox="0 0 610 714"><g transform="translate(-6849 -8164)"><rect width="610" height="714" transform="translate(6849 8164)" fill="#fff"/><g transform="translate(7563.688 9042.4)"><path d="M-625-828.186l89.1,2.165,53.389,1.8v119.4s2.165,25.612,27.774,29.219l-.127,207.441,20.833,261.921s-45.994,12.084-117.478,12.084c-69.473,0-116.549-14.249-116.549-14.249l23.448-258.8s5.9-205.145,5.9-210.557S-625-828.186-625-828.186Z" transform="translate(-0.142 -1.024)" fill="none" stroke="#636262" stroke-miterlimit="10" stroke-width="2"/><path d="M-542.817-692.973v371.737l5.321-11.228" transform="translate(-5.848 -7.184)" fill="none" stroke="#636262" stroke-miterlimit="10" stroke-width="2"/><line y2="127.607" transform="translate(-548.665 -322.919)" fill="none" stroke="#636262" stroke-miterlimit="10" stroke-width="2"/><circle cx="2.984" cy="2.984" r="2.984" transform="translate(-627.826 -832.186)" fill="#636262"/><circle cx="2.984" cy="2.984" r="2.984" transform="translate(-538.747 -830.293)" fill="#636262"/><circle cx="2.984" cy="2.984" r="2.984" transform="translate(-526.167 -830.293)" fill="#636262"/><circle cx="2.984" cy="2.984" r="2.984" transform="translate(-515.006 -829.21)" fill="#636262"/><circle cx="2.984" cy="2.984" r="2.984" transform="translate(-486.328 -827.992)" fill="#636262"/><circle cx="2.984" cy="2.984" r="2.984" transform="translate(-398.411 -832.953)" fill="#636262"/><circle cx="2.984" cy="2.984" r="2.984" transform="translate(-327.865 -841.001)" fill="#636262"/><circle cx="2.984" cy="2.984" r="2.984" transform="translate(-319.071 -841.88)" fill="#636262"/><circle cx="2.984" cy="2.984" r="2.984" transform="translate(-312.668 -783.532)" fill="#636262"/><circle cx="2.984" cy="2.984" r="2.984" transform="translate(-276.948 -787.68)" fill="#636262"/><circle cx="2.984" cy="2.984" r="2.984" transform="translate(-348.104 -779.564)" fill="#636262"/><circle cx="2.984" cy="2.984" r="2.984" transform="translate(-310.144 -842.489)" fill="#636262"/><circle cx="2.984" cy="2.984" r="2.984" transform="translate(-239.461 -850.674)" fill="#636262"/><circle cx="2.984" cy="2.984" r="2.984" transform="translate(-225.799 -704.688)" fill="#636262"/><circle cx="2.984" cy="2.984" r="2.984" transform="translate(-378.029 -680.745)" fill="#636262"/><circle cx="2.984" cy="2.984" r="2.984" transform="translate(-385.357 -472.166)" fill="#636262"/><circle cx="2.984" cy="2.984" r="2.984" transform="translate(-351.086 -202.26)" fill="#636262"/><circle cx="2.984" cy="2.984" r="2.984" transform="translate(-206.319 -202.148)" fill="#636262"/><circle cx="2.984" cy="2.984" r="2.984" transform="translate(-277.204 -197.664)" fill="#636262"/><circle cx="2.984" cy="2.984" r="2.984" transform="translate(-165.827 -472.166)" fill="#636262"/><circle cx="2.984" cy="2.984" r="2.984" transform="translate(-209.16 -686.967)" fill="#636262"/><circle cx="2.984" cy="2.984" r="2.984" transform="translate(-170.133 -675.266)" fill="#636262"/><circle cx="2.984" cy="2.984" r="2.984" transform="translate(-484.772 -709.332)" fill="#636262"/><circle cx="2.984" cy="2.984" r="2.984" transform="translate(-457.857 -679.843)" fill="#636262"/><circle cx="2.984" cy="2.984" r="2.984" transform="translate(-641.832 -679.843)" fill="#636262"/><circle cx="2.984" cy="2.984" r="2.984" transform="translate(-551.648 -607.414)" fill="#636262"/><circle cx="2.984" cy="2.984" r="2.984" transform="translate(-457.879 -471.211)" fill="#636262"/><circle cx="2.984" cy="2.984" r="2.984" transform="translate(-647.693 -471.211)" fill="#636262"/><circle cx="2.984" cy="2.984" r="2.984" transform="translate(-437.154 -210.377)" fill="#636262"/><circle cx="2.984" cy="2.984" r="2.984" transform="translate(-551.648 -198.16)" fill="#636262"/><circle cx="2.984" cy="2.984" r="2.984" transform="translate(-671.181 -213.037)" fill="#636262"/><g transform="translate(-577.287 -587.289)" style="isolation:isolate"><text transform="translate(4.134 0) rotate(90)" font-size="15" font-family="Roboto-Regular, Roboto" style="isolation:isolate"><tspan x="0" y="0">Pernera del</tspan></text></g><g transform="translate(-257.812 -556.404)" style="isolation:isolate"><text transform="translate(4.134 0) rotate(90)" font-size="15" font-family="Roboto-Regular, Roboto" style="isolation:isolate"><tspan x="0" y="0">Pernera pos</tspan></text></g><path d="M-382.769-830.164l159.084-17.675L-209.977-702.6s2.525,23.4,56.816,30.437c0,0-22.99,24.932,3.011,201.783l15.692,262.344s-51.947,13.482-127.1,13.482c-79.056,0-131.767-14.2-131.767-14.2l23.762-260.3,7.36-207.675Z" transform="translate(-12.658 -0.129)" fill="none" stroke="#636262" stroke-miterlimit="10" stroke-width="2"/><line y1="8.117" x2="71.892" transform="translate(-345.12 -784.697)" fill="none" stroke="#636262" stroke-miterlimit="10" stroke-width="2"/><path d="M-308.352-836.9l14.738,56.823-5.945-58.258" transform="translate(-16.529 -0.562)" fill="none" stroke="#636262" stroke-miterlimit="10" stroke-width="2"/><line x1="2.525" y2="58.867" transform="translate(-309.685 -839.507)" fill="none" stroke="#636262" stroke-miterlimit="10" stroke-width="2"/><path d="M-261.982-707.43v383.1L-255.8-336.1" transform="translate(-18.641 -6.526)" fill="none" stroke="#636262" stroke-miterlimit="10" stroke-width="2"/><path d="M-255.273-186.109V-594.415l107.07-68.093" transform="translate(-18.947 -8.572)" fill="none" stroke="#636262" stroke-miterlimit="10" stroke-width="2"/><path d="M-453.325-668.316l-93.788,72.193-90.005-72.193" transform="translate(-1.552 -8.307)" fill="none" stroke="#636262" stroke-miterlimit="10" stroke-width="2"/><circle cx="2.984" cy="2.984" r="2.984" transform="translate(-277.43 -606.512)" fill="#636262"/><line x1="100.54" y1="74.232" transform="translate(-374.986 -677.761)" fill="none" stroke="#636262" stroke-miterlimit="10" stroke-width="2"/></g></g></svg>