<svg xmlns="http://www.w3.org/2000/svg" width="400" height="385" viewBox="0 0 400 385"><g transform="translate(-810 -3328)"><g transform="translate(160.254 504.072)"><g transform="translate(702.29 2927.824)"><path d="M730.1,2955.432h50.16s19.293,20.9,13.183,80.047l-6.431,75.226-3.858,113.481-.322,9.323H725.6V3124.528s-1.286-75.225-13.183-101.908c0,0,15.434-1.286,17.364-25.075Z" transform="translate(-711.557 -2954.854)" fill="#fff"/><path d="M783.169,3233.937H724.8V3124.379c-.013-.741-1.42-75.4-13.134-101.672l-.33-.741.81-.07c.61-.052,14.971-1.566,16.836-24.546l.324-42.644H780.29l.172.186c.2.211,19.4,21.767,13.333,80.5l-6.43,75.216Zm-57.215-1.155h56.1l4.161-122.245,6.433-75.257c5.711-55.283-11.043-77.213-12.872-79.42H730.451l-.317,41.54c-1.7,20.946-13.9,24.852-17.116,25.518,11.534,27.064,12.923,100.7,12.936,101.45Z" transform="translate(-711.335 -2954.705)"/></g><g transform="translate(871.374 2919.084)"><path d="M969.116,2944.506l53.7,7.072-3.537,48.543-3.216,37.291-5.788,53.365-2.572,45.328-2.573,95.157H941.464V3119.389s-3.537-75.547-15.756-97.729c0,0,26.045,9,35.692-50.15Z" transform="translate(-924.482 -2943.869)" fill="#fff"/><path d="M1005.374,3231.676h-64.8V3119.224c-.035-.728-3.671-75.639-15.684-97.449l-.721-1.308,1.413.483c.059.019,5.852,1.921,12.819-2.259,7.271-4.36,17.009-16.129,22.115-47.438l7.867-27.549.494.063,54.239,7.144L1019.536,3000l-3.217,37.3-5.788,53.377-2.571,45.3Zm-63.649-1.155h62.526l2.556-94.6,2.574-45.345,5.789-53.395,3.215-37.279,3.5-47.991-52.663-6.937-7.58,26.526c-5.17,31.722-15.192,43.728-22.686,48.2a18.155,18.155,0,0,1-12.46,2.646c11.665,23.3,15.089,93.806,15.231,96.845Z" transform="translate(-924.165 -2943.704)"/></g><path d="M1011.136,2966.673a.464.464,0,0,1-.058,0,.577.577,0,0,1-.519-.533l-1.265-17.83a.584.584,0,0,1,.18-.461.574.574,0,0,1,.469-.153l5.951.754a.575.575,0,0,1,.492.694l-.226,1.044c0,.011,0,.022-.008.033l-4.461,16.033A.578.578,0,0,1,1011.136,2966.673Zm-.639-17.747.978,13.794,3.651-13.208Z" transform="translate(-70.289 -25.438)"/><g transform="translate(752.184 3051.448)"><path d="M779.534,3110.313a10.147,10.147,0,0,1,.111,1.482,3.072,3.072,0,0,1-.669,2.175,2.449,2.449,0,0,1-1.928.765,2.871,2.871,0,0,1-2.087-.773,3.341,3.341,0,0,1-.772-2.381,9.887,9.887,0,0,1,.063-1.267Zm-4.756.7a4.527,4.527,0,0,0-.032.7,2.061,2.061,0,0,0,2.278,2.286,1.915,1.915,0,0,0,2.071-2.174,4.017,4.017,0,0,0-.071-.813Z" transform="translate(-774.148 -3110.313)"/><path d="M776.027,3117.336a1.227,1.227,0,0,0-1.33,1.314,2.509,2.509,0,0,0,.2,1.067l-.5.127a3.147,3.147,0,0,1-.247-1.29,1.8,1.8,0,0,1,1.945-1.9,1.878,1.878,0,0,1,2.079,1.818,1.627,1.627,0,0,1-1.816,1.584,1.72,1.72,0,0,1-.327-.023Zm.5,2.047a1,1,0,0,0,1.139-.965,1.156,1.156,0,0,0-1.139-1.076Z" transform="translate(-774.14 -3111.617)"/><path d="M779.9,3122.031v.7h-5.656v-.7Z" transform="translate(-774.161 -3112.722)"/><path d="M775.149,3127.035a6.641,6.641,0,0,0-.924.055v-.629l.486-.063v-.024a1.422,1.422,0,0,1-.574-1.18,1.1,1.1,0,0,1,1.107-1.179c.932,0,1.441.83,1.433,2.319h.08a.792.792,0,0,0,.892-.876,1.863,1.863,0,0,0-.286-1.012l.469-.159a2.487,2.487,0,0,1,.335,1.274c0,1.188-.8,1.474-1.577,1.474Zm1.044-.686c.017-.765-.12-1.633-.867-1.633a.615.615,0,0,0-.671.653.974.974,0,0,0,.645.948.72.72,0,0,0,.224.032Z" transform="translate(-774.138 -3113.129)"/><path d="M777.06,3129.22c.406,0,.725-.008,1.043-.033v.622l-.629.04v.017a1.425,1.425,0,0,1,.717,1.274c0,.533-.319,1.361-1.641,1.361h-2.3v-.7h2.222c.622,0,1.147-.231,1.147-.892a1.011,1.011,0,0,0-.716-.94,1.045,1.045,0,0,0-.327-.047h-2.326v-.7Z" transform="translate(-774.161 -3114.192)"/><path d="M779.008,3135.481h-.925v1h-.533v-1h-2.071c-.478,0-.749.135-.749.525a1.3,1.3,0,0,0,.048.406l-.534.034a1.943,1.943,0,0,1-.1-.622,1,1,0,0,1,.3-.757,1.5,1.5,0,0,1,1.012-.27h2.095v-.6h.533v.6h.709Z" transform="translate(-774.14 -3115.222)"/><path d="M776.027,3138.335a1.227,1.227,0,0,0-1.33,1.314,2.515,2.515,0,0,0,.2,1.068l-.5.127a3.147,3.147,0,0,1-.247-1.29,1.8,1.8,0,0,1,1.945-1.9,1.878,1.878,0,0,1,2.079,1.817,1.626,1.626,0,0,1-1.816,1.584,1.733,1.733,0,0,1-.327-.024Zm.5,2.047a1,1,0,0,0,1.139-.964,1.156,1.156,0,0,0-1.139-1.075Z" transform="translate(-774.14 -3115.934)"/><path d="M776.9,3143.022c.454,0,.844-.009,1.2-.032v.613l-.756.031v.024a1.166,1.166,0,0,1,.844,1.076,1.445,1.445,0,0,1-.016.191h-.661a2.016,2.016,0,0,0,.016-.239.982.982,0,0,0-.892-.941,2.158,2.158,0,0,0-.327-.024h-2.063v-.7Z" transform="translate(-774.161 -3117.03)"/><path d="M774.138,3147.706a1.837,1.837,0,0,1,1.984-1.849,1.887,1.887,0,0,1,2.047,1.912,1.823,1.823,0,0,1-1.976,1.857,1.889,1.889,0,0,1-2.055-1.912Zm.525.032c0,.669.629,1.17,1.506,1.17.653,0,1.474-.325,1.474-1.155s-.764-1.178-1.5-1.178c-.845,0-1.482.479-1.482,1.156Z" transform="translate(-774.138 -3117.619)"/></g><g transform="translate(925.092 3053.492)"><path d="M996.672,3114.521v-1.634h.59v3.976h-.59v-1.641h-4.78v-.7Z" transform="translate(-991.804 -3112.887)"/><path d="M994.546,3118.152c.453,0,.844-.009,1.2-.032v.613l-.756.032v.024a1.166,1.166,0,0,1,.844,1.075,1.445,1.445,0,0,1-.016.192h-.661a2.029,2.029,0,0,0,.016-.239.984.984,0,0,0-.892-.941,2.16,2.16,0,0,0-.327-.023h-2.063v-.7Z" transform="translate(-991.804 -3113.962)"/><path d="M992.793,3124.026a6.522,6.522,0,0,0-.924.055v-.63l.486-.063v-.024a1.423,1.423,0,0,1-.574-1.18,1.1,1.1,0,0,1,1.108-1.179c.932,0,1.441.829,1.433,2.318h.08a.791.791,0,0,0,.892-.876,1.859,1.859,0,0,0-.286-1.011l.469-.161a2.493,2.493,0,0,1,.335,1.274c0,1.188-.8,1.475-1.577,1.475Zm1.043-.685c.017-.765-.118-1.634-.867-1.634a.615.615,0,0,0-.671.653.974.974,0,0,0,.645.948.734.734,0,0,0,.223.033Z" transform="translate(-991.781 -3114.556)"/><path d="M992.589,3126.056a1.983,1.983,0,0,0-.272.932c0,.5.247.741.574.741s.51-.2.7-.709c.255-.7.639-1.028,1.092-1.028a1.194,1.194,0,0,1,1.131,1.332,1.789,1.789,0,0,1-.239.939l-.5-.167a1.572,1.572,0,0,0,.223-.788c0-.416-.239-.637-.525-.637-.319,0-.463.222-.661.724-.247.663-.582,1.012-1.155,1.012-.687,0-1.165-.534-1.165-1.434a2.208,2.208,0,0,1,.271-1.084Z" transform="translate(-991.783 -3115.559)"/><path d="M993.671,3130.516a1.227,1.227,0,0,0-1.33,1.314,2.509,2.509,0,0,0,.2,1.067l-.5.128a3.144,3.144,0,0,1-.247-1.29,1.8,1.8,0,0,1,1.945-1.9,1.878,1.878,0,0,1,2.079,1.817A1.628,1.628,0,0,1,994,3133.24a1.73,1.73,0,0,1-.327-.024Zm.5,2.048a1,1,0,0,0,1.139-.965,1.156,1.156,0,0,0-1.139-1.075Z" transform="translate(-991.783 -3116.371)"/><path d="M994.546,3135.2c.453,0,.844-.01,1.2-.034v.614l-.756.032v.025a1.165,1.165,0,0,1,.844,1.075,1.441,1.441,0,0,1-.016.192h-.661a2.016,2.016,0,0,0,.016-.239.983.983,0,0,0-.892-.94,2.192,2.192,0,0,0-.327-.024h-2.063v-.7Z" transform="translate(-991.804 -3117.467)"/><path d="M991.781,3139.884a1.838,1.838,0,0,1,1.984-1.848,1.887,1.887,0,0,1,2.047,1.912,1.824,1.824,0,0,1-1.977,1.856,1.89,1.89,0,0,1-2.055-1.912Zm.526.032c0,.669.629,1.171,1.506,1.171.653,0,1.474-.326,1.474-1.155s-.764-1.179-1.5-1.179c-.845,0-1.482.478-1.482,1.155Z" transform="translate(-991.781 -3118.056)"/></g><g transform="translate(719.136 2914.191)"><rect width="1.155" height="23.445" transform="translate(1.38 1.32)" fill="red"/><g transform="translate(0)"><path d="M736.456,2941.166l-1.958-1.959-1.958,1.959V2939.5l1.958-1.958,1.958,1.958Z" transform="translate(-732.539 -2937.545)" fill="red"/></g></g><g transform="translate(769.156 2914.191)"><rect width="1.155" height="23.445" transform="translate(1.381 1.32)" fill="red"/><path d="M799.417,2941.166l-1.958-1.959-1.958,1.959V2939.5l1.958-1.958,1.958,1.958Z" transform="translate(-795.501 -2937.545)" fill="red"/></g><g transform="translate(708.812 2926.444)"><rect width="19.891" height="1.155" transform="translate(1.32 1.381)" fill="red"/><g transform="translate(0)"><path d="M723.165,2952.968l-1.959,1.958,1.959,1.958H721.5l-1.958-1.958,1.958-1.958Z" transform="translate(-719.544 -2952.968)" fill="red"/></g></g><g transform="translate(760.671 2926.444)"><rect width="19.567" height="1.155" transform="translate(0 1.381)" fill="red"/><g transform="translate(17.266)"><path d="M806.553,2956.883l1.959-1.958-1.959-1.958h1.663l1.958,1.958-1.958,1.958Z" transform="translate(-806.553 -2952.967)" fill="red"/></g></g><g transform="translate(782.85 2958.336)"><rect width="1.155" height="22.24" transform="translate(1.381 1.32)" fill="red"/><g transform="translate(0)"><path d="M816.654,2996.732l-1.958-1.96-1.958,1.96v-1.663l1.958-1.958,1.958,1.958Z" transform="translate(-812.738 -2993.111)" fill="red"/></g></g><g transform="translate(718.684 2960.766)"><rect width="1.155" height="22.239" transform="translate(1.381 1.32)" fill="red"/><path d="M735.886,2999.791l-1.958-1.959-1.958,1.959v-1.663l1.958-1.958,1.958,1.958Z" transform="translate(-731.97 -2996.17)" fill="red"/></g><g transform="translate(776.538 2970.587)"><rect width="21.208" height="1.155" transform="translate(0 1.381)" fill="red"/><g transform="translate(18.907)"><path d="M828.591,3012.449l1.959-1.958-1.959-1.958h1.663l1.958,1.958-1.958,1.958Z" transform="translate(-828.591 -3008.533)" fill="red"/></g></g><g transform="translate(775.52 2992.593)"><rect width="21.207" height="1.155" transform="translate(0 1.38)" fill="red"/><g transform="translate(18.906)"><path d="M827.309,3040.147l1.959-1.958-1.959-1.958h1.663l1.958,1.958-1.958,1.958Z" transform="translate(-827.309 -3036.231)" fill="red"/></g></g><g transform="translate(708.812 2971.5)"><rect width="21.208" height="1.155" transform="translate(1.32 1.381)" fill="red"/><g transform="translate(0)"><path d="M723.165,3009.681l-1.959,1.958,1.959,1.958H721.5l-1.958-1.958,1.958-1.958Z" transform="translate(-719.544 -3009.681)" fill="red"/></g></g><g transform="translate(688.838 2993.632)"><rect width="21.207" height="1.155" transform="translate(1.321 1.381)" fill="red"/><g transform="translate(0)"><path d="M698.023,3037.539l-1.959,1.958,1.959,1.958H696.36L694.4,3039.5l1.958-1.958Z" transform="translate(-694.402 -3037.539)" fill="red"/></g></g><g transform="translate(703.745 3083.192)"><rect width="21.207" height="1.155" transform="translate(1.321 1.38)" fill="red"/><path d="M716.787,3150.27l-1.959,1.958,1.959,1.958h-1.663l-1.958-1.958,1.958-1.958Z" transform="translate(-713.166 -3150.27)" fill="red"/></g><g transform="translate(703.745 3204.521)"><rect width="21.207" height="1.155" transform="translate(1.321 1.381)" fill="red"/><path d="M716.787,3302.99l-1.959,1.958,1.959,1.958h-1.663l-1.958-1.958,1.958-1.958Z" transform="translate(-713.166 -3302.99)" fill="red"/></g><g transform="translate(762.844 3204.521)"><rect width="21.208" height="1.155" transform="translate(0 1.381)" fill="red"/><g transform="translate(18.907)"><path d="M811.354,3306.907l1.959-1.958-1.959-1.958h1.663l1.958,1.958-1.958,1.958Z" transform="translate(-811.354 -3302.99)" fill="red"/></g></g><g transform="translate(717.302 2906.682)"><path d="M732.522,2935.222c-1.347,0-2.271-1.262-2.291-3.543,0-2.323,1.007-3.587,2.408-3.587,1.443,0,2.281,1.3,2.281,3.491,0,2.344-.88,3.639-2.387,3.639Zm.053-.72c.945,0,1.4-1.115,1.4-2.875,0-1.7-.424-2.812-1.4-2.812-.849,0-1.4,1.083-1.4,2.813-.021,1.792.531,2.875,1.39,2.875Z" transform="translate(-730.231 -2928.092)" fill="red"/><path d="M737.912,2936.721a.622.622,0,0,1-.616-.668.633.633,0,0,1,.638-.668.618.618,0,0,1,.625.668.626.626,0,0,1-.636.668Z" transform="translate(-731.683 -2929.591)" fill="red"/><path d="M743.874,2928.87a3.546,3.546,0,0,0-.7.052,2.763,2.763,0,0,0-2.4,2.441h.021a2.1,2.1,0,0,1,3.756,1.421,2.31,2.31,0,0,1-2.3,2.439c-1.464,0-2.43-1.145-2.43-2.938a4.291,4.291,0,0,1,1.167-3.109,3.751,3.751,0,0,1,2.207-1.018,4.409,4.409,0,0,1,.679-.053Zm-1.6,5.634c.8,0,1.337-.669,1.337-1.656a1.4,1.4,0,0,0-1.423-1.58,1.533,1.533,0,0,0-1.347.848.872.872,0,0,0-.1.4c.011,1.135.542,1.984,1.517,1.984Z" transform="translate(-732.202 -2928.095)" fill="red"/></g><g transform="translate(724.534 2957.706)"><path d="M741.625,2999.448c-1.347,0-2.271-1.262-2.291-3.543,0-2.324,1.007-3.587,2.408-3.587,1.443,0,2.281,1.295,2.281,3.491,0,2.346-.881,3.639-2.387,3.639Zm.052-.72c.945,0,1.4-1.115,1.4-2.875,0-1.7-.424-2.812-1.4-2.812-.848,0-1.4,1.083-1.4,2.813-.021,1.792.531,2.875,1.39,2.875Z" transform="translate(-739.334 -2992.318)" fill="red"/><path d="M747.015,3000.947a.622.622,0,0,1-.616-.667.633.633,0,0,1,.637-.669.619.619,0,0,1,.625.669.626.626,0,0,1-.636.667Z" transform="translate(-740.786 -2993.817)" fill="red"/><path d="M751.259,2993.336h-.021l-1.2.648-.18-.711,1.507-.806h.8v6.9h-.9Z" transform="translate(-741.497 -2992.349)" fill="red"/></g><g transform="translate(688.015 3081.301)"><path d="M695.656,3155.02c-1.347,0-2.271-1.262-2.29-3.543,0-2.324,1.007-3.587,2.408-3.587,1.443,0,2.281,1.295,2.281,3.491,0,2.345-.881,3.639-2.387,3.639Zm.053-.721c.945,0,1.4-1.115,1.4-2.876,0-1.7-.424-2.811-1.4-2.811-.848,0-1.4,1.083-1.4,2.811-.021,1.793.53,2.876,1.39,2.876Z" transform="translate(-693.366 -3147.89)" fill="red"/><path d="M701.047,3156.519a.622.622,0,0,1-.616-.668.634.634,0,0,1,.637-.669.619.619,0,0,1,.625.669.626.626,0,0,1-.636.668Z" transform="translate(-694.818 -3149.389)" fill="red"/><path d="M703.317,3153.843a3.211,3.211,0,0,0,1.527.425c1.189,0,1.571-.754,1.56-1.338-.01-.966-.881-1.378-1.782-1.378h-.52v-.7h.52c.678,0,1.538-.35,1.538-1.167,0-.552-.35-1.041-1.21-1.041a2.533,2.533,0,0,0-1.378.457l-.255-.678a3.346,3.346,0,0,1,1.814-.531c1.358,0,1.974.806,1.974,1.644a1.728,1.728,0,0,1-1.273,1.634v.021a1.777,1.777,0,0,1,1.538,1.761c0,1.1-.869,2.069-2.514,2.069a3.518,3.518,0,0,1-1.794-.465Z" transform="translate(-695.359 -3147.89)" fill="red"/></g><g transform="translate(877.871 3083.192)"><rect width="21.207" height="1.155" transform="translate(1.321 1.38)" fill="red"/><g transform="translate(0)"><path d="M935.964,3150.27,934,3152.228l1.959,1.958H934.3l-1.958-1.958,1.958-1.958Z" transform="translate(-932.343 -3150.27)" fill="red"/></g></g><g transform="translate(936.97 3083.192)"><rect width="21.208" height="1.155" transform="translate(0 1.38)" fill="red"/><g transform="translate(18.907)"><path d="M1030.531,3154.187l1.96-1.958-1.96-1.958h1.663l1.958,1.958-1.958,1.958Z" transform="translate(-1030.531 -3150.27)" fill="red"/></g></g><g transform="translate(862.141 3081.301)"><path d="M914.834,3155.02c-1.347,0-2.271-1.262-2.291-3.543,0-2.324,1.007-3.587,2.408-3.587,1.443,0,2.281,1.295,2.281,3.491,0,2.345-.88,3.639-2.386,3.639Zm.053-.721c.945,0,1.4-1.115,1.4-2.876,0-1.7-.424-2.811-1.4-2.811-.849,0-1.4,1.083-1.4,2.811-.021,1.793.531,2.876,1.39,2.876Z" transform="translate(-912.543 -3147.89)" fill="red"/><path d="M920.224,3156.519a.622.622,0,0,1-.616-.668.634.634,0,0,1,.638-.669.619.619,0,0,1,.624.669.626.626,0,0,1-.636.668Z" transform="translate(-913.995 -3149.389)" fill="red"/><path d="M922.494,3153.843a3.214,3.214,0,0,0,1.528.425c1.188,0,1.57-.754,1.56-1.338-.01-.966-.881-1.378-1.782-1.378h-.52v-.7h.52c.679,0,1.539-.35,1.539-1.167,0-.552-.351-1.041-1.211-1.041a2.538,2.538,0,0,0-1.379.457l-.255-.678a3.347,3.347,0,0,1,1.814-.531c1.358,0,1.974.806,1.974,1.644a1.728,1.728,0,0,1-1.274,1.634v.021a1.777,1.777,0,0,1,1.539,1.761c0,1.1-.87,2.069-2.514,2.069a3.521,3.521,0,0,1-1.794-.465Z" transform="translate(-914.536 -3147.89)" fill="red"/></g><g transform="translate(745.642 2823.928)"><path d="M910.708,2823.927l-.1,171.788h171.556Zm21.253,50.535,102.131,102.328H931.9Z" transform="translate(-795.647 -2823.927)" fill="#626054"/><path d="M766,3211.792,765.9,3040H937.458Zm21.253-50.534,102.13-102.329H787.2Z" transform="translate(-765.903 -2868.342)" fill="#626054"/></g><g transform="translate(961.291 3081.301)"><path d="M1039.637,3155.02c-1.347,0-2.271-1.262-2.291-3.543,0-2.324,1.007-3.587,2.409-3.587,1.443,0,2.281,1.295,2.281,3.491,0,2.345-.881,3.639-2.387,3.639Zm.053-.721c.945,0,1.4-1.115,1.4-2.876,0-1.7-.424-2.811-1.4-2.811-.849,0-1.4,1.083-1.4,2.811-.021,1.793.53,2.876,1.389,2.876Z" transform="translate(-1037.346 -3147.89)" fill="red"/><path d="M1045.028,3156.519a.622.622,0,0,1-.616-.668.633.633,0,0,1,.637-.669.619.619,0,0,1,.625.669.625.625,0,0,1-.636.668Z" transform="translate(-1038.798 -3149.389)" fill="red"/><path d="M1047.3,3153.843a3.213,3.213,0,0,0,1.527.425c1.189,0,1.57-.754,1.561-1.338-.01-.966-.881-1.378-1.783-1.378h-.519v-.7h.519c.679,0,1.539-.35,1.539-1.167,0-.552-.351-1.041-1.211-1.041a2.537,2.537,0,0,0-1.378.457l-.255-.678a3.349,3.349,0,0,1,1.814-.531c1.358,0,1.973.806,1.973,1.644a1.728,1.728,0,0,1-1.274,1.634v.021a1.777,1.777,0,0,1,1.539,1.761c0,1.1-.87,2.069-2.514,2.069a3.517,3.517,0,0,1-1.793-.465Z" transform="translate(-1039.339 -3147.89)" fill="red"/></g><g transform="translate(787.166 3201.631)"><path d="M820.461,3306.483c-1.347,0-2.271-1.262-2.291-3.543,0-2.324,1.007-3.587,2.409-3.587,1.443,0,2.281,1.295,2.281,3.491,0,2.345-.881,3.639-2.387,3.639Zm.053-.721c.945,0,1.4-1.114,1.4-2.875,0-1.7-.424-2.812-1.4-2.812-.848,0-1.4,1.083-1.4,2.813-.022,1.792.53,2.875,1.389,2.875Z" transform="translate(-818.17 -3299.353)" fill="red"/><path d="M825.852,3307.982a.622.622,0,0,1-.616-.667.634.634,0,0,1,.637-.669.619.619,0,0,1,.624.669.625.625,0,0,1-.636.667Z" transform="translate(-819.622 -3300.852)" fill="red"/><path d="M827.906,3306.366v-.573l.732-.711c1.762-1.675,2.568-2.567,2.568-3.607a1.223,1.223,0,0,0-1.358-1.348,2.35,2.35,0,0,0-1.464.583l-.3-.658a3.062,3.062,0,0,1,1.952-.7,1.937,1.937,0,0,1,2.1,2c0,1.273-.922,2.3-2.377,3.7l-.54.51v.021h3.088v.774Z" transform="translate(-820.171 -3299.353)" fill="red"/></g><g transform="translate(688.015 3201.631)"><path d="M695.656,3306.483c-1.347,0-2.271-1.262-2.29-3.543,0-2.324,1.007-3.587,2.408-3.587,1.443,0,2.281,1.295,2.281,3.491,0,2.345-.881,3.639-2.387,3.639Zm.053-.721c.945,0,1.4-1.114,1.4-2.875,0-1.7-.424-2.812-1.4-2.812-.848,0-1.4,1.083-1.4,2.813-.021,1.792.53,2.875,1.39,2.875Z" transform="translate(-693.366 -3299.353)" fill="red"/><path d="M701.047,3307.982a.622.622,0,0,1-.616-.667.634.634,0,0,1,.637-.669.619.619,0,0,1,.625.669.626.626,0,0,1-.636.667Z" transform="translate(-694.818 -3300.852)" fill="red"/><path d="M703.1,3306.366v-.573l.732-.711c1.762-1.675,2.568-2.567,2.568-3.607a1.222,1.222,0,0,0-1.358-1.348,2.348,2.348,0,0,0-1.464.583l-.3-.658a3.064,3.064,0,0,1,1.953-.7,1.937,1.937,0,0,1,2.1,2c0,1.273-.922,2.3-2.376,3.7l-.54.51v.021h3.087v.774Z" transform="translate(-695.367 -3299.353)" fill="red"/></g><g transform="translate(878.245 3204.521)"><rect width="21.207" height="1.155" transform="translate(1.321 1.381)" fill="red"/><path d="M936.435,3302.99l-1.959,1.958,1.959,1.958h-1.663l-1.958-1.958,1.958-1.958Z" transform="translate(-932.814 -3302.99)" fill="red"/></g><g transform="translate(937.344 3204.521)"><rect width="21.208" height="1.155" transform="translate(0 1.381)" fill="red"/><g transform="translate(18.907)"><path d="M1031,3306.907l1.959-1.958L1031,3302.99h1.663l1.958,1.958-1.958,1.958Z" transform="translate(-1031.003 -3302.99)" fill="red"/></g></g><g transform="translate(961.666 3201.631)"><path d="M1040.108,3306.483c-1.347,0-2.271-1.262-2.29-3.543,0-2.324,1.007-3.587,2.408-3.587,1.443,0,2.281,1.295,2.281,3.491,0,2.345-.881,3.639-2.387,3.639Zm.053-.721c.946,0,1.4-1.114,1.4-2.875,0-1.7-.424-2.812-1.4-2.812-.849,0-1.4,1.083-1.4,2.813-.021,1.792.53,2.875,1.389,2.875Z" transform="translate(-1037.818 -3299.353)" fill="red"/><path d="M1045.5,3307.982a.622.622,0,0,1-.616-.667.634.634,0,0,1,.637-.669.619.619,0,0,1,.625.669.626.626,0,0,1-.636.667Z" transform="translate(-1039.27 -3300.852)" fill="red"/><path d="M1047.554,3306.366v-.573l.732-.711c1.762-1.675,2.568-2.567,2.568-3.607a1.222,1.222,0,0,0-1.358-1.348,2.347,2.347,0,0,0-1.464.583l-.3-.658a3.064,3.064,0,0,1,1.953-.7,1.937,1.937,0,0,1,2.1,2c0,1.273-.922,2.3-2.376,3.7l-.54.51v.021h3.087v.774Z" transform="translate(-1039.819 -3299.353)" fill="red"/></g><g transform="translate(862.515 3201.631)"><path d="M915.305,3306.483c-1.347,0-2.271-1.262-2.291-3.543,0-2.324,1.007-3.587,2.409-3.587,1.443,0,2.281,1.295,2.281,3.491,0,2.345-.881,3.639-2.387,3.639Zm.053-.721c.945,0,1.4-1.114,1.4-2.875,0-1.7-.423-2.812-1.4-2.812-.849,0-1.4,1.083-1.4,2.813-.021,1.792.53,2.875,1.389,2.875Z" transform="translate(-913.014 -3299.353)" fill="red"/><path d="M920.7,3307.982a.622.622,0,0,1-.616-.667.634.634,0,0,1,.637-.669.619.619,0,0,1,.625.669.626.626,0,0,1-.636.667Z" transform="translate(-914.466 -3300.852)" fill="red"/><path d="M922.75,3306.366v-.573l.732-.711c1.762-1.675,2.568-2.567,2.568-3.607a1.223,1.223,0,0,0-1.359-1.348,2.349,2.349,0,0,0-1.464.583l-.3-.658a3.062,3.062,0,0,1,1.952-.7,1.937,1.937,0,0,1,2.1,2c0,1.273-.922,2.3-2.376,3.7l-.541.51v.021h3.088v.774Z" transform="translate(-915.015 -3299.353)" fill="red"/></g><g transform="translate(789.219 2957.706)"><path d="M823.045,2999.448c-1.347,0-2.271-1.262-2.291-3.543,0-2.324,1.007-3.587,2.409-3.587,1.443,0,2.281,1.295,2.281,3.491,0,2.346-.881,3.639-2.387,3.639Zm.053-.72c.945,0,1.4-1.115,1.4-2.875,0-1.7-.423-2.812-1.4-2.812-.848,0-1.4,1.083-1.4,2.813-.021,1.792.53,2.875,1.39,2.875Z" transform="translate(-820.754 -2992.318)" fill="red"/><path d="M828.436,3000.947a.622.622,0,0,1-.616-.667.633.633,0,0,1,.637-.669.619.619,0,0,1,.625.669.626.626,0,0,1-.636.667Z" transform="translate(-822.206 -2993.817)" fill="red"/><path d="M832.68,2993.336h-.021l-1.2.648-.18-.711,1.506-.806h.8v6.9h-.9Z" transform="translate(-822.917 -2992.349)" fill="red"/></g><g transform="translate(969.111 2957.708)"><path d="M1049.481,2999.45c-1.347,0-2.271-1.262-2.291-3.543,0-2.324,1.007-3.587,2.409-3.587,1.443,0,2.281,1.295,2.281,3.491,0,2.345-.881,3.639-2.387,3.639Zm.053-.721c.946,0,1.4-1.114,1.4-2.875,0-1.7-.424-2.812-1.4-2.812-.848,0-1.4,1.083-1.4,2.813-.021,1.792.53,2.875,1.39,2.875Z" transform="translate(-1047.19 -2992.32)" fill="red"/><path d="M1054.872,3000.949a.623.623,0,0,1-.616-.668.634.634,0,0,1,.638-.669.619.619,0,0,1,.624.669.626.626,0,0,1-.636.668Z" transform="translate(-1048.642 -2993.819)" fill="red"/><path d="M1059.116,2993.337h-.021l-1.2.647-.18-.71,1.507-.808h.8v6.9h-.9Z" transform="translate(-1049.353 -2992.35)" fill="red"/></g><g transform="translate(889.518 2952.584)"><path d="M949.294,2993c-1.347,0-2.271-1.262-2.291-3.543,0-2.324,1.007-3.587,2.409-3.587,1.443,0,2.281,1.295,2.281,3.491,0,2.346-.881,3.64-2.387,3.64Zm.053-.722c.945,0,1.4-1.115,1.4-2.875,0-1.7-.424-2.812-1.4-2.812-.849,0-1.4,1.083-1.4,2.813-.021,1.792.53,2.875,1.389,2.875Z" transform="translate(-947.003 -2985.871)" fill="red"/><path d="M954.684,2994.5a.623.623,0,0,1-.616-.668.634.634,0,0,1,.638-.669.619.619,0,0,1,.624.669.626.626,0,0,1-.636.668Z" transform="translate(-948.455 -2987.37)" fill="red"/><path d="M958.928,2986.888h-.021l-1.2.647-.18-.71,1.507-.807h.8v6.9h-.9Z" transform="translate(-949.166 -2985.901)" fill="red"/></g><g transform="translate(766.117 2906.682)"><path d="M793.966,2935.222c-1.347,0-2.271-1.262-2.29-3.543,0-2.323,1.007-3.587,2.408-3.587,1.443,0,2.281,1.3,2.281,3.491,0,2.344-.881,3.639-2.387,3.639Zm.053-.72c.945,0,1.4-1.115,1.4-2.875,0-1.7-.424-2.812-1.4-2.812-.848,0-1.4,1.083-1.4,2.813-.022,1.792.53,2.875,1.389,2.875Z" transform="translate(-791.676 -2928.092)" fill="red"/><path d="M799.357,2936.721a.622.622,0,0,1-.616-.668.633.633,0,0,1,.637-.668.619.619,0,0,1,.625.668.626.626,0,0,1-.636.668Z" transform="translate(-793.128 -2929.591)" fill="red"/><path d="M805.318,2928.87a3.559,3.559,0,0,0-.7.052,2.763,2.763,0,0,0-2.4,2.441h.021a2.1,2.1,0,0,1,3.756,1.421,2.31,2.31,0,0,1-2.3,2.439c-1.464,0-2.43-1.145-2.43-2.938a4.291,4.291,0,0,1,1.168-3.109,3.75,3.75,0,0,1,2.206-1.018,4.424,4.424,0,0,1,.679-.053Zm-1.6,5.634c.8,0,1.336-.669,1.336-1.656a1.4,1.4,0,0,0-1.422-1.58,1.533,1.533,0,0,0-1.347.848.874.874,0,0,0-.1.4c.011,1.135.541,1.984,1.517,1.984Z" transform="translate(-793.647 -2928.095)" fill="red"/></g><g transform="translate(686.366 2926.369)"><path d="M693.581,2960c-1.347,0-2.27-1.262-2.29-3.543,0-2.324,1.006-3.587,2.407-3.587,1.444,0,2.281,1.295,2.281,3.49,0,2.345-.879,3.639-2.387,3.639Zm.054-.72c.945,0,1.4-1.115,1.4-2.876,0-1.7-.424-2.811-1.4-2.811-.848,0-1.4,1.083-1.4,2.811-.02,1.793.531,2.876,1.39,2.876Z" transform="translate(-691.291 -2952.873)" fill="red"/><path d="M698.973,2961.5a.622.622,0,0,1-.616-.668.633.633,0,0,1,.635-.669.618.618,0,0,1,.625.669.625.625,0,0,1-.636.668Z" transform="translate(-692.743 -2954.372)" fill="red"/><path d="M704.933,2953.65a3.646,3.646,0,0,0-.7.053,2.762,2.762,0,0,0-2.4,2.441h.021a2.1,2.1,0,0,1,3.756,1.421,2.311,2.311,0,0,1-2.3,2.44c-1.464,0-2.429-1.145-2.429-2.939a4.288,4.288,0,0,1,1.166-3.108,3.752,3.752,0,0,1,2.206-1.019,4.42,4.42,0,0,1,.679-.053Zm-1.6,5.635c.8,0,1.338-.669,1.338-1.656a1.4,1.4,0,0,0-1.424-1.58,1.532,1.532,0,0,0-1.347.849.881.881,0,0,0-.1.4c.012,1.135.542,1.984,1.517,1.984Z" transform="translate(-693.262 -2952.876)" fill="red"/><path d="M708.093,2958.826a3.223,3.223,0,0,0,1.528.425c1.188,0,1.57-.754,1.561-1.338-.011-.965-.882-1.378-1.783-1.378h-.521v-.7h.521c.679,0,1.539-.35,1.539-1.167,0-.552-.352-1.041-1.211-1.041a2.536,2.536,0,0,0-1.378.458l-.255-.679a3.351,3.351,0,0,1,1.814-.531c1.358,0,1.974.806,1.974,1.645a1.73,1.73,0,0,1-1.272,1.635v.022a1.777,1.777,0,0,1,1.538,1.76c0,1.1-.871,2.069-2.515,2.069a3.528,3.528,0,0,1-1.794-.465Z" transform="translate(-694.692 -2952.873)" fill="red"/></g><g transform="translate(914.294 2906.978)"><rect width="1.155" height="23.445" transform="translate(1.38 1.32)" fill="red"/><path d="M982.106,2932.086l-1.958-1.959-1.958,1.959v-1.663l1.958-1.958,1.958,1.958Z" transform="translate(-978.19 -2928.465)" fill="red"/></g><g transform="translate(899.559 2961.97)"><rect width="1.155" height="23.445" transform="translate(1.381 1.32)" fill="red"/><g transform="translate(0)"><path d="M963.559,3001.306l-1.958-1.959-1.958,1.959v-1.663l1.958-1.958,1.958,1.958Z" transform="translate(-959.643 -2997.685)" fill="red"/></g></g><g transform="translate(967.747 2916.871)"><rect width="1.155" height="23.445" transform="translate(1.381 1.32)" fill="red"/><g transform="translate(0)"><path d="M1049.389,2944.539l-1.958-1.959-1.958,1.959v-1.663l1.958-1.958,1.958,1.958Z" transform="translate(-1045.473 -2940.918)" fill="red"/></g></g><g transform="translate(964.533 2961.97)"><rect width="1.155" height="23.445" transform="translate(1.381 1.32)" fill="red"/><g transform="translate(0)"><path d="M1045.344,3001.306l-1.958-1.959-1.958,1.959v-1.663l1.958-1.958,1.958,1.958Z" transform="translate(-1041.427 -2997.685)" fill="red"/></g></g><g transform="translate(944.423 2914.317)"><rect width="1.155" height="11.062" transform="translate(1.38 1.32)" fill="red"/><g transform="translate(0)"><path d="M1020.031,2941.324l-1.958-1.96-1.958,1.96v-1.663l1.958-1.958,1.958,1.958Z" transform="translate(-1016.114 -2937.703)" fill="red"/></g></g><g transform="translate(937.625 2914.317)"><rect width="1.155" height="11.062" transform="translate(1.381 1.32)" fill="red"/><path d="M1011.473,2941.324l-1.958-1.96-1.958,1.96v-1.663l1.958-1.958,1.958,1.958Z" transform="translate(-1007.557 -2937.703)" fill="red"/></g><g transform="translate(940.6 2903.631)"><rect width="1.155" height="18.267" transform="translate(1.381 1.32)" fill="red"/><path d="M1015.218,2927.873l-1.958-1.959-1.958,1.959v-1.663l1.958-1.958,1.958,1.958Z" transform="translate(-1011.302 -2924.252)" fill="red"/></g><g transform="translate(903.97 2919.23)"><rect width="19.891" height="1.155" transform="translate(1.32 1.38)" fill="red"/><g transform="translate(0)"><path d="M968.815,2943.888l-1.959,1.958,1.959,1.958h-1.663l-1.958-1.958,1.958-1.958Z" transform="translate(-965.195 -2943.888)" fill="red"/></g></g><g transform="translate(890.913 2970.587)"><rect width="19.89" height="1.155" transform="translate(1.32 1.381)" fill="red"/><g transform="translate(0)"><path d="M952.38,3008.533l-1.959,1.958,1.959,1.958h-1.663l-1.958-1.958,1.958-1.958Z" transform="translate(-948.759 -3008.533)" fill="red"/></g></g><g transform="translate(861.995 2995.204)"><rect width="19.89" height="1.155" transform="translate(1.32 1.38)" fill="red"/><g transform="translate(0)"><path d="M915.98,3039.518l-1.959,1.958,1.959,1.958h-1.663l-1.958-1.958,1.958-1.958Z" transform="translate(-912.36 -3039.518)" fill="red"/></g></g><g transform="translate(959.1 2925.849)"><rect width="19.89" height="1.155" transform="translate(0 1.381)" fill="red"/><g transform="translate(17.589)"><path d="M1056.729,2956.135l1.959-1.958-1.959-1.958h1.663l1.958,1.958-1.958,1.958Z" transform="translate(-1056.729 -2952.218)" fill="red"/></g></g><g transform="translate(956.69 2971.5)"><rect width="19.89" height="1.155" transform="translate(0 1.381)" fill="red"/><g transform="translate(17.589)"><path d="M1053.695,3013.6l1.959-1.958-1.959-1.958h1.663l1.958,1.958-1.958,1.958Z" transform="translate(-1053.695 -3009.681)" fill="red"/></g></g><g transform="translate(955.886 2993.632)"><rect width="19.891" height="1.155" transform="translate(0 1.381)" fill="red"/><g transform="translate(17.59)"><path d="M1052.683,3041.455l1.959-1.958-1.959-1.958h1.663l1.958,1.958-1.958,1.958Z" transform="translate(-1052.683 -3037.539)" fill="red"/></g></g><g transform="translate(909.898 2899.468)"><path d="M974.948,2926.142c-1.347,0-2.271-1.262-2.291-3.543,0-2.324,1.007-3.587,2.409-3.587,1.443,0,2.281,1.3,2.281,3.492,0,2.344-.881,3.638-2.387,3.638Zm.053-.721c.945,0,1.4-1.114,1.4-2.876,0-1.7-.424-2.812-1.4-2.812-.848,0-1.4,1.083-1.4,2.812-.021,1.793.53,2.876,1.39,2.876Z" transform="translate(-972.657 -2919.012)" fill="red"/><path d="M980.339,2927.641a.622.622,0,0,1-.616-.668.633.633,0,0,1,.637-.668.618.618,0,0,1,.624.668.626.626,0,0,1-.636.668Z" transform="translate(-974.109 -2920.511)" fill="red"/><path d="M986.3,2919.791a3.577,3.577,0,0,0-.7.052,2.763,2.763,0,0,0-2.4,2.441h.021a2.1,2.1,0,0,1,3.756,1.421,2.311,2.311,0,0,1-2.3,2.44c-1.464,0-2.429-1.145-2.429-2.939a4.291,4.291,0,0,1,1.168-3.109,3.743,3.743,0,0,1,2.206-1.018,4.436,4.436,0,0,1,.679-.053Zm-1.6,5.634c.8,0,1.337-.669,1.337-1.657a1.4,1.4,0,0,0-1.423-1.58,1.534,1.534,0,0,0-1.347.848.871.871,0,0,0-.1.4c.012,1.135.542,1.984,1.517,1.984Z" transform="translate(-974.628 -2919.015)" fill="red"/></g><g transform="translate(965.343 2907.303)"><path d="M1044.737,2936c-1.346,0-2.271-1.262-2.291-3.542,0-2.324,1.007-3.588,2.409-3.588,1.443,0,2.281,1.295,2.281,3.492,0,2.345-.881,3.638-2.387,3.638Zm.053-.721c.945,0,1.4-1.115,1.4-2.875,0-1.7-.423-2.812-1.4-2.812-.848,0-1.4,1.083-1.4,2.813-.021,1.792.53,2.875,1.389,2.875Z" transform="translate(-1042.446 -2928.874)" fill="red"/><path d="M1050.128,2937.5a.622.622,0,0,1-.616-.667.633.633,0,0,1,.637-.669.619.619,0,0,1,.625.669.626.626,0,0,1-.636.667Z" transform="translate(-1043.898 -2930.373)" fill="red"/><path d="M1056.089,2929.653a3.505,3.505,0,0,0-.7.053,2.763,2.763,0,0,0-2.4,2.441h.021a2.1,2.1,0,0,1,3.757,1.421,2.311,2.311,0,0,1-2.3,2.439c-1.464,0-2.43-1.145-2.43-2.938a4.286,4.286,0,0,1,1.168-3.108,3.748,3.748,0,0,1,2.206-1.019,4.421,4.421,0,0,1,.679-.053Zm-1.6,5.634c.8,0,1.336-.669,1.336-1.656a1.4,1.4,0,0,0-1.422-1.58,1.534,1.534,0,0,0-1.348.848.882.882,0,0,0-.1.4c.011,1.135.541,1.984,1.517,1.984Z" transform="translate(-1044.417 -2928.877)" fill="red"/></g><g transform="translate(935.663 2895.099)"><path d="M1007.378,2920.643c-1.347,0-2.271-1.262-2.291-3.543,0-2.324,1.007-3.587,2.408-3.587,1.443,0,2.281,1.295,2.281,3.491,0,2.345-.881,3.639-2.387,3.639Zm.052-.72c.946,0,1.4-1.115,1.4-2.876,0-1.7-.424-2.812-1.4-2.812-.848,0-1.4,1.083-1.4,2.812-.021,1.793.531,2.876,1.39,2.876Z" transform="translate(-1005.087 -2913.513)" fill="red"/><path d="M1012.768,2922.142a.622.622,0,0,1-.616-.668.634.634,0,0,1,.637-.669.619.619,0,0,1,.625.669.626.626,0,0,1-.636.668Z" transform="translate(-1006.539 -2915.012)" fill="red"/><path d="M1018.73,2914.291a3.61,3.61,0,0,0-.7.053,2.764,2.764,0,0,0-2.4,2.441h.022a2.1,2.1,0,0,1,3.756,1.421,2.311,2.311,0,0,1-2.3,2.439c-1.464,0-2.429-1.145-2.429-2.938a4.291,4.291,0,0,1,1.167-3.109,3.746,3.746,0,0,1,2.207-1.018,4.413,4.413,0,0,1,.678-.053Zm-1.6,5.635c.8,0,1.337-.669,1.337-1.656a1.4,1.4,0,0,0-1.423-1.58,1.533,1.533,0,0,0-1.347.848.874.874,0,0,0-.1.4c.011,1.135.542,1.984,1.517,1.984Z" transform="translate(-1007.058 -2913.516)" fill="red"/></g><g transform="translate(884.537 2916.745)"><path d="M943.025,2947.889c-1.347,0-2.271-1.262-2.291-3.543,0-2.324,1.007-3.587,2.409-3.587,1.443,0,2.281,1.295,2.281,3.491,0,2.345-.881,3.639-2.387,3.639Zm.053-.721c.945,0,1.4-1.114,1.4-2.875,0-1.7-.423-2.812-1.4-2.812-.849,0-1.4,1.083-1.4,2.812-.021,1.793.53,2.875,1.389,2.875Z" transform="translate(-940.734 -2940.759)" fill="red"/><path d="M948.416,2949.388a.623.623,0,0,1-.616-.668.633.633,0,0,1,.637-.669.619.619,0,0,1,.625.669.626.626,0,0,1-.636.668Z" transform="translate(-942.186 -2942.258)" fill="red"/><path d="M954.377,2941.537a3.473,3.473,0,0,0-.7.053,2.763,2.763,0,0,0-2.4,2.44h.021a2.1,2.1,0,0,1,3.757,1.422,2.311,2.311,0,0,1-2.3,2.44c-1.464,0-2.43-1.145-2.43-2.939a4.287,4.287,0,0,1,1.168-3.108,3.744,3.744,0,0,1,2.206-1.019,4.489,4.489,0,0,1,.679-.053Zm-1.6,5.634c.8,0,1.336-.669,1.336-1.656a1.4,1.4,0,0,0-1.422-1.58,1.533,1.533,0,0,0-1.347.848.879.879,0,0,0-.1.4c.011,1.135.541,1.983,1.517,1.983Z" transform="translate(-942.705 -2940.762)" fill="red"/><path d="M957.538,2946.711a3.2,3.2,0,0,0,1.527.426c1.189,0,1.571-.754,1.56-1.338-.01-.966-.881-1.378-1.782-1.378h-.52v-.7h.52c.678,0,1.538-.352,1.538-1.167,0-.552-.35-1.041-1.21-1.041a2.527,2.527,0,0,0-1.378.457l-.255-.679a3.35,3.35,0,0,1,1.814-.531c1.359,0,1.974.806,1.974,1.644a1.728,1.728,0,0,1-1.274,1.634v.021a1.776,1.776,0,0,1,1.538,1.761c0,1.1-.869,2.069-2.514,2.069a3.508,3.508,0,0,1-1.794-.466Z" transform="translate(-944.136 -2940.759)" fill="red"/></g><g transform="translate(870.877 2968.855)"><path d="M925.831,3013.482c-1.347,0-2.271-1.262-2.291-3.543,0-2.324,1.007-3.587,2.408-3.587,1.443,0,2.281,1.295,2.281,3.491,0,2.345-.881,3.638-2.386,3.638Zm.052-.721c.945,0,1.4-1.114,1.4-2.875,0-1.7-.424-2.812-1.4-2.812-.848,0-1.4,1.083-1.4,2.812-.022,1.792.531,2.875,1.39,2.875Z" transform="translate(-923.54 -3006.352)" fill="red"/><path d="M931.221,3014.981a.622.622,0,0,1-.616-.667.633.633,0,0,1,.637-.669.618.618,0,0,1,.625.669.625.625,0,0,1-.636.667Z" transform="translate(-924.992 -3007.851)" fill="red"/><path d="M937.182,3007.131a3.545,3.545,0,0,0-.7.052,2.763,2.763,0,0,0-2.4,2.441h.021a2.1,2.1,0,0,1,3.756,1.421,2.311,2.311,0,0,1-2.3,2.439c-1.464,0-2.429-1.145-2.429-2.938a4.288,4.288,0,0,1,1.167-3.108,3.753,3.753,0,0,1,2.206-1.019,4.434,4.434,0,0,1,.679-.053Zm-1.6,5.634c.8,0,1.337-.669,1.337-1.656a1.4,1.4,0,0,0-1.423-1.58,1.534,1.534,0,0,0-1.347.849.871.871,0,0,0-.1.4c.011,1.135.542,1.984,1.517,1.984Z" transform="translate(-925.511 -3006.355)" fill="red"/><path d="M940.343,3012.3a3.215,3.215,0,0,0,1.528.425c1.188,0,1.57-.753,1.559-1.338-.01-.965-.88-1.378-1.782-1.378h-.52v-.7h.52c.679,0,1.539-.35,1.539-1.167,0-.552-.351-1.04-1.211-1.04a2.531,2.531,0,0,0-1.378.457l-.255-.679a3.345,3.345,0,0,1,1.814-.531c1.359,0,1.974.806,1.974,1.644a1.729,1.729,0,0,1-1.274,1.635v.021a1.777,1.777,0,0,1,1.539,1.76c0,1.1-.87,2.069-2.514,2.069a3.522,3.522,0,0,1-1.794-.465Z" transform="translate(-926.941 -3006.352)" fill="red"/></g><g transform="translate(984.471 2923.976)"><path d="M1068.814,2956.991c-1.347,0-2.271-1.261-2.291-3.542,0-2.324,1.007-3.588,2.408-3.588,1.443,0,2.281,1.295,2.281,3.492,0,2.345-.88,3.638-2.386,3.638Zm.053-.721c.945,0,1.4-1.115,1.4-2.875,0-1.7-.424-2.813-1.4-2.813-.848,0-1.4,1.083-1.4,2.813-.021,1.792.53,2.875,1.39,2.875Z" transform="translate(-1066.523 -2949.861)" fill="red"/><path d="M1074.2,2958.49a.622.622,0,0,1-.616-.667.634.634,0,0,1,.638-.669.619.619,0,0,1,.625.669.625.625,0,0,1-.636.667Z" transform="translate(-1067.975 -2951.36)" fill="red"/><path d="M1080.166,2950.639a3.542,3.542,0,0,0-.7.054,2.763,2.763,0,0,0-2.4,2.44h.021a2.1,2.1,0,0,1,3.756,1.421,2.31,2.31,0,0,1-2.3,2.439c-1.464,0-2.429-1.144-2.429-2.938a4.284,4.284,0,0,1,1.167-3.108,3.748,3.748,0,0,1,2.207-1.02,4.436,4.436,0,0,1,.678-.052Zm-1.6,5.635c.8,0,1.337-.669,1.337-1.656a1.4,1.4,0,0,0-1.423-1.58,1.533,1.533,0,0,0-1.347.848.87.87,0,0,0-.1.4c.011,1.135.542,1.984,1.518,1.984Z" transform="translate(-1068.494 -2949.864)" fill="red"/><path d="M1083.326,2955.814a3.214,3.214,0,0,0,1.528.425c1.189,0,1.57-.753,1.56-1.338-.01-.965-.881-1.379-1.783-1.379h-.52v-.7h.52c.679,0,1.539-.351,1.539-1.168,0-.551-.351-1.04-1.211-1.04a2.531,2.531,0,0,0-1.378.457l-.255-.679a3.354,3.354,0,0,1,1.815-.531c1.358,0,1.973.807,1.973,1.645a1.729,1.729,0,0,1-1.273,1.635v.022a1.776,1.776,0,0,1,1.539,1.76c0,1.1-.87,2.069-2.514,2.069a3.509,3.509,0,0,1-1.793-.465Z" transform="translate(-1069.925 -2949.861)" fill="red"/></g><g transform="translate(983.466 2968.855)"><path d="M1067.549,3013.482c-1.347,0-2.271-1.262-2.291-3.543,0-2.324,1.007-3.587,2.408-3.587,1.443,0,2.281,1.295,2.281,3.491,0,2.345-.881,3.638-2.386,3.638Zm.052-.721c.945,0,1.4-1.114,1.4-2.875,0-1.7-.424-2.812-1.4-2.812-.848,0-1.4,1.083-1.4,2.812-.021,1.792.531,2.875,1.39,2.875Z" transform="translate(-1065.258 -3006.352)" fill="red"/><path d="M1072.939,3014.981a.622.622,0,0,1-.616-.667.633.633,0,0,1,.637-.669.618.618,0,0,1,.625.669.625.625,0,0,1-.636.667Z" transform="translate(-1066.71 -3007.851)" fill="red"/><path d="M1078.9,3007.131a3.547,3.547,0,0,0-.7.052,2.763,2.763,0,0,0-2.4,2.441h.022a2.1,2.1,0,0,1,3.756,1.421,2.311,2.311,0,0,1-2.3,2.439c-1.464,0-2.429-1.145-2.429-2.938a4.288,4.288,0,0,1,1.167-3.108,3.754,3.754,0,0,1,2.207-1.019,4.418,4.418,0,0,1,.678-.053Zm-1.6,5.634c.8,0,1.337-.669,1.337-1.656a1.4,1.4,0,0,0-1.423-1.58,1.533,1.533,0,0,0-1.347.849.871.871,0,0,0-.1.4c.011,1.135.542,1.984,1.517,1.984Z" transform="translate(-1067.229 -3006.355)" fill="red"/><path d="M1082.061,3012.3a3.216,3.216,0,0,0,1.528.425c1.188,0,1.57-.753,1.56-1.338-.01-.965-.881-1.378-1.783-1.378h-.52v-.7h.52c.679,0,1.539-.35,1.539-1.167,0-.552-.351-1.04-1.211-1.04a2.531,2.531,0,0,0-1.378.457l-.255-.679a3.348,3.348,0,0,1,1.815-.531c1.358,0,1.973.806,1.973,1.644a1.729,1.729,0,0,1-1.273,1.635v.021a1.777,1.777,0,0,1,1.539,1.76c0,1.1-.87,2.069-2.515,2.069a3.517,3.517,0,0,1-1.793-.465Z" transform="translate(-1068.66 -3006.352)" fill="red"/></g><g transform="translate(982.461 2991.556)"><path d="M1066.285,3042.055c-1.347,0-2.271-1.261-2.291-3.542,0-2.323,1.007-3.587,2.409-3.587,1.443,0,2.281,1.295,2.281,3.491,0,2.345-.881,3.638-2.387,3.638Zm.053-.72c.945,0,1.4-1.115,1.4-2.875,0-1.7-.424-2.812-1.4-2.812-.849,0-1.4,1.083-1.4,2.812-.021,1.792.53,2.875,1.389,2.875Z" transform="translate(-1063.994 -3034.926)" fill="red"/><path d="M1071.676,3043.554a.622.622,0,0,1-.616-.667.633.633,0,0,1,.637-.669.618.618,0,0,1,.624.669.625.625,0,0,1-.635.667Z" transform="translate(-1065.447 -3036.425)" fill="red"/><path d="M1077.637,3035.7a3.514,3.514,0,0,0-.7.053,2.763,2.763,0,0,0-2.4,2.44h.021a2.1,2.1,0,0,1,3.756,1.421,2.311,2.311,0,0,1-2.3,2.439c-1.464,0-2.43-1.145-2.43-2.938a4.288,4.288,0,0,1,1.168-3.109,3.746,3.746,0,0,1,2.206-1.019,4.508,4.508,0,0,1,.679-.052Zm-1.6,5.634c.8,0,1.337-.669,1.337-1.656a1.4,1.4,0,0,0-1.422-1.58,1.533,1.533,0,0,0-1.347.848.873.873,0,0,0-.1.4c.011,1.135.541,1.984,1.517,1.984Z" transform="translate(-1065.965 -3034.929)" fill="red"/><path d="M1080.8,3040.878a3.211,3.211,0,0,0,1.527.425c1.189,0,1.571-.753,1.56-1.338-.01-.965-.881-1.378-1.783-1.378h-.52v-.7h.52c.679,0,1.539-.351,1.539-1.168,0-.551-.35-1.04-1.21-1.04a2.528,2.528,0,0,0-1.378.457l-.255-.679a3.35,3.35,0,0,1,1.814-.531c1.358,0,1.974.806,1.974,1.644a1.729,1.729,0,0,1-1.274,1.634v.022a1.776,1.776,0,0,1,1.538,1.76c0,1.105-.869,2.069-2.514,2.069a3.507,3.507,0,0,1-1.793-.465Z" transform="translate(-1067.396 -3034.926)" fill="red"/></g><g transform="translate(787.166 2926.369)"><path d="M820.461,2960c-1.347,0-2.271-1.262-2.291-3.543,0-2.324,1.007-3.587,2.409-3.587,1.443,0,2.281,1.295,2.281,3.49,0,2.345-.881,3.639-2.387,3.639Zm.053-.72c.945,0,1.4-1.115,1.4-2.876,0-1.7-.424-2.811-1.4-2.811-.848,0-1.4,1.083-1.4,2.811-.022,1.793.53,2.876,1.389,2.876Z" transform="translate(-818.17 -2952.873)" fill="red"/><path d="M825.852,2961.5a.622.622,0,0,1-.616-.668.633.633,0,0,1,.637-.669.618.618,0,0,1,.624.669.626.626,0,0,1-.636.668Z" transform="translate(-819.622 -2954.372)" fill="red"/><path d="M831.813,2953.65a3.663,3.663,0,0,0-.7.053,2.764,2.764,0,0,0-2.4,2.441h.021a2.1,2.1,0,0,1,3.756,1.421,2.31,2.31,0,0,1-2.3,2.44c-1.463,0-2.429-1.145-2.429-2.939a4.289,4.289,0,0,1,1.168-3.108,3.745,3.745,0,0,1,2.206-1.019,4.4,4.4,0,0,1,.679-.053Zm-1.6,5.635c.8,0,1.337-.669,1.337-1.656a1.4,1.4,0,0,0-1.422-1.58,1.532,1.532,0,0,0-1.347.849.88.88,0,0,0-.1.4c.011,1.135.541,1.984,1.517,1.984Z" transform="translate(-820.141 -2952.876)" fill="red"/><path d="M834.974,2958.826a3.211,3.211,0,0,0,1.527.425c1.189,0,1.571-.754,1.56-1.338-.01-.965-.881-1.378-1.782-1.378h-.52v-.7h.52c.679,0,1.538-.35,1.538-1.167,0-.552-.35-1.041-1.21-1.041a2.526,2.526,0,0,0-1.378.458l-.255-.679a3.347,3.347,0,0,1,1.814-.531c1.358,0,1.974.806,1.974,1.645a1.729,1.729,0,0,1-1.273,1.635v.022a1.776,1.776,0,0,1,1.538,1.76c0,1.1-.869,2.069-2.514,2.069a3.517,3.517,0,0,1-1.793-.465Z" transform="translate(-821.572 -2952.873)" fill="red"/></g><g transform="translate(800.625 2968.855)"><path d="M837.4,3013.482c-1.347,0-2.27-1.262-2.291-3.543,0-2.324,1.007-3.587,2.409-3.587,1.443,0,2.281,1.295,2.281,3.491,0,2.345-.881,3.638-2.387,3.638Zm.053-.721c.945,0,1.4-1.114,1.4-2.875,0-1.7-.424-2.812-1.4-2.812-.849,0-1.4,1.083-1.4,2.812-.022,1.792.53,2.875,1.389,2.875Z" transform="translate(-835.112 -3006.352)" fill="red"/><path d="M842.793,3014.981a.622.622,0,0,1-.616-.667.633.633,0,0,1,.638-.669.618.618,0,0,1,.624.669.625.625,0,0,1-.636.667Z" transform="translate(-836.564 -3007.851)" fill="red"/><path d="M848.755,3007.131a3.553,3.553,0,0,0-.7.052,2.763,2.763,0,0,0-2.4,2.441h.021a2.1,2.1,0,0,1,3.756,1.421,2.311,2.311,0,0,1-2.3,2.439c-1.464,0-2.429-1.145-2.429-2.938a4.292,4.292,0,0,1,1.167-3.108,3.753,3.753,0,0,1,2.207-1.019,4.438,4.438,0,0,1,.679-.053Zm-1.6,5.634c.8,0,1.337-.669,1.337-1.656a1.4,1.4,0,0,0-1.423-1.58,1.533,1.533,0,0,0-1.347.849.871.871,0,0,0-.1.4c.012,1.135.542,1.984,1.517,1.984Z" transform="translate(-837.083 -3006.355)" fill="red"/><path d="M851.916,3012.3a3.208,3.208,0,0,0,1.527.425c1.189,0,1.571-.753,1.56-1.338-.01-.965-.881-1.378-1.783-1.378h-.52v-.7h.52c.679,0,1.539-.35,1.539-1.167,0-.552-.351-1.04-1.21-1.04a2.532,2.532,0,0,0-1.379.457l-.254-.679a3.343,3.343,0,0,1,1.814-.531c1.358,0,1.973.806,1.973,1.644a1.729,1.729,0,0,1-1.273,1.635v.021a1.776,1.776,0,0,1,1.539,1.76c0,1.1-.87,2.069-2.514,2.069a3.517,3.517,0,0,1-1.793-.465Z" transform="translate(-838.513 -3006.352)" fill="red"/></g><g transform="translate(800.625 2991.556)"><path d="M837.4,3042.055c-1.347,0-2.27-1.261-2.291-3.542,0-2.323,1.007-3.587,2.409-3.587,1.443,0,2.281,1.295,2.281,3.491,0,2.345-.881,3.638-2.387,3.638Zm.053-.72c.945,0,1.4-1.115,1.4-2.875,0-1.7-.424-2.812-1.4-2.812-.849,0-1.4,1.083-1.4,2.812-.022,1.792.53,2.875,1.389,2.875Z" transform="translate(-835.112 -3034.926)" fill="red"/><path d="M842.793,3043.554a.622.622,0,0,1-.616-.667.634.634,0,0,1,.638-.669.619.619,0,0,1,.624.669.625.625,0,0,1-.636.667Z" transform="translate(-836.564 -3036.425)" fill="red"/><path d="M848.755,3035.7a3.509,3.509,0,0,0-.7.053,2.763,2.763,0,0,0-2.4,2.44h.021a2.1,2.1,0,0,1,3.756,1.421,2.311,2.311,0,0,1-2.3,2.439c-1.464,0-2.429-1.145-2.429-2.938a4.29,4.29,0,0,1,1.167-3.109,3.749,3.749,0,0,1,2.207-1.019,4.512,4.512,0,0,1,.679-.052Zm-1.6,5.634c.8,0,1.337-.669,1.337-1.656a1.4,1.4,0,0,0-1.423-1.58,1.533,1.533,0,0,0-1.347.848.873.873,0,0,0-.1.4c.012,1.135.542,1.984,1.517,1.984Z" transform="translate(-837.083 -3034.929)" fill="red"/><path d="M851.916,3040.878a3.211,3.211,0,0,0,1.527.425c1.189,0,1.571-.753,1.56-1.338-.01-.965-.881-1.378-1.783-1.378h-.52v-.7h.52c.679,0,1.539-.351,1.539-1.168,0-.551-.351-1.04-1.21-1.04a2.534,2.534,0,0,0-1.379.457l-.254-.679a3.349,3.349,0,0,1,1.814-.531c1.358,0,1.973.806,1.973,1.644a1.729,1.729,0,0,1-1.273,1.634v.022a1.776,1.776,0,0,1,1.539,1.76c0,1.105-.87,2.069-2.514,2.069a3.508,3.508,0,0,1-1.793-.465Z" transform="translate(-838.513 -3034.926)" fill="red"/></g><g transform="translate(839.647 2991.556)"><path d="M886.521,3042.055c-1.347,0-2.271-1.261-2.29-3.542,0-2.323,1.007-3.587,2.408-3.587,1.443,0,2.281,1.295,2.281,3.491,0,2.345-.881,3.638-2.387,3.638Zm.053-.72c.945,0,1.4-1.115,1.4-2.875,0-1.7-.423-2.812-1.4-2.812-.849,0-1.4,1.083-1.4,2.812-.022,1.792.53,2.875,1.389,2.875Z" transform="translate(-884.23 -3034.926)" fill="red"/><path d="M891.911,3043.554a.622.622,0,0,1-.616-.667.633.633,0,0,1,.637-.669.619.619,0,0,1,.625.669.626.626,0,0,1-.636.667Z" transform="translate(-885.682 -3036.425)" fill="red"/><path d="M894.493,3041.281a4.09,4.09,0,0,0,.754-.042,2.521,2.521,0,0,0,1.443-.658,3.051,3.051,0,0,0,.912-1.835h-.032a2.031,2.031,0,0,1-1.634.742,2,2,0,0,1-2.037-2.122,2.371,2.371,0,0,1,2.367-2.44c1.411,0,2.281,1.135,2.281,2.907a4.361,4.361,0,0,1-1.188,3.237,3.528,3.528,0,0,1-2.006.923,5.546,5.546,0,0,1-.86.053Zm1.687-5.644c-.785,0-1.348.7-1.348,1.676a1.327,1.327,0,0,0,1.327,1.464,1.576,1.576,0,0,0,1.369-.721.737.737,0,0,0,.074-.34c.01-1.188-.435-2.079-1.411-2.079Z" transform="translate(-886.217 -3034.926)" fill="red"/><path d="M904.927,3035.858H902.3l-.265,1.772a3.689,3.689,0,0,1,.563-.042,2.9,2.9,0,0,1,1.484.371,1.954,1.954,0,0,1,.987,1.772,2.392,2.392,0,0,1-2.568,2.355,3.4,3.4,0,0,1-1.719-.424l.234-.711a3.092,3.092,0,0,0,1.486.382,1.515,1.515,0,0,0,1.623-1.506c0-.881-.6-1.517-1.974-1.517a5.679,5.679,0,0,0-.964.075l.446-3.311h3.3Z" transform="translate(-887.631 -3034.956)" fill="red"/></g><g transform="translate(686.366 2968.855)"><path d="M693.581,3013.482c-1.347,0-2.27-1.262-2.29-3.543,0-2.324,1.006-3.587,2.407-3.587,1.444,0,2.281,1.295,2.281,3.491,0,2.345-.879,3.638-2.387,3.638Zm.054-.721c.945,0,1.4-1.114,1.4-2.875,0-1.7-.424-2.812-1.4-2.812-.848,0-1.4,1.083-1.4,2.812-.02,1.792.531,2.875,1.39,2.875Z" transform="translate(-691.291 -3006.352)" fill="red"/><path d="M698.973,3014.981a.621.621,0,0,1-.616-.667.632.632,0,0,1,.635-.669.618.618,0,0,1,.625.669.625.625,0,0,1-.636.667Z" transform="translate(-692.743 -3007.851)" fill="red"/><path d="M704.933,3007.131a3.541,3.541,0,0,0-.7.052,2.761,2.761,0,0,0-2.4,2.441h.021a2.1,2.1,0,0,1,3.756,1.421,2.31,2.31,0,0,1-2.3,2.439c-1.464,0-2.429-1.145-2.429-2.938a4.288,4.288,0,0,1,1.166-3.108,3.758,3.758,0,0,1,2.206-1.019,4.451,4.451,0,0,1,.679-.053Zm-1.6,5.634c.8,0,1.338-.669,1.338-1.656a1.4,1.4,0,0,0-1.424-1.58,1.533,1.533,0,0,0-1.347.849.882.882,0,0,0-.1.4c.012,1.135.542,1.984,1.517,1.984Z" transform="translate(-693.262 -3006.355)" fill="red"/><path d="M708.093,3012.3a3.22,3.22,0,0,0,1.528.425c1.188,0,1.57-.753,1.561-1.338-.011-.965-.882-1.378-1.783-1.378h-.521v-.7h.521c.679,0,1.539-.35,1.539-1.167,0-.552-.352-1.04-1.211-1.04a2.536,2.536,0,0,0-1.378.457l-.255-.679a3.349,3.349,0,0,1,1.814-.531c1.358,0,1.974.806,1.974,1.644a1.73,1.73,0,0,1-1.272,1.635v.021a1.777,1.777,0,0,1,1.538,1.76c0,1.1-.871,2.069-2.515,2.069a3.528,3.528,0,0,1-1.794-.465Z" transform="translate(-694.692 -3006.352)" fill="red"/></g><g transform="translate(667.332 2991.556)"><path d="M669.623,3042.055c-1.347,0-2.271-1.261-2.291-3.542,0-2.323,1.007-3.587,2.409-3.587,1.443,0,2.281,1.295,2.281,3.491,0,2.345-.881,3.638-2.387,3.638Zm.053-.72c.945,0,1.4-1.115,1.4-2.875,0-1.7-.423-2.812-1.4-2.812-.848,0-1.4,1.083-1.4,2.812-.021,1.792.53,2.875,1.389,2.875Z" transform="translate(-667.332 -3034.926)" fill="red"/><path d="M675.014,3043.554a.622.622,0,0,1-.616-.667.633.633,0,0,1,.637-.669.619.619,0,0,1,.625.669.626.626,0,0,1-.636.667Z" transform="translate(-668.784 -3036.425)" fill="red"/><path d="M677.6,3041.281a4.079,4.079,0,0,0,.753-.042,2.516,2.516,0,0,0,1.443-.658,3.047,3.047,0,0,0,.913-1.835h-.032a2.031,2.031,0,0,1-1.634.742,2,2,0,0,1-2.037-2.122,2.37,2.37,0,0,1,2.367-2.44c1.411,0,2.281,1.135,2.281,2.907a4.358,4.358,0,0,1-1.189,3.237,3.523,3.523,0,0,1-2.005.923,5.545,5.545,0,0,1-.86.053Zm1.687-5.644c-.785,0-1.348.7-1.348,1.676a1.327,1.327,0,0,0,1.327,1.464,1.573,1.573,0,0,0,1.368-.721.726.726,0,0,0,.075-.34c.01-1.188-.435-2.079-1.411-2.079Z" transform="translate(-669.32 -3034.926)" fill="red"/><path d="M688.03,3035.858H685.4l-.265,1.772a3.692,3.692,0,0,1,.563-.042,2.9,2.9,0,0,1,1.484.371,1.954,1.954,0,0,1,.987,1.772,2.391,2.391,0,0,1-2.567,2.355,3.4,3.4,0,0,1-1.719-.424l.234-.711a3.093,3.093,0,0,0,1.486.382,1.515,1.515,0,0,0,1.623-1.506c0-.881-.6-1.517-1.974-1.517a5.682,5.682,0,0,0-.965.075l.446-3.311h3.3Z" transform="translate(-670.734 -3034.956)" fill="red"/></g><g transform="translate(787.166 3081.301)"><path d="M820.461,3155.02c-1.347,0-2.271-1.262-2.291-3.543,0-2.324,1.007-3.587,2.409-3.587,1.443,0,2.281,1.295,2.281,3.491,0,2.345-.881,3.639-2.387,3.639Zm.053-.721c.945,0,1.4-1.115,1.4-2.876,0-1.7-.424-2.811-1.4-2.811-.848,0-1.4,1.083-1.4,2.811-.022,1.793.53,2.876,1.389,2.876Z" transform="translate(-818.17 -3147.89)" fill="red"/><path d="M825.852,3156.519a.622.622,0,0,1-.616-.668.633.633,0,0,1,.637-.669.619.619,0,0,1,.624.669.625.625,0,0,1-.636.668Z" transform="translate(-819.622 -3149.389)" fill="red"/><path d="M828.121,3153.843a3.214,3.214,0,0,0,1.528.425c1.189,0,1.57-.754,1.56-1.338-.01-.966-.881-1.378-1.783-1.378h-.52v-.7h.52c.679,0,1.539-.35,1.539-1.167,0-.552-.351-1.041-1.211-1.041a2.537,2.537,0,0,0-1.378.457l-.255-.678a3.349,3.349,0,0,1,1.815-.531c1.358,0,1.974.806,1.974,1.644a1.728,1.728,0,0,1-1.274,1.634v.021a1.777,1.777,0,0,1,1.539,1.761c0,1.1-.87,2.069-2.514,2.069a3.517,3.517,0,0,1-1.793-.465Z" transform="translate(-820.163 -3147.89)" fill="red"/></g><g transform="translate(762.844 3083.192)"><rect width="21.208" height="1.155" transform="translate(0 1.38)" fill="red"/><g transform="translate(18.907)"><path d="M811.354,3154.187l1.959-1.958-1.959-1.958h1.663l1.958,1.958-1.958,1.958Z" transform="translate(-811.354 -3150.27)" fill="red"/></g></g></g><rect width="400" height="385" transform="translate(810 3328)" fill="none"/></g></svg>