<svg xmlns="http://www.w3.org/2000/svg" width="610" height="248" viewBox="0 0 610 248"><g transform="translate(-495 -19362)"><rect width="610" height="248" transform="translate(495 19362)" fill="none"/><g transform="translate(185.467 19786.389)"><path d="M522.685-374.22l-.945,15.307,34.583,134.929,71.811,23.433,66.52-36.074,8.22-139.391-3.591-15.024Z" fill="#fff" stroke="#454545" stroke-miterlimit="10" stroke-width="1"/><path d="M719.6-382.913l2.457,9.638v15.5L755.5-223.039l72,22.488,65.764-36.236,8.22-138.472-3.024-14.362-.094-10.394Z" fill="#fff" stroke="#454545" stroke-miterlimit="10" stroke-width="1"/><path d="M326.906-354.189l174.8-16.063-6.992,135.118L430.087-201.5l-70.11-21.354Z" fill="#fff" stroke="#454545" stroke-miterlimit="10" stroke-width="1"/><path d="M336.921-354.189l31.748,124.157L428.386-211.7l56.315-29.48,7.382-128.186" fill="none" stroke="#454545" stroke-miterlimit="10" stroke-width="1" stroke-dasharray="3"/><circle cx="1.373" cy="1.373" r="1.373" transform="translate(325.533 -355.461)" fill="#454545"/><circle cx="1.373" cy="1.373" r="1.373" transform="translate(358.769 -224.37)" fill="#454545"/><circle cx="1.373" cy="1.373" r="1.373" transform="translate(428.678 -202.869)" fill="#454545"/><circle cx="1.373" cy="1.373" r="1.373" transform="translate(493.14 -236.625)" fill="#454545"/><circle cx="1.373" cy="1.373" r="1.373" transform="translate(500.227 -371.625)" fill="#454545"/><circle cx="1.373" cy="1.373" r="1.373" transform="translate(521.417 -375.522)" fill="#454545"/><circle cx="1.373" cy="1.373" r="1.373" transform="translate(520.472 -360.286)" fill="#454545"/><circle cx="1.373" cy="1.373" r="1.373" transform="translate(555.054 -225.369)" fill="#454545"/><circle cx="1.373" cy="1.373" r="1.373" transform="translate(626.756 -202.219)" fill="#454545"/><circle cx="1.373" cy="1.373" r="1.373" transform="translate(693.239 -238.16)" fill="#454545"/><circle cx="1.373" cy="1.373" r="1.373" transform="translate(701.318 -377.389)" fill="#454545"/><circle cx="1.373" cy="1.373" r="1.373" transform="translate(718.226 -384.192)" fill="#454545"/><circle cx="1.373" cy="1.373" r="1.373" transform="translate(720.706 -374.643)" fill="#454545"/><circle cx="1.373" cy="1.373" r="1.373" transform="translate(720.706 -359.655)" fill="#454545"/><circle cx="1.373" cy="1.373" r="1.373" transform="translate(753.995 -224.502)" fill="#454545"/><circle cx="1.373" cy="1.373" r="1.373" transform="translate(826.06 -202.073)" fill="#454545"/><circle cx="1.373" cy="1.373" r="1.373" transform="translate(891.883 -238.13)" fill="#454545"/><circle cx="1.373" cy="1.373" r="1.373" transform="translate(728.111 -385.361)" fill="#454545"/><circle cx="1.373" cy="1.373" r="1.373" transform="translate(808.388 -393.109)" fill="#454545"/><circle cx="1.373" cy="1.373" r="1.373" transform="translate(808.388 -382.822)" fill="#454545"/><circle cx="1.373" cy="1.373" r="1.373" transform="translate(897.092 -401.389)" fill="#454545"/><circle cx="1.373" cy="1.373" r="1.373" transform="translate(897.092 -390.995)" fill="#454545"/><circle cx="1.373" cy="1.373" r="1.373" transform="translate(900.115 -376.635)" fill="#454545"/><circle cx="1.373" cy="1.373" r="1.373" transform="translate(888.038 -400.644)" fill="#454545"/><circle cx="1.373" cy="1.373" r="1.373" transform="translate(697.722 -392.27)" fill="#454545"/><circle cx="1.373" cy="1.373" r="1.373" transform="translate(690.316 -391.65)" fill="#454545"/><circle cx="1.373" cy="1.373" r="1.373" transform="translate(693.033 -376.579)" fill="#454545"/><circle cx="1.373" cy="1.373" r="1.373" transform="translate(610.092 -384.103)" fill="#454545"/><circle cx="1.373" cy="1.373" r="1.373" transform="translate(610.092 -368.837)" fill="#454545"/><circle cx="1.373" cy="1.373" r="1.373" transform="translate(529.424 -376.373)" fill="#454545"/><circle cx="1.373" cy="1.373" r="1.373" transform="translate(529.424 -361.349)" fill="#454545"/><circle cx="1.373" cy="1.373" r="1.373" transform="translate(490.849 -370.74)" fill="#454545"/><circle cx="1.373" cy="1.373" r="1.373" transform="translate(413.129 -363.724)" fill="#454545"/><circle cx="1.373" cy="1.373" r="1.373" transform="translate(483.361 -242.672)" fill="#454545"/><circle cx="1.373" cy="1.373" r="1.373" transform="translate(427.509 -212.887)" fill="#454545"/><circle cx="1.373" cy="1.373" r="1.373" transform="translate(367.361 -231.722)" fill="#454545"/><circle cx="1.373" cy="1.373" r="1.373" transform="translate(335.029 -356.365)" fill="#454545"/><path d="M414.307-333.4v88.63l3.874-8.693" fill="none" stroke="#454545" stroke-miterlimit="10" stroke-width="1"/><path d="M612.307-333.4v88.63l3.874-8.693" fill="none" stroke="#454545" stroke-miterlimit="10" stroke-width="1"/><path d="M811.134-333.4v88.63l3.874-8.693" fill="none" stroke="#454545" stroke-miterlimit="10" stroke-width="1"/><line y1="17.102" x2="181.134" transform="translate(521.74 -376.016)" fill="none" stroke="#454545" stroke-miterlimit="10" stroke-width="1" stroke-dasharray="3"/><line y1="16.346" x2="176.409" transform="translate(722.055 -389.622)" fill="none" stroke="#454545" stroke-miterlimit="10" stroke-width="1" stroke-dasharray="3"/><path d="M722.055-358.282l6.343-.466-.142-2.693.319,5.457" fill="none" stroke="#454545" stroke-miterlimit="10" stroke-width="1"/><path d="M722.055-373.316l6.343-.466-.142-2.693.319,5.457" fill="none" stroke="#454545" stroke-miterlimit="10" stroke-width="1"/><path d="M901.674-375.163l-6.358.153L895.2-377.7l.214,5.462" fill="none" stroke="#454545" stroke-miterlimit="10" stroke-width="1"/><path d="M898.434-389.812l-6.337.536-.283-2.682.542,5.439" fill="none" stroke="#454545" stroke-miterlimit="10" stroke-width="1"/><path d="M-18.507,0V-8.531h2.789a3.238,3.238,0,0,1,2.089.574,2.07,2.07,0,0,1,.7,1.7,1.733,1.733,0,0,1-.34,1.058,2.2,2.2,0,0,1-.926.712,1.979,1.979,0,0,1,1.093.735,2.11,2.11,0,0,1,.4,1.292,2.282,2.282,0,0,1-.744,1.8,3.077,3.077,0,0,1-2.1.656Zm1.125-3.99V-.92h1.857a1.788,1.788,0,0,0,1.239-.407,1.43,1.43,0,0,0,.454-1.122q0-1.541-1.676-1.541Zm0-.9h1.7A1.784,1.784,0,0,0-14.5-5.262a1.236,1.236,0,0,0,.442-1,1.216,1.216,0,0,0-.41-1.022,2.017,2.017,0,0,0-1.248-.319h-1.664Zm5.889,1.664A3.745,3.745,0,0,1-11.127-4.9a2.732,2.732,0,0,1,1.02-1.148,2.775,2.775,0,0,1,1.491-.4,2.674,2.674,0,0,1,2.095.9,3.449,3.449,0,0,1,.8,2.385V-3.1a3.777,3.777,0,0,1-.354,1.661A2.692,2.692,0,0,1-7.09-.293,2.807,2.807,0,0,1-8.6.117a2.667,2.667,0,0,1-2.089-.9,3.432,3.432,0,0,1-.8-2.373Zm1.09.129a2.712,2.712,0,0,0,.489,1.693A1.566,1.566,0,0,0-8.6-.768a1.556,1.556,0,0,0,1.313-.647,2.966,2.966,0,0,0,.486-1.813,2.708,2.708,0,0,0-.5-1.69,1.574,1.574,0,0,0-1.315-.647,1.557,1.557,0,0,0-1.295.639A2.944,2.944,0,0,0-10.4-3.1ZM-3.185,0H-4.269V-9h1.084ZM2.241-1.682a.8.8,0,0,0-.331-.683A3.187,3.187,0,0,0,.756-2.783,5.457,5.457,0,0,1-.551-3.205a1.859,1.859,0,0,1-.715-.586A1.4,1.4,0,0,1-1.5-4.6,1.645,1.645,0,0,1-.838-5.918,2.574,2.574,0,0,1,.847-6.457,2.649,2.649,0,0,1,2.6-5.9a1.768,1.768,0,0,1,.671,1.424H2.177A.979.979,0,0,0,1.8-5.244a1.416,1.416,0,0,0-.952-.322,1.482,1.482,0,0,0-.926.258.812.812,0,0,0-.334.674A.658.658,0,0,0-.1-4.043a3.821,3.821,0,0,0,1.122.381,5.847,5.847,0,0,1,1.315.434,1.919,1.919,0,0,1,.747.606,1.491,1.491,0,0,1,.243.864A1.623,1.623,0,0,1,2.646-.4,2.851,2.851,0,0,1,.882.117,3.193,3.193,0,0,1-.466-.152a2.192,2.192,0,0,1-.917-.753,1.815,1.815,0,0,1-.331-1.046H-.63a1.122,1.122,0,0,0,.437.864A1.693,1.693,0,0,0,.882-.768a1.748,1.748,0,0,0,.987-.249A.765.765,0,0,0,2.241-1.682ZM5.915,0H4.831V-6.34H5.915ZM4.743-8.021A.647.647,0,0,1,4.9-8.467a.6.6,0,0,1,.478-.182.614.614,0,0,1,.48.182.64.64,0,0,1,.164.445.619.619,0,0,1-.164.439.626.626,0,0,1-.48.176A.616.616,0,0,1,4.9-7.582.626.626,0,0,1,4.743-8.021ZM8.827,0H7.743V-9H8.827Zm2.912,0H10.655V-9h1.084Zm1.447-3.229A3.745,3.745,0,0,1,13.553-4.9a2.732,2.732,0,0,1,1.02-1.148,2.775,2.775,0,0,1,1.491-.4,2.674,2.674,0,0,1,2.095.9,3.449,3.449,0,0,1,.8,2.385V-3.1A3.777,3.777,0,0,1,18.6-1.438,2.692,2.692,0,0,1,17.59-.293a2.807,2.807,0,0,1-1.515.41,2.667,2.667,0,0,1-2.089-.9,3.432,3.432,0,0,1-.8-2.373Zm1.09.129a2.712,2.712,0,0,0,.489,1.693,1.566,1.566,0,0,0,1.31.639,1.556,1.556,0,0,0,1.313-.647,2.966,2.966,0,0,0,.486-1.813,2.708,2.708,0,0,0-.5-1.69,1.574,1.574,0,0,0-1.315-.647,1.557,1.557,0,0,0-1.295.639A2.944,2.944,0,0,0,14.276-3.1Z" transform="translate(436.854 -293.622)" fill="#161615"/><path d="M-18.507,0V-8.531h2.789a3.238,3.238,0,0,1,2.089.574,2.07,2.07,0,0,1,.7,1.7,1.733,1.733,0,0,1-.34,1.058,2.2,2.2,0,0,1-.926.712,1.979,1.979,0,0,1,1.093.735,2.11,2.11,0,0,1,.4,1.292,2.282,2.282,0,0,1-.744,1.8,3.077,3.077,0,0,1-2.1.656Zm1.125-3.99V-.92h1.857a1.788,1.788,0,0,0,1.239-.407,1.43,1.43,0,0,0,.454-1.122q0-1.541-1.676-1.541Zm0-.9h1.7A1.784,1.784,0,0,0-14.5-5.262a1.236,1.236,0,0,0,.442-1,1.216,1.216,0,0,0-.41-1.022,2.017,2.017,0,0,0-1.248-.319h-1.664Zm5.889,1.664A3.745,3.745,0,0,1-11.127-4.9a2.732,2.732,0,0,1,1.02-1.148,2.775,2.775,0,0,1,1.491-.4,2.674,2.674,0,0,1,2.095.9,3.449,3.449,0,0,1,.8,2.385V-3.1a3.777,3.777,0,0,1-.354,1.661A2.692,2.692,0,0,1-7.09-.293,2.807,2.807,0,0,1-8.6.117a2.667,2.667,0,0,1-2.089-.9,3.432,3.432,0,0,1-.8-2.373Zm1.09.129a2.712,2.712,0,0,0,.489,1.693A1.566,1.566,0,0,0-8.6-.768a1.556,1.556,0,0,0,1.313-.647,2.966,2.966,0,0,0,.486-1.813,2.708,2.708,0,0,0-.5-1.69,1.574,1.574,0,0,0-1.315-.647,1.557,1.557,0,0,0-1.295.639A2.944,2.944,0,0,0-10.4-3.1ZM-3.185,0H-4.269V-9h1.084ZM2.241-1.682a.8.8,0,0,0-.331-.683A3.187,3.187,0,0,0,.756-2.783,5.457,5.457,0,0,1-.551-3.205a1.859,1.859,0,0,1-.715-.586A1.4,1.4,0,0,1-1.5-4.6,1.645,1.645,0,0,1-.838-5.918,2.574,2.574,0,0,1,.847-6.457,2.649,2.649,0,0,1,2.6-5.9a1.768,1.768,0,0,1,.671,1.424H2.177A.979.979,0,0,0,1.8-5.244a1.416,1.416,0,0,0-.952-.322,1.482,1.482,0,0,0-.926.258.812.812,0,0,0-.334.674A.658.658,0,0,0-.1-4.043a3.821,3.821,0,0,0,1.122.381,5.847,5.847,0,0,1,1.315.434,1.919,1.919,0,0,1,.747.606,1.491,1.491,0,0,1,.243.864A1.623,1.623,0,0,1,2.646-.4,2.851,2.851,0,0,1,.882.117,3.193,3.193,0,0,1-.466-.152a2.192,2.192,0,0,1-.917-.753,1.815,1.815,0,0,1-.331-1.046H-.63a1.122,1.122,0,0,0,.437.864A1.693,1.693,0,0,0,.882-.768a1.748,1.748,0,0,0,.987-.249A.765.765,0,0,0,2.241-1.682ZM5.915,0H4.831V-6.34H5.915ZM4.743-8.021A.647.647,0,0,1,4.9-8.467a.6.6,0,0,1,.478-.182.614.614,0,0,1,.48.182.64.64,0,0,1,.164.445.619.619,0,0,1-.164.439.626.626,0,0,1-.48.176A.616.616,0,0,1,4.9-7.582.626.626,0,0,1,4.743-8.021ZM8.827,0H7.743V-9H8.827Zm2.912,0H10.655V-9h1.084Zm1.447-3.229A3.745,3.745,0,0,1,13.553-4.9a2.732,2.732,0,0,1,1.02-1.148,2.775,2.775,0,0,1,1.491-.4,2.674,2.674,0,0,1,2.095.9,3.449,3.449,0,0,1,.8,2.385V-3.1A3.777,3.777,0,0,1,18.6-1.438,2.692,2.692,0,0,1,17.59-.293a2.807,2.807,0,0,1-1.515.41,2.667,2.667,0,0,1-2.089-.9,3.432,3.432,0,0,1-.8-2.373Zm1.09.129a2.712,2.712,0,0,0,.489,1.693,1.566,1.566,0,0,0,1.31.639,1.556,1.556,0,0,0,1.313-.647,2.966,2.966,0,0,0,.486-1.813,2.708,2.708,0,0,0-.5-1.69,1.574,1.574,0,0,0-1.315-.647,1.557,1.557,0,0,0-1.295.639A2.944,2.944,0,0,0,14.276-3.1Z" transform="translate(637.168 -293.622)" fill="#161615"/><path d="M-18.507,0V-8.531h2.789a3.238,3.238,0,0,1,2.089.574,2.07,2.07,0,0,1,.7,1.7,1.733,1.733,0,0,1-.34,1.058,2.2,2.2,0,0,1-.926.712,1.979,1.979,0,0,1,1.093.735,2.11,2.11,0,0,1,.4,1.292,2.282,2.282,0,0,1-.744,1.8,3.077,3.077,0,0,1-2.1.656Zm1.125-3.99V-.92h1.857a1.788,1.788,0,0,0,1.239-.407,1.43,1.43,0,0,0,.454-1.122q0-1.541-1.676-1.541Zm0-.9h1.7A1.784,1.784,0,0,0-14.5-5.262a1.236,1.236,0,0,0,.442-1,1.216,1.216,0,0,0-.41-1.022,2.017,2.017,0,0,0-1.248-.319h-1.664Zm5.889,1.664A3.745,3.745,0,0,1-11.127-4.9a2.732,2.732,0,0,1,1.02-1.148,2.775,2.775,0,0,1,1.491-.4,2.674,2.674,0,0,1,2.095.9,3.449,3.449,0,0,1,.8,2.385V-3.1a3.777,3.777,0,0,1-.354,1.661A2.692,2.692,0,0,1-7.09-.293,2.807,2.807,0,0,1-8.6.117a2.667,2.667,0,0,1-2.089-.9,3.432,3.432,0,0,1-.8-2.373Zm1.09.129a2.712,2.712,0,0,0,.489,1.693A1.566,1.566,0,0,0-8.6-.768a1.556,1.556,0,0,0,1.313-.647,2.966,2.966,0,0,0,.486-1.813,2.708,2.708,0,0,0-.5-1.69,1.574,1.574,0,0,0-1.315-.647,1.557,1.557,0,0,0-1.295.639A2.944,2.944,0,0,0-10.4-3.1ZM-3.185,0H-4.269V-9h1.084ZM2.241-1.682a.8.8,0,0,0-.331-.683A3.187,3.187,0,0,0,.756-2.783,5.457,5.457,0,0,1-.551-3.205a1.859,1.859,0,0,1-.715-.586A1.4,1.4,0,0,1-1.5-4.6,1.645,1.645,0,0,1-.838-5.918,2.574,2.574,0,0,1,.847-6.457,2.649,2.649,0,0,1,2.6-5.9a1.768,1.768,0,0,1,.671,1.424H2.177A.979.979,0,0,0,1.8-5.244a1.416,1.416,0,0,0-.952-.322,1.482,1.482,0,0,0-.926.258.812.812,0,0,0-.334.674A.658.658,0,0,0-.1-4.043a3.821,3.821,0,0,0,1.122.381,5.847,5.847,0,0,1,1.315.434,1.919,1.919,0,0,1,.747.606,1.491,1.491,0,0,1,.243.864A1.623,1.623,0,0,1,2.646-.4,2.851,2.851,0,0,1,.882.117,3.193,3.193,0,0,1-.466-.152a2.192,2.192,0,0,1-.917-.753,1.815,1.815,0,0,1-.331-1.046H-.63a1.122,1.122,0,0,0,.437.864A1.693,1.693,0,0,0,.882-.768a1.748,1.748,0,0,0,.987-.249A.765.765,0,0,0,2.241-1.682ZM5.915,0H4.831V-6.34H5.915ZM4.743-8.021A.647.647,0,0,1,4.9-8.467a.6.6,0,0,1,.478-.182.614.614,0,0,1,.48.182.64.64,0,0,1,.164.445.619.619,0,0,1-.164.439.626.626,0,0,1-.48.176A.616.616,0,0,1,4.9-7.582.626.626,0,0,1,4.743-8.021ZM8.827,0H7.743V-9H8.827Zm2.912,0H10.655V-9h1.084Zm1.447-3.229A3.745,3.745,0,0,1,13.553-4.9a2.732,2.732,0,0,1,1.02-1.148,2.775,2.775,0,0,1,1.491-.4,2.674,2.674,0,0,1,2.095.9,3.449,3.449,0,0,1,.8,2.385V-3.1A3.777,3.777,0,0,1,18.6-1.438,2.692,2.692,0,0,1,17.59-.293a2.807,2.807,0,0,1-1.515.41,2.667,2.667,0,0,1-2.089-.9,3.432,3.432,0,0,1-.8-2.373Zm1.09.129a2.712,2.712,0,0,0,.489,1.693,1.566,1.566,0,0,0,1.31.639,1.556,1.556,0,0,0,1.313-.647,2.966,2.966,0,0,0,.486-1.813,2.708,2.708,0,0,0-.5-1.69,1.574,1.574,0,0,0-1.315-.647,1.557,1.557,0,0,0-1.295.639A2.944,2.944,0,0,0,14.276-3.1Z" transform="translate(834.838 -293.622)" fill="#161615"/></g></g></svg>