<svg xmlns="http://www.w3.org/2000/svg" width="610" height="237" viewBox="0 0 610 237"><g transform="translate(-495 -22407)"><rect width="610" height="237" transform="translate(495 22407)" fill="none"/><g transform="translate(6 2578)"><g transform="translate(505 19854)"><path d="M-470.587-395.077s-45.648,81.162-125.3,103.837c-18.144,5.165-41.49,7.322-67.689,7.322-112.31,0-277.188-39.618-310.925-51.687l-18.287,71.08,106.54,27.191s124.564,25.992,225.57,25.992c30.962,0,59.692-2.439,81.964-8.819,94.932-27.191,143.113-96.363,161.877-124.03l-53.748-50.885Z" transform="translate(994.214 396.331)" fill="#fff" stroke="#454544" stroke-miterlimit="10" stroke-width="1"/><circle cx="1.423" cy="1.423" r="1.423" transform="translate(0 130.19)" fill="#454545" stroke="#707070" stroke-width="1"/><circle cx="1.423" cy="1.423" r="1.423" transform="translate(58.211 145.392)" fill="#454545" stroke="#707070" stroke-width="1"/><circle cx="1.423" cy="1.423" r="1.423" transform="translate(107.113 157.579)" fill="#454545" stroke="#707070" stroke-width="1"/><circle cx="1.423" cy="1.423" r="1.423" transform="translate(314.364 183.294)" fill="#454545" stroke="#707070" stroke-width="1"/><circle cx="1.423" cy="1.423" r="1.423" transform="translate(415.126 174.455)" fill="#454545" stroke="#707070" stroke-width="1"/><circle cx="1.423" cy="1.423" r="1.423" transform="translate(503.476 129.721)" fill="#454545" stroke="#707070" stroke-width="1"/><circle cx="1.423" cy="1.423" r="1.423" transform="translate(575.683 50.683)" fill="#454545" stroke="#707070" stroke-width="1"/><circle cx="1.423" cy="1.423" r="1.423" transform="translate(458.398 71.619)" fill="#454545" stroke="#707070" stroke-width="1"/><circle cx="1.423" cy="1.423" r="1.423" transform="translate(397.057 103.585)" fill="#454545" stroke="#707070" stroke-width="1"/><circle cx="1.423" cy="1.423" r="1.423" transform="translate(522.177 0)" fill="#454545" stroke="#707070" stroke-width="1"/><circle cx="1.423" cy="1.423" r="1.423" transform="translate(314.364 110.974)" fill="#454545" stroke="#707070" stroke-width="1"/><circle cx="1.423" cy="1.423" r="1.423" transform="translate(3.08 118.413)" fill="#454545" stroke="#707070" stroke-width="1"/><circle cx="1.423" cy="1.423" r="1.423" transform="translate(18.332 59.566)" fill="#454545" stroke="#707070" stroke-width="1"/><circle cx="1.423" cy="1.423" r="1.423" transform="translate(15.251 71.329)" fill="#454545" stroke="#707070" stroke-width="1"/><circle cx="1.423" cy="1.423" r="1.423" transform="translate(75.074 74.834)" fill="#454545" stroke="#707070" stroke-width="1"/><path d="M-931.247-241.523l2.1-7.366-3.1-.938,6.362,1.942" transform="translate(990.881 388.338)" fill="rgba(0,0,0,0)" stroke="#454544" stroke-miterlimit="10" stroke-width="1"/><path d="M-660.252-201.226l.009-7.661-3.239-.054,6.65.128" transform="translate(976.09 386.087)" fill="rgba(0,0,0,0)" stroke="#454544" stroke-miterlimit="10" stroke-width="1"/><path d="M-660.216-277.462l-.009,7.661,3.239.054-6.65-.128" transform="translate(976.099 389.858)" fill="rgba(0,0,0,0)" stroke="#454544" stroke-miterlimit="10" stroke-width="1"/><path d="M-913.648-315.706l-2.1,7.366,3.1.938-6.362-1.942" transform="translate(990.153 391.963)" fill="rgba(0,0,0,0)" stroke="#454544" stroke-miterlimit="10" stroke-width="1"/><path d="M-24-2.53c0,1.452-.506,1.837-1.364,1.837a2.283,2.283,0,0,1-.8-.143l-.143.781a3.1,3.1,0,0,0,1.023.176c1.276,0,2.244-.6,2.244-2.574V-7.414H-24Zm6.8.044a3.651,3.651,0,0,0,.033-.451,2.256,2.256,0,0,0-2.2-2.508,2.585,2.585,0,0,0-2.5,2.871A2.472,2.472,0,0,0-19.25.11a4.312,4.312,0,0,0,1.771-.33l-.165-.693a3.5,3.5,0,0,1-1.474.275,1.706,1.706,0,0,1-1.826-1.848Zm-3.729-.693a1.6,1.6,0,0,1,1.485-1.573,1.378,1.378,0,0,1,1.342,1.573ZM-12.144,0a7.5,7.5,0,0,1-.088-1.276V-3.267c0-1.067-.4-2.178-2.024-2.178a3.3,3.3,0,0,0-1.749.473l.22.638a2.653,2.653,0,0,1,1.386-.4A1.1,1.1,0,0,1-13.189-3.5v.11c-2.057-.011-3.2.693-3.2,1.98A1.517,1.517,0,0,0-14.762.121a1.983,1.983,0,0,0,1.628-.792h.033l.077.671Zm-1.023-1.793a1.01,1.01,0,0,1-.055.308,1.325,1.325,0,0,1-1.287.891.857.857,0,0,1-.913-.924c0-1.034,1.2-1.221,2.255-1.2ZM-10.67,0H-9.7V-3.2a1.392,1.392,0,0,1,.066-.451,1.375,1.375,0,0,1,1.3-.99c.913,0,1.232.715,1.232,1.573V0h.968V-3.179c0-1.826-1.144-2.266-1.881-2.266a1.958,1.958,0,0,0-1.76,1H-9.8l-.055-.88h-.858c.033.44.044.891.044,1.441Zm9.229,0L-1.4-.88h.033a1.9,1.9,0,0,0,1.782,1C1.606.121,2.8-.825,2.8-2.728,2.816-4.345,1.881-5.445.561-5.445a1.983,1.983,0,0,0-1.815.979h-.022V-7.81h-.957v6.435C-2.233-.9-2.255-.363-2.277,0Zm.165-3.091a1.908,1.908,0,0,1,.055-.4A1.543,1.543,0,0,1,.253-4.675c1.034,0,1.584.913,1.584,1.98,0,1.221-.6,2.046-1.617,2.046A1.494,1.494,0,0,1-1.232-1.782a1.812,1.812,0,0,1-.044-.352ZM7.854,0a7.5,7.5,0,0,1-.088-1.276V-3.267c0-1.067-.4-2.178-2.024-2.178a3.3,3.3,0,0,0-1.749.473l.22.638A2.653,2.653,0,0,1,5.6-4.73,1.1,1.1,0,0,1,6.809-3.5v.11c-2.057-.011-3.2.693-3.2,1.98A1.517,1.517,0,0,0,5.236.121,1.983,1.983,0,0,0,6.864-.671H6.9L6.974,0ZM6.831-1.793a1.01,1.01,0,0,1-.055.308,1.325,1.325,0,0,1-1.287.891.857.857,0,0,1-.913-.924c0-1.034,1.2-1.221,2.255-1.2Zm-.583-5.83L5.28-6.05h.693L7.315-7.623ZM8.954-.253a3.036,3.036,0,0,0,1.5.363c1.265,0,1.991-.66,1.991-1.6,0-.792-.473-1.254-1.4-1.606-.693-.264-1.012-.462-1.012-.9,0-.4.319-.726.891-.726a2.072,2.072,0,0,1,1.089.308l.242-.7a2.657,2.657,0,0,0-1.309-.33A1.642,1.642,0,0,0,9.108-3.883c0,.638.451,1.166,1.408,1.507.715.264.99.517.99.979,0,.44-.33.792-1.034.792A2.537,2.537,0,0,1,9.2-.99Zm5.7.253V-5.324h-.968V0Zm-.484-7.425a.59.59,0,0,0-.6.605.576.576,0,0,0,.583.594.572.572,0,0,0,.616-.594A.575.575,0,0,0,14.168-7.425Zm5.72,6.5A2.75,2.75,0,0,1,18.7-.66a1.825,1.825,0,0,1-1.848-1.991,1.842,1.842,0,0,1,1.881-2.013,2.245,2.245,0,0,1,1.122.253l.22-.748a3.236,3.236,0,0,0-1.342-.275,2.705,2.705,0,0,0-2.86,2.827A2.529,2.529,0,0,0,18.524.11,3.565,3.565,0,0,0,20.053-.2Zm3.487-4.521a2.6,2.6,0,0,0-2.64,2.827A2.531,2.531,0,0,0,23.287.121a2.6,2.6,0,0,0,2.651-2.827A2.521,2.521,0,0,0,23.375-5.445Zm-.022.726c1.144,0,1.6,1.144,1.6,2.046,0,1.2-.693,2.068-1.617,2.068-.946,0-1.617-.88-1.617-2.046C21.714-3.663,22.209-4.719,23.353-4.719ZM-15.6,11h.957V8.03a3.294,3.294,0,0,0,.77.066A3.072,3.072,0,0,0-11.6,7.282,2.182,2.182,0,0,0-11.033,5.7a1.993,1.993,0,0,0-.649-1.551,3.046,3.046,0,0,0-2.079-.616,11.092,11.092,0,0,0-1.837.143Zm.957-6.633a4.016,4.016,0,0,1,.9-.077c1.056,0,1.749.473,1.749,1.452,0,1.023-.7,1.584-1.859,1.584a3.209,3.209,0,0,1-.792-.077Zm3.74,6.754a.644.644,0,0,0,.66-.693.642.642,0,0,0-.649-.693.65.65,0,0,0-.66.693A.648.648,0,0,0-10.9,11.121Zm8.052-2.453L-2.057,11h1.023l-2.53-7.414H-4.719L-7.238,11h.99l.77-2.332ZM-5.28,7.92l.726-2.145c.143-.451.264-.9.374-1.342h.022c.11.429.22.869.385,1.353l.726,2.134ZM-.011,11H.957V7.8a1.392,1.392,0,0,1,.066-.451,1.375,1.375,0,0,1,1.3-.99c.913,0,1.232.715,1.232,1.573V11h.968V7.821c0-1.826-1.144-2.266-1.881-2.266a1.958,1.958,0,0,0-1.76,1H.858L.8,5.676H-.055c.033.44.044.891.044,1.441Zm9.933,0a7.5,7.5,0,0,1-.088-1.276V7.733c0-1.067-.4-2.178-2.024-2.178a3.3,3.3,0,0,0-1.749.473l.22.638a2.653,2.653,0,0,1,1.386-.4A1.1,1.1,0,0,1,8.877,7.5v.11c-2.057-.011-3.2.693-3.2,1.98A1.517,1.517,0,0,0,7.3,11.121a1.983,1.983,0,0,0,1.628-.792h.033L9.042,11ZM8.9,9.207a1.01,1.01,0,0,1-.055.308,1.325,1.325,0,0,1-1.287.891.857.857,0,0,1-.913-.924c0-1.034,1.2-1.221,2.255-1.2ZM11.572,4.4V5.676h-.825v.737h.825v2.9a1.972,1.972,0,0,0,.374,1.386,1.341,1.341,0,0,0,1.045.407,2.37,2.37,0,0,0,.858-.132l-.044-.726a2.153,2.153,0,0,1-.561.066c-.539,0-.726-.374-.726-1.034V6.413H13.9V5.676H12.518V4.147Zm3.806,6.721a.694.694,0,1,0-.649-.693A.644.644,0,0,0,15.378,11.121ZM-2.86,22V20.053h1v-.759h-1V14.85H-3.9l-3.19,4.565v.638h3.322V22Zm-3.256-2.706v-.022l1.749-2.431c.2-.33.374-.638.594-1.056h.033q-.033.561-.033,1.122v2.387Zm4.675-2.618,1.8,2.607L-1.529,22H-.462l.77-1.2c.2-.319.385-.605.561-.924H.891c.187.319.363.616.572.924L2.244,22h1.1l-1.87-2.75,1.815-2.574H2.244L1.5,17.809c-.176.286-.352.561-.528.88H.935c-.176-.3-.341-.572-.539-.869l-.759-1.144ZM4.642,15.4v1.276H3.817v.737h.825v2.9A1.972,1.972,0,0,0,5.016,21.7a1.341,1.341,0,0,0,1.045.407,2.37,2.37,0,0,0,.858-.132l-.044-.726a2.153,2.153,0,0,1-.561.066c-.539,0-.726-.374-.726-1.034V17.413H6.974v-.737H5.588V15.147ZM-28.089,33h.968V26.4h2.266v-.814h-5.489V26.4h2.255Zm7.524-2.486a3.651,3.651,0,0,0,.033-.451,2.256,2.256,0,0,0-2.2-2.508,2.585,2.585,0,0,0-2.5,2.871,2.472,2.472,0,0,0,2.618,2.684,4.312,4.312,0,0,0,1.771-.33L-21,32.087a3.5,3.5,0,0,1-1.474.275A1.706,1.706,0,0,1-24.3,30.514Zm-3.729-.693a1.6,1.6,0,0,1,1.485-1.573,1.378,1.378,0,0,1,1.342,1.573ZM-19.333,33h.968V25.19h-.968Zm6.424,0A7.5,7.5,0,0,1-13,31.724V29.733c0-1.067-.4-2.178-2.024-2.178a3.3,3.3,0,0,0-1.749.473l.22.638a2.653,2.653,0,0,1,1.386-.4,1.1,1.1,0,0,1,1.21,1.232v.11c-2.057-.011-3.2.693-3.2,1.98a1.517,1.517,0,0,0,1.628,1.529,1.983,1.983,0,0,0,1.628-.792h.033l.077.671Zm-1.023-1.793a1.01,1.01,0,0,1-.055.308,1.325,1.325,0,0,1-1.287.891.857.857,0,0,1-.913-.924c0-1.034,1.2-1.221,2.255-1.2ZM-9.1,35.178h.957V32.285h.022a1.867,1.867,0,0,0,1.639.836c1.254,0,2.42-.946,2.42-2.86,0-1.617-.968-2.706-2.255-2.706a2.093,2.093,0,0,0-1.892,1.034h-.022l-.044-.913h-.869c.022.506.044,1.056.044,1.738Zm.957-5.258a1.57,1.57,0,0,1,.066-.4,1.545,1.545,0,0,1,1.463-1.2c1.023,0,1.584.913,1.584,1.98,0,1.221-.594,2.057-1.617,2.057A1.494,1.494,0,0,1-8.1,31.229a2.18,2.18,0,0,1-.044-.4Zm5.3,3.08h.957V30.162a2.725,2.725,0,0,1,.044-.451,1.358,1.358,0,0,1,1.3-1.243,1.454,1.454,0,0,1,.33.033v-.913a1.047,1.047,0,0,0-.275-.033,1.6,1.6,0,0,0-1.474,1.166h-.044l-.033-1.045h-.847c.033.495.044,1.034.044,1.661Zm4.609,0V27.676H.8V33Zm-.484-7.425a.59.59,0,0,0-.6.6.576.576,0,0,0,.583.594.6.6,0,1,0,.022-1.2ZM3.372,33H4.34V29.8a1.392,1.392,0,0,1,.066-.451,1.375,1.375,0,0,1,1.3-.99c.913,0,1.232.715,1.232,1.573V33H7.9V29.821c0-1.826-1.144-2.266-1.881-2.266a1.958,1.958,0,0,0-1.76,1H4.241l-.055-.88H3.328c.033.44.044.891.044,1.441Zm9.735-.924a2.75,2.75,0,0,1-1.188.264,1.825,1.825,0,0,1-1.848-1.991,1.842,1.842,0,0,1,1.881-2.013,2.245,2.245,0,0,1,1.122.253l.22-.748a3.236,3.236,0,0,0-1.342-.275,2.705,2.705,0,0,0-2.86,2.827,2.529,2.529,0,0,0,2.651,2.717,3.565,3.565,0,0,0,1.529-.308ZM15.372,33V27.676H14.4V33Zm-.484-7.425a.59.59,0,0,0-.6.6.6.6,0,1,0,.6-.6Zm2.09,9.6h.957V32.285h.022a1.867,1.867,0,0,0,1.639.836c1.254,0,2.42-.946,2.42-2.86,0-1.617-.968-2.706-2.255-2.706a2.093,2.093,0,0,0-1.892,1.034h-.022l-.044-.913h-.869c.022.506.044,1.056.044,1.738Zm.957-5.258a1.57,1.57,0,0,1,.066-.4,1.545,1.545,0,0,1,1.463-1.2c1.023,0,1.584.913,1.584,1.98,0,1.221-.594,2.057-1.617,2.057a1.494,1.494,0,0,1-1.452-1.133,2.18,2.18,0,0,1-.044-.4ZM27.065,33a7.5,7.5,0,0,1-.088-1.276V29.733c0-1.067-.4-2.178-2.024-2.178a3.3,3.3,0,0,0-1.749.473l.22.638a2.653,2.653,0,0,1,1.386-.4A1.1,1.1,0,0,1,26.02,29.5v.11c-2.057-.011-3.2.693-3.2,1.98a1.517,1.517,0,0,0,1.628,1.529,1.983,1.983,0,0,0,1.628-.792h.033l.077.671Zm-1.023-1.793a1.01,1.01,0,0,1-.055.308,1.325,1.325,0,0,1-1.287.891.857.857,0,0,1-.913-.924c0-1.034,1.2-1.221,2.255-1.2ZM28.539,33h.968V25.19h-.968Z" transform="translate(315.787 135.236)" fill="#161615"/></g></g></g></svg>