<svg xmlns="http://www.w3.org/2000/svg" width="610" height="527" viewBox="0 0 610 527"><g transform="translate(-495 -21780)"><g transform="translate(404.08 21706.871)"><line y2="278.515" transform="translate(486.202 209.947)" fill="none" stroke="#161615" stroke-miterlimit="10" stroke-width="1.417"/><path d="M415.656,232.107l3.76-.464,3.729-.841,3.673-1.212,3.591-1.574,3.483-1.927,3.352-2.265,3.2-2.589,3.021-2.894,2.822-3.177,2.605-3.442,2.37-3.679,2.117-3.893,1.85-4.08,1.572-4.236,1.281-4.367,23.348-86.3,37.667,5.594,4.48-.66,4.133,1.853,38.678,5.732-4.44,59.029-1.215,14.75L556.3,240.222,549.158,315.2l-3.222,37.509-1.945,26.275-3.036-.206,3.036.206L542.043,411.3l-1.672,36.39-1.351,40.466-1.3,56.688-.654,36.455H435.335L435.3,378.984l3.041-.117-3.041.117-2.26-27.622-1.432-14.2L429.743,322l-2.182-15.116-2.5-15.065-2.819-15.009-3.135-14.946-3.451-14.877-3.765-14.8,3.766-.083" fill="none" stroke="#161615" stroke-miterlimit="10" stroke-width="1.417"/><line x2="0.134" y2="28.567" transform="translate(519.094 110.764)" fill="none" stroke="#161615" stroke-miterlimit="10" stroke-width="1.417"/><line y1="27.375" x2="8.479" transform="translate(519.227 111.956)" fill="none" stroke="#161615" stroke-miterlimit="10" stroke-width="1.417"/><path d="M522.911,135.031a3.036,3.036,0,1,0-.231,1.165,2.042,2.042,0,0,0,.231-1.165" fill="none" stroke="#161615" stroke-miterlimit="10" stroke-width="1.417"/><line y2="278.515" transform="translate(486.202 209.947)" fill="none" stroke="#161615" stroke-miterlimit="10" stroke-width="1.417"/><path d="M411.608,232.142l3.846-.437,3.818-.823,3.764-1.2,3.683-1.574,3.577-1.935,3.447-2.282,3.291-2.613,3.113-2.928,2.914-3.219,2.694-3.49,2.457-3.736,2.2-3.957,1.93-4.15,1.646-4.314,1.35-4.447,23.348-88.472,40.406,5.594,4.481-.66,4.133,1.851,41.417,5.733-3.568,50.142-2.088,25.812-3.519,37.605-10.071,97.692-3.092,33.839L545.3,378.984l-3.036-.225,3.036.225-1.866,28.263-1.64,32.334-1.336,36.412-1.1,44.538-.983,60.769H434.031l-.04-202.316,3.04-.146-3.04.146-2.785-27.662L429.5,337.1l-2.152-15.168-2.473-15.119-2.791-15.064-3.109-15-3.425-14.931-3.74-14.857-4.054-14.773,3.848-.049" fill="none" stroke="#161615" stroke-miterlimit="10" stroke-width="1.417"/><line x2="0.134" y2="30.741" transform="translate(519.094 108.155)" fill="none" stroke="#161615" stroke-miterlimit="10" stroke-width="1.417"/><line y1="29.55" x2="8.479" transform="translate(519.227 109.346)" fill="none" stroke="#161615" stroke-miterlimit="10" stroke-width="1.417"/><path d="M522.867,134.59a3.032,3.032,0,1,0-.231,1.165,2.037,2.037,0,0,0,.231-1.165" fill="none" stroke="#161615" stroke-miterlimit="10" stroke-width="1.417"/><line y2="278.515" transform="translate(486.202 209.947)" fill="none" stroke="#161615" stroke-miterlimit="10" stroke-width="1.417"/><path d="M407.559,232.176l3.933-.41,3.906-.806,3.855-1.193,3.777-1.573,3.671-1.944,3.54-2.3,3.385-2.638,3.206-2.96,3.006-3.262,2.784-3.539,2.543-3.793,2.285-4.02,2.009-4.22,1.721-4.391,1.42-4.529,23.348-90.646,43.145,5.593,4.481-.659,4.132,1.851,44.157,5.734-3.392,50.019L566.207,190.6l-2.893,30.168-4.949,45.2L551.6,326.21l-3.033,30.145-1.971,22.63-3.034-.243,3.034.243-2,28.25-1.534,28.284-1.28,32.358-1.058,40.486-.863,56.726-.189,16.212H432.726l-.039-202.316,3.038-.174-3.038.174-3.311-27.7L427.4,337.048l-2.443-15.178L422.2,306.746l-3.082-15.061-3.4-14.993L412,261.774l-4.03-14.836-4.342-14.747,3.929-.015" fill="none" stroke="#161615" stroke-miterlimit="10" stroke-width="1.417"/><line x2="0.134" y2="32.916" transform="translate(519.094 105.546)" fill="none" stroke="#161615" stroke-miterlimit="10" stroke-width="1.417"/><line y1="31.724" x2="8.479" transform="translate(519.227 106.738)" fill="none" stroke="#161615" stroke-miterlimit="10" stroke-width="1.417"/><path d="M522.828,134.15a3.043,3.043,0,1,0-5.854,1.164,3.049,3.049,0,0,0,1.646,1.648,3.043,3.043,0,0,0,4.208-2.812" fill="none" stroke="#161615" stroke-miterlimit="10" stroke-width="1.417"/><line y2="278.515" transform="translate(486.202 209.947)" fill="none" stroke="#161615" stroke-miterlimit="10" stroke-width="1.417"/><path d="M403.512,232.211l4.018-.385,4-.787,3.946-1.184,3.868-1.574,3.766-1.951,3.635-2.315,3.479-2.663,3.3-2.995,3.1-3.3,2.874-3.589,2.629-3.85,2.368-4.084,2.088-4.29,1.8-4.467,1.491-4.611,23.346-92.819,45.885,5.593,4.481-.661,4.132,1.853,46.9,5.733-2.983,46.6-2.387,30.493-.284,3.208-2.609,26.47-3.862,33.987-9.153,75.469L550.032,356.3,547.9,378.984l-3.033-.259,3.033.259-1.86,24.2-1.676,28.27-1.223,28.306L542.1,496.192l-.726,44.57-.389,40.539H431.421l-.039-202.317,3.037-.2-3.037.2-3.836-27.742-2.243-14.25L422.572,321.8l-3.053-15.128-3.372-15.06-3.69-14.985-4.006-14.9-4.319-14.817L399.5,232.19l4.012.021" fill="none" stroke="#161615" stroke-miterlimit="10" stroke-width="1.417"/><line x2="0.134" y2="35.09" transform="translate(519.094 102.937)" fill="none" stroke="#161615" stroke-miterlimit="10" stroke-width="1.417"/><line y1="33.897" x2="8.479" transform="translate(519.227 104.13)" fill="none" stroke="#161615" stroke-miterlimit="10" stroke-width="1.417"/><path d="M522.794,133.711a3.036,3.036,0,1,0-.231,1.165,2.037,2.037,0,0,0,.231-1.165" fill="none" stroke="#161615" stroke-miterlimit="10" stroke-width="1.417"/><line y2="278.515" transform="translate(486.202 209.947)" fill="none" stroke="#161615" stroke-miterlimit="10" stroke-width="1.417"/><path d="M399.464,232.245l4.1-.358,4.084-.77,4.037-1.175,3.962-1.572,3.859-1.959,3.728-2.332,3.575-2.689,3.392-3.028,3.19-3.344,2.963-3.637,2.715-3.907,2.452-4.148,2.168-4.36,1.87-4.543,1.56-4.7,23.348-94.992,48.623,5.593,4.48-.66,4.133,1.852,49.634,5.734-2.912,47.867-2.155,28.02-.588,6.586-2.711,26.541-3.615,30.287-10.786,83.2-3.488,30.283-1.878,18.95-3.03-.277,3.03.277-1.973,24.188L545.7,427.393l-1.318,28.3-1,32.379-.693,40.519-.406,52.713H430.118l-.039-202.317,3.034-.229-3.034.229L425.718,351.2,423.2,336.936l-3.022-15.2-3.344-15.132-3.662-15.058-3.98-14.977L404.9,261.681l-4.61-14.8-4.921-14.7,4.094.055" fill="none" stroke="#161615" stroke-miterlimit="10" stroke-width="1.417"/><line x2="0.134" y2="37.264" transform="translate(519.094 100.329)" fill="none" stroke="#161615" stroke-miterlimit="10" stroke-width="1.417"/><line y1="36.071" x2="8.479" transform="translate(519.227 101.522)" fill="none" stroke="#161615" stroke-miterlimit="10" stroke-width="1.417"/><path d="M522.763,133.272a3.041,3.041,0,0,0-5.194-2.151,3.041,3.041,0,0,0,0,4.3,3.042,3.042,0,0,0,5.194-2.152" fill="none" stroke="#161615" stroke-miterlimit="10" stroke-width="1.417"/><line y2="278.515" transform="translate(486.202 209.947)" fill="none" stroke="#161615" stroke-miterlimit="10" stroke-width="1.417"/><path d="M395.416,232.28l4.189-.333,4.173-.751,4.128-1.166,4.055-1.572,3.953-1.967,3.823-2.349,3.667-2.714,3.487-3.06,3.281-3.386,3.053-3.687,2.8-3.963,2.535-4.212,2.247-4.431,1.945-4.619,1.63-4.776,23.347-97.166,51.363,5.592,4.48-.66,4.133,1.853,52.373,5.733L577.574,148.7l-1.961,27.073-1.188,13.518-2.38,22.813-3.255,26.572-6.252,45.485-6.283,45.473-3.3,26.555-2.439,22.792-3.03-.294,3.03.294-2.085,24.174-1.6,24.214-1.352,28.292L544.58,484l-.638,36.468-.339,56.78-.013,4.058H428.813l-.039-202.317,3.033-.257-3.033.257-4.886-27.823-2.785-14.28-3.313-15.21-3.634-15.137L410.2,291.478l-4.27-14.969-4.585-14.875-4.9-14.776-5.21-14.668,4.176.09" fill="none" stroke="#161615" stroke-miterlimit="10" stroke-width="1.417"/><line x2="0.134" y2="39.437" transform="translate(519.094 97.721)" fill="none" stroke="#161615" stroke-miterlimit="10" stroke-width="1.417"/><line y1="38.244" x2="8.479" transform="translate(519.227 98.913)" fill="none" stroke="#161615" stroke-miterlimit="10" stroke-width="1.417"/><path d="M522.737,132.835a3.032,3.032,0,1,0-.231,1.165,2.037,2.037,0,0,0,.231-1.165" fill="none" stroke="#161615" stroke-miterlimit="10" stroke-width="1.417"/><line y2="278.515" transform="translate(296.013 209.947)" fill="none" stroke="#161615" stroke-miterlimit="10" stroke-width="1.417"/><path d="M235.15,227.683l2.543-.547,2.483-.93,2.4-1.3,2.3-1.666,2.172-2.013,2.029-2.341,1.863-2.647,1.683-2.929,1.485-3.185,1.275-3.41,1.054-3.6.821-3.766.582-3.891.337-3.983,2.174-71.445,35.173-.338,20.6-.635,4.843-.227,16.508-.974,4.026,6.6,3.672,6.826,3.311,7.029,2.939,7.214,2.558,7.376,2.17,7.518,1.775,7.638,1.377,7.736.973,7.813.567,7.865v36.375l-5.62,69.5-3.268,45.345-2.2,36.3-3.04-.165,3.04.165L348,415.367l-1.47,40.448-1.364,52.611L343.837,581.3H249.494l.268-114.533-.173-87.783,3.043-.053-3.043.053-1.039-28.374-.81-14.6-1.206-15.57L245.005,304.9l-1.848-15.507-2.168-15.466L238.5,258.507l-2.807-15.363-3.123-15.3,2.579-.16" fill="none" stroke="#161615" stroke-miterlimit="10" stroke-width="1.417"/><line y2="278.515" transform="translate(296.013 209.947)" fill="none" stroke="#161615" stroke-miterlimit="10" stroke-width="1.417"/><path d="M231.09,227.73l2.62-.511,2.567-.9,2.491-1.29,2.391-1.664,2.27-2.021,2.127-2.361,1.965-2.679,1.784-2.972,1.588-3.238,1.377-3.473,1.152-3.677.918-3.847.675-3.981.425-4.079,2.173-73.619,35.074-.247,22.066-.58,7.784-.337,17.681-1.01,4.077,6.814,3.713,7.04,3.34,7.247,2.956,7.432,2.563,7.6,2.164,7.738,1.759,7.858,1.348,7.955.932,8.031.516,8.081v36.809l-6.576,72.515-3.661,45.349-2.291,33.278-3.037-.191,3.037.191-2.03,36.374-1.75,40.444-1.58,48.566L343.837,581.3H248.191l.268-114.533-.174-87.783,3.043-.081-3.043.081-1.564-28.414-1.082-14.616-1.5-15.581-1.819-15.546-2.138-15.505-2.459-15.458-2.778-15.4-3.1-15.342-3.412-15.276,2.648-.112" fill="none" stroke="#161615" stroke-miterlimit="10" stroke-width="1.417"/><line y2="278.515" transform="translate(296.013 209.947)" fill="none" stroke="#161615" stroke-miterlimit="10" stroke-width="1.417"/><path d="M227.03,227.777l2.7-.474,2.65-.879,2.579-1.276,2.484-1.661,2.366-2.03,2.227-2.382,2.065-2.71,1.888-3.015,1.69-3.291,1.477-3.536,1.252-3.75,1.015-3.929.767-4.07.514-4.176,2.174-75.793,37.4-.2,22.147-.53,9.683-.4,18.854-1.046,4.129,7.026,3.754,7.255,3.369,7.464,2.973,7.65,2.57,7.815,2.158,7.959,1.741,8.079,1.318,8.174.893,8.248.463,8.3v37.244l-7.062,69.484-3.86,42.323-2.614,33.28-.426,6.055-3.036-.209,3.036.209-2,32.32-1.77,36.392-1.629,44.513-1.616,60.739-.641,28.352H246.885l.269-114.533-.173-87.783,3.041-.108-3.041.108L244.89,350.53,243.537,335.9l-1.786-15.59-2.109-15.551-2.428-15.5L234.465,273.8,231.4,258.415l-3.385-15.323-3.7-15.25,2.719-.065" fill="none" stroke="#161615" stroke-miterlimit="10" stroke-width="1.417"/><line y2="278.515" transform="translate(296.013 209.947)" fill="none" stroke="#161615" stroke-miterlimit="10" stroke-width="1.417"/><path d="M222.969,227.825l2.774-.437,2.734-.855,2.668-1.262,2.576-1.658,2.463-2.039,2.326-2.4,2.167-2.743,1.989-3.056,1.792-3.345,1.579-3.6,1.351-3.823,1.111-4.01.861-4.16.6-4.272,2.174-77.967,38.251-.14,23.525-.5,11.756-.454,20.028-1.082,4.18,7.237,3.8,7.469,3.4,7.681,2.99,7.869,2.575,8.035,2.152,8.179,1.724,8.3,1.29,8.394.852,8.465.412,8.514v37.679l-7.158,63.43-4.042,39.294-3,33.279-1.2,15.138-3.035-.228,3.035.228-2.173,32.309-1.9,36.385-1.583,40.465-1.5,52.646-.937,40.512H245.581l.268-114.534-.173-87.783,3.04-.136-3.04.136-2.616-28.493-1.625-14.647-2.076-15.6-2.4-15.555-2.719-15.5L231.2,273.745l-3.357-15.376-3.675-15.3-3.99-15.223,2.789-.018" fill="none" stroke="#161615" stroke-miterlimit="10" stroke-width="1.417"/><line y2="278.515" transform="translate(296.013 209.947)" fill="none" stroke="#161615" stroke-miterlimit="10" stroke-width="1.417"/><path d="M218.91,227.872l2.851-.4,2.817-.828,2.756-1.249,2.67-1.655,2.558-2.049,2.426-2.422,2.269-2.774,2.09-3.1,1.9-3.4,1.68-3.663,1.451-3.9,1.207-4.09.953-4.25.689-4.371,2.174-80.139,40.491-.1,24.9-.5,12.444-.464,21.2-1.118,4.233,7.448,3.835,7.684,3.426,7.9,3.008,8.088,2.581,8.255,2.147,8.4,1.706,8.518,1.261,8.613.811,8.684.361,8.728v38.115l-7.843,63.42-4.421,39.294-3.268,33.284-1.3,15.143-3.034-.247,3.034.247-2.082,28.256L351,439.57l-1.624,36.41-1.453,44.542L346.445,581.3H244.277l.269-114.533-.173-87.784,3.038-.164-3.038.164-3.144-28.533-1.9-14.663-2.366-15.61-2.689-15.559-3.009-15.5-3.329-15.434-3.647-15.361-3.964-15.283-4.279-15.2,2.859.029" fill="none" stroke="#161615" stroke-miterlimit="10" stroke-width="1.417"/><line y2="278.515" transform="translate(296.013 209.947)" fill="none" stroke="#161615" stroke-miterlimit="10" stroke-width="1.417"/><path d="M214.849,227.919l2.929-.364,2.9-.8,2.845-1.234,2.763-1.654,2.656-2.056,2.524-2.444,2.37-2.8,2.194-3.143,2-3.45,1.781-3.727,1.55-3.967,1.3-4.173,1.045-4.34.778-4.466,2.174-82.313,37.8-.012,26.284-.4,18.058-.61,22.375-1.153,4.284,7.659,3.875,7.9,3.455,8.114,3.026,8.306,2.587,8.475,2.141,8.619,1.689,8.738,1.231,8.832.772,8.9.308,8.944v38.549L366.4,288.231,361.915,324.5l-3.33,30.255-2.31,24.233-3.032-.266,3.032.266-2.236,28.244-1.792,28.28-1.6,32.356-1.481,40.49L347.59,569.14l-.276,12.161H242.972l.269-114.533-.173-87.784,3.037-.191-3.037.191L239.4,350.411l-2.167-14.678-2.656-15.621L231.6,304.55l-3.3-15.5-3.619-15.426-3.937-15.348-4.254-15.263-4.568-15.172,2.929.076" fill="none" stroke="#161615" stroke-miterlimit="10" stroke-width="1.417"/></g><rect width="610" height="527" transform="translate(495 21780)" fill="none"/></g></svg>