<svg xmlns="http://www.w3.org/2000/svg" width="400" height="512" viewBox="0 0 400 512"><g transform="translate(-600 -8476)"><rect width="5" height="28" transform="translate(600 8476)" fill="#339be8"/><path d="M1.073,0V-9.242H4.094a3.507,3.507,0,0,1,2.263.622,2.242,2.242,0,0,1,.759,1.841,1.877,1.877,0,0,1-.368,1.146,2.387,2.387,0,0,1-1,.771,2.143,2.143,0,0,1,1.184.8,2.286,2.286,0,0,1,.435,1.4A2.472,2.472,0,0,1,6.557-.711,3.334,3.334,0,0,1,4.278,0ZM2.292-4.323V-1H4.3a1.938,1.938,0,0,0,1.343-.441,1.549,1.549,0,0,0,.492-1.216q0-1.669-1.815-1.669Zm0-.978H4.132a1.932,1.932,0,0,0,1.279-.4,1.339,1.339,0,0,0,.479-1.085,1.317,1.317,0,0,0-.444-1.108,2.186,2.186,0,0,0-1.352-.346h-1.8ZM8.671-3.5a4.057,4.057,0,0,1,.4-1.815,2.96,2.96,0,0,1,1.1-1.244A3.007,3.007,0,0,1,11.788-7a2.9,2.9,0,0,1,2.269.971,3.736,3.736,0,0,1,.866,2.583v.083a4.092,4.092,0,0,1-.384,1.8,2.916,2.916,0,0,1-1.1,1.241A3.041,3.041,0,0,1,11.8.127,2.889,2.889,0,0,1,9.537-.844a3.718,3.718,0,0,1-.866-2.571Zm1.181.14a2.938,2.938,0,0,0,.53,1.834A1.7,1.7,0,0,0,11.8-.832a1.686,1.686,0,0,0,1.422-.7A3.213,3.213,0,0,0,13.749-3.5a2.933,2.933,0,0,0-.536-1.831,1.705,1.705,0,0,0-1.425-.7,1.686,1.686,0,0,0-1.4.692A3.189,3.189,0,0,0,9.852-3.358ZM17.672,0H16.5V-9.75h1.174ZM23.55-1.822a.864.864,0,0,0-.359-.74,3.452,3.452,0,0,0-1.25-.454,5.912,5.912,0,0,1-1.416-.457,2.014,2.014,0,0,1-.774-.635,1.518,1.518,0,0,1-.251-.876,1.782,1.782,0,0,1,.714-1.428A2.789,2.789,0,0,1,22.039-7a2.87,2.87,0,0,1,1.895.6,1.915,1.915,0,0,1,.727,1.542H23.48a1.06,1.06,0,0,0-.409-.832,1.534,1.534,0,0,0-1.031-.349,1.606,1.606,0,0,0-1,.279.879.879,0,0,0-.362.73.712.712,0,0,0,.336.641,4.139,4.139,0,0,0,1.216.413,6.334,6.334,0,0,1,1.425.47,2.079,2.079,0,0,1,.809.657,1.615,1.615,0,0,1,.263.936,1.758,1.758,0,0,1-.736,1.476,3.089,3.089,0,0,1-1.911.555,3.459,3.459,0,0,1-1.46-.292,2.375,2.375,0,0,1-.993-.816,1.966,1.966,0,0,1-.359-1.133h1.174a1.216,1.216,0,0,0,.473.936,1.835,1.835,0,0,0,1.165.346,1.894,1.894,0,0,0,1.07-.27A.829.829,0,0,0,23.55-1.822ZM27.53,0H26.355V-6.868H27.53ZM26.26-8.69a.7.7,0,0,1,.175-.482.655.655,0,0,1,.517-.2.666.666,0,0,1,.521.2.694.694,0,0,1,.178.482.671.671,0,0,1-.178.476.678.678,0,0,1-.521.19.667.667,0,0,1-.517-.19A.678.678,0,0,1,26.26-8.69ZM30.685,0H29.51V-9.75h1.174Zm3.155,0H32.665V-9.75h1.174Zm1.568-3.5a4.057,4.057,0,0,1,.4-1.815,2.96,2.96,0,0,1,1.1-1.244A3.007,3.007,0,0,1,38.524-7a2.9,2.9,0,0,1,2.269.971A3.736,3.736,0,0,1,41.66-3.44v.083a4.092,4.092,0,0,1-.384,1.8,2.916,2.916,0,0,1-1.1,1.241,3.041,3.041,0,0,1-1.641.444,2.889,2.889,0,0,1-2.263-.971,3.718,3.718,0,0,1-.866-2.571Zm1.181.14a2.938,2.938,0,0,0,.53,1.834,1.7,1.7,0,0,0,1.419.692,1.686,1.686,0,0,0,1.422-.7A3.213,3.213,0,0,0,40.485-3.5a2.933,2.933,0,0,0-.536-1.831,1.705,1.705,0,0,0-1.425-.7,1.686,1.686,0,0,0-1.4.692A3.189,3.189,0,0,0,36.588-3.358ZM47.944-8.531v1.663h1.282v.908H47.944V-1.7a.951.951,0,0,0,.171.619.722.722,0,0,0,.584.206,2.843,2.843,0,0,0,.559-.076V0a3.4,3.4,0,0,1-.9.127,1.462,1.462,0,0,1-1.187-.476,2.045,2.045,0,0,1-.4-1.352V-5.96h-1.25v-.908h1.25V-8.531Zm5.973,2.717a3.519,3.519,0,0,0-.578-.044,1.547,1.547,0,0,0-1.568.984V0H50.6V-6.868H51.74l.019.793A1.829,1.829,0,0,1,53.4-7a1.2,1.2,0,0,1,.521.089ZM58.982,0a2.467,2.467,0,0,1-.165-.724,2.62,2.62,0,0,1-1.955.851A2.424,2.424,0,0,1,55.2-.448,1.859,1.859,0,0,1,54.545-1.9a1.942,1.942,0,0,1,.816-1.666,3.846,3.846,0,0,1,2.295-.594H58.8V-4.7a1.319,1.319,0,0,0-.368-.981,1.48,1.48,0,0,0-1.085-.365,1.712,1.712,0,0,0-1.054.317.935.935,0,0,0-.425.768H54.685a1.621,1.621,0,0,1,.365-.993,2.491,2.491,0,0,1,.99-.759A3.331,3.331,0,0,1,57.415-7a2.715,2.715,0,0,1,1.86.594,2.141,2.141,0,0,1,.7,1.635v3.161a3.865,3.865,0,0,0,.241,1.5V0ZM57.034-.9a2.064,2.064,0,0,0,1.047-.286,1.728,1.728,0,0,0,.717-.743V-3.333h-.92q-2.158,0-2.158,1.263a1.069,1.069,0,0,0,.368.863A1.415,1.415,0,0,0,57.034-.9Zm5.884-5.973.032.762A2.536,2.536,0,0,1,64.987-7a1.964,1.964,0,0,1,1.961,1.1,2.6,2.6,0,0,1,.892-.8,2.634,2.634,0,0,1,1.3-.3q2.26,0,2.3,2.393V0H70.262V-4.532a1.577,1.577,0,0,0-.336-1.1A1.482,1.482,0,0,0,68.8-6a1.557,1.557,0,0,0-1.085.39,1.584,1.584,0,0,0-.5,1.051V0H66.028V-4.5A1.31,1.31,0,0,0,64.562-6a1.571,1.571,0,0,0-1.581.984V0H61.807V-6.868Zm16.091,3.51a4.113,4.113,0,0,1-.717,2.526A2.3,2.3,0,0,1,76.35.127a2.519,2.519,0,0,1-1.968-.793V2.641H73.208V-6.868H74.28l.057.762A2.419,2.419,0,0,1,76.331-7a2.342,2.342,0,0,1,1.958.933,4.157,4.157,0,0,1,.72,2.6Zm-1.174-.133a3.035,3.035,0,0,0-.5-1.834A1.6,1.6,0,0,0,75.981-6a1.726,1.726,0,0,0-1.6.946v3.282a1.73,1.73,0,0,0,1.612.939,1.587,1.587,0,0,0,1.343-.67A3.313,3.313,0,0,0,77.835-3.491ZM80.19-3.5a4.057,4.057,0,0,1,.4-1.815,2.96,2.96,0,0,1,1.1-1.244A3.007,3.007,0,0,1,83.307-7a2.9,2.9,0,0,1,2.269.971,3.736,3.736,0,0,1,.866,2.583v.083a4.092,4.092,0,0,1-.384,1.8,2.916,2.916,0,0,1-1.1,1.241,3.041,3.041,0,0,1-1.641.444,2.889,2.889,0,0,1-2.263-.971,3.718,3.718,0,0,1-.866-2.571Zm1.181.14a2.938,2.938,0,0,0,.53,1.834,1.7,1.7,0,0,0,1.419.692,1.686,1.686,0,0,0,1.422-.7A3.213,3.213,0,0,0,85.268-3.5a2.933,2.933,0,0,0-.536-1.831,1.705,1.705,0,0,0-1.425-.7,1.686,1.686,0,0,0-1.4.692A3.189,3.189,0,0,0,81.371-3.358ZM89.191,0H88.017V-9.75h1.174Zm3.155,0H91.165V-6.868h1.181Zm.013-9.744H93.78l-1.7,1.866h-.946Zm3.034,2.875L95.431-6A2.5,2.5,0,0,1,97.487-7q2.177,0,2.2,2.457V0H98.509V-4.545a1.581,1.581,0,0,0-.34-1.1A1.361,1.361,0,0,0,97.132-6a1.7,1.7,0,0,0-1,.3,2.069,2.069,0,0,0-.673.8V0H94.282V-6.868Z" transform="translate(617 8495)" fill="#12263f"/><g transform="translate(0 -43)"><g transform="translate(0 18)"><g transform="translate(-400.096 7646.513)"><rect width="198.55" height="448.689" transform="translate(1079.095 916.487)" fill="none" stroke="#9fb0b7" stroke-miterlimit="10" stroke-width="2.036"/><line x2="240.973" transform="translate(1079.095 1113.017)" fill="none" stroke="#9fb0b7" stroke-miterlimit="10" stroke-width="2.036"/><path d="M1106.319,916.487l161.418,9.235,9.909,128.712s-3.5,50.5,44.154,58.583l-20.418,252.159h-215.36l-6.542-250.331v-.673S1086.695,985.941,1106.319,916.487Z" fill="none" stroke="#323333" stroke-miterlimit="10" stroke-width="2.036"/><path d="M0,0V253.094" transform="translate(1193.281 1113.017)" fill="none" stroke="#9fb0b7" stroke-width="2.036"/><text transform="translate(1219.995 954.891)" font-size="15" font-family="Roboto-Regular, Roboto"><tspan x="0" y="0">7-8 cm</tspan></text><path d="M2.856-5.991H3.875A2.238,2.238,0,0,0,5.383-6.5a1.688,1.688,0,0,0,.549-1.326A1.654,1.654,0,0,0,4.065-9.7a1.943,1.943,0,0,0-1.4.5,1.756,1.756,0,0,0-.524,1.329H.784A2.72,2.72,0,0,1,1.71-9.972a3.375,3.375,0,0,1,2.355-.839,3.335,3.335,0,0,1,2.366.8,2.884,2.884,0,0,1,.857,2.219,2.341,2.341,0,0,1-.45,1.348,2.72,2.72,0,0,1-1.227.974,2.621,2.621,0,0,1,1.359.923,2.563,2.563,0,0,1,.48,1.575A2.909,2.909,0,0,1,6.511-.7,3.511,3.511,0,0,1,4.072.146,3.6,3.6,0,0,1,1.63-.667,2.7,2.7,0,0,1,.688-2.812H2.051A1.743,1.743,0,0,0,2.6-1.465a2.089,2.089,0,0,0,1.472.505,2.05,2.05,0,0,0,1.5-.513,1.976,1.976,0,0,0,.52-1.472,1.793,1.793,0,0,0-.571-1.428,2.489,2.489,0,0,0-1.648-.513H2.856ZM16.34-.959A1.952,1.952,0,0,0,17.607-1.4a1.546,1.546,0,0,0,.6-1.1H19.49a2.457,2.457,0,0,1-.469,1.3,3.087,3.087,0,0,1-1.154.981A3.329,3.329,0,0,1,16.34.146a3.265,3.265,0,0,1-2.574-1.08,4.3,4.3,0,0,1-.956-2.955v-.227a4.771,4.771,0,0,1,.425-2.058,3.236,3.236,0,0,1,1.219-1.4,3.464,3.464,0,0,1,1.879-.5,3.178,3.178,0,0,1,2.216.8A2.853,2.853,0,0,1,19.49-5.2H18.208a1.867,1.867,0,0,0-.582-1.263,1.811,1.811,0,0,0-1.293-.494,1.9,1.9,0,0,0-1.6.743,3.491,3.491,0,0,0-.568,2.15v.256A3.422,3.422,0,0,0,14.729-1.7,1.906,1.906,0,0,0,16.34-.959Zm5.947-6.965.037.879a2.927,2.927,0,0,1,2.351-1.025A2.266,2.266,0,0,1,26.938-6.8a3,3,0,0,1,1.029-.923,3.039,3.039,0,0,1,1.5-.352q2.607,0,2.651,2.761V0H30.762V-5.229A1.82,1.82,0,0,0,30.374-6.5a1.71,1.71,0,0,0-1.3-.421,1.8,1.8,0,0,0-1.252.45,1.827,1.827,0,0,0-.579,1.212V0H25.876V-5.193a1.512,1.512,0,0,0-1.692-1.729,1.813,1.813,0,0,0-1.824,1.135V0H21.006V-7.925Z" transform="translate(1164.031 935.221)"/><path d="M7.354-7.881A2.476,2.476,0,0,1,6.932-6.46a2.865,2.865,0,0,1-1.139.974A3.056,3.056,0,0,1,7.115-4.438,2.636,2.636,0,0,1,7.6-2.878a2.787,2.787,0,0,1-.934,2.2,3.588,3.588,0,0,1-2.457.82A3.572,3.572,0,0,1,1.747-.677a2.8,2.8,0,0,1-.927-2.2,2.714,2.714,0,0,1,.472-1.56A2.94,2.94,0,0,1,2.6-5.493a2.8,2.8,0,0,1-1.121-.974,2.512,2.512,0,0,1-.41-1.414,2.757,2.757,0,0,1,.864-2.139,3.242,3.242,0,0,1,2.278-.791,3.245,3.245,0,0,1,2.274.791A2.751,2.751,0,0,1,7.354-7.881ZM6.248-2.908A1.965,1.965,0,0,0,5.68-4.365,2.013,2.013,0,0,0,4.2-4.929a1.978,1.978,0,0,0-1.469.557,1.988,1.988,0,0,0-.553,1.465,1.893,1.893,0,0,0,.538,1.428,2.066,2.066,0,0,0,1.5.52,2.06,2.06,0,0,0,1.494-.524A1.888,1.888,0,0,0,6.248-2.908ZM4.211-9.7A1.748,1.748,0,0,0,2.919-9.2a1.816,1.816,0,0,0-.494,1.344,1.807,1.807,0,0,0,.487,1.315,1.729,1.729,0,0,0,1.3.5,1.729,1.729,0,0,0,1.3-.5A1.807,1.807,0,0,0,6-7.859a1.808,1.808,0,0,0-.505-1.326A1.724,1.724,0,0,0,4.211-9.7ZM16.34-.959A1.952,1.952,0,0,0,17.607-1.4a1.546,1.546,0,0,0,.6-1.1H19.49a2.457,2.457,0,0,1-.469,1.3,3.087,3.087,0,0,1-1.154.981A3.329,3.329,0,0,1,16.34.146a3.265,3.265,0,0,1-2.574-1.08,4.3,4.3,0,0,1-.956-2.955v-.227a4.771,4.771,0,0,1,.425-2.058,3.236,3.236,0,0,1,1.219-1.4,3.464,3.464,0,0,1,1.879-.5,3.178,3.178,0,0,1,2.216.8A2.853,2.853,0,0,1,19.49-5.2H18.208a1.867,1.867,0,0,0-.582-1.263,1.811,1.811,0,0,0-1.293-.494,1.9,1.9,0,0,0-1.6.743,3.491,3.491,0,0,0-.568,2.15v.256A3.422,3.422,0,0,0,14.729-1.7,1.906,1.906,0,0,0,16.34-.959Zm5.947-6.965.037.879a2.927,2.927,0,0,1,2.351-1.025A2.266,2.266,0,0,1,26.938-6.8a3,3,0,0,1,1.029-.923,3.039,3.039,0,0,1,1.5-.352q2.607,0,2.651,2.761V0H30.762V-5.229A1.82,1.82,0,0,0,30.374-6.5a1.71,1.71,0,0,0-1.3-.421,1.8,1.8,0,0,0-1.252.45,1.827,1.827,0,0,0-.579,1.212V0H25.876V-5.193a1.512,1.512,0,0,0-1.692-1.729,1.813,1.813,0,0,0-1.824,1.135V0H21.006V-7.925Z" transform="translate(1117.987 944.344)"/><path d="M1.238,0V-10.664H4.724a4.047,4.047,0,0,1,2.611.718A2.587,2.587,0,0,1,8.21-7.822,2.166,2.166,0,0,1,7.786-6.5a2.754,2.754,0,0,1-1.157.89,2.473,2.473,0,0,1,1.366.919,2.638,2.638,0,0,1,.5,1.615A2.852,2.852,0,0,1,7.566-.82,3.847,3.847,0,0,1,4.937,0ZM2.644-4.988V-1.15H4.966a2.236,2.236,0,0,0,1.549-.509,1.788,1.788,0,0,0,.568-1.4q0-1.926-2.095-1.926Zm0-1.128H4.768a2.23,2.23,0,0,0,1.476-.461A1.545,1.545,0,0,0,6.8-7.83a1.52,1.52,0,0,0-.513-1.278,2.522,2.522,0,0,0-1.56-.4H2.644ZM10-4.036a4.681,4.681,0,0,1,.458-2.095,3.415,3.415,0,0,1,1.274-1.436A3.469,3.469,0,0,1,13.6-8.071a3.342,3.342,0,0,1,2.618,1.121,4.311,4.311,0,0,1,1,2.981v.1A4.722,4.722,0,0,1,16.776-1.8,3.365,3.365,0,0,1,15.509-.366a3.509,3.509,0,0,1-1.893.513A3.334,3.334,0,0,1,11-.974,4.29,4.29,0,0,1,10-3.94Zm1.362.161a3.39,3.39,0,0,0,.612,2.117,1.957,1.957,0,0,0,1.637.8,1.945,1.945,0,0,0,1.641-.809,3.707,3.707,0,0,0,.608-2.267,3.384,3.384,0,0,0-.619-2.113A1.968,1.968,0,0,0,13.6-6.958a1.946,1.946,0,0,0-1.619.8A3.68,3.68,0,0,0,11.367-3.875ZM20.391,0H19.036V-11.25h1.355Zm6.782-2.1a1,1,0,0,0-.414-.853,3.983,3.983,0,0,0-1.443-.524,6.822,6.822,0,0,1-1.633-.527,2.324,2.324,0,0,1-.894-.732A1.752,1.752,0,0,1,22.5-5.75,2.056,2.056,0,0,1,23.324-7.4a3.218,3.218,0,0,1,2.106-.674,3.311,3.311,0,0,1,2.186.7,2.21,2.21,0,0,1,.839,1.78H27.092a1.223,1.223,0,0,0-.472-.959,1.77,1.77,0,0,0-1.19-.4,1.852,1.852,0,0,0-1.157.322,1.014,1.014,0,0,0-.417.842.822.822,0,0,0,.388.74,4.776,4.776,0,0,0,1.4.476,7.308,7.308,0,0,1,1.644.542,2.4,2.4,0,0,1,.934.758,1.864,1.864,0,0,1,.3,1.08,2.028,2.028,0,0,1-.85,1.7,3.564,3.564,0,0,1-2.2.641A3.991,3.991,0,0,1,23.789-.19a2.74,2.74,0,0,1-1.146-.941,2.268,2.268,0,0,1-.414-1.307h1.355a1.4,1.4,0,0,0,.546,1.08,2.117,2.117,0,0,0,1.344.4,2.185,2.185,0,0,0,1.234-.311A.956.956,0,0,0,27.173-2.1ZM31.765,0H30.41V-7.925h1.355ZM30.3-10.027a.809.809,0,0,1,.2-.557.756.756,0,0,1,.6-.227.768.768,0,0,1,.6.227.8.8,0,0,1,.205.557.774.774,0,0,1-.205.549.782.782,0,0,1-.6.22.77.77,0,0,1-.6-.22A.782.782,0,0,1,30.3-10.027ZM35.405,0H34.05V-11.25h1.355Zm3.64,0H37.69V-11.25h1.355Zm1.809-4.036a4.681,4.681,0,0,1,.458-2.095,3.415,3.415,0,0,1,1.274-1.436,3.469,3.469,0,0,1,1.864-.505,3.342,3.342,0,0,1,2.618,1.121,4.311,4.311,0,0,1,1,2.981v.1A4.722,4.722,0,0,1,47.626-1.8,3.365,3.365,0,0,1,46.359-.366a3.509,3.509,0,0,1-1.893.513A3.334,3.334,0,0,1,41.854-.974a4.29,4.29,0,0,1-1-2.966Zm1.362.161a3.39,3.39,0,0,0,.612,2.117,1.957,1.957,0,0,0,1.637.8,1.945,1.945,0,0,0,1.641-.809,3.707,3.707,0,0,0,.608-2.267,3.384,3.384,0,0,0-.619-2.113,1.968,1.968,0,0,0-1.644-.809,1.946,1.946,0,0,0-1.619.8A3.68,3.68,0,0,0,42.217-3.875Zm13.1-5.969v1.919H56.8v1.047H55.32v4.915a1.1,1.1,0,0,0,.2.714.833.833,0,0,0,.674.238,3.281,3.281,0,0,0,.645-.088V0A3.928,3.928,0,0,1,55.8.146,1.687,1.687,0,0,1,54.426-.4a2.36,2.36,0,0,1-.461-1.56V-6.877H52.522V-7.925h1.443V-9.844Zm6.892,3.135a4.06,4.06,0,0,0-.667-.051,1.786,1.786,0,0,0-1.809,1.135V0H58.381V-7.925H59.7l.022.916a2.11,2.11,0,0,1,1.89-1.062,1.384,1.384,0,0,1,.6.1ZM68.057,0a2.846,2.846,0,0,1-.19-.835A3.023,3.023,0,0,1,65.61.146a2.8,2.8,0,0,1-1.923-.663A2.145,2.145,0,0,1,62.937-2.2a2.24,2.24,0,0,1,.941-1.923A4.437,4.437,0,0,1,66.526-4.8h1.318v-.623a1.522,1.522,0,0,0-.425-1.132,1.707,1.707,0,0,0-1.252-.421,1.976,1.976,0,0,0-1.216.366,1.079,1.079,0,0,0-.491.886H63.1a1.87,1.87,0,0,1,.421-1.146,2.874,2.874,0,0,1,1.143-.875,3.844,3.844,0,0,1,1.586-.322,3.133,3.133,0,0,1,2.146.685A2.47,2.47,0,0,1,69.2-5.5v3.647a4.459,4.459,0,0,0,.278,1.736V0ZM65.808-1.033a2.381,2.381,0,0,0,1.208-.33,1.994,1.994,0,0,0,.828-.857V-3.845H66.782q-2.49,0-2.49,1.458a1.234,1.234,0,0,0,.425,1A1.633,1.633,0,0,0,65.808-1.033ZM72.6-7.925l.037.879a2.927,2.927,0,0,1,2.351-1.025A2.266,2.266,0,0,1,77.249-6.8a3,3,0,0,1,1.029-.923,3.039,3.039,0,0,1,1.5-.352q2.607,0,2.651,2.761V0H81.072V-5.229A1.82,1.82,0,0,0,80.684-6.5a1.71,1.71,0,0,0-1.3-.421,1.8,1.8,0,0,0-1.252.45,1.827,1.827,0,0,0-.579,1.212V0H76.187V-5.193a1.512,1.512,0,0,0-1.692-1.729,1.813,1.813,0,0,0-1.824,1.135V0H71.316V-7.925Zm18.567,4.05a4.745,4.745,0,0,1-.828,2.915A2.653,2.653,0,0,1,88.1.146a2.906,2.906,0,0,1-2.271-.916V3.047H84.47V-7.925h1.238l.066.879a2.791,2.791,0,0,1,2.3-1.025,2.7,2.7,0,0,1,2.26,1.077,4.8,4.8,0,0,1,.831,3ZM89.81-4.028a3.5,3.5,0,0,0-.571-2.117,1.84,1.84,0,0,0-1.567-.776A1.992,1.992,0,0,0,85.825-5.83v3.787a2,2,0,0,0,1.86,1.084,1.832,1.832,0,0,0,1.549-.773A3.822,3.822,0,0,0,89.81-4.028Zm2.717-.007a4.681,4.681,0,0,1,.458-2.095,3.415,3.415,0,0,1,1.274-1.436,3.469,3.469,0,0,1,1.864-.505,3.342,3.342,0,0,1,2.618,1.121,4.311,4.311,0,0,1,1,2.981v.1A4.722,4.722,0,0,1,99.3-1.8,3.365,3.365,0,0,1,98.031-.366a3.509,3.509,0,0,1-1.893.513A3.334,3.334,0,0,1,93.527-.974a4.29,4.29,0,0,1-1-2.966Zm1.362.161A3.39,3.39,0,0,0,94.5-1.758a1.957,1.957,0,0,0,1.637.8,1.945,1.945,0,0,0,1.641-.809,3.707,3.707,0,0,0,.608-2.267,3.384,3.384,0,0,0-.619-2.113,1.968,1.968,0,0,0-1.644-.809,1.946,1.946,0,0,0-1.619.8A3.68,3.68,0,0,0,93.889-3.875ZM102.913,0h-1.355V-11.25h1.355Zm3.64,0H105.19V-7.925h1.362Zm.015-11.243h1.641l-1.963,2.153h-1.091Zm3.5,3.318.044,1a2.888,2.888,0,0,1,2.373-1.143q2.512,0,2.534,2.834V0h-1.355V-5.244a1.824,1.824,0,0,0-.392-1.267,1.57,1.57,0,0,0-1.2-.41,1.956,1.956,0,0,0-1.157.352,2.387,2.387,0,0,0-.776.923V0h-1.355V-7.925Z" transform="translate(1126.387 1051.95)"/><rect width="24.785" height="2.037" transform="translate(1110.202 949.771) rotate(-76.452)" fill="#bf3976"/><path d="M1108.787,945.259l2.547,4.166,4.165-2.55-.686,2.85-4.164,2.548-2.548-4.164Z" fill="#bf3976"/><rect width="2.036" height="24.784" transform="matrix(0.004, -1, 1, 0.004, 1239.36, 935.132)" fill="#bf3976"/><path d="M1243.432,930.677l-3.466,3.44,3.442,3.464-2.931-.011-3.439-3.464,3.464-3.44Z" fill="#bf3976"/><path d="M1206.1,918.988V936.3L1095.16,964.393" fill="none" stroke="#bf3976" stroke-miterlimit="10" stroke-width="2.036"/></g></g><rect width="400" height="450" transform="translate(600 8581)" fill="none"/></g></g></svg>