<svg xmlns="http://www.w3.org/2000/svg" width="610" height="229" viewBox="0 0 610 229"><g transform="translate(-495 -19831)"><g transform="translate(0 -16)"><rect width="610" height="229" transform="translate(495 19847)" fill="none"/><g transform="translate(6 14)"><g transform="translate(505 19854)"><path d="M-470.587-395.077s-45.648,81.162-125.3,103.837c-18.144,5.165-41.49,7.322-67.689,7.322-112.31,0-277.188-39.618-310.925-51.687l-18.287,71.08,106.54,27.191s124.564,25.992,225.57,25.992c30.962,0,59.692-2.439,81.964-8.819,94.932-27.191,143.113-96.363,161.877-124.03l-53.748-50.885Z" transform="translate(994.214 396.331)" fill="#fff" stroke="#454544" stroke-miterlimit="10" stroke-width="1"/><path d="M-468.062-374.826a294.3,294.3,0,0,1-26.1,32.616c-29.49,31.914-63.441,54.01-98.182,63.9-18.161,5.169-42.067,7.79-71.052,7.79-61.993,0-136.041-11.712-187.242-21.538-13.7-2.628-27-5.362-39.577-8.092q-9.651-2.1-18.685-4.173c-1.1-.276-63.627-16.008-68.743-18.132l-11.885,47.073,11.9,3.054-.014.057,43.3,11.05.018,0h0l51.025,13.023c6.356,1.306,126.428,25.681,222.807,25.681,32.812,0,59.251-2.807,78.581-8.344a258.55,258.55,0,0,0,104.568-59.069,317.856,317.856,0,0,0,44.616-51.456Z" transform="translate(994.034 395.217)" fill="none" stroke="#454544" stroke-miterlimit="10" stroke-width="1" stroke-dasharray="3"/><circle cx="1.423" cy="1.423" r="1.423" transform="translate(0 130.19)" fill="#454545" stroke="#707070" stroke-width="1"/><circle cx="1.423" cy="1.423" r="1.423" transform="translate(58.211 145.392)" fill="#454545" stroke="#707070" stroke-width="1"/><circle cx="1.423" cy="1.423" r="1.423" transform="translate(107.113 157.579)" fill="#454545" stroke="#707070" stroke-width="1"/><circle cx="1.423" cy="1.423" r="1.423" transform="translate(314.364 183.294)" fill="#454545" stroke="#707070" stroke-width="1"/><circle cx="1.423" cy="1.423" r="1.423" transform="translate(415.126 174.455)" fill="#454545" stroke="#707070" stroke-width="1"/><circle cx="1.423" cy="1.423" r="1.423" transform="translate(503.476 129.721)" fill="#454545" stroke="#707070" stroke-width="1"/><circle cx="1.423" cy="1.423" r="1.423" transform="translate(575.683 50.683)" fill="#454545" stroke="#707070" stroke-width="1"/><circle cx="1.423" cy="1.423" r="1.423" transform="translate(559.645 52.357)" fill="#454545" stroke="#707070" stroke-width="1"/><circle cx="1.423" cy="1.423" r="1.423" transform="translate(524.487 19.303)" fill="#454545" stroke="#707070" stroke-width="1"/><circle cx="1.423" cy="1.423" r="1.423" transform="translate(466.182 81.112)" fill="#454545" stroke="#707070" stroke-width="1"/><circle cx="1.423" cy="1.423" r="1.423" transform="translate(458.398 71.619)" fill="#454545" stroke="#707070" stroke-width="1"/><circle cx="1.423" cy="1.423" r="1.423" transform="translate(397.057 103.585)" fill="#454545" stroke="#707070" stroke-width="1"/><circle cx="1.423" cy="1.423" r="1.423" transform="translate(399.668 115.594)" fill="#454545" stroke="#707070" stroke-width="1"/><circle cx="1.423" cy="1.423" r="1.423" transform="translate(522.177 0)" fill="#454545" stroke="#707070" stroke-width="1"/><circle cx="1.423" cy="1.423" r="1.423" transform="translate(495.407 120.413)" fill="#454545" stroke="#707070" stroke-width="1"/><circle cx="1.423" cy="1.423" r="1.423" transform="translate(412.492 162.356)" fill="#454545" stroke="#707070" stroke-width="1"/><circle cx="1.423" cy="1.423" r="1.423" transform="translate(314.364 171.017)" fill="#454545" stroke="#707070" stroke-width="1"/><circle cx="1.423" cy="1.423" r="1.423" transform="translate(314.364 123.251)" fill="#454545" stroke="#707070" stroke-width="1"/><circle cx="1.423" cy="1.423" r="1.423" transform="translate(314.364 110.974)" fill="#454545" stroke="#707070" stroke-width="1"/><circle cx="1.423" cy="1.423" r="1.423" transform="translate(109.345 145.481)" fill="#454545" stroke="#707070" stroke-width="1"/><circle cx="1.423" cy="1.423" r="1.423" transform="translate(61.738 133.338)" fill="#454545" stroke="#707070" stroke-width="1"/><circle cx="1.423" cy="1.423" r="1.423" transform="translate(3.08 118.413)" fill="#454545" stroke="#707070" stroke-width="1"/><circle cx="1.423" cy="1.423" r="1.423" transform="translate(18.332 59.566)" fill="#454545" stroke="#707070" stroke-width="1"/><circle cx="1.423" cy="1.423" r="1.423" transform="translate(15.251 71.329)" fill="#454545" stroke="#707070" stroke-width="1"/><circle cx="1.423" cy="1.423" r="1.423" transform="translate(75.074 74.834)" fill="#454545" stroke="#707070" stroke-width="1"/><circle cx="1.423" cy="1.423" r="1.423" transform="translate(71.994 86.598)" fill="#454545" stroke="#707070" stroke-width="1"/><path d="M-931.247-241.523l2.1-7.366-3.1-.938,6.362,1.942" transform="translate(990.881 388.338)" fill="none" stroke="#454544" stroke-miterlimit="10" stroke-width="1"/><path d="M-660.252-201.226l.009-7.661-3.239-.054,6.65.128" transform="translate(976.09 386.087)" fill="none" stroke="#454544" stroke-miterlimit="10" stroke-width="1"/><path d="M-660.252-214.09l.009-7.661-3.239-.054,6.65.128" transform="translate(976.09 386.795)" fill="none" stroke="#454544" stroke-miterlimit="10" stroke-width="1" stroke-dasharray="1"/><path d="M-660.216-277.462l-.009,7.661,3.239.054-6.65-.128" transform="translate(976.099 389.858)" fill="none" stroke="#454544" stroke-miterlimit="10" stroke-width="1"/><path d="M-660.216-264.47l-.009,7.661,3.239.054-6.65-.128" transform="translate(976.099 389.143)" fill="none" stroke="#454544" stroke-miterlimit="10" stroke-width="1" stroke-dasharray="1"/><path d="M-927.339-254.279l2.1-7.366-3.1-.938,6.362,1.942" transform="translate(990.666 389.04)" fill="none" stroke="#454544" stroke-miterlimit="10" stroke-width="1" stroke-dasharray="1"/><path d="M-913.648-315.706l-2.1,7.366,3.1.938-6.362-1.942" transform="translate(990.153 391.963)" fill="none" stroke="#454544" stroke-miterlimit="10" stroke-width="1"/><path d="M-917.014-302.95l-2.1,7.366,3.1.938-6.362-1.942" transform="translate(990.339 391.261)" fill="none" stroke="#454544" stroke-miterlimit="10" stroke-width="1" stroke-dasharray="1"/><text transform="translate(314.722 145.706)" fill="#161615" font-size="11" font-family="MyriadPro-Regular, Myriad Pro"><tspan x="-15.312" y="0">P. Anat</tspan><tspan x="-7.26" y="13">4xt</tspan></text></g></g></g></g></svg>