<svg xmlns="http://www.w3.org/2000/svg" xmlns:xlink="http://www.w3.org/1999/xlink" width="508.51" height="501.212" viewBox="0 0 508.51 501.212"><defs><clipPath id="a"><circle cx="222.928" cy="222.928" r="222.928" transform="translate(25.265 30.99)" fill="none"/></clipPath></defs><g transform="translate(1.689 -1.91)"><g clip-path="url(#a)"><circle cx="222.928" cy="222.928" r="222.928" transform="translate(25.265 30.99)" fill="#e5c3d1" opacity="0.3"/><g opacity="0.5" style="mix-blend-mode:multiply;isolation:isolate"><rect width="51.067" height="22.209" transform="translate(398.468 223.947)" fill="#e5c3d1"/><rect width="51.067" height="22.209" transform="translate(453.524 223.947)" fill="#e5c3d1"/><rect width="51.067" height="22.209" transform="translate(425.647 250.207)" fill="#e5c3d1"/><rect width="51.067" height="22.209" transform="translate(479.058 199.539)" fill="#e5c3d1"/></g><g opacity="0.5" style="mix-blend-mode:multiply;isolation:isolate"><rect width="51.067" height="22.209" transform="translate(368.814 409.054) rotate(180)" fill="#e5c3d1"/><rect width="51.067" height="22.209" transform="translate(313.757 409.054) rotate(180)" fill="#e5c3d1"/><rect width="51.067" height="22.209" transform="translate(341.634 435.314) rotate(180)" fill="#e5c3d1"/><rect width="51.067" height="22.209" transform="translate(288.223 384.646) rotate(180)" fill="#e5c3d1"/></g><g opacity="0.5" style="mix-blend-mode:multiply;isolation:isolate"><rect width="51.067" height="22.209" transform="translate(0.241 316.792)" fill="#e5c3d1"/><rect width="51.067" height="22.209" transform="translate(55.298 316.792)" fill="#e5c3d1"/><rect width="51.067" height="22.209" transform="translate(27.421 343.052)" fill="#e5c3d1"/><rect width="51.067" height="22.209" transform="translate(80.832 292.384)" fill="#e5c3d1"/></g><rect width="127.026" height="166.342" transform="matrix(0.976, -0.22, 0.22, 0.976, 147.928, 73.706)" fill="#fff"/><path d="M244.169,124.5l-16.931,3.818-16.931,3.817s-6.26,61.179-6.567,61.821,36.445-8.217,36.445-8.217,37-7.77,36.444-8.218S244.169,124.5,244.169,124.5Z" fill="#ef798a"/><path d="M235.215,70.074l-9.47,2.135-3.991,31.786L204.509,77l-9.47,2.135-2.142,22.6,16.262,25.313,16.931-3.817,16.931-3.817,3.826-29.842Z" fill="#ef798a"/><rect width="108.829" height="2.663" transform="matrix(0.976, -0.22, 0.22, 0.976, 188.55, 208.283)" fill="#e5c3d1"/><rect width="108.829" height="2.662" transform="matrix(0.976, -0.22, 0.22, 0.976, 189.726, 213.498)" fill="#e5c3d1"/><rect width="108.829" height="2.662" transform="translate(190.902 218.713) rotate(-12.706)" fill="#e5c3d1"/><rect width="18.641" height="21.046" transform="translate(168.531 108.18) rotate(-12.706)" fill="#e5c3d1"/><rect width="14.361" height="16.214" transform="matrix(0.976, -0.22, 0.22, 0.976, 171.149, 110.066)" fill="#613f75"/><rect width="25.16" height="28.407" transform="translate(254.297 109.337) rotate(-12.706)" fill="#613f75"/><rect width="19.384" height="21.885" transform="matrix(0.976, -0.22, 0.22, 0.976, 257.832, 111.883)" fill="#f7a9a8"/><path d="M180.444,124.618c-.132,4.119-.135,8.447,1.812,12.079s6.509,6.2,10.28,4.542a4.691,4.691,0,0,0,2.951-4.049c-.005-1.768-1.71-3.469-3.439-3.1a3.641,3.641,0,0,0-1.833,1.143c-2.6,2.782-2.1,7.3-.46,10.736a21.07,21.07,0,0,0,13.188,11.073,30.876,30.876,0,0,1-3.244-4.065,20.477,20.477,0,0,0,3.222,4.056l-6.556,1.083" fill="none" stroke="#613f75" stroke-linecap="round" stroke-linejoin="round" stroke-width="0.958"/><path d="M243,75.657c4.761-1.053,9.844.963,13.35,4.353s5.618,7.984,6.987,12.664,2.069,9.528,3.207,14.27" fill="none" stroke="#613f75" stroke-linecap="round" stroke-linejoin="round" stroke-width="0.958"/><path d="M263.557,103.657a40.341,40.341,0,0,1,3.056,3.663,18.708,18.708,0,0,1,1.158-4.017" fill="none" stroke="#613f75" stroke-linecap="round" stroke-linejoin="round" stroke-width="0.958"/><path d="M201.93,77.579l20.809,33.451,5.494-39.381-2.488.561-3.991,31.786L204.509,77Z" fill="#eb3059"/><path d="M244.169,124.5l-33.862,7.635-.393,3.832,36.254-8.174Z" fill="#eb3059"/><path d="M218.223,144.437l-3.608,47.32,3.205-.736Z" fill="#ef798a" style="mix-blend-mode:multiply;isolation:isolate"/><path d="M228.462,142.129l.706,46.348,2.187-.507Z" fill="#ef798a" style="mix-blend-mode:multiply;isolation:isolate"/><path d="M234.906,140.676l19.251,42.167-2.193.481Z" fill="#ef798a" style="mix-blend-mode:multiply;isolation:isolate"/><path d="M243.414,138.758l23.565,41.194-3.211.71Z" fill="#ef798a" style="mix-blend-mode:multiply;isolation:isolate"/><path d="M147.928,73.706l36.586,162.269L308.43,208.036l-129.9,36.514Z" fill="#f6e9ee" style="mix-blend-mode:multiply;isolation:isolate"/><rect width="96.741" height="116.573" transform="translate(81.835 129.733) rotate(13.507)" fill="#fff"/><rect width="17.185" height="17.185" transform="matrix(0.972, 0.234, -0.234, 0.972, 87.109, 140.088)" fill="#ef798a"/><rect width="17.185" height="17.185" transform="translate(107.336 144.947) rotate(13.507)" fill="#f7a9a8"/><rect width="17.185" height="17.185" transform="translate(127.562 149.806) rotate(13.507)" fill="#7d82b8"/><rect width="17.185" height="17.185" transform="translate(147.789 154.665) rotate(13.507)" fill="#613f75"/><rect width="17.185" height="17.185" transform="translate(82.197 160.535) rotate(13.507)" fill="#f7a9a8"/><rect width="17.185" height="17.185" transform="matrix(0.972, 0.234, -0.234, 0.972, 102.424, 165.394)" fill="#f7a9a8"/><rect width="17.185" height="17.185" transform="translate(122.651 170.253) rotate(13.507)" fill="#7d82b8"/><rect width="17.185" height="17.185" transform="translate(142.878 175.111) rotate(13.507)" fill="#613f75"/><rect width="17.185" height="17.185" transform="translate(77.286 180.982) rotate(13.507)" fill="#7d82b8"/><rect width="17.185" height="17.185" transform="translate(97.512 185.841) rotate(13.507)" fill="#f7a9a8"/><rect width="17.185" height="17.185" transform="matrix(0.972, 0.234, -0.234, 0.972, 117.739, 190.699)" fill="#7d82b8"/><rect width="17.185" height="17.185" transform="translate(137.966 195.558) rotate(13.507)" fill="#613f75"/><rect width="17.185" height="17.185" transform="translate(72.374 201.429) rotate(13.507)" fill="#613f75"/><rect width="17.185" height="17.185" transform="translate(92.601 206.287) rotate(13.507)" fill="#f7a9a8"/><rect width="17.185" height="17.185" transform="matrix(0.972, 0.234, -0.234, 0.972, 112.828, 211.146)" fill="#7d82b8"/><rect width="17.185" height="17.185" transform="translate(133.055 216.005) rotate(13.507)" fill="#613f75"/><rect width="17.185" height="17.185" transform="translate(67.462 221.876) rotate(13.507)" fill="#e5c3d1"/><rect width="17.185" height="17.185" transform="translate(87.689 226.734) rotate(13.507)" fill="#f7a9a8"/><rect width="17.185" height="17.185" transform="translate(107.916 231.593) rotate(13.507)" fill="#7d82b8"/><rect width="17.185" height="17.185" transform="matrix(0.972, 0.234, -0.234, 0.972, 128.143, 236.452)" fill="#613f75"/><path d="M248.193,351.954l132.016,27.128L367.39,314.988l-61.463-16.66Z" fill="#c6556c"/><rect width="10.244" height="108.235" transform="translate(337.814 354.382)" fill="#613f75"/><path d="M293.473,161.281a39.061,39.061,0,0,0,1.083-13.16,48.858,48.858,0,0,0-6.083-21.195A34.9,34.9,0,0,0,274.2,113.14l-.421.02v71.164l.137.242a67.646,67.646,0,0,0,6.881-5.008C286.57,174.727,291.439,168.529,293.473,161.281Z" fill="#e5c3d1"/><path d="M336.221,133.41c8.306,14.085,12.671,30.133,15.854,46.172,8.032-24.45,11.1-51.317,9.64-77.047a19.784,19.784,0,0,1-2.334-1.408c-5.844-4.125-5.844-19.252-5.844-19.252H316.064s-.344,15.814-8.6,23.034c-.167.146-.352.286-.534.427C319.211,111.221,329.254,121.6,336.221,133.41Z" fill="#e5c3d1"/><path d="M342.785,233.321c10.256.348,20.608.167,30.644-1.974a67.7,67.7,0,0,0,14.178-4.648l6.841-44.781s12.376-16.5,11.345-24.409-32.66-51.912-32.66-51.912a31.4,31.4,0,0,1-5.819-.967,177.771,177.771,0,0,1-17.788,89.311c-2.417-17.882-6.063-35.855-14.106-52.009-7.1-14.259-17.979-27.078-31.948-34.521-9.538,4.538-26.443,5.583-29.273,5.729a34.9,34.9,0,0,1,14.274,13.786,48.858,48.858,0,0,1,6.083,21.195,39.061,39.061,0,0,1-1.083,13.16c-2.034,7.248-6.9,13.446-12.677,18.277a67.646,67.646,0,0,1-6.881,5.008l20.177,35.416a60.266,60.266,0,0,0,21.489,10.008C324.445,232.278,333.636,233.011,342.785,233.321Z" fill="#ef798a"/><path d="M335.42,141.932c8.043,16.154,11.689,34.127,14.106,52.009a177.771,177.771,0,0,0,17.788-89.311,27.04,27.04,0,0,1-5.6-2.095c1.46,25.73-1.608,52.6-9.64,77.047-3.183-16.039-7.548-32.087-15.854-46.172-6.967-11.814-17.01-22.189-29.286-28.074a18.7,18.7,0,0,1-3.463,2.075C317.441,114.854,328.321,127.673,335.42,141.932Z" fill="#eb3059"/><path d="M373.429,231.347c-10.036,2.141-20.388,2.322-30.644,1.974-9.149-.31-18.34-1.043-27.2-3.331a60.266,60.266,0,0,1-21.489-10.008l5.935,10.416c11.048,7.4,24.676,10.826,38.05,12.083,11.023,1.037,22.261.771,33-1.937a66.428,66.428,0,0,0,15.321-5.908l1.212-7.937A67.7,67.7,0,0,1,373.429,231.347Z" fill="#eb3059"/><path d="M338.077,242.481c-13.374-1.257-27-4.678-38.05-12.083l2.118,3.717L350.1,257.048l36.178-21.642.118-.77a66.428,66.428,0,0,1-15.321,5.908C360.338,243.252,349.1,243.518,338.077,242.481Z" fill="#ef798a"/><path d="M302.145,234.115c2.117,1.02,22.155,10.571,44.522,9.756a118.519,118.519,0,0,0,39.61-8.465l38.212,143.256s-15.855,9.275-44.28.421a123.783,123.783,0,0,1-47.055-27.915l-13.748-14.74-12.48-2.08s-10.864,6.621-31.556,10.762-33.4,4.66-33.4,4.66Z" fill="#ef798a"/><path d="M380.209,256.414l32.626,125.8-5.383.576Z" fill="#ef798a" style="mix-blend-mode:multiply;isolation:isolate"/><path d="M380.209,379.083l-10.97-117.771,3.921,115.3Z" fill="#ef798a" style="mix-blend-mode:multiply;isolation:isolate"/><path d="M348.058,263.336l-14.9,87.832,6.731,5.962Z" fill="#ef798a" style="mix-blend-mode:multiply;isolation:isolate"/><path d="M327.678,257.064c-.336,1.975-27.651,80.645-27.651,80.645l6.9-3.361Z" fill="#ef798a" style="mix-blend-mode:multiply;isolation:isolate"/><path d="M313.852,248.677l-46.873,98,8.391-1.565Z" fill="#ef798a" style="mix-blend-mode:multiply;isolation:isolate"/><path d="M353.537,81.875s-3.894,9.452-17.557,9.364-19.916-9.364-19.916-9.364Z" fill="#d2aad1"/><path d="M167.9,307.17,223.987,341.3l43.92-70.628s-6.528-19.586,0-29.379,20.477-16.915,22.257-16.321,1.484,7.122,0,9.793,1.227,4.451,1.227,4.451,14.471-9.223,16.912-6.935,2.441,9.611.915,10.831-3.661,3.051-3.661,3.051,5.949,3.051,5.8,9.3-.763,16.322-4.576,17.847-17.39,1.068-17.39,1.068L244.26,371.722,190.5,369.513Z" fill="#f7a9a8"/><path d="M289.785,235.406a9.4,9.4,0,0,1-4.058,4.419,1.257,1.257,0,0,0-.638.557,1.22,1.22,0,0,0,.113.854,15.919,15.919,0,0,1-7.889,20" fill="none" stroke="#613f75" stroke-miterlimit="10" stroke-width="0.958"/><path d="M291.456,239.065a5.184,5.184,0,0,0,.5,8.758,7.391,7.391,0,0,0,2.972.808c3.8.321,7.515-1.066,11-2.6" fill="none" stroke="#613f75" stroke-miterlimit="10" stroke-width="0.958"/><path d="M292.059,247.877a8.774,8.774,0,0,0-5.823,5.262,20.187,20.187,0,0,0-1.3,7.986,24.923,24.923,0,0,0,.8,7.106,11.55,11.55,0,0,0,3.806,5.945" fill="none" stroke="#613f75" stroke-miterlimit="10" stroke-width="0.958"/><path d="M285.085,257.048a223.514,223.514,0,0,1,26.01-5.838" fill="none" stroke="#613f75" stroke-miterlimit="10" stroke-width="0.958"/><path d="M285.066,265.571a115.411,115.411,0,0,0,25.506-2.235" fill="none" stroke="#613f75" stroke-miterlimit="10" stroke-width="0.958"/><path d="M293.137,236.9a2.788,2.788,0,1,1-2.788-2.789A2.788,2.788,0,0,1,293.137,236.9Z" fill="#613f75"/><line x1="23.592" y2="16.864" transform="translate(290.349 220.04)" fill="none" stroke="#5c3b75" stroke-miterlimit="10" stroke-width="0.958"/><path d="M124.971,285.131a68.584,68.584,0,0,0,38.282,14.755,58.142,58.142,0,0,1-4.11-25.549c5.346-.074,10.689.688,16.026.4s10.892-1.808,14.6-5.655c2.329-2.413,3.746-5.54,5.119-8.6.883-1.969,1.591-3.921,2.474-5.89a28.917,28.917,0,0,1-9.495-16.169A27.441,27.441,0,0,0,199.14,248.2l.648-10.585,9.295-4.431-11.16-24.553s3.246-9.334-2.435-23.741-54.789-9.335-54.789-9.335c-8.694,3.279-15.323,11.187-18.582,19.889s-3.663,18.224-3.053,27.5a132.739,132.739,0,0,0,2.95,20.424c1.124,5,2.54,9.942,3.235,15.017C126.471,267.314,126.013,276.176,124.971,285.131Z" fill="#f7a9a8"/><path d="M188.85,216.222c-.358,2.373-1.643,4.147-2.871,3.961s-1.932-2.259-1.574-4.632,1.643-4.147,2.871-3.962S189.208,213.848,188.85,216.222Z" fill="#613f75"/><path d="M178.026,209.641a11.676,11.676,0,0,1,12.475-8.65" fill="none" stroke="#604075" stroke-miterlimit="10" stroke-width="2.874"/><path d="M139.394,216.365a4.583,4.583,0,0,1,5.494-2.16,7.01,7.01,0,0,1,4.232,4.571,15.585,15.585,0,0,1,.45,6.4,18.435,18.435,0,0,0-2.88,1.761,3.912,3.912,0,0,0-1.034,1.022,2.983,2.983,0,0,0,.449,3.329,8.738,8.738,0,0,0,2.906,2.052" fill="none" stroke="#513570" stroke-miterlimit="10" stroke-width="0.958"/><path d="M189.722,232.479c0,1.967-2.506,3.562-5.6,3.562s-5.6-1.6-5.6-3.562,2.506-3.561,5.6-3.561S189.722,230.512,189.722,232.479Z" fill="#f7a9a8" opacity="0.5" style="mix-blend-mode:multiply;isolation:isolate"/><path d="M117.48,349.068a162.965,162.965,0,0,1-3.181-44.759c-6.737,15.5-14.072,35.113-14.278,47.436-.382,22.911,15.931,86.3,15.931,86.3l39.669,32.893,18.492,3.247c-13.816-18.3-24.471-38.92-33.959-59.852C130.626,393.31,122.109,371.678,117.48,349.068Z" fill="#7678b1"/><path d="M198.248,406.277l5.268-23.708s9.819-27.779,6.945-37.119-22.989-20.355-34.484-31.611-16.186-26.3-16.186-26.3a47.092,47.092,0,0,1-15.5-.6c-8.586-1.748-18.86-6.232-18.86-6.232s-5.346,10.28-11.134,23.6a162.965,162.965,0,0,0,3.181,44.759c4.629,22.61,13.146,44.242,22.674,65.262,9.488,20.932,20.143,41.551,33.959,59.852l44.251,7.769Z" fill="#7d82b8"/><path d="M134.578,312.359c12.208-12.615,44.275,16.046,56.756,33.875s41.6,54.973,41.6,54.973l64.779-46.95s-.3-8.617,2.378-13.075a21.235,21.235,0,0,1,6.834-6.834l12.48,2.08c.3.263.194-.135.421-.462,5.7-8.207,7.409-18.895,14.073-26.341.673-.752,1.659-1.525,2.59-1.136.831.348,1.057,1.411,1.072,2.312a23.251,23.251,0,0,1-1.22,6.858,134.544,134.544,0,0,1-9.491,23.737,128.742,128.742,0,0,0,13.287-20.224c1.527-2.954,2.99-6.041,5.417-8.313a1.652,1.652,0,0,1,1.448-.6,1.439,1.439,0,0,1,.759.641c1.243,1.851.826,4.318.263,6.476a74.843,74.843,0,0,1-12.786,26.317,102.882,102.882,0,0,0,15.314-20.579c1.176-2.12,2.354-4.367,4.351-5.743.662-.457,1.606-.786,2.227-.275a1.94,1.94,0,0,1,.551,1.36c.257,2.722-.732,5.4-1.82,7.9a87.9,87.9,0,0,1-10.832,18.422,5.868,5.868,0,0,1-3.18,2.526c6.443-1.364,9.252-9.1,15.519-11.123.747,1.273.247,2.89-.336,4.246a44.238,44.238,0,0,1-45.457,26.519s-20.735,26.644-34.693,39.886S232.5,442.3,232.5,442.3s-60.078-47.8-79.275-69.791C133.544,349.958,114.853,332.739,134.578,312.359Z" fill="#f7a9a8"/><path d="M220.654,413.994a80.8,80.8,0,0,1,13.563-13.8" fill="none" stroke="#613f75" stroke-miterlimit="10" stroke-width="0.958"/><path d="M149.011,233.34a8.738,8.738,0,0,1-2.906-2.052,2.983,2.983,0,0,1-.449-3.329,3.912,3.912,0,0,1,1.034-1.022,18.435,18.435,0,0,1,2.88-1.761,15.585,15.585,0,0,0-.45-6.4,7.01,7.01,0,0,0-4.232-4.571,4.583,4.583,0,0,0-5.494,2.16,17.106,17.106,0,0,0,1.353,12.553C144.159,235.639,149.011,233.34,149.011,233.34Z" fill="#f7a9a8" opacity="0.5" style="mix-blend-mode:multiply;isolation:isolate"/><g opacity="0.5" style="mix-blend-mode:multiply;isolation:isolate"><path d="M147.724,265.416a71.467,71.467,0,0,0,11.306,12.909c0-1.33.023-2.66.113-3.988,5.346-.074,10.689.688,16.026.4s10.892-1.808,14.6-5.655a15.419,15.419,0,0,0,1.044-1.215c-3.495,2.529-8.18,3.239-12.578,3.386A70.792,70.792,0,0,1,147.724,265.416Z" fill="#f7a9a8"/></g><path d="M142.478,255.136a44.575,44.575,0,0,1-8.64-4.62,6.764,6.764,0,0,1-2.121-1.8,6.609,6.609,0,0,1-.829-2.373q-1.036-4.962-1.774-9.981a56.143,56.143,0,0,0-5.691,11.157q1.016-20.561,2.032-41.12-7.058,18.68-14.114,37.359c-1.077,2.85-2.46,6.016-5.32,7.066a75.735,75.735,0,0,1,1.388-16.265,437.116,437.116,0,0,1,12.077-52.679C109.31,203,97.6,223.336,85.91,243.652c6.209-16.8,9.234-34.593,14.416-51.737a335.165,335.165,0,0,1,13.756-36.269,30.509,30.509,0,0,0-4.867,4.331c-4.642,4.916-43.145,96.667-43.145,96.667l58.218,18.049,3.391-15.426,1.2,16.851,2.444.757,1.242-11.517,1.522,12.374,21.82,6.765L154.262,256A22.47,22.47,0,0,1,142.478,255.136Z" fill="#523669"/><path d="M200.645,184.767a34.627,34.627,0,0,1,1.87,14.846,20.376,20.376,0,0,0,3.465-9.441,24.943,24.943,0,0,0-.824-8.875,32.466,32.466,0,0,0-12.085-17.71,31.859,31.859,0,0,0-5.593-3.267c-5.561-.079-10.268.2-10.268.2s-19.115-11.742-38.5-10.923c-13.458.568-20.2,2.98-24.625,6.045a335.165,335.165,0,0,0-13.756,36.269c-5.182,17.144-8.207,34.937-14.416,51.737,11.694-20.316,23.4-40.653,33.576-61.77a437.116,437.116,0,0,0-12.077,52.679,75.735,75.735,0,0,0-1.388,16.265c2.86-1.05,4.243-4.216,5.32-7.066q7.056-18.679,14.114-37.359-1.017,20.561-2.032,41.12a56.143,56.143,0,0,1,5.691-11.157q.738,5.016,1.774,9.981a6.609,6.609,0,0,0,.829,2.373,6.764,6.764,0,0,0,2.121,1.8,44.575,44.575,0,0,0,8.64,4.62,22.47,22.47,0,0,0,11.784.863l-1.082-18.712s-13.668,3.412-17.114-9.365,4.164-21.534,11.629-18.663,6.6,14.643,6.6,14.643a29.328,29.328,0,0,0,12.92-17.37c3.015-11.916,2.618-25.528,2.618-25.528s24.883-1.121,26.761,6.969a63.471,63.471,0,0,1,1.283,10.9A19.338,19.338,0,0,0,200.645,184.767Z" fill="#613f75"/><path d="M204.517,163.254c-2.528-2.23-10.394-2.84-17.039-2.934a31.859,31.859,0,0,1,5.593,3.267,32.466,32.466,0,0,1,12.085,17.71,24.943,24.943,0,0,1,.824,8.875,20.376,20.376,0,0,1-3.465,9.441,34.627,34.627,0,0,0-1.87-14.846,19.338,19.338,0,0,1-2.764,14.111c.237,5.306.042,9.753.042,9.753s15.059-10.7,16.151-18.889S209.159,167.35,204.517,163.254Z" fill="#523669"/><path d="M157.3,236.954a3.906,3.906,0,1,1-3.9-3.906A3.9,3.9,0,0,1,157.3,236.954Z" fill="#fff"/><path d="M153.393,240.859a9.11,9.11,0,1,0,9.11,9.11A9.11,9.11,0,0,0,153.393,240.859Zm0,16.205a7.094,7.094,0,1,1,7.094-7.1A7.1,7.1,0,0,1,153.393,257.064Z" fill="#fff"/></g><ellipse cx="219.74" cy="215.19" rx="219.74" ry="215.19" transform="matrix(0.111, -0.994, 0.994, 0.111, -1.172, 439.171)" fill="none" stroke="#ef798a" stroke-miterlimit="10" stroke-width="0.934" stroke-dasharray="2.803"/><ellipse cx="218.674" cy="224.694" rx="218.674" ry="224.694" transform="translate(10.988 452.539) rotate(-83.605)" fill="none" stroke="#613f75" stroke-miterlimit="10" stroke-width="0.952" stroke-dasharray="2.857" opacity="0.4"/></g></svg>