<svg xmlns="http://www.w3.org/2000/svg" width="610" height="271.104" viewBox="0 0 610 271.104"><g transform="translate(-5807.142 4118.41)"><rect width="610" height="271.104" transform="translate(5807.142 -4118.41)" fill="#fff"/><g transform="translate(5828.972 -4096.507)"><rect width="333.058" height="195.956" transform="translate(182.58)" fill="none" stroke="#7a1c47" stroke-miterlimit="10" stroke-width="2"/><rect width="463.695" height="102.994" transform="translate(51.942 92.962)" fill="none" stroke="#7a1c47" stroke-miterlimit="10" stroke-width="2"/><path d="M5913.878-4006.715l-35,51.5H6008.4" transform="translate(-5826.936 4099.677)" fill="none" stroke="#7a1c47" stroke-linecap="round" stroke-linejoin="round" stroke-width="2"/><line x2="34.777" y2="52.166" transform="translate(51.942 144.459)" fill="none" stroke="#7a1c47" stroke-linecap="round" stroke-linejoin="round" stroke-width="2"/><g transform="translate(153.881)"><rect width="2.057" height="75.348" transform="translate(7.383 2.231)" fill="#272727"/><path d="M5978-4088.066l1.506,1.4,6.9-7.429,6.905,7.429,1.506-1.4-8.412-9.046Z" transform="translate(-5978.003 4097.111)" fill="#272727"/><g transform="translate(0 69.361)"><path d="M5978-4028.262l1.506-1.4,6.9,7.429,6.905-7.429,1.506,1.4-8.412,9.045Z" transform="translate(-5978.003 4029.665)" fill="#272727"/></g></g><g transform="translate(529.605 2.834)"><rect width="2.057" height="185.385" transform="translate(7.383 2.231)" fill="#272727"/><path d="M6343.357-4085.31l1.506,1.4,6.9-7.429,6.905,7.429,1.506-1.4-8.412-9.045Z" transform="translate(-6343.357 4094.355)" fill="#272727"/><g transform="translate(0 179.397)"><path d="M6343.357-3918.506l1.506-1.4,6.9,7.429,6.905-7.429,1.506,1.4-8.412,9.045Z" transform="translate(-6343.357 3919.909)" fill="#272727"/></g></g><g transform="translate(19.187 94.27)"><rect width="2.057" height="95.916" transform="translate(7.383 2.231)" fill="#272727"/><path d="M5847.026-3996.4l1.506,1.4,6.9-7.429,6.905,7.429,1.506-1.4-8.412-9.046Z" transform="translate(-5847.026 4005.443)" fill="#272727"/><g transform="translate(0 89.928)"><path d="M5847.026-3916.594l1.506-1.4,6.9,7.428,6.905-7.428,1.506,1.4-8.412,9.046Z" transform="translate(-5847.026 3917.996)" fill="#272727"/></g></g><g transform="translate(57.802 204.381)"><rect width="119.569" height="2.057" transform="translate(2.23 7.383)" fill="#272727"/><g transform="translate(113.581)"><path d="M5996.425-3898.371l-1.4,1.506,7.429,6.9-7.429,6.906,1.4,1.506,9.045-8.412Z" transform="translate(-5995.022 3898.371)" fill="#272727"/></g><path d="M5893.622-3898.371l1.4,1.506-7.429,6.9,7.429,6.906-1.4,1.506-9.045-8.412Z" transform="translate(-5884.576 3898.371)" fill="#272727"/></g><g transform="translate(187.855 204.381)"><rect width="321.132" height="2.057" transform="translate(2.231 7.383)" fill="#272727"/><g transform="translate(315.144)"><path d="M6318.889-3898.371l-1.4,1.506,7.429,6.9-7.429,6.906,1.4,1.506,9.045-8.412Z" transform="translate(-6317.486 3898.371)" fill="#272727"/></g><path d="M6020.085-3898.371l1.4,1.506-7.428,6.9,7.428,6.906-1.4,1.506-9.045-8.412Z" transform="translate(-6011.04 3898.371)" fill="#272727"/></g><path d="M3.047-6.391H4.133A2.387,2.387,0,0,0,5.742-6.93a1.8,1.8,0,0,0,.586-1.414,1.764,1.764,0,0,0-1.992-2,2.072,2.072,0,0,0-1.5.535,1.873,1.873,0,0,0-.559,1.418H.836a2.9,2.9,0,0,1,.988-2.246,3.6,3.6,0,0,1,2.512-.895,3.558,3.558,0,0,1,2.523.852,3.076,3.076,0,0,1,.914,2.367,2.5,2.5,0,0,1-.48,1.438A2.9,2.9,0,0,1,5.984-5.836a2.8,2.8,0,0,1,1.449.984,2.734,2.734,0,0,1,.512,1.68,3.1,3.1,0,0,1-1,2.43,3.745,3.745,0,0,1-2.6.9A3.844,3.844,0,0,1,1.738-.711,2.877,2.877,0,0,1,.734-3H2.188a1.859,1.859,0,0,0,.586,1.438,2.229,2.229,0,0,0,1.57.539,2.187,2.187,0,0,0,1.6-.547A2.108,2.108,0,0,0,6.5-3.141a1.912,1.912,0,0,0-.609-1.523,2.655,2.655,0,0,0-1.758-.547H3.047Zm6.984,8.656L9.211,1.7A3.77,3.77,0,0,0,9.977-.406v-1.3h1.414V-.578A3.559,3.559,0,0,1,11,1,3.7,3.7,0,0,1,10.031,2.266Zm3.7-7.969.578-5.672h5.828v1.336h-4.6l-.344,3.1a3.671,3.671,0,0,1,1.9-.492A3.138,3.138,0,0,1,19.563-6.4a4.026,4.026,0,0,1,.914,2.777,3.886,3.886,0,0,1-.949,2.77A3.46,3.46,0,0,1,16.875.156,3.6,3.6,0,0,1,14.414-.68a3.337,3.337,0,0,1-1.086-2.312H14.7a2.3,2.3,0,0,0,.7,1.473,2.162,2.162,0,0,0,1.484.5,1.95,1.95,0,0,0,1.582-.687,2.874,2.874,0,0,0,.574-1.9,2.638,2.638,0,0,0-.621-1.832,2.113,2.113,0,0,0-1.652-.691,2.383,2.383,0,0,0-1.484.414l-.383.313Z" transform="translate(132.833 48.232)" fill="#161615"/><path d="M1.609-5.7l.578-5.672H8.016v1.336h-4.6l-.344,3.1a3.671,3.671,0,0,1,1.9-.492A3.138,3.138,0,0,1,7.438-6.4a4.026,4.026,0,0,1,.914,2.777A3.886,3.886,0,0,1,7.4-.855,3.46,3.46,0,0,1,4.75.156,3.6,3.6,0,0,1,2.289-.68,3.337,3.337,0,0,1,1.2-2.992H2.57a2.3,2.3,0,0,0,.7,1.473,2.162,2.162,0,0,0,1.484.5,1.95,1.95,0,0,0,1.582-.687,2.874,2.874,0,0,0,.574-1.9,2.638,2.638,0,0,0-.621-1.832,2.113,2.113,0,0,0-1.652-.691,2.383,2.383,0,0,0-1.484.414l-.383.313Zm8.422,7.969L9.211,1.7A3.77,3.77,0,0,0,9.977-.406v-1.3h1.414V-.578A3.559,3.559,0,0,1,11,1,3.7,3.7,0,0,1,10.031,2.266Zm3.7-7.969.578-5.672h5.828v1.336h-4.6l-.344,3.1a3.671,3.671,0,0,1,1.9-.492A3.138,3.138,0,0,1,19.563-6.4a4.026,4.026,0,0,1,.914,2.777,3.886,3.886,0,0,1-.949,2.77A3.46,3.46,0,0,1,16.875.156,3.6,3.6,0,0,1,14.414-.68a3.337,3.337,0,0,1-1.086-2.312H14.7a2.3,2.3,0,0,0,.7,1.473,2.162,2.162,0,0,0,1.484.5,1.95,1.95,0,0,0,1.582-.687,2.874,2.874,0,0,0,.574-1.9,2.638,2.638,0,0,0-.621-1.832,2.113,2.113,0,0,0-1.652-.691,2.383,2.383,0,0,0-1.484.414l-.383.313Z" transform="translate(544.633 102.14)" fill="#161615"/><path d="M8.4,0H.945V-1.039L4.883-5.414A9.354,9.354,0,0,0,6.09-7.027a2.693,2.693,0,0,0,.332-1.285,2.041,2.041,0,0,0-.539-1.461,1.885,1.885,0,0,0-1.437-.57A2.232,2.232,0,0,0,2.77-9.73a2.343,2.343,0,0,0-.6,1.707H.727a3.355,3.355,0,0,1,1.012-2.539,3.751,3.751,0,0,1,2.707-.969,3.6,3.6,0,0,1,2.508.832,2.838,2.838,0,0,1,.922,2.215q0,1.68-2.141,4L2.688-1.18H8.4Zm1.633,2.266L9.211,1.7A3.77,3.77,0,0,0,9.977-.406v-1.3h1.414V-.578A3.559,3.559,0,0,1,11,1,3.7,3.7,0,0,1,10.031,2.266Zm3.7-7.969.578-5.672h5.828v1.336h-4.6l-.344,3.1a3.671,3.671,0,0,1,1.9-.492A3.138,3.138,0,0,1,19.563-6.4a4.026,4.026,0,0,1,.914,2.777,3.886,3.886,0,0,1-.949,2.77A3.46,3.46,0,0,1,16.875.156,3.6,3.6,0,0,1,14.414-.68a3.337,3.337,0,0,1-1.086-2.312H14.7a2.3,2.3,0,0,0,.7,1.473,2.162,2.162,0,0,0,1.484.5,1.95,1.95,0,0,0,1.582-.687,2.874,2.874,0,0,0,.574-1.9,2.638,2.638,0,0,0-.621-1.832,2.113,2.113,0,0,0-1.652-.691,2.383,2.383,0,0,0-1.484.414l-.383.313Z" transform="translate(0 149.263)" fill="#161615"/><path d="M3.047-6.391H4.133A2.387,2.387,0,0,0,5.742-6.93a1.8,1.8,0,0,0,.586-1.414,1.764,1.764,0,0,0-1.992-2,2.072,2.072,0,0,0-1.5.535,1.873,1.873,0,0,0-.559,1.418H.836a2.9,2.9,0,0,1,.988-2.246,3.6,3.6,0,0,1,2.512-.895,3.558,3.558,0,0,1,2.523.852,3.076,3.076,0,0,1,.914,2.367,2.5,2.5,0,0,1-.48,1.438A2.9,2.9,0,0,1,5.984-5.836a2.8,2.8,0,0,1,1.449.984,2.734,2.734,0,0,1,.512,1.68,3.1,3.1,0,0,1-1,2.43,3.745,3.745,0,0,1-2.6.9A3.844,3.844,0,0,1,1.738-.711,2.877,2.877,0,0,1,.734-3H2.188a1.859,1.859,0,0,0,.586,1.438,2.229,2.229,0,0,0,1.57.539,2.187,2.187,0,0,0,1.6-.547A2.108,2.108,0,0,0,6.5-3.141a1.912,1.912,0,0,0-.609-1.523,2.655,2.655,0,0,0-1.758-.547H3.047Z" transform="translate(115.197 231.251)" fill="#161615"/><path d="M5.7,0H4.242V-9.633L1.328-8.562V-9.875L5.469-11.43H5.7ZM17.383,0H9.93V-1.039l3.938-4.375a9.355,9.355,0,0,0,1.207-1.613,2.693,2.693,0,0,0,.332-1.285,2.041,2.041,0,0,0-.539-1.461,1.885,1.885,0,0,0-1.437-.57,2.232,2.232,0,0,0-1.676.613,2.343,2.343,0,0,0-.6,1.707H9.711a3.355,3.355,0,0,1,1.012-2.539,3.751,3.751,0,0,1,2.707-.969,3.6,3.6,0,0,1,2.508.832,2.838,2.838,0,0,1,.922,2.215q0,1.68-2.141,4l-3.047,3.3h5.711Z" transform="translate(341.412 231.251)" fill="#161615"/></g></g></svg>