<svg xmlns="http://www.w3.org/2000/svg" width="610" height="714" viewBox="0 0 610 714"><g transform="translate(-495 -16628)"><rect width="610" height="714" transform="translate(495 16628)" fill="#fff"/><g transform="translate(-114.586 -22)"><g transform="translate(609.236 16586.244)"><path d="M91.252,101.244l93.354,2.268,55.937,1.89V230.5s2.268,26.835,29.1,30.614c0,0-24.945,142.11-30.992,218.079s-17.386,280.819-17.386,280.819h-99.78L104.1,479.953S76.89,264.52,76.89,258.85,91.252,101.244,91.252,101.244Z" fill="none" stroke="#636262" stroke-miterlimit="10" stroke-width="2"/><path d="M171.378,236.457v389.48l5.575-11.764" fill="none" stroke="#636262" stroke-miterlimit="10" stroke-width="2"/><path d="M103.913,478.456l67.276,39.1L238.654,479.2" fill="none" stroke="#636262" stroke-miterlimit="10" stroke-width="2"/><line y2="128.315" transform="translate(171.378 631.701)" fill="none" stroke="#636262" stroke-miterlimit="10" stroke-width="2"/><circle cx="3.126" cy="3.126" r="3.126" transform="translate(88.438 98.126)" fill="#636262"/><circle cx="3.126" cy="3.126" r="3.126" transform="translate(181.769 100.11)" fill="#636262"/><circle cx="3.126" cy="3.126" r="3.126" transform="translate(194.95 100.11)" fill="#636262"/><circle cx="3.126" cy="3.126" r="3.126" transform="translate(206.643 101.244)" fill="#636262"/><circle cx="3.126" cy="3.126" r="3.126" transform="translate(236.69 102.52)" fill="#636262"/><circle cx="3.126" cy="3.126" r="3.126" transform="translate(297.512 97.323)" fill="#636262"/><circle cx="3.126" cy="3.126" r="3.126" transform="translate(371.425 88.89)" fill="#636262"/><circle cx="3.126" cy="3.126" r="3.126" transform="translate(380.638 87.969)" fill="#636262"/><circle cx="3.126" cy="3.126" r="3.126" transform="translate(387.347 149.102)" fill="#636262"/><circle cx="3.126" cy="3.126" r="3.126" transform="translate(424.772 144.756)" fill="#636262"/><circle cx="3.126" cy="3.126" r="3.126" transform="translate(350.22 153.26)" fill="#636262"/><circle cx="3.126" cy="3.126" r="3.126" transform="translate(389.992 87.331)" fill="#636262"/><circle cx="3.126" cy="3.126" r="3.126" transform="translate(464.048 78.756)" fill="#636262"/><circle cx="3.126" cy="3.126" r="3.126" transform="translate(478.362 231.71)" fill="#636262"/><circle cx="3.126" cy="3.126" r="3.126" transform="translate(318.866 256.796)" fill="#636262"/><circle cx="3.126" cy="3.126" r="3.126" transform="translate(342.866 475.33)" fill="#636262"/><circle cx="3.126" cy="3.126" r="3.126" transform="translate(362.213 756.89)" fill="#636262"/><circle cx="3.126" cy="3.126" r="3.126" transform="translate(486.796 756.89)" fill="#636262"/><circle cx="3.126" cy="3.126" r="3.126" transform="translate(424.504 756.89)" fill="#636262"/><circle cx="3.126" cy="3.126" r="3.126" transform="translate(510.866 475.33)" fill="#636262"/><circle cx="3.126" cy="3.126" r="3.126" transform="translate(424.622 513.677)" fill="#636262"/><circle cx="3.126" cy="3.126" r="3.126" transform="translate(495.796 250.276)" fill="#636262"/><circle cx="3.126" cy="3.126" r="3.126" transform="translate(536.685 262.536)" fill="#636262"/><circle cx="3.126" cy="3.126" r="3.126" transform="translate(238.32 226.844)" fill="#636262"/><circle cx="3.126" cy="3.126" r="3.126" transform="translate(266.52 257.741)" fill="#636262"/><circle cx="3.126" cy="3.126" r="3.126" transform="translate(73.764 257.741)" fill="#636262"/><circle cx="3.126" cy="3.126" r="3.126" transform="translate(235.528 476.331)" fill="#636262"/><circle cx="3.126" cy="3.126" r="3.126" transform="translate(100.788 476.331)" fill="#636262"/><circle cx="3.126" cy="3.126" r="3.126" transform="translate(217.67 756.89)" fill="#636262"/><circle cx="3.126" cy="3.126" r="3.126" transform="translate(168.252 756.89)" fill="#636262"/><circle cx="3.126" cy="3.126" r="3.126" transform="translate(118.362 756.89)" fill="#636262"/><text transform="translate(145.39 354.712) rotate(90)" font-size="16" font-family="Roboto-Regular, Roboto"><tspan x="0" y="0">Pernera del</tspan></text><text transform="translate(448.822 387.071) rotate(90)" font-size="16" font-family="Roboto-Regular, Roboto"><tspan x="0" y="0">Pernera pos</tspan></text><path d="M300.638,100.11,467.315,81.591l14.362,152.173s2.646,24.519,59.528,31.89c0,0-27.213,14.74-27.213,212.8l-24,281.56H365.646l-19.654-281.56L322.181,260.867Z" fill="none" stroke="#636262" stroke-miterlimit="10" stroke-width="2"/><line y1="8.504" x2="75.323" transform="translate(353.346 147.882)" fill="none" stroke="#636262" stroke-miterlimit="10" stroke-width="2"/><path d="M374.551,92.6l15.441,59.535-6.229-61.039" fill="none" stroke="#636262" stroke-miterlimit="10" stroke-width="2"/><line x1="2.646" y2="61.677" transform="translate(390.472 90.456)" fill="none" stroke="#636262" stroke-miterlimit="10" stroke-width="2"/><path d="M420.921,222V623.386l6.472-12.331" fill="none" stroke="#636262" stroke-miterlimit="10" stroke-width="2"/><path d="M345.992,478.456l81.4,38.347,86.6-38.347" fill="none" stroke="#636262" stroke-miterlimit="10" stroke-width="2"/><line y1="243.213" transform="translate(427.63 516.803)" fill="none" stroke="#636262" stroke-miterlimit="10" stroke-width="2"/></g></g></g></svg>