<svg xmlns="http://www.w3.org/2000/svg" width="714.753" height="976.22" viewBox="0 0 714.753 976.22"><g transform="translate(7131.813 7684.378)"><rect width="714.753" height="976.22" transform="translate(-7131.813 -7684.378)" fill="#fff"/><path d="M-6680.074-7419.8" fill="none" stroke="#7a1d47" stroke-miterlimit="10" stroke-width="1.796"/><path d="M-6944.409-7644.593" fill="none" stroke="#7a1d47" stroke-miterlimit="10" stroke-width="1.796"/><path d="M-6604.465-7411.147s-12.22,49.9-34.113,300.909l-12.39,396.289h-225.639l-14-396.119-20.706-309.225-33.1-224.875" fill="none" stroke="#7a1d47" stroke-miterlimit="10" stroke-width="1.796"/><line x2="21.384" y2="217.142" transform="translate(-6709.351 -7670.941)" fill="none" stroke="#7a1d47" stroke-miterlimit="10" stroke-width="1.796"/><line x1="235.09" y2="26.027" transform="translate(-6944.409 -7670.62)" fill="none" stroke="#7a1d47" stroke-miterlimit="10" stroke-width="1.796"/><path d="M-6813.472-7659.867l-3.946,88.592-22.021-85.792" fill="none" stroke="#7a1d47" stroke-linecap="round" stroke-linejoin="round" stroke-width="1.796"/><line x2="8.815" y2="85.465" transform="translate(-6826.455 -7657.606)" fill="none" stroke="#7a1d47" stroke-miterlimit="10" stroke-width="1.796"/><path d="M-6765.1-7419.8v705.854" fill="none" stroke="#7a1d47" stroke-linecap="round" stroke-linejoin="round" stroke-width="1.796"/><path d="M-6687.966-7453.8s7.807,33.148,83.5,42.652" fill="none" stroke="#7a1d47" stroke-linecap="round" stroke-linejoin="round" stroke-width="1.796"/><path d="M3.133-4.227V0H1.156V-11.375H5.508a4.4,4.4,0,0,1,3.027.992A3.334,3.334,0,0,1,9.656-7.758a3.224,3.224,0,0,1-1.1,2.6,4.617,4.617,0,0,1-3.074.93Zm0-1.586H5.508a2.339,2.339,0,0,0,1.609-.5,1.823,1.823,0,0,0,.555-1.434,1.967,1.967,0,0,0-.562-1.473,2.168,2.168,0,0,0-1.547-.566H3.133ZM14.922.156A3.928,3.928,0,0,1,12-.98a4.124,4.124,0,0,1-1.121-3.027v-.234A5.072,5.072,0,0,1,11.363-6.5a3.716,3.716,0,0,1,1.371-1.551A3.625,3.625,0,0,1,14.7-8.609a3.318,3.318,0,0,1,2.668,1.1,4.658,4.658,0,0,1,.941,3.117v.766H12.789a2.539,2.539,0,0,0,.7,1.656,2.1,2.1,0,0,0,1.543.609,2.571,2.571,0,0,0,2.125-1.055l1.023.977A3.418,3.418,0,0,1,16.824-.262,4.244,4.244,0,0,1,14.922.156ZM14.7-7.086a1.6,1.6,0,0,0-1.262.547,2.835,2.835,0,0,0-.613,1.523h3.617v-.141A2.307,2.307,0,0,0,15.93-6.6,1.586,1.586,0,0,0,14.7-7.086Zm9.516.367a4.7,4.7,0,0,0-.773-.062,1.741,1.741,0,0,0-1.758,1V0h-1.9V-8.453h1.813l.047.945a2.139,2.139,0,0,1,1.906-1.1,1.777,1.777,0,0,1,.672.109Zm2.961-1.734.055.977a3.039,3.039,0,0,1,2.461-1.133q2.641,0,2.688,3.023V0h-1.9V-5.477a1.741,1.741,0,0,0-.348-1.191,1.462,1.462,0,0,0-1.137-.387,1.829,1.829,0,0,0-1.711,1.039V0h-1.9V-8.453ZM38.031.156A3.928,3.928,0,0,1,35.105-.98a4.124,4.124,0,0,1-1.121-3.027v-.234A5.072,5.072,0,0,1,34.473-6.5a3.716,3.716,0,0,1,1.371-1.551,3.625,3.625,0,0,1,1.969-.555,3.318,3.318,0,0,1,2.668,1.1,4.658,4.658,0,0,1,.941,3.117v.766H35.9a2.539,2.539,0,0,0,.7,1.656,2.1,2.1,0,0,0,1.543.609,2.571,2.571,0,0,0,2.125-1.055l1.023.977A3.418,3.418,0,0,1,39.934-.262,4.244,4.244,0,0,1,38.031.156ZM37.8-7.086a1.6,1.6,0,0,0-1.262.547,2.835,2.835,0,0,0-.613,1.523h3.617v-.141A2.307,2.307,0,0,0,39.039-6.6,1.586,1.586,0,0,0,37.8-7.086Zm9.516.367a4.7,4.7,0,0,0-.773-.062,1.741,1.741,0,0,0-1.758,1V0h-1.9V-8.453H44.7l.047.945a2.139,2.139,0,0,1,1.906-1.1,1.777,1.777,0,0,1,.672.109ZM53.336,0a2.93,2.93,0,0,1-.219-.789A2.955,2.955,0,0,1,50.9.156,2.982,2.982,0,0,1,48.82-.57a2.325,2.325,0,0,1-.8-1.8,2.4,2.4,0,0,1,1-2.074,4.865,4.865,0,0,1,2.871-.723h1.164v-.555a1.481,1.481,0,0,0-.367-1.051,1.456,1.456,0,0,0-1.117-.395,1.672,1.672,0,0,0-1.062.324,1,1,0,0,0-.414.824H48.2a2.107,2.107,0,0,1,.461-1.3,3.071,3.071,0,0,1,1.254-.949,4.4,4.4,0,0,1,1.77-.344,3.547,3.547,0,0,1,2.367.746,2.661,2.661,0,0,1,.906,2.1v3.813a4.321,4.321,0,0,0,.32,1.82V0ZM51.25-1.367a2.16,2.16,0,0,0,1.059-.273,1.827,1.827,0,0,0,.746-.734V-3.969H52.031a2.8,2.8,0,0,0-1.586.367,1.189,1.189,0,0,0-.531,1.039,1.109,1.109,0,0,0,.363.871A1.407,1.407,0,0,0,51.25-1.367ZM8.375,15.059a5.033,5.033,0,0,1-.891,3.129,2.852,2.852,0,0,1-2.391,1.168,2.871,2.871,0,0,1-2.227-.914V22.45H.969v-11.7h1.75l.078.859A2.788,2.788,0,0,1,5.07,10.591,2.881,2.881,0,0,1,7.5,11.743a5.167,5.167,0,0,1,.879,3.2ZM6.484,14.9a3.526,3.526,0,0,0-.5-2.008,1.638,1.638,0,0,0-1.441-.742,1.747,1.747,0,0,0-1.672.961v3.75a1.763,1.763,0,0,0,1.688.984,1.636,1.636,0,0,0,1.418-.73A3.881,3.881,0,0,0,6.484,14.9Zm3.141,0a4.984,4.984,0,0,1,.492-2.238A3.6,3.6,0,0,1,11.5,11.126a3.9,3.9,0,0,1,2.047-.535,3.692,3.692,0,0,1,2.777,1.1,4.333,4.333,0,0,1,1.152,2.922l.008.445A5.029,5.029,0,0,1,17,17.294a3.551,3.551,0,0,1-1.375,1.523,3.925,3.925,0,0,1-2.066.539A3.667,3.667,0,0,1,10.7,18.165a4.563,4.563,0,0,1-1.074-3.176Zm1.9.164a3.406,3.406,0,0,0,.539,2.043,1.752,1.752,0,0,0,1.5.738,1.733,1.733,0,0,0,1.5-.75,3.762,3.762,0,0,0,.535-2.2,3.362,3.362,0,0,0-.551-2.031,1.856,1.856,0,0,0-2.973-.012A3.691,3.691,0,0,0,11.523,15.059Zm12.3,1.844a.861.861,0,0,0-.418-.773,4.445,4.445,0,0,0-1.387-.469,7.129,7.129,0,0,1-1.617-.516,2.158,2.158,0,0,1-1.422-1.992,2.25,2.25,0,0,1,.922-1.828,3.644,3.644,0,0,1,2.344-.734,3.792,3.792,0,0,1,2.449.75,2.38,2.38,0,0,1,.934,1.945h-1.9a1.17,1.17,0,0,0-.406-.91,1.557,1.557,0,0,0-1.078-.363,1.682,1.682,0,0,0-1.02.289.911.911,0,0,0-.395.773.769.769,0,0,0,.367.68,5.049,5.049,0,0,0,1.484.488,7.027,7.027,0,0,1,1.754.586,2.484,2.484,0,0,1,.945.816A2.082,2.082,0,0,1,25.7,16.8a2.2,2.2,0,0,1-.945,1.848,4.031,4.031,0,0,1-2.477.707,4.371,4.371,0,0,1-1.852-.375,3.047,3.047,0,0,1-1.266-1.031,2.441,2.441,0,0,1-.453-1.414h1.844a1.338,1.338,0,0,0,.508,1.035,1.973,1.973,0,0,0,1.242.363,1.92,1.92,0,0,0,1.141-.285A.883.883,0,0,0,23.828,16.9Zm5.9-8.211v2.055h1.492v1.406H29.727v4.719a1.039,1.039,0,0,0,.191.7.888.888,0,0,0,.684.215,2.924,2.924,0,0,0,.664-.078v1.469a4.676,4.676,0,0,1-1.25.18q-2.188,0-2.187-2.414V12.153H26.438V10.747h1.391V8.692Zm6.664,10.664a3.928,3.928,0,0,1-2.926-1.137,4.124,4.124,0,0,1-1.121-3.027v-.234a5.072,5.072,0,0,1,.488-2.262A3.716,3.716,0,0,1,34.2,11.145a3.625,3.625,0,0,1,1.969-.555,3.318,3.318,0,0,1,2.668,1.1,4.658,4.658,0,0,1,.941,3.117v.766H34.258a2.539,2.539,0,0,0,.7,1.656,2.1,2.1,0,0,0,1.543.609,2.571,2.571,0,0,0,2.125-1.055l1.023.977a3.418,3.418,0,0,1-1.355,1.176A4.244,4.244,0,0,1,36.391,19.356Zm-.227-7.242a1.6,1.6,0,0,0-1.262.547,2.835,2.835,0,0,0-.613,1.523h3.617v-.141A2.307,2.307,0,0,0,37.4,12.6,1.586,1.586,0,0,0,36.164,12.114Zm9.516.367a4.7,4.7,0,0,0-.773-.062,1.741,1.741,0,0,0-1.758,1V19.2h-1.9V10.747h1.813l.047.945a2.139,2.139,0,0,1,1.906-1.1,1.777,1.777,0,0,1,.672.109ZM48.9,19.2H47V10.747h1.9ZM46.883,8.552a1.008,1.008,0,0,1,.277-.727,1.048,1.048,0,0,1,.793-.289,1.061,1.061,0,0,1,.8.289,1,1,0,0,1,.281.727.977.977,0,0,1-.281.715,1.069,1.069,0,0,1-.8.285,1.056,1.056,0,0,1-.793-.285A.984.984,0,0,1,46.883,8.552ZM50.609,14.9a4.984,4.984,0,0,1,.492-2.238,3.6,3.6,0,0,1,1.383-1.531,3.9,3.9,0,0,1,2.047-.535,3.692,3.692,0,0,1,2.777,1.1,4.333,4.333,0,0,1,1.152,2.922l.008.445a5.029,5.029,0,0,1-.48,2.234,3.551,3.551,0,0,1-1.375,1.523,3.925,3.925,0,0,1-2.066.539,3.667,3.667,0,0,1-2.863-1.191,4.563,4.563,0,0,1-1.074-3.176Zm1.9.164a3.406,3.406,0,0,0,.539,2.043,1.752,1.752,0,0,0,1.5.738,1.733,1.733,0,0,0,1.5-.75,3.762,3.762,0,0,0,.535-2.2,3.362,3.362,0,0,0-.551-2.031,1.856,1.856,0,0,0-2.973-.012A3.691,3.691,0,0,0,52.508,15.059ZM64.5,12.481a4.7,4.7,0,0,0-.773-.062,1.741,1.741,0,0,0-1.758,1V19.2h-1.9V10.747h1.813l.047.945a2.139,2.139,0,0,1,1.906-1.1,1.777,1.777,0,0,1,.672.109Z" transform="translate(-6735.723 -7320.77)" fill="#161615"/><circle cx="3.14" cy="3.14" r="3.14" transform="translate(-6947.548 -7647.732)" fill="#b13182"/><circle cx="3.14" cy="3.14" r="3.14" transform="translate(-6842.579 -7659.294)" fill="#b13182"/><circle cx="3.14" cy="3.14" r="3.14" transform="translate(-6830.003 -7660.885)" fill="#b13182"/><circle cx="3.14" cy="3.14" r="3.14" transform="translate(-6820.78 -7574.415)" fill="#b13182"/><circle cx="3.14" cy="3.14" r="3.14" transform="translate(-6816.384 -7662.434)" fill="#b13182"/><circle cx="3.14" cy="3.14" r="3.14" transform="translate(-6712.687 -7673.759)" fill="#b13182"/><circle cx="3.14" cy="3.14" r="3.14" transform="translate(-6691.106 -7457.236)" fill="#b13182"/><circle cx="3.14" cy="3.14" r="3.14" transform="translate(-6668.399 -7432.473)" fill="#b13182"/><circle cx="3.14" cy="3.14" r="3.14" transform="translate(-6768.242 -7422.783)" fill="#b13182"/><circle cx="3.14" cy="3.14" r="3.14" transform="translate(-6914.454 -7422.783)" fill="#b13182"/><circle cx="3.14" cy="3.14" r="3.14" transform="translate(-6893.748 -7113.208)" fill="#b13182"/><circle cx="3.14" cy="3.14" r="3.14" transform="translate(-6654.557 -6717.088)" fill="#b13182"/><circle cx="3.14" cy="3.14" r="3.14" transform="translate(-6768.242 -6717.088)" fill="#b13182"/><circle cx="3.14" cy="3.14" r="3.14" transform="translate(-6880.256 -6717.088)" fill="#b13182"/><circle cx="3.14" cy="3.14" r="3.14" transform="translate(-6641.93 -7113.208)" fill="#b13182"/><circle cx="3.14" cy="3.14" r="3.14" transform="translate(-6607.944 -7414.286)" fill="#b13182"/></g></svg>