<svg xmlns="http://www.w3.org/2000/svg" width="611.084" height="359.031" viewBox="0 0 611.084 359.031"><g transform="translate(-215.271 196.606)"><path d="M420.165-191.94s32-4.166,47.066-4.166,60.948,4.166,60.948,4.166l-26.3,8.013-78.555-2.482Z" transform="translate(283.899)" fill="#d7dde0" stroke="#565656" stroke-miterlimit="10" stroke-width="1"/><path d="M219.7-180.869l1.018-14.391H340.578l1.185,12.867s5.925,28.611,6.77,39.278-1.015,65.858-1.015,65.858-8.24,106.827-7.337,112.7,1.355,107,1.355,107l1.13,15.8-44.245,2.482L295.036,27.764l-10.81-130.925s-3.187-5.416-4.088-4.74S268.626-33.409,268.85-20.315s-2.934,177.652-2.934,177.652v3.385l-46.22-1.355,1.751-136.343-5.194-100S213.884-169.638,219.7-180.869Z" transform="translate(0 1.175)" fill="#d7dde0" stroke="#565656" stroke-miterlimit="10" stroke-width="1"/><path d="M218.693-188.307l52.822-1.354h65.011" transform="translate(4.052 8.952)" fill="#d7dde0" stroke="#565656" stroke-miterlimit="10" stroke-width="1"/><path d="M241.016-195.26c.17.846,1.185,13.376,1.185,13.376" transform="translate(35.059 1.175)" fill="#d7dde0" stroke="#565656" stroke-miterlimit="10" stroke-width="1"/><line y2="71.952" transform="translate(279.46 -179.355)" fill="#d7dde0" stroke="#565656" stroke-miterlimit="10" stroke-width="1"/><path d="M253.946-189.378v36.655s-1.355,12.612-11.513,8.887" transform="translate(37.027 9.345)" fill="#d7dde0" stroke="#565656" stroke-miterlimit="10" stroke-width="1"/><path d="M216.166-169.067s21.781-14.692,23.474-19.6" transform="translate(0.542 10.33)" fill="#d7dde0" stroke="#565656" stroke-miterlimit="10" stroke-width="1"/><path d="M259.37-188.669S280.7-169.538,284.6-168.353" transform="translate(60.553 10.33)" fill="#d7dde0" stroke="#565656" stroke-miterlimit="10" stroke-width="1"/><rect width="6.095" height="20.316" transform="translate(241.876 -194.085)" fill="#d7dde0" stroke="#565656" stroke-miterlimit="10" stroke-width="1"/><rect width="6.095" height="20.316" transform="translate(311.966 -194.085)" fill="#d7dde0" stroke="#565656" stroke-miterlimit="10" stroke-width="1"/><circle cx="3.95" cy="3.95" r="3.95" transform="translate(281.718 -191.94)" fill="#d7dde0" stroke="#565656" stroke-miterlimit="10" stroke-width="1"/><rect width="47.404" height="12.641" transform="translate(296.56 149.256)" fill="#d7dde0" stroke="#565656" stroke-miterlimit="10" stroke-width="1"/><rect width="47.921" height="13.824" transform="translate(219.857 148.073)" fill="#d7dde0" stroke="#565656" stroke-miterlimit="10" stroke-width="1"/><path d="M245.835-157.276s6.094,10.837,8.973,63.318,5.925,189.279,5.925,189.279" transform="translate(41.752 53.935)" fill="#d7dde0" stroke="#565656" stroke-miterlimit="10" stroke-width="1"/><path d="M250.27-157.276s-6.094,13.206-8.3,36.908-6.264,155.417-6.264,155.417l-1.355,60.272" transform="translate(25.805 53.935)" fill="#d7dde0" stroke="#565656" stroke-miterlimit="10" stroke-width="1"/><path d="M241.353-162.756l23.251,2.709-26.919,6.321,22.855,2.032" transform="translate(30.432 46.324)" fill="#d7dde0" stroke="#565656" stroke-miterlimit="10" stroke-width="1"/><path d="M288.265-180.869l1.018-14.391H409.146l1.185,12.867s5.925,28.611,6.773,39.278-1.018,65.858-1.018,65.858-8.237,106.827-7.334,112.7,1.352,107,1.352,107l1.13,15.8-44.244,2.482L363.6,27.764l-10.81-130.925s-3.185-5.416-4.088-4.74-11.513,74.492-11.288,87.586-2.934,177.652-2.934,177.652v3.385l-46.22-1.355,1.751-136.343-5.191-100S282.452-169.638,288.265-180.869Z" transform="translate(95.244 1.175)" fill="#7795a5" stroke="#565656" stroke-miterlimit="10" stroke-width="1"/><path d="M287.262-188.307l52.822-1.354h65.011" transform="translate(99.295 8.952)" fill="none" stroke="#565656" stroke-miterlimit="10" stroke-width="1"/><path d="M309.585-195.26c.17.846,1.185,13.376,1.185,13.376" transform="translate(130.302 1.175)" fill="none" stroke="#565656" stroke-miterlimit="10" stroke-width="1"/><line y2="71.952" transform="translate(443.273 -179.355)" fill="none" stroke="#565656" stroke-miterlimit="10" stroke-width="1"/><path d="M322.515-189.378v36.655S321.16-140.112,311-143.836" transform="translate(132.27 9.345)" fill="none" stroke="#565656" stroke-miterlimit="10" stroke-width="1"/><path d="M284.735-169.067s21.783-14.692,23.474-19.6" transform="translate(95.785 10.33)" fill="none" stroke="#565656" stroke-miterlimit="10" stroke-width="1"/><path d="M327.939-188.669s21.331,19.131,25.226,20.316" transform="translate(155.796 10.33)" fill="none" stroke="#565656" stroke-miterlimit="10" stroke-width="1"/><rect width="6.095" height="20.316" transform="translate(405.688 -194.085)" fill="none" stroke="#565656" stroke-miterlimit="10" stroke-width="1"/><rect width="6.095" height="20.316" transform="translate(475.778 -194.085)" fill="none" stroke="#565656" stroke-miterlimit="10" stroke-width="1"/><circle cx="3.95" cy="3.95" r="3.95" transform="translate(445.53 -191.94)" fill="none" stroke="#565656" stroke-miterlimit="10" stroke-width="1"/><rect width="47.404" height="12.641" transform="translate(460.372 149.256)" fill="none" stroke="#565656" stroke-miterlimit="10" stroke-width="1"/><rect width="47.921" height="13.824" transform="translate(383.67 148.073)" fill="none" stroke="#565656" stroke-miterlimit="10" stroke-width="1"/><path d="M314.4-157.276s6.094,10.837,8.973,63.318S329.3,95.321,329.3,95.321" transform="translate(136.995 53.935)" fill="none" stroke="#565656" stroke-miterlimit="10" stroke-width="1"/><path d="M318.839-157.276s-6.094,13.206-8.3,36.908-6.264,155.417-6.264,155.417l-1.354,60.272" transform="translate(121.048 53.935)" fill="none" stroke="#565656" stroke-miterlimit="10" stroke-width="1"/><path d="M309.922-162.756l23.25,2.709-26.919,6.321L329.11-151.7" transform="translate(125.675 46.324)" fill="none" stroke="#565656" stroke-miterlimit="10" stroke-width="1"/><path d="M352.986-180.869,354-195.26H473.865l1.187,12.867s5.925,28.611,6.771,39.278-1.015,65.858-1.015,65.858-8.24,106.827-7.337,112.7,1.355,107,1.355,107l1.128,15.8-44.242,2.482L428.323,27.764,417.515-103.161s-3.187-5.416-4.09-4.74-11.513,74.492-11.286,87.586S399.2,157.336,399.2,157.336v3.385l-46.218-1.355,1.749-136.343-5.191-100S347.173-169.638,352.986-180.869Z" transform="translate(185.14 1.175)" fill="#232323" stroke="#050505" stroke-miterlimit="10" stroke-width="1"/><path d="M351.982-188.307l52.822-1.354h65.011" transform="translate(189.191 8.952)" fill="#232323" stroke="#050505" stroke-miterlimit="10" stroke-width="1"/><path d="M374.3-195.26c.17.846,1.187,13.376,1.187,13.376" transform="translate(220.197 1.175)" fill="#232323" stroke="#050505" stroke-miterlimit="10" stroke-width="1"/><line y2="71.952" transform="translate(597.888 -179.355)" fill="#232323" stroke="#050505" stroke-miterlimit="10" stroke-width="1"/><path d="M387.235-189.378v36.655s-1.354,12.612-11.513,8.887" transform="translate(222.167 9.345)" fill="#232323" stroke="#050505" stroke-miterlimit="10" stroke-width="1"/><path d="M349.455-169.067s21.781-14.692,23.475-19.6" transform="translate(185.682 10.33)" fill="#232323" stroke="#050505" stroke-miterlimit="10" stroke-width="1"/><path d="M392.659-188.669s21.331,19.131,25.226,20.316" transform="translate(245.692 10.33)" fill="#232323" stroke="#050505" stroke-miterlimit="10" stroke-width="1"/><rect width="6.095" height="20.316" transform="translate(560.304 -194.085)" fill="#232323" stroke="#050505" stroke-miterlimit="10" stroke-width="1"/><rect width="6.095" height="20.316" transform="translate(630.394 -194.085)" fill="#232323" stroke="#050505" stroke-miterlimit="10" stroke-width="1"/><circle cx="3.95" cy="3.95" r="3.95" transform="translate(600.146 -191.94)" fill="#232323" stroke="#050505" stroke-miterlimit="10" stroke-width="1"/><rect width="47.404" height="12.641" transform="translate(614.988 149.256)" fill="#232323" stroke="#050505" stroke-miterlimit="10" stroke-width="1"/><rect width="47.921" height="13.824" transform="translate(538.285 148.073)" fill="#232323" stroke="#050505" stroke-miterlimit="10" stroke-width="1"/><path d="M379.123-157.276s6.1,10.837,8.973,63.318,5.927,189.279,5.927,189.279" transform="translate(226.891 53.935)" fill="#232323" stroke="#050505" stroke-miterlimit="10" stroke-width="1"/><path d="M383.556-157.276s-6.094,13.206-8.295,36.908S369,35.049,369,35.049l-1.355,60.272" transform="translate(210.945 53.935)" fill="#232323" stroke="#050505" stroke-miterlimit="10" stroke-width="1"/><path d="M374.642-162.756l23.251,2.709-26.919,6.321,22.855,2.032" transform="translate(215.571 46.324)" fill="#232323" stroke="#050505" stroke-miterlimit="10" stroke-width="1"/><path d="M429.028-194.356s58.918,12.3,108.014,0c0,0,8.464,42.042,11.173,48.561s2.709,105.726,2.37,111.483-10.834,155.417-10.834,155.417L538.4,150.9s-35.893,3.048-39.956,0-6.094-126.974-6.094-126.974L485.913-90.52l-2.542,1.355L469.661,149.886s-38.6,6.434-40.632-1.691S418.533,9.367,418.533,9.367L413.784-80.7s5.425-74.494,6.1-79.74,6.094-17.44,6.094-17.44S426.434-194.855,429.028-194.356Z" transform="translate(275.035 2.416)" fill="#d7dde0" stroke="#565656" stroke-miterlimit="10" stroke-width="1"/><path d="M419.976-185.575s83.071,8.352,109.708-2.031" transform="translate(283.636 11.807)" fill="#d7dde0" stroke="#565656" stroke-miterlimit="10" stroke-width="1"/><line x1="15.633" y2="36.789" transform="translate(692.946 -170.592)" fill="#d7dde0" stroke="#565656" stroke-miterlimit="10" stroke-width="1"/><line x2="17.381" y2="35.358" transform="translate(806.773 -172.188)" fill="#d7dde0" stroke="#565656" stroke-miterlimit="10" stroke-width="1"/><path d="M430.179-191.144l-1.58,16.479H423.52l2.7-18.925,4.978.707Z" transform="translate(288.558 3.493)" fill="#d7dde0" stroke="#565656" stroke-miterlimit="10" stroke-width="1"/><path d="M459.661-192.222l2.6,17.381,4.853-1.016-3.725-17.608Z" transform="translate(338.76 3.668)" fill="#d7dde0" stroke="#565656" stroke-miterlimit="10" stroke-width="1"/><line x1="0.677" y2="79.402" transform="translate(759.595 -168.182)" fill="#d7dde0" stroke="#565656" stroke-miterlimit="10" stroke-width="1"/><line y1="10.666" x2="34.537" transform="translate(742.157 -94.536)" fill="#d7dde0" stroke="#565656" stroke-miterlimit="10" stroke-width="1"/><path d="M453.965-185.055v44.187s.848,14.391-9.989,13.883" transform="translate(316.972 15.35)" fill="#d7dde0" stroke="#565656" stroke-miterlimit="10" stroke-width="1"/><path d="M460.984-45.854S476.9-98,479.269-115.606" transform="translate(340.597 111.815)" fill="#d7dde0" stroke="#565656" stroke-miterlimit="10" stroke-width="1"/><path d="M455.6-47.08s19.413-4.291,20.768-7.676c0,0-13.316,4.515-14.671,3.837" transform="translate(333.115 196.337)" fill="#d7dde0" stroke="#565656" stroke-miterlimit="10" stroke-width="1"/><path d="M442.788-47.08s-19.413-4.291-20.768-7.676c0,0,13.319,4.515,14.673,3.837" transform="translate(286.475 196.337)" fill="#d7dde0" stroke="#565656" stroke-miterlimit="10" stroke-width="1"/></g></svg>