<svg xmlns="http://www.w3.org/2000/svg" width="610" height="590.81" viewBox="0 0 610 590.81"><g transform="translate(2695.843 2205.213)"><path d="M-2692.37-2119.349s12.817,8.49,37.619,4.993,39.116-4.827,53.6-61.754l118.515,41.78s-18.666,54.755-15.177,99.042c2.5,31.684,16.333,58.01,56.458,55.094l-10.237,111.441,10.237,207.485s-15.23-1.748-39.449,19.724-75.154,18.227-75.154,18.227l-136.409.175v-495.376" transform="translate(-0.414 -3.468)" fill="none" stroke="#646363" stroke-linecap="round" stroke-linejoin="round" stroke-width="2"/><path d="M-2537.794-1607.228v-329.954s-4-60.756,58.492-77.755" transform="translate(-18.83 -22.677)" fill="none" stroke="#646363" stroke-linecap="round" stroke-linejoin="round" stroke-width="2"/><path d="M-2554.8-1944.236v144.482l6.658-14.648" transform="translate(-16.81 -31.103)" fill="none" stroke="#646363" stroke-linecap="round" stroke-linejoin="round" stroke-width="2"/><circle cx="3.402" cy="3.402" r="3.402" transform="translate(-2604.532 -2182.294)" fill="#646363"/><circle cx="3.402" cy="3.402" r="3.402" transform="translate(-2695.843 -2125.575)" fill="#646363"/><circle cx="3.402" cy="3.402" r="3.402" transform="translate(-2695.843 -1630.011)" fill="#646363"/><circle cx="2.799" cy="2.799" r="2.799" transform="translate(-2665.153 -1629.408)" fill="#646363"/><circle cx="3.402" cy="3.402" r="3.402" transform="translate(-2560.078 -1630.011)" fill="#646363"/><circle cx="3.402" cy="3.402" r="3.402" transform="translate(-2445.173 -1668.462)" fill="#646363"/><circle cx="3.402" cy="3.402" r="3.402" transform="translate(-2486.672 -2141.284)" fill="#646363"/><circle cx="3.402" cy="3.402" r="3.402" transform="translate(-2383.501 -2146.111)" fill="#646363"/><circle cx="3.402" cy="3.402" r="3.402" transform="translate(-2291.452 -2205.213)" fill="#646363"/><circle cx="3.402" cy="3.402" r="3.402" transform="translate(-2170.773 -2162.954)" fill="#646363"/><circle cx="3.402" cy="3.402" r="3.402" transform="translate(-2184.838 -2062.812)" fill="#646363"/><circle cx="3.402" cy="3.402" r="3.402" transform="translate(-2150.798 -2042.41)" fill="#646363"/><circle cx="3.402" cy="3.402" r="3.402" transform="translate(-2244.928 -1983.173)" fill="#646363"/><circle cx="3.402" cy="3.402" r="3.402" transform="translate(-2210.722 -1968.208)" fill="#646363"/><circle cx="3.402" cy="3.402" r="3.402" transform="translate(-2093.728 -1985.215)" fill="#646363"/><circle cx="3.402" cy="3.402" r="3.402" transform="translate(-2104.798 -1869.488)" fill="#646363"/><circle cx="3.402" cy="3.402" r="3.402" transform="translate(-2092.646 -1659.738)" fill="#646363"/><circle cx="3.402" cy="3.402" r="3.402" transform="translate(-2210.722 -1621.207)" fill="#646363"/><circle cx="3.402" cy="3.402" r="3.402" transform="translate(-2245.407 -1641.244)" fill="#646363"/><circle cx="3.402" cy="3.402" r="3.402" transform="translate(-2501.534 -2040.766)" fill="#646363"/><circle cx="3.402" cy="3.402" r="3.402" transform="translate(-2445.855 -1986.772)" fill="#646363"/><circle cx="3.402" cy="3.402" r="3.402" transform="translate(-2560.078 -1966.382)" fill="#646363"/><circle cx="3.402" cy="3.402" r="3.402" transform="translate(-2456.217 -1873.423)" fill="#646363"/><path d="M-2518.023-1986.025l.681,3.171,4.254-2.074a.524.524,0,0,1,.6.1,5.241,5.241,0,0,0,7.412-.028,5.24,5.24,0,0,0-.028-7.411,5.241,5.241,0,0,0-7.411.027,5.245,5.245,0,0,0-1.516,3.92.527.527,0,0,1-.295.5Zm7.851-5.35a3.149,3.149,0,0,1,4.213,1.446,3.149,3.149,0,0,1-1.446,4.212,3.119,3.119,0,0,1-2.282.183.37.37,0,0,1-.068-.018,3.15,3.15,0,0,1-2.026-3.968,3.155,3.155,0,0,1,1.612-1.859Z" transform="translate(-21.192 -25.197)" fill="#040506"/><path d="M-2534.369-1977.79a3.8,3.8,0,0,0-1.967,2.365l-.86,2.2c-.023.079.066.162.084.178a.123.123,0,0,0,.134.032l12.494-6.1-.682-3.172Z" transform="translate(-18.907 -26.569)" fill="#040506"/><path d="M-2529.447-1995.258a5.232,5.232,0,0,0,4.49,4.1.527.527,0,0,1,.45.41l1.134,5.281,3.918,18.222a.123.123,0,0,0,.107.083.214.214,0,0,0,.213-.079l1.158-1.964a3.832,3.832,0,0,0,.668-3.043l-2.29-10.661-.908-4.227-.953-4.424a.524.524,0,0,1,.208-.537,5.247,5.247,0,0,0,1.2-7.322,5.247,5.247,0,0,0-7.322-1.2,5.246,5.246,0,0,0-2.069,5.362Zm7.764,9.612a.526.526,0,0,1,.591.448l.256,1.874a.526.526,0,0,1-.449.591.525.525,0,0,1-.591-.448l-.255-1.875a.525.525,0,0,1,.449-.591Zm-5.277-12.425a3.148,3.148,0,0,1,4.353-.934,3.148,3.148,0,0,1,.933,4.353,3.148,3.148,0,0,1-4.353.934l-.049-.032a.491.491,0,0,1-.059-.044A3.137,3.137,0,0,1-2526.96-1998.071Z" transform="translate(-19.817 -24.266)" fill="#040506"/><path d="M-2658.122-1549.094v-5.709h-2.209" transform="translate(-4.232 -77.515)" fill="none" stroke="#646363" stroke-linecap="round" stroke-linejoin="round" stroke-width="2"/><circle cx="2.799" cy="2.799" r="2.799" transform="translate(-2651.004 -1629.408)" fill="#646363"/><path d="M-2641.76-1549.094v-5.709h2.209" transform="translate(-6.445 -77.515)" fill="none" stroke="#646363" stroke-linecap="round" stroke-linejoin="round" stroke-width="2"/><circle cx="2.799" cy="2.799" r="2.799" transform="translate(-2665.059 -2120.16)" fill="#646363"/><path d="M-2658.016-2105.475v5.71h-2.209" transform="translate(-4.245 -11.887)" fill="none" stroke="#646363" stroke-linecap="round" stroke-linejoin="round" stroke-width="2"/><circle cx="2.799" cy="2.799" r="2.799" transform="translate(-2651.345 -2121.616)" fill="#646363"/><path d="M-2642.148-2107.128v5.709h2.209" transform="translate(-6.399 -11.69)" fill="none" stroke="#646363" stroke-linecap="round" stroke-linejoin="round" stroke-width="2"/><circle cx="2.799" cy="2.799" r="2.799" transform="translate(-2338.351 -1640.15)" fill="#646363"/><path d="M-2286.8-1561.289V-1567h2.209" transform="translate(-48.749 -76.062)" fill="none" stroke="#646363" stroke-linecap="round" stroke-linejoin="round" stroke-width="2"/><circle cx="2.799" cy="2.799" r="2.799" transform="translate(-2352.583 -1640.15)" fill="#646363"/><path d="M-2303.26-1561.289V-1567h-2.209" transform="translate(-46.525 -76.062)" fill="none" stroke="#646363" stroke-linecap="round" stroke-linejoin="round" stroke-width="2"/><circle cx="2.799" cy="2.799" r="2.799" transform="translate(-2352.544 -2141.404)" fill="#646363"/><path d="M-2303.216-2129.594v5.71h-2.209" transform="translate(-46.529 -9.012)" fill="none" stroke="#646363" stroke-linecap="round" stroke-linejoin="round" stroke-width="2"/><circle cx="2.799" cy="2.799" r="2.799" transform="translate(-2338.562 -2141.404)" fill="#646363"/><path d="M-2287.043-2129.594v5.71h2.209" transform="translate(-48.72 -9.012)" fill="none" stroke="#646363" stroke-linecap="round" stroke-linejoin="round" stroke-width="2"/><path d="M-2218.039-2069.394v338.45l8.489-20.474" transform="translate(-56.945 -16.187)" fill="none" stroke="#646363" stroke-linecap="round" stroke-linejoin="round" stroke-width="2"/><path d="M-2337.378-2143.015s25.717,11.236,52.683,3,39.449-62.171,39.449-62.171l121.1,42.7s-18.227,49.687-14.232,100.622c0,0-58.924,18.227-60.422,79.648s0,342.232,0,342.232h-138.573Z" transform="translate(-42.722 -0.36)" fill="none" stroke="#646363" stroke-linecap="round" stroke-linejoin="round" stroke-width="2"/><path d="M-2119.091-2030.409c-14.737,6.525-51.812,27.725-52.981,76.242-1.461,60.6,0,337.648,0,337.648" transform="translate(-62.345 -20.833)" fill="none" stroke="#646363" stroke-linecap="round" stroke-linejoin="round" stroke-width="2.131" stroke-dasharray="12"/><path d="M-2081.048-2016.52s1,61.672,57.178,56.927c0,0-11.485,115.353-11.485,116.352s12.484,210.481,12.484,210.481-5.992-6.241-33.458,13.483-44.194,26.467-84.891,23.97v-341.232S-2141.8-1996.795-2081.048-2016.52Z" transform="translate(-66.1 -22.488)" fill="none" stroke="#646363" stroke-linecap="round" stroke-linejoin="round" stroke-width="2"/><path d="M-2150.291-1596.432v-347.9s-.648-61.434,66.985-81.544" transform="translate(-65.018 -21.373)" fill="none" stroke="#646363" stroke-linecap="round" stroke-linejoin="round" stroke-width="2.131" stroke-dasharray="12"/><path d="M-2074.04-1920.8v246.019l6.658-16.645" transform="translate(-74.106 -33.896)" fill="none" stroke="#646363" stroke-linecap="round" stroke-linejoin="round" stroke-width="2"/><path d="M7.871-2.933A3.4,3.4,0,0,1,6.789-.67a3.547,3.547,0,0,1-2.422.8A3.257,3.257,0,0,1,1.742-1.047,4.724,4.724,0,0,1,.755-4.189v-.889a5.266,5.266,0,0,1,.46-2.266,3.438,3.438,0,0,1,1.3-1.5,3.632,3.632,0,0,1,1.955-.524,3.34,3.34,0,0,1,2.361.822A3.441,3.441,0,0,1,7.871-6.271H6.646a2.644,2.644,0,0,0-.689-1.6,2.088,2.088,0,0,0-1.482-.5A2.181,2.181,0,0,0,2.644-7.5,3.961,3.961,0,0,0,1.98-5.046v.9a4.071,4.071,0,0,0,.628,2.393A2.031,2.031,0,0,0,4.367-.87a2.345,2.345,0,0,0,1.558-.46,2.554,2.554,0,0,0,.72-1.6ZM13.59,0a2.467,2.467,0,0,1-.165-.724A2.62,2.62,0,0,1,11.47.127,2.424,2.424,0,0,1,9.8-.448,1.859,1.859,0,0,1,9.153-1.9a1.942,1.942,0,0,1,.816-1.666,3.846,3.846,0,0,1,2.295-.594h1.143V-4.7a1.319,1.319,0,0,0-.368-.981,1.48,1.48,0,0,0-1.085-.365,1.712,1.712,0,0,0-1.054.317.935.935,0,0,0-.425.768H9.293a1.621,1.621,0,0,1,.365-.993,2.491,2.491,0,0,1,.99-.759A3.331,3.331,0,0,1,12.022-7a2.715,2.715,0,0,1,1.86.594,2.141,2.141,0,0,1,.7,1.635v3.161a3.865,3.865,0,0,0,.241,1.5V0ZM11.642-.9a2.064,2.064,0,0,0,1.047-.286,1.728,1.728,0,0,0,.717-.743V-3.333h-.92q-2.158,0-2.158,1.263a1.069,1.069,0,0,0,.368.863A1.415,1.415,0,0,0,11.642-.9Zm5.884-5.973.032.762A2.536,2.536,0,0,1,19.6-7a1.964,1.964,0,0,1,1.961,1.1,2.6,2.6,0,0,1,.892-.8,2.634,2.634,0,0,1,1.3-.3q2.26,0,2.3,2.393V0H24.87V-4.532a1.577,1.577,0,0,0-.336-1.1A1.482,1.482,0,0,0,23.4-6a1.557,1.557,0,0,0-1.085.39,1.584,1.584,0,0,0-.5,1.051V0H20.636V-4.5A1.31,1.31,0,0,0,19.17-6a1.571,1.571,0,0,0-1.581.984V0H16.415V-6.868ZM29.091,0H27.917V-6.868h1.174Zm-1.27-8.69A.7.7,0,0,1,28-9.172a.655.655,0,0,1,.517-.2.666.666,0,0,1,.521.2.694.694,0,0,1,.178.482.671.671,0,0,1-.178.476.678.678,0,0,1-.521.19A.667.667,0,0,1,28-8.214.678.678,0,0,1,27.822-8.69Zm7.147,6.868a.865.865,0,0,0-.359-.74,3.452,3.452,0,0,0-1.25-.454,5.912,5.912,0,0,1-1.416-.457,2.014,2.014,0,0,1-.774-.635,1.518,1.518,0,0,1-.251-.876,1.782,1.782,0,0,1,.714-1.428A2.789,2.789,0,0,1,33.458-7a2.87,2.87,0,0,1,1.895.6A1.915,1.915,0,0,1,36.08-4.85H34.9a1.06,1.06,0,0,0-.409-.832,1.534,1.534,0,0,0-1.031-.349,1.605,1.605,0,0,0-1,.279.879.879,0,0,0-.362.73.712.712,0,0,0,.336.641,4.139,4.139,0,0,0,1.216.413,6.334,6.334,0,0,1,1.425.47,2.079,2.079,0,0,1,.809.657,1.615,1.615,0,0,1,.263.936,1.758,1.758,0,0,1-.736,1.476A3.089,3.089,0,0,1,33.5.127a3.459,3.459,0,0,1-1.46-.292,2.375,2.375,0,0,1-.993-.816,1.966,1.966,0,0,1-.359-1.133h1.174a1.216,1.216,0,0,0,.473.936A1.835,1.835,0,0,0,33.5-.832a1.894,1.894,0,0,0,1.07-.27A.829.829,0,0,0,34.969-1.822ZM41.914,0a2.467,2.467,0,0,1-.165-.724,2.62,2.62,0,0,1-1.955.851,2.424,2.424,0,0,1-1.666-.574A1.859,1.859,0,0,1,37.477-1.9a1.942,1.942,0,0,1,.816-1.666,3.846,3.846,0,0,1,2.295-.594h1.143V-4.7a1.319,1.319,0,0,0-.368-.981,1.48,1.48,0,0,0-1.085-.365,1.712,1.712,0,0,0-1.054.317.935.935,0,0,0-.425.768H37.616a1.621,1.621,0,0,1,.365-.993,2.491,2.491,0,0,1,.99-.759A3.331,3.331,0,0,1,40.346-7a2.715,2.715,0,0,1,1.86.594,2.141,2.141,0,0,1,.7,1.635v3.161a3.865,3.865,0,0,0,.241,1.5V0ZM39.965-.9a2.064,2.064,0,0,0,1.047-.286,1.728,1.728,0,0,0,.717-.743V-3.333h-.92q-2.158,0-2.158,1.263a1.069,1.069,0,0,0,.368.863A1.415,1.415,0,0,0,39.965-.9Zm10.753.063a1.692,1.692,0,0,0,1.1-.381,1.34,1.34,0,0,0,.521-.952h1.111a2.13,2.13,0,0,1-.406,1.124,2.676,2.676,0,0,1-1,.851,2.885,2.885,0,0,1-1.323.317,2.829,2.829,0,0,1-2.231-.936,3.729,3.729,0,0,1-.828-2.561v-.2a4.135,4.135,0,0,1,.368-1.784,2.8,2.8,0,0,1,1.057-1.212A3,3,0,0,1,50.711-7a2.755,2.755,0,0,1,1.92.692,2.473,2.473,0,0,1,.816,1.8H52.336a1.618,1.618,0,0,0-.5-1.095,1.57,1.57,0,0,0-1.12-.428,1.644,1.644,0,0,0-1.387.644,3.026,3.026,0,0,0-.492,1.863V-3.3a2.965,2.965,0,0,0,.489,1.828A1.651,1.651,0,0,0,50.718-.832ZM56.043,0H54.869V-9.75h1.174Zm6.119,0A2.467,2.467,0,0,1,62-.724a2.62,2.62,0,0,1-1.955.851,2.424,2.424,0,0,1-1.666-.574A1.859,1.859,0,0,1,57.726-1.9a1.942,1.942,0,0,1,.816-1.666,3.846,3.846,0,0,1,2.295-.594h1.143V-4.7a1.319,1.319,0,0,0-.368-.981,1.48,1.48,0,0,0-1.085-.365,1.712,1.712,0,0,0-1.054.317.935.935,0,0,0-.425.768H57.865a1.621,1.621,0,0,1,.365-.993,2.491,2.491,0,0,1,.99-.759A3.331,3.331,0,0,1,60.595-7a2.715,2.715,0,0,1,1.86.594,2.141,2.141,0,0,1,.7,1.635v3.161a3.865,3.865,0,0,0,.241,1.5V0ZM60.214-.9a2.064,2.064,0,0,0,1.047-.286,1.728,1.728,0,0,0,.717-.743V-3.333h-.92q-2.158,0-2.158,1.263a1.069,1.069,0,0,0,.368.863A1.415,1.415,0,0,0,60.214-.9ZM61.3-9.75h1.422l-1.7,1.866h-.946Zm7.693,7.928a.864.864,0,0,0-.359-.74,3.452,3.452,0,0,0-1.25-.454,5.912,5.912,0,0,1-1.416-.457,2.014,2.014,0,0,1-.774-.635,1.518,1.518,0,0,1-.251-.876,1.782,1.782,0,0,1,.714-1.428A2.789,2.789,0,0,1,67.482-7a2.87,2.87,0,0,1,1.895.6A1.915,1.915,0,0,1,70.1-4.85H68.923a1.06,1.06,0,0,0-.409-.832,1.534,1.534,0,0,0-1.031-.349,1.606,1.606,0,0,0-1,.279.879.879,0,0,0-.362.73.712.712,0,0,0,.336.641,4.139,4.139,0,0,0,1.216.413,6.334,6.334,0,0,1,1.425.47,2.079,2.079,0,0,1,.809.657,1.615,1.615,0,0,1,.263.936,1.758,1.758,0,0,1-.736,1.476A3.089,3.089,0,0,1,67.52.127a3.459,3.459,0,0,1-1.46-.292,2.375,2.375,0,0,1-.993-.816,1.966,1.966,0,0,1-.359-1.133h1.174a1.216,1.216,0,0,0,.473.936,1.835,1.835,0,0,0,1.165.346,1.894,1.894,0,0,0,1.07-.27A.829.829,0,0,0,68.993-1.822ZM72.973,0H71.8V-6.868h1.174ZM71.7-8.69a.7.7,0,0,1,.175-.482.655.655,0,0,1,.517-.2.666.666,0,0,1,.521.2.694.694,0,0,1,.178.482.671.671,0,0,1-.178.476.678.678,0,0,1-.521.19.667.667,0,0,1-.517-.19A.678.678,0,0,1,71.7-8.69Zm5.9,7.858a1.691,1.691,0,0,0,1.1-.381,1.34,1.34,0,0,0,.521-.952h1.111a2.13,2.13,0,0,1-.406,1.124,2.676,2.676,0,0,1-1,.851,2.885,2.885,0,0,1-1.323.317,2.829,2.829,0,0,1-2.231-.936,3.729,3.729,0,0,1-.828-2.561v-.2a4.135,4.135,0,0,1,.368-1.784,2.8,2.8,0,0,1,1.057-1.212A3,3,0,0,1,77.6-7a2.755,2.755,0,0,1,1.92.692,2.473,2.473,0,0,1,.816,1.8H79.225a1.618,1.618,0,0,0-.5-1.095A1.57,1.57,0,0,0,77.6-6.03a1.644,1.644,0,0,0-1.387.644,3.026,3.026,0,0,0-.492,1.863V-3.3a2.966,2.966,0,0,0,.489,1.828A1.651,1.651,0,0,0,77.606-.832ZM85.9,0a2.467,2.467,0,0,1-.165-.724,2.62,2.62,0,0,1-1.955.851A2.424,2.424,0,0,1,82.11-.448,1.859,1.859,0,0,1,81.459-1.9a1.942,1.942,0,0,1,.816-1.666,3.846,3.846,0,0,1,2.295-.594h1.143V-4.7a1.319,1.319,0,0,0-.368-.981,1.48,1.48,0,0,0-1.085-.365,1.712,1.712,0,0,0-1.054.317.935.935,0,0,0-.425.768H81.6a1.621,1.621,0,0,1,.365-.993,2.491,2.491,0,0,1,.99-.759A3.331,3.331,0,0,1,84.329-7a2.715,2.715,0,0,1,1.86.594,2.141,2.141,0,0,1,.7,1.635v3.161a3.865,3.865,0,0,0,.241,1.5V0ZM83.948-.9A2.064,2.064,0,0,0,85-1.181a1.728,1.728,0,0,0,.717-.743V-3.333h-.92q-2.158,0-2.158,1.263A1.069,1.069,0,0,0,83-1.206,1.415,1.415,0,0,0,83.948-.9Z" transform="translate(-2135.789 -1883.087) rotate(90)" fill="#161615"/><path d="M7.871-2.933A3.4,3.4,0,0,1,6.789-.67a3.547,3.547,0,0,1-2.422.8A3.257,3.257,0,0,1,1.742-1.047,4.724,4.724,0,0,1,.755-4.189v-.889a5.266,5.266,0,0,1,.46-2.266,3.438,3.438,0,0,1,1.3-1.5,3.632,3.632,0,0,1,1.955-.524,3.34,3.34,0,0,1,2.361.822A3.441,3.441,0,0,1,7.871-6.271H6.646a2.644,2.644,0,0,0-.689-1.6,2.088,2.088,0,0,0-1.482-.5A2.181,2.181,0,0,0,2.644-7.5,3.961,3.961,0,0,0,1.98-5.046v.9a4.071,4.071,0,0,0,.628,2.393A2.031,2.031,0,0,0,4.367-.87a2.345,2.345,0,0,0,1.558-.46,2.554,2.554,0,0,0,.72-1.6ZM13.59,0a2.467,2.467,0,0,1-.165-.724A2.62,2.62,0,0,1,11.47.127,2.424,2.424,0,0,1,9.8-.448,1.859,1.859,0,0,1,9.153-1.9a1.942,1.942,0,0,1,.816-1.666,3.846,3.846,0,0,1,2.295-.594h1.143V-4.7a1.319,1.319,0,0,0-.368-.981,1.48,1.48,0,0,0-1.085-.365,1.712,1.712,0,0,0-1.054.317.935.935,0,0,0-.425.768H9.293a1.621,1.621,0,0,1,.365-.993,2.491,2.491,0,0,1,.99-.759A3.331,3.331,0,0,1,12.022-7a2.715,2.715,0,0,1,1.86.594,2.141,2.141,0,0,1,.7,1.635v3.161a3.865,3.865,0,0,0,.241,1.5V0ZM11.642-.9a2.064,2.064,0,0,0,1.047-.286,1.728,1.728,0,0,0,.717-.743V-3.333h-.92q-2.158,0-2.158,1.263a1.069,1.069,0,0,0,.368.863A1.415,1.415,0,0,0,11.642-.9Zm5.884-5.973.032.762A2.536,2.536,0,0,1,19.6-7a1.964,1.964,0,0,1,1.961,1.1,2.6,2.6,0,0,1,.892-.8,2.634,2.634,0,0,1,1.3-.3q2.26,0,2.3,2.393V0H24.87V-4.532a1.577,1.577,0,0,0-.336-1.1A1.482,1.482,0,0,0,23.4-6a1.557,1.557,0,0,0-1.085.39,1.584,1.584,0,0,0-.5,1.051V0H20.636V-4.5A1.31,1.31,0,0,0,19.17-6a1.571,1.571,0,0,0-1.581.984V0H16.415V-6.868ZM29.091,0H27.917V-6.868h1.174Zm-1.27-8.69A.7.7,0,0,1,28-9.172a.655.655,0,0,1,.517-.2.666.666,0,0,1,.521.2.694.694,0,0,1,.178.482.671.671,0,0,1-.178.476.678.678,0,0,1-.521.19A.667.667,0,0,1,28-8.214.678.678,0,0,1,27.822-8.69Zm7.147,6.868a.865.865,0,0,0-.359-.74,3.452,3.452,0,0,0-1.25-.454,5.912,5.912,0,0,1-1.416-.457,2.014,2.014,0,0,1-.774-.635,1.518,1.518,0,0,1-.251-.876,1.782,1.782,0,0,1,.714-1.428A2.789,2.789,0,0,1,33.458-7a2.87,2.87,0,0,1,1.895.6A1.915,1.915,0,0,1,36.08-4.85H34.9a1.06,1.06,0,0,0-.409-.832,1.534,1.534,0,0,0-1.031-.349,1.605,1.605,0,0,0-1,.279.879.879,0,0,0-.362.73.712.712,0,0,0,.336.641,4.139,4.139,0,0,0,1.216.413,6.334,6.334,0,0,1,1.425.47,2.079,2.079,0,0,1,.809.657,1.615,1.615,0,0,1,.263.936,1.758,1.758,0,0,1-.736,1.476A3.089,3.089,0,0,1,33.5.127a3.459,3.459,0,0,1-1.46-.292,2.375,2.375,0,0,1-.993-.816,1.966,1.966,0,0,1-.359-1.133h1.174a1.216,1.216,0,0,0,.473.936A1.835,1.835,0,0,0,33.5-.832a1.894,1.894,0,0,0,1.07-.27A.829.829,0,0,0,34.969-1.822ZM41.914,0a2.467,2.467,0,0,1-.165-.724,2.62,2.62,0,0,1-1.955.851,2.424,2.424,0,0,1-1.666-.574A1.859,1.859,0,0,1,37.477-1.9a1.942,1.942,0,0,1,.816-1.666,3.846,3.846,0,0,1,2.295-.594h1.143V-4.7a1.319,1.319,0,0,0-.368-.981,1.48,1.48,0,0,0-1.085-.365,1.712,1.712,0,0,0-1.054.317.935.935,0,0,0-.425.768H37.616a1.621,1.621,0,0,1,.365-.993,2.491,2.491,0,0,1,.99-.759A3.331,3.331,0,0,1,40.346-7a2.715,2.715,0,0,1,1.86.594,2.141,2.141,0,0,1,.7,1.635v3.161a3.865,3.865,0,0,0,.241,1.5V0ZM39.965-.9a2.064,2.064,0,0,0,1.047-.286,1.728,1.728,0,0,0,.717-.743V-3.333h-.92q-2.158,0-2.158,1.263a1.069,1.069,0,0,0,.368.863A1.415,1.415,0,0,0,39.965-.9Zm10.753.063a1.692,1.692,0,0,0,1.1-.381,1.34,1.34,0,0,0,.521-.952h1.111a2.13,2.13,0,0,1-.406,1.124,2.676,2.676,0,0,1-1,.851,2.885,2.885,0,0,1-1.323.317,2.829,2.829,0,0,1-2.231-.936,3.729,3.729,0,0,1-.828-2.561v-.2a4.135,4.135,0,0,1,.368-1.784,2.8,2.8,0,0,1,1.057-1.212A3,3,0,0,1,50.711-7a2.755,2.755,0,0,1,1.92.692,2.473,2.473,0,0,1,.816,1.8H52.336a1.618,1.618,0,0,0-.5-1.095,1.57,1.57,0,0,0-1.12-.428,1.644,1.644,0,0,0-1.387.644,3.026,3.026,0,0,0-.492,1.863V-3.3a2.965,2.965,0,0,0,.489,1.828A1.651,1.651,0,0,0,50.718-.832ZM56.043,0H54.869V-9.75h1.174Zm6.119,0A2.467,2.467,0,0,1,62-.724a2.62,2.62,0,0,1-1.955.851,2.424,2.424,0,0,1-1.666-.574A1.859,1.859,0,0,1,57.726-1.9a1.942,1.942,0,0,1,.816-1.666,3.846,3.846,0,0,1,2.295-.594h1.143V-4.7a1.319,1.319,0,0,0-.368-.981,1.48,1.48,0,0,0-1.085-.365,1.712,1.712,0,0,0-1.054.317.935.935,0,0,0-.425.768H57.865a1.621,1.621,0,0,1,.365-.993,2.491,2.491,0,0,1,.99-.759A3.331,3.331,0,0,1,60.595-7a2.715,2.715,0,0,1,1.86.594,2.141,2.141,0,0,1,.7,1.635v3.161a3.865,3.865,0,0,0,.241,1.5V0ZM60.214-.9a2.064,2.064,0,0,0,1.047-.286,1.728,1.728,0,0,0,.717-.743V-3.333h-.92q-2.158,0-2.158,1.263a1.069,1.069,0,0,0,.368.863A1.415,1.415,0,0,0,60.214-.9ZM61.3-9.75h1.422l-1.7,1.866h-.946Zm7.693,7.928a.864.864,0,0,0-.359-.74,3.452,3.452,0,0,0-1.25-.454,5.912,5.912,0,0,1-1.416-.457,2.014,2.014,0,0,1-.774-.635,1.518,1.518,0,0,1-.251-.876,1.782,1.782,0,0,1,.714-1.428A2.789,2.789,0,0,1,67.482-7a2.87,2.87,0,0,1,1.895.6A1.915,1.915,0,0,1,70.1-4.85H68.923a1.06,1.06,0,0,0-.409-.832,1.534,1.534,0,0,0-1.031-.349,1.606,1.606,0,0,0-1,.279.879.879,0,0,0-.362.73.712.712,0,0,0,.336.641,4.139,4.139,0,0,0,1.216.413,6.334,6.334,0,0,1,1.425.47,2.079,2.079,0,0,1,.809.657,1.615,1.615,0,0,1,.263.936,1.758,1.758,0,0,1-.736,1.476A3.089,3.089,0,0,1,67.52.127a3.459,3.459,0,0,1-1.46-.292,2.375,2.375,0,0,1-.993-.816,1.966,1.966,0,0,1-.359-1.133h1.174a1.216,1.216,0,0,0,.473.936,1.835,1.835,0,0,0,1.165.346,1.894,1.894,0,0,0,1.07-.27A.829.829,0,0,0,68.993-1.822ZM72.973,0H71.8V-6.868h1.174ZM71.7-8.69a.7.7,0,0,1,.175-.482.655.655,0,0,1,.517-.2.666.666,0,0,1,.521.2.694.694,0,0,1,.178.482.671.671,0,0,1-.178.476.678.678,0,0,1-.521.19.667.667,0,0,1-.517-.19A.678.678,0,0,1,71.7-8.69Zm5.9,7.858a1.691,1.691,0,0,0,1.1-.381,1.34,1.34,0,0,0,.521-.952h1.111a2.13,2.13,0,0,1-.406,1.124,2.676,2.676,0,0,1-1,.851,2.885,2.885,0,0,1-1.323.317,2.829,2.829,0,0,1-2.231-.936,3.729,3.729,0,0,1-.828-2.561v-.2a4.135,4.135,0,0,1,.368-1.784,2.8,2.8,0,0,1,1.057-1.212A3,3,0,0,1,77.6-7a2.755,2.755,0,0,1,1.92.692,2.473,2.473,0,0,1,.816,1.8H79.225a1.618,1.618,0,0,0-.5-1.095A1.57,1.57,0,0,0,77.6-6.03a1.644,1.644,0,0,0-1.387.644,3.026,3.026,0,0,0-.492,1.863V-3.3a2.966,2.966,0,0,0,.489,1.828A1.651,1.651,0,0,0,77.606-.832ZM85.9,0a2.467,2.467,0,0,1-.165-.724,2.62,2.62,0,0,1-1.955.851A2.424,2.424,0,0,1,82.11-.448,1.859,1.859,0,0,1,81.459-1.9a1.942,1.942,0,0,1,.816-1.666,3.846,3.846,0,0,1,2.295-.594h1.143V-4.7a1.319,1.319,0,0,0-.368-.981,1.48,1.48,0,0,0-1.085-.365,1.712,1.712,0,0,0-1.054.317.935.935,0,0,0-.425.768H81.6a1.621,1.621,0,0,1,.365-.993,2.491,2.491,0,0,1,.99-.759A3.331,3.331,0,0,1,84.329-7a2.715,2.715,0,0,1,1.86.594,2.141,2.141,0,0,1,.7,1.635v3.161a3.865,3.865,0,0,0,.241,1.5V0ZM83.948-.9A2.064,2.064,0,0,0,85-1.181a1.728,1.728,0,0,0,.717-.743V-3.333h-.92q-2.158,0-2.158,1.263A1.069,1.069,0,0,0,83-1.206,1.415,1.415,0,0,0,83.948-.9Z" transform="translate(-2292.831 -1981.391) rotate(90)" fill="#161615"/></g></svg>