<svg xmlns="http://www.w3.org/2000/svg" width="400" height="512" viewBox="0 0 400 512"><g transform="translate(-180 -8476)"><rect width="5" height="28" transform="translate(180 8476)" fill="#339be8"/><g transform="translate(0 -43)"><path d="M1.073,0V-9.242H4.094a3.507,3.507,0,0,1,2.263.622,2.242,2.242,0,0,1,.759,1.841,1.877,1.877,0,0,1-.368,1.146,2.387,2.387,0,0,1-1,.771,2.143,2.143,0,0,1,1.184.8,2.286,2.286,0,0,1,.435,1.4A2.472,2.472,0,0,1,6.557-.711,3.334,3.334,0,0,1,4.278,0ZM2.292-4.323V-1H4.3a1.938,1.938,0,0,0,1.343-.441,1.549,1.549,0,0,0,.492-1.216q0-1.669-1.815-1.669Zm0-.978H4.132a1.932,1.932,0,0,0,1.279-.4,1.339,1.339,0,0,0,.479-1.085,1.317,1.317,0,0,0-.444-1.108,2.186,2.186,0,0,0-1.352-.346h-1.8ZM8.671-3.5a4.057,4.057,0,0,1,.4-1.815,2.96,2.96,0,0,1,1.1-1.244A3.007,3.007,0,0,1,11.788-7a2.9,2.9,0,0,1,2.269.971,3.736,3.736,0,0,1,.866,2.583v.083a4.092,4.092,0,0,1-.384,1.8,2.916,2.916,0,0,1-1.1,1.241A3.041,3.041,0,0,1,11.8.127,2.889,2.889,0,0,1,9.537-.844a3.718,3.718,0,0,1-.866-2.571Zm1.181.14a2.938,2.938,0,0,0,.53,1.834A1.7,1.7,0,0,0,11.8-.832a1.686,1.686,0,0,0,1.422-.7A3.213,3.213,0,0,0,13.749-3.5a2.933,2.933,0,0,0-.536-1.831,1.705,1.705,0,0,0-1.425-.7,1.686,1.686,0,0,0-1.4.692A3.189,3.189,0,0,0,9.852-3.358ZM17.672,0H16.5V-9.75h1.174ZM23.55-1.822a.864.864,0,0,0-.359-.74,3.452,3.452,0,0,0-1.25-.454,5.912,5.912,0,0,1-1.416-.457,2.014,2.014,0,0,1-.774-.635,1.518,1.518,0,0,1-.251-.876,1.782,1.782,0,0,1,.714-1.428A2.789,2.789,0,0,1,22.039-7a2.87,2.87,0,0,1,1.895.6,1.915,1.915,0,0,1,.727,1.542H23.48a1.06,1.06,0,0,0-.409-.832,1.534,1.534,0,0,0-1.031-.349,1.606,1.606,0,0,0-1,.279.879.879,0,0,0-.362.73.712.712,0,0,0,.336.641,4.139,4.139,0,0,0,1.216.413,6.334,6.334,0,0,1,1.425.47,2.079,2.079,0,0,1,.809.657,1.615,1.615,0,0,1,.263.936,1.758,1.758,0,0,1-.736,1.476,3.089,3.089,0,0,1-1.911.555,3.459,3.459,0,0,1-1.46-.292,2.375,2.375,0,0,1-.993-.816,1.966,1.966,0,0,1-.359-1.133h1.174a1.216,1.216,0,0,0,.473.936,1.835,1.835,0,0,0,1.165.346,1.894,1.894,0,0,0,1.07-.27A.829.829,0,0,0,23.55-1.822ZM27.53,0H26.355V-6.868H27.53ZM26.26-8.69a.7.7,0,0,1,.175-.482.655.655,0,0,1,.517-.2.666.666,0,0,1,.521.2.694.694,0,0,1,.178.482.671.671,0,0,1-.178.476.678.678,0,0,1-.521.19.667.667,0,0,1-.517-.19A.678.678,0,0,1,26.26-8.69ZM30.685,0H29.51V-9.75h1.174Zm3.155,0H32.665V-9.75h1.174Zm1.568-3.5a4.057,4.057,0,0,1,.4-1.815,2.96,2.96,0,0,1,1.1-1.244A3.007,3.007,0,0,1,38.524-7a2.9,2.9,0,0,1,2.269.971A3.736,3.736,0,0,1,41.66-3.44v.083a4.092,4.092,0,0,1-.384,1.8,2.916,2.916,0,0,1-1.1,1.241,3.041,3.041,0,0,1-1.641.444,2.889,2.889,0,0,1-2.263-.971,3.718,3.718,0,0,1-.866-2.571Zm1.181.14a2.938,2.938,0,0,0,.53,1.834,1.7,1.7,0,0,0,1.419.692,1.686,1.686,0,0,0,1.422-.7A3.213,3.213,0,0,0,40.485-3.5a2.933,2.933,0,0,0-.536-1.831,1.705,1.705,0,0,0-1.425-.7,1.686,1.686,0,0,0-1.4.692A3.189,3.189,0,0,0,36.588-3.358ZM47.626,0H46.452V-9.75h1.174Zm6.119,0a2.467,2.467,0,0,1-.165-.724,2.62,2.62,0,0,1-1.955.851,2.424,2.424,0,0,1-1.666-.574A1.859,1.859,0,0,1,49.309-1.9a1.942,1.942,0,0,1,.816-1.666,3.846,3.846,0,0,1,2.295-.594h1.143V-4.7a1.319,1.319,0,0,0-.368-.981,1.48,1.48,0,0,0-1.085-.365,1.712,1.712,0,0,0-1.054.317.935.935,0,0,0-.425.768H49.448a1.621,1.621,0,0,1,.365-.993,2.491,2.491,0,0,1,.99-.759A3.331,3.331,0,0,1,52.178-7a2.715,2.715,0,0,1,1.86.594,2.141,2.141,0,0,1,.7,1.635v3.161a3.865,3.865,0,0,0,.241,1.5V0ZM51.8-.9a2.064,2.064,0,0,0,1.047-.286,1.728,1.728,0,0,0,.717-.743V-3.333h-.92q-2.158,0-2.158,1.263a1.069,1.069,0,0,0,.368.863A1.415,1.415,0,0,0,51.8-.9ZM58.17-8.531v1.663h1.282v.908H58.17V-1.7a.951.951,0,0,0,.171.619.722.722,0,0,0,.584.206,2.843,2.843,0,0,0,.559-.076V0a3.4,3.4,0,0,1-.9.127A1.462,1.462,0,0,1,57.4-.349,2.045,2.045,0,0,1,57-1.7V-5.96h-1.25v-.908H57V-8.531Zm5.5,8.658A3,3,0,0,1,61.4-.79a3.4,3.4,0,0,1-.876-2.453v-.216a4.121,4.121,0,0,1,.39-1.825,3.045,3.045,0,0,1,1.092-1.257A2.745,2.745,0,0,1,63.527-7a2.572,2.572,0,0,1,2.082.882,3.82,3.82,0,0,1,.743,2.526V-3.1H61.7a2.441,2.441,0,0,0,.594,1.641,1.866,1.866,0,0,0,1.444.625,2.045,2.045,0,0,0,1.054-.254,2.648,2.648,0,0,0,.755-.673l.717.559A2.884,2.884,0,0,1,63.673.127ZM63.527-6.03a1.566,1.566,0,0,0-1.193.517,2.515,2.515,0,0,0-.6,1.45h3.44v-.089A2.237,2.237,0,0,0,64.7-5.538,1.475,1.475,0,0,0,63.527-6.03Zm7.5.216a3.519,3.519,0,0,0-.578-.044,1.547,1.547,0,0,0-1.568.984V0H67.71V-6.868h1.143l.019.793A1.829,1.829,0,0,1,70.51-7a1.2,1.2,0,0,1,.521.089ZM76.1,0a2.467,2.467,0,0,1-.165-.724,2.62,2.62,0,0,1-1.955.851,2.424,2.424,0,0,1-1.666-.574A1.859,1.859,0,0,1,71.659-1.9a1.942,1.942,0,0,1,.816-1.666,3.846,3.846,0,0,1,2.295-.594h1.143V-4.7a1.319,1.319,0,0,0-.368-.981,1.48,1.48,0,0,0-1.085-.365,1.712,1.712,0,0,0-1.054.317.935.935,0,0,0-.425.768H71.8a1.621,1.621,0,0,1,.365-.993,2.491,2.491,0,0,1,.99-.759A3.331,3.331,0,0,1,74.528-7a2.715,2.715,0,0,1,1.86.594,2.141,2.141,0,0,1,.7,1.635v3.161a3.865,3.865,0,0,0,.241,1.5V0ZM74.147-.9a2.064,2.064,0,0,0,1.047-.286,1.728,1.728,0,0,0,.717-.743V-3.333h-.92q-2.158,0-2.158,1.263a1.069,1.069,0,0,0,.368.863A1.415,1.415,0,0,0,74.147-.9ZM80.2,0H79.028V-9.75H80.2Z" transform="translate(197 8538)" fill="#12263f"/><g transform="translate(-505.984 7664.513)"><rect width="198.55" height="448.689" transform="translate(758.279 916.487)" fill="none" stroke="#9fb0b7" stroke-miterlimit="10" stroke-width="2.036"/><line x2="240.973" transform="translate(758.279 1113.017)" fill="none" stroke="#9fb0b7" stroke-miterlimit="10" stroke-width="2.036"/><path d="M785.5,916.487l161.418,9.235,9.908,128.712s-3.5,50.5,44.155,58.583l-20.418,252.159H765.205l-6.541-250.331v-.673S765.879,985.941,785.5,916.487Z" fill="none" stroke="#323333" stroke-miterlimit="10" stroke-width="2.036"/><line y2="253.094" transform="translate(872.465 1113.017)" fill="none" stroke="#9fb0b7" stroke-miterlimit="10" stroke-width="2.036"/><line x2="11.544" y2="1.347" transform="translate(776.46 933.995)" fill="none" stroke="#bf3976" stroke-miterlimit="10" stroke-width="2.036"/><line x2="10.582" transform="translate(763.762 1002.102)" fill="none" stroke="#bf3976" stroke-miterlimit="10" stroke-width="2.036"/><path d="M785.888,945.731l20.779,25.2-31.36,25.011" fill="none" stroke="#bf3976" stroke-miterlimit="10" stroke-width="2.036"/><line x2="49.06" transform="translate(787.283 927.454)" fill="none" stroke="#bf3976" stroke-miterlimit="10" stroke-width="2.036"/><path d="M6.606-3.582H8.086v1.106H6.606V0H5.244V-2.476H.388v-.8l4.775-7.39H6.606Zm-4.68,0H5.244V-8.811l-.161.293ZM16.34-.959A1.952,1.952,0,0,0,17.607-1.4a1.546,1.546,0,0,0,.6-1.1H19.49a2.457,2.457,0,0,1-.469,1.3,3.087,3.087,0,0,1-1.154.981A3.329,3.329,0,0,1,16.34.146a3.265,3.265,0,0,1-2.574-1.08,4.3,4.3,0,0,1-.956-2.955v-.227a4.771,4.771,0,0,1,.425-2.058,3.236,3.236,0,0,1,1.219-1.4,3.464,3.464,0,0,1,1.879-.5,3.178,3.178,0,0,1,2.216.8A2.853,2.853,0,0,1,19.49-5.2H18.208a1.867,1.867,0,0,0-.582-1.263,1.811,1.811,0,0,0-1.293-.494,1.9,1.9,0,0,0-1.6.743,3.491,3.491,0,0,0-.568,2.15v.256A3.422,3.422,0,0,0,14.729-1.7,1.906,1.906,0,0,0,16.34-.959Zm5.947-6.965.037.879a2.927,2.927,0,0,1,2.351-1.025A2.266,2.266,0,0,1,26.938-6.8a3,3,0,0,1,1.029-.923,3.039,3.039,0,0,1,1.5-.352q2.607,0,2.651,2.761V0H30.762V-5.229A1.82,1.82,0,0,0,30.374-6.5a1.71,1.71,0,0,0-1.3-.421,1.8,1.8,0,0,0-1.252.45,1.827,1.827,0,0,0-.579,1.212V0H25.876V-5.193a1.512,1.512,0,0,0-1.692-1.729,1.813,1.813,0,0,0-1.824,1.135V0H21.006V-7.925Z" transform="translate(841.489 941.767)"/><path d="M5.339,0H3.977V-9.031l-2.732,1v-1.23l3.882-1.458h.212Zm9.287-10.671v1.15h-.249a3.568,3.568,0,0,0-2.52.938,3.9,3.9,0,0,0-1.084,2.556,2.892,2.892,0,0,1,2.3-.967,2.765,2.765,0,0,1,2.223.981,3.786,3.786,0,0,1,.831,2.534,3.774,3.774,0,0,1-.9,2.637,3.089,3.089,0,0,1-2.406.989,3.044,3.044,0,0,1-2.483-1.176A4.659,4.659,0,0,1,9.39-4.058v-.52a7.02,7.02,0,0,1,1.256-4.5,4.613,4.613,0,0,1,3.739-1.593Zm-1.78,4.8a2.162,2.162,0,0,0-1.282.417A2.175,2.175,0,0,0,10.752-4.4v.5a3.5,3.5,0,0,0,.593,2.124,1.778,1.778,0,0,0,1.479.806,1.723,1.723,0,0,0,1.439-.674,2.8,2.8,0,0,0,.524-1.765,2.8,2.8,0,0,0-.531-1.776A1.7,1.7,0,0,0,12.847-5.867Zm7.844,1.89H17.117V-5.083h3.574ZM26.323,0H24.961V-9.031l-2.732,1v-1.23l3.882-1.458h.212ZM37.178-9.9,32.761,0H31.34l4.4-9.551H29.971v-1.113h7.207ZM45.747-.959A1.952,1.952,0,0,0,47.014-1.4a1.546,1.546,0,0,0,.6-1.1H48.9a2.457,2.457,0,0,1-.469,1.3,3.087,3.087,0,0,1-1.154.981,3.329,3.329,0,0,1-1.527.366,3.265,3.265,0,0,1-2.574-1.08,4.3,4.3,0,0,1-.956-2.955v-.227a4.771,4.771,0,0,1,.425-2.058,3.236,3.236,0,0,1,1.219-1.4,3.464,3.464,0,0,1,1.879-.5,3.178,3.178,0,0,1,2.216.8A2.853,2.853,0,0,1,48.9-5.2H47.615a1.867,1.867,0,0,0-.582-1.263,1.811,1.811,0,0,0-1.293-.494,1.9,1.9,0,0,0-1.6.743,3.491,3.491,0,0,0-.568,2.15v.256A3.422,3.422,0,0,0,44.136-1.7,1.906,1.906,0,0,0,45.747-.959Zm5.947-6.965.037.879a2.927,2.927,0,0,1,2.351-1.025A2.266,2.266,0,0,1,56.345-6.8a3,3,0,0,1,1.029-.923,3.039,3.039,0,0,1,1.5-.352q2.607,0,2.651,2.761V0H60.168V-5.229A1.82,1.82,0,0,0,59.78-6.5a1.71,1.71,0,0,0-1.3-.421,1.8,1.8,0,0,0-1.252.45,1.827,1.827,0,0,0-.579,1.212V0H55.283V-5.193a1.512,1.512,0,0,0-1.692-1.729,1.813,1.813,0,0,0-1.824,1.135V0H50.413V-7.925Z" transform="translate(816.152 976.531)"/><path d="M1.238,0V-10.664H4.724a4.047,4.047,0,0,1,2.611.718A2.587,2.587,0,0,1,8.21-7.822,2.166,2.166,0,0,1,7.786-6.5a2.754,2.754,0,0,1-1.157.89,2.473,2.473,0,0,1,1.366.919,2.638,2.638,0,0,1,.5,1.615A2.852,2.852,0,0,1,7.566-.82,3.847,3.847,0,0,1,4.937,0ZM2.644-4.988V-1.15H4.966a2.236,2.236,0,0,0,1.549-.509,1.788,1.788,0,0,0,.568-1.4q0-1.926-2.095-1.926Zm0-1.128H4.768a2.23,2.23,0,0,0,1.476-.461A1.545,1.545,0,0,0,6.8-7.83a1.52,1.52,0,0,0-.513-1.278,2.522,2.522,0,0,0-1.56-.4H2.644ZM10-4.036a4.681,4.681,0,0,1,.458-2.095,3.415,3.415,0,0,1,1.274-1.436A3.469,3.469,0,0,1,13.6-8.071a3.342,3.342,0,0,1,2.618,1.121,4.311,4.311,0,0,1,1,2.981v.1A4.722,4.722,0,0,1,16.776-1.8,3.365,3.365,0,0,1,15.509-.366a3.509,3.509,0,0,1-1.893.513A3.334,3.334,0,0,1,11-.974,4.29,4.29,0,0,1,10-3.94Zm1.362.161a3.39,3.39,0,0,0,.612,2.117,1.957,1.957,0,0,0,1.637.8,1.945,1.945,0,0,0,1.641-.809,3.707,3.707,0,0,0,.608-2.267,3.384,3.384,0,0,0-.619-2.113A1.968,1.968,0,0,0,13.6-6.958a1.946,1.946,0,0,0-1.619.8A3.68,3.68,0,0,0,11.367-3.875ZM20.391,0H19.036V-11.25h1.355Zm6.782-2.1a1,1,0,0,0-.414-.853,3.983,3.983,0,0,0-1.443-.524,6.822,6.822,0,0,1-1.633-.527,2.324,2.324,0,0,1-.894-.732A1.752,1.752,0,0,1,22.5-5.75,2.056,2.056,0,0,1,23.324-7.4a3.218,3.218,0,0,1,2.106-.674,3.311,3.311,0,0,1,2.186.7,2.21,2.21,0,0,1,.839,1.78H27.092a1.223,1.223,0,0,0-.472-.959,1.77,1.77,0,0,0-1.19-.4,1.852,1.852,0,0,0-1.157.322,1.014,1.014,0,0,0-.417.842.822.822,0,0,0,.388.74,4.776,4.776,0,0,0,1.4.476,7.308,7.308,0,0,1,1.644.542,2.4,2.4,0,0,1,.934.758,1.864,1.864,0,0,1,.3,1.08,2.028,2.028,0,0,1-.85,1.7,3.564,3.564,0,0,1-2.2.641A3.991,3.991,0,0,1,23.789-.19a2.74,2.74,0,0,1-1.146-.941,2.268,2.268,0,0,1-.414-1.307h1.355a1.4,1.4,0,0,0,.546,1.08,2.117,2.117,0,0,0,1.344.4,2.185,2.185,0,0,0,1.234-.311A.956.956,0,0,0,27.173-2.1ZM31.765,0H30.41V-7.925h1.355ZM30.3-10.027a.809.809,0,0,1,.2-.557.756.756,0,0,1,.6-.227.768.768,0,0,1,.6.227.8.8,0,0,1,.205.557.774.774,0,0,1-.205.549.782.782,0,0,1-.6.22.77.77,0,0,1-.6-.22A.782.782,0,0,1,30.3-10.027ZM35.405,0H34.05V-11.25h1.355Zm3.64,0H37.69V-11.25h1.355Zm1.809-4.036a4.681,4.681,0,0,1,.458-2.095,3.415,3.415,0,0,1,1.274-1.436,3.469,3.469,0,0,1,1.864-.505,3.342,3.342,0,0,1,2.618,1.121,4.311,4.311,0,0,1,1,2.981v.1A4.722,4.722,0,0,1,47.626-1.8,3.365,3.365,0,0,1,46.359-.366a3.509,3.509,0,0,1-1.893.513A3.334,3.334,0,0,1,41.854-.974a4.29,4.29,0,0,1-1-2.966Zm1.362.161a3.39,3.39,0,0,0,.612,2.117,1.957,1.957,0,0,0,1.637.8,1.945,1.945,0,0,0,1.641-.809,3.707,3.707,0,0,0,.608-2.267,3.384,3.384,0,0,0-.619-2.113,1.968,1.968,0,0,0-1.644-.809,1.946,1.946,0,0,0-1.619.8A3.68,3.68,0,0,0,42.217-3.875ZM54.954,0H53.6V-11.25h1.355Zm7.061,0a2.846,2.846,0,0,1-.19-.835,3.023,3.023,0,0,1-2.256.981,2.8,2.8,0,0,1-1.923-.663A2.145,2.145,0,0,1,56.895-2.2a2.24,2.24,0,0,1,.941-1.923A4.437,4.437,0,0,1,60.483-4.8H61.8v-.623a1.522,1.522,0,0,0-.425-1.132,1.707,1.707,0,0,0-1.252-.421,1.976,1.976,0,0,0-1.216.366,1.079,1.079,0,0,0-.491.886H57.056a1.87,1.87,0,0,1,.421-1.146,2.874,2.874,0,0,1,1.143-.875,3.844,3.844,0,0,1,1.586-.322,3.133,3.133,0,0,1,2.146.685A2.47,2.47,0,0,1,63.157-5.5v3.647a4.459,4.459,0,0,0,.278,1.736V0ZM59.766-1.033a2.381,2.381,0,0,0,1.208-.33,1.994,1.994,0,0,0,.828-.857V-3.845H60.74q-2.49,0-2.49,1.458a1.234,1.234,0,0,0,.425,1A1.633,1.633,0,0,0,59.766-1.033Zm7.354-8.811v1.919H68.6v1.047H67.119v4.915a1.1,1.1,0,0,0,.2.714.833.833,0,0,0,.674.238,3.281,3.281,0,0,0,.645-.088V0A3.928,3.928,0,0,1,67.6.146,1.687,1.687,0,0,1,66.226-.4a2.36,2.36,0,0,1-.461-1.56V-6.877H64.321V-7.925h1.443V-9.844Zm6.35,9.99A3.463,3.463,0,0,1,70.847-.912a3.928,3.928,0,0,1-1.011-2.831v-.249a4.756,4.756,0,0,1,.45-2.106,3.514,3.514,0,0,1,1.26-1.45A3.167,3.167,0,0,1,73.3-8.071a2.968,2.968,0,0,1,2.4,1.018,4.408,4.408,0,0,1,.857,2.915v.564H71.191a2.817,2.817,0,0,0,.685,1.893,2.153,2.153,0,0,0,1.666.721,2.36,2.36,0,0,0,1.216-.293,3.055,3.055,0,0,0,.872-.776l.828.645A3.328,3.328,0,0,1,73.469.146Zm-.168-7.1a1.807,1.807,0,0,0-1.377.6,2.9,2.9,0,0,0-.688,1.674h3.97v-.1a2.581,2.581,0,0,0-.557-1.6A1.7,1.7,0,0,0,73.3-6.958Zm8.657.249a4.06,4.06,0,0,0-.667-.051,1.786,1.786,0,0,0-1.809,1.135V0H78.127V-7.925h1.318l.022.916a2.11,2.11,0,0,1,1.89-1.062,1.384,1.384,0,0,1,.6.1ZM87.8,0a2.846,2.846,0,0,1-.19-.835,3.023,3.023,0,0,1-2.256.981,2.8,2.8,0,0,1-1.923-.663A2.145,2.145,0,0,1,82.683-2.2a2.24,2.24,0,0,1,.941-1.923A4.437,4.437,0,0,1,86.272-4.8H87.59v-.623a1.522,1.522,0,0,0-.425-1.132,1.707,1.707,0,0,0-1.252-.421,1.976,1.976,0,0,0-1.216.366,1.079,1.079,0,0,0-.491.886H82.844a1.87,1.87,0,0,1,.421-1.146,2.874,2.874,0,0,1,1.143-.875,3.844,3.844,0,0,1,1.586-.322,3.133,3.133,0,0,1,2.146.685A2.47,2.47,0,0,1,88.945-5.5v3.647a4.459,4.459,0,0,0,.278,1.736V0ZM85.554-1.033a2.381,2.381,0,0,0,1.208-.33,1.994,1.994,0,0,0,.828-.857V-3.845H86.528q-2.49,0-2.49,1.458a1.234,1.234,0,0,0,.425,1A1.633,1.633,0,0,0,85.554-1.033ZM92.542,0H91.187V-11.25h1.355Z" transform="translate(813.074 1028.285)"/></g><rect width="400" height="450" transform="translate(180 8581)" fill="none"/></g></g></svg>