<svg xmlns="http://www.w3.org/2000/svg" width="609.859" height="64.604" viewBox="0 0 609.859 64.604"><g transform="translate(-495 -19307.361)"><g transform="translate(2329.103 19321.137)"><g transform="translate(-1832.528 -11.775)"><rect width="606.851" height="61.456" fill="#fff" stroke="#ad2564" stroke-miterlimit="10" stroke-width="1"/></g><circle cx="1.575" cy="1.575" r="1.575" transform="translate(-1834.102 -13.776)" fill="#ad2564"/><circle cx="1.575" cy="1.575" r="1.575" transform="translate(-1834.102 47.68)" fill="#ad2564"/><circle cx="1.575" cy="1.575" r="1.575" transform="translate(-1227.393 -13.776)" fill="#ad2564"/><circle cx="1.575" cy="1.575" r="1.575" transform="translate(-1227.393 47.68)" fill="#ad2564"/><path d="M-1708.559,22.019h400l-16.878-6.57" transform="translate(-20.614 2.642)" fill="none" stroke="#ad2564" stroke-miterlimit="10" stroke-width="1"/></g><g transform="translate(689 19279.152)" style="isolation:isolate"><path d="M3.329-4.491V0h-2.1V-12.086H5.852a4.679,4.679,0,0,1,3.217,1.054A3.543,3.543,0,0,1,10.26-8.243,3.425,3.425,0,0,1,9.094-5.479a4.905,4.905,0,0,1-3.266.988Zm0-1.685H5.852A2.485,2.485,0,0,0,7.562-6.7a1.937,1.937,0,0,0,.589-1.523,2.09,2.09,0,0,0-.6-1.565,2.3,2.3,0,0,0-1.644-.6H3.329ZM17.174,0a3.113,3.113,0,0,1-.232-.838,3.14,3.14,0,0,1-2.357,1,3.169,3.169,0,0,1-2.208-.772,2.47,2.47,0,0,1-.855-1.909,2.55,2.55,0,0,1,1.067-2.2,5.169,5.169,0,0,1,3.051-.768h1.237v-.589a1.573,1.573,0,0,0-.39-1.116A1.547,1.547,0,0,0,15.3-7.612a1.777,1.777,0,0,0-1.129.344,1.066,1.066,0,0,0-.44.876H11.712a2.239,2.239,0,0,1,.49-1.382,3.263,3.263,0,0,1,1.332-1.009,4.68,4.68,0,0,1,1.88-.365,3.769,3.769,0,0,1,2.515.793,2.827,2.827,0,0,1,.963,2.229v4.051a4.591,4.591,0,0,0,.34,1.934V0ZM14.958-1.453a2.294,2.294,0,0,0,1.125-.291,1.941,1.941,0,0,0,.793-.78V-4.217H15.788a2.973,2.973,0,0,0-1.685.39,1.264,1.264,0,0,0-.564,1.1,1.179,1.179,0,0,0,.386.926A1.5,1.5,0,0,0,14.958-1.453ZM26.04-2.44a.914.914,0,0,0-.444-.822,4.723,4.723,0,0,0-1.473-.5A7.574,7.574,0,0,1,22.4-4.308a2.293,2.293,0,0,1-1.511-2.117,2.391,2.391,0,0,1,.979-1.942,3.872,3.872,0,0,1,2.49-.78,4.029,4.029,0,0,1,2.6.8,2.529,2.529,0,0,1,.992,2.067H25.94a1.243,1.243,0,0,0-.432-.967,1.654,1.654,0,0,0-1.146-.386,1.787,1.787,0,0,0-1.083.307.968.968,0,0,0-.419.822.818.818,0,0,0,.39.722,5.365,5.365,0,0,0,1.577.519,7.466,7.466,0,0,1,1.864.623,2.639,2.639,0,0,1,1,.867,2.212,2.212,0,0,1,.328,1.229,2.34,2.34,0,0,1-1,1.963,4.283,4.283,0,0,1-2.631.751,4.644,4.644,0,0,1-1.967-.4,3.238,3.238,0,0,1-1.345-1.1,2.594,2.594,0,0,1-.481-1.5h1.959a1.421,1.421,0,0,0,.54,1.1,2.1,2.1,0,0,0,1.32.386,2.04,2.04,0,0,0,1.212-.3A.938.938,0,0,0,26.04-2.44ZM35.146,0a3.113,3.113,0,0,1-.232-.838,3.14,3.14,0,0,1-2.357,1,3.169,3.169,0,0,1-2.208-.772,2.47,2.47,0,0,1-.855-1.909,2.55,2.55,0,0,1,1.067-2.2,5.169,5.169,0,0,1,3.051-.768h1.237v-.589a1.573,1.573,0,0,0-.39-1.116,1.547,1.547,0,0,0-1.187-.419,1.777,1.777,0,0,0-1.129.344,1.066,1.066,0,0,0-.44.876H29.684a2.239,2.239,0,0,1,.49-1.382,3.263,3.263,0,0,1,1.332-1.009,4.68,4.68,0,0,1,1.88-.365,3.769,3.769,0,0,1,2.515.793,2.827,2.827,0,0,1,.963,2.229v4.051A4.591,4.591,0,0,0,37.2-.141V0ZM32.929-1.453a2.294,2.294,0,0,0,1.125-.291,1.941,1.941,0,0,0,.793-.78V-4.217H33.759a2.973,2.973,0,0,0-1.685.39,1.264,1.264,0,0,0-.564,1.1A1.179,1.179,0,0,0,31.9-1.8,1.5,1.5,0,0,0,32.929-1.453Zm5.669-3.1a5.34,5.34,0,0,1,.963-3.333,3.085,3.085,0,0,1,2.582-1.258,2.931,2.931,0,0,1,2.308,1v-4.6h2.017V0H44.642l-.1-.93a2.973,2.973,0,0,1-2.416,1.1A3.068,3.068,0,0,1,39.574-1.1,5.535,5.535,0,0,1,38.6-4.557Zm2.017.174a3.739,3.739,0,0,0,.527,2.137,1.71,1.71,0,0,0,1.5.768,1.9,1.9,0,0,0,1.81-1.1V-6.417A1.876,1.876,0,0,0,42.658-7.5a1.723,1.723,0,0,0-1.511.776A4.163,4.163,0,0,0,40.616-4.383Zm7.579-.191a5.3,5.3,0,0,1,.523-2.378,3.819,3.819,0,0,1,1.469-1.627,4.14,4.14,0,0,1,2.175-.569,3.923,3.923,0,0,1,2.951,1.17,4.6,4.6,0,0,1,1.224,3.1l.008.473a5.343,5.343,0,0,1-.51,2.374A3.773,3.773,0,0,1,54.573-.407a4.17,4.17,0,0,1-2.2.573A3.9,3.9,0,0,1,49.336-1.1a4.848,4.848,0,0,1-1.141-3.374Zm2.017.174a3.619,3.619,0,0,0,.573,2.171,1.862,1.862,0,0,0,1.594.784,1.842,1.842,0,0,0,1.59-.8,4,4,0,0,0,.569-2.333,3.572,3.572,0,0,0-.585-2.158,1.869,1.869,0,0,0-1.59-.8,1.852,1.852,0,0,0-1.569.784A3.922,3.922,0,0,0,50.211-4.4ZM62.953-7.139a4.991,4.991,0,0,0-.822-.066,1.85,1.85,0,0,0-1.868,1.063V0H58.247V-8.981h1.926l.05,1a2.273,2.273,0,0,1,2.025-1.17,1.888,1.888,0,0,1,.714.116Z" transform="translate(80 59.001)" fill="#111211"/></g></g></svg>